#N canvas 566 125 811 706 12;
#X declare -lib clearessentials;
#X floatatom 289 583 5 0 0 0 - - - 0;
#X obj 212 614 max 40;
#X floatatom 212 681 5 0 0 0 new_note - - 0;
#X obj 212 646 expr int(0.5 +$f1);
#X obj 400 626 moses 1;
#X text 49 644 round to nearest note;
#X text 52 583 limit to guitar range;
#X floatatom 483 585 5 0 0 0 - - - 0;
#X obj 401 566 != 0;
#X obj 401 598 change;
#X msg 506 693 0;
#X obj 438 827 pack f f;
#X obj 439 877 outlet;
#X obj 439 850 t a;
#X obj 483 608 sel 0;
#X obj 257 210 hsl 128 15 0.1 10 0 0 empty empty Input\\\ threshold
-2 -8 0 10 #fcfcfc #000000 #000000 0 1;
#X obj 206 402 spigot 0;
#X obj 259 380 tgl 15 0 empty empty empty 17 7 0 10 #fcfcfc #000000
#000000 0 1;
#X msg 292 353 0;
#X msg 259 353 1;
#X obj 230 488 tgl 15 0 empty empty empty 17 7 0 10 #fcfcfc #000000
#000000 0 1;
#X obj 213 510 *~;
#X obj 207 333 t b b;
#X msg 207 427 1;
#X obj 400 651 spigot 0;
#X obj 289 463 NoiseFilter;
#X obj 366 436 hsl 128 15 0.1 1 1 0 empty empty Noise\\\ Filter -2
-8 0 10 #fcfcfc #000000 #000000 0 1;
#X obj 207 302 threshold~ 1 100 0.1 100;
#X msg 438 802 \$1;
#X msg 254 258 set \$1 100 0.1 10;
#X obj 208 368 del 10;
#X obj 229 463 del 200;
#X obj 127 40 inlet;
#X obj 254 152 f;
#X obj 254 93 t b f;
#X obj 342 138 f;
#X obj 344 93 t b f;
#X obj 444 159 f;
#X obj 435 99 t b f;
#X obj 529 156 f;
#X obj 527 101 t b f;
#X obj 717 280 outlet;
#X obj 212 582 min 88;
#X obj 213 538 sigmund~ -stabletime 88 notes env;
#X floatatom 438 777 5 0 0 0 - - - 0;
#X floatatom 479 775 5 0 0 0 - - - 0;
#X obj 411 682 f;
#X floatatom 411 708 5 0 0 0 - - - 0;
#X floatatom 392 776 5 0 0 0 - - - 0;
#X obj 410 745 poly 1 1;
#X obj 201 30 loadbang;
#X obj 205 55 \$1;
#X obj 171 85 inlet~;
#X obj 203 111 tgl 15 0 empty empty empty 17 7 0 10 #fcfcfc #000000
#000000 0 1;
#X obj 174 195 *~;
#X obj 177 231 *~;
#X floatatom 210 225 5 0 0 0 - - - 0;
#X obj 600 140 f;
#X obj 601 112 t b f;
#X obj 661 141 f;
#X obj 662 113 t b f;
#X obj 717 137 f;
#X obj 718 109 t b f;
#X obj 780 138 f;
#X obj 781 110 t b f;
#X obj 256 67 route setthreshold setnoisefilter getthreshold getnoisefilter
settoggle setmicinput gettoggle getmicinput, f 126;
#X obj 513 763 outlet;
#X obj 483 632 t b b b;
#X floatatom 254 233 5 0 0 0 - - - 0;
#X floatatom 387 465 5 0 0 0 - - - 0;
#X obj 567 664 change;
#X obj 566 713 tgl 15 0 empty empty empty 17 7 0 10 #fcfcfc #000000
#000000 0 1;
#X obj 568 638 == 0;
#X obj 566 688 == 0;
#X obj 513 735 spigot 0;
#X text 460 531 sigmund~ handeling written by: patchmeifyoucan https://forum.pdpatchrepo.info/user/patchmeifyoucan
;
#X text 625 717 << A few of my modifications;
#X text 244 510 <<< Above this object is all my original code. Except
for [NoiseFilter], f 71;
#X obj 275 35 declare -lib clearessentials;
#X connect 1 0 3 0;
#X connect 3 0 2 0;
#X connect 3 0 24 0;
#X connect 4 0 24 0;
#X connect 7 0 14 0;
#X connect 7 0 72 0;
#X connect 8 0 9 0;
#X connect 9 0 4 0;
#X connect 10 0 49 1;
#X connect 10 0 45 0;
#X connect 11 0 13 0;
#X connect 13 0 12 0;
#X connect 14 0 67 0;
#X connect 15 0 68 0;
#X connect 16 0 23 0;
#X connect 17 0 16 1;
#X connect 18 0 17 0;
#X connect 19 0 17 0;
#X connect 19 0 20 0;
#X connect 20 0 21 1;
#X connect 20 0 24 1;
#X connect 21 0 43 0;
#X connect 22 0 30 0;
#X connect 22 1 19 0;
#X connect 23 0 20 0;
#X connect 24 0 46 1;
#X connect 24 0 49 0;
#X connect 25 0 21 0;
#X connect 26 0 25 1;
#X connect 26 0 69 0;
#X connect 27 0 22 0;
#X connect 27 0 31 0;
#X connect 27 1 18 0;
#X connect 28 0 11 0;
#X connect 29 0 27 0;
#X connect 30 0 16 0;
#X connect 31 0 20 0;
#X connect 32 0 65 0;
#X connect 33 0 15 0;
#X connect 33 0 37 1;
#X connect 34 0 33 0;
#X connect 34 1 33 1;
#X connect 35 0 26 0;
#X connect 35 0 39 1;
#X connect 36 0 35 0;
#X connect 36 1 35 1;
#X connect 37 0 41 0;
#X connect 37 0 34 0;
#X connect 38 0 37 0;
#X connect 38 1 37 1;
#X connect 39 0 41 0;
#X connect 39 0 36 0;
#X connect 40 0 39 0;
#X connect 40 1 39 1;
#X connect 42 0 1 0;
#X connect 43 0 0 0;
#X connect 43 0 42 0;
#X connect 43 1 7 0;
#X connect 43 1 8 0;
#X connect 43 1 49 1;
#X connect 44 0 28 0;
#X connect 45 0 11 1;
#X connect 46 0 47 0;
#X connect 47 0 49 0;
#X connect 49 0 48 0;
#X connect 49 1 44 0;
#X connect 49 2 45 0;
#X connect 50 0 51 0;
#X connect 52 0 54 0;
#X connect 53 0 54 1;
#X connect 54 0 55 0;
#X connect 55 0 27 0;
#X connect 55 0 25 0;
#X connect 56 0 55 1;
#X connect 57 0 61 1;
#X connect 57 0 53 0;
#X connect 58 0 57 0;
#X connect 58 1 57 1;
#X connect 59 0 63 1;
#X connect 59 0 56 0;
#X connect 60 0 59 0;
#X connect 60 1 59 1;
#X connect 61 0 41 0;
#X connect 61 0 58 0;
#X connect 62 0 61 0;
#X connect 62 1 61 1;
#X connect 63 0 41 0;
#X connect 63 0 60 0;
#X connect 64 0 63 0;
#X connect 64 1 63 1;
#X connect 65 0 34 0;
#X connect 65 1 36 0;
#X connect 65 2 38 0;
#X connect 65 3 40 0;
#X connect 65 4 58 0;
#X connect 65 5 60 0;
#X connect 65 6 62 0;
#X connect 65 7 64 0;
#X connect 67 0 74 0;
#X connect 67 1 10 0;
#X connect 67 2 46 0;
#X connect 68 0 29 0;
#X connect 70 0 73 0;
#X connect 71 0 74 1;
#X connect 72 0 70 0;
#X connect 73 0 71 0;
#X connect 74 0 66 0;
