#N struct 1391-adsrenvarray float x float x-space float color array
graph 1391-adsrgraph;
#N struct 1391-adsrgraph float y;
#N canvas 37 242 1084 569 12;
#X declare -path clearessentials;
#X obj 555 354 ce_adsr;
#X text 26 68 Aka Scr1ptAl1as;
#X text 28 107 Pd 0.52.2;
#X obj 28 153 reportissue;
#X obj 28 133 aboutexternal;
#X text 26 28 ce_adsr v1.0;
#X text 26 86 2022/06/22 12:08AM;
#X msg 554 158 setmidistate 0;
#X msg 556 182 setmidistate 1;
#X msg 566 296 setarray;
#X msg 564 274 setattack 150;
#X msg 562 251 setdecay 175;
#X msg 559 229 setsustain 0.5;
#X msg 558 205 setrelease 150;
#X msg 567 317 inputmidi \$1 \$2;
#X text 231 61 View test.pd for example.;
#X text 96 234 0;
#X text 17 234 Inlet(s);
#X text 10 430 Outlet(s);
#X text 115 232 setmidistate float;
#X text 117 250 setrelease float;
#X text 117 270 setsustain float;
#X text 118 291 setdecay float;
#X text 119 311 setattack float;
#X text 120 331 setarray;
#X text 119 351 inputmidi float float;
#X text 120 381 Audio Signal;
#X text 94 450 1 - banged when osc is update/written;
#X text 93 429 0~ - Audio Signal;
#X text 94 470 2~ - vline attack decay sustain release;
#X text 96 380 1~;
#X text 94 510 4 - release value to be used in other patches.;
#X text 96 490 3 - adsr resized;
#X text 231 7 ce_adsr features 4 sliders to modify the attack decay
sustain and relase of the osc voice.;
#X text 27 47 Written By: Reg Finley;
#X obj 14 6 declare -path clearessentials;
#X obj 28 174 watchtutorial;
#X connect 7 0 0 0;
#X connect 8 0 0 0;
#X connect 9 0 0 0;
#X connect 10 0 0 0;
#X connect 11 0 0 0;
#X connect 12 0 0 0;
#X connect 13 0 0 0;
#X connect 14 0 0 0;
