#N canvas 394 205 1055 712 12;
#X declare -lib clearessentials;
#X obj 100 100 cnv 15 65 80 empty empty empty 20 12 0 14 #dfdfdf #404040
0;
#X obj 140 105 bng 10 250 50 0 empty empty empty 17 7 0 10 #fcfcfc
#000000 #000000;
#X obj 140 105 cnv 10 10 10 \$0-A-letter-send \$0-A-letter-recv A 13
5 0 10 #fcac44 #404040 0;
#X obj 140 144 bng 10 250 50 0 empty empty empty 17 7 0 10 #fcfcfc
#000000 #000000;
#X obj 140 125 bng 10 250 50 0 empty empty empty 17 7 0 10 #fcfcfc
#000000 #000000;
#X obj 140 164 bng 10 250 50 0 empty empty empty 17 7 0 10 #fcfcfc
#000000 #000000;
#X obj 140 144 cnv 10 10 10 \$0-C-letter-send \$0-C-letter-recv C 13
5 0 10 #7c7c7c #404040 0;
#X obj 140 125 cnv 10 10 10 \$0-B-letter-send \$0-B-letter-recv B 13
5 0 10 #7c7c7c #404040 0;
#X obj 140 164 cnv 10 10 10 \$0-D-letter-send \$0-D-letter-recv D 13
5 0 10 #7c7c7c #404040 0;
#X obj 106 128 bng 25 250 50 0 empty empty empty 17 7 0 10 #fcfcfc
#000000 #000000;
#X obj 103 318 outlet;
#N canvas -8 -8 1920 997 \$0-cyclebanks 0;
#X obj 149 161 change;
#X obj 146 187 == 0;
#X obj 150 210 bng 15 250 50 0 empty empty empty 17 7 0 10 #fcfcfc
#000000 #000000;
#X obj 129 245 spigot 0;
#X obj 188 230 tgl 15 0 empty empty empty 17 7 0 10 #fcfcfc #000000
#000000 0 1;
#X obj 129 276 bng 15 250 50 0 empty empty empty 17 7 0 10 #fcfcfc
#000000 #000000;
#X obj 225 167 change;
#X obj 222 193 == 0;
#X obj 226 216 bng 15 250 50 0 empty empty empty 17 7 0 10 #fcfcfc
#000000 #000000;
#X obj 205 251 spigot 0;
#X obj 264 236 tgl 15 0 empty empty empty 17 7 0 10 #fcfcfc #000000
#000000 0 1;
#X obj 204 283 bng 15 250 50 0 empty empty empty 17 7 0 10 #fcfcfc
#000000 #000000;
#X obj 303 173 change;
#X obj 300 199 == 0;
#X obj 304 222 bng 15 250 50 0 empty empty empty 17 7 0 10 #fcfcfc
#000000 #000000;
#X obj 283 257 spigot 0;
#X obj 342 242 tgl 15 0 empty empty empty 17 7 0 10 #fcfcfc #000000
#000000 0 1;
#X obj 282 282 bng 15 250 50 0 empty empty empty 17 7 0 10 #fcfcfc
#000000 #000000;
#X obj 382 175 change;
#X obj 379 201 == 0;
#X obj 383 224 bng 15 250 50 0 empty empty empty 17 7 0 10 #fcfcfc
#000000 #000000;
#X obj 362 259 spigot 0;
#X obj 421 244 tgl 15 0 empty empty empty 17 7 0 10 #fcfcfc #000000
#000000 0 1;
#X obj 362 291 bng 15 250 50 0 empty empty empty 17 7 0 10 #fcfcfc
#000000 #000000;
#X obj 154 126 == 0;
#X obj 198 126 == 1;
#X obj 232 127 == 2;
#X obj 270 130 == 3;
#X obj 152 99 count 0 3;
#X msg 264 85 0;
#X obj 277 35 loadbang;
#X obj 266 65 del;
#X obj 302 87 s \$0-perbank;
#X obj 196 57 inlet;
#X obj 128 305 outlet;
#X obj 205 310 outlet;
#X obj 283 321 outlet;
#X obj 362 320 outlet;
#X obj 460 262 t b;
#X obj 458 240 r \$0-samplemodecorrection;
#X obj 492 282 t b;
#X obj 524 301 t b;
#X obj 556 327 t b;
#X obj 492 262 r \$0-syncmodecorrection;
#X obj 524 281 r \$0-diskmodecorrection;
#X obj 556 307 r \$0-setupmodecorrection;
#X msg 459 284 0;
#X msg 491 304 0;
#X msg 523 323 0;
#X msg 555 349 0;
#X obj 485 66 inlet;
#X obj 478 96 t f;
#X msg 301 66 16;
#X connect 0 0 1 0;
#X connect 1 0 2 0;
#X connect 2 0 4 0;
#X connect 2 0 3 0;
#X connect 3 0 5 0;
#X connect 4 0 3 1;
#X connect 5 0 34 0;
#X connect 6 0 7 0;
#X connect 7 0 8 0;
#X connect 8 0 10 0;
#X connect 8 0 9 0;
#X connect 9 0 11 0;
#X connect 10 0 9 1;
#X connect 11 0 35 0;
#X connect 12 0 13 0;
#X connect 13 0 14 0;
#X connect 14 0 16 0;
#X connect 14 0 15 0;
#X connect 15 0 17 0;
#X connect 16 0 15 1;
#X connect 17 0 36 0;
#X connect 18 0 19 0;
#X connect 19 0 20 0;
#X connect 20 0 22 0;
#X connect 20 0 21 0;
#X connect 21 0 23 0;
#X connect 22 0 21 1;
#X connect 23 0 37 0;
#X connect 24 0 0 0;
#X connect 25 0 6 0;
#X connect 26 0 12 0;
#X connect 27 0 18 0;
#X connect 28 0 24 0;
#X connect 28 0 25 0;
#X connect 28 0 26 0;
#X connect 28 0 27 0;
#X connect 29 0 28 0;
#X connect 30 0 31 0;
#X connect 30 0 52 0;
#X connect 31 0 29 0;
#X connect 33 0 28 0;
#X connect 38 0 46 0;
#X connect 39 0 38 0;
#X connect 40 0 47 0;
#X connect 41 0 48 0;
#X connect 42 0 49 0;
#X connect 43 0 40 0;
#X connect 44 0 41 0;
#X connect 45 0 42 0;
#X connect 50 0 51 0;
#X connect 51 0 28 0;
#X connect 52 0 32 0;
#X restore 171 74 pd \$0-cyclebanks;
#N canvas 234 234 1284 766 \$0-assignselectedbank 0;
#X obj 16 56 hradio 12 1 0 4 empty empty Bank 0 -8 0 10 #fcfcfc #000000
#000000 0;
#X msg 128 54 1;
#X msg 160 54 2;
#X msg 197 54 3;
#X msg 95 55 0;
#X msg 224 78 symbol A;
#X msg 244 103 symbol B;
#X msg 261 127 symbol C;
#X msg 281 157 symbol D;
#X symbolatom 238 182 10 0 0 0 - - - 0;
#X obj 214 232 s \$0-bankletter;
#X floatatom 15 76 5 0 0 0 - - - 0;
#X obj 75 25 inlet;
#X obj 131 27 inlet;
#X obj 182 27 inlet;
#X obj 242 27 inlet;
#X obj 396 181 bng 15 250 50 0 empty empty empty 17 7 0 10 #fcfcfc
#000000 #000000;
#X msg 394 130 \$1;
#X obj 583 225 bng 15 250 50 0 empty empty empty 17 7 0 10 #fcfcfc
#000000 #000000;
#X obj 456 228 r \$0-CreationID;
#X obj 386 272 pack f f;
#X msg 387 249 0;
#X obj 417 371 pack f f;
#X msg 418 348 0;
#X obj 788 226 bng 15 250 50 0 empty empty empty 17 7 0 10 #fcfcfc
#000000 #000000;
#X obj 582 63 loadbang;
#X obj 584 98 \$0;
#X msg 584 122 \$1;
#X obj 430 473 pack f f;
#X msg 431 450 0;
#X obj 394 99 r \$0-bankletter;
#X obj 396 160 route A B C D;
#X obj 454 581 pack f f;
#X msg 455 558 0;
#X msg 386 296 \; \$2-A-letter-recv color 14;
#X msg 418 398 \; \$2-B-letter-recv color 11;
#X msg 431 495 \; \$2-C-letter-recv color 11;
#X msg 455 608 \; \$2-D-letter-recv color 11;
#X msg 595 379 \; \$2-B-letter-recv color 14;
#X msg 619 494 \; \$2-A-letter-recv color 11;
#X msg 643 593 \; \$2-C-letter-recv color 11;
#X msg 659 700 \; \$2-D-letter-recv color 11;
#X msg 805 367 \; \$2-C-letter-recv color 14;
#X msg 824 480 \; \$2-A-letter-recv color 11;
#X msg 845 591 \; \$2-B-letter-recv color 11;
#X msg 865 701 \; \$2-D-letter-recv color 11;
#X obj 1000 220 bng 15 250 50 0 empty empty empty 17 7 0 10 #fcfcfc
#000000 #000000;
#X msg 1036 439 \; \$2-A-letter-recv color 11;
#X msg 1058 545 \; \$2-B-letter-recv color 11;
#X msg 1015 342 \; \$2-D-letter-recv color 14;
#X msg 1064 661 \; \$2-C-letter-recv color 11;
#X obj 187 259 s bankletter;
#X obj 437 251 f;
#X obj 394 204 t b b b b b b b b;
#X obj 483 326 r \$0-CreationID;
#X obj 466 348 f;
#X obj 494 430 r \$0-CreationID;
#X obj 477 452 f;
#X obj 514 533 r \$0-CreationID;
#X obj 497 555 f;
#X obj 667 298 r \$0-CreationID;
#X obj 597 342 pack f f;
#X msg 598 319 0;
#X obj 652 318 f;
#X obj 683 413 r \$0-CreationID;
#X obj 613 457 pack f f;
#X msg 614 434 0;
#X obj 668 433 f;
#X obj 707 527 r \$0-CreationID;
#X obj 637 571 pack f f;
#X msg 638 548 0;
#X obj 692 547 f;
#X obj 724 628 r \$0-CreationID;
#X obj 654 672 pack f f;
#X msg 655 649 0;
#X obj 709 648 f;
#X obj 595 248 t b b b b b b b b;
#X obj 920 624 r \$0-CreationID;
#X obj 850 668 pack f f;
#X msg 851 645 0;
#X obj 905 644 f;
#X obj 917 516 r \$0-CreationID;
#X obj 847 560 pack f f;
#X msg 848 537 0;
#X obj 902 536 f;
#X obj 892 404 r \$0-CreationID;
#X obj 822 448 pack f f;
#X msg 823 425 0;
#X obj 877 424 f;
#X obj 871 287 r \$0-CreationID;
#X obj 801 331 pack f f;
#X msg 802 308 0;
#X obj 856 307 f;
#X obj 1087 266 r \$0-CreationID;
#X obj 1017 311 pack f f;
#X msg 1018 288 0;
#X obj 1072 287 f;
#X obj 1104 373 r \$0-CreationID;
#X obj 1034 417 pack f f;
#X msg 1035 394 0;
#X obj 1089 393 f;
#X obj 1119 470 r \$0-CreationID;
#X obj 1049 514 pack f f;
#X msg 1050 491 0;
#X obj 1104 490 f;
#X obj 1133 582 r \$0-CreationID;
#X obj 1063 626 pack f f;
#X msg 1064 603 0;
#X obj 1118 602 f;
#X obj 800 249 t b b b b b b b b;
#X obj 1012 243 t b b b b b b b b;
#X obj 86 159 r \$0-CreationID;
#X obj 68 183 f;
#X obj 50 233 s;
#X msg 68 208 symbol \$1-banknum;
#X obj 29 158 t f b;
#X obj 16 99 t b f;
#X obj 12 125 f;
#X obj 345 5 inlet;
#X obj 341 43 t b;
#X connect 0 0 11 0;
#X connect 1 0 0 0;
#X connect 1 0 6 0;
#X connect 2 0 0 0;
#X connect 2 0 7 0;
#X connect 3 0 0 0;
#X connect 3 0 8 0;
#X connect 4 0 0 0;
#X connect 4 0 5 0;
#X connect 5 0 9 0;
#X connect 6 0 9 0;
#X connect 7 0 9 0;
#X connect 8 0 9 0;
#X connect 9 0 10 0;
#X connect 9 0 51 0;
#X connect 11 0 116 0;
#X connect 12 0 4 0;
#X connect 13 0 1 0;
#X connect 14 0 2 0;
#X connect 15 0 3 0;
#X connect 16 0 53 0;
#X connect 17 0 31 0;
#X connect 18 0 76 0;
#X connect 19 0 52 1;
#X connect 20 0 34 0;
#X connect 21 0 20 0;
#X connect 22 0 35 0;
#X connect 23 0 22 0;
#X connect 24 0 109 0;
#X connect 25 0 26 0;
#X connect 26 0 27 0;
#X connect 28 0 36 0;
#X connect 29 0 28 0;
#X connect 30 0 17 0;
#X connect 31 0 16 0;
#X connect 31 1 18 0;
#X connect 31 2 24 0;
#X connect 31 3 46 0;
#X connect 32 0 37 0;
#X connect 33 0 32 0;
#X connect 46 0 110 0;
#X connect 52 0 20 1;
#X connect 53 0 21 0;
#X connect 53 1 23 0;
#X connect 53 2 29 0;
#X connect 53 3 33 0;
#X connect 53 4 52 0;
#X connect 53 5 55 0;
#X connect 53 6 57 0;
#X connect 53 7 59 0;
#X connect 54 0 55 1;
#X connect 55 0 22 1;
#X connect 56 0 57 1;
#X connect 57 0 28 1;
#X connect 58 0 59 1;
#X connect 59 0 32 1;
#X connect 60 0 63 1;
#X connect 61 0 38 0;
#X connect 62 0 61 0;
#X connect 63 0 61 1;
#X connect 64 0 67 1;
#X connect 65 0 39 0;
#X connect 66 0 65 0;
#X connect 67 0 65 1;
#X connect 68 0 71 1;
#X connect 69 0 40 0;
#X connect 70 0 69 0;
#X connect 71 0 69 1;
#X connect 72 0 75 1;
#X connect 73 0 41 0;
#X connect 74 0 73 0;
#X connect 75 0 73 1;
#X connect 76 0 62 0;
#X connect 76 1 66 0;
#X connect 76 2 70 0;
#X connect 76 3 74 0;
#X connect 76 4 63 0;
#X connect 76 5 67 0;
#X connect 76 6 71 0;
#X connect 76 7 75 0;
#X connect 77 0 80 1;
#X connect 78 0 45 0;
#X connect 79 0 78 0;
#X connect 80 0 78 1;
#X connect 81 0 84 1;
#X connect 82 0 44 0;
#X connect 83 0 82 0;
#X connect 84 0 82 1;
#X connect 85 0 88 1;
#X connect 86 0 43 0;
#X connect 87 0 86 0;
#X connect 88 0 86 1;
#X connect 89 0 92 1;
#X connect 90 0 42 0;
#X connect 91 0 90 0;
#X connect 92 0 90 1;
#X connect 93 0 96 1;
#X connect 94 0 49 0;
#X connect 95 0 94 0;
#X connect 96 0 94 1;
#X connect 97 0 100 1;
#X connect 98 0 47 0;
#X connect 99 0 98 0;
#X connect 100 0 98 1;
#X connect 101 0 104 1;
#X connect 102 0 48 0;
#X connect 103 0 102 0;
#X connect 104 0 102 1;
#X connect 105 0 108 1;
#X connect 106 0 50 0;
#X connect 107 0 106 0;
#X connect 108 0 106 1;
#X connect 109 0 91 0;
#X connect 109 1 87 0;
#X connect 109 2 83 0;
#X connect 109 3 79 0;
#X connect 109 4 92 0;
#X connect 109 5 88 0;
#X connect 109 6 84 0;
#X connect 109 7 80 0;
#X connect 110 0 95 0;
#X connect 110 1 99 0;
#X connect 110 2 103 0;
#X connect 110 3 107 0;
#X connect 110 4 96 0;
#X connect 110 5 100 0;
#X connect 110 6 104 0;
#X connect 110 7 108 0;
#X connect 111 0 112 1;
#X connect 112 0 114 0;
#X connect 114 0 113 1;
#X connect 115 0 113 0;
#X connect 115 1 112 0;
#X connect 116 0 117 0;
#X connect 116 1 117 1;
#X connect 117 0 115 0;
#X connect 118 0 119 0;
#X connect 119 0 117 0;
#X restore 171 189 pd \$0-assignselectedbank;
#X obj 476 2 inlet;
#X obj 62 44 bng 15 250 50 0 empty empty empty 17 7 0 10 #fcfcfc #000000
#000000;
#X obj 62 18 r \$0-keyboardF7;
#X obj 176 42 bng 15 250 50 0 empty empty empty 17 7 0 10 #fcfcfc #000000
#000000;
#X obj 176 18 r loadedbankchange;
#X obj 312 41 \$0;
#X obj 312 18 loadbang;
#X floatatom 312 65 5 0 0 0 - - - 0;
#X obj 312 88 s \$0-CreationID;
#X obj 520 225 \$1;
#X obj 520 156 +;
#X obj 519 102 *;
#X obj 519 123 t b f;
#X floatatom 520 200 5 0 0 0 - - - 0;
#X obj 520 178 t f;
#X obj 519 53 r \$0-banknum;
#X obj 537 77 r \$0-perbank;
#X obj 577 252 r \$0-CreationID;
#X obj 559 276 f;
#X obj 534 330 s;
#X msg 559 301 symbol \$1-bankIndex;
#X obj 311 269 r \$0-bankIndex;
#X floatatom 311 295 5 0 0 0 - - - 0;
#X obj 311 319 outlet;
#X obj 520 251 t f b;
#X obj 476 124 t b f;
#X obj 218 269 r \$0-banknum;
#X obj 218 319 outlet;
#X floatatom 218 295 5 0 0 0 - - - 0;
#X obj 633 66 t b f;
#X obj 633 93 f;
#X obj 633 163 s \$0-perbank;
#X obj 103 269 r \$0-bankletter;
#X obj 476 29 route float bang set_perbank set_bank;
#X obj 689 64 t b f;
#X obj 689 91 f;
#X listbox 103 294 6 0 0 0 - - - 0;
#X obj 721 139 s \$0-banknum;
#X obj 689 114 t f f;
#X obj 527 4 declare -lib clearessentials;
#X connect 1 0 12 0;
#X connect 3 0 12 2;
#X connect 4 0 12 1;
#X connect 5 0 12 3;
#X connect 9 0 11 0;
#X connect 11 0 1 0;
#X connect 11 1 4 0;
#X connect 11 2 3 0;
#X connect 11 3 5 0;
#X connect 13 0 46 0;
#X connect 14 0 9 0;
#X connect 15 0 14 0;
#X connect 16 0 9 0;
#X connect 17 0 16 0;
#X connect 18 0 20 0;
#X connect 19 0 18 0;
#X connect 20 0 21 0;
#X connect 22 0 37 0;
#X connect 23 0 27 0;
#X connect 24 0 25 0;
#X connect 25 0 23 0;
#X connect 25 1 23 1;
#X connect 26 0 22 0;
#X connect 27 0 26 0;
#X connect 28 0 24 0;
#X connect 29 0 24 1;
#X connect 30 0 31 1;
#X connect 31 0 33 0;
#X connect 33 0 32 1;
#X connect 34 0 35 0;
#X connect 35 0 36 0;
#X connect 37 0 32 0;
#X connect 37 1 31 0;
#X connect 38 0 12 4;
#X connect 38 1 23 0;
#X connect 39 0 41 0;
#X connect 41 0 40 0;
#X connect 42 0 43 0;
#X connect 42 1 43 1;
#X connect 43 0 44 0;
#X connect 45 0 49 0;
#X connect 46 0 38 0;
#X connect 46 1 9 0;
#X connect 46 2 42 0;
#X connect 46 3 47 0;
#X connect 47 0 48 0;
#X connect 47 1 48 1;
#X connect 48 0 51 0;
#X connect 49 0 10 0;
#X connect 51 0 11 1;
#X connect 51 1 50 0;
#X coords 0 -1 1 1 65 80 2 100 100;
