#N struct 4304-bang float c float bc float x float y symbol text;
#N canvas 462 261 962 678 10;
#X obj 575 514 outlet;
#N canvas 0 85 450 300 \$0-display 0;
#X scalar 4304-bang 444 444 0 0 (24) \;;
#X scalar 4304-bang 18 444 0 0 (24) \;;
#X scalar 4304-bang 444 444 0 0 (0) \;;
#X coords 0 0 1 1 24 24 2 0 0;
#X restore 30 30 pd \$0-display;
#X msg 604 84 \$1;
#X obj 602 129 bng 15 250 50 0 empty empty empty 17 7 0 10 #fcfcfc
#000000 #000000;
#X obj 639 129 bng 15 250 50 0 empty empty empty 17 7 0 10 #fcfcfc
#000000 #000000;
#X obj 833 153 bng 15 250 50 0 empty empty empty 17 7 0 10 #fcfcfc
#000000 #000000;
#N canvas 913 262 610 861 \$0-bang 0;
#X obj 44 109 unpack s p f;
#X obj 44 224 outlet;
#X obj 44 132 sel click;
#X obj 92 224 set \$0-bang c;
#X obj 44 63 filledpolygon c bc 0 0 0 0 1 1 1 1 0;
#X obj 92 177 del 150;
#X msg 92 201 444;
#X obj 44 155 t b b b b;
#X msg 122 201 18;
#X obj 44 86 struct \$0-bang float c float bc float x float y symbol
text;
#X obj 47 40 drawtext text 0.1 0.2;
#X connect 0 0 2 0;
#X connect 0 1 3 1;
#X connect 2 0 7 0;
#X connect 5 0 6 0;
#X connect 6 0 3 0;
#X connect 7 0 1 0;
#X connect 7 1 5 0;
#X connect 7 2 8 0;
#X connect 8 0 3 0;
#X connect 9 0 0 0;
#X restore 546 208 pd \$0-bang;
#X obj 183 250 s pd-\$0-display;
#X obj 183 273 symbol pd-\$0-display;
#X obj 183 319 pointer;
#X msg 183 227 clear;
#X obj 343 125 namecanvas \$0-this;
#X floatatom 379 262 5 0 0 0 - - - 0;
#X obj 379 307 pack;
#X obj 367 397 s \$0-this;
#X obj 432 397 s pd-\$0-display;
#X floatatom 419 262 5 0 0 0 - - - 0;
#X obj 419 284 t b f;
#X obj 367 328 t l l;
#X msg 367 374 coords 0 \$2 \$1 0 \$1 \$2 2 30 30;
#X obj 344 148 loadbang;
#X msg 432 351 coords 0 0 1 1 \$1 \$2 3 0 0;
#X text 354 193 width;
#X text 394 195 height;
#X obj 318 215 \$1;
#X floatatom 318 255 5 0 0 0 - - - 0;
#X obj 462 293 pack;
#X obj 502 270 t b f;
#X obj 492 240 - 1;
#X obj 466 265 - 1;
#X obj 462 316 t l;
#X msg 183 296 traverse \$1 \, bang;
#X obj 279 360 \$0;
#X symbolatom 279 462 10 0 0 0 - - - 0;
#X obj 279 572 s;
#X obj 298 550 symbol;
#X obj 279 483 t b b s;
#X obj 279 420 f;
#X floatatom 306 402 5 0 0 0 - - - 0;
#X obj 279 380 t b f;
#X msg 298 530 bang;
#X msg 237 536 bang;
#X obj 55 416 symbol;
#X msg 54 394 bang;
#X msg 57 439 symbol \$1;
#X obj 244 53 inlet;
#X obj 122 519 * 0.1;
#X floatatom 122 544 5 0 0 0 - - - 0;
#X obj 349 216 \$2;
#X obj 379 222 \$3;
#X obj 419 221 \$4;
#X floatatom 343 274 5 0 0 0 - - - 0;
#X obj 161 522 * 0.1;
#X floatatom 163 546 5 0 0 0 - - - 0;
#X obj 43 368 t b p p, f 10;
#X obj 44 345 append \$0-bang c bc;
#X obj 57 460 set -symbol \$0-bang text;
#X obj 122 571 set \$0-bang x y;
#X msg 278 442 symbol \$1-display;
#X obj 219 94 t b b b b;
#X obj 556 243 bng 15 250 50 0 empty empty empty 17 7 0 10 #fcfcfc
#000000 #000000;
#X obj 670 129 bng 15 250 50 0 empty empty empty 17 7 0 10 #fcfcfc
#000000 #000000;
#X obj 675 198 del 150;
#X msg 737 229 18;
#X obj 811 205 del 150;
#X msg 865 229 18;
#X obj 367 72 symbol;
#X msg 367 50 bang;
#X msg 70 295 444 444;
#X obj 477 61 inlet;
#X msg 13 295 900 900;
#X obj 123 300 t b b s;
#X msg 12 227 \$1;
#X obj 14 205 t s s b b;
#X obj 12 255 route Rec(\\\\);
#X msg 806 228 900;
#X msg 675 218 444;
#X obj 606 106 route Play([) Stop(]) Rec(\\\\);
#X msg 759 175 symbol;
#X obj 696 171 t b b b;
#X msg 888 174 symbol;
#X obj 831 174 t b b b;
#X obj 477 155 symbol;
#X msg 477 133 bang;
#X listbox 570 53 20 0 0 0 - - - 0;
#X obj 534 98 t s;
#X obj 545 179 bng 15 250 50 0 empty empty empty 17 7 0 10 #fcfcfc
#000000 #000000;
#X obj 544 156 bng 15 250 50 0 empty empty empty 17 7 0 10 #fcfcfc
#000000 #000000;
#X obj 474 179 t b s;
#X connect 2 0 77 0;
#X connect 3 0 0 0;
#X connect 3 0 79 0;
#X connect 4 0 0 0;
#X connect 4 0 79 0;
#X connect 5 0 0 0;
#X connect 5 0 81 0;
#X connect 6 0 0 0;
#X connect 6 0 60 0;
#X connect 8 0 31 0;
#X connect 9 0 55 2;
#X connect 10 0 7 0;
#X connect 12 0 13 0;
#X connect 12 0 29 0;
#X connect 13 0 18 0;
#X connect 16 0 17 0;
#X connect 16 0 28 0;
#X connect 17 0 13 0;
#X connect 17 1 13 1;
#X connect 18 0 19 0;
#X connect 18 1 21 0;
#X connect 19 0 14 0;
#X connect 20 0 24 0;
#X connect 20 0 32 0;
#X connect 20 0 48 0;
#X connect 20 0 49 0;
#X connect 20 0 50 0;
#X connect 21 0 15 0;
#X connect 24 0 25 0;
#X connect 26 0 30 0;
#X connect 27 0 26 0;
#X connect 27 1 26 1;
#X connect 28 0 27 0;
#X connect 29 0 26 0;
#X connect 30 0 21 0;
#X connect 31 0 9 0;
#X connect 32 0 39 0;
#X connect 33 0 36 0;
#X connect 35 0 34 1;
#X connect 36 1 40 0;
#X connect 36 2 35 1;
#X connect 37 0 58 0;
#X connect 38 0 37 1;
#X connect 39 0 37 0;
#X connect 39 1 38 0;
#X connect 40 0 35 0;
#X connect 41 0 34 0;
#X connect 42 0 44 0;
#X connect 43 0 42 0;
#X connect 44 0 56 0;
#X connect 45 0 59 0;
#X connect 46 0 47 0;
#X connect 47 0 57 0;
#X connect 48 0 51 0;
#X connect 49 0 12 0;
#X connect 50 0 16 0;
#X connect 52 0 53 0;
#X connect 53 0 57 1;
#X connect 54 0 43 0;
#X connect 54 2 56 1;
#X connect 55 0 54 0;
#X connect 58 0 33 0;
#X connect 59 1 41 0;
#X connect 59 2 67 0;
#X connect 61 0 0 0;
#X connect 61 0 79 0;
#X connect 62 0 76 0;
#X connect 62 0 86 0;
#X connect 63 0 55 0;
#X connect 64 0 75 0;
#X connect 64 0 87 0;
#X connect 65 0 55 0;
#X connect 66 0 2 0;
#X connect 66 0 84 0;
#X connect 67 0 66 0;
#X connect 68 0 55 0;
#X connect 69 0 73 0;
#X connect 69 0 66 1;
#X connect 70 0 55 0;
#X connect 71 0 41 0;
#X connect 71 2 42 1;
#X connect 72 0 74 0;
#X connect 73 0 72 0;
#X connect 73 1 71 0;
#X connect 73 2 8 0;
#X connect 73 3 10 0;
#X connect 74 0 70 0;
#X connect 74 1 68 0;
#X connect 75 0 55 0;
#X connect 76 0 55 0;
#X connect 77 0 3 0;
#X connect 77 1 4 0;
#X connect 77 2 5 0;
#X connect 77 3 61 0;
#X connect 78 0 42 1;
#X connect 79 0 62 0;
#X connect 79 1 78 0;
#X connect 79 2 63 0;
#X connect 80 0 42 1;
#X connect 81 0 64 0;
#X connect 81 1 80 0;
#X connect 81 2 65 0;
#X connect 82 0 88 0;
#X connect 83 0 82 0;
#X connect 84 0 82 1;
#X connect 86 0 83 0;
#X connect 87 0 83 0;
#X connect 88 0 43 0;
#X connect 88 1 42 1;
#X coords 0 25 25 0 25 25 2 30 30;
