#N struct 1276-bang float c float bc float x float y symbol text;
#N canvas 267 204 962 678 10;
#X declare -lib clearessentials;
#X obj 575 514 outlet;
#N canvas 0 85 450 300 \$0-display 0;
#X scalar 1276-bang 18 0 0 0 (1) \;;
#X scalar 1276-bang 444 0 0 0 (1) \;;
#X coords 0 0 1 1 200 140 2 0 0;
#X restore 30 30 pd \$0-display;
#X obj 107 52 inlet;
#X msg 604 84 \$1;
#N canvas 913 262 610 861 \$0-bang 0;
#X obj 44 109 unpack s p f;
#X obj 44 224 outlet;
#X obj 44 132 sel click;
#X obj 92 224 set \$0-bang c;
#X obj 44 63 filledpolygon c bc 0 0 0 0 1 1 1 1 0;
#X obj 92 177 del 150;
#X msg 92 201 444;
#X obj 44 155 t b b b b;
#X msg 122 201 18;
#X obj 44 86 struct \$0-bang float c float bc float x float y symbol
text;
#X obj 47 40 drawtext text 0.1 0.2;
#X connect 0 0 2 0;
#X connect 0 1 3 1;
#X connect 2 0 7 0;
#X connect 5 0 6 0;
#X connect 6 0 3 0;
#X connect 7 0 1 0;
#X connect 7 1 5 0;
#X connect 7 2 8 0;
#X connect 8 0 3 0;
#X connect 9 0 0 0;
#X restore 546 208 pd \$0-bang;
#X obj 183 250 s pd-\$0-display;
#X obj 183 273 symbol pd-\$0-display;
#X obj 183 319 pointer;
#X msg 183 227 clear;
#X obj 343 125 namecanvas \$0-this;
#X floatatom 379 262 5 0 0 0 - - - 0;
#X obj 379 307 pack;
#X obj 367 397 s \$0-this;
#X obj 432 397 s pd-\$0-display;
#X floatatom 419 262 5 0 0 0 - - - 0;
#X obj 419 284 t b f;
#X obj 367 328 t l l;
#X msg 367 374 coords 0 \$2 \$1 0 \$1 \$2 2 30 30;
#X obj 344 148 loadbang;
#X msg 432 351 coords 0 0 1 1 \$1 \$2 3 0 0;
#X text 354 193 width;
#X text 394 195 height;
#X obj 318 215 \$1;
#X floatatom 318 255 5 0 0 0 - - - 0;
#X obj 462 293 pack;
#X obj 502 270 t b f;
#X obj 492 240 - 1;
#X obj 466 265 - 1;
#X obj 462 316 t l;
#X msg 183 296 traverse \$1 \, bang;
#X obj 279 360 \$0;
#X symbolatom 279 462 10 0 0 0 - - - 0;
#X obj 279 572 s;
#X obj 298 550 symbol;
#X obj 279 483 t b b s;
#X obj 279 420 f;
#X floatatom 306 402 5 0 0 0 - - - 0;
#X obj 279 380 t b f;
#X msg 298 530 bang;
#X msg 237 536 bang;
#X obj 55 416 symbol;
#X obj 123 300 t b s;
#X msg 54 394 bang;
#X msg 57 439 symbol \$1;
#X obj 241 75 inlet;
#X obj 122 519 * 0.1;
#X floatatom 122 544 5 0 0 0 - - - 0;
#X obj 349 216 \$2;
#X obj 379 222 \$3;
#X obj 419 221 \$4;
#X floatatom 343 274 5 0 0 0 - - - 0;
#X obj 161 522 * 0.1;
#X floatatom 163 546 5 0 0 0 - - - 0;
#X obj 43 368 t b p p, f 10;
#X obj 44 345 append \$0-bang c bc;
#X obj 57 460 set -symbol \$0-bang text;
#X obj 122 571 set \$0-bang x y;
#X msg 278 442 symbol \$1-display;
#X obj 239 100 t b b b b;
#X obj 584 236 bng 15 250 50 0 empty empty empty 17 7 0 10 #fcfcfc
#000000 #000000;
#X obj 700 146 bng 15 250 50 0 empty empty empty 17 7 0 10 #fcfcfc
#000000 #000000;
#X obj 69 148 t s b b b;
#X obj 61 121 symbol;
#X msg 57 98 bang;
#X obj 107 76 t b s b s;
#X obj 719 195 del 150;
#X msg 753 218 18;
#X msg 720 218 444;
#X obj 604 107 route Play Stop Rec(C);
#X obj 754 169 t b b b;
#X obj 90 235 symbol;
#X msg 84 206 bang;
#X obj 741 130 t b;
#X obj 715 316 spigot 0;
#X obj 770 291 tgl 15 0 empty empty empty 17 7 0 10 #fcfcfc #000000
#000000 0 1;
#X obj 713 274 t b b;
#X obj 30 8 declare -lib clearessentials;
#X connect 2 0 64 0;
#X connect 3 0 68 0;
#X connect 4 0 59 0;
#X connect 4 0 0 0;
#X connect 6 0 29 0;
#X connect 7 0 54 2;
#X connect 8 0 5 0;
#X connect 10 0 11 0;
#X connect 10 0 27 0;
#X connect 11 0 16 0;
#X connect 14 0 15 0;
#X connect 14 0 26 0;
#X connect 15 0 11 0;
#X connect 15 1 11 1;
#X connect 16 0 17 0;
#X connect 16 1 19 0;
#X connect 17 0 12 0;
#X connect 18 0 22 0;
#X connect 18 0 30 0;
#X connect 18 0 47 0;
#X connect 18 0 48 0;
#X connect 18 0 49 0;
#X connect 19 0 13 0;
#X connect 22 0 23 0;
#X connect 24 0 28 0;
#X connect 25 0 24 0;
#X connect 25 1 24 1;
#X connect 26 0 25 0;
#X connect 27 0 24 0;
#X connect 28 0 19 0;
#X connect 29 0 7 0;
#X connect 30 0 37 0;
#X connect 31 0 34 0;
#X connect 33 0 32 1;
#X connect 34 1 38 0;
#X connect 34 2 33 1;
#X connect 35 0 57 0;
#X connect 36 0 35 1;
#X connect 37 0 35 0;
#X connect 37 1 36 0;
#X connect 38 0 33 0;
#X connect 39 0 32 0;
#X connect 40 0 43 0;
#X connect 41 1 40 1;
#X connect 42 0 40 0;
#X connect 43 0 55 0;
#X connect 44 0 58 0;
#X connect 45 0 46 0;
#X connect 46 0 56 0;
#X connect 47 0 50 0;
#X connect 48 0 10 0;
#X connect 49 0 14 0;
#X connect 51 0 52 0;
#X connect 52 0 56 1;
#X connect 53 0 42 0;
#X connect 53 2 55 1;
#X connect 54 0 53 0;
#X connect 57 0 31 0;
#X connect 58 0 39 0;
#X connect 58 0 63 0;
#X connect 60 0 69 0;
#X connect 61 0 3 0;
#X connect 61 1 6 0;
#X connect 61 2 8 0;
#X connect 62 0 61 0;
#X connect 63 0 62 0;
#X connect 64 0 63 0;
#X connect 64 1 62 1;
#X connect 64 2 63 0;
#X connect 64 3 41 0;
#X connect 65 0 67 0;
#X connect 66 0 54 0;
#X connect 67 0 54 0;
#X connect 68 3 72 0;
#X connect 69 0 65 0;
#X connect 69 1 66 0;
#X connect 69 2 75 0;
#X connect 72 0 69 0;
#X connect 73 0 0 0;
#X connect 74 0 73 1;
#X connect 75 0 73 0;
#X connect 75 1 74 0;
#X coords 0 0 0 0 200 140 2 30 30;
