#N canvas 48 74 1266 572 12;
#X obj 100 100 cnv 15 240 200 empty empty empty 20 12 0 14 #404040
#404040 0;
#X obj 148 268 hsl 100 12 0.01 1 1 0 \$0-mixvol-send \$0-mixvol-recv
Mix\\\ Volume 3 6 0 10 #dfdfdf #00faff #000000 0 1;
#X obj 148 284 hsl 100 12 0.01 1 1 0 \$0-mixvol-send \$0-mixvol-recv
Metro\\\ Volume 3 6 0 10 #dfdfdf #00faff #000000 0 1;
#N canvas 565 84 859 780 \$0-recsequenceBTN 0;
#X obj 268 59 tgl 15 0 empty empty empty 17 7 0 10 #fcfcfc #000000
#000000 0 1;
#X obj 268 185 spigot 0;
#X obj 268 119 change;
#X floatatom 268 164 5 0 0 0 - - - 0;
#X obj 268 97 == 0;
#X obj 282 142 == 0;
#X floatatom 427 137 5 0 0 0 - - - 0;
#X obj 427 116 == 0;
#X obj 427 156 change;
#X floatatom 427 201 5 0 0 0 - - - 0;
#X obj 427 180 == 1;
#X obj 427 220 spigot 0;
#X obj 326 28 inlet;
#X obj 101 101 bng 11 250 50 0 empty empty empty 17 7 0 10 #fcfcfc
#000000 #000000;
#X obj 112 101 bng 11 250 50 0 empty empty empty 17 7 0 10 #fcfcfc
#000000 #000000;
#X obj 124 101 bng 11 250 50 0 empty empty empty 17 7 0 10 #fcfcfc
#000000 #000000;
#X msg 422 285 0;
#X obj 423 33 loadbang;
#X msg 424 76 1;
#X obj 424 55 t b;
#X obj 134 101 bng 11 250 50 0 empty empty empty 17 7 0 10 #fcfcfc
#000000 #000000;
#X obj 513 459 pack f f;
#X obj 215 436 pack f f;
#X msg 169 280 0;
#X obj 268 205 t b b b b b;
#X obj 427 254 t b b b b b b b;
#X obj 306 524 outlet;
#X msg 261 414 13;
#X msg 559 438 13;
#X obj 101 111 bng 11 250 50 0 empty empty empty 17 7 0 10 #fcfcfc
#000000 #000000;
#X obj 112 111 bng 11 250 50 0 empty empty empty 17 7 0 10 #fcfcfc
#000000 #000000;
#X obj 124 111 bng 11 250 50 0 empty empty empty 17 7 0 10 #fcfcfc
#000000 #000000;
#X obj 134 111 bng 11 250 50 0 empty empty empty 17 7 0 10 #fcfcfc
#000000 #000000;
#X obj 100 100 cnv 12 48 23 recseqswitch-send recseqswitch-recv Rec
14 13 0 12 #ff0400 #bbbbbb 0;
#X msg 203 463 \; recseqswitch-recv label_pos \$1 \$2;
#X msg 514 480 \; recseqswitch-recv label_pos \$1 \$2;
#X msg 156 304 \; recseqswitch-recv label Rec \;;
#X msg 474 300 \; recseqswitch-recv label Rec \;;
#X msg 214 415 17;
#X msg 515 438 17;
#X text 602 234 Start;
#X obj 707 209 t b;
#X msg 715 234 1;
#X obj 604 251 s metronomeOff;
#X obj 706 184 r externalrec;
#X connect 0 0 1 1;
#X connect 0 0 4 0;
#X connect 0 0 7 0;
#X connect 0 0 11 1;
#X connect 1 0 24 0;
#X connect 2 0 5 0;
#X connect 3 0 1 0;
#X connect 4 0 2 0;
#X connect 5 0 3 0;
#X connect 6 0 8 0;
#X connect 7 0 6 0;
#X connect 8 0 10 0;
#X connect 9 0 11 0;
#X connect 10 0 9 0;
#X connect 11 0 25 0;
#X connect 12 0 0 0;
#X connect 13 0 0 0;
#X connect 14 0 0 0;
#X connect 15 0 0 0;
#X connect 17 0 19 0;
#X connect 18 0 0 0;
#X connect 19 0 18 0;
#X connect 20 0 0 0;
#X connect 21 0 35 0;
#X connect 22 0 34 0;
#X connect 24 0 36 0;
#X connect 24 1 23 0;
#X connect 24 1 26 0;
#X connect 24 1 43 0;
#X connect 24 2 38 0;
#X connect 24 3 27 0;
#X connect 25 0 37 0;
#X connect 25 1 16 0;
#X connect 25 1 26 0;
#X connect 25 1 43 0;
#X connect 25 2 39 0;
#X connect 25 3 28 0;
#X connect 27 0 22 1;
#X connect 28 0 21 1;
#X connect 29 0 0 0;
#X connect 30 0 0 0;
#X connect 31 0 0 0;
#X connect 32 0 0 0;
#X connect 38 0 22 0;
#X connect 39 0 21 0;
#X connect 41 0 42 0;
#X connect 42 0 43 0;
#X connect 44 0 41 0;
#X coords 0 -1 1 1 48 23 2 100 100;
#X restore 218 145 pd \$0-recsequenceBTN;
#N canvas 277 143 619 349 \$0-barsteptickDisplay 0;
#X obj 100 100 cnv 15 200 34 empty empty empty 20 12 0 14 #000000 #404040
0;
#X obj 101 102 cnv 15 196 30 empty empty empty 20 12 0 14 #101054 #404040
0;
#X obj 108 103 cnv 15 30 15 empty empty Bar 3 7 0 12 #101054 #00f8fc
0;
#X obj 171 104 cnv 15 30 15 empty empty Step 3 7 0 12 #101054 #00f8fc
0;
#X obj 244 104 cnv 15 30 15 empty empty Tick 3 7 0 12 #101054 #00f8fc
0;
#X obj 100 116 cnv 15 20 15 \$0-playedbar-send \$0-playedbar-recv >0
3 8 0 12 #101054 #00f8fc 0;
#X obj 164 116 cnv 15 20 15 \$0-playedstep-send \$0-playedstep-recv
>0 3 8 0 12 #101054 #00f8fc 0;
#X obj 237 116 cnv 15 20 15 \$0-playedtick-send \$0-playedtick-recv
>0 3 8 0 12 #101054 #00f8fc 0;
#X obj 225 116 cnv 15 15 15 empty empty : 3 8 0 12 #101054 #00f8fc
0;
#X obj 151 116 cnv 15 13 15 empty empty : 3 8 0 12 #101054 #00f8fc
0;
#X obj 283 165 r currentstep;
#X obj 131 165 r currentbar;
#X obj 440 170 r currenttick;
#X obj 131 250 s \$0-playedbar-recv;
#X obj 284 251 s \$0-playedstep-recv;
#X obj 445 253 s \$0-playedtick-recv;
#X msg 131 227 label >\$1;
#X msg 285 225 label >\$1;
#X msg 444 223 label >\$1;
#X connect 10 0 17 0;
#X connect 11 0 16 0;
#X connect 12 0 18 0;
#X connect 16 0 13 0;
#X connect 17 0 14 0;
#X connect 18 0 15 0;
#X coords 0 -1 1 1 200 34 2 100 100;
#X restore 116 105 pd \$0-barsteptickDisplay;
#X obj 257 467 s projectplaystate;
#X obj 235 442 tgl 15 0 empty empty empty 17 7 0 10 #fcfcfc #000000
#000000 0 1;
#X msg 255 414 0;
#X msg 219 416 1;
#X obj 240 336 r \$0-exportwhileplaying;
#X obj 241 361 t b;
#X obj 275 388 t b;
#X obj 274 363 r \$0-exportdone;
#X obj 601 521 tgl 15 0 empty empty empty 17 7 0 10 #fcfcfc #000000
#000000 0 1;
#X obj 601 540 s projectrecstate;
#X obj 577 415 s \$0-resettick;
#X obj 547 438 s \$0-resetbar;
#X obj 269 148 cnv 15 20 15 \$0-precount-send \$0-precount-recv GO!
3 7 0 20 #404040 #404040 0;
#X msg 601 387 0;
#X msg 570 492 1;
#N canvas 109 95 363 468 \$0-checkmidiinstate 0;
#X obj 64 56 inlet;
#X obj 128 57 r midiinstatus;
#X obj 161 108 tgl 15 0 empty empty empty 17 7 0 10 #fcfcfc #000000
#000000 0 1;
#X obj 128 82 t b f;
#X obj 108 129 spigot 0;
#X obj 186 143 == 1;
#X obj 186 167 change;
#X obj 186 191 == 0;
#X obj 187 218 tgl 15 0 empty empty empty 17 7 0 10 #fcfcfc #000000
#000000 0 1;
#X obj 133 238 spigot 0;
#X obj 175 312 s setmidiinstatus;
#X obj 143 266 t b b;
#X msg 176 290 1;
#X obj 108 310 outlet;
#X obj 104 265 t b;
#X connect 0 0 4 0;
#X connect 0 0 9 0;
#X connect 1 0 3 0;
#X connect 2 0 4 1;
#X connect 2 0 5 0;
#X connect 3 1 2 0;
#X connect 4 0 14 0;
#X connect 5 0 6 0;
#X connect 6 0 7 0;
#X connect 7 0 8 0;
#X connect 8 0 9 1;
#X connect 9 0 11 0;
#X connect 11 0 13 0;
#X connect 11 1 12 0;
#X connect 12 0 10 0;
#X connect 14 0 13 0;
#X restore 570 467 pd \$0-checkmidiinstate;
#X obj 640 387 s premetronomeOff;
#N canvas 517 53 1920 997 \$0-stopsequenceBTN 0;
#X obj 268 59 tgl 15 0 empty empty empty 17 7 0 10 #fcfcfc #000000
#000000 0 1;
#X obj 268 185 spigot 0;
#X obj 268 119 change;
#X floatatom 268 164 5 0 0 0 - - - 0;
#X obj 268 97 == 0;
#X obj 282 142 == 0;
#X floatatom 427 137 5 0 0 0 - - - 0;
#X obj 427 116 == 0;
#X obj 427 156 change;
#X floatatom 427 201 5 0 0 0 - - - 0;
#X obj 427 180 == 1;
#X obj 427 220 spigot 0;
#X obj 326 28 inlet;
#X obj 101 101 bng 11 250 50 0 empty empty empty 17 7 0 10 #fcfcfc
#000000 #000000;
#X obj 112 101 bng 11 250 50 0 empty empty empty 17 7 0 10 #fcfcfc
#000000 #000000;
#X obj 124 101 bng 11 250 50 0 empty empty empty 17 7 0 10 #fcfcfc
#000000 #000000;
#X msg 422 285 0;
#X obj 423 33 loadbang;
#X msg 424 76 1;
#X obj 424 55 t b;
#X obj 134 101 bng 11 250 50 0 empty empty empty 17 7 0 10 #fcfcfc
#000000 #000000;
#X obj 513 459 pack f f;
#X obj 215 436 pack f f;
#X msg 169 280 0;
#X obj 268 205 t b b b b b;
#X obj 427 254 t b b b b b b b;
#X obj 306 524 outlet;
#X msg 203 463 \; stopseqswitch-recv label_pos \$1 \$2;
#X msg 514 480 \; stopseqswitch-recv label_pos \$1 \$2;
#X msg 156 304 \; stopseqswitch-recv label Stop \;;
#X msg 474 300 \; stopseqswitch-recv label Stop \;;
#X msg 261 414 13;
#X msg 559 438 13;
#X obj 101 111 bng 11 250 50 0 empty empty empty 17 7 0 10 #fcfcfc
#000000 #000000;
#X obj 112 111 bng 11 250 50 0 empty empty empty 17 7 0 10 #fcfcfc
#000000 #000000;
#X obj 124 111 bng 11 250 50 0 empty empty empty 17 7 0 10 #fcfcfc
#000000 #000000;
#X obj 134 111 bng 11 250 50 0 empty empty empty 17 7 0 10 #fcfcfc
#000000 #000000;
#X obj 100 100 cnv 12 48 23 stopseqswitch-send stopseqswitch-recv Stop
14 13 0 9 #e0e0e0 #000000 0;
#X msg 214 415 14;
#X msg 515 438 14;
#X connect 0 0 1 1;
#X connect 0 0 4 0;
#X connect 0 0 7 0;
#X connect 0 0 11 1;
#X connect 1 0 24 0;
#X connect 2 0 5 0;
#X connect 3 0 1 0;
#X connect 4 0 2 0;
#X connect 5 0 3 0;
#X connect 6 0 8 0;
#X connect 7 0 6 0;
#X connect 8 0 10 0;
#X connect 9 0 11 0;
#X connect 10 0 9 0;
#X connect 11 0 25 0;
#X connect 12 0 0 0;
#X connect 13 0 0 0;
#X connect 14 0 0 0;
#X connect 15 0 0 0;
#X connect 17 0 19 0;
#X connect 18 0 0 0;
#X connect 19 0 18 0;
#X connect 20 0 0 0;
#X connect 21 0 28 0;
#X connect 22 0 27 0;
#X connect 24 0 29 0;
#X connect 24 1 23 0;
#X connect 24 1 26 0;
#X connect 24 2 38 0;
#X connect 24 3 31 0;
#X connect 25 0 30 0;
#X connect 25 1 16 0;
#X connect 25 1 26 0;
#X connect 25 2 39 0;
#X connect 25 3 32 0;
#X connect 31 0 22 1;
#X connect 32 0 21 1;
#X connect 33 0 0 0;
#X connect 34 0 0 0;
#X connect 35 0 0 0;
#X connect 36 0 0 0;
#X connect 38 0 22 0;
#X connect 39 0 21 0;
#X coords 0 -1 1 1 48 23 2 100 100;
#X restore 116 144 pd \$0-stopsequenceBTN;
#X obj 555 361 t b b b b b;
#N canvas 517 53 1920 997 \$0-playsequenceBTN 0;
#X obj 268 59 tgl 15 0 empty empty empty 17 7 0 10 #fcfcfc #000000
#000000 0 1;
#X obj 268 185 spigot 0;
#X obj 268 119 change;
#X floatatom 268 164 5 0 0 0 - - - 0;
#X obj 268 97 == 0;
#X obj 282 142 == 0;
#X floatatom 427 137 5 0 0 0 - - - 0;
#X obj 427 116 == 0;
#X obj 427 156 change;
#X floatatom 427 201 5 0 0 0 - - - 0;
#X obj 427 180 == 1;
#X obj 427 220 spigot 0;
#X obj 326 28 inlet;
#X obj 101 101 bng 11 250 50 0 empty empty empty 17 7 0 10 #fcfcfc
#000000 #000000;
#X obj 112 101 bng 11 250 50 0 empty empty empty 17 7 0 10 #fcfcfc
#000000 #000000;
#X obj 124 101 bng 11 250 50 0 empty empty empty 17 7 0 10 #fcfcfc
#000000 #000000;
#X msg 422 285 0;
#X obj 423 33 loadbang;
#X msg 424 76 1;
#X obj 424 55 t b;
#X obj 134 101 bng 11 250 50 0 empty empty empty 17 7 0 10 #fcfcfc
#000000 #000000;
#X obj 513 459 pack f f;
#X obj 215 436 pack f f;
#X msg 169 280 0;
#X obj 268 205 t b b b b b;
#X obj 427 254 t b b b b b b b;
#X obj 306 524 outlet;
#X msg 261 414 13;
#X msg 559 438 13;
#X obj 101 111 bng 11 250 50 0 empty empty empty 17 7 0 10 #fcfcfc
#000000 #000000;
#X obj 112 111 bng 11 250 50 0 empty empty empty 17 7 0 10 #fcfcfc
#000000 #000000;
#X obj 124 111 bng 11 250 50 0 empty empty empty 17 7 0 10 #fcfcfc
#000000 #000000;
#X obj 134 111 bng 11 250 50 0 empty empty empty 17 7 0 10 #fcfcfc
#000000 #000000;
#X obj 100 100 cnv 12 48 23 playseqswitch-send playseqswitch-recv Play
14 13 0 9 #e0e0e0 #000000 0;
#X msg 156 304 \; playseqswitch-recv label Play \;;
#X msg 203 463 \; playseqswitch-recv label_pos \$1 \$2;
#X msg 514 480 \; playseqswitch-recv label_pos \$1 \$2;
#X msg 474 300 \; playseqswitch-recv label Play \;;
#X msg 214 415 14;
#X msg 515 438 14;
#X connect 0 0 1 1;
#X connect 0 0 4 0;
#X connect 0 0 7 0;
#X connect 0 0 11 1;
#X connect 1 0 24 0;
#X connect 2 0 5 0;
#X connect 3 0 1 0;
#X connect 4 0 2 0;
#X connect 5 0 3 0;
#X connect 6 0 8 0;
#X connect 7 0 6 0;
#X connect 8 0 10 0;
#X connect 9 0 11 0;
#X connect 10 0 9 0;
#X connect 11 0 25 0;
#X connect 12 0 0 0;
#X connect 13 0 0 0;
#X connect 14 0 0 0;
#X connect 15 0 0 0;
#X connect 17 0 19 0;
#X connect 18 0 0 0;
#X connect 19 0 18 0;
#X connect 20 0 0 0;
#X connect 21 0 36 0;
#X connect 22 0 35 0;
#X connect 24 0 34 0;
#X connect 24 1 23 0;
#X connect 24 1 26 0;
#X connect 24 2 38 0;
#X connect 24 3 27 0;
#X connect 25 0 37 0;
#X connect 25 1 16 0;
#X connect 25 1 26 0;
#X connect 25 2 39 0;
#X connect 25 3 28 0;
#X connect 27 0 22 1;
#X connect 28 0 21 1;
#X connect 29 0 0 0;
#X connect 30 0 0 0;
#X connect 31 0 0 0;
#X connect 32 0 0 0;
#X connect 38 0 22 0;
#X connect 39 0 21 0;
#X coords 0 -1 1 1 48 23 2 100 100;
#X restore 167 144 pd \$0-playsequenceBTN;
#X obj 231 507 outlet;
#X obj 367 545 outlet;
#X obj 141 184 nbx 3 14 1 500 0 0 obbmpvalue-send obbmpvalue-recv empty
0 -8 0 10 #fcfcfc #000000 #000000 0 256;
#X obj 103 182 cnv 15 35 17 empty empty BPM 3 9 0 14 #404040 #dcdcdc
0;
#X obj 140 179 cnv 15 39 22 empty empty empty 8 9 0 14 #202020 #00f8fc
0;
#X obj 142 182 cnv 15 34 17 bpmnum-send bpmnum-recv 84 5 9 0 14 #101054
#00f8fc 0;
#N canvas -8 -8 1280 877 assignbpm 0;
#X obj 76 31 inlet;
#X obj 105 217 s;
#X obj 86 97 f;
#X obj 80 65 t b f;
#X msg 125 140 symbol bpmnum-recv;
#X msg 105 186 label \$1;
#X obj 86 116 t f f b;
#X obj 66 241 s OBbpm;
#X obj 105 164 list-abs/list-l2s;
#X connect 0 0 3 0;
#X connect 2 0 6 0;
#X connect 3 0 2 0;
#X connect 3 1 2 1;
#X connect 4 0 1 1;
#X connect 5 0 1 0;
#X connect 6 0 7 0;
#X connect 6 1 8 0;
#X connect 6 2 4 0;
#X connect 8 0 5 0;
#X restore 600 -27 pd assignbpm;
#N canvas 180 45 1440 862 swinghumanmistake 0;
#X obj 100 100 cnv 15 160 55 empty empty empty 20 12 0 14 #404040 #404040
0;
#X obj 141 102 hsl 70 15 0 1 0 0 swing-send swing-recv Swing:14 3 8
0 10 #a0a0a0 #000000 #000000 0 1;
#X obj 141 120 hsl 70 15 0 1 0 0 humanize-send humanize-recv Human:11
3 8 0 10 #a0a0a0 #000000 #000000 0 1;
#X obj 141 138 hsl 70 15 0 4 0 0 mistakes-send mistakes-recv MistakesX0
3 8 0 10 #7c7c7c #000000 #000000 0 1;
#X obj 103 141 cnv 10 32 10 empty empty Less 3 5 0 10 #404040 #dcdcdc
0;
#X obj 103 104 cnv 10 32 10 empty empty Less 3 5 0 10 #404040 #dcdcdc
0;
#X obj 103 123 cnv 10 32 10 empty empty Pro 3 5 0 10 #404040 #dcdcdc
0;
#X obj 216 141 cnv 10 32 10 empty empty More 3 5 0 10 #404040 #dcdcdc
0;
#X obj 216 104 cnv 10 32 10 empty empty More 3 5 0 10 #404040 #dcdcdc
0;
#X obj 216 123 cnv 10 40 10 empty empty Newbie 3 5 0 10 #404040 #dcdcdc
0;
#X obj 143 322 s swing-recv;
#X obj 143 201 r swing-send;
#X floatatom 143 276 6 0 0 0 - - - 0;
#X obj 143 226 * 100;
#X obj 143 252 int;
#X msg 143 299 label Swing:\$1;
#X floatatom 146 432 6 0 0 0 - - - 0;
#X obj 146 382 * 100;
#X obj 146 408 int;
#X obj 146 357 r humanize-send;
#X obj 146 478 s humanize-recv;
#X floatatom 272 397 6 0 0 0 - - - 0;
#X obj 272 377 int;
#X obj 272 440 s mistakes-recv;
#X obj 272 355 r mistakes-send;
#X msg 272 418 label MistakesX\$1;
#X msg 146 455 label Human:\$1;
#X obj 141 31 r newproject-swing;
#X obj 276 28 r newproject-human;
#X obj 277 89 r newproject-mistake;
#X obj 141 54 t b f;
#X obj 276 50 t b f;
#X obj 277 114 t b f;
#X connect 11 0 13 0;
#X connect 12 0 15 0;
#X connect 13 0 14 0;
#X connect 14 0 12 0;
#X connect 15 0 10 0;
#X connect 16 0 26 0;
#X connect 17 0 18 0;
#X connect 18 0 16 0;
#X connect 19 0 17 0;
#X connect 21 0 25 0;
#X connect 22 0 21 0;
#X connect 24 0 22 0;
#X connect 25 0 23 0;
#X connect 26 0 20 0;
#X connect 27 0 30 0;
#X connect 28 0 31 0;
#X connect 29 0 32 0;
#X connect 30 0 1 0;
#X connect 30 1 1 0;
#X connect 31 0 2 0;
#X connect 31 1 2 0;
#X connect 32 0 3 0;
#X connect 32 1 3 0;
#X coords 0 -1 1 1 160 55 2 100 100;
#X restore 117 211 pd swinghumanmistake;
#X obj 1075 140 r projectplaystate;
#X obj 1076 239 tgl 15 0 empty empty empty 17 7 0 10 #fcfcfc #000000
#000000 0 1;
#X obj 1076 165 == 1;
#X obj 1076 191 change;
#X obj 1076 215 == 1;
#X obj 1023 262 spigot 0;
#X obj 1023 288 s metronomeOn;
#X obj 1135 383 s metronomeOff;
#X obj 1138 260 change;
#X obj 1141 281 == 1;
#X obj 1139 236 == 0;
#X obj 1142 305 tgl 15 0 empty empty empty 17 7 0 10 #fcfcfc #000000
#000000 0 1;
#X obj 1089 329 spigot 0;
#X obj 1089 356 t b b b;
#X obj 1112 410 s \$0-resettick;
#X obj 1089 433 s \$0-resetbar;
#X obj 651 118 bng 15 250 50 0 empty empty 1/2 17 7 0 10 #fcfcfc #000000
#000000;
#X obj 691 117 bng 15 250 50 0 empty empty 1/4 17 7 0 10 #fcfcfc #000000
#000000;
#X obj 730 116 bng 15 250 50 0 empty empty 1/8 17 7 0 10 #fcfcfc #000000
#000000;
#X obj 770 116 bng 15 250 50 0 empty empty 1/16 17 7 0 10 #fcfcfc #000000
#000000;
#X msg 612 138 0;
#X msg 780 155 1;
#X msg 678 136 2;
#X msg 711 136 3;
#X msg 742 137 4;
#X floatatom 612 170 5 0 0 0 - - - 0;
#X obj 612 200 s \$0-metrobyticks;
#X obj 201 172 cnv 15 35 15 empty empty Whole 3 9 0 10 #404040 #dcdcdc
0;
#X obj 611 118 bng 15 250 50 0 empty empty empty 17 7 0 10 #fcfcfc
#000000 #000000;
#N canvas 507 121 1262 730 halftoggle 0;
#X obj 102 2 tgl 12 0 empty empty empty 17 7 0 10 #606060 #000000 #dcdcdc
0 1;
#X obj 100 0 cnv 16 16 16 empty empty empty 20 12 0 14 #202020 #404040
0;
#X obj 46 320 outlet;
#X obj 103 3 cnv 10 10 10 halftoggle-send halftoggle-recv empty 20
12 0 14 #fc2828 #404040 0;
#X obj 233 548 s;
#X obj 233 459 f;
#X obj 233 437 t b f;
#X obj 162 223 spigot 0;
#X obj 207 179 tgl 15 0 empty empty empty 17 7 0 10 #fcfcfc #000000
#000000 0 1;
#X obj 207 156 change;
#X obj 207 133 == 0;
#X obj 278 389 tgl 15 0 empty empty empty 17 7 0 10 #fcfcfc #000000
#000000 0 1;
#X obj 233 362 change;
#X obj 233 412 spigot 0;
#X obj 233 339 == 0;
#X obj 233 383 t b f;
#X obj 233 479 t b b;
#X obj 162 357 s;
#X obj 162 268 f;
#X obj 162 246 t b f;
#X obj 162 288 t b b;
#X msg 233 523 color 16;
#X msg 162 329 color 13;
#X obj 207 201 t f f;
#X obj 38 36 tgl 15 0 empty empty empty 17 7 0 10 #fcfcfc #000000 #000000
0 1;
#X obj 37 57 t f b f;
#X obj 147 20 inlet;
#X obj 148 49 loadbang;
#X msg 149 74 0;
#X obj 50 144 t f;
#X obj 50 193 change;
#X obj 50 169 == 0;
#X obj 50 219 == 0;
#X obj 46 291 spigot 0;
#X obj 49 246 t b f;
#X obj 95 268 tgl 15 0 empty empty empty 17 7 0 10 #fcfcfc #000000
#000000 0 1;
#X msg 189 310 symbol halftoggle-recv;
#X msg 262 500 symbol halftoggle-recv;
#X obj 24 407 s \$0-halftoggle;
#X msg 344 38 0;
#X msg 403 148 0;
#X obj 372 74 r \$0-metrobyticks;
#X obj 405 126 bng 15 250 50 0 empty empty empty 17 7 0 10 #fcfcfc
#000000 #000000;
#X obj 373 99 sel 1;
#X connect 0 0 24 0;
#X connect 5 0 16 0;
#X connect 6 0 5 0;
#X connect 6 1 5 1;
#X connect 7 0 19 0;
#X connect 8 0 23 0;
#X connect 9 0 8 0;
#X connect 10 0 9 0;
#X connect 11 0 13 1;
#X connect 12 0 15 0;
#X connect 13 0 6 0;
#X connect 14 0 12 0;
#X connect 15 0 13 0;
#X connect 15 1 11 0;
#X connect 16 0 21 0;
#X connect 16 1 37 0;
#X connect 18 0 20 0;
#X connect 19 0 18 0;
#X connect 19 1 18 1;
#X connect 20 0 22 0;
#X connect 20 1 36 0;
#X connect 21 0 4 0;
#X connect 22 0 17 0;
#X connect 23 0 7 1;
#X connect 23 1 14 0;
#X connect 24 0 25 0;
#X connect 25 0 29 0;
#X connect 25 0 38 0;
#X connect 25 1 7 0;
#X connect 25 2 10 0;
#X connect 26 0 0 0;
#X connect 27 0 28 0;
#X connect 28 0 24 0;
#X connect 29 0 31 0;
#X connect 30 0 32 0;
#X connect 31 0 30 0;
#X connect 32 0 34 0;
#X connect 33 0 2 0;
#X connect 34 0 33 0;
#X connect 34 1 35 0;
#X connect 35 0 33 1;
#X connect 36 0 17 1;
#X connect 37 0 4 1;
#X connect 39 0 0 0;
#X connect 40 0 0 0;
#X connect 41 0 43 0;
#X connect 42 0 40 0;
#X connect 43 1 42 0;
#X coords 0 -1 1 1 16 16 2 100 0;
#X restore 239 172 pd halftoggle;
#N canvas -68 118 1954 997 \$0-wholetoggle 0;
#X obj 102 2 tgl 12 0 empty empty empty 17 7 0 10 #606060 #000000 #dcdcdc
0 1;
#X obj 100 0 cnv 16 16 16 empty empty empty 20 12 0 14 #202020 #404040
0;
#X obj 46 320 outlet;
#X obj 103 3 cnv 10 10 10 wholetoggle-send wholetoggle-recv empty 20
12 0 14 #fc2828 #404040 0;
#X obj 233 548 s;
#X obj 233 459 f;
#X obj 233 437 t b f;
#X obj 162 223 spigot 0;
#X obj 207 179 tgl 15 0 empty empty empty 17 7 0 10 #fcfcfc #000000
#000000 0 1;
#X obj 207 156 change;
#X obj 207 133 == 0;
#X obj 278 389 tgl 15 0 empty empty empty 17 7 0 10 #fcfcfc #000000
#000000 0 1;
#X obj 233 362 change;
#X obj 233 412 spigot 0;
#X obj 233 339 == 0;
#X obj 233 383 t b f;
#X obj 233 479 t b b;
#X obj 162 357 s;
#X obj 162 268 f;
#X obj 162 246 t b f;
#X obj 162 288 t b b;
#X msg 233 523 color 16;
#X msg 162 329 color 13;
#X obj 207 201 t f f;
#X obj 38 36 tgl 15 0 empty empty empty 17 7 0 10 #fcfcfc #000000 #000000
0 1;
#X obj 37 57 t f b f;
#X obj 192 17 inlet;
#X obj 243 54 loadbang;
#X msg 254 106 0;
#X msg 189 310 symbol wholetoggle-recv;
#X msg 262 500 symbol wholetoggle-recv;
#X obj 24 407 s \$0-wholetoggle;
#X obj 50 144 t f;
#X obj 50 193 change;
#X obj 50 169 == 0;
#X obj 50 219 == 0;
#X obj 46 291 spigot 0;
#X obj 49 246 t b f;
#X obj 95 268 tgl 15 0 empty empty empty 17 7 0 10 #fcfcfc #000000
#000000 0 1;
#X msg 344 38 0;
#X msg 403 148 0;
#X obj 372 74 r \$0-metrobyticks;
#X obj 373 99 sel 0;
#X obj 405 126 bng 15 250 50 0 empty empty empty 17 7 0 10 #fcfcfc
#000000 #000000;
#X connect 0 0 24 0;
#X connect 5 0 16 0;
#X connect 6 0 5 0;
#X connect 6 1 5 1;
#X connect 7 0 19 0;
#X connect 8 0 23 0;
#X connect 9 0 8 0;
#X connect 10 0 9 0;
#X connect 11 0 13 1;
#X connect 12 0 15 0;
#X connect 13 0 6 0;
#X connect 14 0 12 0;
#X connect 15 0 13 0;
#X connect 15 1 11 0;
#X connect 16 0 21 0;
#X connect 16 1 30 0;
#X connect 18 0 20 0;
#X connect 19 0 18 0;
#X connect 19 1 18 1;
#X connect 20 0 22 0;
#X connect 20 1 29 0;
#X connect 21 0 4 0;
#X connect 22 0 17 0;
#X connect 23 0 7 1;
#X connect 23 1 14 0;
#X connect 24 0 25 0;
#X connect 25 0 31 0;
#X connect 25 0 32 0;
#X connect 25 1 7 0;
#X connect 25 2 10 0;
#X connect 26 0 0 0;
#X connect 27 0 28 0;
#X connect 28 0 24 0;
#X connect 29 0 17 1;
#X connect 30 0 4 1;
#X connect 32 0 34 0;
#X connect 33 0 35 0;
#X connect 34 0 33 0;
#X connect 35 0 37 0;
#X connect 36 0 2 0;
#X connect 37 0 36 0;
#X connect 37 1 38 0;
#X connect 38 0 36 1;
#X connect 40 0 0 0;
#X connect 41 0 42 0;
#X connect 42 1 43 0;
#X connect 43 0 40 0;
#X coords 0 -1 1 1 16 16 2 100 0;
#X restore 183 172 pd \$0-wholetoggle;
#X obj 256 172 cnv 15 25 15 empty empty 1/2 3 9 0 10 #404040 #dcdcdc
0;
#X obj 301 172 cnv 15 25 15 empty empty 1/4 3 9 0 10 #404040 #dcdcdc
0;
#N canvas 262 106 1245 730 \$0-forthtoggle 0;
#X obj 102 2 tgl 12 0 empty empty empty 17 7 0 10 #606060 #000000 #dcdcdc
0 1;
#X obj 100 0 cnv 16 16 16 empty empty empty 20 12 0 14 #202020 #404040
0;
#X obj 46 320 outlet;
#X obj 103 3 cnv 10 10 10 forthtoggle-send forthtoggle-recv empty 20
12 0 14 #fc2828 #404040 0;
#X obj 233 548 s;
#X obj 233 459 f;
#X obj 233 437 t b f;
#X obj 162 223 spigot 0;
#X obj 207 179 tgl 15 0 empty empty empty 17 7 0 10 #fcfcfc #000000
#000000 0 1;
#X obj 207 156 change;
#X obj 207 133 == 0;
#X obj 278 389 tgl 15 0 empty empty empty 17 7 0 10 #fcfcfc #000000
#000000 0 1;
#X obj 233 362 change;
#X obj 233 412 spigot 0;
#X obj 233 339 == 0;
#X obj 233 383 t b f;
#X obj 233 479 t b b;
#X obj 162 357 s;
#X obj 162 268 f;
#X obj 162 246 t b f;
#X obj 162 288 t b b;
#X msg 233 523 color 16;
#X msg 162 329 color 13;
#X obj 207 201 t f f;
#X obj 38 36 tgl 15 0 empty empty empty 17 7 0 10 #fcfcfc #000000 #000000
0 1;
#X obj 37 57 t f b f;
#X obj 192 17 inlet;
#X obj 243 54 loadbang;
#X msg 254 106 0;
#X obj 50 144 t f;
#X obj 50 193 change;
#X obj 50 169 == 0;
#X obj 50 219 == 0;
#X obj 46 291 spigot 0;
#X obj 49 246 t b f;
#X obj 95 268 tgl 15 0 empty empty empty 17 7 0 10 #fcfcfc #000000
#000000 0 1;
#X msg 189 310 symbol forthtoggle-recv;
#X msg 262 500 symbol forthtoggle-recv;
#X msg 344 38 0;
#X msg 403 148 0;
#X obj 372 74 r \$0-metrobyticks;
#X obj 405 126 bng 15 250 50 0 empty empty empty 17 7 0 10 #fcfcfc
#000000 #000000;
#X obj 373 99 sel 2;
#X connect 0 0 24 0;
#X connect 5 0 16 0;
#X connect 6 0 5 0;
#X connect 6 1 5 1;
#X connect 7 0 19 0;
#X connect 8 0 23 0;
#X connect 9 0 8 0;
#X connect 10 0 9 0;
#X connect 11 0 13 1;
#X connect 12 0 15 0;
#X connect 13 0 6 0;
#X connect 14 0 12 0;
#X connect 15 0 13 0;
#X connect 15 1 11 0;
#X connect 16 0 21 0;
#X connect 16 1 37 0;
#X connect 18 0 20 0;
#X connect 19 0 18 0;
#X connect 19 1 18 1;
#X connect 20 0 22 0;
#X connect 20 1 36 0;
#X connect 21 0 4 0;
#X connect 22 0 17 0;
#X connect 23 0 7 1;
#X connect 23 1 14 0;
#X connect 24 0 25 0;
#X connect 25 0 29 0;
#X connect 25 0 38 0;
#X connect 25 1 7 0;
#X connect 25 2 10 0;
#X connect 26 0 0 0;
#X connect 27 0 28 0;
#X connect 28 0 24 0;
#X connect 29 0 31 0;
#X connect 30 0 32 0;
#X connect 31 0 30 0;
#X connect 32 0 34 0;
#X connect 33 0 2 0;
#X connect 34 0 33 0;
#X connect 34 1 35 0;
#X connect 35 0 33 1;
#X connect 36 0 17 1;
#X connect 37 0 4 1;
#X connect 39 0 0 0;
#X connect 40 0 42 0;
#X connect 41 0 39 0;
#X connect 42 1 41 0;
#X coords 0 -1 1 1 16 16 2 100 0;
#X restore 284 172 pd \$0-forthtoggle;
#X obj 202 191 cnv 15 25 15 empty empty 1/8 3 9 0 10 #404040 #dcdcdc
0;
#N canvas 262 105 1228 731 \$0-eigthoggle 0;
#X obj 102 2 tgl 12 0 empty empty empty 17 7 0 10 #606060 #000000 #dcdcdc
0 1;
#X obj 100 0 cnv 16 16 16 empty empty empty 20 12 0 14 #202020 #404040
0;
#X obj 46 320 outlet;
#X obj 103 3 cnv 10 10 10 eigthtoggle-send eigthtoggle-recv empty 20
12 0 14 #fc2828 #404040 0;
#X obj 233 548 s;
#X obj 233 459 f;
#X obj 233 437 t b f;
#X obj 162 223 spigot 0;
#X obj 207 179 tgl 15 0 empty empty empty 17 7 0 10 #fcfcfc #000000
#000000 0 1;
#X obj 207 156 change;
#X obj 207 133 == 0;
#X obj 278 389 tgl 15 0 empty empty empty 17 7 0 10 #fcfcfc #000000
#000000 0 1;
#X obj 233 362 change;
#X obj 233 412 spigot 0;
#X obj 233 339 == 0;
#X obj 233 383 t b f;
#X obj 233 479 t b b;
#X obj 162 357 s;
#X obj 162 268 f;
#X obj 162 246 t b f;
#X obj 162 288 t b b;
#X msg 233 523 color 16;
#X msg 162 329 color 13;
#X obj 207 201 t f f;
#X obj 38 36 tgl 15 0 empty empty empty 17 7 0 10 #fcfcfc #000000 #000000
0 1;
#X obj 37 57 t f b f;
#X obj 192 17 inlet;
#X obj 243 54 loadbang;
#X msg 254 106 0;
#X obj 50 144 t f;
#X obj 50 193 change;
#X obj 50 169 == 0;
#X obj 50 219 == 0;
#X obj 46 291 spigot 0;
#X obj 49 246 t b f;
#X obj 95 268 tgl 15 0 empty empty empty 17 7 0 10 #fcfcfc #000000
#000000 0 1;
#X msg 189 310 symbol eigthtoggle-recv;
#X msg 262 500 symbol eigthtoggle-recv;
#X obj 24 407 s \$0-eigthtoggle;
#X msg 344 38 0;
#X msg 403 148 0;
#X obj 372 74 r \$0-metrobyticks;
#X obj 405 126 bng 15 250 50 0 empty empty empty 17 7 0 10 #fcfcfc
#000000 #000000;
#X obj 373 99 sel 3;
#X connect 0 0 24 0;
#X connect 5 0 16 0;
#X connect 6 0 5 0;
#X connect 6 1 5 1;
#X connect 7 0 19 0;
#X connect 8 0 23 0;
#X connect 9 0 8 0;
#X connect 10 0 9 0;
#X connect 11 0 13 1;
#X connect 12 0 15 0;
#X connect 13 0 6 0;
#X connect 14 0 12 0;
#X connect 15 0 13 0;
#X connect 15 1 11 0;
#X connect 16 0 21 0;
#X connect 16 1 37 0;
#X connect 18 0 20 0;
#X connect 19 0 18 0;
#X connect 19 1 18 1;
#X connect 20 0 22 0;
#X connect 20 1 36 0;
#X connect 21 0 4 0;
#X connect 22 0 17 0;
#X connect 23 0 7 1;
#X connect 23 1 14 0;
#X connect 24 0 25 0;
#X connect 25 0 29 0;
#X connect 25 0 38 0;
#X connect 25 1 7 0;
#X connect 25 2 10 0;
#X connect 26 0 0 0;
#X connect 27 0 28 0;
#X connect 28 0 24 0;
#X connect 29 0 31 0;
#X connect 30 0 32 0;
#X connect 31 0 30 0;
#X connect 32 0 34 0;
#X connect 33 0 2 0;
#X connect 34 0 33 0;
#X connect 34 1 35 0;
#X connect 35 0 33 1;
#X connect 36 0 17 1;
#X connect 37 0 4 1;
#X connect 40 0 0 0;
#X connect 41 0 43 0;
#X connect 42 0 40 0;
#X connect 43 1 42 0;
#X coords 0 -1 1 1 16 16 2 100 0;
#X restore 183 191 pd \$0-eigthoggle;
#X obj 256 191 cnv 15 25 15 empty empty 1/16 3 9 0 10 #404040 #dcdcdc
0;
#N canvas 262 106 1262 730 \$0-sixteenthtoggle 0;
#X obj 102 2 tgl 12 0 empty empty empty 17 7 0 10 #606060 #000000 #dcdcdc
0 1;
#X obj 100 0 cnv 16 16 16 empty empty empty 20 12 0 14 #202020 #404040
0;
#X obj 46 320 outlet;
#X obj 103 3 cnv 10 10 10 sixteenthtoggle-send sixteenthtoggle-recv
empty 20 12 0 14 #fc2828 #404040 0;
#X obj 233 548 s;
#X obj 233 459 f;
#X obj 233 437 t b f;
#X obj 162 223 spigot 0;
#X obj 207 179 tgl 15 0 empty empty empty 17 7 0 10 #fcfcfc #000000
#000000 0 1;
#X obj 207 156 change;
#X obj 207 133 == 0;
#X obj 278 389 tgl 15 0 empty empty empty 17 7 0 10 #fcfcfc #000000
#000000 0 1;
#X obj 233 362 change;
#X obj 233 412 spigot 0;
#X obj 233 339 == 0;
#X obj 233 383 t b f;
#X obj 233 479 t b b;
#X obj 162 357 s;
#X obj 162 268 f;
#X obj 162 246 t b f;
#X obj 162 288 t b b;
#X msg 233 523 color 16;
#X msg 162 329 color 13;
#X obj 207 201 t f f;
#X obj 38 36 tgl 15 0 empty empty empty 17 7 0 10 #fcfcfc #000000 #000000
0 1;
#X obj 37 57 t f b f;
#X obj 192 17 inlet;
#X obj 243 54 loadbang;
#X msg 254 106 0;
#X obj 50 144 t f;
#X obj 50 193 change;
#X obj 50 169 == 0;
#X obj 50 219 == 0;
#X obj 46 291 spigot 0;
#X obj 49 246 t b f;
#X obj 95 268 tgl 15 0 empty empty empty 17 7 0 10 #fcfcfc #000000
#000000 0 1;
#X msg 189 310 symbol sixteenthtoggle-recv;
#X msg 262 500 symbol sixteenthtoggle-recv;
#X obj 24 407 s \$0-sixteenthoggle;
#X msg 344 38 0;
#X msg 403 148 0;
#X obj 372 74 r \$0-metrobyticks;
#X obj 405 126 bng 15 250 50 0 empty empty empty 17 7 0 10 #fcfcfc
#000000 #000000;
#X obj 373 99 sel 4;
#X connect 0 0 24 0;
#X connect 5 0 16 0;
#X connect 6 0 5 0;
#X connect 6 1 5 1;
#X connect 7 0 19 0;
#X connect 8 0 23 0;
#X connect 9 0 8 0;
#X connect 10 0 9 0;
#X connect 11 0 13 1;
#X connect 12 0 15 0;
#X connect 13 0 6 0;
#X connect 14 0 12 0;
#X connect 15 0 13 0;
#X connect 15 1 11 0;
#X connect 16 0 21 0;
#X connect 16 1 37 0;
#X connect 18 0 20 0;
#X connect 19 0 18 0;
#X connect 19 1 18 1;
#X connect 20 0 22 0;
#X connect 20 1 36 0;
#X connect 21 0 4 0;
#X connect 22 0 17 0;
#X connect 23 0 7 1;
#X connect 23 1 14 0;
#X connect 24 0 25 0;
#X connect 25 0 29 0;
#X connect 25 0 38 0;
#X connect 25 1 7 0;
#X connect 25 2 10 0;
#X connect 26 0 0 0;
#X connect 27 0 28 0;
#X connect 28 0 24 0;
#X connect 29 0 31 0;
#X connect 30 0 32 0;
#X connect 31 0 30 0;
#X connect 32 0 34 0;
#X connect 33 0 2 0;
#X connect 34 0 33 0;
#X connect 34 1 35 0;
#X connect 35 0 33 1;
#X connect 36 0 17 1;
#X connect 37 0 4 1;
#X connect 40 0 0 0;
#X connect 41 0 43 0;
#X connect 42 0 40 0;
#X connect 43 1 42 0;
#X coords 0 -1 1 1 16 16 2 100 0;
#X restore 239 191 pd \$0-sixteenthtoggle;
#X obj 301 191 cnv 15 25 15 empty empty 1/32 3 9 0 10 #404040 #dcdcdc
0;
#N canvas 262 106 1296 730 \$0-thirtysectoggle 0;
#X obj 102 2 tgl 12 0 empty empty empty 17 7 0 10 #606060 #000000 #dcdcdc
0 1;
#X obj 100 0 cnv 16 16 16 empty empty empty 20 12 0 14 #202020 #404040
0;
#X obj 46 320 outlet;
#X obj 103 3 cnv 10 10 10 thirtysectoggle-send thirtysectoggle-recv
empty 20 12 0 14 #fc2828 #404040 0;
#X obj 233 548 s;
#X obj 233 459 f;
#X obj 233 437 t b f;
#X obj 162 223 spigot 0;
#X obj 207 179 tgl 15 0 empty empty empty 17 7 0 10 #fcfcfc #000000
#000000 0 1;
#X obj 207 156 change;
#X obj 207 133 == 0;
#X obj 278 389 tgl 15 0 empty empty empty 17 7 0 10 #fcfcfc #000000
#000000 0 1;
#X obj 233 362 change;
#X obj 233 412 spigot 0;
#X obj 233 339 == 0;
#X obj 233 383 t b f;
#X obj 233 479 t b b;
#X obj 162 357 s;
#X obj 162 268 f;
#X obj 162 246 t b f;
#X obj 162 288 t b b;
#X msg 233 523 color 16;
#X msg 162 329 color 13;
#X obj 207 201 t f f;
#X obj 38 36 tgl 15 0 empty empty empty 17 7 0 10 #fcfcfc #000000 #000000
0 1;
#X obj 37 57 t f b f;
#X obj 192 17 inlet;
#X obj 243 54 loadbang;
#X msg 254 106 0;
#X obj 50 144 t f;
#X obj 50 193 change;
#X obj 50 169 == 0;
#X obj 50 219 == 0;
#X obj 46 291 spigot 0;
#X obj 49 246 t b f;
#X obj 95 268 tgl 15 0 empty empty empty 17 7 0 10 #fcfcfc #000000
#000000 0 1;
#X msg 344 38 0;
#X msg 403 148 0;
#X obj 372 74 r \$0-metrobyticks;
#X obj 405 126 bng 15 250 50 0 empty empty empty 17 7 0 10 #fcfcfc
#000000 #000000;
#X msg 189 310 symbol thirtysectoggle-recv;
#X msg 265 500 symbol thirtysectoggle-recv;
#X obj 24 407 s \$0-thirtysectoggle;
#X obj 373 99 sel 5;
#X connect 0 0 24 0;
#X connect 5 0 16 0;
#X connect 6 0 5 0;
#X connect 6 1 5 1;
#X connect 7 0 19 0;
#X connect 8 0 23 0;
#X connect 9 0 8 0;
#X connect 10 0 9 0;
#X connect 11 0 13 1;
#X connect 12 0 15 0;
#X connect 13 0 6 0;
#X connect 14 0 12 0;
#X connect 15 0 13 0;
#X connect 15 1 11 0;
#X connect 16 0 21 0;
#X connect 16 1 41 0;
#X connect 18 0 20 0;
#X connect 19 0 18 0;
#X connect 19 1 18 1;
#X connect 20 0 22 0;
#X connect 20 1 40 0;
#X connect 21 0 4 0;
#X connect 22 0 17 0;
#X connect 23 0 7 1;
#X connect 23 1 14 0;
#X connect 24 0 25 0;
#X connect 25 0 29 0;
#X connect 25 0 42 0;
#X connect 25 1 7 0;
#X connect 25 2 10 0;
#X connect 26 0 0 0;
#X connect 27 0 28 0;
#X connect 28 0 24 0;
#X connect 29 0 31 0;
#X connect 30 0 32 0;
#X connect 31 0 30 0;
#X connect 32 0 34 0;
#X connect 33 0 2 0;
#X connect 34 0 33 0;
#X connect 34 1 35 0;
#X connect 35 0 33 1;
#X connect 37 0 0 0;
#X connect 38 0 43 0;
#X connect 39 0 37 0;
#X connect 40 0 17 1;
#X connect 41 0 4 1;
#X connect 43 1 39 0;
#X coords 0 -1 1 1 16 16 2 100 0;
#X restore 284 191 pd \$0-thirtysectoggle;
#X msg 772 137 5;
#X obj 825 117 bng 15 250 50 0 empty empty 1/32 17 7 0 10 #fcfcfc #000000
#000000;
#X obj 707 -45 loadbang;
#X msg 707 -22 1;
#X obj 917 234 tgl 15 0 empty empty empty 17 7 0 10 #fcfcfc #000000
#000000 0 1;
#X obj 915 156 == 1;
#X obj 914 180 change;
#X obj 917 201 == 1;
#X obj 876 258 spigot 0;
#X obj 872 289 s premetronomeOn;
#X obj 876 126 r projectrecstate;
#X msg 744 -8 84;
#X obj 868 176 t f;
#X obj 809 237 del;
#X connect 3 0 20 0;
#X connect 6 0 5 0;
#X connect 6 0 25 0;
#X connect 7 0 6 0;
#X connect 8 0 6 0;
#X connect 9 0 10 0;
#X connect 10 0 8 0;
#X connect 11 0 7 0;
#X connect 12 0 11 0;
#X connect 13 0 14 0;
#X connect 13 0 26 0;
#X connect 18 0 13 0;
#X connect 19 0 13 0;
#X connect 20 0 19 0;
#X connect 22 0 23 0;
#X connect 23 0 16 0;
#X connect 23 1 15 0;
#X connect 23 2 18 0;
#X connect 23 3 7 0;
#X connect 23 4 21 0;
#X connect 24 0 8 0;
#X connect 27 0 31 0;
#X connect 33 0 35 0;
#X connect 33 0 38 0;
#X connect 33 0 43 0;
#X connect 33 0 45 0;
#X connect 34 0 38 1;
#X connect 35 0 36 0;
#X connect 36 0 37 0;
#X connect 37 0 34 0;
#X connect 38 0 39 0;
#X connect 41 0 42 0;
#X connect 42 0 44 0;
#X connect 43 0 41 0;
#X connect 44 0 45 1;
#X connect 45 0 46 0;
#X connect 46 0 48 0;
#X connect 46 1 47 0;
#X connect 46 2 40 0;
#X connect 49 0 54 0;
#X connect 50 0 55 0;
#X connect 51 0 56 0;
#X connect 52 0 57 0;
#X connect 53 0 58 0;
#X connect 54 0 58 0;
#X connect 55 0 58 0;
#X connect 56 0 58 0;
#X connect 57 0 58 0;
#X connect 58 0 59 0;
#X connect 61 0 53 0;
#X connect 62 0 49 0;
#X connect 63 0 61 0;
#X connect 66 0 50 0;
#X connect 68 0 51 0;
#X connect 70 0 52 0;
#X connect 72 0 74 0;
#X connect 73 0 58 0;
#X connect 74 0 73 0;
#X connect 75 0 76 0;
#X connect 75 0 84 0;
#X connect 76 0 70 0;
#X connect 77 0 81 1;
#X connect 78 0 79 0;
#X connect 79 0 80 0;
#X connect 80 0 77 0;
#X connect 81 0 82 0;
#X connect 83 0 78 0;
#X connect 83 0 85 0;
#X connect 84 0 27 0;
#X connect 85 0 86 0;
#X connect 86 0 81 0;
#X coords 0 -1 1 1 240 200 2 100 100;
