#N canvas 1124 262 599 314 12;
#X obj 100 100 bng 10 250 50 0 empty empty empty 17 7 0 10 #dcdcdc
#000000 #000000;
#X obj 111 100 bng 10 250 50 0 empty empty empty 17 7 0 10 #fcfcfc
#000000 #000000;
#X obj 122 100 bng 10 250 50 0 empty empty empty 17 7 0 10 #fcfcfc
#000000 #000000;
#X obj 133 100 bng 10 250 50 0 empty empty empty 17 7 0 10 #fcfcfc
#000000 #000000;
#X obj 144 100 bng 10 250 50 0 empty empty empty 17 7 0 10 #fcfcfc
#000000 #000000;
#X obj 177 100 bng 10 250 50 0 empty empty empty 17 7 0 10 #fcfcfc
#000000 #000000;
#X obj 155 100 bng 10 250 50 0 empty empty empty 17 7 0 10 #fcfcfc
#000000 #000000;
#X obj 166 100 bng 10 250 50 0 empty empty empty 17 7 0 10 #fcfcfc
#000000 #000000;
#X obj 100 100 cnv 10 87 10 empty empty empty 20 12 0 14 #e0e0e0 #404040
0;
#X obj 111 100 cnv 10 10 10 \$1-ColorSwatchRed_send \$1-ColorSwatchRed_recv
empty 20 12 0 14 #fc0400 #404040 0;
#X obj 122 100 cnv 10 10 10 \$1-ColorSwatchOrange_send \$1-ColorSwatchOrange_recv
empty 20 12 0 14 #fc8000 #404040 0;
#X obj 133 100 cnv 10 10 10 \$1-ColorSwatchYellow_send \$1-ColorSwatchYellow_recv
empty 20 12 0 14 #f8fc00 #404040 0;
#X obj 144 100 cnv 10 10 10 \$1-ColorSwatchGreen_send \$1-ColorSwatchGreen_recv
empty 20 12 0 14 #00fc04 #404040 0;
#X obj 155 100 cnv 10 10 10 \$1-ColorSwatchLightBlue_send \$1-ColorSwatchLightBlue_recv
empty 20 12 0 14 #00f8fc #404040 0;
#X obj 166 100 cnv 10 10 10 \$1-ColorSwatchBlue_send \$1-ColorSwatchBlue_recv
empty 20 12 0 14 #0400fc #404040 0;
#X obj 177 100 cnv 10 10 10 \$1-ColorSwatchPurple_send \$1-ColorSwatchPurple_recv
empty 20 12 0 14 #9c00fc #404040 0;
#X obj 100 100 cnv 10 10 10 \$1-ColorSwatchGrey_send \$1-ColorSwatchGrey_recv
empty 20 12 0 14 #b8b8b8 #404040 0;
#X obj 155 32 hradio 15 1 0 8 empty empty empty 0 -8 0 10 #fcfcfc #000000
#000000 0;
#X floatatom 154 52 5 0 0 0 - - - 0;
#X obj 153 75 route 0 1 2 3 4 5 6 7;
#N canvas 385 163 970 515 \$0-colormsgs 1;
#X obj 213 76 inlet;
#X obj 276 77 inlet;
#X obj 343 81 inlet;
#X obj 410 76 inlet;
#X obj 478 78 inlet;
#X obj 541 79 inlet;
#X obj 614 84 inlet;
#X obj 679 87 inlet;
#X obj 247 358 outlet;
#X obj 314 266 f;
#X obj 314 241 t b f;
#N canvas 734 103 869 872 \$0-colornumbers 0;
#X msg 143 178 20;
#X msg 191 182 13;
#X msg 227 183 14;
#X msg 264 190 15;
#X msg 314 193 16;
#X msg 351 198 17;
#X msg 398 198 18;
#X msg 444 195 19;
#X msg 433 581 66;
#X msg 468 581 60;
#X msg 543 581 630;
#X msg 583 581 701;
#X msg 625 575 233;
#X msg 507 581 770;
#X msg 671 577 8;
#X msg 705 576 524;
#X text 526 545 RGB Type Colors;
#X text 528 155 Propeties Panel Colors;
#X obj 143 114 inlet;
#X obj 192 113 inlet;
#X obj 238 112 inlet;
#X obj 283 111 inlet;
#X obj 331 112 inlet;
#X obj 379 113 inlet;
#X obj 425 114 inlet;
#X obj 471 115 inlet;
#X obj 423 423 outlet;
#X obj 498 686 outlet;
#X obj 182 597 vsl 15 128 0 255 0 0 nope nada empty 0 -9 0 10 #fc0000
#fcfcfc #000000 0 0;
#X obj 217 597 vsl 15 128 0 255 0 0 nope nada empty 0 -9 0 10 #00fc00
#fcfcfc #000000 0 0;
#X obj 252 597 vsl 15 128 0 255 0 0 nope nada empty 0 -9 0 10 #0400fc
#fcfcfc #000000 0 0;
#X floatatom 254 740 5 0 0 0 - - - 0;
#X floatatom 206 740 5 0 0 0 - - - 0;
#X floatatom 169 739 5 0 0 0 - - - 0;
#X msg 155 567 200;
#X msg 170 547 0;
#X obj 130 527 t b b b;
#X msg 271 565 200;
#X msg 304 567 0;
#X obj 246 525 t b b b;
#X obj 678 846 outlet;
#X obj 137 818 t a;
#X obj 139 148 t b;
#X obj 181 147 t b;
#X obj 222 151 t b;
#X obj 275 154 t b;
#X obj 318 156 t b;
#X obj 367 156 t b;
#X obj 410 163 t b;
#X obj 446 157 t b;
#X obj 136 771 pack f f f f;
#X msg 136 794 fgcolor \$2 \$3 \$4;
#X msg 136 747 0;
#X obj 118 242 t b b f;
#X obj 119 272 t b b f;
#X obj 117 296 t b b f;
#X obj 116 320 t b b f;
#X obj 116 347 t b b f;
#X obj 116 372 t b b f;
#X obj 112 402 t b b f;
#X obj 112 428 t b b f;
#X connect 0 0 53 0;
#X connect 1 0 54 0;
#X connect 2 0 55 0;
#X connect 3 0 56 0;
#X connect 4 0 57 0;
#X connect 5 0 58 0;
#X connect 6 0 59 0;
#X connect 7 0 60 0;
#X connect 8 0 27 0;
#X connect 9 0 27 0;
#X connect 10 0 27 0;
#X connect 11 0 27 0;
#X connect 12 0 27 0;
#X connect 13 0 27 0;
#X connect 14 0 27 0;
#X connect 15 0 27 0;
#X connect 18 0 42 0;
#X connect 19 0 43 0;
#X connect 20 0 44 0;
#X connect 21 0 45 0;
#X connect 22 0 46 0;
#X connect 23 0 47 0;
#X connect 24 0 48 0;
#X connect 25 0 49 0;
#X connect 28 0 33 0;
#X connect 29 0 32 0;
#X connect 30 0 31 0;
#X connect 31 0 50 3;
#X connect 32 0 50 2;
#X connect 33 0 50 1;
#X connect 34 0 28 0;
#X connect 35 0 29 0;
#X connect 35 0 30 0;
#X connect 36 0 52 0;
#X connect 36 1 34 0;
#X connect 36 2 35 0;
#X connect 37 0 29 0;
#X connect 38 0 28 0;
#X connect 39 0 52 0;
#X connect 39 1 37 0;
#X connect 39 2 38 0;
#X connect 41 0 40 0;
#X connect 42 0 0 0;
#X connect 43 0 1 0;
#X connect 44 0 2 0;
#X connect 45 0 3 0;
#X connect 46 0 4 0;
#X connect 47 0 5 0;
#X connect 48 0 6 0;
#X connect 49 0 7 0;
#X connect 50 0 51 0;
#X connect 51 0 41 0;
#X connect 52 0 50 0;
#X connect 53 0 39 0;
#X connect 53 1 12 0;
#X connect 53 2 26 0;
#X connect 54 0 39 0;
#X connect 54 1 11 0;
#X connect 54 2 26 0;
#X connect 55 0 39 0;
#X connect 55 1 10 0;
#X connect 55 2 26 0;
#X connect 56 0 39 0;
#X connect 56 1 13 0;
#X connect 56 2 26 0;
#X connect 57 0 36 0;
#X connect 57 1 9 0;
#X connect 57 2 26 0;
#X connect 58 0 39 0;
#X connect 58 1 8 0;
#X connect 58 2 26 0;
#X connect 59 0 39 0;
#X connect 59 1 14 0;
#X connect 59 2 26 0;
#X connect 60 0 39 0;
#X connect 60 1 15 0;
#X connect 60 2 26 0;
#X restore 368 219 pd \$0-colornumbers \$1;
#X obj 48 36 loadbang;
#X obj 49 58 \$0;
#X floatatom 49 84 5 0 0 0 - - - 0;
#X obj 488 282 f;
#X obj 545 310 outlet;
#X obj 368 394 outlet;
#X obj 492 307 outlet;
#X floatatom 435 319 5 0 0 0 - - - 0;
#X msg 368 369 color \$1 \$2 \$3;
#X obj 368 344 pack f f f;
#X msg 368 319 21;
#X obj 368 293 t b a;
#X obj 310 297 outlet;
#X obj 543 255 t a;
#X obj 214 113 t b b b;
#X obj 276 107 t b b b;
#X obj 344 111 t b b b;
#X obj 415 113 t b b b;
#X obj 487 117 t b b b;
#X obj 556 118 t b b b;
#X obj 618 118 t b b b;
#X obj 684 118 t b b b;
#X obj 460 254 t b b f;
#X obj 365 269 f;
#X obj 365 244 t b f;
#X msg 248 331 color \$1;
#X connect 0 0 26 0;
#X connect 1 0 27 0;
#X connect 2 0 28 0;
#X connect 3 0 29 0;
#X connect 4 0 30 0;
#X connect 5 0 31 0;
#X connect 6 0 32 0;
#X connect 7 0 33 0;
#X connect 9 0 24 0;
#X connect 9 0 37 0;
#X connect 10 0 9 0;
#X connect 10 1 9 1;
#X connect 11 0 10 0;
#X connect 11 0 36 0;
#X connect 11 1 34 0;
#X connect 11 2 25 0;
#X connect 12 0 13 0;
#X connect 13 0 14 0;
#X connect 15 0 18 0;
#X connect 19 0 21 2;
#X connect 20 0 17 0;
#X connect 21 0 20 0;
#X connect 22 0 21 0;
#X connect 23 0 22 0;
#X connect 23 1 19 0;
#X connect 25 0 16 0;
#X connect 26 1 11 0;
#X connect 27 1 11 1;
#X connect 28 1 11 2;
#X connect 29 1 11 3;
#X connect 30 1 11 4;
#X connect 31 1 11 5;
#X connect 32 1 11 6;
#X connect 33 1 11 7;
#X connect 34 0 15 0;
#X connect 34 1 35 0;
#X connect 34 2 15 1;
#X connect 35 0 23 0;
#X connect 36 1 35 1;
#X connect 37 0 8 0;
#X restore 101 123 pd \$0-colormsgs \$0;
#X f 24;
#X obj 105 197 outlet;
#X obj 105 171 t a;
#X obj 163 195 outlet;
#X obj 163 169 t a;
#X obj 270 194 outlet;
#X obj 270 168 t a;
#X obj 217 194 outlet;
#X obj 215 172 t a;
#X obj 326 119 f;
#X obj 326 95 t b f;
#X obj 326 46 inlet;
#X obj 384 101 random 8;
#X floatatom 385 123 5 0 0 0 - - - 0;
#X obj 384 151 t f;
#X obj 326 70 route setcolor randomize;
#X obj 53 177 t a;
#X obj 54 200 outlet;
#X connect 0 0 20 0;
#X connect 1 0 20 1;
#X connect 2 0 20 2;
#X connect 3 0 20 3;
#X connect 4 0 20 4;
#X connect 5 0 20 7;
#X connect 6 0 20 5;
#X connect 7 0 20 6;
#X connect 17 0 18 0;
#X connect 18 0 19 0;
#X connect 19 0 0 0;
#X connect 19 1 1 0;
#X connect 19 2 2 0;
#X connect 19 3 3 0;
#X connect 19 4 4 0;
#X connect 19 5 6 0;
#X connect 19 6 7 0;
#X connect 19 7 5 0;
#X connect 20 0 22 0;
#X connect 20 1 36 0;
#X connect 20 2 24 0;
#X connect 20 3 28 0;
#X connect 20 4 26 0;
#X connect 22 0 21 0;
#X connect 24 0 23 0;
#X connect 26 0 25 0;
#X connect 28 0 27 0;
#X connect 29 0 17 0;
#X connect 30 0 29 0;
#X connect 30 1 29 1;
#X connect 31 0 35 0;
#X connect 32 0 33 0;
#X connect 33 0 34 0;
#X connect 34 0 30 0;
#X connect 35 0 30 0;
#X connect 35 1 32 0;
#X connect 36 0 37 0;
#X coords 0 -1 1 1 87 10 2 100 100;
