#N canvas 1140 94 1920 997 12;
#X declare -path clearessentials;
#X msg 101 798 symbol;
#X obj 59 81 route 0 1 2 3 4 5 6 7 8 9 10 11 12 13 14 15 16 17 18 19
;
#X obj 101 849 s \$0-ascii-routed;
#X obj 120 772 s \$0-ascii-routed;
#X obj 138 697 s \$0-ascii-routed;
#X msg 138 647 symbol ☻;
#X obj 153 623 s \$0-ascii-routed;
#X obj 176 522 s \$0-ascii-routed;
#X msg 153 573 symbol ♥;
#X msg 175 498 symbol ♦;
#X msg 123 726 symbol ☺;
#X obj 194 470 s \$0-ascii-routed;
#X obj 214 389 s \$0-ascii-routed;
#X obj 235 312 s \$0-ascii-routed;
#X obj 252 239 s \$0-ascii-routed;
#X obj 269 165 s \$0-ascii-routed;
#X msg 194 420 symbol ♣;
#X msg 214 339 symbol ♠;
#X msg 235 262 symbol •;
#X msg 252 189 symbol ◘;
#X obj 242 860 s \$0-ascii-routed;
#X obj 261 783 s \$0-ascii-routed;
#X obj 279 708 s \$0-ascii-routed;
#X obj 294 634 s \$0-ascii-routed;
#X obj 316 559 s \$0-ascii-routed;
#X obj 335 481 s \$0-ascii-routed;
#X obj 355 400 s \$0-ascii-routed;
#X obj 376 323 s \$0-ascii-routed;
#X obj 393 250 s \$0-ascii-routed;
#X obj 410 176 s \$0-ascii-routed;
#X msg 242 809 symbol ◙;
#X msg 261 733 symbol ♂;
#X msg 279 658 symbol ♀;
#X msg 294 584 symbol ♪;
#X msg 268 141 symbol ○;
#X msg 316 509 symbol ♫;
#X msg 335 431 symbol ☼;
#X msg 355 350 symbol ►;
#X msg 376 273 symbol ◄;
#X msg 393 200 symbol ↕;
#X msg 410 126 symbol ‼;
#X obj 555 870 s \$0-ascii-routed;
#X obj 574 793 s \$0-ascii-routed;
#X obj 592 718 s \$0-ascii-routed;
#X obj 607 644 s \$0-ascii-routed;
#X obj 629 569 s \$0-ascii-routed;
#X obj 648 491 s \$0-ascii-routed;
#X obj 668 410 s \$0-ascii-routed;
#X obj 689 333 s \$0-ascii-routed;
#X obj 706 260 s \$0-ascii-routed;
#X obj 723 186 s \$0-ascii-routed;
#X msg 706 210 symbol ◘;
#X obj 696 881 s \$0-ascii-routed;
#X obj 715 804 s \$0-ascii-routed;
#X obj 733 729 s \$0-ascii-routed;
#X obj 748 655 s \$0-ascii-routed;
#X obj 770 580 s \$0-ascii-routed;
#X obj 789 502 s \$0-ascii-routed;
#X obj 809 421 s \$0-ascii-routed;
#X obj 830 344 s \$0-ascii-routed;
#X obj 847 271 s \$0-ascii-routed;
#X obj 864 197 s \$0-ascii-routed;
#X msg 723 136 symbol ○;
#X obj 503 81 route 20 21 22 23 24 25 26 27 28 29 30 31 32 33 34 35
36 37 38 39;
#X msg 650 441 symbol ↓;
#X msg 668 360 symbol →;
#X msg 689 283 symbol ←;
#X msg 556 819 symbol ¶;
#X msg 574 743 symbol §;
#X msg 592 668 symbol ▬;
#X msg 607 594 symbol ↨;
#X msg 629 519 symbol ↑;
#X msg 696 830 symbol ▲;
#X msg 715 753 symbol ▼;
#X msg 733 679 symbol;
#X msg 748 605 symbol !;
#X msg 770 530 symbol ";
#X msg 789 452 symbol #;
#X msg 809 371 symbol $;
#X msg 830 294 symbol %;
#X msg 847 221 symbol &;
#X msg 864 147 symbol ';
#X obj 982 873 s \$0-ascii-routed;
#X obj 1001 796 s \$0-ascii-routed;
#X obj 1019 721 s \$0-ascii-routed;
#X obj 1034 647 s \$0-ascii-routed;
#X obj 1056 572 s \$0-ascii-routed;
#X obj 1075 494 s \$0-ascii-routed;
#X obj 1095 413 s \$0-ascii-routed;
#X obj 1150 340 s \$0-ascii-routed;
#X obj 1167 267 s \$0-ascii-routed;
#X obj 1184 193 s \$0-ascii-routed;
#X obj 1157 888 s \$0-ascii-routed;
#X obj 1176 811 s \$0-ascii-routed;
#X obj 1194 736 s \$0-ascii-routed;
#X obj 1209 662 s \$0-ascii-routed;
#X obj 1231 587 s \$0-ascii-routed;
#X obj 1250 509 s \$0-ascii-routed;
#X obj 1270 429 s \$0-ascii-routed;
#X obj 1291 351 s \$0-ascii-routed;
#X obj 1308 278 s \$0-ascii-routed;
#X obj 1325 204 s \$0-ascii-routed;
#X obj 964 88 route 40 41 42 43 44 45 46 47 48 49 50 51 52 53 54 55
56 57 58 59;
#X msg 1001 746 symbol );
#X msg 985 822 symbol (;
#X msg 1019 671 symbol *;
#X msg 1034 597 symbol +;
#X msg 1077 444 symbol -;
#X msg 1095 363 symbol .;
#X msg 1150 290 symbol /;
#X msg 1167 217 symbol 0;
#X msg 1184 143 symbol 1;
#X msg 1157 837 symbol 2;
#X msg 1176 760 symbol 3;
#X msg 1194 686 symbol 4;
#X msg 1209 612 symbol 5;
#X msg 1231 537 symbol 6;
#X msg 1250 459 symbol 7;
#X msg 1270 378 symbol 8;
#X msg 1291 301 symbol 9;
#X msg 1308 228 symbol :;
#X obj 1420 93 route 60 61 62 63 64;
#X obj 1433 454 s \$0-ascii-routed;
#X obj 1470 397 s \$0-ascii-routed;
#X obj 1487 324 s \$0-ascii-routed;
#X obj 1504 250 s \$0-ascii-routed;
#X obj 1521 174 s \$0-ascii-routed;
#X msg 1433 429 symbol <;
#X msg 1487 274 symbol >;
#X msg 1521 124 symbol @;
#X msg 1504 200 symbol ?;
#X obj 61 -49 inlet;
#X obj 275 919 outlet;
#X obj 277 891 r \$0-ascii-routed;
#X obj 1667 879 s \$0-ascii-routed;
#X obj 1686 802 s \$0-ascii-routed;
#X obj 1704 727 s \$0-ascii-routed;
#X obj 1719 653 s \$0-ascii-routed;
#X obj 1741 578 s \$0-ascii-routed;
#X obj 1760 500 s \$0-ascii-routed;
#X obj 1780 419 s \$0-ascii-routed;
#X obj 1803 340 s \$0-ascii-routed;
#X obj 1820 267 s \$0-ascii-routed;
#X obj 1843 191 s \$0-ascii-routed;
#X msg 1670 828 symbol A;
#X msg 1686 752 symbol B;
#X msg 1704 677 symbol C;
#X msg 1719 603 symbol D;
#X msg 1741 528 symbol E;
#X msg 1762 450 symbol F;
#X msg 1780 369 symbol G;
#X msg 1803 290 symbol H;
#X msg 1820 217 symbol I;
#X msg 1843 141 symbol J;
#X obj 1877 885 s \$0-ascii-routed;
#X obj 1896 808 s \$0-ascii-routed;
#X obj 1914 733 s \$0-ascii-routed;
#X obj 1929 659 s \$0-ascii-routed;
#X obj 1951 584 s \$0-ascii-routed;
#X obj 1650 94 route 65 66 67 68 69 70 71 72 73 74 75 76 77 78 79;
#X obj 2048 889 s \$0-ascii-routed;
#X obj 2067 812 s \$0-ascii-routed;
#X obj 2085 737 s \$0-ascii-routed;
#X obj 2100 663 s \$0-ascii-routed;
#X obj 2122 588 s \$0-ascii-routed;
#X obj 2141 510 s \$0-ascii-routed;
#X obj 2161 429 s \$0-ascii-routed;
#X obj 2176 350 s \$0-ascii-routed;
#X obj 2193 277 s \$0-ascii-routed;
#X obj 2210 203 s \$0-ascii-routed;
#X obj 2330 887 s \$0-ascii-routed;
#X obj 2349 810 s \$0-ascii-routed;
#X obj 2367 735 s \$0-ascii-routed;
#X obj 2382 661 s \$0-ascii-routed;
#X obj 2404 586 s \$0-ascii-routed;
#X obj 2423 508 s \$0-ascii-routed;
#X obj 2443 427 s \$0-ascii-routed;
#X obj 2464 350 s \$0-ascii-routed;
#X obj 2481 277 s \$0-ascii-routed;
#X obj 2519 189 s \$0-ascii-routed;
#X msg 1880 834 symbol K;
#X msg 1896 758 symbol L;
#X msg 1914 683 symbol M;
#X msg 1929 609 symbol N;
#X msg 1951 534 symbol O;
#X obj 2137 87 route 80 81 82 83 84 85 86 87 88 89 90 91 92 93 94 95
96 97 98 99;
#X msg 2051 838 symbol P;
#X msg 2067 762 symbol Q;
#X msg 2085 687 symbol R;
#X msg 2100 613 symbol S;
#X msg 2122 538 symbol T;
#X msg 2143 460 symbol U;
#X msg 2161 379 symbol V;
#X msg 2176 300 symbol W;
#X msg 2193 227 symbol X;
#X msg 2210 153 symbol Y;
#X msg 2330 836 symbol Z;
#X msg 2426 757 91;
#X msg 2349 759 symbol [;
#X msg 2367 685 symbol;
#X msg 2382 611 symbol ];
#X msg 2404 536 symbol ^;
#X msg 2423 458 symbol _;
#X msg 2443 377 symbol `;
#X msg 2464 300 symbol a;
#X msg 2481 227 symbol b;
#X msg 2519 139 symbol c;
#X obj 2643 877 s \$0-ascii-routed;
#X obj 2662 800 s \$0-ascii-routed;
#X obj 2680 725 s \$0-ascii-routed;
#X obj 2695 651 s \$0-ascii-routed;
#X obj 2717 576 s \$0-ascii-routed;
#X obj 2736 498 s \$0-ascii-routed;
#X obj 2756 417 s \$0-ascii-routed;
#X obj 2771 340 s \$0-ascii-routed;
#X obj 2788 267 s \$0-ascii-routed;
#X obj 2805 193 s \$0-ascii-routed;
#X obj 2818 892 s \$0-ascii-routed;
#X obj 2837 815 s \$0-ascii-routed;
#X obj 2855 740 s \$0-ascii-routed;
#X obj 2870 666 s \$0-ascii-routed;
#X obj 2892 591 s \$0-ascii-routed;
#X obj 2911 513 s \$0-ascii-routed;
#X obj 2931 433 s \$0-ascii-routed;
#X obj 2952 355 s \$0-ascii-routed;
#X obj 2969 282 s \$0-ascii-routed;
#X obj 3120 881 s \$0-ascii-routed;
#X obj 3139 804 s \$0-ascii-routed;
#X obj 3157 729 s \$0-ascii-routed;
#X obj 3175 654 s \$0-ascii-routed;
#X obj 3197 579 s \$0-ascii-routed;
#X obj 3216 501 s \$0-ascii-routed;
#X obj 3236 420 s \$0-ascii-routed;
#X obj 3261 342 s \$0-ascii-routed;
#X msg 2646 826 symbol d;
#X obj 2625 92 route 100 101 102 103 104 105 106 107 108 109 110 111
112 113 114 115 116 117 118 119;
#X msg 2662 750 symbol e;
#X msg 2680 675 symbol f;
#X msg 2695 601 symbol g;
#X msg 2717 526 symbol h;
#X msg 2738 448 symbol i;
#X msg 2756 367 symbol j;
#X msg 2771 290 symbol k;
#X msg 2788 217 symbol l;
#X msg 2805 143 symbol m;
#X msg 2818 841 symbol n;
#X msg 2837 764 symbol o;
#X msg 2855 690 symbol p;
#X msg 2870 616 symbol q;
#X msg 2892 541 symbol r;
#X msg 2911 463 symbol s;
#X msg 2931 382 symbol t;
#X msg 2952 305 symbol u;
#X msg 2969 232 symbol v;
#X obj 3007 197 s \$0-ascii-routed;
#X msg 3007 147 symbol w;
#X msg 3123 830 symbol x;
#X msg 3139 754 symbol y;
#X msg 3160 678 symbol z;
#X msg 3218 450 symbol;
#X msg 3236 370 symbol ~;
#X msg 3262 316 symbol ⌂;
#X msg 3197 529 symbol |;
#X msg 3175 604 symbol;
#X obj 3105 95 route 120 121 122 123 124 125 126 127 128 129;
#X obj 3286 287 s \$0-ascii-routed;
#X obj 3307 228 s \$0-ascii-routed;
#X msg 3287 261 symbol Ç;
#X msg 3308 202 symbol ü;
#X obj 3468 862 s \$0-ascii-routed;
#X obj 3487 785 s \$0-ascii-routed;
#X obj 3505 710 s \$0-ascii-routed;
#X obj 3520 655 s \$0-ascii-routed;
#X obj 3542 580 s \$0-ascii-routed;
#X obj 3561 502 s \$0-ascii-routed;
#X obj 3581 421 s \$0-ascii-routed;
#X obj 3606 343 s \$0-ascii-routed;
#X obj 3631 288 s \$0-ascii-routed;
#X obj 3652 229 s \$0-ascii-routed;
#X obj 3450 96 route 130 131 132 133 134 135 136 137 138 139;
#X msg 3471 811 symbol é;
#X msg 3487 735 symbol â;
#X msg 3505 679 symbol ä;
#X msg 3520 605 symbol à;
#X msg 3542 530 symbol å;
#X msg 3563 451 symbol ç;
#X msg 3581 371 symbol ê;
#X msg 3607 317 symbol ë;
#X msg 3632 262 symbol è;
#X msg 3653 203 symbol ï;
#X obj 3841 859 s \$0-ascii-routed;
#X obj 3860 782 s \$0-ascii-routed;
#X obj 3878 707 s \$0-ascii-routed;
#X obj 3893 652 s \$0-ascii-routed;
#X obj 3915 577 s \$0-ascii-routed;
#X obj 3934 499 s \$0-ascii-routed;
#X obj 3954 418 s \$0-ascii-routed;
#X obj 3979 340 s \$0-ascii-routed;
#X obj 4004 285 s \$0-ascii-routed;
#X obj 4025 226 s \$0-ascii-routed;
#X obj 3823 93 route 140 141 142 143 144 145 146 147 148 149;
#X msg 3844 808 symbol î;
#X msg 3860 732 symbol ì;
#X msg 3878 676 symbol Ä;
#X msg 3893 602 symbol Å;
#X msg 3915 527 symbol É;
#X msg 3936 448 symbol æ;
#X msg 3954 368 symbol Æ;
#X msg 3980 314 symbol ô;
#X msg 4005 259 symbol ö;
#X msg 4026 200 symbol ò;
#X obj 4179 863 s \$0-ascii-routed;
#X obj 4198 786 s \$0-ascii-routed;
#X obj 4216 711 s \$0-ascii-routed;
#X obj 4231 656 s \$0-ascii-routed;
#X obj 4253 581 s \$0-ascii-routed;
#X obj 4272 503 s \$0-ascii-routed;
#X obj 4292 422 s \$0-ascii-routed;
#X obj 4317 344 s \$0-ascii-routed;
#X obj 4342 289 s \$0-ascii-routed;
#X obj 4363 230 s \$0-ascii-routed;
#X obj 4161 97 route 150 151 152 153 154 155 156 157 158 159;
#X msg 4182 812 symbol û;
#X msg 4198 736 symbol ù;
#X msg 4216 680 symbol ÿ;
#X msg 4231 606 symbol Ö;
#X msg 4253 531 symbol Ü;
#X msg 4274 452 symbol ø;
#X msg 4292 372 symbol £;
#X msg 4318 318 symbol Ø;
#X msg 4343 263 symbol ×;
#X msg 4364 204 symbol ƒ;
#X obj 4518 879 s \$0-ascii-routed;
#X obj 4537 802 s \$0-ascii-routed;
#X obj 4555 727 s \$0-ascii-routed;
#X obj 4570 672 s \$0-ascii-routed;
#X obj 4592 597 s \$0-ascii-routed;
#X obj 4611 519 s \$0-ascii-routed;
#X obj 4631 438 s \$0-ascii-routed;
#X obj 4656 360 s \$0-ascii-routed;
#X obj 4681 305 s \$0-ascii-routed;
#X obj 4702 246 s \$0-ascii-routed;
#X obj 4500 113 route 160 161 162 163 164 165 166 167 168 169;
#X msg 4521 828 symbol á;
#X msg 4537 752 symbol í;
#X msg 4555 696 symbol ó;
#X msg 4570 622 symbol ú;
#X msg 4592 547 symbol ñ;
#X msg 4613 468 symbol Ñ;
#X msg 4631 388 symbol ª;
#X msg 4657 334 symbol º;
#X msg 4682 279 symbol ¿;
#X msg 4703 220 symbol ®;
#X obj 4868 900 s \$0-ascii-routed;
#X obj 4887 823 s \$0-ascii-routed;
#X obj 4905 748 s \$0-ascii-routed;
#X obj 4920 693 s \$0-ascii-routed;
#X obj 4942 618 s \$0-ascii-routed;
#X obj 4961 540 s \$0-ascii-routed;
#X obj 4981 459 s \$0-ascii-routed;
#X obj 5006 381 s \$0-ascii-routed;
#X obj 5031 326 s \$0-ascii-routed;
#X obj 5052 267 s \$0-ascii-routed;
#X obj 4850 134 route 170 171 172 173 174 175 176 177 178 179;
#X msg 4871 849 symbol ¬;
#X msg 4888 773 symbol ½;
#X msg 4905 717 symbol ¼;
#X msg 4920 643 symbol ¡;
#X msg 4942 568 symbol «;
#X msg 4963 489 symbol »;
#X msg 4981 409 symbol ░;
#X msg 5007 355 symbol ▒;
#X msg 5032 300 symbol ▓;
#X msg 5053 241 symbol │;
#X obj 5331 1121 s \$0-ascii-routed;
#X obj 5350 1044 s \$0-ascii-routed;
#X obj 5368 969 s \$0-ascii-routed;
#X obj 5383 914 s \$0-ascii-routed;
#X obj 5278 654 s \$0-ascii-routed;
#X obj 5297 576 s \$0-ascii-routed;
#X obj 5317 495 s \$0-ascii-routed;
#X obj 5342 417 s \$0-ascii-routed;
#X obj 5494 547 s \$0-ascii-routed;
#X obj 5515 488 s \$0-ascii-routed;
#X obj 5186 170 route 180 181 182 183 184 185 186 187 188 189;
#X msg 5334 1071 symbol ┤;
#X msg 5351 994 symbol Á;
#X msg 5368 938 symbol Â;
#X msg 5256 679 symbol À;
#X msg 5278 604 symbol ©;
#X msg 5299 525 symbol ╣;
#X msg 5317 445 symbol ║;
#X msg 5343 391 symbol ╗;
#X msg 5495 521 symbol ╝;
#X msg 5516 462 symbol ¢;
#X obj 5635 937 s \$0-ascii-routed;
#X obj 5654 860 s \$0-ascii-routed;
#X obj 5672 785 s \$0-ascii-routed;
#X obj 5687 730 s \$0-ascii-routed;
#X obj 5709 655 s \$0-ascii-routed;
#X obj 5728 577 s \$0-ascii-routed;
#X obj 5748 496 s \$0-ascii-routed;
#X obj 5773 418 s \$0-ascii-routed;
#X obj 5798 363 s \$0-ascii-routed;
#X obj 5819 304 s \$0-ascii-routed;
#X obj 5995 977 s \$0-ascii-routed;
#X obj 6014 900 s \$0-ascii-routed;
#X obj 6032 825 s \$0-ascii-routed;
#X obj 6047 770 s \$0-ascii-routed;
#X obj 6069 695 s \$0-ascii-routed;
#X obj 6088 617 s \$0-ascii-routed;
#X obj 6108 536 s \$0-ascii-routed;
#X obj 6130 480 s \$0-ascii-routed;
#X obj 6155 427 s \$0-ascii-routed;
#X obj 6198 366 s \$0-ascii-routed;
#X obj 5617 171 route 190 191 192 193 194 195 196 197 198 199;
#X obj 5977 211 route 200 201 202 203 204 205 206 207 208 209;
#X obj 6402 924 s \$0-ascii-routed;
#X obj 6421 847 s \$0-ascii-routed;
#X obj 6439 772 s \$0-ascii-routed;
#X obj 6454 717 s \$0-ascii-routed;
#X obj 6476 642 s \$0-ascii-routed;
#X obj 6495 564 s \$0-ascii-routed;
#X obj 6515 483 s \$0-ascii-routed;
#X obj 6540 405 s \$0-ascii-routed;
#X obj 6565 350 s \$0-ascii-routed;
#X obj 6600 294 s \$0-ascii-routed;
#X obj 6330 234 route 210 211 212 213 214 215 216 217 218 219;
#X msg 5638 887 symbol ¥;
#X msg 5655 810 symbol ┐;
#X msg 5672 754 symbol └;
#X msg 5687 680 symbol ┴;
#X msg 5709 605 symbol ┬;
#X msg 5730 526 symbol ├;
#X msg 5748 446 symbol ─;
#X msg 5774 392 symbol ┼;
#X msg 5799 337 symbol ã;
#X msg 5820 278 symbol Ã;
#X msg 5998 927 symbol ╚;
#X msg 6015 850 symbol ╔;
#X msg 6032 794 symbol ╩;
#X msg 6047 720 symbol ╦;
#X msg 6070 662 symbol ╠;
#X msg 6088 586 symbol ═;
#X msg 6107 512 symbol ╬;
#X msg 6131 454 symbol ¤;
#X msg 6156 401 symbol ð;
#X msg 6199 340 symbol Ð;
#X msg 6405 874 symbol Ê;
#X msg 6422 797 symbol Ë;
#X msg 6439 741 symbol È;
#X msg 6454 667 symbol ı;
#X msg 6476 592 symbol Í;
#X msg 6497 513 symbol Î;
#X msg 6515 433 symbol Ï;
#X msg 6541 379 symbol ┘;
#X msg 6566 324 symbol ┌;
#X msg 6601 268 symbol █;
#X obj 6766 925 s \$0-ascii-routed;
#X obj 6785 848 s \$0-ascii-routed;
#X obj 6803 773 s \$0-ascii-routed;
#X obj 6818 718 s \$0-ascii-routed;
#X obj 6840 643 s \$0-ascii-routed;
#X obj 6859 565 s \$0-ascii-routed;
#X obj 6879 484 s \$0-ascii-routed;
#X obj 6904 406 s \$0-ascii-routed;
#X obj 6929 351 s \$0-ascii-routed;
#X obj 6964 295 s \$0-ascii-routed;
#X obj 6694 235 route 220 221 222 223 224 225 226 227 228 229;
#X obj 7165 929 s \$0-ascii-routed;
#X obj 7184 852 s \$0-ascii-routed;
#X obj 7202 777 s \$0-ascii-routed;
#X obj 7217 722 s \$0-ascii-routed;
#X obj 7239 647 s \$0-ascii-routed;
#X obj 7258 569 s \$0-ascii-routed;
#X obj 7278 488 s \$0-ascii-routed;
#X obj 7303 410 s \$0-ascii-routed;
#X obj 7328 355 s \$0-ascii-routed;
#X obj 7363 299 s \$0-ascii-routed;
#X obj 7093 239 route 230 231 232 233 234 235 236 237 238 239;
#X msg 6769 875 symbol ▄;
#X msg 6786 798 symbol ¦;
#X msg 6803 742 symbol Ì;
#X msg 6818 668 symbol ▀;
#X msg 6840 593 symbol Ó;
#X msg 6861 514 symbol ß;
#X msg 6879 434 symbol Ô;
#X msg 6905 380 symbol Ò;
#X msg 6930 325 symbol õ;
#X msg 6965 269 symbol Õ;
#X msg 7168 879 symbol µ;
#X msg 7185 802 symbol þ;
#X msg 7202 746 symbol Þ;
#X msg 7217 672 symbol Ú;
#X msg 7239 597 symbol Û;
#X msg 7260 518 symbol Ù;
#X msg 7278 438 symbol ý;
#X msg 7304 384 symbol Ý;
#X msg 7329 329 symbol ¯;
#X msg 7364 273 symbol ´;
#X obj 7599 939 s \$0-ascii-routed;
#X obj 7618 862 s \$0-ascii-routed;
#X obj 7636 787 s \$0-ascii-routed;
#X obj 7651 732 s \$0-ascii-routed;
#X obj 7673 657 s \$0-ascii-routed;
#X obj 7692 579 s \$0-ascii-routed;
#X obj 7712 498 s \$0-ascii-routed;
#X obj 7737 420 s \$0-ascii-routed;
#X obj 7762 365 s \$0-ascii-routed;
#X obj 7797 309 s \$0-ascii-routed;
#X obj 7527 249 route 240 241 242 243 244 245 246 247 248 249;
#X msg 7603 889 symbol ­;
#X msg 7619 812 symbol ±;
#X msg 7636 756 symbol ‗;
#X msg 7651 682 symbol ¾;
#X msg 7673 607 symbol ¶;
#X msg 7694 528 symbol §;
#X msg 7712 448 symbol ÷;
#X msg 7738 394 symbol ¸;
#X msg 7763 339 symbol °;
#X msg 7798 283 symbol ¨;
#X obj 7980 937 s \$0-ascii-routed;
#X obj 7999 860 s \$0-ascii-routed;
#X obj 8017 785 s \$0-ascii-routed;
#X obj 8032 730 s \$0-ascii-routed;
#X obj 8054 655 s \$0-ascii-routed;
#X obj 8073 577 s \$0-ascii-routed;
#X msg 7984 887 symbol ·;
#X msg 8000 810 symbol ¹;
#X msg 8017 754 symbol ³;
#X msg 8032 680 symbol ²;
#X msg 8054 605 symbol ■;
#X msg 8072 549 symbol  ;
#X obj 7909 246 route 250 251 252 253 254 255;
#X obj 8133 316 s \$0-returnvalue;
#X obj 113 -85 r \$0-returnvalue;
#X msg 1056 522 symbol \\\,;
#X msg 1325 154 symbol \\\;;
#X obj 61 -24 int;
#X obj 61 55 spigot 0;
#X obj 113 33 tgl 15 0 empty empty empty 17 7 0 10 #fcfcfc #000000
#000000 0 1;
#X obj 113 -14 change;
#X obj 113 -38 > 256;
#X obj 113 9 == 0;
#X obj 113 -62 t f;
#X obj 61 24 t f f;
#X obj 61 0 % 255;
#X obj 199 -24 loadbang;
#X msg 201 26 1;
#X obj 199 1 t b;
#X obj 256 -82 declare -path clearessentials;
#X msg 1469 369 symbol =;
#X connect 0 0 2 0;
#X connect 1 0 0 0;
#X connect 1 1 10 0;
#X connect 1 2 5 0;
#X connect 1 3 8 0;
#X connect 1 4 9 0;
#X connect 1 5 16 0;
#X connect 1 6 17 0;
#X connect 1 7 18 0;
#X connect 1 8 19 0;
#X connect 1 9 34 0;
#X connect 1 10 30 0;
#X connect 1 11 31 0;
#X connect 1 12 32 0;
#X connect 1 13 33 0;
#X connect 1 14 35 0;
#X connect 1 15 36 0;
#X connect 1 16 37 0;
#X connect 1 17 38 0;
#X connect 1 18 39 0;
#X connect 1 19 40 0;
#X connect 1 20 63 0;
#X connect 5 0 4 0;
#X connect 8 0 6 0;
#X connect 9 0 7 0;
#X connect 10 0 3 0;
#X connect 16 0 11 0;
#X connect 17 0 12 0;
#X connect 18 0 13 0;
#X connect 19 0 14 0;
#X connect 30 0 20 0;
#X connect 31 0 21 0;
#X connect 32 0 22 0;
#X connect 33 0 23 0;
#X connect 34 0 15 0;
#X connect 35 0 24 0;
#X connect 36 0 25 0;
#X connect 37 0 26 0;
#X connect 38 0 27 0;
#X connect 39 0 28 0;
#X connect 40 0 29 0;
#X connect 51 0 49 0;
#X connect 62 0 50 0;
#X connect 63 0 67 0;
#X connect 63 1 68 0;
#X connect 63 2 69 0;
#X connect 63 3 70 0;
#X connect 63 4 71 0;
#X connect 63 5 64 0;
#X connect 63 6 65 0;
#X connect 63 7 66 0;
#X connect 63 8 51 0;
#X connect 63 9 62 0;
#X connect 63 10 72 0;
#X connect 63 11 73 0;
#X connect 63 12 74 0;
#X connect 63 13 75 0;
#X connect 63 14 76 0;
#X connect 63 15 77 0;
#X connect 63 16 78 0;
#X connect 63 17 79 0;
#X connect 63 18 80 0;
#X connect 63 19 81 0;
#X connect 63 20 102 0;
#X connect 64 0 46 0;
#X connect 65 0 47 0;
#X connect 66 0 48 0;
#X connect 67 0 41 0;
#X connect 68 0 42 0;
#X connect 69 0 43 0;
#X connect 70 0 44 0;
#X connect 71 0 45 0;
#X connect 72 0 52 0;
#X connect 73 0 53 0;
#X connect 74 0 54 0;
#X connect 75 0 55 0;
#X connect 76 0 56 0;
#X connect 77 0 57 0;
#X connect 78 0 58 0;
#X connect 79 0 59 0;
#X connect 80 0 60 0;
#X connect 81 0 61 0;
#X connect 102 0 104 0;
#X connect 102 1 103 0;
#X connect 102 2 105 0;
#X connect 102 3 106 0;
#X connect 102 4 536 0;
#X connect 102 5 107 0;
#X connect 102 6 108 0;
#X connect 102 7 109 0;
#X connect 102 8 110 0;
#X connect 102 9 111 0;
#X connect 102 10 112 0;
#X connect 102 11 113 0;
#X connect 102 12 114 0;
#X connect 102 13 115 0;
#X connect 102 14 116 0;
#X connect 102 15 117 0;
#X connect 102 16 118 0;
#X connect 102 17 119 0;
#X connect 102 18 120 0;
#X connect 102 19 537 0;
#X connect 102 20 121 0;
#X connect 103 0 83 0;
#X connect 104 0 82 0;
#X connect 105 0 84 0;
#X connect 106 0 85 0;
#X connect 107 0 87 0;
#X connect 108 0 88 0;
#X connect 109 0 89 0;
#X connect 110 0 90 0;
#X connect 111 0 91 0;
#X connect 112 0 92 0;
#X connect 113 0 93 0;
#X connect 114 0 94 0;
#X connect 115 0 95 0;
#X connect 116 0 96 0;
#X connect 117 0 97 0;
#X connect 118 0 98 0;
#X connect 119 0 99 0;
#X connect 120 0 100 0;
#X connect 121 0 127 0;
#X connect 121 1 551 0;
#X connect 121 2 128 0;
#X connect 121 3 130 0;
#X connect 121 4 129 0;
#X connect 121 5 159 0;
#X connect 127 0 122 0;
#X connect 128 0 124 0;
#X connect 129 0 126 0;
#X connect 130 0 125 0;
#X connect 131 0 538 0;
#X connect 133 0 132 0;
#X connect 144 0 134 0;
#X connect 145 0 135 0;
#X connect 146 0 136 0;
#X connect 147 0 137 0;
#X connect 148 0 138 0;
#X connect 149 0 139 0;
#X connect 150 0 140 0;
#X connect 151 0 141 0;
#X connect 152 0 142 0;
#X connect 153 0 143 0;
#X connect 159 0 144 0;
#X connect 159 1 145 0;
#X connect 159 2 146 0;
#X connect 159 3 147 0;
#X connect 159 4 148 0;
#X connect 159 5 149 0;
#X connect 159 6 150 0;
#X connect 159 7 151 0;
#X connect 159 8 152 0;
#X connect 159 9 153 0;
#X connect 159 10 180 0;
#X connect 159 11 181 0;
#X connect 159 12 182 0;
#X connect 159 13 183 0;
#X connect 159 14 184 0;
#X connect 159 15 185 0;
#X connect 180 0 154 0;
#X connect 181 0 155 0;
#X connect 182 0 156 0;
#X connect 183 0 157 0;
#X connect 184 0 158 0;
#X connect 185 0 186 0;
#X connect 185 1 187 0;
#X connect 185 2 188 0;
#X connect 185 3 189 0;
#X connect 185 4 190 0;
#X connect 185 5 191 0;
#X connect 185 6 192 0;
#X connect 185 7 193 0;
#X connect 185 8 194 0;
#X connect 185 9 195 0;
#X connect 185 10 196 0;
#X connect 185 11 198 0;
#X connect 185 12 199 0;
#X connect 185 13 200 0;
#X connect 185 14 201 0;
#X connect 185 15 202 0;
#X connect 185 16 203 0;
#X connect 185 17 204 0;
#X connect 185 18 205 0;
#X connect 185 19 206 0;
#X connect 185 20 235 0;
#X connect 186 0 160 0;
#X connect 187 0 161 0;
#X connect 188 0 162 0;
#X connect 189 0 163 0;
#X connect 190 0 164 0;
#X connect 191 0 165 0;
#X connect 192 0 166 0;
#X connect 193 0 167 0;
#X connect 194 0 168 0;
#X connect 195 0 169 0;
#X connect 196 0 170 0;
#X connect 198 0 171 0;
#X connect 199 0 172 0;
#X connect 200 0 173 0;
#X connect 201 0 174 0;
#X connect 202 0 175 0;
#X connect 203 0 176 0;
#X connect 204 0 177 0;
#X connect 205 0 178 0;
#X connect 206 0 179 0;
#X connect 234 0 207 0;
#X connect 235 0 234 0;
#X connect 235 1 236 0;
#X connect 235 2 237 0;
#X connect 235 3 238 0;
#X connect 235 4 239 0;
#X connect 235 5 240 0;
#X connect 235 6 241 0;
#X connect 235 7 242 0;
#X connect 235 8 243 0;
#X connect 235 9 244 0;
#X connect 235 10 245 0;
#X connect 235 11 246 0;
#X connect 235 12 247 0;
#X connect 235 13 248 0;
#X connect 235 14 249 0;
#X connect 235 15 250 0;
#X connect 235 16 251 0;
#X connect 235 17 252 0;
#X connect 235 18 253 0;
#X connect 235 19 255 0;
#X connect 235 20 264 0;
#X connect 236 0 208 0;
#X connect 237 0 209 0;
#X connect 238 0 210 0;
#X connect 239 0 211 0;
#X connect 240 0 212 0;
#X connect 241 0 213 0;
#X connect 242 0 214 0;
#X connect 243 0 215 0;
#X connect 244 0 216 0;
#X connect 245 0 217 0;
#X connect 246 0 218 0;
#X connect 247 0 219 0;
#X connect 248 0 220 0;
#X connect 249 0 221 0;
#X connect 250 0 222 0;
#X connect 251 0 223 0;
#X connect 252 0 224 0;
#X connect 253 0 225 0;
#X connect 255 0 254 0;
#X connect 256 0 226 0;
#X connect 257 0 227 0;
#X connect 258 0 228 0;
#X connect 259 0 231 0;
#X connect 260 0 232 0;
#X connect 261 0 233 0;
#X connect 262 0 230 0;
#X connect 263 0 229 0;
#X connect 264 0 256 0;
#X connect 264 1 257 0;
#X connect 264 2 258 0;
#X connect 264 3 263 0;
#X connect 264 4 262 0;
#X connect 264 5 259 0;
#X connect 264 6 260 0;
#X connect 264 7 261 0;
#X connect 264 8 267 0;
#X connect 264 9 268 0;
#X connect 264 10 279 0;
#X connect 267 0 265 0;
#X connect 268 0 266 0;
#X connect 279 0 280 0;
#X connect 279 1 281 0;
#X connect 279 2 282 0;
#X connect 279 3 283 0;
#X connect 279 4 284 0;
#X connect 279 5 285 0;
#X connect 279 6 286 0;
#X connect 279 7 287 0;
#X connect 279 8 288 0;
#X connect 279 9 289 0;
#X connect 279 10 300 0;
#X connect 280 0 269 0;
#X connect 281 0 270 0;
#X connect 282 0 271 0;
#X connect 283 0 272 0;
#X connect 284 0 273 0;
#X connect 285 0 274 0;
#X connect 286 0 275 0;
#X connect 287 0 276 0;
#X connect 288 0 277 0;
#X connect 289 0 278 0;
#X connect 300 0 301 0;
#X connect 300 1 302 0;
#X connect 300 2 303 0;
#X connect 300 3 304 0;
#X connect 300 4 305 0;
#X connect 300 5 306 0;
#X connect 300 6 307 0;
#X connect 300 7 308 0;
#X connect 300 8 309 0;
#X connect 300 9 310 0;
#X connect 300 10 321 0;
#X connect 301 0 290 0;
#X connect 302 0 291 0;
#X connect 303 0 292 0;
#X connect 304 0 293 0;
#X connect 305 0 294 0;
#X connect 306 0 295 0;
#X connect 307 0 296 0;
#X connect 308 0 297 0;
#X connect 309 0 298 0;
#X connect 310 0 299 0;
#X connect 321 0 322 0;
#X connect 321 1 323 0;
#X connect 321 2 324 0;
#X connect 321 3 325 0;
#X connect 321 4 326 0;
#X connect 321 5 327 0;
#X connect 321 6 328 0;
#X connect 321 7 329 0;
#X connect 321 8 330 0;
#X connect 321 9 331 0;
#X connect 321 10 342 0;
#X connect 322 0 311 0;
#X connect 323 0 312 0;
#X connect 324 0 313 0;
#X connect 325 0 314 0;
#X connect 326 0 315 0;
#X connect 327 0 316 0;
#X connect 328 0 317 0;
#X connect 329 0 318 0;
#X connect 330 0 319 0;
#X connect 331 0 320 0;
#X connect 342 0 343 0;
#X connect 342 1 344 0;
#X connect 342 2 345 0;
#X connect 342 3 346 0;
#X connect 342 4 347 0;
#X connect 342 5 348 0;
#X connect 342 6 349 0;
#X connect 342 7 350 0;
#X connect 342 8 351 0;
#X connect 342 9 352 0;
#X connect 342 10 363 0;
#X connect 343 0 332 0;
#X connect 344 0 333 0;
#X connect 345 0 334 0;
#X connect 346 0 335 0;
#X connect 347 0 336 0;
#X connect 348 0 337 0;
#X connect 349 0 338 0;
#X connect 350 0 339 0;
#X connect 351 0 340 0;
#X connect 352 0 341 0;
#X connect 363 0 364 0;
#X connect 363 1 365 0;
#X connect 363 2 366 0;
#X connect 363 3 367 0;
#X connect 363 4 368 0;
#X connect 363 5 369 0;
#X connect 363 6 370 0;
#X connect 363 7 371 0;
#X connect 363 8 372 0;
#X connect 363 9 373 0;
#X connect 363 10 384 0;
#X connect 364 0 353 0;
#X connect 365 0 354 0;
#X connect 366 0 355 0;
#X connect 367 0 356 0;
#X connect 368 0 357 0;
#X connect 369 0 358 0;
#X connect 370 0 359 0;
#X connect 371 0 360 0;
#X connect 372 0 361 0;
#X connect 373 0 362 0;
#X connect 384 0 385 0;
#X connect 384 1 386 0;
#X connect 384 2 387 0;
#X connect 384 3 388 0;
#X connect 384 4 389 0;
#X connect 384 5 390 0;
#X connect 384 6 391 0;
#X connect 384 7 392 0;
#X connect 384 8 393 0;
#X connect 384 9 394 0;
#X connect 384 10 415 0;
#X connect 385 0 374 0;
#X connect 386 0 375 0;
#X connect 387 0 376 0;
#X connect 388 0 377 0;
#X connect 389 0 378 0;
#X connect 390 0 379 0;
#X connect 391 0 380 0;
#X connect 392 0 381 0;
#X connect 393 0 382 0;
#X connect 394 0 383 0;
#X connect 415 0 428 0;
#X connect 415 1 429 0;
#X connect 415 2 430 0;
#X connect 415 3 431 0;
#X connect 415 4 432 0;
#X connect 415 5 433 0;
#X connect 415 6 434 0;
#X connect 415 7 435 0;
#X connect 415 8 436 0;
#X connect 415 9 437 0;
#X connect 415 10 416 0;
#X connect 416 0 438 0;
#X connect 416 1 439 0;
#X connect 416 2 440 0;
#X connect 416 3 441 0;
#X connect 416 4 442 0;
#X connect 416 5 443 0;
#X connect 416 6 444 0;
#X connect 416 7 445 0;
#X connect 416 8 446 0;
#X connect 416 9 447 0;
#X connect 416 10 427 0;
#X connect 427 0 448 0;
#X connect 427 1 449 0;
#X connect 427 2 450 0;
#X connect 427 3 451 0;
#X connect 427 4 452 0;
#X connect 427 5 453 0;
#X connect 427 6 454 0;
#X connect 427 7 455 0;
#X connect 427 8 456 0;
#X connect 427 9 457 0;
#X connect 427 10 468 0;
#X connect 428 0 395 0;
#X connect 429 0 396 0;
#X connect 430 0 397 0;
#X connect 431 0 398 0;
#X connect 432 0 399 0;
#X connect 433 0 400 0;
#X connect 434 0 401 0;
#X connect 435 0 402 0;
#X connect 436 0 403 0;
#X connect 437 0 404 0;
#X connect 438 0 405 0;
#X connect 439 0 406 0;
#X connect 440 0 407 0;
#X connect 441 0 408 0;
#X connect 442 0 409 0;
#X connect 443 0 410 0;
#X connect 444 0 411 0;
#X connect 445 0 412 0;
#X connect 446 0 413 0;
#X connect 447 0 414 0;
#X connect 448 0 417 0;
#X connect 449 0 418 0;
#X connect 450 0 419 0;
#X connect 451 0 420 0;
#X connect 452 0 421 0;
#X connect 453 0 422 0;
#X connect 454 0 423 0;
#X connect 455 0 424 0;
#X connect 456 0 425 0;
#X connect 457 0 426 0;
#X connect 468 0 480 0;
#X connect 468 1 481 0;
#X connect 468 2 482 0;
#X connect 468 3 483 0;
#X connect 468 4 484 0;
#X connect 468 5 485 0;
#X connect 468 6 486 0;
#X connect 468 7 487 0;
#X connect 468 8 488 0;
#X connect 468 9 489 0;
#X connect 468 10 479 0;
#X connect 479 0 490 0;
#X connect 479 1 491 0;
#X connect 479 2 492 0;
#X connect 479 3 493 0;
#X connect 479 4 494 0;
#X connect 479 5 495 0;
#X connect 479 6 496 0;
#X connect 479 7 497 0;
#X connect 479 8 498 0;
#X connect 479 9 499 0;
#X connect 479 10 510 0;
#X connect 480 0 458 0;
#X connect 481 0 459 0;
#X connect 482 0 460 0;
#X connect 483 0 461 0;
#X connect 484 0 462 0;
#X connect 485 0 463 0;
#X connect 486 0 464 0;
#X connect 487 0 465 0;
#X connect 488 0 466 0;
#X connect 489 0 467 0;
#X connect 490 0 469 0;
#X connect 491 0 470 0;
#X connect 492 0 471 0;
#X connect 493 0 472 0;
#X connect 494 0 473 0;
#X connect 495 0 474 0;
#X connect 496 0 475 0;
#X connect 497 0 476 0;
#X connect 498 0 477 0;
#X connect 499 0 478 0;
#X connect 510 0 511 0;
#X connect 510 1 512 0;
#X connect 510 2 513 0;
#X connect 510 3 514 0;
#X connect 510 4 515 0;
#X connect 510 5 516 0;
#X connect 510 6 517 0;
#X connect 510 7 518 0;
#X connect 510 8 519 0;
#X connect 510 9 520 0;
#X connect 510 10 533 0;
#X connect 511 0 500 0;
#X connect 512 0 501 0;
#X connect 513 0 502 0;
#X connect 514 0 503 0;
#X connect 515 0 504 0;
#X connect 516 0 505 0;
#X connect 517 0 506 0;
#X connect 518 0 507 0;
#X connect 519 0 508 0;
#X connect 520 0 509 0;
#X connect 527 0 521 0;
#X connect 528 0 522 0;
#X connect 529 0 523 0;
#X connect 530 0 524 0;
#X connect 531 0 525 0;
#X connect 532 0 526 0;
#X connect 533 0 527 0;
#X connect 533 1 528 0;
#X connect 533 2 529 0;
#X connect 533 3 530 0;
#X connect 533 4 531 0;
#X connect 533 5 532 0;
#X connect 533 6 534 0;
#X connect 535 0 544 0;
#X connect 536 0 86 0;
#X connect 537 0 101 0;
#X connect 538 0 546 0;
#X connect 539 0 1 0;
#X connect 540 0 539 1;
#X connect 541 0 543 0;
#X connect 542 0 541 0;
#X connect 543 0 540 0;
#X connect 544 0 542 0;
#X connect 545 0 539 0;
#X connect 545 1 542 0;
#X connect 546 0 545 0;
#X connect 547 0 549 0;
#X connect 548 0 540 0;
#X connect 549 0 548 0;
#X connect 551 0 123 0;
