#N canvas 706 446 626 370 12;
#X obj 50 50 cnv 10 100 10 empty empty empty 20 12 0 12 #000000 #404040 0;
#X obj 294 174 pointer;
#X obj 224 61 t b b b;
#X floatatom 153 194 5 0 100 0 position - - 0;
#X text 113 170 x y location;
#X obj 145 151 inlet;
#X msg 206 169 0 0;
#X obj 223 37 loadbang;
#X obj 154 295 filledpolygon 17 12 0 0 0 q 0 q 9 0 9;
#X obj 324 41 bng 19 250 50 0 empty empty empty 0 -10 0 12 #fcfcfc #000000 #000000;
#X msg 295 153 traverse pd-\$1-graphic \, bang;
#X obj 275 126 \$1;
#X obj 309 83 \$1;
#N canvas 183 395 1920 976 \$1-graphic 0;
#X coords 0 -1 100 10 100 10 2 10 10;
#X restore 50 50 pd \$1-graphic;
#X msg 308 107 \; pd-\$1-graphic clear;
#X obj 206 200 append \$1-g1 x y;
#X obj 154 256 struct \$1-g1 float x float y float q;
#X obj 156 224 set \$1-g1 q;
#X connect 1 0 15 2;
#X connect 2 0 6 0;
#X connect 2 1 11 0;
#X connect 2 2 12 0;
#X connect 3 0 17 0;
#X connect 5 0 3 0;
#X connect 6 0 15 0;
#X connect 7 0 2 0;
#X connect 9 0 2 0;
#X connect 10 0 1 0;
#X connect 11 0 10 0;
#X connect 12 0 14 0;
#X connect 15 0 17 1;
#X coords 0 -1 1 1 100 10 2 50 50;
