#N struct 1525-wavegrapharray float x float x-space float color array
graph 1525-waveoscgraph;
#N struct 1525-waveoscgraph float y;
#N canvas 426 200 1106 556 12;
#X declare -path clearessentials;
#X text 26 67 Aka Scr1ptAl1as;
#X text 28 106 Pd 0.52.2;
#X obj 28 152 reportissue;
#X obj 28 132 aboutexternal;
#X text 26 27 ce_customarray v1.0;
#X text 26 85 2022/06/21 835AM;
#X text 231 8 ce_customarray features 12 partials sliders to modify
harmonics of the osc voice. Presets can be saved and quickly referenced
with other objects such as [lfopresets].;
#X obj 453 301 ce_customarray;
#X text 664 7 Note* Enable midi to frequency only if this is your starting
point. [setmidinote< and [setfreq< messages can be used to trigger
notes even if this toggle is not enabled.;
#X msg 480 270 setslidervalue 0 1;
#X msg 204 112 setoutlevel 0.8;
#X msg 223 133 get_outlevel;
#X msg 255 159 setosctype 0;
#X msg 262 182 get_osctype;
#X msg 291 262 get_lastmidi;
#X msg 466 190 get_lastfreq;
#X msg 277 211 setmidinote 60 127;
#X msg 285 235 setmidinote 60 0;
#X text 419 212 on;
#X text 410 238 off;
#X msg 451 144 setfreq 120 127;
#X text 579 142 on;
#X msg 456 166 setfreq 120 0;
#X text 573 164 off;
#X msg 480 240 get_midistate;
#X msg 475 217 setmidistate 0;
#X obj 946 431 print get-result;
#X obj 441 444 dac~;
#X obj 817 459 print inputmidi_message;
#X text 27 46 Written By: Reg Finley;
#X obj 14 6 declare -path clearessentials;
#X obj 28 173 watchtutorial;
#X connect 7 0 27 1;
#X connect 7 0 27 0;
#X connect 7 3 28 0;
#X connect 7 4 26 0;
#X connect 9 0 7 0;
#X connect 10 0 7 0;
#X connect 11 0 7 0;
#X connect 12 0 7 0;
#X connect 13 0 7 0;
#X connect 14 0 7 0;
#X connect 15 0 7 0;
#X connect 16 0 7 0;
#X connect 17 0 7 0;
#X connect 20 0 7 0;
#X connect 22 0 7 0;
#X connect 24 0 7 0;
#X connect 25 0 7 0;
