#N canvas 626 110 625 403 12;
#X obj 27 85 inlet;
#N canvas 857 16 485 784 \$0-parseopencodescript 0;
#X obj 98 472 list trim;
#X obj 97 443 text get \$0-codescript;
#X msg 140 417 -1;
#X obj 98 419 f;
#X obj 88 308 until;
#X obj 88 336 f;
#X obj 126 336 + 1;
#X obj 197 335 sel 0;
#X floatatom 84 266 5 0 0 0 - - - 0;
#X obj 98 503 route # bang;
#N canvas 405 256 450 300 \$0-countcomments 0;
#X obj 49 30 inlet;
#X obj 43 103 until;
#X obj 43 131 f;
#X obj 81 131 + 1;
#X obj 126 130 sel 0;
#X obj 81 157 mod 10;
#X msg 120 89 0;
#X obj 132 45 inlet;
#X obj 181 46 inlet;
#X obj 47 207 outlet;
#X msg 46 67 1;
#X connect 0 0 10 0;
#X connect 1 0 2 0;
#X connect 2 0 3 0;
#X connect 2 0 9 0;
#X connect 3 0 5 0;
#X connect 4 0 1 1;
#X connect 5 0 2 1;
#X connect 5 0 4 0;
#X connect 6 0 2 1;
#X connect 7 0 5 1;
#X connect 8 0 6 0;
#X connect 10 0 1 0;
#X restore 98 551 pd \$0-countcomments;
#X floatatom 98 576 5 0 0 1 Comments\ Skiped - - 0;
#X obj 281 505 s \$0-wholeline;
#X obj 127 360 mod 255;
#X obj 157 803 s \$0-scriptsize;
#X floatatom 133 633 5 0 0 1 Comments\ Skiped - - 0;
#N canvas 405 256 450 300 \$0-countbangs 0;
#X obj 43 31 inlet;
#X obj 43 103 until;
#X obj 43 131 f;
#X obj 81 131 + 1;
#X obj 126 130 sel 0;
#X obj 81 157 mod 10;
#X msg 44 74 1;
#X msg 120 89 0;
#X obj 132 45 inlet;
#X obj 181 46 inlet;
#X obj 47 207 outlet;
#X connect 0 0 6 0;
#X connect 1 0 2 0;
#X connect 2 0 3 0;
#X connect 2 0 10 0;
#X connect 3 0 5 0;
#X connect 4 0 1 1;
#X connect 5 0 2 1;
#X connect 5 0 4 0;
#X connect 6 0 1 0;
#X connect 7 0 2 1;
#X connect 8 0 5 1;
#X connect 9 0 7 0;
#X restore 133 608 pd \$0-countbangs;
#X obj 85 243 t f f f b b f f b;
#X obj 115 655 +;
#X obj 197 381 s \$0-scanforcodewhendoneloadeing;
#X floatatom 152 664 5 0 0 0 - - - 0;
#X floatatom 285 652 5 0 0 0 - - - 0;
#X obj 155 756 -;
#X obj 155 734 f;
#X obj 154 688 t b f;
#X floatatom 156 781 5 0 0 0 - - - 0;
#X obj 197 359 t b;
#X obj 50 97 text size \$0-codescript;
#X obj 49 46 r \$0-initcodescript;
#X obj 50 121 sel 0;
#X obj 403 116 openpanel;
#X msg 491 571 read -c \$1;
#X obj 665 622 bng 15 250 50 0 empty empty empty 17 7 0 10 #fcfcfc #000000 #000000;
#X obj 403 71 r \$0-opencodescript;
#X obj 491 596 text define \$0-codescript;
#X obj 186 193 print Error;
#X obj 51 171 list trim;
#X obj 140 219 s \$0-parsedto-outlet;
#X obj 141 175 t a a;
#X obj 403 93 t b;
#X obj 151 275 s \$0-resetclear;
#X obj 95 73 s \$0-scanparsesize;
#X obj 280 478 t a b;
#X obj 50 73 t b b;
#X msg 53 147 list This script is blank. Cannot be parsed.;
#X obj 88 385 t b b f b f;
#X obj 247 413 s \$0-atlineindex;
#X obj 449 163 t b s;
#X obj 450 214 symbol;
#X msg 449 190 bang;
#X obj 450 139 r \$0-newscriptloc;
#X obj 403 163 t b s;
#X obj 451 289 symbol;
#X msg 450 265 bang;
#X obj 451 315 file isfile, f 15;
#X floatatom 451 340 5 0 0 0 - - - 0;
#X obj 553 340 bng 19 250 50 0 empty empty empty 17 7 0 10 #dfdfdf #000000 #000000;
#X obj 553 413 print;
#X obj 451 387 sel 1;
#X obj 452 409 t b;
#X obj 489 548 symbol;
#X msg 488 524 bang;
#X obj 451 239 t b s s;
#X obj 553 388 list trim;
#X obj 450 447 spigot 0;
#X obj 505 421 tgl 19 0 empty empty empty 0 -10 0 12 #fcfcfc #000000 #000000 0 1;
#X obj 488 501 t b;
#X obj 451 362 t f f f;
#X msg 553 363 list ERROR: Unable to parse. File cannot be located;
#X connect 0 0 9 0;
#X connect 1 0 0 0;
#X connect 2 0 1 1;
#X connect 3 0 1 0;
#X connect 4 0 5 0;
#X connect 5 0 6 0;
#X connect 5 0 45 0;
#X connect 6 0 13 0;
#X connect 7 0 4 1;
#X connect 7 0 26 0;
#X connect 8 0 4 0;
#X connect 9 0 10 0;
#X connect 9 1 16 0;
#X connect 9 2 42 0;
#X connect 10 0 11 0;
#X connect 11 0 18 0;
#X connect 13 0 5 1;
#X connect 13 0 7 0;
#X connect 15 0 18 1;
#X connect 16 0 15 0;
#X connect 17 0 8 0;
#X connect 17 1 13 1;
#X connect 17 2 10 1;
#X connect 17 3 10 2;
#X connect 17 4 40 0;
#X connect 17 5 21 0;
#X connect 17 6 16 1;
#X connect 17 7 16 2;
#X connect 18 0 20 0;
#X connect 20 0 24 0;
#X connect 21 0 23 1;
#X connect 22 0 25 0;
#X connect 23 0 22 0;
#X connect 24 0 23 0;
#X connect 24 1 22 1;
#X connect 25 0 14 0;
#X connect 26 0 19 0;
#X connect 27 0 29 0;
#X connect 28 0 43 0;
#X connect 29 0 44 0;
#X connect 29 1 17 0;
#X connect 30 0 51 0;
#X connect 31 0 34 0;
#X connect 33 0 39 0;
#X connect 34 1 32 0;
#X connect 36 0 38 0;
#X connect 38 0 37 0;
#X connect 38 1 35 0;
#X connect 39 0 30 0;
#X connect 42 0 12 0;
#X connect 43 0 27 0;
#X connect 43 1 41 0;
#X connect 44 0 36 0;
#X connect 45 1 3 0;
#X connect 45 2 3 1;
#X connect 45 3 2 0;
#X connect 45 4 46 0;
#X connect 47 0 49 0;
#X connect 47 1 48 1;
#X connect 48 0 62 0;
#X connect 49 0 48 0;
#X connect 50 0 47 0;
#X connect 51 0 49 0;
#X connect 51 1 48 1;
#X connect 52 0 54 0;
#X connect 53 0 52 0;
#X connect 54 0 55 0;
#X connect 54 1 56 0;
#X connect 55 0 67 0;
#X connect 56 0 68 0;
#X connect 58 0 59 0;
#X connect 59 0 64 0;
#X connect 60 0 31 0;
#X connect 61 0 60 0;
#X connect 62 0 53 0;
#X connect 62 1 52 1;
#X connect 62 2 60 1;
#X connect 63 0 57 0;
#X connect 64 0 66 0;
#X connect 65 0 64 1;
#X connect 66 0 61 0;
#X connect 67 0 58 0;
#X connect 67 1 65 0;
#X connect 68 0 63 0;
#X restore 26 30 pd \$0-parseopencodescript;
#N canvas 134 126 471 300 \$0-routecodesettings 0;
#X obj 39 28 inlet;
#X obj 37 104 s \$0-ptoc;
#X obj 39 83 tgl 15 0 empty empty empty 17 7 0 10 #fcfcfc #000000 #000000 0 1;
#X obj 138 179 s \$0-newscriptloc;
#X obj 138 154 symbol;
#X msg 138 130 bang;
#X obj 138 105 t b;
#X obj 138 81 t b a b;
#X obj 38 57 route -printtoconsole -script;
#X obj 189 124 s \$0-newpathevent;
#X connect 0 0 8 0;
#X connect 2 0 1 0;
#X connect 4 0 3 0;
#X connect 5 0 4 0;
#X connect 6 0 5 0;
#X connect 7 0 6 0;
#X connect 7 1 4 1;
#X connect 7 2 9 0;
#X connect 8 0 2 0;
#X connect 8 1 7 0;
#X restore 27 334 pd \$0-routecodesettings;
#X obj 312 230 print Error:;
#X obj 312 183 symbol;
#X msg 312 160 bang;
#X obj 311 138 t b a;
#X obj 355 95 outlet;
#X obj 169 277 t b b;
#X obj 240 232 t b b;
#N canvas 668 219 421 270 \$0-open-eventoutlet 0;
#X obj 49 122 outlet;
#X obj 52 62 \$0;
#X obj 53 38 t b b;
#N canvas 150 150 450 300 \$0-printtocon 0;
#X obj 47 39 inlet;
#X obj 117 70 tgl 15 0 empty empty empty 17 7 0 10 #fcfcfc #000000 #000000 0 1;
#X obj 116 48 r \$0-ptoc;
#X obj 64 90 spigot 0;
#X obj 58 142 outlet;
#X connect 0 0 3 0;
#X connect 1 0 3 1;
#X connect 2 0 1 0;
#X connect 3 0 4 0;
#X restore 110 119 pd \$0-printtocon;
#X obj 110 143 list trim;
#X msg 53 85 list \$1 Opening script?;
#X obj 53 13 r \$0-openscriptevent;
#X obj 110 168 print Event;
#X connect 1 0 5 0;
#X connect 2 0 1 0;
#X connect 3 0 4 0;
#X connect 4 0 7 0;
#X connect 5 0 0 0;
#X connect 5 0 3 0;
#X connect 6 0 2 0;
#X restore 317 7 pd \$0-open-eventoutlet;
#N canvas 246 87 391 311 \$0-init-eventoutlet 0;
#X obj 52 62 \$0;
#X obj 53 38 t b b;
#X obj 53 113 outlet;
#N canvas 150 150 450 300 \$0-printtocon 0;
#X obj 47 39 inlet;
#X obj 117 70 tgl 15 0 empty empty empty 17 7 0 10 #fcfcfc #000000 #000000 0 1;
#X obj 116 48 r \$0-ptoc;
#X obj 64 90 spigot 0;
#X obj 58 142 outlet;
#X connect 0 0 3 0;
#X connect 1 0 3 1;
#X connect 2 0 1 0;
#X connect 3 0 4 0;
#X restore 110 119 pd \$0-printtocon;
#X obj 110 143 list trim;
#X msg 53 85 list \$1 Initiating script;
#X obj 53 13 r \$0-initscriptevent;
#X obj 110 168 print Event;
#X connect 0 0 5 0;
#X connect 1 0 0 0;
#X connect 3 0 4 0;
#X connect 4 0 7 0;
#X connect 5 0 2 0;
#X connect 5 0 3 0;
#X connect 6 0 1 0;
#X restore 337 29 pd \$0-init-eventoutlet;
#X obj 367 73 r \$0-parsedto-outlet;
#X obj 27 7 namecanvas \$0-codeparse_canvas;
#N canvas 282 184 500 361 \$0-sortvarcodeline 0;
#X msg 90 72 clear;
#X obj 44 44 t b b b;
#N canvas 847 69 726 533 \$0-parseequalsfromline 0;
#X obj 60 29 r \$0-wholeline;
#X obj 60 214 l2s;
#X obj 110 160 list length;
#X floatatom 110 185 5 0 0 0 - - - 0;
#X obj 112 213 > 1;
#X obj 113 239 tgl 19 0 empty empty empty 0 -10 0 12 #fcfcfc #000000 #000000 0 1;
#X obj 60 263 spigot 0;
#X obj 290 170 == 0;
#X obj 291 194 change;
#X obj 291 217 == 1;
#X obj 238 266 spigot 0;
#X obj 292 242 tgl 19 0 empty empty empty 0 -10 0 12 #fcfcfc #000000 #000000 0 1;
#X obj 60 239 t a a;
#X obj 37 368 list-drip;
#X obj 239 338 list-drip;
#X obj 260 392 list length;
#X floatatom 260 417 5 0 0 0 - - - 0;
#X obj 262 445 > 1;
#X obj 263 471 tgl 19 0 empty empty empty 0 -10 0 12 #fcfcfc #000000 #000000 0 1;
#X obj 210 495 spigot 0;
#X obj 420 164 == 0;
#X obj 421 188 change;
#X obj 421 211 == 1;
#X obj 372 260 spigot 0;
#X obj 422 236 tgl 19 0 empty empty empty 0 -10 0 12 #fcfcfc #000000 #000000 0 1;
#X obj 241 363 t a a a b;
#X obj 369 312 l2s;
#X obj 368 286 t a b;
#X obj 236 290 t a b;
#X obj 37 343 s2l;
#X obj 57 292 t a b b;
#X obj 37 424 l2s;
#X obj 36 446 s2l;
#X msg 67 425 symbol \\\,;
#X obj 370 340 s2l;
#X msg 401 319 symbol \\\,;
#X obj 36 475 list-drip;
#X msg 66 501 symbol (;
#X obj 37 526 s2l;
#X obj 35 501 l2s;
#X obj 36 549 list-drip;
#X obj 37 600 s2l;
#X obj 35 575 l2s;
#X msg 66 575 symbol ).;
#X obj 37 625 list-drip;
#X obj 41 674 s2l;
#X obj 39 649 l2s;
#X msg 70 649 symbol =;
#X obj 371 364 list-drip;
#X obj 355 420 l2s;
#X obj 354 442 s2l;
#X msg 385 421 symbol \\\,;
#X obj 354 471 list-drip;
#X msg 384 497 symbol (;
#X obj 355 522 s2l;
#X obj 353 497 l2s;
#X obj 354 545 list-drip;
#X obj 355 596 s2l;
#X obj 353 571 l2s;
#X msg 384 571 symbol ).;
#X obj 355 621 list-drip;
#X obj 359 670 s2l;
#X obj 357 645 l2s;
#X msg 388 645 symbol =;
#X obj 359 692 list-drip;
#X obj 172 57 r \$0-wholeline;
#X obj 129 106 symbol;
#X msg 123 84 bang;
#X obj 171 80 l2s;
#X obj 359 719 l2s;
#X obj 396 800 s2l;
#X obj 239 314 t a a a;
#X obj 206 549 l2s;
#X obj 205 523 t a b;
#X obj 207 577 s2l;
#X msg 238 556 symbol \\\,;
#X obj 208 601 list-drip;
#X obj 192 657 l2s;
#X obj 191 679 s2l;
#X msg 222 658 symbol \\\,;
#X obj 191 708 list-drip;
#X msg 221 734 symbol (;
#X obj 192 759 s2l;
#X obj 190 734 l2s;
#X obj 191 782 list-drip;
#X obj 192 833 s2l;
#X obj 190 808 l2s;
#X msg 221 808 symbol ).;
#X obj 192 858 list-drip;
#X obj 196 907 s2l;
#X obj 194 882 l2s;
#X msg 225 882 symbol =;
#X obj 196 929 list-drip;
#X obj 516 1173 outlet;
#X obj 698 776 s \$0-parsesize;
#X msg 627 579 1;
#X obj 627 554 t b;
#X msg 640 658 0;
#X obj 640 635 t b;
#X obj 363 832 list-drip;
#X obj 362 861 l2s;
#X obj 362 886 s2l;
#X msg 472 785 symbol .;
#X msg 425 872 symbol );
#X obj 362 911 list-drip;
#X obj 362 937 sel 0;
#X msg 449 715 symbol;
#X obj 359 772 l2s;
#X msg 403 749 symbol;
#X obj 371 389 t a b b b b b b b b;
#X obj 355 744 s2l;
#X obj 195 975 l2s;
#X obj 215 1062 s2l;
#X obj 199 1088 list-drip;
#X obj 198 1117 l2s;
#X obj 198 1142 s2l;
#X msg 238 1035 symbol .;
#X msg 242 1120 symbol );
#X obj 198 1167 list-drip;
#X obj 198 1193 sel 0;
#X msg 240 967 symbol;
#X obj 195 1028 l2s;
#X msg 239 1005 symbol;
#X obj 191 1000 s2l;
#X obj 197 626 t a b b b b b b b b b;
#X obj 640 611 r \$0-scanparsesize;
#X obj 621 683 until;
#X obj 619 715 f;
#X obj 654 715 + 1;
#X floatatom 660 748 5 0 0 0 - - - 0;
#X obj 611 764 f;
#X obj 181 436 t b;
#X obj 60 53 t a a a b b;
#X obj 625 824 f;
#X obj 607 849 -;
#X obj 623 798 t b f f;
#X obj 608 878 - 1;
#X obj 753 856 < 0;
#X obj 753 878 tgl 19 0 empty empty empty 0 -10 0 12 #fcfcfc #000000 #000000 0 1;
#X obj 607 949 spigot 0;
#X obj 758 904 == 0;
#X obj 759 928 change;
#X obj 761 954 == 1;
#X obj 761 979 tgl 19 0 empty empty empty 0 -10 0 12 #fcfcfc #000000 #000000 0 1;
#X obj 708 1002 spigot 0;
#X obj 639 977 r \$0-parsesize;
#X obj 607 902 t f f f;
#X floatatom 707 1024 5 0 0 0 - - - 0;
#X obj 592 1039 f;
#X obj 607 979 t b;
#X obj 231 1218 t a a b;
#X obj 394 1092 t a a b;
#X obj 394 967 t a a b;
#X msg 540 299 list unparsed_line \$1;
#X msg 370 1152 list line_arg \$1;
#X obj 582 398 s2l;
#X obj 582 444 l2s;
#X obj 582 350 l2s;
#X obj 584 468 s2l;
#X obj 24 713 list-drip;
#X obj 23 759 l2s;
#X obj 43 846 s2l;
#X obj 27 872 list-drip;
#X obj 26 901 l2s;
#X obj 26 926 s2l;
#X msg 66 819 symbol .;
#X msg 70 904 symbol );
#X obj 26 951 list-drip;
#X obj 26 977 sel 0;
#X msg 68 751 symbol;
#X obj 23 812 l2s;
#X msg 67 789 symbol;
#X obj 19 784 s2l;
#X obj 37 393 t a b b b b b b b b;
#X obj 136 134 t s b b;
#X msg 604 422 symbol;
#X msg 607 375 symbol;
#X msg 607 1073 list argsize \$1;
#X msg 476 1103 list line_index \$1;
#X obj 483 1005 f;
#X obj 475 947 r \$0-atlineindex;
#X obj 516 425 t b b a;
#X connect 0 0 132 0;
#X connect 1 0 12 0;
#X connect 2 0 3 0;
#X connect 3 0 4 0;
#X connect 4 0 5 0;
#X connect 5 0 6 1;
#X connect 5 0 7 0;
#X connect 6 0 30 0;
#X connect 7 0 8 0;
#X connect 8 0 9 0;
#X connect 9 0 11 0;
#X connect 10 0 28 0;
#X connect 11 0 10 1;
#X connect 12 0 6 0;
#X connect 12 1 10 0;
#X connect 13 0 173 0;
#X connect 14 0 25 0;
#X connect 15 0 16 0;
#X connect 16 0 17 0;
#X connect 17 0 18 0;
#X connect 18 0 19 1;
#X connect 18 0 20 0;
#X connect 19 0 73 0;
#X connect 20 0 21 0;
#X connect 21 0 22 0;
#X connect 22 0 24 0;
#X connect 23 0 27 0;
#X connect 24 0 23 1;
#X connect 25 2 23 0;
#X connect 26 0 34 0;
#X connect 27 0 26 0;
#X connect 27 1 35 0;
#X connect 28 0 71 0;
#X connect 29 0 13 0;
#X connect 30 0 29 0;
#X connect 31 0 32 0;
#X connect 32 0 36 0;
#X connect 33 0 32 1;
#X connect 34 0 48 0;
#X connect 35 0 34 1;
#X connect 36 0 39 0;
#X connect 37 0 38 1;
#X connect 38 0 40 0;
#X connect 39 0 38 0;
#X connect 40 0 42 0;
#X connect 41 0 44 0;
#X connect 42 0 41 0;
#X connect 43 0 41 1;
#X connect 44 0 46 0;
#X connect 45 0 159 0;
#X connect 46 0 45 0;
#X connect 47 0 45 1;
#X connect 48 0 109 0;
#X connect 49 0 50 0;
#X connect 50 0 52 0;
#X connect 51 0 50 1;
#X connect 52 0 55 0;
#X connect 53 0 54 1;
#X connect 54 0 56 0;
#X connect 55 0 54 0;
#X connect 56 0 58 0;
#X connect 57 0 60 0;
#X connect 58 0 57 0;
#X connect 59 0 57 1;
#X connect 60 0 62 0;
#X connect 61 0 64 0;
#X connect 62 0 61 0;
#X connect 63 0 61 1;
#X connect 64 0 69 0;
#X connect 65 0 68 0;
#X connect 66 0 174 0;
#X connect 67 0 66 0;
#X connect 68 0 66 1;
#X connect 69 0 110 0;
#X connect 70 0 99 0;
#X connect 71 0 14 0;
#X connect 71 1 19 0;
#X connect 71 2 15 0;
#X connect 72 0 74 0;
#X connect 73 0 72 0;
#X connect 73 1 75 0;
#X connect 74 0 76 0;
#X connect 75 0 74 1;
#X connect 76 0 124 0;
#X connect 77 0 78 0;
#X connect 78 0 80 0;
#X connect 79 0 78 1;
#X connect 80 0 83 0;
#X connect 81 0 82 1;
#X connect 82 0 84 0;
#X connect 83 0 82 0;
#X connect 84 0 86 0;
#X connect 85 0 88 0;
#X connect 86 0 85 0;
#X connect 87 0 85 1;
#X connect 88 0 90 0;
#X connect 89 0 92 0;
#X connect 90 0 89 0;
#X connect 91 0 89 1;
#X connect 92 0 111 0;
#X connect 95 0 126 0;
#X connect 96 0 95 0;
#X connect 97 0 127 1;
#X connect 97 0 133 1;
#X connect 97 0 130 1;
#X connect 98 0 97 0;
#X connect 99 0 100 0;
#X connect 100 0 101 0;
#X connect 101 0 104 0;
#X connect 102 0 70 1;
#X connect 103 0 101 1;
#X connect 104 0 105 0;
#X connect 105 1 152 0;
#X connect 106 0 69 1;
#X connect 107 0 99 0;
#X connect 108 0 107 1;
#X connect 109 0 49 0;
#X connect 109 1 51 0;
#X connect 109 2 53 0;
#X connect 109 3 59 0;
#X connect 109 4 63 0;
#X connect 109 5 106 0;
#X connect 109 6 102 0;
#X connect 109 7 103 0;
#X connect 109 8 108 0;
#X connect 110 0 107 0;
#X connect 111 0 123 0;
#X connect 112 0 113 0;
#X connect 113 0 114 0;
#X connect 114 0 115 0;
#X connect 115 0 118 0;
#X connect 116 0 112 1;
#X connect 117 0 115 1;
#X connect 118 0 119 0;
#X connect 119 1 150 0;
#X connect 120 0 111 1;
#X connect 121 0 113 0;
#X connect 122 0 121 1;
#X connect 123 0 121 0;
#X connect 124 0 77 0;
#X connect 124 1 79 0;
#X connect 124 2 81 0;
#X connect 124 3 87 0;
#X connect 124 4 91 0;
#X connect 124 5 120 0;
#X connect 124 6 122 0;
#X connect 124 7 116 0;
#X connect 124 8 117 0;
#X connect 125 0 98 0;
#X connect 126 0 127 0;
#X connect 127 0 128 0;
#X connect 127 0 129 0;
#X connect 128 0 127 1;
#X connect 129 0 130 1;
#X connect 129 0 94 0;
#X connect 130 0 133 1;
#X connect 130 0 135 0;
#X connect 131 0 130 0;
#X connect 132 0 131 0;
#X connect 132 1 1 0;
#X connect 132 2 2 0;
#X connect 132 3 67 0;
#X connect 133 0 134 1;
#X connect 134 0 136 0;
#X connect 135 0 133 0;
#X connect 135 1 134 0;
#X connect 135 2 133 1;
#X connect 136 0 146 0;
#X connect 137 0 138 0;
#X connect 138 0 140 0;
#X connect 138 0 139 1;
#X connect 139 0 149 0;
#X connect 140 0 141 0;
#X connect 141 0 142 0;
#X connect 142 0 143 0;
#X connect 143 0 144 1;
#X connect 144 0 147 0;
#X connect 145 0 148 1;
#X connect 146 0 139 0;
#X connect 146 1 144 0;
#X connect 146 2 137 0;
#X connect 147 0 177 0;
#X connect 148 0 177 0;
#X connect 149 0 148 0;
#X connect 150 0 154 0;
#X connect 150 2 96 0;
#X connect 151 0 154 0;
#X connect 151 2 96 0;
#X connect 152 0 154 0;
#X connect 152 2 96 0;
#X connect 153 0 181 0;
#X connect 154 0 93 0;
#X connect 155 0 156 0;
#X connect 156 0 158 0;
#X connect 157 0 155 0;
#X connect 158 0 93 0;
#X connect 159 0 160 0;
#X connect 160 0 172 0;
#X connect 161 0 162 0;
#X connect 162 0 163 0;
#X connect 163 0 164 0;
#X connect 164 0 167 0;
#X connect 165 0 161 1;
#X connect 166 0 164 1;
#X connect 167 0 168 0;
#X connect 168 1 151 0;
#X connect 169 0 160 1;
#X connect 170 0 162 0;
#X connect 171 0 170 1;
#X connect 172 0 170 0;
#X connect 173 0 31 0;
#X connect 173 1 33 0;
#X connect 173 2 37 0;
#X connect 173 3 43 0;
#X connect 173 4 47 0;
#X connect 173 5 169 0;
#X connect 173 6 171 0;
#X connect 173 7 165 0;
#X connect 173 8 166 0;
#X connect 174 0 153 0;
#X connect 174 1 176 0;
#X connect 174 2 175 0;
#X connect 175 0 156 1;
#X connect 176 0 155 1;
#X connect 177 0 93 0;
#X connect 178 0 93 0;
#X connect 179 0 178 0;
#X connect 180 0 179 1;
#X connect 181 0 179 0;
#X connect 181 2 157 0;
#X restore 295 54 pd \$0-parseequalsfromline;
#N canvas 1038 251 422 329 \$0-setparsedtoparsedcode 0;
#X obj 66 25 inlet;
#X floatatom 168 204 5 0 0 0 - - - 0;
#X msg 168 179 -1;
#X obj 88 105 until;
#X obj 81 160 f;
#X obj 173 108 + 1;
#X obj 205 110 sel 0;
#X obj 182 150 mod 10;
#X msg 88 78 1;
#X obj 65 51 t a b b;
#X obj 67 273 text set \$0-parsedcode;
#X msg 173 85 0;
#X obj 173 63 r \$0-resetcodeparse;
#X obj 251 110 r \$0-parsesize;
#X obj 114 232 text size \$0-parsedcode, f 26;
#X obj 113 210 t b;
#X obj 81 184 t b b;
#X connect 0 0 9 0;
#X connect 1 0 10 2;
#X connect 2 0 1 0;
#X connect 3 0 4 0;
#X connect 4 0 5 0;
#X connect 4 0 16 0;
#X connect 5 0 7 0;
#X connect 6 0 3 1;
#X connect 7 0 4 1;
#X connect 7 0 6 0;
#X connect 8 0 3 0;
#X connect 9 0 10 0;
#X connect 9 1 8 0;
#X connect 9 2 2 0;
#X connect 11 0 5 0;
#X connect 12 0 11 0;
#X connect 13 0 7 1;
#X connect 14 0 10 1;
#X connect 15 0 14 0;
#X connect 16 1 15 0;
#X restore 296 82 pd \$0-setparsedtoparsedcode;
#X obj 70 122 s \$0-resetcodeparse;
#X obj 42 153 r \$0-scanforcodewhendoneloadeing;
#X obj 45 19 r \$0-resetclear;
#N canvas 934 131 510 521 \$0-definitioncorrections 0;
#X obj 100 20 inlet;
#X obj 112 302 text get \$0-parsedcode;
#X msg 154 273 -1;
#X obj 113 514 text set \$0-parsedcode;
#X msg 193 483 0;
#X obj 107 244 t f b f b;
#X msg 113 429 symbol line_def;
#X obj 112 374 route unparsed_line;
#X obj 112 327 list-drip;
#X msg 112 351 \$1;
#X obj 177 563 until;
#X obj 177 588 f;
#X obj 226 587 + 1;
#X msg 227 560 0;
#X obj 113 402 t b b;
#X msg 177 539 1;
#X floatatom 176 612 5 0 0 0 - - - 0;
#X obj 176 636 s \$0-linedefs;
#X obj 293 427 inlet;
#X obj 229 482 t b;
#X obj 148 479 + 2;
#X obj 106 165 until;
#X obj 107 187 f;
#X obj 156 147 + 1;
#X obj 207 171 sel 0;
#X obj 155 174 mod 10;
#X msg 156 121 0;
#X obj 107 107 f;
#X msg 107 132 \$1;
#X obj 141 91 t f b;
#X obj 138 68 text size \$0-parsedcode;
#X floatatom 106 212 5 0 0 0 - - - 0;
#X obj 100 44 t b b;
#X connect 0 0 32 0;
#X connect 1 0 8 0;
#X connect 2 0 1 1;
#X connect 4 0 3 2;
#X connect 5 0 1 0;
#X connect 5 1 2 0;
#X connect 5 2 20 0;
#X connect 5 3 4 0;
#X connect 6 0 3 0;
#X connect 7 0 14 0;
#X connect 8 0 9 0;
#X connect 9 0 7 0;
#X connect 10 0 11 0;
#X connect 11 0 12 0;
#X connect 11 0 16 0;
#X connect 12 0 11 1;
#X connect 13 0 11 1;
#X connect 14 0 6 0;
#X connect 14 1 15 0;
#X connect 15 0 10 0;
#X connect 16 0 17 0;
#X connect 18 0 19 0;
#X connect 19 0 13 0;
#X connect 20 0 3 1;
#X connect 21 0 22 0;
#X connect 22 0 23 0;
#X connect 22 0 31 0;
#X connect 23 0 25 0;
#X connect 24 0 21 1;
#X connect 25 0 22 1;
#X connect 25 0 24 0;
#X connect 26 0 23 0;
#X connect 27 0 25 1;
#X connect 27 0 28 0;
#X connect 28 0 21 0;
#X connect 29 0 27 1;
#X connect 29 1 26 0;
#X connect 30 0 29 0;
#X connect 31 0 5 0;
#X connect 32 0 27 0;
#X connect 32 1 30 0;
#X restore 64 211 pd \$0-definitioncorrections;
#X obj 88 94 text define \$0-parsedcode;
#N canvas 874 323 654 407 \$0-parsedefinitions 0;
#X obj 115 50 r \$0-linedefs;
#X obj 96 73 f;
#X floatatom 96 122 5 0 0 0 - - - 0;
#X obj 97 97 + 1;
#X obj 80 49 t b;
#X obj 124 262 list trim;
#N canvas 1200 12 295 300 \$0-printtoconsole 0;
#X obj 87 71 inlet;
#X obj 93 100 t a;
#X obj 95 150 t a;
#X obj 96 173 outlet;
#X obj 146 76 r \$0-ptoc;
#X obj 144 101 tgl 19 0 empty empty empty 0 -10 0 12 #fcfcfc #000000 #000000 0 1;
#X obj 95 126 spigot 0;
#X connect 0 0 1 0;
#X connect 1 0 6 0;
#X connect 2 0 3 0;
#X connect 4 0 5 0;
#X connect 5 0 6 1;
#X connect 6 0 2 0;
#X restore 124 286 pd \$0-printtoconsole;
#X obj 96 145 t b f;
#X obj 125 215 f;
#X obj 94 168 del;
#X obj 93 191 t b b;
#X obj 341 162 text set \$0-parsedcode;
#X obj 376 117 + 1;
#X obj 376 69 text size \$0-parsedcode;
#X obj 374 45 t b;
#X floatatom 375 93 5 0 0 0 - - - 0;
#X obj 124 311 print parsed;
#X msg 124 239 list total_line_defs \$1;
#X obj 310 133 t b a b;
#X obj 340 282 text set \$0-parsedcode;
#X obj 393 257 + 1;
#X obj 393 209 text size \$0-parsedcode;
#X obj 391 185 t b;
#X floatatom 392 233 5 0 0 0 - - - 0;
#X obj 309 253 t b a b;
#X msg 310 228 list eof;
#X obj 79 14 inlet;
#N canvas 248 181 450 387 \$0-parsetoconsole 0;
#X obj 75 24 inlet;
#N canvas 1200 12 295 300 \$0-printtoconsole 0;
#X obj 87 71 inlet;
#X obj 93 100 t a;
#X obj 95 150 t a;
#X obj 96 173 outlet;
#X obj 146 76 r \$0-ptoc;
#X obj 144 101 tgl 19 0 empty empty empty 0 -10 0 12 #fcfcfc #000000 #000000 0 1;
#X obj 95 126 spigot 0;
#X connect 0 0 1 0;
#X connect 1 0 6 0;
#X connect 2 0 3 0;
#X connect 4 0 5 0;
#X connect 5 0 6 1;
#X connect 6 0 2 0;
#X restore 75 74 pd \$0-printtoconsole;
#X obj 68 313 list trim;
#X obj 68 289 text get \$0-parsedcode;
#X msg 109 265 -1;
#X obj 68 242 t f b;
#X obj 77 96 text size \$0-parsedcode;
#X floatatom 78 124 5 0 0 0 - - - 0;
#X obj 73 150 until;
#X obj 73 188 f;
#X obj 111 181 + 1;
#X obj 166 177 sel 0;
#X obj 111 207 mod 10;
#X floatatom 68 219 5 0 0 0 - - - 0;
#X obj 68 338 print parsed;
#X obj 78 53 t b;
#X connect 0 0 15 0;
#X connect 1 0 6 0;
#X connect 2 0 14 0;
#X connect 3 0 2 0;
#X connect 4 0 3 1;
#X connect 5 0 3 0;
#X connect 5 1 4 0;
#X connect 6 0 7 0;
#X connect 7 0 12 1;
#X connect 7 0 8 0;
#X connect 8 0 9 0;
#X connect 9 0 10 0;
#X connect 9 0 13 0;
#X connect 10 0 12 0;
#X connect 11 0 8 1;
#X connect 12 0 9 1;
#X connect 12 0 11 0;
#X connect 13 0 5 0;
#X connect 15 0 1 0;
#X restore 309 306 pd \$0-parsetoconsole;
#X connect 0 0 1 1;
#X connect 1 0 3 0;
#X connect 2 0 7 0;
#X connect 3 0 2 0;
#X connect 4 0 1 0;
#X connect 5 0 6 0;
#X connect 6 0 16 0;
#X connect 7 0 9 0;
#X connect 7 1 8 1;
#X connect 8 0 17 0;
#X connect 9 0 10 0;
#X connect 10 1 8 0;
#X connect 12 0 11 1;
#X connect 13 0 15 0;
#X connect 14 0 13 0;
#X connect 15 0 12 0;
#X connect 17 0 5 0;
#X connect 17 0 18 0;
#X connect 18 0 25 0;
#X connect 18 1 11 0;
#X connect 18 2 14 0;
#X connect 20 0 19 1;
#X connect 21 0 23 0;
#X connect 22 0 21 0;
#X connect 23 0 20 0;
#X connect 24 0 27 0;
#X connect 24 1 19 0;
#X connect 24 2 22 0;
#X connect 25 0 24 0;
#X connect 26 0 4 0;
#X restore 41 235 pd \$0-parsedefinitions;
#X obj 41 175 t b b b;
#X connect 0 0 8 0;
#X connect 1 1 4 0;
#X connect 1 2 0 0;
#X connect 2 0 3 0;
#X connect 5 0 10 0;
#X connect 6 0 1 0;
#X connect 10 0 9 0;
#X connect 10 1 7 0;
#X connect 10 2 7 1;
#X restore 26 55 pd \$0-sortvarcodeline;
#X msg 312 206 list Unknown comand for ce_codeparser-> \$1;
#X obj 169 304 s \$0-opencodescript;
#X obj 240 257 s \$0-initcodescript;
#N canvas 75 75 391 269 \$0-setscript-eventoutlet 0;
#X obj 49 119 outlet;
#X obj 52 62 \$0;
#X obj 53 38 t b b;
#N canvas 150 150 450 300 \$0-printtocon 0;
#X obj 47 39 inlet;
#X obj 117 70 tgl 15 0 empty empty empty 17 7 0 10 #fcfcfc #000000 #000000 0 1;
#X obj 116 48 r \$0-ptoc;
#X obj 64 90 spigot 0;
#X obj 58 142 outlet;
#X connect 0 0 3 0;
#X connect 1 0 3 1;
#X connect 2 0 1 0;
#X connect 3 0 4 0;
#X restore 110 119 pd \$0-printtocon;
#X obj 110 143 list trim;
#X msg 53 84 list \$1 Script path has been set.;
#X obj 53 13 r \$0-newpathevent;
#X obj 110 168 print Event;
#X connect 1 0 5 0;
#X connect 2 0 1 0;
#X connect 3 0 4 0;
#X connect 4 0 7 0;
#X connect 5 0 0 0;
#X connect 5 0 3 0;
#X connect 6 0 2 0;
#X restore 353 51 pd \$0-setscript-eventoutlet;
#X obj 27 109 route set_cp get_cp openscript initscript;
#X obj 272 280 s \$0-initscriptevent;
#X obj 202 328 s \$0-openscriptevent;
#X connect 0 0 19 0;
#X connect 4 0 15 0;
#X connect 5 0 4 0;
#X connect 6 0 5 0;
#X connect 6 1 4 1;
#X connect 8 0 16 0;
#X connect 8 1 21 0;
#X connect 9 0 17 0;
#X connect 9 1 20 0;
#X connect 10 0 7 0;
#X connect 11 0 7 0;
#X connect 12 0 7 0;
#X connect 15 0 3 0;
#X connect 18 0 7 0;
#X connect 19 0 2 0;
#X connect 19 2 8 0;
#X connect 19 3 9 0;
#X connect 19 4 6 0;
