#N canvas 607 191 1255 517 12;
#X declare -lib clearessentials;
#X obj 100 100 cnv 15 340 100 empty empty empty 20 12 0 14 #606060
#404040 0;
#X obj 110 105 cnv 15 320 90 empty empty empty 20 12 0 14 #000000 #404040
0;
#N canvas 206 58 769 271 \$0-innercmddisplay 0;
#X obj 100 100 cnv 15 320 90 empty empty Setup 3 12 0 14 #000000 #ffffff
0;
#X obj 337 21 r 1075-opensplash;
#X msg 337 49 open C:/Users/Retro/Documents/Pd/PureSPX/images/setup-splash.gif
;
#X obj 346 110 iem_image C:/Users/Retro/Documents/Pd/PureSPX/images/setup-splash.gif
0 0 empty empty;
#X msg 250 58 pos 346 110;
#X connect 1 0 2 0;
#X connect 1 0 4 0;
#X connect 2 0 3 0;
#X connect 4 0 3 0;
#X coords 0 -1 1 1 320 90 2 100 100;
#X restore 110 105 pd \$0-innercmddisplay;
#X obj 482 100 inlet;
#X listbox 481 349 20 0 0 0 - - - 0;
#X obj 538 153 bng 15 250 50 0 empty empty empty 17 7 0 10 #fcfcfc
#000000 #000000;
#N canvas 681 128 636 395 \$0-displayrouter 0;
#X msg 83 78 bang;
#X obj 83 102 symbol;
#X obj 86 20 inlet;
#N canvas 186 262 756 641 \$0-SetupCommands 0;
#X obj 23 241 bng 15 250 50 0 empty empty empty 17 7 0 10 #fcfcfc #000000
#000000;
#X obj 106 240 bng 15 250 50 0 empty empty empty 17 7 0 10 #fcfcfc
#000000 #000000;
#X obj 64 241 bng 15 250 50 0 empty empty empty 17 7 0 10 #fcfcfc #000000
#000000;
#X obj 152 239 bng 15 250 50 0 empty empty empty 17 7 0 10 #fcfcfc
#000000 #000000;
#X text 387 335 << Now we are free to code what actually happens when
a command is issued in these sub-patches.;
#X obj 24 187 route MultiPitch MultiLevel ExitMultiMode DynamicEvents
DeleteMix SelectMix Channel DecaySelect Loop/Truncate DeleteSound Song
MidiParameters Special, f 74;
#N canvas 210 583 820 300 \$0-multipitch-cmd 0;
#X obj 50 60 inlet;
#X obj 66 86 r \$0-displayID;
#X obj 50 110 f;
#X obj 50 138 pack f s;
#X obj 103 113 r \$0-displaytitle;
#X msg 50 162 \; pd-\$1-innercmddisplay obj 100 100 cnv 15 320 90 empty
empty \$2 3 12 0 14 #000000 #ffffff 0 \;, f 102;
#X connect 0 0 2 0;
#X connect 1 0 2 1;
#X connect 2 0 3 0;
#X connect 3 0 5 0;
#X connect 4 0 3 1;
#X restore 23 267 pd \$0-multipitch-cmd;
#X obj 27 6 inlet;
#X obj 57 157 s \$0-displaytitle;
#X obj 27 81 symbol;
#X msg 27 58 bang;
#X obj 27 32 t b s;
#X obj 25 105 t s s;
#X msg 24 131 \$1;
#N canvas 210 583 820 300 \$0-exampletemplate-cmd 0;
#X obj 50 60 inlet;
#X obj 66 86 r \$0-displayID;
#X obj 50 110 f;
#X obj 50 138 pack f s;
#X obj 103 113 r \$0-displaytitle;
#X msg 50 162 \; pd-\$1-innercmddisplay obj 100 100 cnv 15 320 90 empty
empty \$2 3 12 0 14 #000000 #ffffff 0 \;, f 102;
#X connect 0 0 2 0;
#X connect 1 0 2 1;
#X connect 2 0 3 0;
#X connect 3 0 5 0;
#X connect 4 0 3 1;
#X restore 400 93 pd \$0-exampletemplate-cmd;
#N canvas 210 583 820 300 \$0-multilevel-cmd 0;
#X obj 50 60 inlet;
#X obj 66 86 r \$0-displayID;
#X obj 50 110 f;
#X obj 50 138 pack f s;
#X obj 103 113 r \$0-displaytitle;
#X msg 50 162 \; pd-\$1-innercmddisplay obj 100 100 cnv 15 320 90 empty
empty \$2 3 12 0 14 #000000 #ffffff 0 \;, f 102;
#X connect 0 0 2 0;
#X connect 1 0 2 1;
#X connect 2 0 3 0;
#X connect 3 0 5 0;
#X connect 4 0 3 1;
#X restore 62 290 pd \$0-multilevel-cmd;
#N canvas 210 583 820 300 \$0-exitmultimode-cmd 0;
#X obj 50 60 inlet;
#X obj 66 86 r \$0-displayID;
#X obj 50 110 f;
#X obj 50 138 pack f s;
#X obj 103 113 r \$0-displaytitle;
#X msg 50 162 \; pd-\$1-innercmddisplay obj 100 100 cnv 15 320 90 empty
empty \$2 3 12 0 14 #000000 #ffffff 0 \;, f 102;
#X connect 0 0 2 0;
#X connect 1 0 2 1;
#X connect 2 0 3 0;
#X connect 3 0 5 0;
#X connect 4 0 3 1;
#X restore 106 314 pd \$0-exitmultimode-cmd;
#N canvas 210 583 820 300 \$0-dynamicevents-cmd 0;
#X obj 50 60 inlet;
#X obj 66 86 r \$0-displayID;
#X obj 50 110 f;
#X obj 50 138 pack f s;
#X obj 103 113 r \$0-displaytitle;
#X msg 50 162 \; pd-\$1-innercmddisplay obj 100 100 cnv 15 320 90 empty
empty \$2 3 12 0 14 #000000 #ffffff 0 \;, f 102;
#X connect 0 0 2 0;
#X connect 1 0 2 1;
#X connect 2 0 3 0;
#X connect 3 0 5 0;
#X connect 4 0 3 1;
#X restore 152 341 pd \$0-dynamicevents-cmd;
#X obj 182 250 bng 15 250 50 0 empty empty empty 17 7 0 10 #fcfcfc
#000000 #000000;
#X obj 265 249 bng 15 250 50 0 empty empty empty 17 7 0 10 #fcfcfc
#000000 #000000;
#X obj 223 250 bng 15 250 50 0 empty empty empty 17 7 0 10 #fcfcfc
#000000 #000000;
#X obj 311 248 bng 15 250 50 0 empty empty empty 17 7 0 10 #fcfcfc
#000000 #000000;
#X obj 343 254 bng 15 250 50 0 empty empty empty 17 7 0 10 #fcfcfc
#000000 #000000;
#X obj 426 253 bng 15 250 50 0 empty empty empty 17 7 0 10 #fcfcfc
#000000 #000000;
#X obj 384 254 bng 15 250 50 0 empty empty empty 17 7 0 10 #fcfcfc
#000000 #000000;
#X obj 472 252 bng 15 250 50 0 empty empty empty 17 7 0 10 #fcfcfc
#000000 #000000;
#X obj 522 252 bng 15 250 50 0 empty empty empty 17 7 0 10 #fcfcfc
#000000 #000000;
#N canvas 210 583 820 300 \$0-deletemix-cmd 0;
#X obj 50 60 inlet;
#X obj 66 86 r \$0-displayID;
#X obj 50 110 f;
#X obj 50 138 pack f s;
#X obj 103 113 r \$0-displaytitle;
#X msg 50 162 \; pd-\$1-innercmddisplay obj 100 100 cnv 15 320 90 empty
empty \$2 3 12 0 14 #000000 #ffffff 0 \;, f 102;
#X connect 0 0 2 0;
#X connect 1 0 2 1;
#X connect 2 0 3 0;
#X connect 3 0 5 0;
#X connect 4 0 3 1;
#X restore 183 366 pd \$0-deletemix-cmd;
#N canvas 210 583 820 300 \$0-selectmix-cmd 0;
#X obj 50 60 inlet;
#X obj 66 86 r \$0-displayID;
#X obj 50 110 f;
#X obj 50 138 pack f s;
#X obj 103 113 r \$0-displaytitle;
#X msg 50 162 \; pd-\$1-innercmddisplay obj 100 100 cnv 15 320 90 empty
empty \$2 3 12 0 14 #000000 #ffffff 0 \;, f 102;
#X connect 0 0 2 0;
#X connect 1 0 2 1;
#X connect 2 0 3 0;
#X connect 3 0 5 0;
#X connect 4 0 3 1;
#X restore 222 389 pd \$0-selectmix-cmd;
#N canvas 210 583 820 300 \$0-channel-cmd 0;
#X obj 50 60 inlet;
#X obj 66 86 r \$0-displayID;
#X obj 50 110 f;
#X obj 50 138 pack f s;
#X obj 103 113 r \$0-displaytitle;
#X msg 50 162 \; pd-\$1-innercmddisplay obj 100 100 cnv 15 320 90 empty
empty \$2 3 12 0 14 #000000 #ffffff 0 \;, f 102;
#X connect 0 0 2 0;
#X connect 1 0 2 1;
#X connect 2 0 3 0;
#X connect 3 0 5 0;
#X connect 4 0 3 1;
#X restore 266 413 pd \$0-channel-cmd;
#N canvas 210 583 820 300 \$0-decayselect-cmd 0;
#X obj 50 60 inlet;
#X obj 66 86 r \$0-displayID;
#X obj 50 110 f;
#X obj 50 138 pack f s;
#X obj 103 113 r \$0-displaytitle;
#X msg 50 162 \; pd-\$1-innercmddisplay obj 100 100 cnv 15 320 90 empty
empty \$2 3 12 0 14 #000000 #ffffff 0 \;, f 102;
#X connect 0 0 2 0;
#X connect 1 0 2 1;
#X connect 2 0 3 0;
#X connect 3 0 5 0;
#X connect 4 0 3 1;
#X restore 492 565 pd \$0-decayselect-cmd;
#N canvas 210 583 820 300 \$0-truncate-cmd 0;
#X obj 50 60 inlet;
#X obj 66 86 r \$0-displayID;
#X obj 50 110 f;
#X obj 50 138 pack f s;
#X obj 103 113 r \$0-displaytitle;
#X msg 50 162 \; pd-\$1-innercmddisplay obj 100 100 cnv 15 320 90 empty
empty \$2 3 12 0 14 #000000 #ffffff 0 \;, f 102;
#X connect 0 0 2 0;
#X connect 1 0 2 1;
#X connect 2 0 3 0;
#X connect 3 0 5 0;
#X connect 4 0 3 1;
#X restore 312 440 pd \$0-truncate-cmd;
#N canvas 210 583 820 300 \$0-deletesound-cmd 0;
#X obj 50 60 inlet;
#X obj 66 86 r \$0-displayID;
#X obj 50 110 f;
#X obj 50 138 pack f s;
#X obj 103 113 r \$0-displaytitle;
#X msg 50 162 \; pd-\$1-innercmddisplay obj 100 100 cnv 15 320 90 empty
empty \$2 3 12 0 14 #000000 #ffffff 0 \;, f 102;
#X connect 0 0 2 0;
#X connect 1 0 2 1;
#X connect 2 0 3 0;
#X connect 3 0 5 0;
#X connect 4 0 3 1;
#X restore 332 466 pd \$0-deletesound-cmd;
#N canvas 210 583 820 300 \$0-song-cmd 0;
#X obj 50 60 inlet;
#X obj 66 86 r \$0-displayID;
#X obj 50 110 f;
#X obj 50 138 pack f s;
#X obj 103 113 r \$0-displaytitle;
#X msg 50 162 \; pd-\$1-innercmddisplay obj 100 100 cnv 15 320 90 empty
empty \$2 3 12 0 14 #000000 #ffffff 0 \;, f 102;
#X connect 0 0 2 0;
#X connect 1 0 2 1;
#X connect 2 0 3 0;
#X connect 3 0 5 0;
#X connect 4 0 3 1;
#X restore 363 491 pd \$0-song-cmd;
#N canvas 210 583 820 300 \$0-midiparameters-cmd 0;
#X obj 50 60 inlet;
#X obj 66 86 r \$0-displayID;
#X obj 50 110 f;
#X obj 50 138 pack f s;
#X obj 103 113 r \$0-displaytitle;
#X msg 50 162 \; pd-\$1-innercmddisplay obj 100 100 cnv 15 320 90 empty
empty \$2 3 12 0 14 #000000 #ffffff 0 \;, f 102;
#X connect 0 0 2 0;
#X connect 1 0 2 1;
#X connect 2 0 3 0;
#X connect 3 0 5 0;
#X connect 4 0 3 1;
#X restore 402 514 pd \$0-midiparameters-cmd;
#N canvas 210 583 820 300 \$0-special-cmd 0;
#X obj 50 60 inlet;
#X obj 66 86 r \$0-displayID;
#X obj 50 110 f;
#X obj 50 138 pack f s;
#X obj 103 113 r \$0-displaytitle;
#X msg 50 162 \; pd-\$1-innercmddisplay obj 100 100 cnv 15 320 90 empty
empty \$2 3 12 0 14 #000000 #ffffff 0 \;, f 102;
#X connect 0 0 2 0;
#X connect 1 0 2 1;
#X connect 2 0 3 0;
#X connect 3 0 5 0;
#X connect 4 0 3 1;
#X restore 446 538 pd \$0-special-cmd;
#X connect 0 0 6 0;
#X connect 1 0 16 0;
#X connect 2 0 15 0;
#X connect 3 0 17 0;
#X connect 5 0 0 0;
#X connect 5 1 2 0;
#X connect 5 2 1 0;
#X connect 5 3 3 0;
#X connect 5 4 18 0;
#X connect 5 5 20 0;
#X connect 5 6 19 0;
#X connect 5 7 21 0;
#X connect 5 8 22 0;
#X connect 5 9 24 0;
#X connect 5 10 23 0;
#X connect 5 11 25 0;
#X connect 5 12 26 0;
#X connect 7 0 11 0;
#X connect 9 0 12 0;
#X connect 10 0 9 0;
#X connect 11 0 10 0;
#X connect 11 1 9 1;
#X connect 12 0 13 0;
#X connect 12 1 8 0;
#X connect 13 0 5 0;
#X connect 18 0 27 0;
#X connect 19 0 29 0;
#X connect 20 0 28 0;
#X connect 21 0 31 0;
#X connect 22 0 32 0;
#X connect 23 0 34 0;
#X connect 24 0 33 0;
#X connect 25 0 35 0;
#X connect 26 0 30 0;
#X restore 124 154 pd \$0-SetupCommands;
#N canvas 266 196 718 300 \$0-DiskCommands 0;
#X obj 35 17 inlet;
#X obj 68 169 s \$0-displaytitle;
#X obj 38 93 symbol;
#X msg 38 70 bang;
#X obj 38 44 t b s;
#X obj 36 117 t s s;
#X msg 35 143 \$1;
#X obj 31 253 bng 15 250 50 0 empty empty empty 17 7 0 10 #fcfcfc #000000
#000000;
#X obj 114 252 bng 15 250 50 0 empty empty empty 17 7 0 10 #fcfcfc
#000000 #000000;
#X obj 72 253 bng 15 250 50 0 empty empty empty 17 7 0 10 #fcfcfc #000000
#000000;
#X obj 160 251 bng 15 250 50 0 empty empty empty 17 7 0 10 #fcfcfc
#000000 #000000;
#X text 395 347 << Now we are free to code what actually happens when
a command is issued in these sub-patches.;
#X obj 190 262 bng 15 250 50 0 empty empty empty 17 7 0 10 #fcfcfc
#000000 #000000;
#X obj 273 261 bng 15 250 50 0 empty empty empty 17 7 0 10 #fcfcfc
#000000 #000000;
#X obj 231 262 bng 15 250 50 0 empty empty empty 17 7 0 10 #fcfcfc
#000000 #000000;
#X obj 319 260 bng 15 250 50 0 empty empty empty 17 7 0 10 #fcfcfc
#000000 #000000;
#X obj 32 199 route SaveSequence SaveSounds LoopSeqs LoopSegment.No
LoadSounds LoadSound.No CatalogSeqs CatalogSounds Copy LoadSeqsAndSounds
, f 74;
#N canvas 210 583 820 300 \$0-savesequence-cmd 0;
#X obj 50 60 inlet;
#X obj 66 86 r \$0-displayID;
#X obj 50 110 f;
#X obj 50 138 pack f s;
#X obj 103 113 r \$0-displaytitle;
#X msg 50 162 \; pd-\$1-innercmddisplay obj 100 100 cnv 15 320 90 empty
empty \$2 3 12 0 14 #000000 #ffffff 0 \;, f 102;
#X connect 0 0 2 0;
#X connect 1 0 2 1;
#X connect 2 0 3 0;
#X connect 3 0 5 0;
#X connect 4 0 3 1;
#X restore 31 279 pd \$0-savesequence-cmd;
#N canvas 210 583 820 300 \$0-savesounds-cmd 0;
#X obj 50 60 inlet;
#X obj 66 86 r \$0-displayID;
#X obj 50 110 f;
#X obj 50 138 pack f s;
#X obj 103 113 r \$0-displaytitle;
#X msg 50 162 \; pd-\$1-innercmddisplay obj 100 100 cnv 15 320 90 empty
empty \$2 3 12 0 14 #000000 #ffffff 0 \;, f 102;
#X connect 0 0 2 0;
#X connect 1 0 2 1;
#X connect 2 0 3 0;
#X connect 3 0 5 0;
#X connect 4 0 3 1;
#X restore 69 301 pd \$0-savesounds-cmd;
#N canvas 210 583 820 300 \$0-loopseqs-cmd 0;
#X obj 50 60 inlet;
#X obj 66 86 r \$0-displayID;
#X obj 50 110 f;
#X obj 50 138 pack f s;
#X obj 103 113 r \$0-displaytitle;
#X msg 50 162 \; pd-\$1-innercmddisplay obj 100 100 cnv 15 320 90 empty
empty \$2 3 12 0 14 #000000 #ffffff 0 \;, f 102;
#X connect 0 0 2 0;
#X connect 1 0 2 1;
#X connect 2 0 3 0;
#X connect 3 0 5 0;
#X connect 4 0 3 1;
#X restore 113 326 pd \$0-loopseqs-cmd;
#N canvas 210 583 820 300 \$0-loopsegment-cmd 0;
#X obj 50 60 inlet;
#X obj 66 86 r \$0-displayID;
#X obj 50 110 f;
#X obj 50 138 pack f s;
#X obj 103 113 r \$0-displaytitle;
#X msg 50 162 \; pd-\$1-innercmddisplay obj 100 100 cnv 15 320 90 empty
empty \$2 3 12 0 14 #000000 #ffffff 0 \;, f 102;
#X connect 0 0 2 0;
#X connect 1 0 2 1;
#X connect 2 0 3 0;
#X connect 3 0 5 0;
#X connect 4 0 3 1;
#X restore 160 353 pd \$0-loopsegment-cmd;
#N canvas 210 583 820 300 \$0-loadsounds-cmd 0;
#X obj 50 60 inlet;
#X obj 66 86 r \$0-displayID;
#X obj 50 110 f;
#X obj 50 138 pack f s;
#X obj 103 113 r \$0-displaytitle;
#X msg 50 162 \; pd-\$1-innercmddisplay obj 100 100 cnv 15 320 90 empty
empty \$2 3 12 0 14 #000000 #ffffff 0 \;, f 102;
#X connect 0 0 2 0;
#X connect 1 0 2 1;
#X connect 2 0 3 0;
#X connect 3 0 5 0;
#X connect 4 0 3 1;
#X restore 192 378 pd \$0-loadsounds-cmd;
#N canvas 210 583 820 300 \$0-loadsoundno-cmd 0;
#X obj 50 60 inlet;
#X obj 66 86 r \$0-displayID;
#X obj 50 110 f;
#X obj 50 138 pack f s;
#X obj 103 113 r \$0-displaytitle;
#X msg 50 162 \; pd-\$1-innercmddisplay obj 100 100 cnv 15 320 90 empty
empty \$2 3 12 0 14 #000000 #ffffff 0 \;, f 102;
#X connect 0 0 2 0;
#X connect 1 0 2 1;
#X connect 2 0 3 0;
#X connect 3 0 5 0;
#X connect 4 0 3 1;
#X restore 230 401 pd \$0-loadsoundno-cmd;
#N canvas 210 583 820 300 \$0-catalogseqs-cmd 0;
#X obj 50 60 inlet;
#X obj 66 86 r \$0-displayID;
#X obj 50 110 f;
#X obj 50 138 pack f s;
#X obj 103 113 r \$0-displaytitle;
#X msg 50 162 \; pd-\$1-innercmddisplay obj 100 100 cnv 15 320 90 empty
empty \$2 3 12 0 14 #000000 #ffffff 0 \;, f 102;
#X connect 0 0 2 0;
#X connect 1 0 2 1;
#X connect 2 0 3 0;
#X connect 3 0 5 0;
#X connect 4 0 3 1;
#X restore 273 424 pd \$0-catalogseqs-cmd;
#N canvas 210 583 820 300 \$0-catalogsounds-cmd 0;
#X obj 50 60 inlet;
#X obj 66 86 r \$0-displayID;
#X obj 50 110 f;
#X obj 50 138 pack f s;
#X obj 103 113 r \$0-displaytitle;
#X msg 50 162 \; pd-\$1-innercmddisplay obj 100 100 cnv 15 320 90 empty
empty \$2 3 12 0 14 #000000 #ffffff 0 \;, f 102;
#X connect 0 0 2 0;
#X connect 1 0 2 1;
#X connect 2 0 3 0;
#X connect 3 0 5 0;
#X connect 4 0 3 1;
#X restore 320 452 pd \$0-catalogsounds-cmd;
#N canvas 210 583 820 300 \$0-copy-cmd 0;
#X obj 50 60 inlet;
#X obj 66 86 r \$0-displayID;
#X obj 50 110 f;
#X obj 50 138 pack f s;
#X obj 103 113 r \$0-displaytitle;
#X msg 50 162 \; pd-\$1-innercmddisplay obj 100 100 cnv 15 320 90 empty
empty \$2 3 12 0 14 #000000 #ffffff 0 \;, f 102;
#X connect 0 0 2 0;
#X connect 1 0 2 1;
#X connect 2 0 3 0;
#X connect 3 0 5 0;
#X connect 4 0 3 1;
#X restore 344 480 pd \$0-copy-cmd;
#N canvas 210 583 820 300 \$0-loadseqssounds-cmd 0;
#X obj 50 60 inlet;
#X obj 66 86 r \$0-displayID;
#X obj 50 110 f;
#X obj 50 138 pack f s;
#X obj 103 113 r \$0-displaytitle;
#X msg 50 162 \; pd-\$1-innercmddisplay obj 100 100 cnv 15 320 90 empty
empty \$2 3 12 0 14 #000000 #ffffff 0 \;, f 102;
#X connect 0 0 2 0;
#X connect 1 0 2 1;
#X connect 2 0 3 0;
#X connect 3 0 5 0;
#X connect 4 0 3 1;
#X restore 390 507 pd \$0-loadseqssounds-cmd;
#X obj 424 271 bng 15 250 50 0 empty empty empty 17 7 0 10 #fcfcfc
#000000 #000000;
#X obj 470 270 bng 15 250 50 0 empty empty empty 17 7 0 10 #fcfcfc
#000000 #000000;
#X connect 0 0 4 0;
#X connect 2 0 5 0;
#X connect 3 0 2 0;
#X connect 4 0 3 0;
#X connect 4 1 2 1;
#X connect 5 0 6 0;
#X connect 5 1 1 0;
#X connect 6 0 16 0;
#X connect 7 0 17 0;
#X connect 8 0 19 0;
#X connect 9 0 18 0;
#X connect 10 0 20 0;
#X connect 12 0 21 0;
#X connect 13 0 23 0;
#X connect 14 0 22 0;
#X connect 15 0 24 0;
#X connect 16 0 7 0;
#X connect 16 1 9 0;
#X connect 16 2 8 0;
#X connect 16 3 10 0;
#X connect 16 4 12 0;
#X connect 16 5 14 0;
#X connect 16 6 13 0;
#X connect 16 7 15 0;
#X connect 16 8 27 0;
#X connect 16 9 28 0;
#X connect 27 0 25 0;
#X connect 28 0 26 0;
#X restore 104 203 pd \$0-DiskCommands;
#X text 257 202 Each set of actions are routed in its menu sub-ptatch
;
#N canvas 52 52 572 300 \$0-SyncCommands 0;
#X obj 35 47 inlet;
#X obj 66 207 s \$0-displaytitle;
#X obj 36 131 symbol;
#X msg 36 108 bang;
#X obj 36 82 t b s;
#X obj 34 155 t s s;
#X msg 33 181 \$1;
#X obj 35 295 bng 15 250 50 0 empty empty empty 17 7 0 10 #fcfcfc #000000
#000000;
#X obj 118 294 bng 15 250 50 0 empty empty empty 17 7 0 10 #fcfcfc
#000000 #000000;
#X obj 76 295 bng 15 250 50 0 empty empty empty 17 7 0 10 #fcfcfc #000000
#000000;
#X obj 164 293 bng 15 250 50 0 empty empty empty 17 7 0 10 #fcfcfc
#000000 #000000;
#N canvas 210 583 820 300 \$0-mode-cmd 0;
#X obj 50 60 inlet;
#X obj 66 86 r \$0-displayID;
#X obj 50 110 f;
#X obj 50 138 pack f s;
#X obj 103 113 r \$0-displaytitle;
#X msg 50 162 \; pd-\$1-innercmddisplay obj 100 100 cnv 15 320 90 empty
empty \$2 3 12 0 14 #000000 #ffffff 0 \;, f 102;
#X connect 0 0 2 0;
#X connect 1 0 2 1;
#X connect 2 0 3 0;
#X connect 3 0 5 0;
#X connect 4 0 3 1;
#X restore 35 321 pd \$0-mode-cmd;
#N canvas 210 583 820 300 \$0-assignvoice-cmd 0;
#X obj 50 60 inlet;
#X obj 66 86 r \$0-displayID;
#X obj 50 110 f;
#X obj 50 138 pack f s;
#X obj 103 113 r \$0-displaytitle;
#X msg 50 162 \; pd-\$1-innercmddisplay obj 100 100 cnv 15 320 90 empty
empty \$2 3 12 0 14 #000000 #ffffff 0 \;, f 102;
#X connect 0 0 2 0;
#X connect 1 0 2 1;
#X connect 2 0 3 0;
#X connect 3 0 5 0;
#X connect 4 0 3 1;
#X restore 73 343 pd \$0-assignvoice-cmd;
#N canvas 210 583 820 300 \$0-inputgain-cmd 0;
#X obj 50 60 inlet;
#X obj 66 86 r \$0-displayID;
#X obj 50 110 f;
#X obj 50 138 pack f s;
#X obj 103 113 r \$0-displaytitle;
#X msg 50 162 \; pd-\$1-innercmddisplay obj 100 100 cnv 15 320 90 empty
empty \$2 3 12 0 14 #000000 #ffffff 0 \;, f 102;
#X connect 0 0 2 0;
#X connect 1 0 2 1;
#X connect 2 0 3 0;
#X connect 3 0 5 0;
#X connect 4 0 3 1;
#X restore 117 368 pd \$0-inputgain-cmd;
#N canvas 210 583 820 300 \$0-thresholdset-cmd 0;
#X obj 50 60 inlet;
#X obj 66 86 r \$0-displayID;
#X obj 50 110 f;
#X obj 50 138 pack f s;
#X obj 103 113 r \$0-displaytitle;
#X msg 50 162 \; pd-\$1-innercmddisplay obj 100 100 cnv 15 320 90 empty
empty \$2 3 12 0 14 #000000 #ffffff 0 \;, f 102;
#X connect 0 0 2 0;
#X connect 1 0 2 1;
#X connect 2 0 3 0;
#X connect 3 0 5 0;
#X connect 4 0 3 1;
#X restore 164 395 pd \$0-thresholdset-cmd;
#X obj 36 241 route Internal Midi SMPTE Clock, f 74;
#X connect 0 0 4 0;
#X connect 2 0 5 0;
#X connect 3 0 2 0;
#X connect 4 0 3 0;
#X connect 4 1 2 1;
#X connect 5 0 6 0;
#X connect 5 1 1 0;
#X connect 6 0 15 0;
#X connect 7 0 11 0;
#X connect 8 0 13 0;
#X connect 9 0 12 0;
#X connect 10 0 14 0;
#X connect 15 0 7 0;
#X connect 15 1 9 0;
#X connect 15 2 8 0;
#X connect 15 3 10 0;
#X restore 83 251 pd \$0-SyncCommands;
#N canvas 52 52 572 496 \$0-SampleCommands 0;
#X obj 35 47 inlet;
#X obj 67 202 s \$0-displaytitle;
#X obj 37 126 symbol;
#X msg 37 103 bang;
#X obj 37 77 t b s;
#X obj 35 150 t s s;
#X msg 34 176 \$1;
#X obj 29 288 bng 15 250 50 0 empty empty empty 17 7 0 10 #fcfcfc #000000
#000000;
#X obj 112 287 bng 15 250 50 0 empty empty empty 17 7 0 10 #fcfcfc
#000000 #000000;
#X obj 70 288 bng 15 250 50 0 empty empty empty 17 7 0 10 #fcfcfc #000000
#000000;
#X obj 158 286 bng 15 250 50 0 empty empty empty 17 7 0 10 #fcfcfc
#000000 #000000;
#X text 393 382 << Now we are free to code what actually happens when
a command is issued in these sub-patches.;
#X obj 188 297 bng 15 250 50 0 empty empty empty 17 7 0 10 #fcfcfc
#000000 #000000;
#X obj 271 296 bng 15 250 50 0 empty empty empty 17 7 0 10 #fcfcfc
#000000 #000000;
#X obj 229 297 bng 15 250 50 0 empty empty empty 17 7 0 10 #fcfcfc
#000000 #000000;
#X obj 317 295 bng 15 250 50 0 empty empty empty 17 7 0 10 #fcfcfc
#000000 #000000;
#X obj 30 234 route Mode AssignVoice InputGain ThresholdSet SampleLength
Re-Sample ArmSampling ForceSampling, f 74;
#N canvas 210 583 820 300 \$0-mode-cmd 0;
#X obj 50 60 inlet;
#X obj 66 86 r \$0-displayID;
#X obj 50 110 f;
#X obj 50 138 pack f s;
#X obj 103 113 r \$0-displaytitle;
#X msg 50 162 \; pd-\$1-innercmddisplay obj 100 100 cnv 15 320 90 empty
empty \$2 3 12 0 14 #000000 #ffffff 0 \;, f 102;
#X connect 0 0 2 0;
#X connect 1 0 2 1;
#X connect 2 0 3 0;
#X connect 3 0 5 0;
#X connect 4 0 3 1;
#X restore 29 314 pd \$0-mode-cmd;
#N canvas 210 583 820 300 \$0-assignvoice-cmd 0;
#X obj 50 60 inlet;
#X obj 66 86 r \$0-displayID;
#X obj 50 110 f;
#X obj 50 138 pack f s;
#X obj 103 113 r \$0-displaytitle;
#X msg 50 162 \; pd-\$1-innercmddisplay obj 100 100 cnv 15 320 90 empty
empty \$2 3 12 0 14 #000000 #ffffff 0 \;, f 102;
#X connect 0 0 2 0;
#X connect 1 0 2 1;
#X connect 2 0 3 0;
#X connect 3 0 5 0;
#X connect 4 0 3 1;
#X restore 67 336 pd \$0-assignvoice-cmd;
#N canvas 210 583 820 300 \$0-inputgain-cmd 0;
#X obj 50 60 inlet;
#X obj 66 86 r \$0-displayID;
#X obj 50 110 f;
#X obj 50 138 pack f s;
#X obj 103 113 r \$0-displaytitle;
#X msg 50 162 \; pd-\$1-innercmddisplay obj 100 100 cnv 15 320 90 empty
empty \$2 3 12 0 14 #000000 #ffffff 0 \;, f 102;
#X connect 0 0 2 0;
#X connect 1 0 2 1;
#X connect 2 0 3 0;
#X connect 3 0 5 0;
#X connect 4 0 3 1;
#X restore 111 361 pd \$0-inputgain-cmd;
#N canvas 210 583 820 300 \$0-thresholdset-cmd 0;
#X obj 50 60 inlet;
#X obj 66 86 r \$0-displayID;
#X obj 50 110 f;
#X obj 50 138 pack f s;
#X obj 103 113 r \$0-displaytitle;
#X msg 50 162 \; pd-\$1-innercmddisplay obj 100 100 cnv 15 320 90 empty
empty \$2 3 12 0 14 #000000 #ffffff 0 \;, f 102;
#X connect 0 0 2 0;
#X connect 1 0 2 1;
#X connect 2 0 3 0;
#X connect 3 0 5 0;
#X connect 4 0 3 1;
#X restore 158 388 pd \$0-thresholdset-cmd;
#N canvas 210 583 820 300 \$0-samplelength-cmd 0;
#X obj 50 60 inlet;
#X obj 66 86 r \$0-displayID;
#X obj 50 110 f;
#X obj 50 138 pack f s;
#X obj 103 113 r \$0-displaytitle;
#X msg 50 162 \; pd-\$1-innercmddisplay obj 100 100 cnv 15 320 90 empty
empty \$2 3 12 0 14 #000000 #ffffff 0 \;, f 102;
#X connect 0 0 2 0;
#X connect 1 0 2 1;
#X connect 2 0 3 0;
#X connect 3 0 5 0;
#X connect 4 0 3 1;
#X restore 191 413 pd \$0-samplelength-cmd;
#N canvas 210 583 820 300 \$0-resample-cmd 0;
#X obj 50 60 inlet;
#X obj 66 86 r \$0-displayID;
#X obj 50 110 f;
#X obj 50 138 pack f s;
#X obj 103 113 r \$0-displaytitle;
#X msg 50 162 \; pd-\$1-innercmddisplay obj 100 100 cnv 15 320 90 empty
empty \$2 3 12 0 14 #000000 #ffffff 0 \;, f 102;
#X connect 0 0 2 0;
#X connect 1 0 2 1;
#X connect 2 0 3 0;
#X connect 3 0 5 0;
#X connect 4 0 3 1;
#X restore 228 436 pd \$0-resample-cmd;
#N canvas 210 583 820 300 \$0-armsampling-cmd 0;
#X obj 50 60 inlet;
#X obj 66 86 r \$0-displayID;
#X obj 50 110 f;
#X obj 50 138 pack f s;
#X obj 103 113 r \$0-displaytitle;
#X msg 50 162 \; pd-\$1-innercmddisplay obj 100 100 cnv 15 320 90 empty
empty \$2 3 12 0 14 #000000 #ffffff 0 \;, f 102;
#X connect 0 0 2 0;
#X connect 1 0 2 1;
#X connect 2 0 3 0;
#X connect 3 0 5 0;
#X connect 4 0 3 1;
#X restore 272 460 pd \$0-armsampling-cmd;
#N canvas 210 583 820 300 \$0-forcesampling-cmd 0;
#X obj 50 60 inlet;
#X obj 66 86 r \$0-displayID;
#X obj 50 110 f;
#X obj 50 138 pack f s;
#X obj 103 113 r \$0-displaytitle;
#X msg 50 162 \; pd-\$1-innercmddisplay obj 100 100 cnv 15 320 90 empty
empty \$2 3 12 0 14 #000000 #ffffff 0 \;, f 102;
#X connect 0 0 2 0;
#X connect 1 0 2 1;
#X connect 2 0 3 0;
#X connect 3 0 5 0;
#X connect 4 0 3 1;
#X restore 318 487 pd \$0-forcesampling-cmd;
#X connect 0 0 4 0;
#X connect 2 0 5 0;
#X connect 3 0 2 0;
#X connect 4 0 3 0;
#X connect 4 1 2 1;
#X connect 5 0 6 0;
#X connect 5 1 1 0;
#X connect 6 0 16 0;
#X connect 7 0 17 0;
#X connect 8 0 19 0;
#X connect 9 0 18 0;
#X connect 10 0 20 0;
#X connect 12 0 21 0;
#X connect 13 0 23 0;
#X connect 14 0 22 0;
#X connect 15 0 24 0;
#X connect 16 0 7 0;
#X connect 16 1 9 0;
#X connect 16 2 8 0;
#X connect 16 3 10 0;
#X connect 16 4 12 0;
#X connect 16 5 14 0;
#X connect 16 6 13 0;
#X connect 16 7 15 0;
#X restore 68 300 pd \$0-SampleCommands;
#X text 256 230 Each action has a posibility to have a different gui
interface. Changes can be made in these sub-patches.;
#X obj 84 48 t b s;
#N canvas 734 262 498 418 \$0-SetupDisplay 0;
#X obj 23 241 bng 15 250 50 0 empty empty empty 17 7 0 10 #fcfcfc #000000
#000000;
#X obj 27 6 inlet;
#X obj 57 157 s \$0-displaytitle;
#X obj 27 81 symbol;
#X msg 27 58 bang;
#X obj 27 32 t b s;
#X obj 25 105 t s s;
#X msg 24 131 \$1;
#X obj 24 187 route Setup, f 12;
#N canvas 226 35 922 960 \$0-setup-display 0;
#X obj 46 36 inlet;
#X obj 85 453 r \$0-displayID;
#X obj 67 482 f;
#X obj 115 481 r \$0-displaytitle;
#X msg 172 568 \; pd-\$1-innercmddisplay obj 100 100 cnv 15 320 90
empty empty \$2 3 12 0 14 #000000 #ffffff 0 \;, f 102;
#X obj 84 374 pack s s;
#X obj 84 425 s \$0-splashloc;
#X msg 84 400 symbol \$2\$1;
#X obj 47 62 t b b b b;
#X obj 198 456 r \$0-splashloc;
#X obj 67 510 pack f s s;
#X msg 168 722 \; pd-\$1-innercmddisplay obj 346 110 iem_image \$3
;
#X msg 167 761 \; pd-\$1-innercmddisplay connect 2 0 3 0;
#X msg 170 683 \; pd-\$1-innercmddisplay connect 1 0 2 0;
#X obj 67 537 t a a a a a a a;
#X obj 84 148 del;
#X obj 121 155 r \$0-displaytitle;
#X obj 84 225 pack f s;
#X msg 84 182 0;
#X msg 84 249 symbol /images/\$2-splash.gif;
#X obj 121 179 ce_tolowercase;
#X obj 63 117 del 10;
#X obj 57 804 s \$0-opensplash;
#X msg 99 834 \; pd-\$1-innercmddisplay msg 250 58 pos 346 110;
#X msg 83 872 \; pd-\$1-innercmddisplay connect 1 0 4 0 \;;
#X obj 69 760 t a a a a;
#X msg 71 913 \; pd-\$1-innercmddisplay connect 4 0 3 0;
#X msg 173 646 \; pd-\$1-innercmddisplay msg 337 49 open \$3;
#X msg 173 608 \; pd-\$1-innercmddisplay obj 337 21 r \$1-opensplash
;
#X listbox 179 323 37 0 0 0 - - - 0;
#X obj 137 350 symbol;
#X msg 135 327 bang;
#X obj 231 292 r \$0-patchloc;
#X connect 0 0 8 0;
#X connect 1 0 2 1;
#X connect 2 0 10 0;
#X connect 3 0 10 1;
#X connect 5 0 7 0;
#X connect 7 0 6 0;
#X connect 8 1 21 0;
#X connect 8 2 15 0;
#X connect 8 3 31 0;
#X connect 9 0 10 2;
#X connect 10 0 14 0;
#X connect 14 0 25 0;
#X connect 14 1 12 0;
#X connect 14 2 11 0;
#X connect 14 3 13 0;
#X connect 14 4 27 0;
#X connect 14 5 28 0;
#X connect 14 6 4 0;
#X connect 15 0 18 0;
#X connect 16 0 20 0;
#X connect 17 0 19 0;
#X connect 18 0 17 0;
#X connect 19 0 5 0;
#X connect 20 1 17 1;
#X connect 21 0 2 0;
#X connect 25 0 22 0;
#X connect 25 1 26 0;
#X connect 25 2 24 0;
#X connect 25 3 23 0;
#X connect 29 0 30 1;
#X connect 30 0 5 1;
#X connect 31 0 30 0;
#X connect 32 0 29 0;
#X restore 23 267 pd \$0-setup-display;
#X obj 50 219;
#X connect 0 0 9 0;
#X connect 1 0 5 0;
#X connect 3 0 6 0;
#X connect 4 0 3 0;
#X connect 5 0 4 0;
#X connect 5 1 3 1;
#X connect 6 0 7 0;
#X connect 6 1 2 0;
#X connect 7 0 8 0;
#X connect 8 0 0 0;
#X restore 127 130 pd \$0-SetupDisplay;
#N canvas 186 262 756 641 \$0-SyncDisplay 0;
#X obj 23 241 bng 15 250 50 0 empty empty empty 17 7 0 10 #fcfcfc #000000
#000000;
#X obj 27 6 inlet;
#X obj 57 157 s \$0-displaytitle;
#X obj 27 81 symbol;
#X msg 27 58 bang;
#X obj 27 32 t b s;
#X obj 25 105 t s s;
#X msg 24 131 \$1;
#X obj 24 187 route Sync, f 12;
#N canvas 381 52 922 918 \$0-sync-display 0;
#X obj 46 36 inlet;
#X obj 85 443 r \$0-displayID;
#X obj 67 472 f;
#X obj 115 471 r \$0-displaytitle;
#X msg 172 558 \; pd-\$1-innercmddisplay obj 100 100 cnv 15 320 90
empty empty \$2 3 12 0 14 #000000 #ffffff 0 \;, f 102;
#X obj 82 354 pack s s;
#X obj 82 405 s \$0-splashloc;
#X msg 82 380 symbol \$2\$1;
#X obj 47 62 t b b b b;
#X obj 198 446 r \$0-splashloc;
#X obj 67 500 pack f s s;
#X msg 168 712 \; pd-\$1-innercmddisplay obj 346 110 iem_image \$3
;
#X msg 167 751 \; pd-\$1-innercmddisplay connect 2 0 3 0;
#X msg 170 673 \; pd-\$1-innercmddisplay connect 1 0 2 0;
#X obj 67 527 t a a a a a a a;
#X obj 84 148 del;
#X obj 121 155 r \$0-displaytitle;
#X obj 84 225 pack f s;
#X msg 84 182 0;
#X msg 84 249 symbol /images/\$2-splash.gif;
#X obj 121 179 ce_tolowercase;
#X obj 63 117 del 10;
#X obj 57 794 s \$0-opensplash;
#X msg 99 824 \; pd-\$1-innercmddisplay msg 250 58 pos 346 110;
#X msg 83 862 \; pd-\$1-innercmddisplay connect 1 0 4 0 \;;
#X obj 69 750 t a a a a;
#X msg 71 903 \; pd-\$1-innercmddisplay connect 4 0 3 0;
#X msg 173 636 \; pd-\$1-innercmddisplay msg 337 49 open \$3;
#X msg 173 598 \; pd-\$1-innercmddisplay obj 337 21 r \$1-opensplash
;
#X listbox 196 304 37 0 0 0 - - - 0;
#X obj 154 331 symbol;
#X msg 152 308 bang;
#X obj 198 277 r \$0-patchloc;
#X connect 0 0 8 0;
#X connect 1 0 2 1;
#X connect 2 0 10 0;
#X connect 3 0 10 1;
#X connect 5 0 7 0;
#X connect 7 0 6 0;
#X connect 8 1 21 0;
#X connect 8 2 15 0;
#X connect 8 3 31 0;
#X connect 9 0 10 2;
#X connect 10 0 14 0;
#X connect 14 0 25 0;
#X connect 14 1 12 0;
#X connect 14 2 11 0;
#X connect 14 3 13 0;
#X connect 14 4 27 0;
#X connect 14 5 28 0;
#X connect 14 6 4 0;
#X connect 15 0 18 0;
#X connect 16 0 20 0;
#X connect 17 0 19 0;
#X connect 18 0 17 0;
#X connect 19 0 5 0;
#X connect 20 1 17 1;
#X connect 21 0 2 0;
#X connect 25 0 22 0;
#X connect 25 1 26 0;
#X connect 25 2 24 0;
#X connect 25 3 23 0;
#X connect 29 0 30 1;
#X connect 30 0 5 1;
#X connect 31 0 30 0;
#X connect 32 0 29 0;
#X restore 23 267 pd \$0-sync-display;
#X connect 0 0 9 0;
#X connect 1 0 5 0;
#X connect 3 0 6 0;
#X connect 4 0 3 0;
#X connect 5 0 4 0;
#X connect 5 1 3 1;
#X connect 6 0 7 0;
#X connect 6 1 2 0;
#X connect 7 0 8 0;
#X connect 8 0 0 0;
#X restore 93 226 pd \$0-SyncDisplay;
#N canvas 186 262 756 641 \$0-SampleDisplay 0;
#X obj 23 241 bng 15 250 50 0 empty empty empty 17 7 0 10 #fcfcfc #000000
#000000;
#X obj 27 6 inlet;
#X obj 57 157 s \$0-displaytitle;
#X obj 27 81 symbol;
#X msg 27 58 bang;
#X obj 27 32 t b s;
#X obj 25 105 t s s;
#X msg 24 131 \$1;
#X obj 24 187 route Sample;
#N canvas 381 52 922 918 \$0-sample-display 0;
#X obj 46 36 inlet;
#X obj 85 493 r \$0-displayID;
#X obj 67 522 f;
#X obj 115 521 r \$0-displaytitle;
#X msg 172 608 \; pd-\$1-innercmddisplay obj 100 100 cnv 15 320 90
empty empty \$2 3 12 0 14 #000000 #ffffff 0 \;, f 102;
#X obj 82 364 pack s s;
#X obj 82 415 s \$0-splashloc;
#X msg 82 390 symbol \$2\$1;
#X obj 47 62 t b b b b;
#X obj 198 496 r \$0-splashloc;
#X obj 67 550 pack f s s;
#X msg 168 762 \; pd-\$1-innercmddisplay obj 346 110 iem_image \$3
;
#X msg 167 801 \; pd-\$1-innercmddisplay connect 2 0 3 0;
#X msg 170 723 \; pd-\$1-innercmddisplay connect 1 0 2 0;
#X obj 67 577 t a a a a a a a;
#X obj 84 148 del;
#X obj 121 155 r \$0-displaytitle;
#X obj 84 225 pack f s;
#X msg 84 182 0;
#X msg 84 249 symbol /images/\$2-splash.gif;
#X obj 121 179 ce_tolowercase;
#X obj 63 117 del 10;
#X obj 57 844 s \$0-opensplash;
#X msg 99 874 \; pd-\$1-innercmddisplay msg 250 58 pos 346 110;
#X msg 83 912 \; pd-\$1-innercmddisplay connect 1 0 4 0 \;;
#X obj 69 800 t a a a a;
#X msg 71 953 \; pd-\$1-innercmddisplay connect 4 0 3 0;
#X msg 173 686 \; pd-\$1-innercmddisplay msg 337 49 open \$3;
#X msg 173 648 \; pd-\$1-innercmddisplay obj 337 21 r \$1-opensplash
;
#X listbox 184 308 37 0 0 0 - - - 0;
#X obj 142 335 symbol;
#X msg 140 312 bang;
#X obj 188 281 r \$0-patchloc;
#X connect 0 0 8 0;
#X connect 1 0 2 1;
#X connect 2 0 10 0;
#X connect 3 0 10 1;
#X connect 5 0 7 0;
#X connect 7 0 6 0;
#X connect 8 1 21 0;
#X connect 8 2 15 0;
#X connect 8 3 31 0;
#X connect 9 0 10 2;
#X connect 10 0 14 0;
#X connect 14 0 25 0;
#X connect 14 1 12 0;
#X connect 14 2 11 0;
#X connect 14 3 13 0;
#X connect 14 4 27 0;
#X connect 14 5 28 0;
#X connect 14 6 4 0;
#X connect 15 0 18 0;
#X connect 16 0 20 0;
#X connect 17 0 19 0;
#X connect 18 0 17 0;
#X connect 19 0 5 0;
#X connect 20 1 17 1;
#X connect 21 0 2 0;
#X connect 25 0 22 0;
#X connect 25 1 26 0;
#X connect 25 2 24 0;
#X connect 25 3 23 0;
#X connect 29 0 30 1;
#X connect 30 0 5 1;
#X connect 31 0 30 0;
#X connect 32 0 29 0;
#X restore 23 267 pd \$0-sample-display;
#X connect 0 0 9 0;
#X connect 1 0 5 0;
#X connect 3 0 6 0;
#X connect 4 0 3 0;
#X connect 5 0 4 0;
#X connect 5 1 3 1;
#X connect 6 0 7 0;
#X connect 6 1 2 0;
#X connect 7 0 8 0;
#X connect 8 0 0 0;
#X restore 72 276 pd \$0-SampleDisplay;
#N canvas 734 262 498 418 \$0-DiskDisplay 0;
#X obj 23 241 bng 15 250 50 0 empty empty empty 17 7 0 10 #fcfcfc #000000
#000000;
#X obj 27 6 inlet;
#X obj 57 157 s \$0-displaytitle;
#X obj 27 81 symbol;
#X msg 27 58 bang;
#X obj 27 32 t b s;
#X obj 25 105 t s s;
#X msg 24 131 \$1;
#X obj 50 219;
#X obj 24 187 route Disk, f 12;
#N canvas 381 52 922 918 \$0-disk-display 0;
#X obj 46 36 inlet;
#X obj 85 453 r \$0-displayID;
#X obj 67 482 f;
#X obj 115 481 r \$0-displaytitle;
#X msg 172 568 \; pd-\$1-innercmddisplay obj 100 100 cnv 15 320 90
empty empty \$2 3 12 0 14 #000000 #ffffff 0 \;, f 102;
#X obj 82 374 pack s s;
#X obj 82 425 s \$0-splashloc;
#X msg 82 400 symbol \$2\$1;
#X obj 47 62 t b b b b;
#X obj 198 456 r \$0-splashloc;
#X obj 67 510 pack f s s;
#X msg 168 722 \; pd-\$1-innercmddisplay obj 346 110 iem_image \$3
;
#X msg 167 761 \; pd-\$1-innercmddisplay connect 2 0 3 0;
#X msg 170 683 \; pd-\$1-innercmddisplay connect 1 0 2 0;
#X obj 67 537 t a a a a a a a;
#X obj 84 148 del;
#X obj 121 155 r \$0-displaytitle;
#X obj 84 225 pack f s;
#X msg 84 182 0;
#X msg 84 249 symbol /images/\$2-splash.gif;
#X obj 121 179 ce_tolowercase;
#X obj 63 117 del 10;
#X obj 57 804 s \$0-opensplash;
#X msg 99 834 \; pd-\$1-innercmddisplay msg 250 58 pos 346 110;
#X msg 83 872 \; pd-\$1-innercmddisplay connect 1 0 4 0 \;;
#X obj 69 760 t a a a a;
#X msg 71 913 \; pd-\$1-innercmddisplay connect 4 0 3 0;
#X msg 173 646 \; pd-\$1-innercmddisplay msg 337 49 open \$3;
#X msg 173 608 \; pd-\$1-innercmddisplay obj 337 21 r \$1-opensplash
;
#X listbox 176 323 37 0 0 0 - - - 0;
#X obj 134 350 symbol;
#X msg 132 327 bang;
#X obj 177 299 r \$0-patchloc;
#X connect 0 0 8 0;
#X connect 1 0 2 1;
#X connect 2 0 10 0;
#X connect 3 0 10 1;
#X connect 5 0 7 0;
#X connect 7 0 6 0;
#X connect 8 1 21 0;
#X connect 8 2 15 0;
#X connect 8 3 31 0;
#X connect 9 0 10 2;
#X connect 10 0 14 0;
#X connect 14 0 25 0;
#X connect 14 1 12 0;
#X connect 14 2 11 0;
#X connect 14 3 13 0;
#X connect 14 4 27 0;
#X connect 14 5 28 0;
#X connect 14 6 4 0;
#X connect 15 0 18 0;
#X connect 16 0 20 0;
#X connect 17 0 19 0;
#X connect 18 0 17 0;
#X connect 19 0 5 0;
#X connect 20 1 17 1;
#X connect 21 0 2 0;
#X connect 25 0 22 0;
#X connect 25 1 26 0;
#X connect 25 2 24 0;
#X connect 25 3 23 0;
#X connect 29 0 30 1;
#X connect 30 0 5 1;
#X connect 31 0 30 0;
#X connect 32 0 29 0;
#X restore 23 267 pd \$0-disk-display;
#X connect 0 0 10 0;
#X connect 1 0 5 0;
#X connect 3 0 6 0;
#X connect 4 0 3 0;
#X connect 5 0 4 0;
#X connect 5 1 3 1;
#X connect 6 0 7 0;
#X connect 6 1 2 0;
#X connect 7 0 9 0;
#X connect 9 0 0 0;
#X restore 113 179 pd \$0-DiskDisplay;
#X connect 0 0 1 0;
#X connect 1 0 3 0;
#X connect 1 0 4 0;
#X connect 1 0 6 0;
#X connect 1 0 7 0;
#X connect 1 0 10 0;
#X connect 1 0 11 0;
#X connect 1 0 12 0;
#X connect 1 0 13 0;
#X connect 2 0 9 0;
#X connect 9 0 0 0;
#X connect 9 1 1 1;
#X restore 481 373 pd \$0-displayrouter;
#X obj 481 153 t s b;
#X obj 531 178 loadbang;
#X obj 531 202 \$0;
#X obj 513 227 f;
#X msg 544 279 \; pd-\$1-innercmddisplay clear;
#X obj 513 256 t f f;
#X obj 450 213 bng 15 250 50 0 empty empty empty 17 7 0 10 #fcfcfc
#000000 #000000;
#X obj 513 317 s \$0-displayID;
#X listbox 757 192 20 0 0 0 - - - 0;
#X obj 714 241 s \$0-patchloc;
#X obj 483 125 route symbol bang set_patchloc;
#X obj 716 216 symbol;
#X msg 714 193 bang;
#X obj 714 164 t b s;
#X obj 635 158 l2s;
#X obj 49 54 declare -lib clearessentials;
#X connect 3 0 17 0;
#X connect 4 0 6 0;
#X connect 7 0 4 0;
#X connect 7 1 10 0;
#X connect 8 0 9 0;
#X connect 9 0 10 1;
#X connect 10 0 12 0;
#X connect 12 0 14 0;
#X connect 12 1 11 0;
#X connect 13 0 10 0;
#X connect 15 0 18 1;
#X connect 17 0 7 0;
#X connect 17 1 5 0;
#X connect 17 2 21 0;
#X connect 18 0 16 0;
#X connect 19 0 18 0;
#X connect 20 0 19 0;
#X connect 20 1 15 0;
#X connect 21 0 20 0;
#X coords 0 -1 1 1 340 100 2 100 100;
