#N canvas 268 196 1084 523 12;
#X floatatom 112 295 5 0 0 0 - - - 0;
#X obj 112 320 t f;
#X obj 150 322 symbol;
#X obj 156 276 t b s;
#X msg 152 299 bang;
#X obj 136 347 s;
#X msg 153 249 symbol \$1-newdelaytime;
#X obj 152 227 t f;
#X floatatom 281 318 5 0 0 0 - - - 0;
#X obj 281 343 t f;
#X obj 319 345 symbol;
#X obj 325 299 t b s;
#X msg 321 322 bang;
#X obj 305 370 s;
#X obj 321 250 t f;
#X msg 322 272 symbol \$1-feedbackamt;
#X floatatom 430 314 5 0 0 0 - - - 0;
#X obj 430 339 t f;
#X obj 468 341 symbol;
#X obj 474 295 t b s;
#X msg 470 318 bang;
#X obj 454 366 s;
#X obj 470 246 t f;
#X msg 471 268 symbol \$1-delayvolume;
#X obj 100 100 cnv 15 100 85 empty empty empty 20 12 0 14 #606060 #fcfcfc
0;
#X obj 100 106 cnv 10 35 10 empty empty Delay 3 5 0 10 #606060 #fcfcfc
0;
#X obj 111 128 hsl 75 10 0 2000 0 0 \$0-delaydur1-send \$0-delaydur1-recv
Del:2.0 1 5 0 10 #404040 #dcdcdc #fcfcfc 0 1;
#X obj 111 144 hsl 75 10 0 1 0 0 \$0-feedback-send \$0-feedback-recv
Feedback:2.0 1 5 0 10 #404040 #dcdcdc #fcfcfc 0 1;
#X obj 112 159 hsl 75 10 0 1 0 0 \$0-delvol-send \$0-delvol-recv Volume:2.0
1 5 0 10 #404040 #dcdcdc #fcfcfc 0 1;
#X obj 569 126 loadbang;
#X msg 569 168 \$1;
#X obj 569 147 \$0;
#N canvas 208 208 715 659 \$0-includeDelay-Toggle 0;
#X obj 102 102 tgl 12 0 empty empty empty 17 7 0 10 #606060 #000000
#dcdcdc 0 1;
#X obj 100 100 cnv 16 16 16 empty empty empty 20 12 0 14 #202020 #404040
0;
#X obj 103 103 cnv 10 10 10 \$0-includetoggle-send \$0-includetoggle-recv
empty 20 12 0 14 #3c50fc #404040 0;
#X obj 171 442 f;
#X obj 171 420 t b f;
#X obj 100 206 spigot 0;
#X obj 145 162 tgl 15 0 empty empty empty 17 7 0 10 #fcfcfc #000000
#000000 0 1;
#X obj 145 139 change;
#X obj 145 116 == 0;
#X obj 216 372 tgl 15 0 empty empty empty 17 7 0 10 #fcfcfc #000000
#000000 0 1;
#X obj 171 345 change;
#X obj 171 395 spigot 0;
#X obj 171 322 == 0;
#X obj 171 366 t b f;
#X obj 171 462 t b b;
#X obj 100 251 f;
#X obj 100 229 t b f;
#X obj 100 271 t b b;
#X obj 145 184 t f f;
#X obj 56 129 tgl 15 0 empty empty empty 17 7 0 10 #fcfcfc #000000
#000000 0 1;
#X obj 55 150 t f b f;
#X obj 192 17 inlet;
#X obj 294 66 loadbang;
#X msg 144 94 0;
#X obj 376 108 \$1;
#X msg 377 133 \$1;
#X floatatom 372 154 5 0 0 0 - - - 0;
#X obj 364 260 t b s;
#X msg 360 283 bang;
#X obj 356 202 t f f;
#X obj 68 695 symbol;
#X obj 67 654 t b s;
#X msg 63 677 bang;
#X obj 51 716 s;
#X symbolatom 149 688 40 0 0 0 - - - 0;
#X obj 474 609 s;
#X obj 340 592 s;
#X msg 676 579 color 16;
#X obj 436 513 symbol;
#X msg 344 518 bang;
#X msg 394 519 \$1;
#X obj 345 539 f;
#X msg 343 560 color \$1;
#X obj 642 336 == 16;
#X obj 644 366 change;
#X obj 646 387 == 0;
#X obj 647 412 t b;
#X obj 651 439 bng 15 250 50 0 empty empty empty 17 7 0 10 #fcfcfc
#000000 #000000;
#X obj 650 473 tgl 15 0 empty empty empty 17 7 0 10 #fcfcfc #000000
#000000 0 1;
#X obj 603 494 spigot 0;
#X obj 742 405 change;
#X obj 745 451 t b;
#X obj 749 478 bng 15 250 50 0 empty empty empty 17 7 0 10 #fcfcfc
#000000 #000000;
#X obj 748 512 tgl 15 0 empty empty empty 17 7 0 10 #fcfcfc #000000
#000000 0 1;
#X obj 701 533 spigot 0;
#X obj 744 426 == 1;
#X obj 740 375 != 16;
#X msg 552 528 color 13;
#X obj 324 93 t b b;
#X obj 376 456 t b b f;
#X obj 289 98 \$0;
#X msg 288 119 \$1;
#X floatatom 284 148 5 0 0 0 - - - 0;
#X msg 361 234 symbol \$1-includetoggle-recv;
#X msg 65 628 symbol \$1-includetoggle;
#X obj 379 434 r NewUiColorColorNum;
#X obj 646 303 r NewUiColorColorNum;
#X obj 744 342 r NewUiColorColorNum;
#X connect 0 0 19 0;
#X connect 3 0 14 0;
#X connect 4 0 3 0;
#X connect 4 1 3 1;
#X connect 5 0 16 0;
#X connect 6 0 18 0;
#X connect 7 0 6 0;
#X connect 8 0 7 0;
#X connect 9 0 11 1;
#X connect 10 0 13 0;
#X connect 11 0 4 0;
#X connect 12 0 10 0;
#X connect 13 0 11 0;
#X connect 13 1 9 0;
#X connect 14 0 49 0;
#X connect 14 1 54 0;
#X connect 15 0 17 0;
#X connect 16 0 15 0;
#X connect 16 1 15 1;
#X connect 17 0 39 0;
#X connect 17 1 28 0;
#X connect 18 0 5 1;
#X connect 18 1 12 0;
#X connect 19 0 20 0;
#X connect 20 0 33 0;
#X connect 20 1 5 0;
#X connect 20 2 8 0;
#X connect 21 0 19 0;
#X connect 22 0 24 0;
#X connect 22 0 58 0;
#X connect 22 0 60 0;
#X connect 23 0 8 0;
#X connect 23 0 19 0;
#X connect 24 0 25 0;
#X connect 25 0 26 0;
#X connect 27 0 28 0;
#X connect 27 1 38 1;
#X connect 28 0 38 0;
#X connect 29 0 63 0;
#X connect 29 1 64 0;
#X connect 30 0 33 1;
#X connect 31 0 32 0;
#X connect 31 1 30 1;
#X connect 31 1 34 0;
#X connect 32 0 30 0;
#X connect 37 0 35 0;
#X connect 38 0 36 1;
#X connect 38 0 35 1;
#X connect 39 0 41 0;
#X connect 40 0 41 1;
#X connect 41 0 42 0;
#X connect 42 0 36 0;
#X connect 43 0 44 0;
#X connect 44 0 45 0;
#X connect 45 0 46 0;
#X connect 46 0 47 0;
#X connect 47 0 48 0;
#X connect 48 0 49 1;
#X connect 49 0 57 0;
#X connect 50 0 55 0;
#X connect 51 0 52 0;
#X connect 52 0 53 0;
#X connect 53 0 54 1;
#X connect 54 0 37 0;
#X connect 55 0 51 0;
#X connect 56 0 50 0;
#X connect 57 0 35 0;
#X connect 58 0 23 0;
#X connect 58 1 23 0;
#X connect 59 0 11 0;
#X connect 59 1 39 0;
#X connect 59 2 40 0;
#X connect 60 0 61 0;
#X connect 61 0 62 0;
#X connect 62 0 29 0;
#X connect 63 0 27 0;
#X connect 64 0 31 0;
#X connect 65 0 59 0;
#X connect 66 0 43 0;
#X connect 67 0 56 0;
#X coords 0 -1 1 1 16 16 2 100 100;
#X restore 180 103 pd \$0-includeDelay-Toggle;
#X obj 84 503 r \$0-loaded-delaytoggle;
#X obj 133 474 r \$0-loaded-delaytime;
#X obj 162 426 r \$0-loaded-delayvol;
#X obj 140 449 r \$0-loaded-delayfeedback;
#X obj 925 194 tgl 15 0 empty empty empty 17 7 0 10 #fcfcfc #000000
#000000 0 1;
#X obj 890 208 *~;
#X floatatom 662 135 5 0 0 0 - - - 0;
#X obj 665 239 *~;
#X floatatom 684 213 5 0 0 0 - - - 0;
#X obj 715 254 *~;
#X obj 649 277 dac~;
#X obj 663 160 delread~ \$0-delbuffer 0;
#X obj 891 277 delwrite~ \$0-delbuffer 5000;
#X obj 930 219 r~ \$0-feedback-signal;
#X obj 715 278 s~ \$0-feedback-signal;
#X floatatom 745 253 5 0 0 0 - - - 0;
#X obj 884 150 inlet~;
#X obj 663 114 r \$0-newdelaytime;
#X obj 685 189 r \$0-delayvolume;
#X obj 733 227 r \$0-feedbackamt;
#X obj 925 170 r \$0-includetoggle;
#X obj 298 71 ce_colorpicker;
#X obj 903 316 change;
#X obj 904 370 tgl 15 0 empty empty empty 17 7 0 10 #fcfcfc #000000
#000000 0 1;
#X obj 886 433 *~;
#X obj 903 341 == 0;
#X obj 878 476 outlet~;
#X connect 0 0 1 0;
#X connect 1 0 5 0;
#X connect 2 0 5 1;
#X connect 3 0 4 0;
#X connect 3 1 2 1;
#X connect 4 0 2 0;
#X connect 6 0 3 0;
#X connect 7 0 6 0;
#X connect 8 0 9 0;
#X connect 9 0 13 0;
#X connect 10 0 13 1;
#X connect 11 0 12 0;
#X connect 11 1 10 1;
#X connect 12 0 10 0;
#X connect 14 0 15 0;
#X connect 15 0 11 0;
#X connect 16 0 17 0;
#X connect 17 0 21 0;
#X connect 18 0 21 1;
#X connect 19 0 20 0;
#X connect 19 1 18 1;
#X connect 20 0 18 0;
#X connect 22 0 23 0;
#X connect 23 0 19 0;
#X connect 26 0 0 0;
#X connect 27 0 8 0;
#X connect 28 0 16 0;
#X connect 29 0 31 0;
#X connect 30 0 7 0;
#X connect 30 0 22 0;
#X connect 30 0 14 0;
#X connect 31 0 30 0;
#X connect 33 0 32 0;
#X connect 34 0 26 0;
#X connect 35 0 28 0;
#X connect 36 0 27 0;
#X connect 37 0 38 1;
#X connect 37 0 55 0;
#X connect 38 0 45 0;
#X connect 39 0 44 0;
#X connect 40 0 43 1;
#X connect 40 0 43 0;
#X connect 41 0 40 1;
#X connect 42 0 47 0;
#X connect 44 0 40 0;
#X connect 44 0 42 0;
#X connect 46 0 45 0;
#X connect 49 0 38 0;
#X connect 49 0 57 0;
#X connect 50 0 39 0;
#X connect 51 0 41 0;
#X connect 52 0 42 1;
#X connect 52 0 48 0;
#X connect 53 0 37 0;
#X connect 55 0 58 0;
#X connect 56 0 57 1;
#X connect 57 0 59 0;
#X connect 58 0 56 0;
#X coords 0 -1 1 1 100 85 2 100 100;
