#N canvas 160 160 743 468 12;
#X declare -lib clearessentials;
#X obj 234 18 inlet;
#X obj 232 424 outlet;
#X obj 239 69 until;
#X obj 239 93 f;
#X obj 277 86 + 1;
#X obj 321 113 sel 0;
#X obj 277 112 mod 2;
#X floatatom 235 118 5 0 0 0 - - - 0;
#X obj 234 141 sel 0 1;
#X msg 239 44 1;
#X msg 267 188 bang;
#X obj 208 218 timer;
#X floatatom 230 244 7 0 0 0 - - - 0;
#X obj 235 299 < 500;
#X obj 235 324 == 0;
#X obj 235 347 tgl 19 0 empty empty empty 0 -10 0 12 #fcfcfc #000000 #000000 0 1;
#X obj 235 371 sel 0 1;
#X obj 296 396 t b;
#X obj 230 394 t b;
#X obj 293 426 outlet;
#X obj 357 220 inlet;
#X obj 18 13 namecanvas \$0-dblclick-bng;
#X obj 10 45 declare -lib clearessentials;
#X obj 369 298 tgl 19 0 empty empty empty 0 -10 0 12 #fcfcfc #000000 #000000 0 1;
#X obj 369 326 sel 0 1;
#X obj 360 272 > 500;
#X obj 228 269 t f f;
#X obj 215 178 t b b;
#X obj 268 167 t b b;
#X obj 296 245 f;
#X obj 360 243 t f f f;
#X obj 408 274 + 1;
#X obj 368 420 f;
#X obj 394 354 t b;
#X obj 320 346 t b b;
#X msg 354 371 1;
#X connect 0 0 9 0;
#X connect 2 0 3 0;
#X connect 3 0 4 0;
#X connect 3 0 7 0;
#X connect 4 0 6 0;
#X connect 5 0 2 1;
#X connect 6 0 3 1;
#X connect 6 0 5 0;
#X connect 7 0 8 0;
#X connect 8 0 27 0;
#X connect 8 1 28 0;
#X connect 9 0 2 0;
#X connect 10 0 11 1;
#X connect 11 0 12 0;
#X connect 12 0 26 0;
#X connect 13 0 14 0;
#X connect 14 0 15 0;
#X connect 15 0 16 0;
#X connect 16 0 18 0;
#X connect 16 1 17 0;
#X connect 17 0 19 0;
#X connect 17 0 11 0;
#X connect 18 0 1 0;
#X connect 20 0 30 0;
#X connect 23 0 24 0;
#X connect 24 0 34 0;
#X connect 24 1 33 0;
#X connect 25 0 23 0;
#X connect 26 0 13 0;
#X connect 26 1 29 1;
#X connect 27 0 29 0;
#X connect 27 1 11 0;
#X connect 28 0 10 0;
#X connect 28 1 29 0;
#X connect 29 0 25 0;
#X connect 30 0 13 1;
#X connect 30 1 25 1;
#X connect 30 2 31 0;
#X connect 31 0 29 1;
#X connect 31 0 32 1;
#X connect 32 0 29 1;
#X connect 33 0 19 0;
#X connect 34 0 32 0;
#X connect 34 1 35 0;
#X connect 35 0 15 0;
