#N canvas -61 89 1920 997 12;
#X floatatom 112 295 5 0 0 0 - - - 0;
#X obj 112 320 t f;
#X obj 150 322 symbol;
#X obj 156 276 t b s;
#X msg 152 299 bang;
#X obj 136 347 s;
#X msg 153 249 symbol \$1-newdelaytime;
#X obj 152 227 t f;
#X floatatom 281 318 5 0 0 0 - - - 0;
#X obj 281 343 t f;
#X obj 319 345 symbol;
#X obj 325 299 t b s;
#X msg 321 322 bang;
#X obj 305 370 s;
#X obj 321 250 t f;
#X msg 322 272 symbol \$1-feedbackamt;
#X floatatom 430 314 5 0 0 0 - - - 0;
#X obj 430 339 t f;
#X obj 468 341 symbol;
#X obj 474 295 t b s;
#X msg 470 318 bang;
#X obj 454 366 s;
#X obj 470 246 t f;
#X msg 471 268 symbol \$1-delayvolume;
#X obj 100 100 cnv 15 100 85 empty empty empty 20 12 0 14 #606060 #fcfcfc
0;
#X obj 100 106 cnv 10 35 10 empty empty Delay 3 5 0 10 #606060 #fcfcfc
0;
#X obj 111 128 hsl 75 10 0 2000 0 0 \$0-delaydur1-send \$0-delaydur1-recv
Del:2.0 1 5 0 10 #404040 #00faff #fcfcfc 0 1;
#X obj 111 144 hsl 75 10 0 1 0 0 \$0-feedback-send \$0-feedback-recv
Feedback:2.0 1 5 0 10 #404040 #00faff #fcfcfc 0 1;
#X obj 112 159 hsl 75 10 0 1 0 0 \$0-delvol-send \$0-delvol-recv Volume:2.0
1 5 0 10 #404040 #00faff #fcfcfc 0 1;
#X obj 569 126 loadbang;
#X msg 569 168 \$1;
#X obj 569 147 \$0;
#N canvas 208 208 715 659 \$0-includeDelay-Toggle 0;
#X obj 102 102 tgl 12 0 empty empty empty 17 7 0 10 #606060 #000000
#dcdcdc 0 1;
#X obj 100 100 cnv 16 16 16 empty empty empty 20 12 0 14 #202020 #404040
0;
#X obj 103 103 cnv 10 10 10 \$0-includetoggle-send \$0-includetoggle-recv
empty 20 12 0 14 #14e814 #404040 0;
#X obj 171 442 f;
#X obj 171 420 t b f;
#X obj 100 206 spigot 0;
#X obj 145 162 tgl 15 0 empty empty empty 17 7 0 10 #fcfcfc #000000
#000000 0 1;
#X obj 145 139 change;
#X obj 145 116 == 0;
#X obj 216 372 tgl 15 0 empty empty empty 17 7 0 10 #fcfcfc #000000
#000000 0 1;
#X obj 171 345 change;
#X obj 171 395 spigot 0;
#X obj 171 322 == 0;
#X obj 171 366 t b f;
#X obj 171 462 t b b;
#X obj 100 251 f;
#X obj 100 229 t b f;
#X obj 100 271 t b b;
#X obj 145 184 t f f;
#X obj 56 129 tgl 15 0 empty empty empty 17 7 0 10 #fcfcfc #000000
#000000 0 1;
#X obj 55 150 t f b f;
#X obj 192 17 inlet;
#X obj 294 66 loadbang;
#X msg 144 94 0;
#X obj 376 108 \$1;
#X msg 377 133 \$1;
#X floatatom 372 154 5 0 0 0 - - - 0;
#X obj 364 260 t b s;
#X msg 360 283 bang;
#X obj 356 202 t f f;
#X obj 68 695 symbol;
#X obj 67 654 t b s;
#X msg 63 677 bang;
#X obj 51 716 s;
#X symbolatom 149 688 40 0 0 0 - - - 0;
#X obj 474 609 s;
#X obj 340 592 s;
#X msg 676 579 color 16;
#X obj 436 513 symbol;
#X msg 344 518 bang;
#X msg 394 519 \$1;
#X obj 345 539 f;
#X msg 343 560 color \$1;
#X obj 642 336 == 16;
#X obj 644 366 change;
#X obj 646 387 == 0;
#X obj 647 412 t b;
#X obj 651 439 bng 15 250 50 0 empty empty empty 17 7 0 10 #fcfcfc
#000000 #000000;
#X obj 650 473 tgl 15 0 empty empty empty 17 7 0 10 #fcfcfc #000000
#000000 0 1;
#X obj 603 494 spigot 0;
#X obj 742 405 change;
#X obj 745 451 t b;
#X obj 749 478 bng 15 250 50 0 empty empty empty 17 7 0 10 #fcfcfc
#000000 #000000;
#X obj 748 512 tgl 15 0 empty empty empty 17 7 0 10 #fcfcfc #000000
#000000 0 1;
#X obj 701 533 spigot 0;
#X obj 744 426 == 1;
#X obj 740 375 != 16;
#X msg 552 528 color 13;
#X obj 324 93 t b b;
#X obj 376 456 t b b f;
#X obj 289 98 \$0;
#X msg 288 119 \$1;
#X floatatom 284 148 5 0 0 0 - - - 0;
#X msg 361 234 symbol \$1-includetoggle-recv;
#X msg 65 628 symbol \$1-includetoggle;
#X obj 379 434 r NewUiColorColorNum;
#X obj 646 303 r NewUiColorColorNum;
#X obj 744 342 r NewUiColorColorNum;
#X obj 181 567 outlet;
#X connect 0 0 19 0;
#X connect 3 0 14 0;
#X connect 4 0 3 0;
#X connect 4 1 3 1;
#X connect 5 0 16 0;
#X connect 6 0 18 0;
#X connect 7 0 6 0;
#X connect 8 0 7 0;
#X connect 9 0 11 1;
#X connect 10 0 13 0;
#X connect 11 0 4 0;
#X connect 12 0 10 0;
#X connect 13 0 11 0;
#X connect 13 1 9 0;
#X connect 14 0 49 0;
#X connect 14 1 54 0;
#X connect 15 0 17 0;
#X connect 16 0 15 0;
#X connect 16 1 15 1;
#X connect 17 0 39 0;
#X connect 17 1 28 0;
#X connect 18 0 5 1;
#X connect 18 1 12 0;
#X connect 19 0 20 0;
#X connect 19 0 68 0;
#X connect 20 0 33 0;
#X connect 20 1 5 0;
#X connect 20 2 8 0;
#X connect 21 0 0 0;
#X connect 22 0 24 0;
#X connect 22 0 58 0;
#X connect 22 0 60 0;
#X connect 23 0 8 0;
#X connect 23 0 19 0;
#X connect 24 0 25 0;
#X connect 25 0 26 0;
#X connect 27 0 28 0;
#X connect 27 1 38 1;
#X connect 28 0 38 0;
#X connect 29 0 63 0;
#X connect 29 1 64 0;
#X connect 30 0 33 1;
#X connect 31 0 32 0;
#X connect 31 1 30 1;
#X connect 31 1 34 0;
#X connect 32 0 30 0;
#X connect 37 0 35 0;
#X connect 38 0 36 1;
#X connect 38 0 35 1;
#X connect 39 0 41 0;
#X connect 40 0 41 1;
#X connect 41 0 42 0;
#X connect 42 0 36 0;
#X connect 43 0 44 0;
#X connect 44 0 45 0;
#X connect 45 0 46 0;
#X connect 46 0 47 0;
#X connect 47 0 48 0;
#X connect 48 0 49 1;
#X connect 49 0 57 0;
#X connect 50 0 55 0;
#X connect 51 0 52 0;
#X connect 52 0 53 0;
#X connect 53 0 54 1;
#X connect 54 0 37 0;
#X connect 55 0 51 0;
#X connect 56 0 50 0;
#X connect 57 0 35 0;
#X connect 58 0 23 0;
#X connect 58 1 23 0;
#X connect 59 0 11 0;
#X connect 59 1 39 0;
#X connect 59 2 40 0;
#X connect 60 0 61 0;
#X connect 61 0 62 0;
#X connect 62 0 29 0;
#X connect 63 0 27 0;
#X connect 64 0 31 0;
#X connect 65 0 59 0;
#X connect 66 0 43 0;
#X connect 67 0 56 0;
#X coords 0 -1 1 1 16 16 2 100 100;
#X restore 180 103 pd \$0-includeDelay-Toggle;
#X obj 150 474 tgl 15 0 empty empty empty 17 7 0 10 #fcfcfc #000000
#000000 0 1;
#X obj 115 488 *~;
#X floatatom 662 135 5 0 0 0 - - - 0;
#X obj 665 239 *~;
#X floatatom 684 213 5 0 0 0 - - - 0;
#X obj 715 254 *~;
#X obj 649 277 dac~;
#X obj 663 160 delread~ \$0-delbuffer 0;
#X obj 116 557 delwrite~ \$0-delbuffer 5000;
#X obj 155 499 r~ \$0-feedback-signal;
#X obj 715 278 s~ \$0-feedback-signal;
#X floatatom 745 253 5 0 0 0 - - - 0;
#X obj 109 430 inlet~;
#X obj 663 114 r \$0-newdelaytime;
#X obj 685 189 r \$0-delayvolume;
#X obj 733 227 r \$0-feedbackamt;
#X obj 150 450 r \$0-includetoggle;
#X obj 298 71 ce_colorpicker;
#X obj 128 596 change;
#X obj 129 650 tgl 15 0 empty empty empty 17 7 0 10 #fcfcfc #000000
#000000 0 1;
#X obj 111 713 *~;
#X obj 128 621 == 0;
#X obj 103 756 outlet~;
#X obj 588 410 inlet;
#X obj 562 823 outlet;
#X obj 713 521 bng 15 250 50 0 empty empty get_datadump 17 7 0 10 #fcfcfc
#000000 #000000;
#X floatatom 588 713 5 0 0 0 - - - 0;
#X obj 588 760 f;
#X obj 588 735 t b f;
#X floatatom 645 713 5 0 0 0 - - - 0;
#X obj 645 760 f;
#X obj 645 735 t b f;
#X floatatom 705 711 5 0 0 0 - - - 0;
#X obj 705 758 f;
#X obj 705 733 t b f;
#X floatatom 755 708 5 0 0 0 - - - 0;
#X obj 755 755 f;
#X obj 755 730 t b f;
#X obj 585 480 t b b b;
#X obj 344 576 f;
#X obj 385 578 f;
#X obj 387 551 t b;
#X obj 446 615 f;
#X obj 451 583 t b;
#X obj 508 644 f;
#X obj 509 616 t b;
#X obj 711 553 t b b b b;
#X obj 565 790 pack s f f f f;
#X msg 562 551 symbol ce_delay;
#X msg 709 581 get_delay;
#X msg 718 608 get_feedback;
#X msg 734 631 get_volume;
#X msg 742 656 get_state;
#X obj 343 525 t b;
#X obj 1021 528 s \$0-presetdata-1;
#X obj 1036 551 s \$0-presetdata-2;
#X obj 1050 575 s \$0-presetdata-3;
#X obj 1062 596 s \$0-presetdata-4;
#X obj 138 -20 r \$0-presetdata-1;
#X obj 154 2 r \$0-presetdata-2;
#X obj 168 27 r \$0-presetdata-3;
#X obj 177 53 r \$0-presetdata-4;
#X floatatom 976 587 5 0 0 0 - - - 0;
#X floatatom 1002 612 5 0 0 0 - - - 0;
#X floatatom 1027 634 5 0 0 0 - - - 0;
#X floatatom 1046 658 5 0 0 0 - - - 0;
#X obj 552 520 del 200;
#X obj 980 498 unpack f f f f;
#X obj 588 436 route get_datadump get_delay get_feedback get_volume
get_state load_cedelay, f 68;
#X connect 0 0 1 0;
#X connect 1 0 5 0;
#X connect 2 0 5 1;
#X connect 3 0 4 0;
#X connect 3 1 2 1;
#X connect 4 0 2 0;
#X connect 6 0 3 0;
#X connect 7 0 6 0;
#X connect 8 0 9 0;
#X connect 9 0 13 0;
#X connect 10 0 13 1;
#X connect 11 0 12 0;
#X connect 11 1 10 1;
#X connect 12 0 10 0;
#X connect 14 0 15 0;
#X connect 15 0 11 0;
#X connect 16 0 17 0;
#X connect 17 0 21 0;
#X connect 18 0 21 1;
#X connect 19 0 20 0;
#X connect 19 1 18 1;
#X connect 20 0 18 0;
#X connect 22 0 23 0;
#X connect 23 0 19 0;
#X connect 26 0 0 0;
#X connect 26 0 73 1;
#X connect 27 0 8 0;
#X connect 27 0 75 1;
#X connect 28 0 16 0;
#X connect 28 0 77 1;
#X connect 29 0 31 0;
#X connect 30 0 7 0;
#X connect 30 0 22 0;
#X connect 30 0 14 0;
#X connect 31 0 30 0;
#X connect 32 0 72 1;
#X connect 33 0 34 1;
#X connect 33 0 51 0;
#X connect 34 0 41 0;
#X connect 35 0 40 0;
#X connect 36 0 39 1;
#X connect 36 0 39 0;
#X connect 37 0 36 1;
#X connect 38 0 43 0;
#X connect 40 0 36 0;
#X connect 40 0 38 0;
#X connect 42 0 41 0;
#X connect 45 0 34 0;
#X connect 45 0 53 0;
#X connect 46 0 35 0;
#X connect 47 0 37 0;
#X connect 48 0 38 1;
#X connect 48 0 44 0;
#X connect 49 0 33 0;
#X connect 51 0 54 0;
#X connect 52 0 53 1;
#X connect 53 0 55 0;
#X connect 54 0 52 0;
#X connect 56 0 101 0;
#X connect 58 0 79 0;
#X connect 59 0 61 0;
#X connect 60 0 80 1;
#X connect 61 0 60 0;
#X connect 61 1 60 1;
#X connect 62 0 64 0;
#X connect 63 0 80 2;
#X connect 64 0 63 0;
#X connect 64 1 63 1;
#X connect 65 0 67 0;
#X connect 66 0 80 3;
#X connect 67 0 66 0;
#X connect 67 1 66 1;
#X connect 68 0 70 0;
#X connect 69 0 80 4;
#X connect 70 0 69 0;
#X connect 70 1 69 1;
#X connect 71 0 99 0;
#X connect 71 2 58 0;
#X connect 72 0 59 0;
#X connect 73 0 62 0;
#X connect 74 0 73 0;
#X connect 75 0 65 0;
#X connect 76 0 75 0;
#X connect 77 0 68 0;
#X connect 78 0 77 0;
#X connect 79 0 82 0;
#X connect 79 1 83 0;
#X connect 79 2 84 0;
#X connect 79 3 85 0;
#X connect 80 0 57 0;
#X connect 81 0 80 0;
#X connect 82 0 101 0;
#X connect 83 0 101 0;
#X connect 84 0 101 0;
#X connect 85 0 101 0;
#X connect 86 0 72 0;
#X connect 91 0 32 0;
#X connect 92 0 26 0;
#X connect 93 0 27 0;
#X connect 94 0 28 0;
#X connect 99 0 81 0;
#X connect 100 0 87 0;
#X connect 100 0 95 0;
#X connect 100 1 88 0;
#X connect 100 1 96 0;
#X connect 100 2 89 0;
#X connect 100 2 97 0;
#X connect 100 3 90 0;
#X connect 100 3 98 0;
#X connect 101 0 71 0;
#X connect 101 1 74 0;
#X connect 101 2 76 0;
#X connect 101 3 78 0;
#X connect 101 4 86 0;
#X connect 101 5 100 0;
#X coords 0 -1 1 1 100 85 2 100 100;
