#N canvas 773 116 792 467 12;
#X declare -path clearessentials;
#X text 36 56 Written By: Reg Finley;
#X text 35 77 Aka Scr1ptAl1as;
#X obj 36 158 reportissue;
#X obj 37 142 aboutexternal;
#X text 10 290 Outlet(s);
#X obj 27 5 declare -path clearessentials;
#X obj 38 177 watchtutorial;
#X text 37 116 Pd 0.54.0;
#X text 10 210 Inlet(s);
#X text 94 209 0 -;
#X text 94 237 1 -;
#X msg 135 207 bang;
#X text 173 207 or;
#X obj 199 207 bng 19 250 50 0 empty empty empty 0 -10 0 12 #fcfcfc #000000 #000000;
#X text 221 206 or;
#X obj 244 206 t b;
#X text 94 289 0 -;
#X obj 363 145 ce_dblclick;
#X msg 359 114 bang;
#X obj 351 209 bng 19 250 50 0 empty empty Good\ double\ click 0 -10 0 12 #fcfcfc #000000 #000000;
#X obj 461 165 bng 19 250 50 0 empty empty All\ Clicks 0 -10 0 12 #fcfcfc #000000 #000000;
#X msg 129 241 500;
#X text 94 319 1 -;
#X text 130 291 bang - Good dblclick;
#X text 130 321 bang - dblclick but not fast enough;
#X obj 437 71 loadbang;
#X obj 437 95 t b;
#X text 248 2 [ce_dblclick Is a very simple tool to be combined with [bng] objects or instances when double click functionality is needed.;
#X text 35 37 ce_dblclick v1.0;
#X text 35 93 2023/07/27 2:31 PM;
#X msg 438 119 700;
#X connect 17 0 19 0;
#X connect 17 1 20 0;
#X connect 18 0 17 0;
#X connect 25 0 26 0;
#X connect 26 0 30 0;
#X connect 30 0 17 1;
