#N canvas 573 56 714 842 12;
#X declare -lib clearessentials;
#X obj 455 57 ce_colorpicker;
#X obj 452 72 s NewUiColorColorNum;
#X obj 1493 322 humanmetro;
#X floatatom 1495 493 5 0 0 0 - - - 0;
#X floatatom 1538 493 5 0 0 0 - - - 0;
#X floatatom 1583 495 5 0 0 0 - - - 0;
#X floatatom 1626 495 5 0 0 0 - - - 0;
#X obj 1004 141 inlet;
#X obj 1069 436 sel 0;
#X obj 1002 409 unpack f f;
#X msg 1004 589 stop;
#X msg 1105 463 start;
#X obj 100 100 cnv 15 525 768 empty empty Euclidean 25 12 0 14 #404040
#ffffff 0;
#X obj 37 908 outlet;
#X msg 1319 368 stop;
#X obj 1059 463 t b b;
#X obj 1083 341 t b f;
#X obj 1115 418 s \$0-midirelease;
#X obj 1010 646 outlet;
#X obj 205 105 cnv 15 25 16 \$0-bpmProperties-recv \$0-bpmProperties-recv
BPM 3 8 0 12 #404040 #000000 0;
#X obj 348 107 hsl 60 10 0 1 0 0 \$0-humanize-send \$0-humanize-recv
Human:0.2 4 5 0 10 #9c9c9c #fcfcfc #000000 0 1;
#X obj 279 107 hsl 60 10 0 1 0 0 \$0-swing-send \$0-swing-recv Swing:0.1
3 5 0 10 #9c9c9c #fcfcfc #000000 0 1;
#X obj 416 107 hsl 60 10 0 1 0 0 \$0-mistake-send \$0-mistake-recv
Mistakes 3 5 0 10 #9c9c9c #fcfcfc #000000 0 1;
#N canvas 208 208 1920 997 \$0-oscbmp 0;
#X obj 104 104 nbx 2 14 1 999 0 0 \$1-synthbpm-send \$1-synthbpm-recv
empty 0 -8 0 10 #fcfcfc #000000 #000000 0 256;
#X obj 100 100 cnv 15 39 22 empty empty empty 5 9 0 14 #202020 #00f8fc
0;
#X obj 102 103 cnv 15 34 17 \$0-bpmnum-send \$0-bpmnum-recv 80 5 9
0 14 #101054 #00f8fc 0;
#X obj 104 168 outlet;
#N canvas -8 -8 1920 997 \$0-seqbpm 0;
#X obj 123 109 f;
#X obj 117 77 t b f;
#X msg 137 190 label \$1;
#X obj 137 169 l2s;
#X obj 110 34 inlet;
#X obj 123 128 t f f b;
#X obj 99 272 outlet;
#X obj 304 289 s;
#X obj 345 24 loadbang;
#X msg 339 75 \$1;
#X floatatom 323 98 5 0 0 0 - - - 0;
#X obj 320 264 symbol;
#X obj 326 202 t b s;
#X msg 322 225 bang;
#X obj 322 117 t f f;
#X obj 351 54 \$0;
#X msg 324 176 symbol \$1-bpmnum-recv;
#X connect 0 0 5 0;
#X connect 1 0 0 0;
#X connect 1 1 0 1;
#X connect 2 0 7 0;
#X connect 3 0 2 0;
#X connect 4 0 1 0;
#X connect 5 0 6 0;
#X connect 5 1 3 0;
#X connect 5 2 13 0;
#X connect 8 0 15 0;
#X connect 9 0 10 0;
#X connect 10 0 14 0;
#X connect 11 0 7 1;
#X connect 12 0 13 0;
#X connect 12 1 11 1;
#X connect 13 0 11 0;
#X connect 14 0 16 0;
#X connect 15 0 9 0;
#X connect 16 0 12 0;
#X restore 104 134 pd \$0-seqbpm;
#X obj 111 27 inlet;
#X obj 111 46 t f;
#X obj 172 169 s \$0-setnewbpm;
#X connect 0 0 4 0;
#X connect 4 0 3 0;
#X connect 4 0 7 0;
#X connect 5 0 6 0;
#X connect 6 0 0 0;
#X coords 0 -1 1 1 39 22 2 100 100;
#X restore 232 101 pd \$0-oscbmp \$1;
#X obj 114 123 cnv 15 22 22 empty empty Rhythms 10 12 0 14 #404040
#ffffff 0;
#X obj 186 127 cnv 15 25 16 \$0-bpmProperties-recv \$0-bpmProperties-recv
Steps 3 8 0 12 #404040 #000000 0;
#N canvas 593 281 325 406 \$0-totalsteps 0;
#X obj 104 104 nbx 2 14 1 999 0 0 \$1-synthbpm-send \$1-synthbpm-recv
empty 0 -8 0 10 #fcfcfc #000000 #000000 0 256;
#X obj 100 100 cnv 15 39 22 empty empty empty 5 9 0 14 #202020 #00f8fc
0;
#X obj 102 103 cnv 15 34 17 \$0-stepsnum-send \$0-stepsnum-recv 16
5 9 0 14 #101054 #00f8fc 0;
#X obj 104 168 outlet;
#X obj 111 27 inlet;
#X obj 111 46 t f;
#N canvas -8 -8 1920 997 \$0-steps 0;
#X obj 123 109 f;
#X obj 117 77 t b f;
#X msg 137 190 label \$1;
#X obj 137 169 l2s;
#X obj 110 34 inlet;
#X obj 123 128 t f f b;
#X obj 99 272 outlet;
#X obj 304 289 s;
#X obj 345 24 loadbang;
#X msg 339 75 \$1;
#X floatatom 323 98 5 0 0 0 - - - 0;
#X obj 320 264 symbol;
#X obj 326 202 t b s;
#X msg 322 225 bang;
#X obj 322 117 t f f;
#X obj 351 54 \$0;
#X msg 324 176 symbol \$1-stepsnum-recv;
#X connect 0 0 5 0;
#X connect 1 0 0 0;
#X connect 1 1 0 1;
#X connect 2 0 7 0;
#X connect 3 0 2 0;
#X connect 4 0 1 0;
#X connect 5 0 6 0;
#X connect 5 1 3 0;
#X connect 5 2 13 0;
#X connect 8 0 15 0;
#X connect 9 0 10 0;
#X connect 10 0 14 0;
#X connect 11 0 7 1;
#X connect 12 0 13 0;
#X connect 12 1 11 1;
#X connect 13 0 11 0;
#X connect 14 0 16 0;
#X connect 15 0 9 0;
#X connect 16 0 12 0;
#X restore 104 134 pd \$0-steps;
#X connect 0 0 6 0;
#X connect 4 0 5 0;
#X connect 5 0 0 0;
#X connect 6 0 3 0;
#X coords 0 -1 1 1 39 22 2 100 100;
#X restore 228 123 pd \$0-totalsteps;
#N canvas 52 52 1022 659 \$0-step-0 0;
#X obj 102 102 tgl 12 0 empty empty empty 17 7 0 10 #606060 #000000
#dcdcdc 0 1;
#X obj 100 100 cnv 16 16 16 empty empty empty 20 12 0 14 #202020 #404040
0;
#X obj 103 103 cnv 10 10 10 \$0-step-0-send \$0-step-0-recv empty 20
12 0 14 #bcbcbc #404040 0;
#X obj 171 442 f;
#X obj 171 420 t b f;
#X obj 100 206 spigot 0;
#X obj 145 162 tgl 15 0 empty empty empty 17 7 0 10 #fcfcfc #000000
#000000 0 1;
#X obj 145 139 change;
#X obj 145 116 == 0;
#X obj 216 372 tgl 15 0 empty empty empty 17 7 0 10 #fcfcfc #000000
#000000 0 1;
#X obj 171 345 change;
#X obj 171 395 spigot 0;
#X obj 171 322 == 0;
#X obj 171 366 t b f;
#X obj 171 462 t b b;
#X obj 100 251 f;
#X obj 100 229 t b f;
#X obj 100 271 t b b;
#X obj 145 184 t f f;
#X obj 56 129 tgl 15 0 empty empty empty 17 7 0 10 #fcfcfc #000000
#000000 0 1;
#X obj 55 150 t f b f;
#X obj 192 17 inlet;
#X obj 294 66 loadbang;
#X msg 144 94 0;
#X obj 376 108 \$1;
#X msg 377 133 \$1;
#X floatatom 372 154 5 0 0 0 - - - 0;
#X obj 364 260 t b s;
#X msg 360 283 bang;
#X obj 356 202 t f f;
#X obj 68 695 symbol;
#X obj 67 654 t b s;
#X msg 63 677 bang;
#X obj 51 716 s;
#X symbolatom 149 688 40 0 0 0 - - - 0;
#X obj 474 609 s;
#X obj 340 592 s;
#X msg 676 579 color 16;
#X obj 436 513 symbol;
#X msg 344 518 bang;
#X msg 394 519 \$1;
#X obj 345 539 f;
#X msg 343 560 color \$1;
#X obj 642 336 == 16;
#X obj 644 366 change;
#X obj 646 387 == 0;
#X obj 647 412 t b;
#X obj 651 439 bng 15 250 50 0 empty empty empty 17 7 0 10 #fcfcfc
#000000 #000000;
#X obj 650 473 tgl 15 0 empty empty empty 17 7 0 10 #fcfcfc #000000
#000000 0 1;
#X obj 603 494 spigot 0;
#X obj 742 405 change;
#X obj 745 451 t b;
#X obj 749 478 bng 15 250 50 0 empty empty empty 17 7 0 10 #fcfcfc
#000000 #000000;
#X obj 748 512 tgl 15 0 empty empty empty 17 7 0 10 #fcfcfc #000000
#000000 0 1;
#X obj 701 533 spigot 0;
#X obj 744 426 == 1;
#X obj 740 375 != 16;
#X msg 552 528 color 13;
#X obj 324 93 t b b;
#X obj 376 456 t b b f;
#X obj 289 98 \$0;
#X msg 288 119 \$1;
#X floatatom 284 148 5 0 0 0 - - - 0;
#X obj 379 434 r NewUiColorColorNum;
#X obj 744 342 r NewUiColorColorNum;
#X obj 646 303 r NewUiColorColorNum;
#X msg 361 234 symbol \$1-step-0-recv;
#X msg 65 628 symbol \$1-step-0;
#X connect 0 0 19 0;
#X connect 3 0 14 0;
#X connect 4 0 3 0;
#X connect 4 1 3 1;
#X connect 5 0 16 0;
#X connect 6 0 18 0;
#X connect 7 0 6 0;
#X connect 8 0 7 0;
#X connect 9 0 11 1;
#X connect 10 0 13 0;
#X connect 11 0 4 0;
#X connect 12 0 10 0;
#X connect 13 0 11 0;
#X connect 13 1 9 0;
#X connect 14 0 49 0;
#X connect 14 1 54 0;
#X connect 15 0 17 0;
#X connect 16 0 15 0;
#X connect 16 1 15 1;
#X connect 17 0 39 0;
#X connect 17 1 28 0;
#X connect 18 0 5 1;
#X connect 18 1 12 0;
#X connect 19 0 20 0;
#X connect 20 0 33 0;
#X connect 20 1 5 0;
#X connect 20 2 8 0;
#X connect 21 0 19 0;
#X connect 22 0 24 0;
#X connect 22 0 58 0;
#X connect 22 0 60 0;
#X connect 23 0 8 0;
#X connect 23 0 19 0;
#X connect 24 0 25 0;
#X connect 25 0 26 0;
#X connect 27 0 28 0;
#X connect 27 1 38 1;
#X connect 28 0 38 0;
#X connect 29 0 66 0;
#X connect 29 1 67 0;
#X connect 30 0 33 1;
#X connect 31 0 32 0;
#X connect 31 1 30 1;
#X connect 31 1 34 0;
#X connect 32 0 30 0;
#X connect 37 0 35 0;
#X connect 38 0 36 1;
#X connect 38 0 35 1;
#X connect 39 0 41 0;
#X connect 40 0 41 1;
#X connect 41 0 42 0;
#X connect 42 0 36 0;
#X connect 43 0 44 0;
#X connect 44 0 45 0;
#X connect 45 0 46 0;
#X connect 46 0 47 0;
#X connect 47 0 48 0;
#X connect 48 0 49 1;
#X connect 49 0 57 0;
#X connect 50 0 55 0;
#X connect 51 0 52 0;
#X connect 52 0 53 0;
#X connect 53 0 54 1;
#X connect 54 0 37 0;
#X connect 55 0 51 0;
#X connect 56 0 50 0;
#X connect 57 0 35 0;
#X connect 58 0 23 0;
#X connect 58 1 23 0;
#X connect 59 0 11 0;
#X connect 59 1 39 0;
#X connect 59 2 40 0;
#X connect 60 0 61 0;
#X connect 61 0 62 0;
#X connect 62 0 29 0;
#X connect 63 0 59 0;
#X connect 64 0 56 0;
#X connect 65 0 43 0;
#X connect 66 0 27 0;
#X connect 67 0 31 0;
#X coords 0 -1 1 1 16 16 2 100 100;
#X restore 370 126 pd \$0-step-0;
#N canvas 52 52 1022 659 \$0-step-1 0;
#X obj 102 102 tgl 12 0 empty empty empty 17 7 0 10 #606060 #000000
#dcdcdc 0 1;
#X obj 100 100 cnv 16 16 16 empty empty empty 20 12 0 14 #202020 #404040
0;
#X obj 103 103 cnv 10 10 10 \$0-step-1-send \$0-step-1-recv empty 20
12 0 14 #bcbcbc #404040 0;
#X obj 171 442 f;
#X obj 171 420 t b f;
#X obj 100 206 spigot 0;
#X obj 145 162 tgl 15 0 empty empty empty 17 7 0 10 #fcfcfc #000000
#000000 0 1;
#X obj 145 139 change;
#X obj 145 116 == 0;
#X obj 216 372 tgl 15 0 empty empty empty 17 7 0 10 #fcfcfc #000000
#000000 0 1;
#X obj 171 345 change;
#X obj 171 395 spigot 0;
#X obj 171 322 == 0;
#X obj 171 366 t b f;
#X obj 171 462 t b b;
#X obj 100 251 f;
#X obj 100 229 t b f;
#X obj 100 271 t b b;
#X obj 145 184 t f f;
#X obj 56 129 tgl 15 0 empty empty empty 17 7 0 10 #fcfcfc #000000
#000000 0 1;
#X obj 55 150 t f b f;
#X obj 192 17 inlet;
#X obj 294 66 loadbang;
#X msg 144 94 0;
#X obj 376 108 \$1;
#X msg 377 133 \$1;
#X floatatom 372 154 5 0 0 0 - - - 0;
#X obj 364 260 t b s;
#X msg 360 283 bang;
#X obj 356 202 t f f;
#X obj 68 695 symbol;
#X obj 67 654 t b s;
#X msg 63 677 bang;
#X obj 51 716 s;
#X symbolatom 149 688 40 0 0 0 - - - 0;
#X obj 474 609 s;
#X obj 340 592 s;
#X msg 676 579 color 16;
#X obj 436 513 symbol;
#X msg 344 518 bang;
#X msg 394 519 \$1;
#X obj 345 539 f;
#X msg 343 560 color \$1;
#X obj 642 336 == 16;
#X obj 644 366 change;
#X obj 646 387 == 0;
#X obj 647 412 t b;
#X obj 651 439 bng 15 250 50 0 empty empty empty 17 7 0 10 #fcfcfc
#000000 #000000;
#X obj 650 473 tgl 15 0 empty empty empty 17 7 0 10 #fcfcfc #000000
#000000 0 1;
#X obj 603 494 spigot 0;
#X obj 742 405 change;
#X obj 745 451 t b;
#X obj 749 478 bng 15 250 50 0 empty empty empty 17 7 0 10 #fcfcfc
#000000 #000000;
#X obj 748 512 tgl 15 0 empty empty empty 17 7 0 10 #fcfcfc #000000
#000000 0 1;
#X obj 701 533 spigot 0;
#X obj 744 426 == 1;
#X obj 740 375 != 16;
#X msg 552 528 color 13;
#X obj 324 93 t b b;
#X obj 376 456 t b b f;
#X obj 289 98 \$0;
#X msg 288 119 \$1;
#X floatatom 284 148 5 0 0 0 - - - 0;
#X obj 379 434 r NewUiColorColorNum;
#X obj 744 342 r NewUiColorColorNum;
#X obj 646 303 r NewUiColorColorNum;
#X msg 361 234 symbol \$1-step-1-recv;
#X msg 65 628 symbol \$1-step-1;
#X connect 0 0 19 0;
#X connect 3 0 14 0;
#X connect 4 0 3 0;
#X connect 4 1 3 1;
#X connect 5 0 16 0;
#X connect 6 0 18 0;
#X connect 7 0 6 0;
#X connect 8 0 7 0;
#X connect 9 0 11 1;
#X connect 10 0 13 0;
#X connect 11 0 4 0;
#X connect 12 0 10 0;
#X connect 13 0 11 0;
#X connect 13 1 9 0;
#X connect 14 0 49 0;
#X connect 14 1 54 0;
#X connect 15 0 17 0;
#X connect 16 0 15 0;
#X connect 16 1 15 1;
#X connect 17 0 39 0;
#X connect 17 1 28 0;
#X connect 18 0 5 1;
#X connect 18 1 12 0;
#X connect 19 0 20 0;
#X connect 20 0 33 0;
#X connect 20 1 5 0;
#X connect 20 2 8 0;
#X connect 21 0 19 0;
#X connect 22 0 24 0;
#X connect 22 0 58 0;
#X connect 22 0 60 0;
#X connect 23 0 8 0;
#X connect 23 0 19 0;
#X connect 24 0 25 0;
#X connect 25 0 26 0;
#X connect 27 0 28 0;
#X connect 27 1 38 1;
#X connect 28 0 38 0;
#X connect 29 0 66 0;
#X connect 29 1 67 0;
#X connect 30 0 33 1;
#X connect 31 0 32 0;
#X connect 31 1 30 1;
#X connect 31 1 34 0;
#X connect 32 0 30 0;
#X connect 37 0 35 0;
#X connect 38 0 36 1;
#X connect 38 0 35 1;
#X connect 39 0 41 0;
#X connect 40 0 41 1;
#X connect 41 0 42 0;
#X connect 42 0 36 0;
#X connect 43 0 44 0;
#X connect 44 0 45 0;
#X connect 45 0 46 0;
#X connect 46 0 47 0;
#X connect 47 0 48 0;
#X connect 48 0 49 1;
#X connect 49 0 57 0;
#X connect 50 0 55 0;
#X connect 51 0 52 0;
#X connect 52 0 53 0;
#X connect 53 0 54 1;
#X connect 54 0 37 0;
#X connect 55 0 51 0;
#X connect 56 0 50 0;
#X connect 57 0 35 0;
#X connect 58 0 23 0;
#X connect 58 1 23 0;
#X connect 59 0 11 0;
#X connect 59 1 39 0;
#X connect 59 2 40 0;
#X connect 60 0 61 0;
#X connect 61 0 62 0;
#X connect 62 0 29 0;
#X connect 63 0 59 0;
#X connect 64 0 56 0;
#X connect 65 0 43 0;
#X connect 66 0 27 0;
#X connect 67 0 31 0;
#X coords 0 -1 1 1 16 16 2 100 100;
#X restore 387 126 pd \$0-step-1;
#N canvas 52 52 1022 659 \$0-step-2 0;
#X obj 102 102 tgl 12 0 empty empty empty 17 7 0 10 #606060 #000000
#dcdcdc 0 1;
#X obj 100 100 cnv 16 16 16 empty empty empty 20 12 0 14 #202020 #404040
0;
#X obj 103 103 cnv 10 10 10 \$0-step-2-send \$0-step-2-recv empty 20
12 0 14 #bcbcbc #404040 0;
#X obj 171 442 f;
#X obj 171 420 t b f;
#X obj 100 206 spigot 0;
#X obj 145 162 tgl 15 0 empty empty empty 17 7 0 10 #fcfcfc #000000
#000000 0 1;
#X obj 145 139 change;
#X obj 145 116 == 0;
#X obj 216 372 tgl 15 0 empty empty empty 17 7 0 10 #fcfcfc #000000
#000000 0 1;
#X obj 171 345 change;
#X obj 171 395 spigot 0;
#X obj 171 322 == 0;
#X obj 171 366 t b f;
#X obj 171 462 t b b;
#X obj 100 251 f;
#X obj 100 229 t b f;
#X obj 100 271 t b b;
#X obj 145 184 t f f;
#X obj 56 129 tgl 15 0 empty empty empty 17 7 0 10 #fcfcfc #000000
#000000 0 1;
#X obj 55 150 t f b f;
#X obj 192 17 inlet;
#X obj 294 66 loadbang;
#X msg 144 94 0;
#X obj 376 108 \$1;
#X msg 377 133 \$1;
#X floatatom 372 154 5 0 0 0 - - - 0;
#X obj 364 260 t b s;
#X msg 360 283 bang;
#X obj 356 202 t f f;
#X obj 68 695 symbol;
#X obj 67 654 t b s;
#X msg 63 677 bang;
#X obj 51 716 s;
#X symbolatom 149 688 40 0 0 0 - - - 0;
#X obj 474 609 s;
#X obj 340 592 s;
#X msg 676 579 color 16;
#X obj 436 513 symbol;
#X msg 344 518 bang;
#X msg 394 519 \$1;
#X obj 345 539 f;
#X msg 343 560 color \$1;
#X obj 642 336 == 16;
#X obj 644 366 change;
#X obj 646 387 == 0;
#X obj 647 412 t b;
#X obj 651 439 bng 15 250 50 0 empty empty empty 17 7 0 10 #fcfcfc
#000000 #000000;
#X obj 650 473 tgl 15 0 empty empty empty 17 7 0 10 #fcfcfc #000000
#000000 0 1;
#X obj 603 494 spigot 0;
#X obj 742 405 change;
#X obj 745 451 t b;
#X obj 749 478 bng 15 250 50 0 empty empty empty 17 7 0 10 #fcfcfc
#000000 #000000;
#X obj 748 512 tgl 15 0 empty empty empty 17 7 0 10 #fcfcfc #000000
#000000 0 1;
#X obj 701 533 spigot 0;
#X obj 744 426 == 1;
#X obj 740 375 != 16;
#X msg 552 528 color 13;
#X obj 324 93 t b b;
#X obj 376 456 t b b f;
#X obj 289 98 \$0;
#X msg 288 119 \$1;
#X floatatom 284 148 5 0 0 0 - - - 0;
#X obj 379 434 r NewUiColorColorNum;
#X obj 744 342 r NewUiColorColorNum;
#X obj 646 303 r NewUiColorColorNum;
#X msg 361 234 symbol \$1-step-2-recv;
#X msg 65 628 symbol \$1-step-2;
#X connect 0 0 19 0;
#X connect 3 0 14 0;
#X connect 4 0 3 0;
#X connect 4 1 3 1;
#X connect 5 0 16 0;
#X connect 6 0 18 0;
#X connect 7 0 6 0;
#X connect 8 0 7 0;
#X connect 9 0 11 1;
#X connect 10 0 13 0;
#X connect 11 0 4 0;
#X connect 12 0 10 0;
#X connect 13 0 11 0;
#X connect 13 1 9 0;
#X connect 14 0 49 0;
#X connect 14 1 54 0;
#X connect 15 0 17 0;
#X connect 16 0 15 0;
#X connect 16 1 15 1;
#X connect 17 0 39 0;
#X connect 17 1 28 0;
#X connect 18 0 5 1;
#X connect 18 1 12 0;
#X connect 19 0 20 0;
#X connect 20 0 33 0;
#X connect 20 1 5 0;
#X connect 20 2 8 0;
#X connect 21 0 19 0;
#X connect 22 0 24 0;
#X connect 22 0 58 0;
#X connect 22 0 60 0;
#X connect 23 0 8 0;
#X connect 23 0 19 0;
#X connect 24 0 25 0;
#X connect 25 0 26 0;
#X connect 27 0 28 0;
#X connect 27 1 38 1;
#X connect 28 0 38 0;
#X connect 29 0 66 0;
#X connect 29 1 67 0;
#X connect 30 0 33 1;
#X connect 31 0 32 0;
#X connect 31 1 30 1;
#X connect 31 1 34 0;
#X connect 32 0 30 0;
#X connect 37 0 35 0;
#X connect 38 0 36 1;
#X connect 38 0 35 1;
#X connect 39 0 41 0;
#X connect 40 0 41 1;
#X connect 41 0 42 0;
#X connect 42 0 36 0;
#X connect 43 0 44 0;
#X connect 44 0 45 0;
#X connect 45 0 46 0;
#X connect 46 0 47 0;
#X connect 47 0 48 0;
#X connect 48 0 49 1;
#X connect 49 0 57 0;
#X connect 50 0 55 0;
#X connect 51 0 52 0;
#X connect 52 0 53 0;
#X connect 53 0 54 1;
#X connect 54 0 37 0;
#X connect 55 0 51 0;
#X connect 56 0 50 0;
#X connect 57 0 35 0;
#X connect 58 0 23 0;
#X connect 58 1 23 0;
#X connect 59 0 11 0;
#X connect 59 1 39 0;
#X connect 59 2 40 0;
#X connect 60 0 61 0;
#X connect 61 0 62 0;
#X connect 62 0 29 0;
#X connect 63 0 59 0;
#X connect 64 0 56 0;
#X connect 65 0 43 0;
#X connect 66 0 27 0;
#X connect 67 0 31 0;
#X coords 0 -1 1 1 16 16 2 100 100;
#X restore 404 126 pd \$0-step-2;
#N canvas 52 52 1022 659 \$0-step-3 0;
#X obj 102 102 tgl 12 0 empty empty empty 17 7 0 10 #606060 #000000
#dcdcdc 0 1;
#X obj 100 100 cnv 16 16 16 empty empty empty 20 12 0 14 #202020 #404040
0;
#X obj 103 103 cnv 10 10 10 \$0-step-3-send \$0-step-3-recv empty 20
12 0 14 #bcbcbc #404040 0;
#X obj 171 442 f;
#X obj 171 420 t b f;
#X obj 100 206 spigot 0;
#X obj 145 162 tgl 15 0 empty empty empty 17 7 0 10 #fcfcfc #000000
#000000 0 1;
#X obj 145 139 change;
#X obj 145 116 == 0;
#X obj 216 372 tgl 15 0 empty empty empty 17 7 0 10 #fcfcfc #000000
#000000 0 1;
#X obj 171 345 change;
#X obj 171 395 spigot 0;
#X obj 171 322 == 0;
#X obj 171 366 t b f;
#X obj 171 462 t b b;
#X obj 100 251 f;
#X obj 100 229 t b f;
#X obj 100 271 t b b;
#X obj 145 184 t f f;
#X obj 56 129 tgl 15 0 empty empty empty 17 7 0 10 #fcfcfc #000000
#000000 0 1;
#X obj 55 150 t f b f;
#X obj 192 17 inlet;
#X obj 294 66 loadbang;
#X msg 144 94 0;
#X obj 376 108 \$1;
#X msg 377 133 \$1;
#X floatatom 372 154 5 0 0 0 - - - 0;
#X obj 364 260 t b s;
#X msg 360 283 bang;
#X obj 356 202 t f f;
#X obj 68 695 symbol;
#X obj 67 654 t b s;
#X msg 63 677 bang;
#X obj 51 716 s;
#X symbolatom 149 688 40 0 0 0 - - - 0;
#X obj 474 609 s;
#X obj 340 592 s;
#X msg 676 579 color 16;
#X obj 436 513 symbol;
#X msg 344 518 bang;
#X msg 394 519 \$1;
#X obj 345 539 f;
#X msg 343 560 color \$1;
#X obj 642 336 == 16;
#X obj 644 366 change;
#X obj 646 387 == 0;
#X obj 647 412 t b;
#X obj 651 439 bng 15 250 50 0 empty empty empty 17 7 0 10 #fcfcfc
#000000 #000000;
#X obj 650 473 tgl 15 0 empty empty empty 17 7 0 10 #fcfcfc #000000
#000000 0 1;
#X obj 603 494 spigot 0;
#X obj 742 405 change;
#X obj 745 451 t b;
#X obj 749 478 bng 15 250 50 0 empty empty empty 17 7 0 10 #fcfcfc
#000000 #000000;
#X obj 748 512 tgl 15 0 empty empty empty 17 7 0 10 #fcfcfc #000000
#000000 0 1;
#X obj 701 533 spigot 0;
#X obj 744 426 == 1;
#X obj 740 375 != 16;
#X msg 552 528 color 13;
#X obj 324 93 t b b;
#X obj 376 456 t b b f;
#X obj 289 98 \$0;
#X msg 288 119 \$1;
#X floatatom 284 148 5 0 0 0 - - - 0;
#X obj 379 434 r NewUiColorColorNum;
#X obj 744 342 r NewUiColorColorNum;
#X obj 646 303 r NewUiColorColorNum;
#X msg 361 234 symbol \$1-step-3-recv;
#X msg 65 628 symbol \$1-step-3;
#X connect 0 0 19 0;
#X connect 3 0 14 0;
#X connect 4 0 3 0;
#X connect 4 1 3 1;
#X connect 5 0 16 0;
#X connect 6 0 18 0;
#X connect 7 0 6 0;
#X connect 8 0 7 0;
#X connect 9 0 11 1;
#X connect 10 0 13 0;
#X connect 11 0 4 0;
#X connect 12 0 10 0;
#X connect 13 0 11 0;
#X connect 13 1 9 0;
#X connect 14 0 49 0;
#X connect 14 1 54 0;
#X connect 15 0 17 0;
#X connect 16 0 15 0;
#X connect 16 1 15 1;
#X connect 17 0 39 0;
#X connect 17 1 28 0;
#X connect 18 0 5 1;
#X connect 18 1 12 0;
#X connect 19 0 20 0;
#X connect 20 0 33 0;
#X connect 20 1 5 0;
#X connect 20 2 8 0;
#X connect 21 0 19 0;
#X connect 22 0 24 0;
#X connect 22 0 58 0;
#X connect 22 0 60 0;
#X connect 23 0 8 0;
#X connect 23 0 19 0;
#X connect 24 0 25 0;
#X connect 25 0 26 0;
#X connect 27 0 28 0;
#X connect 27 1 38 1;
#X connect 28 0 38 0;
#X connect 29 0 66 0;
#X connect 29 1 67 0;
#X connect 30 0 33 1;
#X connect 31 0 32 0;
#X connect 31 1 30 1;
#X connect 31 1 34 0;
#X connect 32 0 30 0;
#X connect 37 0 35 0;
#X connect 38 0 36 1;
#X connect 38 0 35 1;
#X connect 39 0 41 0;
#X connect 40 0 41 1;
#X connect 41 0 42 0;
#X connect 42 0 36 0;
#X connect 43 0 44 0;
#X connect 44 0 45 0;
#X connect 45 0 46 0;
#X connect 46 0 47 0;
#X connect 47 0 48 0;
#X connect 48 0 49 1;
#X connect 49 0 57 0;
#X connect 50 0 55 0;
#X connect 51 0 52 0;
#X connect 52 0 53 0;
#X connect 53 0 54 1;
#X connect 54 0 37 0;
#X connect 55 0 51 0;
#X connect 56 0 50 0;
#X connect 57 0 35 0;
#X connect 58 0 23 0;
#X connect 58 1 23 0;
#X connect 59 0 11 0;
#X connect 59 1 39 0;
#X connect 59 2 40 0;
#X connect 60 0 61 0;
#X connect 61 0 62 0;
#X connect 62 0 29 0;
#X connect 63 0 59 0;
#X connect 64 0 56 0;
#X connect 65 0 43 0;
#X connect 66 0 27 0;
#X connect 67 0 31 0;
#X coords 0 -1 1 1 16 16 2 100 100;
#X restore 421 126 pd \$0-step-3;
#N canvas 52 52 1022 659 \$0-step-4 0;
#X obj 102 102 tgl 12 0 empty empty empty 17 7 0 10 #606060 #000000
#dcdcdc 0 1;
#X obj 100 100 cnv 16 16 16 empty empty empty 20 12 0 14 #202020 #404040
0;
#X obj 103 103 cnv 10 10 10 \$0-step-4-send \$0-step-4-recv empty 20
12 0 14 #14e814 #404040 0;
#X obj 171 442 f;
#X obj 171 420 t b f;
#X obj 100 206 spigot 0;
#X obj 145 162 tgl 15 0 empty empty empty 17 7 0 10 #fcfcfc #000000
#000000 0 1;
#X obj 145 139 change;
#X obj 145 116 == 0;
#X obj 216 372 tgl 15 0 empty empty empty 17 7 0 10 #fcfcfc #000000
#000000 0 1;
#X obj 171 345 change;
#X obj 171 395 spigot 0;
#X obj 171 322 == 0;
#X obj 171 366 t b f;
#X obj 171 462 t b b;
#X obj 100 251 f;
#X obj 100 229 t b f;
#X obj 100 271 t b b;
#X obj 145 184 t f f;
#X obj 56 129 tgl 15 0 empty empty empty 17 7 0 10 #fcfcfc #000000
#000000 0 1;
#X obj 55 150 t f b f;
#X obj 53 32 inlet;
#X obj 294 66 loadbang;
#X msg 144 94 0;
#X obj 376 108 \$1;
#X msg 377 133 \$1;
#X floatatom 372 154 5 0 0 0 - - - 0;
#X obj 364 260 t b s;
#X msg 360 283 bang;
#X obj 356 202 t f f;
#X obj 68 695 symbol;
#X obj 67 654 t b s;
#X msg 63 677 bang;
#X obj 51 716 s;
#X symbolatom 149 688 40 0 0 0 - - - 0;
#X obj 474 609 s;
#X obj 340 592 s;
#X msg 676 579 color 16;
#X obj 436 513 symbol;
#X msg 344 518 bang;
#X msg 394 519 \$1;
#X obj 345 539 f;
#X msg 343 560 color \$1;
#X obj 642 336 == 16;
#X obj 644 366 change;
#X obj 646 387 == 0;
#X obj 647 412 t b;
#X obj 651 439 bng 15 250 50 0 empty empty empty 17 7 0 10 #fcfcfc
#000000 #000000;
#X obj 650 473 tgl 15 0 empty empty empty 17 7 0 10 #fcfcfc #000000
#000000 0 1;
#X obj 603 494 spigot 0;
#X obj 742 405 change;
#X obj 745 451 t b;
#X obj 749 478 bng 15 250 50 0 empty empty empty 17 7 0 10 #fcfcfc
#000000 #000000;
#X obj 748 512 tgl 15 0 empty empty empty 17 7 0 10 #fcfcfc #000000
#000000 0 1;
#X obj 701 533 spigot 0;
#X obj 744 426 == 1;
#X obj 740 375 != 16;
#X msg 552 528 color 13;
#X obj 324 93 t b b;
#X obj 376 456 t b b f;
#X obj 289 98 \$0;
#X msg 288 119 \$1;
#X floatatom 284 148 5 0 0 0 - - - 0;
#X obj 379 434 r NewUiColorColorNum;
#X obj 744 342 r NewUiColorColorNum;
#X obj 646 303 r NewUiColorColorNum;
#X msg 361 234 symbol \$1-step-4-recv;
#X msg 65 628 symbol \$1-step-4;
#X connect 0 0 19 0;
#X connect 3 0 14 0;
#X connect 4 0 3 0;
#X connect 4 1 3 1;
#X connect 5 0 16 0;
#X connect 6 0 18 0;
#X connect 7 0 6 0;
#X connect 8 0 7 0;
#X connect 9 0 11 1;
#X connect 10 0 13 0;
#X connect 11 0 4 0;
#X connect 12 0 10 0;
#X connect 13 0 11 0;
#X connect 13 1 9 0;
#X connect 14 0 49 0;
#X connect 14 1 54 0;
#X connect 15 0 17 0;
#X connect 16 0 15 0;
#X connect 16 1 15 1;
#X connect 17 0 39 0;
#X connect 17 1 28 0;
#X connect 18 0 5 1;
#X connect 18 1 12 0;
#X connect 19 0 20 0;
#X connect 20 0 33 0;
#X connect 20 1 5 0;
#X connect 20 2 8 0;
#X connect 21 0 19 0;
#X connect 22 0 24 0;
#X connect 22 0 58 0;
#X connect 22 0 60 0;
#X connect 23 0 8 0;
#X connect 23 0 19 0;
#X connect 24 0 25 0;
#X connect 25 0 26 0;
#X connect 27 0 28 0;
#X connect 27 1 38 1;
#X connect 28 0 38 0;
#X connect 29 0 66 0;
#X connect 29 1 67 0;
#X connect 30 0 33 1;
#X connect 31 0 32 0;
#X connect 31 1 30 1;
#X connect 31 1 34 0;
#X connect 32 0 30 0;
#X connect 37 0 35 0;
#X connect 38 0 36 1;
#X connect 38 0 35 1;
#X connect 39 0 41 0;
#X connect 40 0 41 1;
#X connect 41 0 42 0;
#X connect 42 0 36 0;
#X connect 43 0 44 0;
#X connect 44 0 45 0;
#X connect 45 0 46 0;
#X connect 46 0 47 0;
#X connect 47 0 48 0;
#X connect 48 0 49 1;
#X connect 49 0 57 0;
#X connect 50 0 55 0;
#X connect 51 0 52 0;
#X connect 52 0 53 0;
#X connect 53 0 54 1;
#X connect 54 0 37 0;
#X connect 55 0 51 0;
#X connect 56 0 50 0;
#X connect 57 0 35 0;
#X connect 58 0 23 0;
#X connect 58 1 23 0;
#X connect 59 0 11 0;
#X connect 59 1 39 0;
#X connect 59 2 40 0;
#X connect 60 0 61 0;
#X connect 61 0 62 0;
#X connect 62 0 29 0;
#X connect 63 0 59 0;
#X connect 64 0 56 0;
#X connect 65 0 43 0;
#X connect 66 0 27 0;
#X connect 67 0 31 0;
#X coords 0 -1 1 1 16 16 2 100 100;
#X restore 436 126 pd \$0-step-4;
#N canvas 52 52 1022 659 \$0-step-5 0;
#X obj 102 102 tgl 12 0 empty empty empty 17 7 0 10 #606060 #000000
#dcdcdc 0 1;
#X obj 100 100 cnv 16 16 16 empty empty empty 20 12 0 14 #202020 #404040
0;
#X obj 103 103 cnv 10 10 10 \$0-step-5-send \$0-step-5-recv empty 20
12 0 14 #bcbcbc #404040 0;
#X obj 171 442 f;
#X obj 171 420 t b f;
#X obj 100 206 spigot 0;
#X obj 145 162 tgl 15 0 empty empty empty 17 7 0 10 #fcfcfc #000000
#000000 0 1;
#X obj 145 139 change;
#X obj 145 116 == 0;
#X obj 216 372 tgl 15 0 empty empty empty 17 7 0 10 #fcfcfc #000000
#000000 0 1;
#X obj 171 345 change;
#X obj 171 395 spigot 0;
#X obj 171 322 == 0;
#X obj 171 366 t b f;
#X obj 171 462 t b b;
#X obj 100 251 f;
#X obj 100 229 t b f;
#X obj 100 271 t b b;
#X obj 145 184 t f f;
#X obj 56 129 tgl 15 0 empty empty empty 17 7 0 10 #fcfcfc #000000
#000000 0 1;
#X obj 55 150 t f b f;
#X obj 192 17 inlet;
#X obj 294 66 loadbang;
#X msg 144 94 0;
#X obj 376 108 \$1;
#X msg 377 133 \$1;
#X floatatom 372 154 5 0 0 0 - - - 0;
#X obj 364 260 t b s;
#X msg 360 283 bang;
#X obj 356 202 t f f;
#X obj 68 695 symbol;
#X obj 67 654 t b s;
#X msg 63 677 bang;
#X obj 51 716 s;
#X symbolatom 149 688 40 0 0 0 - - - 0;
#X obj 474 609 s;
#X obj 340 592 s;
#X msg 676 579 color 16;
#X obj 436 513 symbol;
#X msg 344 518 bang;
#X msg 394 519 \$1;
#X obj 345 539 f;
#X msg 343 560 color \$1;
#X obj 642 336 == 16;
#X obj 644 366 change;
#X obj 646 387 == 0;
#X obj 647 412 t b;
#X obj 651 439 bng 15 250 50 0 empty empty empty 17 7 0 10 #fcfcfc
#000000 #000000;
#X obj 650 473 tgl 15 0 empty empty empty 17 7 0 10 #fcfcfc #000000
#000000 0 1;
#X obj 603 494 spigot 0;
#X obj 742 405 change;
#X obj 745 451 t b;
#X obj 749 478 bng 15 250 50 0 empty empty empty 17 7 0 10 #fcfcfc
#000000 #000000;
#X obj 748 512 tgl 15 0 empty empty empty 17 7 0 10 #fcfcfc #000000
#000000 0 1;
#X obj 701 533 spigot 0;
#X obj 744 426 == 1;
#X obj 740 375 != 16;
#X msg 552 528 color 13;
#X obj 324 93 t b b;
#X obj 376 456 t b b f;
#X obj 289 98 \$0;
#X msg 288 119 \$1;
#X floatatom 284 148 5 0 0 0 - - - 0;
#X obj 379 434 r NewUiColorColorNum;
#X obj 744 342 r NewUiColorColorNum;
#X obj 646 303 r NewUiColorColorNum;
#X msg 65 628 symbol \$1-step-5;
#X msg 361 234 symbol \$1-step-5-recv;
#X connect 0 0 19 0;
#X connect 3 0 14 0;
#X connect 4 0 3 0;
#X connect 4 1 3 1;
#X connect 5 0 16 0;
#X connect 6 0 18 0;
#X connect 7 0 6 0;
#X connect 8 0 7 0;
#X connect 9 0 11 1;
#X connect 10 0 13 0;
#X connect 11 0 4 0;
#X connect 12 0 10 0;
#X connect 13 0 11 0;
#X connect 13 1 9 0;
#X connect 14 0 49 0;
#X connect 14 1 54 0;
#X connect 15 0 17 0;
#X connect 16 0 15 0;
#X connect 16 1 15 1;
#X connect 17 0 39 0;
#X connect 17 1 28 0;
#X connect 18 0 5 1;
#X connect 18 1 12 0;
#X connect 19 0 20 0;
#X connect 20 0 33 0;
#X connect 20 1 5 0;
#X connect 20 2 8 0;
#X connect 21 0 19 0;
#X connect 22 0 24 0;
#X connect 22 0 58 0;
#X connect 22 0 60 0;
#X connect 23 0 8 0;
#X connect 23 0 19 0;
#X connect 24 0 25 0;
#X connect 25 0 26 0;
#X connect 27 0 28 0;
#X connect 27 1 38 1;
#X connect 28 0 38 0;
#X connect 29 0 67 0;
#X connect 29 1 66 0;
#X connect 30 0 33 1;
#X connect 31 0 32 0;
#X connect 31 1 30 1;
#X connect 31 1 34 0;
#X connect 32 0 30 0;
#X connect 37 0 35 0;
#X connect 38 0 36 1;
#X connect 38 0 35 1;
#X connect 39 0 41 0;
#X connect 40 0 41 1;
#X connect 41 0 42 0;
#X connect 42 0 36 0;
#X connect 43 0 44 0;
#X connect 44 0 45 0;
#X connect 45 0 46 0;
#X connect 46 0 47 0;
#X connect 47 0 48 0;
#X connect 48 0 49 1;
#X connect 49 0 57 0;
#X connect 50 0 55 0;
#X connect 51 0 52 0;
#X connect 52 0 53 0;
#X connect 53 0 54 1;
#X connect 54 0 37 0;
#X connect 55 0 51 0;
#X connect 56 0 50 0;
#X connect 57 0 35 0;
#X connect 58 0 23 0;
#X connect 58 1 23 0;
#X connect 59 0 11 0;
#X connect 59 1 39 0;
#X connect 59 2 40 0;
#X connect 60 0 61 0;
#X connect 61 0 62 0;
#X connect 62 0 29 0;
#X connect 63 0 59 0;
#X connect 64 0 56 0;
#X connect 65 0 43 0;
#X connect 66 0 31 0;
#X connect 67 0 27 0;
#X coords 0 -1 1 1 16 16 2 100 100;
#X restore 453 126 pd \$0-step-5;
#X obj 270 127 cnv 15 25 16 \$0-bpmProperties-recv \$0-bpmProperties-recv
Time\\\ Division 3 8 0 12 #404040 #000000 0;
#X obj 471 127 cnv 15 25 16 \$0-timeProperties-recv \$0-timeProperties-recv
1/16 3 8 0 12 #404040 #000000 0;
#X msg 1517 197 set_swing \$1;
#X msg 1514 170 set_human \$1;
#X msg 1509 141 set_mistakes \$1;
#X msg 1499 256 set_bpm \$1;
#X msg 1514 225 set_timediv \$1;
#X msg 1435 66 0;
#X msg 1471 63 1;
#X msg 1504 72 2;
#X msg 1534 70 3;
#X msg 1573 69 4;
#X msg 1603 67 5;
#X obj 1459 110 route float;
#X obj 1400 10 r \$0-step-0;
#X obj 1485 10 r \$0-step-1;
#X obj 1578 8 r \$0-step-2;
#X obj 1412 37 r \$0-step-3;
#X obj 1503 36 r \$0-step-4;
#X obj 1593 36 r \$0-step-5;
#X floatatom 1458 140 5 0 0 0 - - - 0;
#X msg 1573 281 set_totalsteps \$1;
#X obj 1638 464 s \$0-timeProperties-recv;
#X obj 1643 383 r divsymbol;
#X obj 1646 412 l2s;
#X msg 1646 436 label \$1;
#N canvas 234 234 672 300 \$0-patchdefaults 0;
#X obj 52 108 outlet;
#X obj 120 109 outlet;
#X obj 189 109 outlet;
#X obj 166 20 loadbang;
#X msg 54 82 80;
#X msg 120 85 16;
#X obj 255 107 outlet;
#X obj 314 106 outlet;
#X obj 369 110 outlet;
#X msg 255 80 0.3;
#X msg 312 79 0.2;
#X msg 369 83 0.3;
#X msg 424 83 0;
#X obj 164 45 t b b b b b b b;
#X obj 422 108 outlet;
#X connect 3 0 13 0;
#X connect 4 0 0 0;
#X connect 5 0 1 0;
#X connect 9 0 6 0;
#X connect 10 0 7 0;
#X connect 11 0 8 0;
#X connect 12 0 14 0;
#X connect 13 0 4 0;
#X connect 13 1 5 0;
#X connect 13 2 2 0;
#X connect 13 3 9 0;
#X connect 13 4 10 0;
#X connect 13 5 11 0;
#X connect 13 6 12 0;
#X restore 213 69 pd \$0-patchdefaults;
#X obj 1210 288 t b;
#X msg 4 65 randomize;
#X obj 1163 343 t b b b b b b b b b b b;
#X obj 1604 539 s \$0-instep;
#X obj 78 27 r \$0-instep;
#X obj 180 -7 r \$0-newseedperbar;
#X msg 106 67 randomseed;
#X obj 1534 567 s \$0-newseedperbar;
#X obj 1536 517 t b;
#X obj 1210 317 s \$0-randomizeallvalues;
#X obj 4 -5 r \$0-randomizeallvalues;
#N canvas 52 52 450 600 \$0-finishmidirelease 0;
#X floatatom 133 293 8 0 0 0 - - - 0;
#X obj 133 267 line 0 100;
#X obj 135 215 pack f f;
#X floatatom 137 143 7 0 0 0 - - - 0;
#X obj 135 168 t b f;
#X obj 134 192 f;
#X msg 133 240 \$1 \, 0 \$2;
#X obj 137 116 t f f;
#X obj 134 91 f;
#X obj 152 66 r \$0-midirelease;
#X obj 178 336 outlet;
#X obj 144 502 pack f f;
#X obj 144 475 f;
#X obj 144 453 t b f;
#X msg 140 529 \$1 \$2;
#X obj 146 426 f;
#X obj 128 392 t b b f;
#X obj 129 322 sel 0;
#X obj 129 346 bng 15 250 50 0 empty empty empty 17 7 0 10 #fcfcfc
#000000 #000000;
#X msg 128 368 0;
#X obj 136 43 inlet;
#X obj 139 554 outlet;
#X obj 64 554 outlet;
#X obj 80 43 inlet;
#X connect 0 0 10 0;
#X connect 0 0 17 0;
#X connect 1 0 0 0;
#X connect 2 0 6 0;
#X connect 3 0 4 0;
#X connect 4 0 5 0;
#X connect 4 1 2 1;
#X connect 5 0 2 0;
#X connect 6 0 1 0;
#X connect 7 0 3 0;
#X connect 7 1 5 1;
#X connect 8 0 7 0;
#X connect 9 0 8 1;
#X connect 11 0 14 0;
#X connect 12 0 11 0;
#X connect 13 0 12 0;
#X connect 13 1 11 1;
#X connect 14 0 21 0;
#X connect 15 0 13 0;
#X connect 16 0 22 0;
#X connect 16 1 15 0;
#X connect 16 2 15 1;
#X connect 17 0 18 0;
#X connect 18 0 19 0;
#X connect 19 0 16 0;
#X connect 20 0 8 0;
#X connect 23 0 12 1;
#X restore 1004 536 pd \$0-finishmidirelease;
#X obj 1083 564 t a;
#X obj 1004 564 t b;
#N canvas 52 52 1022 659 \$0-euclideantoggle 0;
#X obj 102 102 tgl 12 0 empty empty empty 17 7 0 10 #606060 #000000
#dcdcdc 0 1;
#X obj 100 100 cnv 16 16 16 empty empty empty 20 12 0 14 #202020 #404040
0;
#X obj 103 103 cnv 10 10 10 \$0-eutoggle-send \$0-eutoggle-recv empty
20 12 0 14 #bcbcbc #404040 0;
#X obj 171 442 f;
#X obj 171 420 t b f;
#X obj 100 206 spigot 0;
#X obj 145 162 tgl 15 0 empty empty empty 17 7 0 10 #fcfcfc #000000
#000000 0 1;
#X obj 145 139 change;
#X obj 145 116 == 0;
#X obj 216 372 tgl 15 0 empty empty empty 17 7 0 10 #fcfcfc #000000
#000000 0 1;
#X obj 171 345 change;
#X obj 171 395 spigot 0;
#X obj 171 322 == 0;
#X obj 171 366 t b f;
#X obj 171 462 t b b;
#X obj 100 251 f;
#X obj 100 229 t b f;
#X obj 100 271 t b b;
#X obj 145 184 t f f;
#X obj 56 129 tgl 15 0 empty empty empty 17 7 0 10 #fcfcfc #000000
#000000 0 1;
#X obj 55 150 t f b f;
#X obj 192 17 inlet;
#X obj 294 66 loadbang;
#X msg 388 168 0;
#X obj 336 100 \$1;
#X msg 337 125 \$1;
#X floatatom 332 146 5 0 0 0 - - - 0;
#X obj 364 260 t b s;
#X msg 360 283 bang;
#X obj 356 202 t f f;
#X obj 68 695 symbol;
#X obj 67 654 t b s;
#X msg 63 677 bang;
#X obj 51 716 s;
#X symbolatom 149 688 40 0 0 0 - - - 0;
#X obj 474 609 s;
#X obj 340 592 s;
#X msg 676 579 color 16;
#X obj 436 513 symbol;
#X msg 344 518 bang;
#X msg 394 519 \$1;
#X obj 345 539 f;
#X msg 343 560 color \$1;
#X obj 642 336 == 16;
#X obj 644 366 change;
#X obj 646 387 == 0;
#X obj 647 412 t b;
#X obj 651 439 bng 15 250 50 0 empty empty empty 17 7 0 10 #fcfcfc
#000000 #000000;
#X obj 650 473 tgl 15 0 empty empty empty 17 7 0 10 #fcfcfc #000000
#000000 0 1;
#X obj 603 494 spigot 0;
#X obj 742 405 change;
#X obj 745 451 t b;
#X obj 749 478 bng 15 250 50 0 empty empty empty 17 7 0 10 #fcfcfc
#000000 #000000;
#X obj 748 512 tgl 15 0 empty empty empty 17 7 0 10 #fcfcfc #000000
#000000 0 1;
#X obj 701 533 spigot 0;
#X obj 744 426 == 1;
#X obj 740 375 != 16;
#X msg 552 528 color 13;
#X obj 388 93 t b b;
#X obj 376 456 t b b f;
#X obj 289 98 \$0;
#X msg 288 119 \$1;
#X floatatom 284 148 5 0 0 0 - - - 0;
#X obj 379 434 r NewUiColorColorNum;
#X obj 744 342 r NewUiColorColorNum;
#X obj 646 303 r NewUiColorColorNum;
#X msg 361 234 symbol \$1-eutoggle-recv;
#X msg 65 628 symbol \$1-eutoggle;
#X msg 417 121 1;
#X obj 388 144 del 500;
#X obj 456 105 del 20;
#X obj 399 57 bng 15 250 50 0 empty empty empty 17 7 0 10 #fcfcfc #000000
#000000;
#X connect 0 0 19 0;
#X connect 3 0 14 0;
#X connect 4 0 3 0;
#X connect 4 1 3 1;
#X connect 5 0 16 0;
#X connect 6 0 18 0;
#X connect 7 0 6 0;
#X connect 8 0 7 0;
#X connect 9 0 11 1;
#X connect 10 0 13 0;
#X connect 11 0 4 0;
#X connect 12 0 10 0;
#X connect 13 0 11 0;
#X connect 13 1 9 0;
#X connect 14 0 49 0;
#X connect 14 1 54 0;
#X connect 15 0 17 0;
#X connect 16 0 15 0;
#X connect 16 1 15 1;
#X connect 17 0 39 0;
#X connect 17 1 28 0;
#X connect 18 0 5 1;
#X connect 18 1 12 0;
#X connect 19 0 20 0;
#X connect 20 0 33 0;
#X connect 20 1 5 0;
#X connect 20 2 8 0;
#X connect 21 0 19 0;
#X connect 22 0 24 0;
#X connect 22 0 58 0;
#X connect 22 0 60 0;
#X connect 23 0 8 0;
#X connect 23 0 19 0;
#X connect 24 0 25 0;
#X connect 25 0 26 0;
#X connect 27 0 28 0;
#X connect 27 1 38 1;
#X connect 28 0 38 0;
#X connect 29 0 66 0;
#X connect 29 1 67 0;
#X connect 30 0 33 1;
#X connect 31 0 32 0;
#X connect 31 1 30 1;
#X connect 31 1 34 0;
#X connect 32 0 30 0;
#X connect 37 0 35 0;
#X connect 38 0 36 1;
#X connect 38 0 35 1;
#X connect 39 0 41 0;
#X connect 40 0 41 1;
#X connect 41 0 42 0;
#X connect 42 0 36 0;
#X connect 43 0 44 0;
#X connect 44 0 45 0;
#X connect 45 0 46 0;
#X connect 46 0 47 0;
#X connect 47 0 48 0;
#X connect 48 0 49 1;
#X connect 49 0 57 0;
#X connect 50 0 55 0;
#X connect 51 0 52 0;
#X connect 52 0 53 0;
#X connect 53 0 54 1;
#X connect 54 0 37 0;
#X connect 55 0 51 0;
#X connect 56 0 50 0;
#X connect 57 0 35 0;
#X connect 58 0 69 0;
#X connect 58 1 70 0;
#X connect 59 0 11 0;
#X connect 59 1 39 0;
#X connect 59 2 40 0;
#X connect 60 0 61 0;
#X connect 61 0 62 0;
#X connect 62 0 29 0;
#X connect 63 0 59 0;
#X connect 64 0 56 0;
#X connect 65 0 43 0;
#X connect 66 0 27 0;
#X connect 67 0 31 0;
#X connect 68 0 8 0;
#X connect 68 0 19 0;
#X connect 69 0 23 0;
#X connect 70 0 68 0;
#X connect 71 0 58 0;
#X coords 0 -1 1 1 16 16 2 100 100;
#X restore 104 103 pd \$0-euclideantoggle;
#X obj 1134 80 r \$0-eutoggle;
#X obj 1134 104 tgl 15 0 empty empty empty 17 7 0 10 #fcfcfc #000000
#000000 0 1;
#X obj 1004 239 spigot 0;
#X obj 1133 154 change;
#X obj 1133 129 == 1;
#X obj 1133 179 == 0;
#X obj 1133 204 tgl 15 0 empty empty empty 17 7 0 10 #fcfcfc #000000
#000000 0 1;
#X obj 1080 225 spigot 0;
#X obj 997 180 t a a;
#N canvas 515 170 1920 997 \$0-randomizesettings 0;
#X obj 268 59 tgl 15 0 empty empty empty 17 7 0 10 #fcfcfc #000000
#000000 0 1;
#X obj 268 185 spigot 0;
#X obj 268 119 change;
#X floatatom 268 164 5 0 0 0 - - - 0;
#X obj 268 97 == 0;
#X obj 282 142 == 0;
#X floatatom 479 137 5 0 0 0 - - - 0;
#X obj 479 116 == 0;
#X obj 479 156 change;
#X floatatom 479 201 5 0 0 0 - - - 0;
#X obj 479 180 == 1;
#X obj 479 220 spigot 0;
#X obj 91 23 inlet;
#X obj 101 122 bng 11 250 50 0 empty empty empty 17 7 0 10 #fcfcfc
#000000 #000000;
#X obj 125 101 bng 11 250 50 0 empty empty empty 17 7 0 10 #fcfcfc
#000000 #000000;
#X obj 830 36 loadbang;
#X obj 352 370 tgl 10 0 exprtloopern-send exprtloopern-recv B 2 5 0
10 #b8b8b8 #000000 #000000 0 1;
#X msg 424 76 1;
#X obj 113 100 bng 11 250 50 0 empty empty empty 17 7 0 10 #fcfcfc
#000000 #000000;
#X msg 559 438 8;
#X msg 382 339 1;
#X msg 324 332 1;
#X obj 100 100 cnv 12 55 13 \$0-randomswitch-send \$0-randomswitch-recv
Randomize 6 8 0 9 #b8b8b8 #000000 0;
#X msg 216 408 6;
#X msg 510 433 6;
#X msg 261 415 8;
#X msg 832 88 \$1;
#X floatatom 816 111 5 0 0 0 - - - 0;
#X obj 776 531 symbol;
#X obj 819 215 t b s;
#X msg 788 266 bang;
#X obj 618 678 s;
#X obj 363 409 t b b;
#X obj 876 434 f;
#X obj 215 436 pack f f f;
#X obj 513 459 pack f f f;
#X obj 268 205 t b b b b b;
#X obj 831 63 \$0;
#X obj 905 78 \$1;
#X obj 489 271 f;
#X obj 484 250 bng 15 250 50 0 empty empty empty 17 7 0 10 #fcfcfc
#000000 #000000;
#X obj 474 51 del 10;
#X obj 473 75 bng 15 250 50 0 empty empty empty 17 7 0 10 #fcfcfc #000000
#000000;
#X floatatom 905 99 5 0 0 0 - - - 0;
#X obj 126 50 t b b;
#X obj 86 74 del 100;
#X msg 216 458 \; \$3-randomswitch-recv label_pos \$1 \$2;
#X msg 489 336 \; \$1-randomswitch-recv label Randomize \;;
#X msg 875 464 \; \$1-randomswitch-recv label Randomize \;;
#X msg 815 188 symbol \$1-processrandomize;
#X msg 513 482 \; \$3-randomswitch-recv label_pos \$1 \$2;
#X obj 895 309 t b a;
#X obj 815 130 t b a a a;
#X obj 483 295 t a b b b;
#X connect 0 0 1 1;
#X connect 0 0 4 0;
#X connect 0 0 7 0;
#X connect 0 0 11 1;
#X connect 1 0 36 0;
#X connect 2 0 5 0;
#X connect 3 0 1 0;
#X connect 4 0 2 0;
#X connect 5 0 3 0;
#X connect 6 0 8 0;
#X connect 7 0 6 0;
#X connect 8 0 10 0;
#X connect 9 0 11 0;
#X connect 10 0 9 0;
#X connect 11 0 40 0;
#X connect 12 0 44 0;
#X connect 13 0 0 0;
#X connect 14 0 0 0;
#X connect 15 0 37 0;
#X connect 16 0 32 0;
#X connect 17 0 0 0;
#X connect 18 0 0 0;
#X connect 19 0 35 1;
#X connect 20 0 16 0;
#X connect 21 0 16 0;
#X connect 23 0 34 0;
#X connect 24 0 35 0;
#X connect 25 0 34 1;
#X connect 26 0 27 0;
#X connect 27 0 38 1;
#X connect 27 0 52 0;
#X connect 28 0 31 1;
#X connect 29 0 30 0;
#X connect 29 1 28 1;
#X connect 30 0 28 0;
#X connect 32 0 31 0;
#X connect 32 1 30 0;
#X connect 33 0 48 0;
#X connect 33 0 34 2;
#X connect 33 0 35 2;
#X connect 34 0 46 0;
#X connect 35 0 50 0;
#X connect 36 1 21 0;
#X connect 36 2 23 0;
#X connect 36 3 25 0;
#X connect 36 4 33 0;
#X connect 37 0 26 0;
#X connect 38 0 43 0;
#X connect 39 0 53 0;
#X connect 40 0 39 0;
#X connect 41 0 42 0;
#X connect 42 0 17 0;
#X connect 44 0 45 0;
#X connect 44 1 13 0;
#X connect 45 0 13 0;
#X connect 49 0 29 0;
#X connect 51 0 33 0;
#X connect 51 1 33 1;
#X connect 52 0 41 0;
#X connect 52 1 49 0;
#X connect 52 2 51 0;
#X connect 52 3 39 1;
#X connect 53 0 47 0;
#X connect 53 1 20 0;
#X connect 53 2 24 0;
#X connect 53 3 19 0;
#X coords 0 -1 1 1 55 13 2 100 100;
#X restore 512 128 pd \$0-randomizesettings;
#X obj 340 -5 r \$0-processrandomize;
#X obj 194 34 t b;
#X obj 339 22 t b;
#N canvas 52 52 1022 659 \$0-inheritnotetoggle 0;
#X obj 102 102 tgl 12 0 empty empty empty 17 7 0 10 #606060 #000000
#dcdcdc 0 1;
#X obj 100 100 cnv 16 16 16 empty empty empty 20 12 0 14 #202020 #404040
0;
#X obj 103 103 cnv 10 10 10 \$0-inherittoggle-send \$0-inherittoggle-recv
empty 20 12 0 14 #bcbcbc #404040 0;
#X obj 171 442 f;
#X obj 171 420 t b f;
#X obj 100 206 spigot 0;
#X obj 145 162 tgl 15 0 empty empty empty 17 7 0 10 #fcfcfc #000000
#000000 0 1;
#X obj 145 139 change;
#X obj 145 116 == 0;
#X obj 216 372 tgl 15 0 empty empty empty 17 7 0 10 #fcfcfc #000000
#000000 0 1;
#X obj 171 345 change;
#X obj 171 395 spigot 0;
#X obj 171 322 == 0;
#X obj 171 366 t b f;
#X obj 171 462 t b b;
#X obj 100 251 f;
#X obj 100 229 t b f;
#X obj 100 271 t b b;
#X obj 145 184 t f f;
#X obj 56 129 tgl 15 0 empty empty empty 17 7 0 10 #fcfcfc #000000
#000000 0 1;
#X obj 55 150 t f b f;
#X obj 192 17 inlet;
#X obj 303 31 loadbang;
#X msg 219 215 0;
#X obj 376 108 \$1;
#X msg 377 133 \$1;
#X floatatom 372 154 5 0 0 0 - - - 0;
#X obj 364 260 t b s;
#X msg 360 283 bang;
#X obj 356 202 t f f;
#X obj 68 695 symbol;
#X obj 67 654 t b s;
#X msg 63 677 bang;
#X obj 51 716 s;
#X symbolatom 149 688 40 0 0 0 - - - 0;
#X obj 474 609 s;
#X obj 340 592 s;
#X msg 676 579 color 16;
#X obj 436 513 symbol;
#X msg 344 518 bang;
#X msg 394 519 \$1;
#X obj 345 539 f;
#X msg 343 560 color \$1;
#X obj 642 336 == 16;
#X obj 644 366 change;
#X obj 646 387 == 0;
#X obj 647 412 t b;
#X obj 651 439 bng 15 250 50 0 empty empty empty 17 7 0 10 #fcfcfc
#000000 #000000;
#X obj 650 473 tgl 15 0 empty empty empty 17 7 0 10 #fcfcfc #000000
#000000 0 1;
#X obj 603 494 spigot 0;
#X obj 742 405 change;
#X obj 745 451 t b;
#X obj 749 478 bng 15 250 50 0 empty empty empty 17 7 0 10 #fcfcfc
#000000 #000000;
#X obj 748 512 tgl 15 0 empty empty empty 17 7 0 10 #fcfcfc #000000
#000000 0 1;
#X obj 701 533 spigot 0;
#X obj 744 426 == 1;
#X obj 740 375 != 16;
#X msg 552 528 color 13;
#X obj 376 456 t b b f;
#X obj 289 98 \$0;
#X msg 288 119 \$1;
#X floatatom 284 148 5 0 0 0 - - - 0;
#X obj 379 434 r NewUiColorColorNum;
#X obj 744 342 r NewUiColorColorNum;
#X obj 646 303 r NewUiColorColorNum;
#X msg 468 107 1;
#X msg 361 234 symbol \$1-inherittoggle-recv;
#X msg 65 628 symbol \$1-inherittoggle;
#X obj 272 177 del;
#X obj 333 58 t b b;
#X connect 0 0 19 0;
#X connect 3 0 14 0;
#X connect 4 0 3 0;
#X connect 4 1 3 1;
#X connect 5 0 16 0;
#X connect 6 0 18 0;
#X connect 7 0 6 0;
#X connect 8 0 7 0;
#X connect 9 0 11 1;
#X connect 10 0 13 0;
#X connect 11 0 4 0;
#X connect 12 0 10 0;
#X connect 13 0 11 0;
#X connect 13 1 9 0;
#X connect 14 0 49 0;
#X connect 14 1 54 0;
#X connect 15 0 17 0;
#X connect 16 0 15 0;
#X connect 16 1 15 1;
#X connect 17 0 39 0;
#X connect 17 1 28 0;
#X connect 18 0 5 1;
#X connect 18 1 12 0;
#X connect 19 0 20 0;
#X connect 20 0 33 0;
#X connect 20 1 5 0;
#X connect 20 2 8 0;
#X connect 21 0 19 0;
#X connect 22 0 24 0;
#X connect 22 0 59 0;
#X connect 22 0 69 0;
#X connect 23 0 8 0;
#X connect 23 0 19 0;
#X connect 24 0 25 0;
#X connect 25 0 26 0;
#X connect 27 0 28 0;
#X connect 27 1 38 1;
#X connect 28 0 38 0;
#X connect 29 0 66 0;
#X connect 29 1 67 0;
#X connect 30 0 33 1;
#X connect 31 0 32 0;
#X connect 31 1 30 1;
#X connect 31 1 34 0;
#X connect 32 0 30 0;
#X connect 37 0 35 0;
#X connect 38 0 36 1;
#X connect 38 0 35 1;
#X connect 39 0 41 0;
#X connect 40 0 41 1;
#X connect 41 0 42 0;
#X connect 42 0 36 0;
#X connect 43 0 44 0;
#X connect 44 0 45 0;
#X connect 45 0 46 0;
#X connect 46 0 47 0;
#X connect 47 0 48 0;
#X connect 48 0 49 1;
#X connect 49 0 57 0;
#X connect 50 0 55 0;
#X connect 51 0 52 0;
#X connect 52 0 53 0;
#X connect 53 0 54 1;
#X connect 54 0 37 0;
#X connect 55 0 51 0;
#X connect 56 0 50 0;
#X connect 57 0 35 0;
#X connect 58 0 11 0;
#X connect 58 1 39 0;
#X connect 58 2 40 0;
#X connect 59 0 60 0;
#X connect 60 0 61 0;
#X connect 61 0 29 0;
#X connect 62 0 58 0;
#X connect 63 0 56 0;
#X connect 64 0 43 0;
#X connect 65 0 8 0;
#X connect 65 0 19 0;
#X connect 66 0 27 0;
#X connect 67 0 31 0;
#X connect 68 0 23 0;
#X connect 69 0 68 0;
#X connect 69 1 65 0;
#X coords 0 -1 1 1 16 16 2 100 100;
#X restore 489 102 pd \$0-inheritnotetoggle;
#X msg -46 145 inheritnote \$1;
#X obj 507 105 cnv 15 25 16 \$0-inhernote-recv \$0-inhernote-recv Inherit\\\ Note
3 8 0 12 #404040 #000000 0;
#X obj 1177 490 t a;
#X obj 1177 517 s \$0-inheritnote;
#X obj -50 206 r \$0-inherittoggle;
#X obj -44 114 r \$0-inheritnote;
#X obj 1002 441 t f f;
#X msg -43 236 inheritstate \$1;
#X msg 1163 369 allstop;
#X obj 1163 395 s \$0-panicallstop;
#X obj -47 313 t a;
#X obj -48 287 r \$0-panicallstop;
#X msg -94 418 set_maxsteps \$1;
#X obj 425 30 s \$0-maxrhyrhmsteps;
#X obj 1573 256 r \$0-maxrhyrhmsteps;
#X obj -90 354 r \$0-maxrhyrhmsteps;
#X obj -92 391 - 1;
#X obj 1070 751 outlet;
#X msg -84 620 get_datadump;
#X obj 1197 233 s \$0-requestdatadump;
#X obj -96 568 r \$0-requestdatadump;
#X obj -83 594 t b b;
#X obj 1197 207 t b;
#X obj 100 146 ce_ecluistack 1;
#X obj 100 219 ce_ecluistack 2;
#X obj 100 293 ce_ecluistack 3;
#X obj 100 367 ce_ecluistack 4;
#X obj 100 441 ce_ecluistack 5;
#X obj 100 515 ce_ecluistack 6;
#X obj 100 585 ce_ecluistack 7;
#X obj 100 659 ce_ecluistack 8;
#X obj 100 733 ce_ecluistack 9;
#X obj 100 807 ce_ecluistack 10;
#X obj 1196 181 route get_datadump load_ecluistack;
#X floatatom 1169 729 5 0 0 0 - - - 0;
#X obj 608 14 t a;
#X obj 1185 974 s;
#X obj 1226 938 symbol;
#X msg 1226 907 bang;
#X listbox 1226 967 20 0 0 0 - - - 0;
#X obj 1225 881 t b f;
#X obj 608 -11 r 1-loadecluistack;
#X obj 638 39 t a;
#X obj 670 62 t a;
#X obj 701 89 t a;
#X obj 730 114 t a;
#X obj 764 145 t a;
#X obj 794 170 t a;
#X obj 826 193 t a;
#X obj 857 220 t a;
#X obj 886 245 t a;
#X obj 638 14 r 2-loadecluistack;
#X obj 670 37 r 3-loadecluistack;
#X obj 701 64 r 4-loadecluistack;
#X obj 730 89 r 5-loadecluistack;
#X obj 764 120 r 6-loadecluistack;
#X obj 794 145 r 7-loadecluistack;
#X obj 826 168 r 8-loadecluistack;
#X obj 857 195 r 9-loadecluistack;
#X obj 886 220 r 10-loadecluistack;
#X msg 1267 906 symbol \$1-loadecluistack;
#X obj 1004 266 route inputmidi set_release allstop random_all get_datadump
load_ecluistack;
#X obj 1161 629 t b f;
#X obj 1158 706 f;
#X msg 1184 786 load_ecluistack \$1 \$2 \$3 \$4 \$5 \$6 \$7 \$8 \$9
\$10 \$11 \$12 \$13 \$14 \$15 \$16 \$17 \$18 \$19 \$20 \$21 \$22 \$23
\$24 \$25 \$26;
#X obj 1185 602 unpack f f f f f f f f f f f f f f f f f f f f f f
f f f f;
#X obj 1185 761 pack f f f f f f f f f f f f f f f f f f f f f f f
f f f;
#X obj 1158 685 bng 15 250 50 0 empty empty empty 17 7 0 10 #fcfcfc
#000000 #000000;
#X obj 1157 657 del 200;
#X obj 833 7 declare -lib clearessentials;
#X connect 0 0 1 0;
#X connect 2 0 3 0;
#X connect 2 1 4 0;
#X connect 2 2 5 0;
#X connect 2 3 6 0;
#X connect 4 0 68 0;
#X connect 6 0 63 0;
#X connect 7 0 83 0;
#X connect 7 0 122 0;
#X connect 8 0 15 0;
#X connect 8 1 11 0;
#X connect 9 0 95 0;
#X connect 9 1 8 0;
#X connect 10 0 2 0;
#X connect 11 0 2 0;
#X connect 14 0 2 0;
#X connect 15 1 71 1;
#X connect 16 1 17 0;
#X connect 20 0 36 0;
#X connect 21 0 35 0;
#X connect 22 0 37 0;
#X connect 23 0 38 0;
#X connect 26 0 102 0;
#X connect 35 0 2 0;
#X connect 36 0 2 0;
#X connect 37 0 2 0;
#X connect 38 0 2 0;
#X connect 39 0 2 0;
#X connect 40 0 46 0;
#X connect 41 0 46 0;
#X connect 42 0 46 0;
#X connect 43 0 46 0;
#X connect 44 0 46 0;
#X connect 45 0 46 0;
#X connect 46 0 53 0;
#X connect 47 0 40 0;
#X connect 48 0 41 0;
#X connect 49 0 42 0;
#X connect 50 0 43 0;
#X connect 51 0 44 0;
#X connect 52 0 45 0;
#X connect 53 0 39 0;
#X connect 54 0 2 0;
#X connect 56 0 57 0;
#X connect 57 0 58 0;
#X connect 58 0 55 0;
#X connect 59 0 23 0;
#X connect 59 1 26 0;
#X connect 59 2 31 0;
#X connect 59 2 61 0;
#X connect 59 3 21 0;
#X connect 59 4 20 0;
#X connect 59 5 22 0;
#X connect 59 6 74 0;
#X connect 59 6 89 0;
#X connect 60 0 69 0;
#X connect 61 0 112 0;
#X connect 61 0 121 0;
#X connect 61 0 113 0;
#X connect 61 0 114 0;
#X connect 61 0 115 0;
#X connect 61 0 116 0;
#X connect 61 0 117 0;
#X connect 61 0 118 0;
#X connect 61 0 119 0;
#X connect 61 0 120 0;
#X connect 62 0 97 0;
#X connect 62 10 14 0;
#X connect 64 0 112 0;
#X connect 64 0 121 0;
#X connect 64 0 113 0;
#X connect 64 0 114 0;
#X connect 64 0 115 0;
#X connect 64 0 116 0;
#X connect 64 0 117 0;
#X connect 64 0 118 0;
#X connect 64 0 119 0;
#X connect 64 0 120 0;
#X connect 65 0 86 0;
#X connect 66 0 112 0;
#X connect 66 0 121 0;
#X connect 66 0 113 0;
#X connect 66 0 114 0;
#X connect 66 0 115 0;
#X connect 66 0 116 0;
#X connect 66 0 117 0;
#X connect 66 0 118 0;
#X connect 66 0 119 0;
#X connect 66 0 120 0;
#X connect 68 0 67 0;
#X connect 70 0 61 0;
#X connect 71 0 73 0;
#X connect 71 1 72 0;
#X connect 71 2 18 0;
#X connect 72 0 13 0;
#X connect 73 0 10 0;
#X connect 75 0 76 0;
#X connect 76 0 77 1;
#X connect 76 0 79 0;
#X connect 77 0 150 0;
#X connect 78 0 80 0;
#X connect 79 0 78 0;
#X connect 80 0 81 0;
#X connect 81 0 82 1;
#X connect 82 0 13 0;
#X connect 82 0 150 0;
#X connect 83 0 77 0;
#X connect 83 1 82 0;
#X connect 85 0 87 0;
#X connect 86 0 66 0;
#X connect 87 0 61 0;
#X connect 89 0 112 0;
#X connect 89 0 121 0;
#X connect 89 0 113 0;
#X connect 89 0 114 0;
#X connect 89 0 115 0;
#X connect 89 0 116 0;
#X connect 89 0 117 0;
#X connect 89 0 118 0;
#X connect 89 0 119 0;
#X connect 89 0 120 0;
#X connect 91 0 92 0;
#X connect 93 0 96 0;
#X connect 94 0 89 0;
#X connect 95 0 71 0;
#X connect 95 1 91 0;
#X connect 96 0 112 0;
#X connect 96 0 121 0;
#X connect 96 0 113 0;
#X connect 96 0 114 0;
#X connect 96 0 115 0;
#X connect 96 0 116 0;
#X connect 96 0 117 0;
#X connect 96 0 118 0;
#X connect 96 0 119 0;
#X connect 96 0 120 0;
#X connect 97 0 98 0;
#X connect 99 0 112 0;
#X connect 99 0 121 0;
#X connect 99 0 113 0;
#X connect 99 0 114 0;
#X connect 99 0 115 0;
#X connect 99 0 116 0;
#X connect 99 0 117 0;
#X connect 99 0 118 0;
#X connect 99 0 119 0;
#X connect 99 0 120 0;
#X connect 100 0 99 0;
#X connect 101 0 112 0;
#X connect 101 0 121 0;
#X connect 101 0 113 0;
#X connect 101 0 114 0;
#X connect 101 0 115 0;
#X connect 101 0 116 0;
#X connect 101 0 117 0;
#X connect 101 0 118 0;
#X connect 101 0 119 0;
#X connect 101 0 120 0;
#X connect 103 0 54 0;
#X connect 104 0 105 0;
#X connect 105 0 101 0;
#X connect 107 0 112 0;
#X connect 107 0 121 0;
#X connect 107 0 113 0;
#X connect 107 0 114 0;
#X connect 107 0 115 0;
#X connect 107 0 116 0;
#X connect 107 0 117 0;
#X connect 107 0 118 0;
#X connect 107 0 119 0;
#X connect 107 0 120 0;
#X connect 109 0 110 0;
#X connect 110 0 107 0;
#X connect 111 0 108 0;
#X connect 112 0 13 0;
#X connect 112 2 106 0;
#X connect 113 0 13 0;
#X connect 113 2 106 0;
#X connect 114 0 13 0;
#X connect 114 2 106 0;
#X connect 115 0 13 0;
#X connect 115 2 106 0;
#X connect 116 0 13 0;
#X connect 116 2 106 0;
#X connect 117 0 13 0;
#X connect 117 2 106 0;
#X connect 118 0 13 0;
#X connect 118 2 106 0;
#X connect 119 0 13 0;
#X connect 119 2 106 0;
#X connect 120 0 13 0;
#X connect 120 2 106 0;
#X connect 121 0 13 0;
#X connect 121 2 106 0;
#X connect 123 0 129 0;
#X connect 123 0 155 0;
#X connect 124 0 112 0;
#X connect 126 0 128 0;
#X connect 127 0 126 0;
#X connect 128 0 125 1;
#X connect 129 0 127 0;
#X connect 129 1 149 0;
#X connect 130 0 124 0;
#X connect 131 0 113 0;
#X connect 132 0 114 0;
#X connect 133 0 115 0;
#X connect 134 0 116 0;
#X connect 135 0 117 0;
#X connect 136 0 118 0;
#X connect 137 0 119 0;
#X connect 138 0 120 0;
#X connect 139 0 121 0;
#X connect 140 0 131 0;
#X connect 141 0 132 0;
#X connect 142 0 133 0;
#X connect 143 0 134 0;
#X connect 144 0 135 0;
#X connect 145 0 136 0;
#X connect 146 0 137 0;
#X connect 147 0 138 0;
#X connect 148 0 139 0;
#X connect 149 0 126 1;
#X connect 150 0 9 0;
#X connect 150 1 16 0;
#X connect 150 2 62 0;
#X connect 150 3 60 0;
#X connect 150 4 111 0;
#X connect 150 5 154 0;
#X connect 150 6 2 0;
#X connect 151 0 157 0;
#X connect 151 1 152 1;
#X connect 152 0 123 0;
#X connect 153 0 125 0;
#X connect 154 0 151 0;
#X connect 154 1 155 1;
#X connect 154 2 155 2;
#X connect 154 3 155 3;
#X connect 154 4 155 4;
#X connect 154 5 155 5;
#X connect 154 6 155 6;
#X connect 154 7 155 7;
#X connect 154 8 155 8;
#X connect 154 9 155 9;
#X connect 154 10 155 10;
#X connect 154 11 155 11;
#X connect 154 12 155 12;
#X connect 154 13 155 13;
#X connect 154 14 155 14;
#X connect 154 15 155 15;
#X connect 154 16 155 16;
#X connect 154 17 155 17;
#X connect 154 18 155 18;
#X connect 154 19 155 19;
#X connect 154 20 155 20;
#X connect 154 21 155 21;
#X connect 154 22 155 22;
#X connect 154 23 155 23;
#X connect 154 24 155 24;
#X connect 154 25 155 25;
#X connect 155 0 153 0;
#X connect 156 0 152 0;
#X connect 157 0 156 0;
#X coords 0 -1 1 1 525 768 2 100 100;
