#N canvas 18 19 1920 997 12;
#X declare -lib clearessentials;
#X obj 100 100 cnv 15 525 60 empty empty empty 3 10 0 14 #606060 #000000
0;
#X obj 603 125 bng 15 250 50 0 empty empty empty 17 7 0 10 #fcfcfc
#000000 #000000;
#X obj 494 104 hsl 50 15 0 1.27 0 0 empty empty Velocity 3 8 0 10 #606060
#00faff #ffffff 0 1;
#N canvas 786 344 435 318 \$0-frequency 0;
#X obj 104 104 nbx 2 14 0 16 0 0 \$1-synthbpm-send \$1-synthbpm-recv
empty 0 -8 0 10 #fcfcfc #000000 #000000 0 256;
#X obj 100 100 cnv 15 39 22 empty empty empty 5 9 0 14 #202020 #00f8fc
0;
#X obj 102 103 cnv 15 34 17 \$0-freqnum-send \$0-freqnum-recv 1 5 9
0 14 #101054 #00f8fc 0;
#X obj 62 169 outlet;
#X obj 69 28 inlet;
#X obj 69 47 t f;
#N canvas 92 121 594 555 \$0-frequencycalc 0;
#X obj 32 238 f;
#X obj 26 206 t b f;
#X msg 137 190 label \$1;
#X obj 137 169 l2s;
#X obj 110 34 inlet;
#X obj 24 274 t f f b;
#X obj 22 303 outlet;
#X obj 138 299 s;
#X obj 223 57 loadbang;
#X msg 225 105 \$1;
#X floatatom 226 132 5 0 0 0 - - - 0;
#X obj 222 261 symbol;
#X obj 228 199 t b s;
#X msg 224 222 bang;
#X obj 225 151 t f f;
#X obj 223 82 \$0;
#X msg 226 173 symbol \$1-freqnum-recv;
#X obj 369 109 t b f;
#X obj 435 370 +;
#X floatatom 435 421 5 0 0 0 - - - 0;
#X obj 435 344 f;
#X obj 435 319 t b f;
#X obj 435 294 f;
#X obj 435 267 t b f;
#X obj 487 176 inlet;
#X obj 435 395 % 15;
#X floatatom 367 379 5 0 0 0 - - - 0;
#X connect 0 0 5 0;
#X connect 1 0 0 0;
#X connect 1 1 0 1;
#X connect 2 0 7 0;
#X connect 3 0 2 0;
#X connect 4 0 17 0;
#X connect 4 0 3 0;
#X connect 5 0 6 0;
#X connect 5 2 13 0;
#X connect 8 0 15 0;
#X connect 9 0 10 0;
#X connect 10 0 14 0;
#X connect 11 0 7 1;
#X connect 12 0 13 0;
#X connect 12 1 11 1;
#X connect 13 0 11 0;
#X connect 14 0 16 0;
#X connect 15 0 9 0;
#X connect 16 0 12 0;
#X connect 17 0 20 0;
#X connect 17 1 20 1;
#X connect 18 0 25 0;
#X connect 18 0 26 0;
#X connect 19 0 1 0;
#X connect 20 0 18 0;
#X connect 21 0 20 0;
#X connect 21 1 18 1;
#X connect 22 0 21 0;
#X connect 23 0 22 0;
#X connect 23 1 22 1;
#X connect 24 0 23 0;
#X connect 25 0 19 0;
#X restore 62 135 pd \$0-frequencycalc;
#X obj 237 68 inlet;
#X connect 0 0 6 0;
#X connect 4 0 5 0;
#X connect 5 0 0 0;
#X connect 6 0 3 0;
#X connect 7 0 6 1;
#X coords 0 -1 1 1 39 22 2 100 100;
#X restore 162 101 pd \$0-frequency;
#N canvas 578 394 435 318 \$0-shifter 0;
#X obj 104 104 nbx 2 14 0 100 0 0 \$1-synthbpm-send \$1-synthbpm-recv
empty 0 -8 0 10 #fcfcfc #000000 #000000 0 256;
#X obj 100 100 cnv 15 39 22 empty empty empty 5 9 0 14 #202020 #00f8fc
0;
#X obj 102 103 cnv 15 34 17 \$0-shiftnum-send \$0-shiftnum-recv 5 5
9 0 14 #101054 #00f8fc 0;
#X obj 62 169 outlet;
#X obj 69 28 inlet;
#X obj 69 47 t f;
#N canvas 834 210 514 555 \$0-shiftcalc 0;
#X obj 123 109 f;
#X obj 117 77 t b f;
#X msg 137 190 label \$1;
#X obj 137 169 l2s;
#X obj 110 34 inlet;
#X obj 123 128 t f f b;
#X obj 99 272 outlet;
#X obj 304 289 s;
#X obj 345 24 loadbang;
#X msg 339 75 \$1;
#X floatatom 323 98 5 0 0 0 - - - 0;
#X obj 320 264 symbol;
#X obj 326 202 t b s;
#X msg 322 225 bang;
#X obj 322 117 t f f;
#X obj 351 54 \$0;
#X msg 324 176 symbol \$1-shiftnum-recv;
#X connect 0 0 5 0;
#X connect 1 0 0 0;
#X connect 1 1 0 1;
#X connect 2 0 7 0;
#X connect 3 0 2 0;
#X connect 4 0 1 0;
#X connect 5 0 6 0;
#X connect 5 1 3 0;
#X connect 5 2 13 0;
#X connect 8 0 15 0;
#X connect 9 0 10 0;
#X connect 10 0 14 0;
#X connect 11 0 7 1;
#X connect 12 0 13 0;
#X connect 12 1 11 1;
#X connect 13 0 11 0;
#X connect 14 0 16 0;
#X connect 15 0 9 0;
#X connect 16 0 12 0;
#X restore 62 135 pd \$0-shiftcalc;
#X connect 0 0 6 0;
#X connect 4 0 5 0;
#X connect 5 0 0 0;
#X connect 6 0 3 0;
#X coords 0 -1 1 1 39 22 2 100 100;
#X restore 247 101 pd \$0-shifter;
#N canvas 578 394 435 318 \$0-note 0;
#X obj 104 104 nbx 2 14 0 11 0 0 \$1-synthbpm-send \$1-synthbpm-recv
empty 0 -8 0 10 #fcfcfc #000000 #000000 0 256;
#X obj 100 100 cnv 15 39 22 empty empty empty 5 9 0 14 #202020 #00f8fc
0;
#X obj 102 103 cnv 15 34 17 \$0-note-send \$0-note-recv C 5 9 0 14
#101054 #00f8fc 0;
#X obj 62 169 outlet;
#X obj 69 28 inlet;
#X obj 69 47 t f;
#N canvas 834 210 1920 997 \$0-notecalc 0;
#X obj 123 109 f;
#X obj 117 77 t b f;
#X msg 244 391 label \$1;
#X obj 110 34 inlet;
#X obj 99 272 outlet;
#X obj 304 289 s;
#X obj 345 24 loadbang;
#X msg 339 75 \$1;
#X floatatom 323 98 5 0 0 0 - - - 0;
#X obj 320 264 symbol;
#X obj 339 198 t b s;
#X msg 322 225 bang;
#X obj 322 117 t f f;
#X obj 351 54 \$0;
#X msg 324 176 symbol \$1-note-recv;
#X msg 21 339 symbol C;
#X msg 34 386 symbol D;
#X msg 42 430 symbol E;
#X msg 55 455 symbol F;
#X msg 71 498 symbol G;
#X msg 83 539 symbol A;
#X msg 99 581 symbol B;
#X msg 37 364 symbol C#;
#X msg 43 406 symbol D#;
#X msg 70 474 symbol F#;
#X msg 84 518 symbol G#;
#X msg 96 557 symbol A#;
#X obj 31 295 route 0 1 2 3 4 5 6 7 8 9 10 11;
#X obj 493 299 tgl 15 0 empty empty empty 17 7 0 10 #fcfcfc #000000
#000000 0 1;
#X obj 438 322 spigot 0;
#X obj 520 347 change;
#X obj 526 318 == 0;
#X obj 520 375 == 1;
#X obj 520 407 tgl 15 0 empty empty empty 17 7 0 10 #fcfcfc #000000
#000000 0 1;
#X obj 464 426 spigot 0;
#X obj 440 269 t b b f;
#X obj 123 128 t f f f b;
#X obj 412 296 l2s;
#X msg 418 355 label \$1;
#X obj 440 242 r \$0-inheritedstate;
#X connect 0 0 36 0;
#X connect 1 0 0 0;
#X connect 1 1 0 1;
#X connect 2 0 5 0;
#X connect 3 0 1 0;
#X connect 6 0 13 0;
#X connect 7 0 8 0;
#X connect 8 0 12 0;
#X connect 9 0 5 1;
#X connect 10 0 11 0;
#X connect 10 1 9 1;
#X connect 11 0 9 0;
#X connect 12 0 14 0;
#X connect 13 0 7 0;
#X connect 14 0 10 0;
#X connect 15 0 2 0;
#X connect 16 0 2 0;
#X connect 17 0 2 0;
#X connect 18 0 2 0;
#X connect 19 0 2 0;
#X connect 20 0 2 0;
#X connect 21 0 2 0;
#X connect 22 0 2 0;
#X connect 23 0 2 0;
#X connect 24 0 2 0;
#X connect 25 0 2 0;
#X connect 26 0 2 0;
#X connect 27 0 15 0;
#X connect 27 1 22 0;
#X connect 27 2 16 0;
#X connect 27 3 23 0;
#X connect 27 4 17 0;
#X connect 27 5 18 0;
#X connect 27 6 24 0;
#X connect 27 7 19 0;
#X connect 27 8 25 0;
#X connect 27 9 20 0;
#X connect 27 10 26 0;
#X connect 27 11 21 0;
#X connect 28 0 29 1;
#X connect 28 0 31 0;
#X connect 29 0 38 0;
#X connect 30 0 32 0;
#X connect 31 0 30 0;
#X connect 32 0 33 0;
#X connect 33 0 34 1;
#X connect 34 0 27 0;
#X connect 35 2 28 0;
#X connect 36 0 4 0;
#X connect 36 1 34 0;
#X connect 36 2 37 0;
#X connect 36 3 11 0;
#X connect 37 0 29 0;
#X connect 38 0 5 0;
#X connect 39 0 35 0;
#X restore 62 135 pd \$0-notecalc;
#X connect 0 0 6 0;
#X connect 4 0 5 0;
#X connect 5 0 0 0;
#X connect 6 0 3 0;
#X coords 0 -1 1 1 39 22 2 100 100;
#X restore 334 101 pd \$0-note;
#X floatatom 803 548 5 0 0 0 - - - 0;
#N canvas 205 123 450 373 \$0-stephandler 0;
#X floatatom 128 262 5 0 0 0 - - - 0;
#X obj 125 190 bng 15 250 50 0 empty empty empty 17 7 0 10 #fcfcfc
#000000 #000000;
#X obj 260 -9 inlet;
#X obj 313 -10 inlet;
#X obj 133 343 outlet;
#X obj 57 201 outlet;
#X obj 129 315 spigot 0;
#X obj 193 300 tgl 15 0 empty empty empty 17 7 0 10 #fcfcfc #000000
#000000 0 1;
#X obj 186 272 r \$0-autoveltoggle;
#X obj 92 164 t b b b;
#X obj 195 197 outlet;
#X obj 126 225 random 10;
#X obj 128 288 * 0.1;
#X floatatom 306 19 4 0 0 0 - - - 0;
#X floatatom 262 18 4 0 0 0 - - - 0;
#X obj 261 52 %;
#X obj 262 77 tgl 15 0 empty empty empty 17 7 0 10 #fcfcfc #000000
#000000 0 1;
#X obj 261 99 == 0;
#X obj 259 123 change;
#X obj 259 153 == 1;
#X obj 259 190 spigot 0;
#X obj 319 169 tgl 15 0 empty empty empty 17 7 0 10 #fcfcfc #000000
#000000 0 1;
#X obj 260 221 bng 15 250 50 0 empty empty empty 17 7 0 10 #fcfcfc
#000000 #000000;
#X connect 0 0 12 0;
#X connect 1 0 11 0;
#X connect 2 0 14 0;
#X connect 3 0 13 0;
#X connect 6 0 4 0;
#X connect 7 0 6 1;
#X connect 8 0 7 0;
#X connect 9 0 5 0;
#X connect 9 1 1 0;
#X connect 9 2 10 0;
#X connect 11 0 0 0;
#X connect 12 0 6 0;
#X connect 13 0 15 1;
#X connect 14 0 15 0;
#X connect 15 0 16 0;
#X connect 16 0 17 0;
#X connect 17 0 18 0;
#X connect 18 0 19 0;
#X connect 19 0 21 0;
#X connect 19 0 20 0;
#X connect 20 0 22 0;
#X connect 21 0 20 1;
#X connect 22 0 9 0;
#X restore 679 568 pd \$0-stephandler;
#N canvas 49 555 435 318 \$0-octave 0;
#X obj 104 104 nbx 2 14 1 4 0 0 \$1-synthbpm-send \$1-synthbpm-recv
empty 0 -8 0 10 #fcfcfc #000000 #000000 0 256;
#X obj 100 100 cnv 15 39 22 empty empty empty 5 9 0 14 #202020 #00f8fc
0;
#X obj 102 103 cnv 15 34 17 \$0-oct-send \$0-oct-recv 3 5 9 0 14 #101054
#00f8fc 0;
#X obj 62 169 outlet;
#X obj 69 28 inlet;
#X obj 69 47 t f;
#N canvas 767 94 603 606 \$0-octcalc 0;
#X obj 123 109 f;
#X obj 117 77 t b f;
#X obj 119 50 inlet;
#X obj 123 128 t f f b;
#X obj 19 472 outlet;
#X obj 397 558 s;
#X obj 410 287 loadbang;
#X msg 412 340 \$1;
#X floatatom 414 363 5 0 0 0 - - - 0;
#X obj 413 533 symbol;
#X obj 432 467 t b s;
#X msg 415 494 bang;
#X obj 415 386 t f f;
#X obj 412 316 \$0;
#X msg 417 445 symbol \$1-oct-recv;
#X obj 249 211 l2s;
#X msg 345 516 label \$1;
#X obj 709 340 route -2 -1 0 1 2;
#X msg 102 294 -2;
#X obj 103 266 t b;
#X obj 140 267 t b;
#X obj 173 268 t b;
#X obj 209 268 t b;
#X msg 139 295 -1;
#X msg 210 294 1;
#X obj 175 333 l2s;
#X msg 173 294 0;
#X obj 102 208 int;
#X obj 246 422 tgl 15 0 empty empty empty 17 7 0 10 #fcfcfc #000000
#000000 0 1;
#X obj 191 445 spigot 0;
#X obj 273 470 change;
#X obj 279 441 == 0;
#X obj 273 498 == 1;
#X obj 273 530 tgl 15 0 empty empty empty 17 7 0 10 #fcfcfc #000000
#000000 0 1;
#X obj 217 549 spigot 0;
#X obj 193 365 r \$0-inheritedstate;
#X obj 105 238 route 1 2 3 4;
#X obj 78 414 tgl 15 0 empty empty empty 17 7 0 10 #fcfcfc #000000
#000000 0 1;
#X obj 23 437 spigot 0;
#X obj 108 457 change;
#X obj 114 428 == 0;
#X obj 108 485 == 1;
#X obj 108 517 tgl 15 0 empty empty empty 17 7 0 10 #fcfcfc #000000
#000000 0 1;
#X obj 52 536 spigot 0;
#X obj 25 357 r \$0-inheritedstate;
#X obj 25 384 t f;
#X obj 193 392 t f;
#X connect 0 0 3 0;
#X connect 1 0 0 0;
#X connect 1 1 0 1;
#X connect 2 0 1 0;
#X connect 3 0 43 0;
#X connect 3 1 15 0;
#X connect 3 1 27 0;
#X connect 3 2 11 0;
#X connect 6 0 13 0;
#X connect 7 0 8 0;
#X connect 8 0 12 0;
#X connect 9 0 5 1;
#X connect 10 0 11 0;
#X connect 10 1 9 1;
#X connect 11 0 9 0;
#X connect 12 0 14 0;
#X connect 13 0 7 0;
#X connect 14 0 10 0;
#X connect 15 0 34 0;
#X connect 16 0 5 0;
#X connect 18 0 25 0;
#X connect 18 0 38 0;
#X connect 19 0 18 0;
#X connect 20 0 23 0;
#X connect 21 0 26 0;
#X connect 22 0 24 0;
#X connect 23 0 25 0;
#X connect 23 0 38 0;
#X connect 24 0 25 0;
#X connect 24 0 38 0;
#X connect 25 0 29 0;
#X connect 26 0 25 0;
#X connect 26 0 38 0;
#X connect 27 0 36 0;
#X connect 28 0 29 1;
#X connect 28 0 31 0;
#X connect 29 0 16 0;
#X connect 30 0 32 0;
#X connect 31 0 30 0;
#X connect 32 0 33 0;
#X connect 33 0 34 1;
#X connect 34 0 16 0;
#X connect 35 0 46 0;
#X connect 36 0 19 0;
#X connect 36 1 20 0;
#X connect 36 2 21 0;
#X connect 36 3 22 0;
#X connect 37 0 38 1;
#X connect 37 0 40 0;
#X connect 38 0 4 0;
#X connect 39 0 41 0;
#X connect 40 0 39 0;
#X connect 41 0 42 0;
#X connect 42 0 43 1;
#X connect 43 0 4 0;
#X connect 44 0 45 0;
#X connect 45 0 37 0;
#X connect 46 0 28 0;
#X restore 62 135 pd \$0-octcalc;
#X connect 0 0 6 0;
#X connect 4 0 5 0;
#X connect 5 0 0 0;
#X connect 6 0 3 0;
#X coords 0 -1 1 1 39 22 2 100 100;
#X restore 425 101 pd \$0-octave;
#X floatatom 696 843 5 0 0 0 - - - 0;
#X obj 433 9 loadbang;
#X msg 429 50 3;
#X obj 631 1005 pack f f;
#X obj 631 978 f;
#X obj 118 102 cnv 15 22 22 empty empty Beats 3 10 0 14 #606060 #000000
0;
#X obj 202 101 cnv 15 43 22 empty empty Shift 3 10 0 14 #606060 #000000
0;
#X obj 395 101 cnv 15 22 22 empty empty Oct 3 10 0 14 #606060 #000000
0;
#N canvas 52 52 1022 659 \$0-eucltoggle 0;
#X obj 102 102 tgl 12 0 empty empty empty 17 7 0 10 #606060 #000000
#dcdcdc 0 1;
#X obj 100 100 cnv 16 16 16 empty empty empty 20 12 0 14 #202020 #404040
0;
#X obj 103 103 cnv 10 10 10 \$0-steptoggle-send \$0-steptoggle-recv
empty 20 12 0 14 #fcfcfc #404040 0;
#X obj 171 442 f;
#X obj 171 420 t b f;
#X obj 100 206 spigot 0;
#X obj 145 162 tgl 15 0 empty empty empty 17 7 0 10 #fcfcfc #000000
#000000 0 1;
#X obj 145 139 change;
#X obj 145 116 == 0;
#X obj 216 372 tgl 15 0 empty empty empty 17 7 0 10 #fcfcfc #000000
#000000 0 1;
#X obj 171 345 change;
#X obj 171 395 spigot 0;
#X obj 171 322 == 0;
#X obj 171 366 t b f;
#X obj 171 462 t b b;
#X obj 100 251 f;
#X obj 100 229 t b f;
#X obj 100 271 t b b;
#X obj 145 184 t f f;
#X obj 56 129 tgl 15 0 empty empty empty 17 7 0 10 #fcfcfc #000000
#000000 0 1;
#X obj 55 150 t f b f;
#X obj 192 17 inlet;
#X obj 294 66 loadbang;
#X msg 144 94 0;
#X obj 376 108 \$1;
#X msg 377 133 \$1;
#X floatatom 372 154 5 0 0 0 - - - 0;
#X obj 364 260 t b s;
#X msg 360 283 bang;
#X obj 356 202 t f f;
#X obj 68 695 symbol;
#X obj 67 654 t b s;
#X msg 63 677 bang;
#X obj 51 716 s;
#X symbolatom 149 688 40 0 0 0 - - - 0;
#X obj 474 609 s;
#X obj 340 592 s;
#X msg 676 579 color 16;
#X obj 436 513 symbol;
#X msg 344 518 bang;
#X msg 394 519 \$1;
#X obj 345 539 f;
#X msg 343 560 color \$1;
#X obj 642 336 == 16;
#X obj 644 366 change;
#X obj 646 387 == 0;
#X obj 647 412 t b;
#X obj 651 439 bng 15 250 50 0 empty empty empty 17 7 0 10 #fcfcfc
#000000 #000000;
#X obj 650 473 tgl 15 0 empty empty empty 17 7 0 10 #fcfcfc #000000
#000000 0 1;
#X obj 603 494 spigot 0;
#X obj 742 405 change;
#X obj 745 451 t b;
#X obj 749 478 bng 15 250 50 0 empty empty empty 17 7 0 10 #fcfcfc
#000000 #000000;
#X obj 748 512 tgl 15 0 empty empty empty 17 7 0 10 #fcfcfc #000000
#000000 0 1;
#X obj 701 533 spigot 0;
#X obj 744 426 == 1;
#X obj 740 375 != 16;
#X msg 552 528 color 13;
#X obj 218 41 t b b;
#X obj 376 456 t b b f;
#X obj 289 98 \$0;
#X msg 288 119 \$1;
#X floatatom 284 148 5 0 0 0 - - - 0;
#X obj 379 434 r NewUiColorColorNum;
#X obj 744 342 r NewUiColorColorNum;
#X obj 646 303 r NewUiColorColorNum;
#X msg 65 628 symbol \$1-steptoggle;
#X msg 361 234 symbol \$1-steptoggle-recv;
#X msg 204 117 1;
#X obj 158 71 del;
#X obj 92 341 outlet;
#X connect 0 0 19 0;
#X connect 3 0 14 0;
#X connect 4 0 3 0;
#X connect 4 1 3 1;
#X connect 5 0 16 0;
#X connect 6 0 18 0;
#X connect 7 0 6 0;
#X connect 8 0 7 0;
#X connect 9 0 11 1;
#X connect 10 0 13 0;
#X connect 11 0 4 0;
#X connect 12 0 10 0;
#X connect 13 0 11 0;
#X connect 13 1 9 0;
#X connect 14 0 49 0;
#X connect 14 1 54 0;
#X connect 15 0 17 0;
#X connect 16 0 15 0;
#X connect 16 1 15 1;
#X connect 17 0 39 0;
#X connect 17 1 28 0;
#X connect 18 0 5 1;
#X connect 18 1 12 0;
#X connect 19 0 20 0;
#X connect 19 0 70 0;
#X connect 20 0 33 0;
#X connect 20 1 5 0;
#X connect 20 2 8 0;
#X connect 21 0 19 0;
#X connect 22 0 24 0;
#X connect 22 0 58 0;
#X connect 22 0 60 0;
#X connect 23 0 8 0;
#X connect 23 0 19 0;
#X connect 24 0 25 0;
#X connect 25 0 26 0;
#X connect 27 0 28 0;
#X connect 27 1 38 1;
#X connect 28 0 38 0;
#X connect 29 0 67 0;
#X connect 29 1 66 0;
#X connect 30 0 33 1;
#X connect 31 0 32 0;
#X connect 31 1 30 1;
#X connect 31 1 34 0;
#X connect 32 0 30 0;
#X connect 37 0 35 0;
#X connect 38 0 36 1;
#X connect 38 0 35 1;
#X connect 39 0 41 0;
#X connect 40 0 41 1;
#X connect 41 0 42 0;
#X connect 42 0 36 0;
#X connect 43 0 44 0;
#X connect 44 0 45 0;
#X connect 45 0 46 0;
#X connect 46 0 47 0;
#X connect 47 0 48 0;
#X connect 48 0 49 1;
#X connect 49 0 57 0;
#X connect 50 0 55 0;
#X connect 51 0 52 0;
#X connect 52 0 53 0;
#X connect 53 0 54 1;
#X connect 54 0 37 0;
#X connect 55 0 51 0;
#X connect 56 0 50 0;
#X connect 57 0 35 0;
#X connect 58 0 69 0;
#X connect 58 1 68 0;
#X connect 59 0 11 0;
#X connect 59 1 39 0;
#X connect 59 2 40 0;
#X connect 60 0 61 0;
#X connect 61 0 62 0;
#X connect 62 0 29 0;
#X connect 63 0 59 0;
#X connect 64 0 56 0;
#X connect 65 0 43 0;
#X connect 66 0 31 0;
#X connect 67 0 27 0;
#X connect 68 0 8 0;
#X connect 68 0 19 0;
#X connect 69 0 23 0;
#X coords 0 -1 1 1 16 16 2 100 100;
#X restore 102 104 pd \$0-eucltoggle;
#N canvas 52 52 1022 659 \$0-autoveltoggle 0;
#X obj 102 102 tgl 12 0 empty empty empty 17 7 0 10 #606060 #000000
#dcdcdc 0 1;
#X obj 100 100 cnv 16 16 16 empty empty empty 20 12 0 14 #202020 #404040
0;
#X obj 103 103 cnv 10 10 10 \$0-autoveltoggle-send \$0-autoveltoggle-recv
empty 20 12 0 14 #fcfcfc #404040 0;
#X obj 171 442 f;
#X obj 171 420 t b f;
#X obj 100 206 spigot 0;
#X obj 145 162 tgl 15 0 empty empty empty 17 7 0 10 #fcfcfc #000000
#000000 0 1;
#X obj 145 139 change;
#X obj 145 116 == 0;
#X obj 216 372 tgl 15 0 empty empty empty 17 7 0 10 #fcfcfc #000000
#000000 0 1;
#X obj 171 345 change;
#X obj 171 395 spigot 0;
#X obj 171 322 == 0;
#X obj 171 366 t b f;
#X obj 171 462 t b b;
#X obj 100 251 f;
#X obj 100 229 t b f;
#X obj 100 271 t b b;
#X obj 145 184 t f f;
#X obj 56 129 tgl 15 0 empty empty empty 17 7 0 10 #fcfcfc #000000
#000000 0 1;
#X obj 55 150 t f b f;
#X obj 192 17 inlet;
#X obj 278 35 loadbang;
#X msg 144 94 0;
#X obj 376 108 \$1;
#X msg 377 133 \$1;
#X floatatom 372 154 5 0 0 0 - - - 0;
#X obj 364 260 t b s;
#X msg 360 283 bang;
#X obj 356 202 t f f;
#X obj 68 695 symbol;
#X obj 67 654 t b s;
#X msg 63 677 bang;
#X obj 51 716 s;
#X symbolatom 149 688 40 0 0 0 - - - 0;
#X obj 474 609 s;
#X obj 340 592 s;
#X msg 676 579 color 16;
#X obj 436 513 symbol;
#X msg 344 518 bang;
#X msg 394 519 \$1;
#X obj 345 539 f;
#X msg 343 560 color \$1;
#X obj 642 336 == 16;
#X obj 644 366 change;
#X obj 646 387 == 0;
#X obj 647 412 t b;
#X obj 651 439 bng 15 250 50 0 empty empty empty 17 7 0 10 #fcfcfc
#000000 #000000;
#X obj 650 473 tgl 15 0 empty empty empty 17 7 0 10 #fcfcfc #000000
#000000 0 1;
#X obj 603 494 spigot 0;
#X obj 742 405 change;
#X obj 745 451 t b;
#X obj 749 478 bng 15 250 50 0 empty empty empty 17 7 0 10 #fcfcfc
#000000 #000000;
#X obj 748 512 tgl 15 0 empty empty empty 17 7 0 10 #fcfcfc #000000
#000000 0 1;
#X obj 701 533 spigot 0;
#X obj 744 426 == 1;
#X obj 740 375 != 16;
#X msg 552 528 color 13;
#X obj 180 49 t b b;
#X obj 376 456 t b b f;
#X obj 289 98 \$0;
#X msg 288 119 \$1;
#X floatatom 284 148 5 0 0 0 - - - 0;
#X obj 379 434 r NewUiColorColorNum;
#X obj 744 342 r NewUiColorColorNum;
#X obj 646 303 r NewUiColorColorNum;
#X msg 361 234 symbol \$1-autoveltoggle-recv;
#X msg 65 628 symbol \$1-autoveltoggle;
#X msg 192 82 1;
#X obj 147 64 del 5;
#X obj 33 251 outlet;
#X connect 0 0 19 0;
#X connect 3 0 14 0;
#X connect 4 0 3 0;
#X connect 4 1 3 1;
#X connect 5 0 16 0;
#X connect 6 0 18 0;
#X connect 7 0 6 0;
#X connect 8 0 7 0;
#X connect 9 0 11 1;
#X connect 10 0 13 0;
#X connect 11 0 4 0;
#X connect 12 0 10 0;
#X connect 13 0 11 0;
#X connect 13 1 9 0;
#X connect 14 0 49 0;
#X connect 14 1 54 0;
#X connect 15 0 17 0;
#X connect 16 0 15 0;
#X connect 16 1 15 1;
#X connect 17 0 39 0;
#X connect 17 1 28 0;
#X connect 18 0 5 1;
#X connect 18 1 12 0;
#X connect 19 0 20 0;
#X connect 19 0 70 0;
#X connect 20 0 33 0;
#X connect 20 1 5 0;
#X connect 20 2 8 0;
#X connect 21 0 19 0;
#X connect 22 0 24 0;
#X connect 22 0 58 0;
#X connect 22 0 60 0;
#X connect 23 0 8 0;
#X connect 23 0 19 0;
#X connect 24 0 25 0;
#X connect 25 0 26 0;
#X connect 27 0 28 0;
#X connect 27 1 38 1;
#X connect 28 0 38 0;
#X connect 29 0 66 0;
#X connect 29 1 67 0;
#X connect 30 0 33 1;
#X connect 31 0 32 0;
#X connect 31 1 30 1;
#X connect 31 1 34 0;
#X connect 32 0 30 0;
#X connect 37 0 35 0;
#X connect 38 0 36 1;
#X connect 38 0 35 1;
#X connect 39 0 41 0;
#X connect 40 0 41 1;
#X connect 41 0 42 0;
#X connect 42 0 36 0;
#X connect 43 0 44 0;
#X connect 44 0 45 0;
#X connect 45 0 46 0;
#X connect 46 0 47 0;
#X connect 47 0 48 0;
#X connect 48 0 49 1;
#X connect 49 0 57 0;
#X connect 50 0 55 0;
#X connect 51 0 52 0;
#X connect 52 0 53 0;
#X connect 53 0 54 1;
#X connect 54 0 37 0;
#X connect 55 0 51 0;
#X connect 56 0 50 0;
#X connect 57 0 35 0;
#X connect 58 0 69 0;
#X connect 58 1 68 0;
#X connect 59 0 11 0;
#X connect 59 1 39 0;
#X connect 59 2 40 0;
#X connect 60 0 61 0;
#X connect 61 0 62 0;
#X connect 62 0 29 0;
#X connect 63 0 59 0;
#X connect 64 0 56 0;
#X connect 65 0 43 0;
#X connect 66 0 27 0;
#X connect 67 0 31 0;
#X connect 68 0 8 0;
#X connect 68 0 19 0;
#X connect 69 0 23 0;
#X coords 0 -1 1 1 16 16 2 100 100;
#X restore 471 104 pd \$0-autoveltoggle;
#X obj 571 104 hsl 45 15 1 3 0 0 empty empty Length 1 8 0 12 #606060
#00faff #ffffff 0 1;
#N canvas 52 52 1022 659 \$0-notedurtoggle 0;
#X obj 102 102 tgl 12 0 empty empty empty 17 7 0 10 #606060 #000000
#dcdcdc 0 1;
#X obj 100 100 cnv 16 16 16 empty empty empty 20 12 0 14 #202020 #404040
0;
#X obj 103 103 cnv 10 10 10 \$0-notedurtoggle-send \$0-notedurtoggle-recv
empty 20 12 0 14 #fcfcfc #404040 0;
#X obj 171 442 f;
#X obj 171 420 t b f;
#X obj 100 206 spigot 0;
#X obj 145 162 tgl 15 0 empty empty empty 17 7 0 10 #fcfcfc #000000
#000000 0 1;
#X obj 145 139 change;
#X obj 145 116 == 0;
#X obj 216 372 tgl 15 0 empty empty empty 17 7 0 10 #fcfcfc #000000
#000000 0 1;
#X obj 171 345 change;
#X obj 171 395 spigot 0;
#X obj 171 322 == 0;
#X obj 171 366 t b f;
#X obj 171 462 t b b;
#X obj 100 251 f;
#X obj 100 229 t b f;
#X obj 100 271 t b b;
#X obj 145 184 t f f;
#X obj 56 129 tgl 15 0 empty empty empty 17 7 0 10 #fcfcfc #000000
#000000 0 1;
#X obj 55 150 t f b f;
#X obj 192 17 inlet;
#X obj 294 66 loadbang;
#X msg 144 94 0;
#X obj 376 108 \$1;
#X msg 377 133 \$1;
#X floatatom 372 154 5 0 0 0 - - - 0;
#X obj 364 260 t b s;
#X msg 360 283 bang;
#X obj 356 202 t f f;
#X obj 68 695 symbol;
#X obj 67 654 t b s;
#X msg 63 677 bang;
#X obj 51 716 s;
#X symbolatom 149 688 40 0 0 0 - - - 0;
#X obj 474 609 s;
#X obj 340 592 s;
#X msg 676 579 color 16;
#X obj 436 513 symbol;
#X msg 344 518 bang;
#X msg 394 519 \$1;
#X obj 345 539 f;
#X msg 343 560 color \$1;
#X obj 642 336 == 16;
#X obj 644 366 change;
#X obj 646 387 == 0;
#X obj 647 412 t b;
#X obj 651 439 bng 15 250 50 0 empty empty empty 17 7 0 10 #fcfcfc
#000000 #000000;
#X obj 650 473 tgl 15 0 empty empty empty 17 7 0 10 #fcfcfc #000000
#000000 0 1;
#X obj 603 494 spigot 0;
#X obj 742 405 change;
#X obj 745 451 t b;
#X obj 749 478 bng 15 250 50 0 empty empty empty 17 7 0 10 #fcfcfc
#000000 #000000;
#X obj 748 512 tgl 15 0 empty empty empty 17 7 0 10 #fcfcfc #000000
#000000 0 1;
#X obj 701 533 spigot 0;
#X obj 744 426 == 1;
#X obj 740 375 != 16;
#X msg 552 528 color 13;
#X obj 203 46 t b b;
#X obj 376 456 t b b f;
#X obj 289 98 \$0;
#X msg 288 119 \$1;
#X floatatom 284 148 5 0 0 0 - - - 0;
#X obj 379 434 r NewUiColorColorNum;
#X obj 744 342 r NewUiColorColorNum;
#X obj 646 303 r NewUiColorColorNum;
#X msg 65 628 symbol \$1-notedurtoggle;
#X msg 361 234 symbol \$1-notedurtoggle-recv;
#X msg 196 99 1;
#X obj 166 67 del;
#X connect 0 0 19 0;
#X connect 3 0 14 0;
#X connect 4 0 3 0;
#X connect 4 1 3 1;
#X connect 5 0 16 0;
#X connect 6 0 18 0;
#X connect 7 0 6 0;
#X connect 8 0 7 0;
#X connect 9 0 11 1;
#X connect 10 0 13 0;
#X connect 11 0 4 0;
#X connect 12 0 10 0;
#X connect 13 0 11 0;
#X connect 13 1 9 0;
#X connect 14 0 49 0;
#X connect 14 1 54 0;
#X connect 15 0 17 0;
#X connect 16 0 15 0;
#X connect 16 1 15 1;
#X connect 17 0 39 0;
#X connect 17 1 28 0;
#X connect 18 0 5 1;
#X connect 18 1 12 0;
#X connect 19 0 20 0;
#X connect 20 0 33 0;
#X connect 20 1 5 0;
#X connect 20 2 8 0;
#X connect 21 0 19 0;
#X connect 22 0 24 0;
#X connect 22 0 58 0;
#X connect 22 0 60 0;
#X connect 23 0 8 0;
#X connect 23 0 19 0;
#X connect 24 0 25 0;
#X connect 25 0 26 0;
#X connect 27 0 28 0;
#X connect 27 1 38 1;
#X connect 28 0 38 0;
#X connect 29 0 67 0;
#X connect 29 1 66 0;
#X connect 30 0 33 1;
#X connect 31 0 32 0;
#X connect 31 1 30 1;
#X connect 31 1 34 0;
#X connect 32 0 30 0;
#X connect 37 0 35 0;
#X connect 38 0 36 1;
#X connect 38 0 35 1;
#X connect 39 0 41 0;
#X connect 40 0 41 1;
#X connect 41 0 42 0;
#X connect 42 0 36 0;
#X connect 43 0 44 0;
#X connect 44 0 45 0;
#X connect 45 0 46 0;
#X connect 46 0 47 0;
#X connect 47 0 48 0;
#X connect 48 0 49 1;
#X connect 49 0 57 0;
#X connect 50 0 55 0;
#X connect 51 0 52 0;
#X connect 52 0 53 0;
#X connect 53 0 54 1;
#X connect 54 0 37 0;
#X connect 55 0 51 0;
#X connect 56 0 50 0;
#X connect 57 0 35 0;
#X connect 58 0 69 0;
#X connect 58 1 68 0;
#X connect 59 0 11 0;
#X connect 59 1 39 0;
#X connect 59 2 40 0;
#X connect 60 0 61 0;
#X connect 61 0 62 0;
#X connect 62 0 29 0;
#X connect 63 0 59 0;
#X connect 64 0 56 0;
#X connect 65 0 43 0;
#X connect 66 0 31 0;
#X connect 67 0 27 0;
#X connect 68 0 8 0;
#X connect 68 0 19 0;
#X connect 69 0 23 0;
#X coords 0 -1 1 1 16 16 2 100 100;
#X restore 549 104 pd \$0-notedurtoggle;
#X obj 630 1045 outlet;
#X msg 513 46 2;
#N canvas 364 390 450 476 \$0-duration 0;
#X floatatom 150 279 8 0 0 0 - - - 0;
#X obj 150 253 line 0 100;
#X obj 154 102 * 1000;
#X obj 152 201 pack f f;
#X floatatom 154 129 5 0 0 0 - - - 0;
#X obj 152 154 t b f;
#X obj 150 331 bng 15 250 50 0 empty empty empty 17 7 0 10 #fcfcfc
#000000 #000000;
#X obj 149 303 sel 0;
#X obj 150 353 f;
#X obj 151 178 f;
#X obj 153 31 r \$0-notedur;
#X obj 153 78 t f f;
#X obj 176 330 inlet;
#X obj 148 382 outlet;
#X msg 93 355 0;
#X obj 93 381 outlet;
#X obj 236 384 outlet;
#X obj 316 372 outlet;
#X obj 315 310 * 1;
#X floatatom 315 341 5 0 0 0 - - - 0;
#X msg 150 226 \$1 \, 0 \$2;
#X connect 0 0 7 0;
#X connect 0 0 18 0;
#X connect 1 0 0 0;
#X connect 2 0 4 0;
#X connect 3 0 20 0;
#X connect 4 0 5 0;
#X connect 5 0 9 0;
#X connect 5 1 3 1;
#X connect 6 0 8 0;
#X connect 6 0 14 0;
#X connect 6 0 16 0;
#X connect 7 0 6 0;
#X connect 8 0 13 0;
#X connect 9 0 3 0;
#X connect 10 0 11 0;
#X connect 11 0 2 0;
#X connect 11 1 9 1;
#X connect 12 0 8 1;
#X connect 14 0 15 0;
#X connect 18 0 19 0;
#X connect 19 0 17 0;
#X connect 20 0 1 0;
#X restore 696 870 pd \$0-duration;
#N canvas -16 398 596 534 \$0-durationrandomizer 0;
#X floatatom 318 225 5 0 0 0 - - - 0;
#X obj 243 267 random 5;
#X obj 204 215 bng 15 250 50 0 empty empty empty 17 7 0 10 #fcfcfc
#000000 #000000;
#X floatatom 260 298 5 0 0 0 - - - 0;
#X msg 135 187 seed \$1;
#X obj 134 123 bng 15 250 50 0 empty empty empty 17 7 0 10 #fcfcfc
#000000 #000000;
#X obj 134 163 random 999;
#X obj 204 240 t b b;
#X obj 206 190 spigot 0;
#X obj 260 171 tgl 15 0 empty empty empty 17 7 0 10 #fcfcfc #000000
#000000 0 1;
#X obj 263 147 r \$0-notedurtoggle;
#X floatatom 319 290 5 0 0 0 - - - 0;
#X obj 261 366 random 5;
#X floatatom 259 395 5 0 0 0 - - - 0;
#X obj 259 492 s \$0-notedur;
#X obj 259 420 -;
#X floatatom 259 466 5 0 0 0 - - - 0;
#X floatatom 323 386 5 0 0 0 - - - 0;
#X obj 260 326 * 0.1;
#X obj 303 106 inlet;
#X obj 174 120 inlet;
#X obj 121 -7 inlet;
#X obj 413 257 spigot 0;
#X obj 467 238 tgl 15 0 empty empty empty 17 7 0 10 #fcfcfc #000000
#000000 0 1;
#X obj 463 185 change, f 8;
#X obj 411 285 s \$0-notedur;
#X obj 408 232 f;
#X obj 465 212 == 0;
#X obj 446 150 == 1;
#X obj 318 327 int;
#X obj 260 445 + 0.1;
#X obj 213 4 bng 15 250 50 0 empty empty empty 17 7 0 10 #fcfcfc #000000
#000000;
#X obj 212 84 spigot 0;
#X obj 268 64 tgl 15 0 empty empty empty 17 7 0 10 #fcfcfc #000000
#000000 0 1;
#X obj 212 -18 r \$0-gennewstack;
#X msg 299 72 0;
#X msg 349 70 1;
#X obj 300 49 del;
#X obj 301 21 t b b;
#X connect 0 0 11 0;
#X connect 0 0 1 1;
#X connect 1 0 3 0;
#X connect 2 0 7 0;
#X connect 3 0 18 0;
#X connect 4 0 1 0;
#X connect 5 0 6 0;
#X connect 6 0 4 0;
#X connect 7 0 12 0;
#X connect 7 1 1 0;
#X connect 8 0 2 0;
#X connect 9 0 8 1;
#X connect 9 0 28 0;
#X connect 10 0 9 0;
#X connect 11 0 29 0;
#X connect 12 0 13 0;
#X connect 13 0 15 0;
#X connect 15 0 30 0;
#X connect 16 0 14 0;
#X connect 18 0 17 0;
#X connect 18 0 15 1;
#X connect 19 0 0 0;
#X connect 19 0 26 1;
#X connect 20 0 8 0;
#X connect 20 0 26 0;
#X connect 21 0 38 0;
#X connect 22 0 25 0;
#X connect 23 0 22 1;
#X connect 24 0 27 0;
#X connect 26 0 22 0;
#X connect 27 0 23 0;
#X connect 28 0 24 0;
#X connect 29 0 12 1;
#X connect 30 0 16 0;
#X connect 31 0 33 0;
#X connect 31 0 32 0;
#X connect 32 0 5 0;
#X connect 33 0 32 1;
#X connect 34 0 31 0;
#X connect 35 0 33 0;
#X connect 36 0 33 0;
#X connect 37 0 35 0;
#X connect 38 0 37 0;
#X connect 38 1 36 0;
#X restore 680 737 pd \$0-durationrandomizer;
#X msg 742 1008 \$1 0;
#X msg 478 48 0;
#X obj 802 949 f;
#X obj 39 334 inlet, f 6;
#X obj 618 201 s \$0-notedurtoggle;
#N canvas 924 7 619 312 \$0-randomizestack 0;
#X obj 46 113 bng 15 250 50 0 empty empty empty 17 7 0 10 #fcfcfc #000000
#000000;
#X floatatom 46 182 5 0 0 0 - - - 0;
#X obj 46 132 random 16;
#X obj 46 156 + 1;
#X obj 117 104 bng 15 250 50 0 empty empty empty 17 7 0 10 #fcfcfc
#000000 #000000;
#X floatatom 117 180 5 0 0 0 - - - 0;
#X obj 119 128 random 16;
#X obj 117 154 + 1;
#X obj 83 66 t b b b b b b;
#X floatatom 361 195 5 0 0 0 - - - 0;
#X floatatom 455 191 5 0 0 0 - - - 0;
#X obj 367 114 bng 15 250 50 0 empty empty empty 17 7 0 10 #fcfcfc
#000000 #000000;
#X obj 67 34 inlet;
#X obj 447 111 bng 15 250 50 0 empty empty empty 17 7 0 10 #fcfcfc
#000000 #000000;
#X obj 456 163 + 1;
#X floatatom 191 180 5 0 0 0 - - - 0;
#X obj 193 102 bng 15 250 50 0 empty empty empty 17 7 0 10 #fcfcfc
#000000 #000000;
#X obj 191 155 + 1;
#X obj 193 125 random 12;
#X floatatom 269 180 5 0 0 0 - - - 0;
#X obj 271 102 bng 15 250 50 0 empty empty empty 17 7 0 10 #fcfcfc
#000000 #000000;
#X obj 265 224 outlet;
#X obj 455 239 outlet;
#X obj 361 232 outlet;
#X obj 41 216 outlet;
#X obj 188 219 outlet;
#X obj 111 222 outlet;
#X obj 367 137 random 9;
#X obj 362 168 * 0.1;
#X obj 451 137 random 4;
#X obj 271 125 random 4;
#X obj 276 151 + 1;
#X connect 0 0 2 0;
#X connect 1 0 24 0;
#X connect 2 0 3 0;
#X connect 3 0 1 0;
#X connect 4 0 6 0;
#X connect 5 0 26 0;
#X connect 6 0 7 0;
#X connect 7 0 5 0;
#X connect 8 0 0 0;
#X connect 8 1 4 0;
#X connect 8 2 16 0;
#X connect 8 3 20 0;
#X connect 8 4 11 0;
#X connect 8 5 13 0;
#X connect 9 0 23 0;
#X connect 10 0 22 0;
#X connect 11 0 27 0;
#X connect 12 0 8 0;
#X connect 13 0 29 0;
#X connect 14 0 10 0;
#X connect 15 0 25 0;
#X connect 16 0 18 0;
#X connect 17 0 15 0;
#X connect 18 0 17 0;
#X connect 19 0 21 0;
#X connect 20 0 30 0;
#X connect 27 0 28 0;
#X connect 28 0 9 0;
#X connect 29 0 14 0;
#X connect 30 0 31 0;
#X connect 31 0 19 0;
#X restore 197 40 pd \$0-randomizestack;
#X obj 98 646 s \$0-gennewstack;
#X obj 335 571 s \$0-stepfloat;
#X obj 98 544 t a;
#X obj 200 -14 r \$0-randomizethisstack;
#X obj 24 752 s \$0-randomizethisstack;
#X obj 39 361 t a;
#X obj 335 544 t a;
#X obj 199 14 t b;
#X obj 684 976 * 100;
#X obj 39 544 t b;
#X obj 177 621 s \$0-inheritednote;
#N canvas 104 104 450 300 \$0-typedisplay 0;
#X obj 100 100 cnv 15 36 22 empty empty Note 3 10 0 14 #606060 #000000
0;
#X coords 0 -1 1 1 36 22 2 100 100;
#X restore 299 101 pd \$0-typedisplay;
#X obj 256 596 s \$0-inheritedstate;
#X obj 693 900 bng 15 250 50 0 empty empty empty 17 7 0 10 #fcfcfc
#000000 #000000;
#X obj 776 902 bng 15 250 50 0 empty empty empty 17 7 0 10 #fcfcfc
#000000 #000000;
#X obj 679 542 r \$0-floatatstep;
#X obj 99 324 s \$0-perbeatvalue;
#X obj 803 526 r \$0-perbeatvalue;
#X obj 274 347 s \$0-semivalue;
#X obj 361 322 s \$0-octvalue;
#N canvas 26 26 450 300 \$0-settingsperstep 0;
#X obj 123 371 +;
#X obj 128 344 t b f;
#X floatatom 123 415 5 0 0 0 - - - 0;
#X obj 123 393 t f;
#X floatatom 107 208 5 0 0 0 - - - 0;
#X obj 128 322 * 12;
#X obj 123 439 + 24;
#X obj 144 36 r \$0-steptoggle;
#X obj 92 82 spigot 0;
#X obj 146 59 tgl 15 0 empty empty empty 17 7 0 10 #fcfcfc #000000
#000000 0 1;
#X obj 128 298 f;
#X obj 106 181 f;
#X obj 74 18 r \$0-stepfloat;
#X obj 73 42 t a;
#X obj 100 112 t a b b b b;
#X obj 105 232 s \$0-semiatstep;
#X obj 121 465 s \$0-noteatstep;
#X obj 33 489 s \$0-floatatstep;
#X obj 191 177 s \$0-bngonstep;
#X obj 156 199 s \$0-bng2onstep;
#X obj 125 153 r \$0-semivalue;
#X obj 149 270 r \$0-octvalue;
#X connect 0 0 3 0;
#X connect 1 0 0 0;
#X connect 1 1 0 1;
#X connect 2 0 6 0;
#X connect 3 0 2 0;
#X connect 4 0 0 0;
#X connect 4 0 15 0;
#X connect 5 0 1 0;
#X connect 6 0 16 0;
#X connect 7 0 9 0;
#X connect 8 0 14 0;
#X connect 9 0 8 1;
#X connect 10 0 5 0;
#X connect 11 0 4 0;
#X connect 12 0 13 0;
#X connect 13 0 8 0;
#X connect 14 0 17 0;
#X connect 14 1 11 0;
#X connect 14 2 10 0;
#X connect 14 3 19 0;
#X connect 14 4 18 0;
#X connect 20 0 11 1;
#X connect 21 0 10 1;
#X restore 679 762 pd \$0-settingsperstep;
#N canvas 582 223 450 449 \$0-inheritancecheck 0;
#X obj 156 119 tgl 15 0 empty empty empty 17 7 0 10 #fcfcfc #000000
#000000 0 1;
#X obj 88 123 spigot 0;
#X obj 315 204 change;
#X obj 313 176 == 0;
#X obj 315 232 == 1;
#X obj 315 264 tgl 15 0 empty empty empty 17 7 0 10 #fcfcfc #000000
#000000 0 1;
#X obj 259 283 spigot 0;
#X obj 103 89 t b b b f;
#X obj 103 62 r \$0-inheritedstate;
#X obj 56 36 r \$0-inheritednote;
#X obj 57 67 t f;
#X floatatom 92 345 5 0 0 0 - - - 0;
#X obj 90 318 +;
#X obj 147 319 +;
#X obj 146 286 t b f;
#X floatatom 100 231 5 0 0 0 - - - 0;
#X obj 143 259 * 12;
#X obj 144 229 f;
#X obj 99 204 f;
#X obj 199 248 r \$0-noteatstep;
#X obj 144 204 r \$0-bngonstep;
#X obj 100 154 r \$0-bng2onstep;
#X obj 125 177 r \$0-semivalue;
#X obj 177 226 r \$0-octvalue;
#X obj 91 373 outlet;
#X connect 0 0 1 1;
#X connect 0 0 3 0;
#X connect 1 0 12 0;
#X connect 2 0 4 0;
#X connect 3 0 2 0;
#X connect 4 0 5 0;
#X connect 5 0 6 1;
#X connect 6 0 11 0;
#X connect 7 3 0 0;
#X connect 8 0 7 0;
#X connect 9 0 10 0;
#X connect 10 0 1 0;
#X connect 11 0 24 0;
#X connect 12 0 11 0;
#X connect 13 0 12 1;
#X connect 14 0 13 0;
#X connect 14 1 13 1;
#X connect 15 0 13 0;
#X connect 16 0 14 0;
#X connect 17 0 16 0;
#X connect 18 0 15 0;
#X connect 19 0 6 0;
#X connect 20 0 17 0;
#X connect 21 0 18 0;
#X connect 22 0 18 1;
#X connect 23 0 17 1;
#X restore 697 817 pd \$0-inheritancecheck;
#X obj 679 642 s \$0-bngactivity;
#X obj 583 72 r \$0-bngactivity;
#X obj 554 318 s \$0-readactivity;
#X obj 586 895 r \$0-readactivity;
#X obj 387 347 s \$0-atvelocity;
#X obj 684 949 r \$0-atvelocity;
#X obj 501 344 s \$0-untilmillseconds;
#X obj 845 714 r \$0-untilmillseconds;
#X obj 737 617 s \$0-nextvelocity;
#X obj 453 75 r \$0-nextvelocity;
#X obj 549 44 s \$0-bngdefaultstate;
#X obj 680 666 r \$0-bngdefaultstate;
#N canvas 96 149 708 522 \$0-inheritanceswitch 0;
#X obj 288 113 tgl 15 0 empty empty empty 17 7 0 10 #fcfcfc #000000
#000000 0 1;
#X obj 233 136 spigot 0;
#X obj 315 161 change;
#X obj 321 132 == 0;
#X obj 315 189 == 1;
#X obj 315 221 tgl 15 0 empty empty empty 17 7 0 10 #fcfcfc #000000
#000000 0 1;
#X obj 259 240 spigot 0;
#X msg 317 284 clear;
#X msg 231 163 clear;
#X obj 261 399 s pd-\$0-typedisplay;
#X msg 193 308 obj 100 100 cnv 15 36 22 empty empty Note 3 10 0 14
#606060 #000000;
#X msg 258 349 obj 100 100 cnv 15 36 22 empty empty Semi 3 10 0 14
#606060 #000000;
#X obj 235 83 t b b b f;
#X msg 184 171 0;
#X msg 178 263 0;
#X obj 258 266 t b b b;
#X obj 230 189 t b b b;
#X obj 184 146 del;
#X obj 198 237 del;
#X obj 235 56 r \$0-inheritedstate;
#X msg 140 225 3;
#X msg 142 194 3;
#X obj 181 207 del;
#X obj 75 303 s \$0-resetsemi;
#X obj 31 266 s \$0-resetoct;
#X connect 0 0 1 1;
#X connect 0 0 3 0;
#X connect 1 0 8 0;
#X connect 2 0 4 0;
#X connect 3 0 2 0;
#X connect 4 0 5 0;
#X connect 5 0 6 1;
#X connect 6 0 15 0;
#X connect 7 0 9 0;
#X connect 8 0 16 0;
#X connect 10 0 9 0;
#X connect 11 0 9 0;
#X connect 12 1 1 0;
#X connect 12 2 6 0;
#X connect 12 3 0 0;
#X connect 13 0 23 0;
#X connect 14 0 23 0;
#X connect 15 0 18 0;
#X connect 15 1 7 0;
#X connect 15 1 10 0;
#X connect 16 0 17 0;
#X connect 16 0 22 0;
#X connect 16 1 11 0;
#X connect 16 2 7 0;
#X connect 17 0 13 0;
#X connect 18 0 14 0;
#X connect 18 0 20 0;
#X connect 19 0 12 0;
#X connect 20 0 24 0;
#X connect 21 0 24 0;
#X connect 22 0 21 0;
#X restore 697 792 pd \$0-inheritanceswitch;
#X obj 243 74 r \$0-resetsemi;
#X obj 349 76 r \$0-resetoct;
#X obj 48 671 r \$0-bngdefaultstate;
#X obj 177 545 t a;
#X obj 256 544 t a;
#X obj 762 690 r \$0-bngnewstepsettings;
#X obj 795 594 s \$0-bngnewstepsettings;
#X obj 317 659 bng 15 250 50 0 empty empty empty 17 7 0 10 #fcfcfc
#000000 #000000;
#X obj 317 630 t b;
#X obj 316 682 s \$0-fromstopall;
#X obj 804 924 r \$0-fromstopall;
#X obj 123 125 hsl 30 15 0 15 0 0 \$0-minbeats-send \$0-minbeats-recv
min:0 1 8 0 10 #606060 #00faff #ffffff 0 1;
#X obj 161 125 hsl 36 15 0 15 0 0 \$0-maxbeats-send \$0-maxbeats-recv
max:15 1 8 0 10 #606060 #00faff #ffffff 0 1;
#X obj 225 125 hsl 30 15 0 15 0 0 \$0-minshift-send \$0-minshift-recv
min:0 1 8 0 10 #606060 #00faff #ffffff 0 1;
#X obj 263 125 hsl 36 15 0 15 0 0 \$0-maxshift-send \$0-maxshift-recv
max:15 3 8 0 10 #606060 #00faff #ffffff 0 1;
#X obj 324 125 hsl 30 15 0 12 0 0 \$0-minnote-send \$0-minnote-recv
min:0 1 8 0 10 #606060 #00faff #ffffff 0 1;
#X obj 362 125 hsl 36 15 0 12 0 0 \$0-maxnote-send \$0-maxnote-recv
max:12 3 8 0 10 #606060 #00faff #ffffff 0 1;
#X obj 424 125 hsl 30 15 0 4 0 0 \$0-minoct-send \$0-minoct-recv min:0
1 8 0 10 #606060 #00faff #ffffff 0 1;
#X obj 462 125 hsl 36 15 0 4 0 0 \$0-maxoct-send \$0-maxoct-recv max:3
3 8 0 10 #606060 #00faff #ffffff 0 1;
#N canvas 52 52 1022 659 \$0-randomizebeats 0;
#X obj 102 102 tgl 12 0 empty empty empty 17 7 0 10 #606060 #000000
#dcdcdc 0 1;
#X obj 100 100 cnv 16 16 16 empty empty empty 20 12 0 14 #202020 #404040
0;
#X obj 103 103 cnv 10 10 10 \$0-rndbeatstoggle-send \$0-rndbeatstoggle-recv
empty 20 12 0 14 #fcfcfc #404040 0;
#X obj 171 442 f;
#X obj 171 420 t b f;
#X obj 100 206 spigot 0;
#X obj 145 162 tgl 15 0 empty empty empty 17 7 0 10 #fcfcfc #000000
#000000 0 1;
#X obj 145 139 change;
#X obj 145 116 == 0;
#X obj 216 372 tgl 15 0 empty empty empty 17 7 0 10 #fcfcfc #000000
#000000 0 1;
#X obj 171 345 change;
#X obj 171 395 spigot 0;
#X obj 171 322 == 0;
#X obj 171 366 t b f;
#X obj 171 462 t b b;
#X obj 100 251 f;
#X obj 100 229 t b f;
#X obj 100 271 t b b;
#X obj 145 184 t f f;
#X obj 56 129 tgl 15 0 empty empty empty 17 7 0 10 #fcfcfc #000000
#000000 0 1;
#X obj 55 150 t f b f;
#X obj 192 17 inlet;
#X obj 294 66 loadbang;
#X msg 144 94 0;
#X obj 376 108 \$1;
#X msg 377 133 \$1;
#X floatatom 372 154 5 0 0 0 - - - 0;
#X obj 364 260 t b s;
#X msg 360 283 bang;
#X obj 356 202 t f f;
#X obj 68 695 symbol;
#X obj 67 654 t b s;
#X msg 63 677 bang;
#X obj 51 716 s;
#X symbolatom 149 688 40 0 0 0 - - - 0;
#X obj 474 609 s;
#X obj 340 592 s;
#X msg 676 579 color 16;
#X obj 436 513 symbol;
#X msg 344 518 bang;
#X msg 394 519 \$1;
#X obj 345 539 f;
#X msg 343 560 color \$1;
#X obj 642 336 == 16;
#X obj 644 366 change;
#X obj 646 387 == 0;
#X obj 647 412 t b;
#X obj 651 439 bng 15 250 50 0 empty empty empty 17 7 0 10 #fcfcfc
#000000 #000000;
#X obj 650 473 tgl 15 0 empty empty empty 17 7 0 10 #fcfcfc #000000
#000000 0 1;
#X obj 603 494 spigot 0;
#X obj 742 405 change;
#X obj 745 451 t b;
#X obj 749 478 bng 15 250 50 0 empty empty empty 17 7 0 10 #fcfcfc
#000000 #000000;
#X obj 748 512 tgl 15 0 empty empty empty 17 7 0 10 #fcfcfc #000000
#000000 0 1;
#X obj 701 533 spigot 0;
#X obj 744 426 == 1;
#X obj 740 375 != 16;
#X msg 552 528 color 13;
#X obj 218 41 t b b;
#X obj 376 456 t b b f;
#X obj 289 98 \$0;
#X msg 288 119 \$1;
#X floatatom 284 148 5 0 0 0 - - - 0;
#X obj 379 434 r NewUiColorColorNum;
#X obj 744 342 r NewUiColorColorNum;
#X obj 646 303 r NewUiColorColorNum;
#X msg 204 117 1;
#X obj 158 71 del;
#X msg 361 234 symbol \$1-rndbeatstoggle-recv;
#X msg 65 628 symbol \$1-rndbeatstoggle;
#X connect 0 0 19 0;
#X connect 3 0 14 0;
#X connect 4 0 3 0;
#X connect 4 1 3 1;
#X connect 5 0 16 0;
#X connect 6 0 18 0;
#X connect 7 0 6 0;
#X connect 8 0 7 0;
#X connect 9 0 11 1;
#X connect 10 0 13 0;
#X connect 11 0 4 0;
#X connect 12 0 10 0;
#X connect 13 0 11 0;
#X connect 13 1 9 0;
#X connect 14 0 49 0;
#X connect 14 1 54 0;
#X connect 15 0 17 0;
#X connect 16 0 15 0;
#X connect 16 1 15 1;
#X connect 17 0 39 0;
#X connect 17 1 28 0;
#X connect 18 0 5 1;
#X connect 18 1 12 0;
#X connect 19 0 20 0;
#X connect 20 0 33 0;
#X connect 20 1 5 0;
#X connect 20 2 8 0;
#X connect 21 0 0 0;
#X connect 22 0 24 0;
#X connect 22 0 58 0;
#X connect 22 0 60 0;
#X connect 23 0 8 0;
#X connect 23 0 19 0;
#X connect 24 0 25 0;
#X connect 25 0 26 0;
#X connect 27 0 28 0;
#X connect 27 1 38 1;
#X connect 28 0 38 0;
#X connect 29 0 68 0;
#X connect 29 1 69 0;
#X connect 30 0 33 1;
#X connect 31 0 32 0;
#X connect 31 1 30 1;
#X connect 31 1 34 0;
#X connect 32 0 30 0;
#X connect 37 0 35 0;
#X connect 38 0 36 1;
#X connect 38 0 35 1;
#X connect 39 0 41 0;
#X connect 40 0 41 1;
#X connect 41 0 42 0;
#X connect 42 0 36 0;
#X connect 43 0 44 0;
#X connect 44 0 45 0;
#X connect 45 0 46 0;
#X connect 46 0 47 0;
#X connect 47 0 48 0;
#X connect 48 0 49 1;
#X connect 49 0 57 0;
#X connect 50 0 55 0;
#X connect 51 0 52 0;
#X connect 52 0 53 0;
#X connect 53 0 54 1;
#X connect 54 0 37 0;
#X connect 55 0 51 0;
#X connect 56 0 50 0;
#X connect 57 0 35 0;
#X connect 58 0 67 0;
#X connect 58 1 66 0;
#X connect 59 0 11 0;
#X connect 59 1 39 0;
#X connect 59 2 40 0;
#X connect 60 0 61 0;
#X connect 61 0 62 0;
#X connect 62 0 29 0;
#X connect 63 0 59 0;
#X connect 64 0 56 0;
#X connect 65 0 43 0;
#X connect 66 0 8 0;
#X connect 66 0 19 0;
#X connect 67 0 23 0;
#X connect 68 0 27 0;
#X connect 69 0 31 0;
#X coords 0 -1 1 1 16 16 2 100 100;
#X restore 102 125 pd \$0-randomizebeats;
#N canvas 52 52 1022 659 \$0-randomizebyshift 0;
#X obj 102 102 tgl 12 0 empty empty empty 17 7 0 10 #606060 #000000
#dcdcdc 0 1;
#X obj 100 100 cnv 16 16 16 empty empty empty 20 12 0 14 #202020 #404040
0;
#X obj 103 103 cnv 10 10 10 \$0-rndbyshifttoggle-send \$0-rndbyshifttoggle-recv
empty 20 12 0 14 #fcfcfc #404040 0;
#X obj 171 442 f;
#X obj 171 420 t b f;
#X obj 100 206 spigot 0;
#X obj 145 162 tgl 15 0 empty empty empty 17 7 0 10 #fcfcfc #000000
#000000 0 1;
#X obj 145 139 change;
#X obj 145 116 == 0;
#X obj 216 372 tgl 15 0 empty empty empty 17 7 0 10 #fcfcfc #000000
#000000 0 1;
#X obj 171 345 change;
#X obj 171 395 spigot 0;
#X obj 171 322 == 0;
#X obj 171 366 t b f;
#X obj 171 462 t b b;
#X obj 100 251 f;
#X obj 100 229 t b f;
#X obj 100 271 t b b;
#X obj 145 184 t f f;
#X obj 56 129 tgl 15 0 empty empty empty 17 7 0 10 #fcfcfc #000000
#000000 0 1;
#X obj 55 150 t f b f;
#X obj 192 17 inlet;
#X obj 294 66 loadbang;
#X msg 144 94 0;
#X obj 376 108 \$1;
#X msg 377 133 \$1;
#X floatatom 372 154 5 0 0 0 - - - 0;
#X obj 364 260 t b s;
#X msg 360 283 bang;
#X obj 356 202 t f f;
#X obj 68 695 symbol;
#X obj 67 654 t b s;
#X msg 63 677 bang;
#X obj 51 716 s;
#X symbolatom 149 688 40 0 0 0 - - - 0;
#X obj 474 609 s;
#X obj 340 592 s;
#X msg 676 579 color 16;
#X obj 436 513 symbol;
#X msg 344 518 bang;
#X msg 394 519 \$1;
#X obj 345 539 f;
#X msg 343 560 color \$1;
#X obj 642 336 == 16;
#X obj 644 366 change;
#X obj 646 387 == 0;
#X obj 647 412 t b;
#X obj 651 439 bng 15 250 50 0 empty empty empty 17 7 0 10 #fcfcfc
#000000 #000000;
#X obj 650 473 tgl 15 0 empty empty empty 17 7 0 10 #fcfcfc #000000
#000000 0 1;
#X obj 603 494 spigot 0;
#X obj 742 405 change;
#X obj 745 451 t b;
#X obj 749 478 bng 15 250 50 0 empty empty empty 17 7 0 10 #fcfcfc
#000000 #000000;
#X obj 748 512 tgl 15 0 empty empty empty 17 7 0 10 #fcfcfc #000000
#000000 0 1;
#X obj 701 533 spigot 0;
#X obj 744 426 == 1;
#X obj 740 375 != 16;
#X msg 552 528 color 13;
#X obj 218 41 t b b;
#X obj 376 456 t b b f;
#X obj 289 98 \$0;
#X msg 288 119 \$1;
#X floatatom 284 148 5 0 0 0 - - - 0;
#X obj 379 434 r NewUiColorColorNum;
#X obj 744 342 r NewUiColorColorNum;
#X obj 646 303 r NewUiColorColorNum;
#X msg 204 117 1;
#X obj 158 71 del;
#X msg 361 234 symbol \$1-rndbyshifttoggle-recv;
#X msg 65 628 symbol \$1-rndbyshifttoggle;
#X connect 0 0 19 0;
#X connect 3 0 14 0;
#X connect 4 0 3 0;
#X connect 4 1 3 1;
#X connect 5 0 16 0;
#X connect 6 0 18 0;
#X connect 7 0 6 0;
#X connect 8 0 7 0;
#X connect 9 0 11 1;
#X connect 10 0 13 0;
#X connect 11 0 4 0;
#X connect 12 0 10 0;
#X connect 13 0 11 0;
#X connect 13 1 9 0;
#X connect 14 0 49 0;
#X connect 14 1 54 0;
#X connect 15 0 17 0;
#X connect 16 0 15 0;
#X connect 16 1 15 1;
#X connect 17 0 39 0;
#X connect 17 1 28 0;
#X connect 18 0 5 1;
#X connect 18 1 12 0;
#X connect 19 0 20 0;
#X connect 20 0 33 0;
#X connect 20 1 5 0;
#X connect 20 2 8 0;
#X connect 21 0 19 0;
#X connect 22 0 24 0;
#X connect 22 0 58 0;
#X connect 22 0 60 0;
#X connect 23 0 8 0;
#X connect 23 0 19 0;
#X connect 24 0 25 0;
#X connect 25 0 26 0;
#X connect 27 0 28 0;
#X connect 27 1 38 1;
#X connect 28 0 38 0;
#X connect 29 0 68 0;
#X connect 29 1 69 0;
#X connect 30 0 33 1;
#X connect 31 0 32 0;
#X connect 31 1 30 1;
#X connect 31 1 34 0;
#X connect 32 0 30 0;
#X connect 37 0 35 0;
#X connect 38 0 36 1;
#X connect 38 0 35 1;
#X connect 39 0 41 0;
#X connect 40 0 41 1;
#X connect 41 0 42 0;
#X connect 42 0 36 0;
#X connect 43 0 44 0;
#X connect 44 0 45 0;
#X connect 45 0 46 0;
#X connect 46 0 47 0;
#X connect 47 0 48 0;
#X connect 48 0 49 1;
#X connect 49 0 57 0;
#X connect 50 0 55 0;
#X connect 51 0 52 0;
#X connect 52 0 53 0;
#X connect 53 0 54 1;
#X connect 54 0 37 0;
#X connect 55 0 51 0;
#X connect 56 0 50 0;
#X connect 57 0 35 0;
#X connect 58 0 67 0;
#X connect 58 1 66 0;
#X connect 59 0 11 0;
#X connect 59 1 39 0;
#X connect 59 2 40 0;
#X connect 60 0 61 0;
#X connect 61 0 62 0;
#X connect 62 0 29 0;
#X connect 63 0 59 0;
#X connect 64 0 56 0;
#X connect 65 0 43 0;
#X connect 66 0 8 0;
#X connect 66 0 19 0;
#X connect 67 0 23 0;
#X connect 68 0 27 0;
#X connect 69 0 31 0;
#X coords 0 -1 1 1 16 16 2 100 100;
#X restore 203 125 pd \$0-randomizebyshift;
#N canvas 52 52 1022 659 \$0-randomizenextnote 0;
#X obj 102 102 tgl 12 0 empty empty empty 17 7 0 10 #606060 #000000
#dcdcdc 0 1;
#X obj 100 100 cnv 16 16 16 empty empty empty 20 12 0 14 #202020 #404040
0;
#X obj 103 103 cnv 10 10 10 \$0-rndnextnotetoggle-send \$0-rndnextnotetoggle-recv
empty 20 12 0 14 #fcfcfc #404040 0;
#X obj 171 442 f;
#X obj 171 420 t b f;
#X obj 100 206 spigot 0;
#X obj 145 162 tgl 15 0 empty empty empty 17 7 0 10 #fcfcfc #000000
#000000 0 1;
#X obj 145 139 change;
#X obj 145 116 == 0;
#X obj 216 372 tgl 15 0 empty empty empty 17 7 0 10 #fcfcfc #000000
#000000 0 1;
#X obj 171 345 change;
#X obj 171 395 spigot 0;
#X obj 171 322 == 0;
#X obj 171 366 t b f;
#X obj 171 462 t b b;
#X obj 100 251 f;
#X obj 100 229 t b f;
#X obj 100 271 t b b;
#X obj 145 184 t f f;
#X obj 56 129 tgl 15 0 empty empty empty 17 7 0 10 #fcfcfc #000000
#000000 0 1;
#X obj 55 150 t f b f;
#X obj 192 17 inlet;
#X obj 294 66 loadbang;
#X msg 144 94 0;
#X obj 376 108 \$1;
#X msg 377 133 \$1;
#X floatatom 372 154 5 0 0 0 - - - 0;
#X obj 364 260 t b s;
#X msg 360 283 bang;
#X obj 356 202 t f f;
#X obj 68 695 symbol;
#X obj 67 654 t b s;
#X msg 63 677 bang;
#X obj 51 716 s;
#X symbolatom 149 688 40 0 0 0 - - - 0;
#X obj 474 609 s;
#X obj 340 592 s;
#X msg 676 579 color 16;
#X obj 436 513 symbol;
#X msg 344 518 bang;
#X msg 394 519 \$1;
#X obj 345 539 f;
#X msg 343 560 color \$1;
#X obj 642 336 == 16;
#X obj 644 366 change;
#X obj 646 387 == 0;
#X obj 647 412 t b;
#X obj 651 439 bng 15 250 50 0 empty empty empty 17 7 0 10 #fcfcfc
#000000 #000000;
#X obj 650 473 tgl 15 0 empty empty empty 17 7 0 10 #fcfcfc #000000
#000000 0 1;
#X obj 603 494 spigot 0;
#X obj 742 405 change;
#X obj 745 451 t b;
#X obj 749 478 bng 15 250 50 0 empty empty empty 17 7 0 10 #fcfcfc
#000000 #000000;
#X obj 748 512 tgl 15 0 empty empty empty 17 7 0 10 #fcfcfc #000000
#000000 0 1;
#X obj 701 533 spigot 0;
#X obj 744 426 == 1;
#X obj 740 375 != 16;
#X msg 552 528 color 13;
#X obj 218 41 t b b;
#X obj 376 456 t b b f;
#X obj 289 98 \$0;
#X msg 288 119 \$1;
#X floatatom 284 148 5 0 0 0 - - - 0;
#X obj 379 434 r NewUiColorColorNum;
#X obj 744 342 r NewUiColorColorNum;
#X obj 646 303 r NewUiColorColorNum;
#X msg 204 117 1;
#X obj 158 71 del;
#X msg 65 628 symbol \$1-rndnextnotetoggle;
#X msg 361 234 symbol \$1-rndnextnotetoggle-recv;
#X connect 0 0 19 0;
#X connect 3 0 14 0;
#X connect 4 0 3 0;
#X connect 4 1 3 1;
#X connect 5 0 16 0;
#X connect 6 0 18 0;
#X connect 7 0 6 0;
#X connect 8 0 7 0;
#X connect 9 0 11 1;
#X connect 10 0 13 0;
#X connect 11 0 4 0;
#X connect 12 0 10 0;
#X connect 13 0 11 0;
#X connect 13 1 9 0;
#X connect 14 0 49 0;
#X connect 14 1 54 0;
#X connect 15 0 17 0;
#X connect 16 0 15 0;
#X connect 16 1 15 1;
#X connect 17 0 39 0;
#X connect 17 1 28 0;
#X connect 18 0 5 1;
#X connect 18 1 12 0;
#X connect 19 0 20 0;
#X connect 20 0 33 0;
#X connect 20 1 5 0;
#X connect 20 2 8 0;
#X connect 21 0 19 0;
#X connect 22 0 24 0;
#X connect 22 0 58 0;
#X connect 22 0 60 0;
#X connect 23 0 8 0;
#X connect 23 0 19 0;
#X connect 24 0 25 0;
#X connect 25 0 26 0;
#X connect 27 0 28 0;
#X connect 27 1 38 1;
#X connect 28 0 38 0;
#X connect 29 0 69 0;
#X connect 29 1 68 0;
#X connect 30 0 33 1;
#X connect 31 0 32 0;
#X connect 31 1 30 1;
#X connect 31 1 34 0;
#X connect 32 0 30 0;
#X connect 37 0 35 0;
#X connect 38 0 36 1;
#X connect 38 0 35 1;
#X connect 39 0 41 0;
#X connect 40 0 41 1;
#X connect 41 0 42 0;
#X connect 42 0 36 0;
#X connect 43 0 44 0;
#X connect 44 0 45 0;
#X connect 45 0 46 0;
#X connect 46 0 47 0;
#X connect 47 0 48 0;
#X connect 48 0 49 1;
#X connect 49 0 57 0;
#X connect 50 0 55 0;
#X connect 51 0 52 0;
#X connect 52 0 53 0;
#X connect 53 0 54 1;
#X connect 54 0 37 0;
#X connect 55 0 51 0;
#X connect 56 0 50 0;
#X connect 57 0 35 0;
#X connect 58 0 67 0;
#X connect 58 1 66 0;
#X connect 59 0 11 0;
#X connect 59 1 39 0;
#X connect 59 2 40 0;
#X connect 60 0 61 0;
#X connect 61 0 62 0;
#X connect 62 0 29 0;
#X connect 63 0 59 0;
#X connect 64 0 56 0;
#X connect 65 0 43 0;
#X connect 66 0 8 0;
#X connect 66 0 19 0;
#X connect 67 0 23 0;
#X connect 68 0 31 0;
#X connect 69 0 27 0;
#X coords 0 -1 1 1 16 16 2 100 100;
#X restore 303 124 pd \$0-randomizenextnote;
#N canvas 52 52 1022 659 \$0-randomizenextoct 0;
#X obj 102 102 tgl 12 0 empty empty empty 17 7 0 10 #606060 #000000
#dcdcdc 0 1;
#X obj 100 100 cnv 16 16 16 empty empty empty 20 12 0 14 #202020 #404040
0;
#X obj 103 103 cnv 10 10 10 \$0-rndnextocttoggle-send \$0-rndnextocttoggle-recv
empty 20 12 0 14 #fcfcfc #404040 0;
#X obj 171 442 f;
#X obj 171 420 t b f;
#X obj 100 206 spigot 0;
#X obj 145 162 tgl 15 0 empty empty empty 17 7 0 10 #fcfcfc #000000
#000000 0 1;
#X obj 145 139 change;
#X obj 145 116 == 0;
#X obj 216 372 tgl 15 0 empty empty empty 17 7 0 10 #fcfcfc #000000
#000000 0 1;
#X obj 171 345 change;
#X obj 171 395 spigot 0;
#X obj 171 322 == 0;
#X obj 171 366 t b f;
#X obj 171 462 t b b;
#X obj 100 251 f;
#X obj 100 229 t b f;
#X obj 100 271 t b b;
#X obj 145 184 t f f;
#X obj 56 129 tgl 15 0 empty empty empty 17 7 0 10 #fcfcfc #000000
#000000 0 1;
#X obj 55 150 t f b f;
#X obj 192 17 inlet;
#X obj 294 66 loadbang;
#X msg 144 94 0;
#X obj 376 108 \$1;
#X msg 377 133 \$1;
#X floatatom 372 154 5 0 0 0 - - - 0;
#X obj 364 260 t b s;
#X msg 360 283 bang;
#X obj 356 202 t f f;
#X obj 68 695 symbol;
#X obj 67 654 t b s;
#X msg 63 677 bang;
#X obj 51 716 s;
#X symbolatom 149 688 40 0 0 0 - - - 0;
#X obj 474 609 s;
#X obj 340 592 s;
#X msg 676 579 color 16;
#X obj 436 513 symbol;
#X msg 344 518 bang;
#X msg 394 519 \$1;
#X obj 345 539 f;
#X msg 343 560 color \$1;
#X obj 642 336 == 16;
#X obj 644 366 change;
#X obj 646 387 == 0;
#X obj 647 412 t b;
#X obj 651 439 bng 15 250 50 0 empty empty empty 17 7 0 10 #fcfcfc
#000000 #000000;
#X obj 650 473 tgl 15 0 empty empty empty 17 7 0 10 #fcfcfc #000000
#000000 0 1;
#X obj 603 494 spigot 0;
#X obj 742 405 change;
#X obj 745 451 t b;
#X obj 749 478 bng 15 250 50 0 empty empty empty 17 7 0 10 #fcfcfc
#000000 #000000;
#X obj 748 512 tgl 15 0 empty empty empty 17 7 0 10 #fcfcfc #000000
#000000 0 1;
#X obj 701 533 spigot 0;
#X obj 744 426 == 1;
#X obj 740 375 != 16;
#X msg 552 528 color 13;
#X obj 218 41 t b b;
#X obj 376 456 t b b f;
#X obj 289 98 \$0;
#X msg 288 119 \$1;
#X floatatom 284 148 5 0 0 0 - - - 0;
#X obj 379 434 r NewUiColorColorNum;
#X obj 744 342 r NewUiColorColorNum;
#X obj 646 303 r NewUiColorColorNum;
#X msg 204 117 1;
#X obj 158 71 del;
#X msg 361 234 symbol \$1-rndnextocttoggle-recv;
#X msg 65 628 symbol \$1-rndnextocttoggle;
#X connect 0 0 19 0;
#X connect 3 0 14 0;
#X connect 4 0 3 0;
#X connect 4 1 3 1;
#X connect 5 0 16 0;
#X connect 6 0 18 0;
#X connect 7 0 6 0;
#X connect 8 0 7 0;
#X connect 9 0 11 1;
#X connect 10 0 13 0;
#X connect 11 0 4 0;
#X connect 12 0 10 0;
#X connect 13 0 11 0;
#X connect 13 1 9 0;
#X connect 14 0 49 0;
#X connect 14 1 54 0;
#X connect 15 0 17 0;
#X connect 16 0 15 0;
#X connect 16 1 15 1;
#X connect 17 0 39 0;
#X connect 17 1 28 0;
#X connect 18 0 5 1;
#X connect 18 1 12 0;
#X connect 19 0 20 0;
#X connect 20 0 33 0;
#X connect 20 1 5 0;
#X connect 20 2 8 0;
#X connect 21 0 19 0;
#X connect 22 0 24 0;
#X connect 22 0 58 0;
#X connect 22 0 60 0;
#X connect 23 0 8 0;
#X connect 23 0 19 0;
#X connect 24 0 25 0;
#X connect 25 0 26 0;
#X connect 27 0 28 0;
#X connect 27 1 38 1;
#X connect 28 0 38 0;
#X connect 29 0 68 0;
#X connect 29 1 69 0;
#X connect 30 0 33 1;
#X connect 31 0 32 0;
#X connect 31 1 30 1;
#X connect 31 1 34 0;
#X connect 32 0 30 0;
#X connect 37 0 35 0;
#X connect 38 0 36 1;
#X connect 38 0 35 1;
#X connect 39 0 41 0;
#X connect 40 0 41 1;
#X connect 41 0 42 0;
#X connect 42 0 36 0;
#X connect 43 0 44 0;
#X connect 44 0 45 0;
#X connect 45 0 46 0;
#X connect 46 0 47 0;
#X connect 47 0 48 0;
#X connect 48 0 49 1;
#X connect 49 0 57 0;
#X connect 50 0 55 0;
#X connect 51 0 52 0;
#X connect 52 0 53 0;
#X connect 53 0 54 1;
#X connect 54 0 37 0;
#X connect 55 0 51 0;
#X connect 56 0 50 0;
#X connect 57 0 35 0;
#X connect 58 0 67 0;
#X connect 58 1 66 0;
#X connect 59 0 11 0;
#X connect 59 1 39 0;
#X connect 59 2 40 0;
#X connect 60 0 61 0;
#X connect 61 0 62 0;
#X connect 62 0 29 0;
#X connect 63 0 59 0;
#X connect 64 0 56 0;
#X connect 65 0 43 0;
#X connect 66 0 8 0;
#X connect 66 0 19 0;
#X connect 67 0 23 0;
#X connect 68 0 27 0;
#X connect 69 0 31 0;
#X coords 0 -1 1 1 16 16 2 100 100;
#X restore 402 124 pd \$0-randomizenextoct;
#X obj 123 142 hsl 33 15 0 15 0 0 \$0-bybeats-send \$0-bybeats-recv
by:0 3 8 0 10 #606060 #00faff #ffffff 0 1;
#X obj 159 142 cnv 15 15 15 empty empty Steps 3 7 0 10 #606060 #000000
0;
#X obj 223 142 hsl 33 15 0 15 0 0 \$0-byshiftbeats-recv \$0-byshiftbeats-recv
by:8 3 8 0 10 #606060 #00faff #ffffff 0 1;
#X obj 260 142 cnv 15 15 15 empty empty Steps 3 7 0 10 #606060 #000000
0;
#X obj 319 142 hsl 33 15 0 15 0 0 \$0-bynotes-send \$0-bynotes-recv
by:0 3 8 0 10 #606060 #00faff #ffffff 0 1;
#X obj 355 142 cnv 15 15 15 empty empty Steps 3 7 0 10 #606060 #000000
0;
#X obj 416 142 hsl 33 15 0 15 0 0 \$0-byoct-send \$0-byoct-recv by:0
3 8 0 10 #606060 #00faff #ffffff 0 1;
#X obj 452 142 cnv 15 15 15 empty empty Steps 3 7 0 10 #606060 #000000
0;
#X obj 473 664 f;
#X obj 471 717 t a;
#X obj 471 744 s \$0-minmaxsettings;
#X obj 357 -48 r \$0-minmaxsettings;
#X obj 430 544 t b;
#X obj 443 567 s \$0-initdefaults;
#X obj 712 -180 r \$0-initdefaults;
#X msg 670 -155 0;
#X obj 661 -73 t b f;
#X obj 643 -45 t b f;
#X obj 621 -130 t b f;
#X obj 603 -102 t b f;
#X obj 580 -79 t b f;
#X obj 557 -57 t b f;
#X obj 70 728 s \$0-initdefaults;
#X obj 47 696 t b b;
#X msg 738 -155 15;
#X msg 473 689 range 0 \$1;
#X floatatom 469 604 5 0 0 0 - - - 0;
#N canvas 750 185 431 581 \$0-adjustrandombeats 0;
#X obj 204 24 r \$0-stepfloat;
#X obj 182 475 bng 15 250 50 0 empty empty empty 17 7 0 10 #fcfcfc
#000000 #000000;
#X floatatom 246 174 5 0 0 0 - - - 0;
#X floatatom 192 522 5 0 0 0 - - - 0;
#X floatatom 202 98 5 0 0 0 - - - 0;
#X obj 247 152 int;
#X obj 243 48 r \$0-rndbeatstoggle;
#X obj 203 124 spigot 0;
#X obj 278 100 tgl 15 0 empty empty empty 17 7 0 10 #fcfcfc #000000
#000000 0 1;
#X obj 245 76 t b f;
#X obj 252 472 t f;
#X obj 190 560 >;
#X obj 189 585 sel 0;
#X obj 164 586 bng 15 250 50 0 empty empty empty 17 7 0 10 #fcfcfc
#000000 #000000;
#X obj 220 612 bng 15 250 50 0 empty empty empty 17 7 0 10 #fcfcfc
#000000 #000000;
#X floatatom 214 444 5 0 0 0 - - - 0;
#X floatatom 254 442 5 0 0 0 - - - 0;
#X obj 215 421 int;
#X obj 254 418 int;
#X obj 192 498 random 15;
#X obj 240 585 route float;
#X obj 225 633 f;
#X floatatom 242 609 5 0 0 0 - - - 0;
#X floatatom 225 659 5 0 0 0 - - - 0;
#X obj 69 16 inlet;
#X obj 112 13 inlet;
#X obj 153 13 inlet;
#X obj 24 18 inlet;
#X obj 224 684 outlet;
#X floatatom 176 211 4 0 0 0 - - - 0;
#X floatatom 132 210 4 0 0 0 - - - 0;
#X obj 131 244 %;
#X obj 132 269 tgl 15 0 empty empty empty 17 7 0 10 #fcfcfc #000000
#000000 0 1;
#X obj 131 291 == 0;
#X obj 129 315 change;
#X obj 129 345 == 1;
#X obj 129 382 spigot 0;
#X obj 189 361 tgl 15 0 empty empty empty 17 7 0 10 #fcfcfc #000000
#000000 0 1;
#X connect 0 0 4 0;
#X connect 1 0 19 0;
#X connect 2 0 29 0;
#X connect 3 0 11 0;
#X connect 3 0 20 0;
#X connect 4 0 7 0;
#X connect 5 0 2 0;
#X connect 6 0 9 0;
#X connect 7 0 30 0;
#X connect 8 0 7 1;
#X connect 9 1 8 0;
#X connect 10 0 19 1;
#X connect 11 0 12 0;
#X connect 12 0 13 0;
#X connect 12 1 14 0;
#X connect 13 0 1 0;
#X connect 14 0 21 0;
#X connect 15 0 11 1;
#X connect 16 0 10 0;
#X connect 17 0 15 0;
#X connect 18 0 16 0;
#X connect 19 0 3 0;
#X connect 20 0 22 0;
#X connect 21 0 23 0;
#X connect 22 0 21 1;
#X connect 23 0 28 0;
#X connect 24 0 18 0;
#X connect 25 0 5 0;
#X connect 26 0 10 0;
#X connect 27 0 17 0;
#X connect 29 0 31 1;
#X connect 30 0 31 0;
#X connect 31 0 32 0;
#X connect 32 0 33 0;
#X connect 33 0 34 0;
#X connect 34 0 35 0;
#X connect 35 0 37 0;
#X connect 35 0 36 0;
#X connect 36 0 1 0;
#X connect 37 0 36 1;
#X restore 924 94 pd \$0-adjustrandombeats;
#X floatatom 1036 51 5 0 0 0 - - - 0;
#X floatatom 972 65 5 0 0 0 - - - 0;
#X floatatom 911 69 5 0 0 0 - - - 0;
#X floatatom 917 118 5 0 0 0 - - - 0;
#X floatatom 1100 145 5 0 0 0 - - - 0;
#X floatatom 1038 141 5 0 0 0 - - - 0;
#X floatatom 977 145 5 0 0 0 - - - 0;
#X floatatom 983 194 5 0 0 0 - - - 0;
#N canvas 750 185 431 581 \$0-adjustrandomshift 0;
#X obj 204 24 r \$0-stepfloat;
#X obj 182 475 bng 15 250 50 0 empty empty empty 17 7 0 10 #fcfcfc
#000000 #000000;
#X floatatom 246 174 5 0 0 0 - - - 0;
#X floatatom 192 522 5 0 0 0 - - - 0;
#X floatatom 202 98 5 0 0 0 - - - 0;
#X obj 247 152 int;
#X obj 203 124 spigot 0;
#X obj 278 100 tgl 15 0 empty empty empty 17 7 0 10 #fcfcfc #000000
#000000 0 1;
#X obj 245 76 t b f;
#X obj 252 472 t f;
#X obj 190 560 >;
#X obj 189 585 sel 0;
#X obj 164 586 bng 15 250 50 0 empty empty empty 17 7 0 10 #fcfcfc
#000000 #000000;
#X obj 220 612 bng 15 250 50 0 empty empty empty 17 7 0 10 #fcfcfc
#000000 #000000;
#X floatatom 214 444 5 0 0 0 - - - 0;
#X floatatom 254 442 5 0 0 0 - - - 0;
#X obj 215 421 int;
#X obj 254 418 int;
#X obj 192 498 random 15;
#X obj 240 585 route float;
#X obj 225 633 f;
#X floatatom 242 609 5 0 0 0 - - - 0;
#X floatatom 225 659 5 0 0 0 - - - 0;
#X obj 69 16 inlet;
#X obj 112 13 inlet;
#X obj 153 13 inlet;
#X obj 24 18 inlet;
#X obj 224 684 outlet;
#X floatatom 176 211 4 0 0 0 - - - 0;
#X floatatom 132 210 4 0 0 0 - - - 0;
#X obj 131 244 %;
#X obj 132 269 tgl 15 0 empty empty empty 17 7 0 10 #fcfcfc #000000
#000000 0 1;
#X obj 131 291 == 0;
#X obj 129 315 change;
#X obj 129 345 == 1;
#X obj 129 382 spigot 0;
#X obj 189 361 tgl 15 0 empty empty empty 17 7 0 10 #fcfcfc #000000
#000000 0 1;
#X obj 243 48 r \$0-rndbyshifttoggle;
#X connect 0 0 4 0;
#X connect 1 0 18 0;
#X connect 2 0 28 0;
#X connect 3 0 10 0;
#X connect 3 0 19 0;
#X connect 4 0 6 0;
#X connect 5 0 2 0;
#X connect 6 0 29 0;
#X connect 7 0 6 1;
#X connect 8 1 7 0;
#X connect 9 0 18 1;
#X connect 10 0 11 0;
#X connect 11 0 12 0;
#X connect 11 1 13 0;
#X connect 12 0 1 0;
#X connect 13 0 20 0;
#X connect 14 0 10 1;
#X connect 15 0 9 0;
#X connect 16 0 14 0;
#X connect 17 0 15 0;
#X connect 18 0 3 0;
#X connect 19 0 21 0;
#X connect 20 0 22 0;
#X connect 21 0 20 1;
#X connect 22 0 27 0;
#X connect 23 0 17 0;
#X connect 24 0 5 0;
#X connect 25 0 9 0;
#X connect 26 0 16 0;
#X connect 28 0 30 1;
#X connect 29 0 30 0;
#X connect 30 0 31 0;
#X connect 31 0 32 0;
#X connect 32 0 33 0;
#X connect 33 0 34 0;
#X connect 34 0 36 0;
#X connect 34 0 35 0;
#X connect 35 0 1 0;
#X connect 36 0 35 1;
#X connect 37 0 8 0;
#X restore 990 170 pd \$0-adjustrandomshift;
#X msg 555 675 12;
#X msg 608 672 4;
#X obj 472 630 t b f f f b b;
#X floatatom 1192 218 5 0 0 0 - - - 0;
#X floatatom 1130 214 5 0 0 0 - - - 0;
#X floatatom 1069 218 5 0 0 0 - - - 0;
#X floatatom 1075 267 5 0 0 0 - - - 0;
#N canvas 750 185 431 581 \$0-adjustrandomnote 0;
#X obj 204 24 r \$0-stepfloat;
#X obj 182 475 bng 15 250 50 0 empty empty empty 17 7 0 10 #fcfcfc
#000000 #000000;
#X floatatom 246 174 5 0 0 0 - - - 0;
#X floatatom 192 522 5 0 0 0 - - - 0;
#X floatatom 202 98 5 0 0 0 - - - 0;
#X obj 247 152 int;
#X obj 203 124 spigot 0;
#X obj 278 100 tgl 15 0 empty empty empty 17 7 0 10 #fcfcfc #000000
#000000 0 1;
#X obj 245 76 t b f;
#X obj 252 472 t f;
#X obj 190 560 >;
#X obj 189 585 sel 0;
#X obj 164 586 bng 15 250 50 0 empty empty empty 17 7 0 10 #fcfcfc
#000000 #000000;
#X obj 220 612 bng 15 250 50 0 empty empty empty 17 7 0 10 #fcfcfc
#000000 #000000;
#X floatatom 214 444 5 0 0 0 - - - 0;
#X floatatom 254 442 5 0 0 0 - - - 0;
#X obj 215 421 int;
#X obj 254 418 int;
#X obj 192 498 random 15;
#X obj 240 585 route float;
#X obj 225 633 f;
#X floatatom 242 609 5 0 0 0 - - - 0;
#X floatatom 225 659 5 0 0 0 - - - 0;
#X obj 69 16 inlet;
#X obj 112 13 inlet;
#X obj 153 13 inlet;
#X obj 24 18 inlet;
#X obj 224 684 outlet;
#X floatatom 176 211 4 0 0 0 - - - 0;
#X floatatom 132 210 4 0 0 0 - - - 0;
#X obj 131 244 %;
#X obj 132 269 tgl 15 0 empty empty empty 17 7 0 10 #fcfcfc #000000
#000000 0 1;
#X obj 131 291 == 0;
#X obj 129 315 change;
#X obj 129 345 == 1;
#X obj 129 382 spigot 0;
#X obj 189 361 tgl 15 0 empty empty empty 17 7 0 10 #fcfcfc #000000
#000000 0 1;
#X obj 243 48 r \$0-rndnextnotetoggle;
#X connect 0 0 4 0;
#X connect 1 0 18 0;
#X connect 2 0 28 0;
#X connect 3 0 10 0;
#X connect 3 0 19 0;
#X connect 4 0 6 0;
#X connect 5 0 2 0;
#X connect 6 0 29 0;
#X connect 7 0 6 1;
#X connect 8 1 7 0;
#X connect 9 0 18 1;
#X connect 10 0 11 0;
#X connect 11 0 12 0;
#X connect 11 1 13 0;
#X connect 12 0 1 0;
#X connect 13 0 20 0;
#X connect 14 0 10 1;
#X connect 15 0 9 0;
#X connect 16 0 14 0;
#X connect 17 0 15 0;
#X connect 18 0 3 0;
#X connect 19 0 21 0;
#X connect 20 0 22 0;
#X connect 21 0 20 1;
#X connect 22 0 27 0;
#X connect 23 0 17 0;
#X connect 24 0 5 0;
#X connect 25 0 9 0;
#X connect 26 0 16 0;
#X connect 28 0 30 1;
#X connect 29 0 30 0;
#X connect 30 0 31 0;
#X connect 31 0 32 0;
#X connect 32 0 33 0;
#X connect 33 0 34 0;
#X connect 34 0 36 0;
#X connect 34 0 35 0;
#X connect 35 0 1 0;
#X connect 36 0 35 1;
#X connect 37 0 8 0;
#X restore 1082 243 pd \$0-adjustrandomnote;
#X obj 331 -75 r \$0-minmaxnotesettings;
#X obj 395 -22 r \$0-minmaxoctsettings;
#X obj 471 774 f;
#X obj 469 827 t a;
#X msg 471 799 range 0 \$1;
#X obj 553 701 t b f;
#X obj 469 854 s \$0-minmaxnotesettings;
#X obj 375 806 f;
#X obj 373 859 t a;
#X msg 375 831 range 0 \$1;
#X obj 373 886 s \$0-minmaxoctsettings;
#X obj 608 698 t b f;
#X floatatom 1308 276 5 0 0 0 - - - 0;
#X floatatom 1246 272 5 0 0 0 - - - 0;
#X floatatom 1185 276 5 0 0 0 - - - 0;
#X floatatom 1191 325 5 0 0 0 - - - 0;
#X msg 745 -18 12;
#X msg 811 -37 3;
#X obj 799 -71 t b b;
#X obj 750 -70 t b b;
#N canvas 750 185 431 581 \$0-adjustrandomoct 0;
#X obj 204 24 r \$0-stepfloat;
#X obj 182 475 bng 15 250 50 0 empty empty empty 17 7 0 10 #fcfcfc
#000000 #000000;
#X floatatom 246 174 5 0 0 0 - - - 0;
#X floatatom 192 522 5 0 0 0 - - - 0;
#X floatatom 202 98 5 0 0 0 - - - 0;
#X obj 247 152 int;
#X obj 203 124 spigot 0;
#X obj 278 100 tgl 15 0 empty empty empty 17 7 0 10 #fcfcfc #000000
#000000 0 1;
#X obj 245 76 t b f;
#X obj 252 472 t f;
#X obj 190 560 >;
#X obj 189 585 sel 0;
#X obj 164 586 bng 15 250 50 0 empty empty empty 17 7 0 10 #fcfcfc
#000000 #000000;
#X obj 220 612 bng 15 250 50 0 empty empty empty 17 7 0 10 #fcfcfc
#000000 #000000;
#X floatatom 214 444 5 0 0 0 - - - 0;
#X floatatom 254 442 5 0 0 0 - - - 0;
#X obj 215 421 int;
#X obj 254 418 int;
#X obj 192 498 random 15;
#X obj 240 585 route float;
#X obj 225 633 f;
#X floatatom 242 609 5 0 0 0 - - - 0;
#X floatatom 225 659 5 0 0 0 - - - 0;
#X obj 69 16 inlet;
#X obj 112 13 inlet;
#X obj 153 13 inlet;
#X obj 24 18 inlet;
#X obj 224 684 outlet;
#X floatatom 176 211 4 0 0 0 - - - 0;
#X floatatom 132 210 4 0 0 0 - - - 0;
#X obj 131 244 %;
#X obj 132 269 tgl 15 0 empty empty empty 17 7 0 10 #fcfcfc #000000
#000000 0 1;
#X obj 131 291 == 0;
#X obj 129 315 change;
#X obj 129 345 == 1;
#X obj 129 382 spigot 0;
#X obj 189 361 tgl 15 0 empty empty empty 17 7 0 10 #fcfcfc #000000
#000000 0 1;
#X obj 243 48 r \$0-rndnextocttoggle;
#X connect 0 0 4 0;
#X connect 1 0 18 0;
#X connect 2 0 28 0;
#X connect 3 0 10 0;
#X connect 3 0 19 0;
#X connect 4 0 6 0;
#X connect 5 0 2 0;
#X connect 6 0 29 0;
#X connect 7 0 6 1;
#X connect 8 1 7 0;
#X connect 9 0 18 1;
#X connect 10 0 11 0;
#X connect 11 0 12 0;
#X connect 11 1 13 0;
#X connect 12 0 1 0;
#X connect 13 0 20 0;
#X connect 14 0 10 1;
#X connect 15 0 9 0;
#X connect 16 0 14 0;
#X connect 17 0 15 0;
#X connect 18 0 3 0;
#X connect 19 0 21 0;
#X connect 20 0 22 0;
#X connect 21 0 20 1;
#X connect 22 0 27 0;
#X connect 23 0 17 0;
#X connect 24 0 5 0;
#X connect 25 0 9 0;
#X connect 26 0 16 0;
#X connect 28 0 30 1;
#X connect 29 0 30 0;
#X connect 30 0 31 0;
#X connect 31 0 32 0;
#X connect 32 0 33 0;
#X connect 33 0 34 0;
#X connect 34 0 36 0;
#X connect 34 0 35 0;
#X connect 35 0 1 0;
#X connect 36 0 35 1;
#X connect 37 0 8 0;
#X restore 1198 301 pd \$0-adjustrandomoct;
#X obj 584 919 bng 15 250 50 0 empty empty empty 17 7 0 10 #fcfcfc
#000000 #000000;
#N canvas 314 325 434 455 \$0-updateBbylabel 0;
#X obj 66 141 l2s;
#X obj 67 271 s;
#X obj 152 29 loadbang;
#X msg 154 77 \$1;
#X floatatom 155 104 5 0 0 0 - - - 0;
#X obj 151 233 symbol;
#X obj 157 171 t b s;
#X msg 153 194 bang;
#X obj 154 123 t f f;
#X obj 152 54 \$0;
#X obj 59 99 inlet;
#X msg 155 145 symbol \$1-bybeats-recv;
#X msg 66 162 label by:\$1;
#X connect 0 0 12 0;
#X connect 2 0 9 0;
#X connect 3 0 4 0;
#X connect 4 0 8 0;
#X connect 5 0 1 1;
#X connect 6 0 7 0;
#X connect 6 1 5 1;
#X connect 7 0 5 0;
#X connect 8 0 11 0;
#X connect 9 0 3 0;
#X connect 10 0 0 0;
#X connect 11 0 6 0;
#X connect 12 0 1 0;
#X restore 38 283 pd \$0-updateBbylabel;
#N canvas 208 208 1920 997 \$0-updateBmaxlabel 0;
#X obj 66 141 l2s;
#X obj 67 271 s;
#X obj 152 29 loadbang;
#X msg 154 77 \$1;
#X floatatom 155 104 5 0 0 0 - - - 0;
#X obj 151 233 symbol;
#X obj 157 171 t b s;
#X msg 153 194 bang;
#X obj 154 123 t f f;
#X obj 152 54 \$0;
#X obj 59 99 inlet;
#X msg 155 145 symbol \$1-maxbeats-recv;
#X msg 66 162 label max:\$1;
#X connect 0 0 12 0;
#X connect 2 0 9 0;
#X connect 3 0 4 0;
#X connect 4 0 8 0;
#X connect 5 0 1 1;
#X connect 6 0 7 0;
#X connect 6 1 5 1;
#X connect 7 0 5 0;
#X connect 8 0 11 0;
#X connect 9 0 3 0;
#X connect 10 0 0 0;
#X connect 11 0 6 0;
#X connect 12 0 1 0;
#X restore 25 257 pd \$0-updateBmaxlabel;
#N canvas 208 208 1920 997 \$0-updateBminlabel 0;
#X obj 66 141 l2s;
#X obj 67 271 s;
#X obj 152 29 loadbang;
#X msg 154 77 \$1;
#X floatatom 155 104 5 0 0 0 - - - 0;
#X obj 151 233 symbol;
#X obj 157 171 t b s;
#X msg 153 194 bang;
#X obj 154 123 t f f;
#X obj 152 54 \$0;
#X msg 155 145 symbol \$1-minbeats-recv;
#X obj 59 99 inlet;
#X msg 67 162 label min:\$1;
#X connect 0 0 12 0;
#X connect 2 0 9 0;
#X connect 3 0 4 0;
#X connect 4 0 8 0;
#X connect 5 0 1 1;
#X connect 6 0 7 0;
#X connect 6 1 5 1;
#X connect 7 0 5 0;
#X connect 8 0 10 0;
#X connect 9 0 3 0;
#X connect 10 0 6 0;
#X connect 11 0 0 0;
#X connect 12 0 1 0;
#X restore 14 229 pd \$0-updateBminlabel;
#N canvas 848 197 417 440 \$0-updateSminlabel 0;
#X obj 66 141 l2s;
#X obj 67 271 s;
#X obj 152 29 loadbang;
#X msg 154 77 \$1;
#X floatatom 155 104 5 0 0 0 - - - 0;
#X obj 151 233 symbol;
#X obj 157 171 t b s;
#X msg 153 194 bang;
#X obj 154 123 t f f;
#X obj 152 54 \$0;
#X obj 59 99 inlet;
#X msg 155 145 symbol \$1-minshift-recv;
#X msg 66 162 label min:\$1;
#X connect 0 0 12 0;
#X connect 2 0 9 0;
#X connect 3 0 4 0;
#X connect 4 0 8 0;
#X connect 5 0 1 1;
#X connect 6 0 7 0;
#X connect 6 1 5 1;
#X connect 7 0 5 0;
#X connect 8 0 11 0;
#X connect 9 0 3 0;
#X connect 10 0 0 0;
#X connect 11 0 6 0;
#X connect 12 0 1 0;
#X restore 174 230 pd \$0-updateSminlabel;
#N canvas 785 156 468 440 \$0-updateSmaxlabel 0;
#X obj 66 141 l2s;
#X obj 67 271 s;
#X obj 152 29 loadbang;
#X msg 154 77 \$1;
#X floatatom 155 104 5 0 0 0 - - - 0;
#X obj 151 233 symbol;
#X obj 157 171 t b s;
#X msg 153 194 bang;
#X obj 154 123 t f f;
#X obj 152 54 \$0;
#X obj 59 99 inlet;
#X msg 155 145 symbol \$1-maxshift-recv;
#X msg 66 162 label max:\$1;
#X connect 0 0 12 0;
#X connect 2 0 9 0;
#X connect 3 0 4 0;
#X connect 4 0 8 0;
#X connect 5 0 1 1;
#X connect 6 0 7 0;
#X connect 6 1 5 1;
#X connect 7 0 5 0;
#X connect 8 0 11 0;
#X connect 9 0 3 0;
#X connect 10 0 0 0;
#X connect 11 0 6 0;
#X connect 12 0 1 0;
#X restore 185 258 pd \$0-updateSmaxlabel;
#N canvas 654 178 530 443 \$0-updateSbylabel 0;
#X obj 66 141 l2s;
#X obj 67 271 s;
#X obj 152 29 loadbang;
#X msg 154 77 \$1;
#X floatatom 155 104 5 0 0 0 - - - 0;
#X obj 151 233 symbol;
#X obj 157 171 t b s;
#X msg 153 194 bang;
#X obj 154 123 t f f;
#X obj 152 54 \$0;
#X obj 59 99 inlet;
#X msg 66 162 label by:\$1;
#X msg 155 145 symbol \$1-byshiftbeats-recv;
#X connect 0 0 11 0;
#X connect 2 0 9 0;
#X connect 3 0 4 0;
#X connect 4 0 8 0;
#X connect 5 0 1 1;
#X connect 6 0 7 0;
#X connect 6 1 5 1;
#X connect 7 0 5 0;
#X connect 8 0 12 0;
#X connect 9 0 3 0;
#X connect 10 0 0 0;
#X connect 11 0 1 0;
#X connect 12 0 6 0;
#X restore 198 284 pd \$0-updateSbylabel;
#N canvas 639 159 388 519 \$0-updateNmaxlabel 0;
#X obj 66 141 l2s;
#X obj 67 271 s;
#X obj 152 29 loadbang;
#X msg 154 77 \$1;
#X floatatom 155 104 5 0 0 0 - - - 0;
#X obj 151 233 symbol;
#X obj 157 171 t b s;
#X msg 153 194 bang;
#X obj 154 123 t f f;
#X obj 152 54 \$0;
#X obj 59 99 inlet;
#X msg 66 162 label max:\$1;
#X msg 155 145 symbol \$1-maxnote-recv;
#X connect 0 0 11 0;
#X connect 2 0 9 0;
#X connect 3 0 4 0;
#X connect 4 0 8 0;
#X connect 5 0 1 1;
#X connect 6 0 7 0;
#X connect 6 1 5 1;
#X connect 7 0 5 0;
#X connect 8 0 12 0;
#X connect 9 0 3 0;
#X connect 10 0 0 0;
#X connect 11 0 1 0;
#X connect 12 0 6 0;
#X restore 347 262 pd \$0-updateNmaxlabel;
#N canvas 814 198 399 530 \$0-updateNbylabel 0;
#X obj 66 141 l2s;
#X obj 67 271 s;
#X obj 152 29 loadbang;
#X msg 154 77 \$1;
#X floatatom 155 104 5 0 0 0 - - - 0;
#X obj 151 233 symbol;
#X obj 157 171 t b s;
#X msg 153 194 bang;
#X obj 154 123 t f f;
#X obj 152 54 \$0;
#X obj 59 99 inlet;
#X msg 66 162 label by:\$1;
#X msg 155 145 symbol \$1-bynotes-recv;
#X connect 0 0 11 0;
#X connect 2 0 9 0;
#X connect 3 0 4 0;
#X connect 4 0 8 0;
#X connect 5 0 1 1;
#X connect 6 0 7 0;
#X connect 6 1 5 1;
#X connect 7 0 5 0;
#X connect 8 0 12 0;
#X connect 9 0 3 0;
#X connect 10 0 0 0;
#X connect 11 0 1 0;
#X connect 12 0 6 0;
#X restore 360 288 pd \$0-updateNbylabel;
#N canvas 746 213 424 370 \$0-updateNminlabel 0;
#X obj 66 141 l2s;
#X obj 67 271 s;
#X obj 152 29 loadbang;
#X msg 154 77 \$1;
#X floatatom 155 104 5 0 0 0 - - - 0;
#X obj 151 233 symbol;
#X obj 157 171 t b s;
#X msg 153 194 bang;
#X obj 154 123 t f f;
#X obj 152 54 \$0;
#X obj 59 99 inlet;
#X msg 66 162 label min:\$1;
#X msg 155 145 symbol \$1-minnote-recv;
#X connect 0 0 11 0;
#X connect 2 0 9 0;
#X connect 3 0 4 0;
#X connect 4 0 8 0;
#X connect 5 0 1 1;
#X connect 6 0 7 0;
#X connect 6 1 5 1;
#X connect 7 0 5 0;
#X connect 8 0 12 0;
#X connect 9 0 3 0;
#X connect 10 0 0 0;
#X connect 11 0 1 0;
#X connect 12 0 6 0;
#X restore 338 234 pd \$0-updateNminlabel;
#N canvas 208 208 1920 997 \$0-updateOminlabel 0;
#X obj 66 141 l2s;
#X obj 67 271 s;
#X obj 152 29 loadbang;
#X msg 154 77 \$1;
#X floatatom 155 104 5 0 0 0 - - - 0;
#X obj 151 233 symbol;
#X obj 157 171 t b s;
#X msg 153 194 bang;
#X obj 154 123 t f f;
#X obj 152 54 \$0;
#X obj 59 99 inlet;
#X msg 155 145 symbol \$1-minoct-recv;
#X msg 66 162 label min:\$1;
#X connect 0 0 12 0;
#X connect 2 0 9 0;
#X connect 3 0 4 0;
#X connect 4 0 8 0;
#X connect 5 0 1 1;
#X connect 6 0 7 0;
#X connect 6 1 5 1;
#X connect 7 0 5 0;
#X connect 8 0 11 0;
#X connect 9 0 3 0;
#X connect 10 0 0 0;
#X connect 11 0 6 0;
#X connect 12 0 1 0;
#X restore 499 235 pd \$0-updateOminlabel;
#N canvas 700 156 472 394 \$0-updateOmaxlabel 0;
#X obj 66 141 l2s;
#X obj 67 271 s;
#X obj 152 29 loadbang;
#X msg 154 77 \$1;
#X floatatom 155 104 5 0 0 0 - - - 0;
#X obj 151 233 symbol;
#X obj 157 171 t b s;
#X msg 153 194 bang;
#X obj 154 123 t f f;
#X obj 152 54 \$0;
#X obj 59 99 inlet;
#X msg 155 145 symbol \$1-maxoct-recv;
#X msg 66 162 label max:\$1;
#X connect 0 0 12 0;
#X connect 2 0 9 0;
#X connect 3 0 4 0;
#X connect 4 0 8 0;
#X connect 5 0 1 1;
#X connect 6 0 7 0;
#X connect 6 1 5 1;
#X connect 7 0 5 0;
#X connect 8 0 11 0;
#X connect 9 0 3 0;
#X connect 10 0 0 0;
#X connect 11 0 6 0;
#X connect 12 0 1 0;
#X restore 510 263 pd \$0-updateOmaxlabel;
#N canvas 804 203 435 437 \$0-updateObylabel 0;
#X obj 66 141 l2s;
#X obj 67 271 s;
#X obj 152 29 loadbang;
#X msg 154 77 \$1;
#X floatatom 155 104 5 0 0 0 - - - 0;
#X obj 151 233 symbol;
#X obj 157 171 t b s;
#X msg 153 194 bang;
#X obj 154 123 t f f;
#X obj 152 54 \$0;
#X obj 59 99 inlet;
#X msg 66 162 label by:\$1;
#X msg 155 145 symbol \$1-byoct-recv;
#X connect 0 0 11 0;
#X connect 2 0 9 0;
#X connect 3 0 4 0;
#X connect 4 0 8 0;
#X connect 5 0 1 1;
#X connect 6 0 7 0;
#X connect 6 1 5 1;
#X connect 7 0 5 0;
#X connect 8 0 12 0;
#X connect 9 0 3 0;
#X connect 10 0 0 0;
#X connect 11 0 1 0;
#X connect 12 0 6 0;
#X restore 523 289 pd \$0-updateObylabel;
#X obj 11 183 int;
#X obj 43 188 int;
#X obj 75 194 int;
#X obj 181 184 int;
#X obj 213 189 int;
#X obj 245 195 int;
#X obj 321 183 int;
#X obj 353 188 int;
#X obj 385 194 int;
#X obj 433 177 int;
#X obj 465 182 int;
#X obj 497 188 int;
#X msg 706 1008 0;
#X floatatom 807 895 5 0 0 0 - - - 0;
#X obj 864 1001 outlet;
#X obj 631 953 t b f;
#X obj 1272 459 bng 15 250 50 0 empty empty get_datadump 17 7 0 10
#fcfcfc #000000 #000000;
#X obj 1202 456 del 200;
#X obj 1225 427 t b b b;
#X msg 1201 497 symbol ce_ecluistack;
#X obj 1089 1704 outlet;
#X obj 156 348 s \$0-shiftvalue;
#X obj 159 907 f;
#X obj 193 884 r \$0-perbeatvalue;
#X floatatom 159 931 5 0 0 0 - - - 0;
#X obj 159 882 t b;
#X obj 204 943 f;
#X floatatom 204 967 5 0 0 0 - - - 0;
#X obj 204 918 t b;
#X obj 235 916 r \$0-shiftvalue;
#X obj 252 971 f;
#X floatatom 252 995 5 0 0 0 - - - 0;
#X obj 252 946 t b;
#X obj 287 951 r \$0-semivalue;
#X obj 296 1002 f;
#X floatatom 296 1026 5 0 0 0 - - - 0;
#X obj 296 977 t b;
#X obj 325 979 r \$0-octvalue;
#X obj 343 1036 f;
#X floatatom 343 1060 5 0 0 0 - - - 0;
#X obj 341 1006 t b;
#X obj 372 1016 r \$0-atvelocity;
#X obj 395 1068 f;
#X floatatom 397 1092 5 0 0 0 - - - 0;
#X obj 395 1043 t b;
#X obj 426 1046 r \$0-untilmillseconds;
#X obj 29 822 f;
#X obj 31 795 t b;
#X floatatom 28 845 5 0 0 0 - - - 0;
#X obj 59 794 r \$0-stackstate;
#X obj -20 138 s \$0-stackstate;
#X obj 117 878 f;
#X floatatom 117 902 5 0 0 0 - - - 0;
#X obj 117 853 t b;
#X obj 147 850 r \$0-notedurtoggle;
#X obj 72 852 f;
#X floatatom 72 876 5 0 0 0 - - - 0;
#X obj 72 827 t b;
#X obj 102 824 r \$0-autoveltoggle;
#X msg 1346 651 get_perbeat;
#X msg 1350 675 get_shift;
#X msg 1350 700 get_semi;
#X msg 1353 721 get_oct;
#X msg 1380 745 get_vel;
#X msg 1384 769 get_length;
#X msg 1279 582 get_stackstate;
#X msg 1293 604 get_autovel;
#X msg 1303 625 get_durtoggle;
#X obj 505 1119 f;
#X floatatom 505 1143 5 0 0 0 - - - 0;
#X obj 505 1094 t b;
#X obj 536 1097 r \$0-rndbeatstoggle;
#X obj 704 1238 f;
#X floatatom 704 1262 5 0 0 0 - - - 0;
#X obj 704 1213 t b;
#X obj 735 1216 r \$0-rndbyshifttoggle;
#X obj 910 1361 f;
#X floatatom 910 1385 5 0 0 0 - - - 0;
#X obj 910 1336 t b;
#X obj 950 1331 r \$0-rndnextnotetoggle;
#X obj 1118 1474 f;
#X floatatom 1121 1508 5 0 0 0 - - - 0;
#X obj 1118 1449 t b;
#X obj 1158 1444 r \$0-rndnextocttoggle;
#X obj 549 1151 f;
#X floatatom 549 1175 5 0 0 0 - - - 0;
#X obj 549 1126 t b;
#X obj 599 1184 f;
#X floatatom 599 1208 5 0 0 0 - - - 0;
#X obj 599 1159 t b;
#X obj 648 1211 f;
#X floatatom 648 1235 5 0 0 0 - - - 0;
#X obj 648 1186 t b;
#X obj 586 1124 r \$0-minbeats-send;
#X obj 634 1151 r \$0-maxbeats-send;
#X obj 683 1177 r \$0-bybeats-send;
#X obj 784 1249 r \$0-minshift-send;
#X obj 836 1273 r \$0-maxshift-send;
#X obj 886 1300 r \$0-byshiftbeats-send;
#X obj 855 1330 f;
#X floatatom 855 1354 5 0 0 0 - - - 0;
#X obj 855 1305 t b;
#X obj 750 1276 f;
#X floatatom 750 1300 5 0 0 0 - - - 0;
#X obj 750 1251 t b;
#X obj 799 1303 f;
#X floatatom 799 1327 5 0 0 0 - - - 0;
#X obj 799 1278 t b;
#X obj 1064 1443 f;
#X floatatom 1064 1467 5 0 0 0 - - - 0;
#X obj 1064 1418 t b;
#X obj 959 1389 f;
#X floatatom 959 1413 5 0 0 0 - - - 0;
#X obj 959 1364 t b;
#X obj 1008 1416 f;
#X floatatom 1008 1440 5 0 0 0 - - - 0;
#X obj 1008 1391 t b;
#X obj 993 1362 r \$0-minnote-send;
#X obj 1095 1413 r \$0-bynotes-send;
#X obj 1279 1559 f;
#X floatatom 1280 1588 5 0 0 0 - - - 0;
#X obj 1279 1534 t b;
#X obj 1174 1505 f;
#X floatatom 1174 1529 5 0 0 0 - - - 0;
#X obj 1174 1480 t b;
#X obj 1223 1532 f;
#X floatatom 1223 1556 5 0 0 0 - - - 0;
#X obj 1223 1507 t b;
#X obj 1310 1529 r \$0-byoct-send;
#X obj 1260 1502 r \$0-maxoct-send;
#X obj 1208 1478 r \$0-minoct-send;
#X obj 1045 1386 r \$0-maxnote-send;
#X msg 1382 798 get_stackstate;
#X msg 1386 969 get_rndnextocttoggle;
#X msg 1375 1101 get_maxrndshift;
#X msg 1377 1126 get_stepsshift;
#X msg 1377 1156 get_minrndnote;
#X msg 1375 1205 get_stepsnote;
#X msg 1374 1231 get_minrndoct;
#X msg 1374 1259 get_maxrndoct;
#X msg 1373 1282 get_stepsoct;
#X msg 1377 1074 get_minrndshift;
#X msg 1379 1049 get_stepsbeats;
#X msg 1380 1024 get_maxrndbeats;
#X msg 1381 995 get_minrndbeats;
#X msg 1388 908 get_rdnbyshifttoggle;
#X msg 1387 880 get_rndbeatstoggle;
#X msg 1387 853 get_autovel;
#X msg 1383 826 get_durtoggle;
#X msg 1387 938 get_rndnextnotetoggle;
#X msg 1376 1181 get_maxrndnote;
#X obj 762 19 \$1;
#X obj 570 1594 f;
#X obj 39 420 route randomize randomseed inheritnote inheritstate float
allstop set_maxsteps set_defaults get_datadump get_perbeat get_shift
get_semi get_oct get_vel get_length get_stackstate get_durtoggle get_autovel
get_rndbeatstoggle get_rdnbyshifttoggle get_rndnextnotetoggle get_rndnextocttoggle
get_minrndbeats get_maxrndbeats get_stepsbeats get_minrndshift get_maxrndshift
get_stepsshift get_minrndnote get_maxrndnote get_stepsnote get_minrndoct
get_maxrndoct get_stepsoct load_ecluistack get_stackindex, f 88;
#X obj 796 41 s \$0-stackindex;
#X obj 589 1564 r \$0-stackindex;
#X floatatom 569 1616 5 0 0 0 - - - 0;
#X msg 392 387 get_stackindex;
#X obj 1273 521 t b b b b b b b b b b b b b b b b b b b b b b b b b
b b b b;
#X obj 728 1632 pack s f f f f f f f f f f f f f f f f f f f f f f
f f f f;
#X obj 1280 88 s \$0-presetdata-1;
#X obj 1295 111 s \$0-presetdata-2;
#X obj 1309 135 s \$0-presetdata-3;
#X obj 1321 156 s \$0-presetdata-4;
#X obj 1337 179 s \$0-presetdata-5;
#X obj 1345 201 s \$0-presetdata-6;
#X obj 1365 224 s \$0-presetdata-7;
#X obj 1378 247 s \$0-presetdata-8;
#X obj 1393 270 s \$0-presetdata-9;
#X obj 1406 292 s \$0-presetdata-10;
#X obj 1445 92 s \$0-presetdata-11;
#X obj 1460 115 s \$0-presetdata-12;
#X obj 1473 137 s \$0-presetdata-13;
#X obj 1486 160 s \$0-presetdata-14;
#X obj 1501 183 s \$0-presetdata-15;
#X obj 1514 205 s \$0-presetdata-16;
#X obj 1530 228 s \$0-presetdata-17;
#X obj 1543 251 s \$0-presetdata-18;
#X obj 1557 274 s \$0-presetdata-19;
#X obj 1571 296 s \$0-presetdata-20;
#X obj 1647 185 s \$0-presetdata-21;
#X obj 1663 208 s \$0-presetdata-22;
#X obj 1676 231 s \$0-presetdata-23;
#X obj 1691 254 s \$0-presetdata-24;
#X obj 1704 276 s \$0-presetdata-25;
#X obj -143 -352 r \$0-presetdata-2;
#X obj -127 -330 r \$0-presetdata-3;
#X obj -113 -305 r \$0-presetdata-4;
#X obj -101 -284 r \$0-presetdata-5;
#X obj -85 -263 r \$0-presetdata-6;
#X obj -77 -239 r \$0-presetdata-7;
#X obj -57 -216 r \$0-presetdata-8;
#X obj -44 -193 r \$0-presetdata-9;
#X obj -29 -170 r \$0-presetdata-10;
#X obj -16 -148 r \$0-presetdata-11;
#X obj 23 -348 r \$0-presetdata-12;
#X obj 38 -325 r \$0-presetdata-13;
#X obj 51 -303 r \$0-presetdata-14;
#X obj 64 -280 r \$0-presetdata-15;
#X obj 79 -257 r \$0-presetdata-16;
#X obj 92 -235 r \$0-presetdata-17;
#X obj 108 -212 r \$0-presetdata-18;
#X obj 124 -191 r \$0-presetdata-19;
#X obj 135 -166 r \$0-presetdata-20;
#X obj 149 -144 r \$0-presetdata-21;
#X obj 275 -239 r \$0-presetdata-22;
#X obj 292 -217 r \$0-presetdata-23;
#X obj 305 -194 r \$0-presetdata-24;
#X obj 320 -171 r \$0-presetdata-25;
#X obj 333 -149 r \$0-presetdata-26;
#X obj 1291 47 unpack f f f f f f f f f f f f f f f f f f f f f f f
f f f;
#X obj 1721 305 s \$0-presetdata-26;
#N canvas 104 104 1920 997 \$0-indexcheck 0;
#X floatatom 587 142 5 0 0 0 - - - 0;
#X obj 589 191 ==;
#X obj 608 165 r \$0-stackindex;
#X obj 574 260 spigot 0;
#X obj 629 236 tgl 15 0 empty empty empty 17 7 0 10 #fcfcfc #000000
#000000 0 1;
#X obj 587 215 t b f;
#X obj 590 113 unpack f f f f f f f f f f f f f f f f f f f f f f f
f f f;
#X obj 590 86 inlet;
#X obj 542 221 inlet;
#X obj 571 288 outlet;
#X connect 0 0 1 0;
#X connect 1 0 5 0;
#X connect 2 0 1 1;
#X connect 3 0 9 0;
#X connect 4 0 3 1;
#X connect 5 1 4 0;
#X connect 6 0 0 0;
#X connect 7 0 6 0;
#X connect 8 0 3 0;
#X restore 948 333 pd \$0-indexcheck;
#X obj 948 309 t a a;
#X obj 242 -295 declare -lib clearessentials;
#X connect 1 0 55 0;
#X connect 2 0 57 0;
#X connect 3 0 47 0;
#X connect 4 0 3 1;
#X connect 4 0 189 0;
#X connect 5 0 49 0;
#X connect 6 0 7 1;
#X connect 7 0 53 0;
#X connect 7 1 61 0;
#X connect 7 2 72 0;
#X connect 8 0 50 0;
#X connect 9 0 13 1;
#X connect 9 0 23 0;
#X connect 9 0 27 1;
#X connect 10 0 11 0;
#X connect 10 0 22 0;
#X connect 10 0 26 0;
#X connect 10 0 63 0;
#X connect 10 0 319 0;
#X connect 11 0 8 0;
#X connect 12 0 21 0;
#X connect 13 0 12 0;
#X connect 17 0 218 0;
#X connect 19 0 59 0;
#X connect 22 0 19 0;
#X connect 23 0 44 0;
#X connect 23 1 25 0;
#X connect 23 2 45 0;
#X connect 23 3 181 0;
#X connect 25 0 21 0;
#X connect 26 0 29 0;
#X connect 26 0 20 0;
#X connect 27 0 25 0;
#X connect 28 0 36 0;
#X connect 30 0 3 0;
#X connect 30 1 4 0;
#X connect 30 2 5 0;
#X connect 30 3 8 0;
#X connect 30 4 2 0;
#X connect 30 5 19 0;
#X connect 33 0 31 0;
#X connect 34 0 38 0;
#X connect 36 0 321 0;
#X connect 37 0 32 0;
#X connect 38 0 30 0;
#X connect 39 0 12 1;
#X connect 40 0 35 0;
#X connect 44 0 180 0;
#X connect 46 0 7 0;
#X connect 48 0 6 0;
#X connect 52 0 9 0;
#X connect 54 0 1 0;
#X connect 56 0 155 0;
#X connect 58 0 39 0;
#X connect 60 0 24 2;
#X connect 62 0 2 0;
#X connect 64 0 24 0;
#X connect 66 0 5 0;
#X connect 67 0 8 0;
#X connect 68 0 112 0;
#X connect 69 0 41 0;
#X connect 70 0 43 0;
#X connect 71 0 24 1;
#X connect 73 0 75 0;
#X connect 74 0 73 0;
#X connect 76 0 27 0;
#X connect 77 0 119 0;
#X connect 77 0 168 0;
#X connect 78 0 118 0;
#X connect 78 0 169 0;
#X connect 79 0 123 0;
#X connect 79 0 171 0;
#X connect 80 0 122 0;
#X connect 80 0 172 0;
#X connect 81 0 131 0;
#X connect 81 0 174 0;
#X connect 82 0 130 0;
#X connect 82 0 175 0;
#X connect 83 0 148 0;
#X connect 83 0 177 0;
#X connect 84 0 147 0;
#X connect 84 0 178 0;
#X connect 89 0 117 0;
#X connect 89 0 170 0;
#X connect 91 0 121 0;
#X connect 91 0 173 0;
#X connect 93 0 129 0;
#X connect 93 0 176 0;
#X connect 95 0 146 0;
#X connect 95 0 179 0;
#X connect 97 0 114 0;
#X connect 98 0 99 0;
#X connect 100 0 77 0;
#X connect 100 0 78 0;
#X connect 100 0 79 0;
#X connect 100 0 80 0;
#X connect 100 0 89 0;
#X connect 100 0 91 0;
#X connect 100 0 95 0;
#X connect 100 0 93 0;
#X connect 101 0 102 0;
#X connect 103 0 113 0;
#X connect 103 0 104 0;
#X connect 103 0 152 0;
#X connect 103 0 153 0;
#X connect 104 0 107 0;
#X connect 104 0 108 0;
#X connect 104 0 109 0;
#X connect 104 0 110 0;
#X connect 105 0 80 0;
#X connect 105 1 80 0;
#X connect 106 0 78 0;
#X connect 106 1 78 0;
#X connect 107 0 83 0;
#X connect 107 1 83 0;
#X connect 108 0 81 0;
#X connect 108 1 81 0;
#X connect 109 0 79 0;
#X connect 109 1 79 0;
#X connect 110 0 77 0;
#X connect 110 1 77 0;
#X connect 112 0 35 0;
#X connect 112 1 111 0;
#X connect 113 0 105 0;
#X connect 113 0 106 0;
#X connect 114 0 98 0;
#X connect 115 0 128 0;
#X connect 116 0 120 0;
#X connect 117 0 116 2;
#X connect 118 0 116 1;
#X connect 119 0 116 0;
#X connect 120 0 3 0;
#X connect 121 0 125 2;
#X connect 122 0 125 1;
#X connect 123 0 125 0;
#X connect 124 0 4 0;
#X connect 125 0 124 0;
#X connect 126 0 133 3;
#X connect 126 0 139 0;
#X connect 127 0 145 0;
#X connect 127 0 154 3;
#X connect 128 0 97 0;
#X connect 128 1 97 1;
#X connect 128 2 116 3;
#X connect 128 3 125 3;
#X connect 128 4 126 0;
#X connect 128 5 127 0;
#X connect 129 0 133 2;
#X connect 130 0 133 1;
#X connect 131 0 133 0;
#X connect 132 0 5 0;
#X connect 133 0 132 0;
#X connect 134 0 82 0;
#X connect 134 0 81 0;
#X connect 135 0 84 0;
#X connect 135 0 83 0;
#X connect 136 0 138 0;
#X connect 137 0 140 0;
#X connect 138 0 137 0;
#X connect 139 0 136 0;
#X connect 139 1 136 1;
#X connect 141 0 143 0;
#X connect 142 0 144 0;
#X connect 143 0 142 0;
#X connect 145 0 141 0;
#X connect 145 1 141 1;
#X connect 146 0 154 2;
#X connect 147 0 154 1;
#X connect 148 0 154 0;
#X connect 149 0 8 0;
#X connect 150 0 82 0;
#X connect 151 0 84 0;
#X connect 152 0 84 0;
#X connect 152 1 151 0;
#X connect 153 0 82 0;
#X connect 153 1 150 0;
#X connect 154 0 149 0;
#X connect 155 0 13 0;
#X connect 168 0 158 0;
#X connect 169 0 157 0;
#X connect 170 0 156 0;
#X connect 171 0 159 0;
#X connect 172 0 160 0;
#X connect 173 0 161 0;
#X connect 174 0 164 0;
#X connect 175 0 162 0;
#X connect 176 0 163 0;
#X connect 177 0 165 0;
#X connect 178 0 166 0;
#X connect 179 0 167 0;
#X connect 181 0 182 0;
#X connect 181 0 183 0;
#X connect 183 0 13 0;
#X connect 183 1 39 0;
#X connect 184 0 326 0;
#X connect 185 0 187 0;
#X connect 186 0 185 0;
#X connect 186 2 184 0;
#X connect 187 0 327 0;
#X connect 190 0 192 0;
#X connect 191 0 190 1;
#X connect 192 0 327 5;
#X connect 193 0 190 0;
#X connect 194 0 195 0;
#X connect 195 0 327 6;
#X connect 196 0 194 0;
#X connect 197 0 194 1;
#X connect 198 0 199 0;
#X connect 199 0 327 7;
#X connect 200 0 198 0;
#X connect 201 0 198 1;
#X connect 202 0 203 0;
#X connect 203 0 327 8;
#X connect 204 0 202 0;
#X connect 205 0 202 1;
#X connect 206 0 207 0;
#X connect 207 0 327 9;
#X connect 208 0 206 0;
#X connect 209 0 206 1;
#X connect 210 0 211 0;
#X connect 211 0 327 10;
#X connect 212 0 210 0;
#X connect 213 0 210 1;
#X connect 214 0 216 0;
#X connect 215 0 214 0;
#X connect 216 0 327 2;
#X connect 217 0 214 1;
#X connect 219 0 220 0;
#X connect 220 0 327 4;
#X connect 221 0 219 0;
#X connect 222 0 219 1;
#X connect 223 0 224 0;
#X connect 224 0 327 3;
#X connect 225 0 223 0;
#X connect 226 0 223 1;
#X connect 227 0 321 0;
#X connect 228 0 321 0;
#X connect 229 0 321 0;
#X connect 230 0 321 0;
#X connect 231 0 321 0;
#X connect 232 0 321 0;
#X connect 233 0 321 0;
#X connect 234 0 321 0;
#X connect 235 0 321 0;
#X connect 236 0 237 0;
#X connect 237 0 327 11;
#X connect 238 0 236 0;
#X connect 239 0 236 1;
#X connect 240 0 241 0;
#X connect 241 0 327 15;
#X connect 242 0 240 0;
#X connect 243 0 240 1;
#X connect 244 0 245 0;
#X connect 245 0 327 19;
#X connect 246 0 244 0;
#X connect 247 0 244 1;
#X connect 248 0 249 0;
#X connect 249 0 327 23;
#X connect 250 0 248 0;
#X connect 251 0 248 1;
#X connect 252 0 253 0;
#X connect 253 0 327 12;
#X connect 254 0 252 0;
#X connect 255 0 256 0;
#X connect 256 0 327 13;
#X connect 257 0 255 0;
#X connect 258 0 259 0;
#X connect 259 0 327 14;
#X connect 260 0 258 0;
#X connect 261 0 252 1;
#X connect 262 0 255 1;
#X connect 263 0 258 1;
#X connect 264 0 270 1;
#X connect 265 0 273 1;
#X connect 266 0 267 1;
#X connect 267 0 268 0;
#X connect 268 0 327 18;
#X connect 269 0 267 0;
#X connect 270 0 271 0;
#X connect 271 0 327 16;
#X connect 272 0 270 0;
#X connect 273 0 274 0;
#X connect 274 0 327 17;
#X connect 275 0 273 0;
#X connect 276 0 277 0;
#X connect 277 0 327 22;
#X connect 278 0 276 0;
#X connect 279 0 280 0;
#X connect 280 0 327 20;
#X connect 281 0 279 0;
#X connect 282 0 283 0;
#X connect 283 0 327 21;
#X connect 284 0 282 0;
#X connect 285 0 279 1;
#X connect 286 0 276 1;
#X connect 287 0 288 0;
#X connect 288 0 327 26;
#X connect 289 0 287 0;
#X connect 290 0 291 0;
#X connect 291 0 327 24;
#X connect 292 0 290 0;
#X connect 293 0 294 0;
#X connect 294 0 327 25;
#X connect 295 0 293 0;
#X connect 296 0 287 1;
#X connect 297 0 293 1;
#X connect 298 0 290 1;
#X connect 299 0 282 1;
#X connect 300 0 321 0;
#X connect 301 0 321 0;
#X connect 302 0 321 0;
#X connect 303 0 321 0;
#X connect 304 0 321 0;
#X connect 305 0 321 0;
#X connect 306 0 321 0;
#X connect 307 0 321 0;
#X connect 308 0 321 0;
#X connect 309 0 321 0;
#X connect 310 0 321 0;
#X connect 311 0 321 0;
#X connect 312 0 321 0;
#X connect 313 0 321 0;
#X connect 314 0 321 0;
#X connect 315 0 321 0;
#X connect 316 0 321 0;
#X connect 317 0 321 0;
#X connect 318 0 321 0;
#X connect 319 0 322 0;
#X connect 320 0 324 0;
#X connect 321 0 40 0;
#X connect 321 1 33 0;
#X connect 321 2 69 0;
#X connect 321 3 70 0;
#X connect 321 4 37 0;
#X connect 321 5 74 0;
#X connect 321 6 115 0;
#X connect 321 7 101 0;
#X connect 321 8 186 0;
#X connect 321 9 193 0;
#X connect 321 10 196 0;
#X connect 321 11 200 0;
#X connect 321 12 204 0;
#X connect 321 13 208 0;
#X connect 321 14 212 0;
#X connect 321 15 215 0;
#X connect 321 16 221 0;
#X connect 321 17 225 0;
#X connect 321 18 238 0;
#X connect 321 19 242 0;
#X connect 321 20 246 0;
#X connect 321 21 250 0;
#X connect 321 22 254 0;
#X connect 321 23 257 0;
#X connect 321 24 260 0;
#X connect 321 25 272 0;
#X connect 321 26 275 0;
#X connect 321 27 269 0;
#X connect 321 28 281 0;
#X connect 321 29 284 0;
#X connect 321 30 278 0;
#X connect 321 31 292 0;
#X connect 321 32 295 0;
#X connect 321 33 289 0;
#X connect 321 34 380 1;
#X connect 321 34 381 0;
#X connect 321 35 320 0;
#X connect 323 0 320 1;
#X connect 324 0 327 1;
#X connect 325 0 321 0;
#X connect 326 0 233 0;
#X connect 326 1 234 0;
#X connect 326 2 235 0;
#X connect 326 3 227 0;
#X connect 326 4 228 0;
#X connect 326 5 229 0;
#X connect 326 6 230 0;
#X connect 326 7 231 0;
#X connect 326 8 232 0;
#X connect 326 9 300 0;
#X connect 326 10 316 0;
#X connect 326 11 315 0;
#X connect 326 12 314 0;
#X connect 326 13 313 0;
#X connect 326 14 317 0;
#X connect 326 15 301 0;
#X connect 326 16 312 0;
#X connect 326 17 311 0;
#X connect 326 18 310 0;
#X connect 326 19 309 0;
#X connect 326 20 302 0;
#X connect 326 21 303 0;
#X connect 326 22 304 0;
#X connect 326 23 318 0;
#X connect 326 24 305 0;
#X connect 326 25 306 0;
#X connect 326 26 307 0;
#X connect 326 27 308 0;
#X connect 326 28 325 0;
#X connect 327 0 188 0;
#X connect 353 0 17 0;
#X connect 354 0 18 0;
#X connect 355 0 20 0;
#X connect 356 0 3 0;
#X connect 357 0 4 0;
#X connect 358 0 5 0;
#X connect 359 0 8 0;
#X connect 360 0 2 0;
#X connect 361 0 19 0;
#X connect 362 0 85 0;
#X connect 363 0 77 0;
#X connect 364 0 78 0;
#X connect 365 0 89 0;
#X connect 366 0 86 0;
#X connect 367 0 79 0;
#X connect 368 0 80 0;
#X connect 369 0 91 0;
#X connect 370 0 87 0;
#X connect 371 0 81 0;
#X connect 372 0 82 0;
#X connect 373 0 93 0;
#X connect 374 0 88 0;
#X connect 375 0 83 0;
#X connect 376 0 84 0;
#X connect 377 0 95 0;
#X connect 378 0 328 0;
#X connect 378 1 329 0;
#X connect 378 2 330 0;
#X connect 378 3 331 0;
#X connect 378 4 332 0;
#X connect 378 5 333 0;
#X connect 378 6 334 0;
#X connect 378 7 335 0;
#X connect 378 8 336 0;
#X connect 378 9 337 0;
#X connect 378 10 338 0;
#X connect 378 11 339 0;
#X connect 378 12 340 0;
#X connect 378 13 341 0;
#X connect 378 14 342 0;
#X connect 378 15 343 0;
#X connect 378 16 344 0;
#X connect 378 17 345 0;
#X connect 378 18 346 0;
#X connect 378 19 347 0;
#X connect 378 20 348 0;
#X connect 378 21 349 0;
#X connect 378 22 350 0;
#X connect 378 23 351 0;
#X connect 378 24 352 0;
#X connect 378 25 379 0;
#X connect 380 0 378 0;
#X connect 381 0 380 0;
#X connect 381 1 380 1;
#X coords 0 -1 1 1 525 60 2 100 100;
