#N canvas 626 78 1050 653 12;
#X obj 247 504 ce_ecluistack;
#X msg 292 216 randomize;
#X obj 255 83 r \$0-instep;
#X obj 283 113 r \$0-newseedperbar;
#X msg 283 160 randomseed;
#X obj 290 188 r \$0-randomizeallvalues;
#X obj 461 189 r \$0-processrandomize;
#X obj 285 137 t b;
#X obj 460 216 t b;
#X msg 299 276 inheritnote \$1;
#X obj 299 305 r \$0-inherittoggle;
#X obj 301 245 r \$0-inheritnote;
#X msg 306 335 inheritstate \$1;
#X obj 308 393 t a;
#X obj 307 367 r \$0-panicallstop;
#X msg 306 471 set_maxsteps \$1;
#X obj 307 421 r \$0-maxrhyrhmsteps;
#X obj 308 444 - 1;
#X text 10 55 Aka Scr1ptAl1as;
#X text 12 94 Pd 0.52.2;
#X obj 28 152 reportissue;
#X obj 28 132 aboutexternal;
#X text 10 15 ce_ecluistack v1.0;
#X text 10 73 2022/08/9 11:29AM;
#X text 185 5 ce_eclistack will take the current float and interpret
it as a step for a metronome. When this float changes based on that
value new settings can be apply to the stack. This will give the rhythm
of played midi notes a new groove or vibe.;
#X text 618 21 Note* Take advantage of [ce_erhythms] which is 10 pre
coded [ce_ecluistack]'s. Also it takes up a bit of gui space.;
#X msg 435 471 set_defaults;
#X text 11 34 Written By: Reg Finley;
#X connect 1 0 0 0;
#X connect 2 0 0 0;
#X connect 3 0 7 0;
#X connect 4 0 0 0;
#X connect 5 0 1 0;
#X connect 6 0 8 0;
#X connect 7 0 4 0;
#X connect 8 0 1 0;
#X connect 9 0 0 0;
#X connect 10 0 12 0;
#X connect 11 0 9 0;
#X connect 12 0 0 0;
#X connect 13 0 0 0;
#X connect 14 0 13 0;
#X connect 15 0 0 0;
#X connect 16 0 17 0;
#X connect 17 0 15 0;
#X connect 26 0 0 0;
