#N canvas 395 117 697 563 12;
#X declare -path clearessentials;
#X text 27 46 Written By: Reg Finley;
#X text 26 67 Aka Scr1ptAl1as;
#X text 28 106 Pd 0.52.2;
#X obj 28 152 reportissue;
#X obj 28 132 aboutexternal;
#X text 26 27 ce_filters v1.0;
#X text 26 85 2022/06/21 6:08PM;
#X obj 352 314 ce_filters;
#X msg 379 191 setband 9000;
#X msg 380 218 setdrive;
#X msg 382 141 setmix 0.8;
#X msg 380 164 setcutoff 9000;
#X msg 547 168 get_drive;
#X msg 546 196 get_mix;
#X msg 545 222 get_cutoff;
#X msg 546 244 get_res;
#X msg 547 271 get_res;
#X msg 378 116 setres;
#X msg 377 92 setpan 50;
#X msg 381 270 setwidth 9;
#X msg 547 142 get_band;
#X msg 380 243 sethipass 0.01;
#X text 239 2 ce_filters 7 filters used to modify the signal inlet
for the osc voice.;
#X text 10 320 Outlet(s);
#X text 93 319 0 - Left audio signal;
#X text 94 340 1 - Right audio signal;
#X obj 27 5 declare -path clearessentials;
#X obj 31 169 watchtutorial;
#X connect 8 0 7 0;
#X connect 9 0 7 0;
#X connect 10 0 7 0;
#X connect 11 0 7 0;
#X connect 13 0 7 0;
#X connect 14 0 7 0;
#X connect 15 0 7 0;
#X connect 16 0 7 0;
#X connect 17 0 7 0;
#X connect 18 0 7 0;
#X connect 19 0 7 0;
#X connect 21 0 7 0;
