#N canvas 854 114 1920 997 12;
#X obj 100 100 cnv 15 290 155 empty empty Filters 3 12 0 14 #404040
#ffffff 0;
#X obj 1430 306 *~;
#X obj 1447 257 vline~;
#X obj 122 844 *~;
#X obj 992 126 hsl 100 12 0.01 1 0 0 empty empty PWM 3 6 0 10 #dfdfdf
#00faff #000000 0 1;
#X obj 992 144 hsl 100 12 0.01 1 0 0 empty empty Phase 3 6 0 10 #dfdfdf
#00faff #000000 0 1;
#X obj 113 142 hsl 70 12 0.1 10000 0 0 empty empty Lowpass 3 6 0 10
#dfdfdf #00faff #000000 0 1;
#X obj 113 161 hsl 70 12 0.1 10 0 0 empty empty Res 3 6 0 10 #dfdfdf
#00faff #000000 0 1;
#X obj 113 238 hsl 70 12 0.1 100 0 0 empty empty Pan 3 6 0 10 #dfdfdf
#00faff #000000 0 1;
#X obj 113 199 hsl 70 12 0.1 10000 0 0 empty empty Band 3 6 0 10 #dfdfdf
#00faff #000000 0 1;
#X obj 113 180 hsl 70 12 0.1 10 0 0 empty empty Drive 3 6 0 10 #dfdfdf
#00faff #000000 0 1;
#X obj 992 162 hsl 100 12 0.01 1 1 0 empty empty Detune 3 6 0 10 #dfdfdf
#00faff #000000 0 1;
#X obj 122 556 lop~;
#X floatatom 147 532 5 0 0 0 - - - 0;
#X floatatom 171 588 5 0 0 0 - - - 0;
#X floatatom 228 610 5 0 0 0 - - - 0;
#X obj 113 219 hsl 70 12 0.1 10 0 0 empty empty Width 3 6 0 10 #dfdfdf
#00faff #000000 0 1;
#X msg 1448 231 1 \$2 \, \$4 \$3 \$2;
#X obj 1448 210 pack f f f f;
#X obj 1492 148 r \$0-setinnerattack;
#X obj 1504 168 r \$0-setinnerdecay;
#X obj 1516 188 r \$0-setinnersustain;
#X msg 1448 186 \$1;
#X obj 1448 164 t f;
#X obj 147 505 r \$0-cutoffvalue;
#X obj 1097 142 lfopresets 4;
#X obj 1097 160 lfopresets 6;
#N canvas -8 -8 1284 729 \$0-voicepan 0;
#X obj 74 92 inlet~;
#X obj 71 289 outlet~;
#X obj 263 290 outlet~;
#X obj 225 38 inlet;
#X obj 71 261 *~;
#X obj 264 263 *~;
#X obj 127 223 line;
#X obj 292 220 line;
#X obj 144 140 cos;
#X obj 311 134 sin;
#X floatatom 141 165 5 0 0 0 - - - 0;
#X floatatom 311 160 5 0 0 0 - - - 0;
#X obj 225 95 clip 0 1.57;
#X obj 225 67 * 0.0157;
#X text 346 31 equal power panning 0 to 100 (50 = centre) Balwyn 10/2017
;
#X msg 142 187 \$1 30;
#X msg 307 183 \$1 30;
#X connect 0 0 5 0;
#X connect 0 0 4 0;
#X connect 3 0 13 0;
#X connect 4 0 1 0;
#X connect 5 0 2 0;
#X connect 6 0 4 1;
#X connect 7 0 5 1;
#X connect 8 0 10 0;
#X connect 9 0 11 0;
#X connect 10 0 15 0;
#X connect 11 0 16 0;
#X connect 12 0 8 0;
#X connect 12 0 9 0;
#X connect 13 0 12 0;
#X connect 15 0 6 0;
#X connect 16 0 7 0;
#X restore 123 929 pd \$0-voicepan;
#X obj 122 877 clip~ -0.9 0.9;
#X obj 218 903 r \$0-panvalue;
#X obj 122 631 vcf~ 1000 1;
#X obj 123 683 bp~ 1000 1;
#X floatatom 227 664 5 0 0 0 - - - 0;
#X obj 123 790 cyclone/overdrive~;
#X floatatom 245 717 7 -10 10 0 - - - 0;
#X obj 245 765 line~;
#X msg 245 740 \$1 20;
#X obj 1097 124 lfopresets 3;
#X obj 1403 786 t b f;
#X obj 1403 810 bng 15 250 50 0 empty empty empty 17 7 0 10 #fcfcfc
#000000 #000000;
#X obj 1483 786 t b f;
#X obj 1483 811 bng 15 250 50 0 empty empty empty 17 7 0 10 #fcfcfc
#000000 #000000;
#X obj 1561 784 t b f;
#X obj 1561 809 bng 15 250 50 0 empty empty empty 17 7 0 10 #fcfcfc
#000000 #000000;
#X obj 1638 784 t b f;
#X obj 1637 811 bng 15 250 50 0 empty empty empty 17 7 0 10 #fcfcfc
#000000 #000000;
#X obj 1404 929 s \$0-setinnerattack;
#X obj 1494 905 s \$0-setinnerdecay;
#X obj 1559 880 s \$0-setinnersustain;
#X obj 1639 858 s \$0-setinnerrelease;
#X obj 1404 830 f;
#X obj 1376 104 sel 0;
#X obj 1376 133 pack f f;
#X msg 1376 154 0 \$2;
#X obj 1376 79 spigot 0;
#X obj 1429 107 r \$0-setinnerrelease;
#X obj 1494 833 f;
#X obj 1559 830 f;
#X obj 1639 830 f;
#X obj 508 356 inlet~;
#X obj 453 354 inlet;
#X obj 1575 686 s \$0-squarepwm;
#X obj 1643 639 s \$0-squarephase;
#X obj 1567 562 f;
#X obj 1632 562 f;
#X obj 1567 536 t b f;
#X obj 1631 537 t b f;
#X obj 456 496 f;
#X obj 456 472 t b f;
#X obj 456 884 print band_set;
#X obj 530 497 f;
#X obj 521 473 t b f;
#X obj 543 837 print drive_set;
#X obj 1691 560 f;
#X obj 1682 536 t b f;
#X obj 1704 591 print detune_set;
#X obj 579 496 f;
#X obj 570 472 t b f;
#X obj 593 788 print mix_set;
#X obj 463 907 s \$0-bandvalue;
#X obj 530 860 s \$0-drivevalue;
#X obj 1691 614 s \$0-detunevalue;
#X obj 579 811 s \$0-mixvalue;
#X obj 645 497 f;
#X obj 636 473 t b f;
#X obj 654 738 print cutoff_set;
#X obj 645 762 s \$0-cutoffvalue;
#X obj 690 714 s \$0-resvalue;
#X obj 700 500 f;
#X obj 700 471 t b f;
#X obj 707 689 print res_set;
#X obj 1632 661 print phase_set;
#X obj 1567 711 print pwm_set;
#X obj 760 500 f;
#X obj 760 471 t b f;
#X obj 839 500 f;
#X obj 839 471 t b f;
#X obj 743 664 s \$0-panvalue;
#X obj 821 614 s \$0-widthvalue;
#X obj 760 639 print pan_set;
#X obj 839 589 print width_set;
#X obj 245 691 r \$0-drivevalue;
#X obj 228 586 r \$0-resvalue;
#X obj 171 563 r \$0-bandvalue;
#X obj 227 640 r \$0-widthvalue;
#X msg 980 252 setdetune \$1;
#X msg 972 226 setphase \$1;
#X msg 954 200 setpwm \$1;
#X obj 123 1018 outlet~;
#X obj 121 454 hip~;
#X floatatom 146 425 5 0 0 0 - - - 0;
#X obj 146 401 r \$0-hipvalue;
#X obj 113 123 hsl 70 12 0.1 10000 0 0 empty empty Highpass 3 6 0 10
#dfdfdf #00faff #000000 0 1;
#X obj 909 500 f;
#X obj 909 471 t b f;
#X obj 891 564 s \$0-hipvalue;
#X obj 909 539 print highpass_set;
#X obj 140 818 r \$0-mixvalue;
#X obj 308 105 hsl 70 12 0.01 1 0 0 empty empty Mix\\\ Level 3 6 0
10 #dfdfdf #00faff #000000 0 1;
#X obj 819 133 * 10000;
#X floatatom 761 155 5 0 0 0 - - - 0;
#X obj 760 131 * 10000;
#X floatatom 819 156 5 0 0 0 - - - 0;
#X obj 648 137 * 10;
#X floatatom 648 159 5 0 0 0 - - - 0;
#X obj 605 137 * 10;
#X floatatom 607 163 5 0 0 0 - - - 0;
#X obj 514 138 * 100;
#X floatatom 514 161 5 0 0 0 - - - 0;
#X obj 560 137 * 10;
#X floatatom 562 164 5 0 0 0 - - - 0;
#X floatatom 697 159 5 0 0 0 - - - 0;
#X obj 696 135 * 10000;
#X obj 224 1013 outlet~;
#X floatatom 683 582 5 0 0 0 - - - 0;
#X obj 194 119 ce_lfopresets 7;
#X obj 192 140 ce_lfopresets 1;
#X obj 192 159 ce_lfopresets 2;
#X obj 192 178 ce_lfopresets 5;
#X obj 192 197 ce_lfopresets 7;
#X obj 192 217 ce_lfopresets 8;
#X obj 192 236 ce_lfopresets 9;
#X obj 456 413 route setband setdrive setmix setcutoff setres setpan
setwidth sethipass get_band get_drive get_mix get_cutoff get_res setpan
setwidth inputmidi, f 183;
#X obj 1659 446 t a;
#X msg 1650 485 inputmidi \$1 \$2;
#X connect 2 0 1 1;
#X connect 3 0 28 0;
#X connect 4 0 107 0;
#X connect 5 0 106 0;
#X connect 6 0 86 0;
#X connect 7 0 87 0;
#X connect 8 0 97 0;
#X connect 9 0 79 0;
#X connect 10 0 80 0;
#X connect 11 0 105 0;
#X connect 12 0 30 0;
#X connect 13 0 12 1;
#X connect 14 0 30 1;
#X connect 14 0 31 1;
#X connect 15 0 30 2;
#X connect 16 0 98 0;
#X connect 16 0 134 0;
#X connect 17 0 2 0;
#X connect 18 0 17 0;
#X connect 19 0 18 1;
#X connect 20 0 18 2;
#X connect 21 0 18 3;
#X connect 22 0 18 0;
#X connect 23 0 22 0;
#X connect 24 0 13 0;
#X connect 25 2 5 0;
#X connect 26 2 11 0;
#X connect 27 0 108 0;
#X connect 27 1 133 0;
#X connect 28 0 27 0;
#X connect 29 0 27 1;
#X connect 30 0 31 0;
#X connect 30 1 31 0;
#X connect 31 0 33 0;
#X connect 32 0 31 2;
#X connect 33 0 3 0;
#X connect 34 0 36 0;
#X connect 35 0 33 1;
#X connect 36 0 35 0;
#X connect 37 2 4 0;
#X connect 38 0 39 0;
#X connect 38 1 50 1;
#X connect 39 0 50 0;
#X connect 40 0 41 0;
#X connect 40 1 56 1;
#X connect 41 0 56 0;
#X connect 42 0 43 0;
#X connect 42 1 57 1;
#X connect 43 0 57 0;
#X connect 44 0 45 0;
#X connect 44 1 58 1;
#X connect 45 0 58 0;
#X connect 50 0 46 0;
#X connect 51 0 52 0;
#X connect 52 0 53 0;
#X connect 53 0 2 0;
#X connect 54 0 51 0;
#X connect 55 0 52 1;
#X connect 56 0 47 0;
#X connect 57 0 48 0;
#X connect 58 0 49 0;
#X connect 59 0 109 0;
#X connect 60 0 142 0;
#X connect 63 0 61 0;
#X connect 63 0 92 0;
#X connect 64 0 62 0;
#X connect 64 0 91 0;
#X connect 65 0 63 0;
#X connect 65 1 63 1;
#X connect 66 0 64 0;
#X connect 66 1 64 1;
#X connect 67 0 9 0;
#X connect 68 0 67 0;
#X connect 68 1 67 1;
#X connect 70 0 10 0;
#X connect 71 0 70 0;
#X connect 71 1 70 1;
#X connect 73 0 75 0;
#X connect 73 0 81 0;
#X connect 74 0 73 0;
#X connect 74 1 73 1;
#X connect 76 0 118 0;
#X connect 77 0 76 0;
#X connect 77 1 76 1;
#X connect 83 0 6 0;
#X connect 84 0 83 0;
#X connect 84 1 83 1;
#X connect 88 0 7 0;
#X connect 89 0 88 0;
#X connect 89 1 88 1;
#X connect 93 0 8 0;
#X connect 94 0 93 0;
#X connect 94 1 93 1;
#X connect 95 0 16 0;
#X connect 96 0 95 0;
#X connect 96 1 95 1;
#X connect 101 0 34 0;
#X connect 102 0 15 0;
#X connect 103 0 14 0;
#X connect 104 0 32 0;
#X connect 105 0 142 0;
#X connect 106 0 142 0;
#X connect 107 0 142 0;
#X connect 109 0 12 0;
#X connect 110 0 109 1;
#X connect 111 0 110 0;
#X connect 112 0 115 0;
#X connect 113 0 112 0;
#X connect 114 0 113 0;
#X connect 114 1 113 1;
#X connect 117 0 3 1;
#X connect 118 0 82 0;
#X connect 119 0 122 0;
#X connect 120 0 6 0;
#X connect 121 0 120 0;
#X connect 122 0 112 0;
#X connect 123 0 124 0;
#X connect 124 0 7 0;
#X connect 125 0 126 0;
#X connect 126 0 10 0;
#X connect 127 0 128 0;
#X connect 128 0 8 0;
#X connect 129 0 130 0;
#X connect 130 0 16 0;
#X connect 131 0 9 0;
#X connect 132 0 131 0;
#X connect 135 2 119 0;
#X connect 136 2 121 0;
#X connect 137 2 123 0;
#X connect 138 2 125 0;
#X connect 139 2 132 0;
#X connect 140 2 129 0;
#X connect 141 2 127 0;
#X connect 142 0 68 0;
#X connect 142 1 71 0;
#X connect 142 2 77 0;
#X connect 142 3 84 0;
#X connect 142 4 89 0;
#X connect 142 5 94 0;
#X connect 142 6 96 0;
#X connect 142 7 114 0;
#X connect 142 15 143 0;
#X connect 143 0 144 0;
#X connect 144 0 135 0;
#X connect 144 0 136 0;
#X connect 144 0 137 0;
#X connect 144 0 138 0;
#X connect 144 0 139 0;
#X connect 144 0 140 0;
#X connect 144 0 141 0;
#X coords 0 -1 1 1 290 155 2 100 100;
