#N canvas 174 25 990 816 12;
#X obj 63 133 vsl 15 100 0 10000 0 1 empty empty empty 0 -9 0 10 #fcfcfc
#000000 #000000 6950 1;
#X floatatom 382 216 5 0 0 0 - - - 0;
#X obj 382 241 s \$0-maxrange;
#X msg 64 102 range \$1 \$2;
#X obj 322 264 s \$0-minrange;
#X obj 64 77 pack f f;
#X obj 117 52 r \$0-maxrange;
#X floatatom 322 239 5 0 0 0 - - - 0;
#X obj 64 22 r \$0-minrange;
#X obj 62 482 == 1;
#X obj 62 555 spigot 0;
#X obj 115 529 tgl 15 0 empty empty empty 17 7 0 10 #fcfcfc #000000
#000000 0 1;
#X obj 62 508 t b f;
#X obj 79 434 r \$0-minrange;
#X obj 63 581 t b b;
#X obj 62 457 ==;
#X floatatom 62 323 5 0 0 0 - - - 0;
#X obj 258 74 inlet;
#X obj 92 159 t b f;
#X obj 322 191 f;
#X obj 383 191 f;
#X obj 371 158 t b f;
#X obj 314 164 t b f;
#X obj 257 131 route float setmin setmax;
#X obj 63 271 int;
#X obj 78 652 r \$0-minrange;
#X obj 63 679 f;
#X obj 63 629 t b;
#X obj 257 101 t a;
#X floatatom 257 161 5 0 0 0 - - - 0;
#X obj 61 294 t f;
#X obj 62 244 t f;
#X obj 63 606 del;
#X obj 92 184 f;
#X obj 61 370 s \$0-intvalue;
#X obj 62 412 r \$0-intvalue;
#X obj 62 346 t f;
#X obj 129 628 s \$0-zeroOut;
#X obj 258 294 s \$0-routedfloat;
#X obj 92 136 r \$0-routedfloat;
#X obj 63 705 s \$0-setzeroOut;
#X floatatom 306 369 5 0 10000 0 - - - 0;
#X floatatom 320 433 4 0 0 0 - - - 0;
#X obj 308 48 loadbang;
#N canvas 550 130 646 300 \$0-routedHex 0;
#X obj 46 14 inlet;
#X obj 185 117 route 0 1 2 3 4 5 6 7 8 9 10 11 12 13 14 15, f 48;
#X obj 53 233 f;
#X obj 113 200 t b;
#X obj 243 202 t b;
#X obj 302 203 t b;
#X obj 390 203 t b;
#X obj 476 205 t b;
#X obj 557 203 t b;
#X floatatom 52 265 5 0 0 0 - - - 0;
#X obj 52 293 l2s;
#X obj 51 322 outlet;
#X obj 42 44 % 16;
#X obj 42 70 route float;
#X floatatom 42 94 5 0 0 0 - - - 0;
#X obj 42 139 f;
#X obj 42 116 t b f f;
#X msg 162 227 symbol A;
#X msg 230 227 symbol B;
#X msg 303 228 symbol C;
#X msg 391 228 symbol D;
#X msg 478 230 symbol E;
#X msg 558 228 symbol F;
#X obj 193 201 t b;
#X connect 0 0 12 0;
#X connect 1 0 3 0;
#X connect 1 1 3 0;
#X connect 1 2 3 0;
#X connect 1 3 3 0;
#X connect 1 4 3 0;
#X connect 1 5 3 0;
#X connect 1 6 3 0;
#X connect 1 7 3 0;
#X connect 1 8 3 0;
#X connect 1 9 3 0;
#X connect 1 10 23 0;
#X connect 1 11 4 0;
#X connect 1 12 5 0;
#X connect 1 13 6 0;
#X connect 1 14 7 0;
#X connect 1 15 8 0;
#X connect 2 0 9 0;
#X connect 3 0 2 0;
#X connect 4 0 18 0;
#X connect 5 0 19 0;
#X connect 6 0 20 0;
#X connect 7 0 21 0;
#X connect 8 0 22 0;
#X connect 9 0 10 0;
#X connect 10 0 11 0;
#X connect 12 0 13 0;
#X connect 13 0 14 0;
#X connect 14 0 16 0;
#X connect 15 0 1 0;
#X connect 16 0 15 0;
#X connect 16 1 15 1;
#X connect 16 2 2 1;
#X connect 17 0 11 0;
#X connect 18 0 11 0;
#X connect 19 0 11 0;
#X connect 20 0 11 0;
#X connect 21 0 11 0;
#X connect 22 0 11 0;
#X connect 23 0 17 0;
#X restore 364 427 pd \$0-routedHex;
#X listbox 364 452 7 0 0 0 - - - 0;
#X obj 363 475 t s;
#X obj 600 729 symbol;
#X obj 600 753 outlet;
#X obj 304 397 t b f f f f f f;
#X obj 318 522 s \$0-rawvalue;
#N canvas 408 156 505 511 \$0-convertTwoDigit 0;
#X obj 72 25 r \$0-basehexvalue;
#N canvas 104 104 450 395 \$0-twodigit 0;
#N canvas 78 78 646 300 \$0-routedHex 0;
#X obj 46 14 inlet;
#X obj 185 117 route 0 1 2 3 4 5 6 7 8 9 10 11 12 13 14 15, f 48;
#X obj 53 233 f;
#X obj 113 200 t b;
#X obj 243 202 t b;
#X obj 302 203 t b;
#X obj 390 203 t b;
#X obj 476 205 t b;
#X obj 557 203 t b;
#X floatatom 52 265 5 0 0 0 - - - 0;
#X obj 52 293 l2s;
#X obj 51 322 outlet;
#X obj 42 44 % 16;
#X obj 42 70 route float;
#X floatatom 42 94 5 0 0 0 - - - 0;
#X obj 42 139 f;
#X obj 42 116 t b f f;
#X msg 162 227 symbol A;
#X msg 230 227 symbol B;
#X msg 303 228 symbol C;
#X msg 391 228 symbol D;
#X msg 478 230 symbol E;
#X msg 558 228 symbol F;
#X obj 193 201 t b;
#X connect 0 0 12 0;
#X connect 1 0 3 0;
#X connect 1 1 3 0;
#X connect 1 2 3 0;
#X connect 1 3 3 0;
#X connect 1 4 3 0;
#X connect 1 5 3 0;
#X connect 1 6 3 0;
#X connect 1 7 3 0;
#X connect 1 8 3 0;
#X connect 1 9 3 0;
#X connect 1 10 23 0;
#X connect 1 11 4 0;
#X connect 1 12 5 0;
#X connect 1 13 6 0;
#X connect 1 14 7 0;
#X connect 1 15 8 0;
#X connect 2 0 9 0;
#X connect 3 0 2 0;
#X connect 4 0 18 0;
#X connect 5 0 19 0;
#X connect 6 0 20 0;
#X connect 7 0 21 0;
#X connect 8 0 22 0;
#X connect 9 0 10 0;
#X connect 10 0 11 0;
#X connect 12 0 13 0;
#X connect 13 0 14 0;
#X connect 14 0 16 0;
#X connect 15 0 1 0;
#X connect 16 0 15 0;
#X connect 16 1 15 1;
#X connect 16 2 2 1;
#X connect 17 0 11 0;
#X connect 18 0 11 0;
#X connect 19 0 11 0;
#X connect 20 0 11 0;
#X connect 21 0 11 0;
#X connect 22 0 11 0;
#X connect 23 0 17 0;
#X restore 197 135 pd \$0-routedHex;
#X listbox 197 160 20 0 0 0 - - - 0;
#X obj 190 248 pack f s s;
#X listbox 188 296 20 0 0 0 - - - 0;
#X msg 188 273 symbol \$2\$3;
#X msg 190 224 0;
#X obj 115 22 inlet;
#X obj 116 130 change;
#X obj 148 202 tgl 15 0 empty empty empty 17 7 0 10 #fcfcfc #000000
#000000 0 1;
#X obj 95 222 spigot 0;
#X obj 116 177 t b f;
#X obj 188 348 outlet;
#X obj 188 325 t s;
#X obj 116 106 == 0;
#X obj 116 153 == 1;
#X obj 115 52 t f f;
#X obj 114 81 > 15;
#X obj 197 195 t b s;
#X obj 245 210 t b s;
#X obj 245 184 r \$0-basehexvalue;
#X connect 0 0 1 0;
#X connect 1 0 17 0;
#X connect 2 0 4 0;
#X connect 3 0 12 0;
#X connect 4 0 3 0;
#X connect 5 0 2 0;
#X connect 6 0 15 0;
#X connect 7 0 14 0;
#X connect 8 0 9 1;
#X connect 9 0 5 0;
#X connect 10 0 9 0;
#X connect 10 1 8 0;
#X connect 12 0 11 0;
#X connect 13 0 7 0;
#X connect 14 0 10 0;
#X connect 15 0 16 0;
#X connect 15 1 0 0;
#X connect 16 0 13 0;
#X connect 17 0 5 0;
#X connect 17 1 2 1;
#X connect 18 1 2 2;
#X connect 19 0 18 0;
#X restore 65 165 pd \$0-twodigit;
#X listbox 65 190 20 0 0 0 - - - 0;
#X msg 217 238 bang;
#X obj 65 214 t b s;
#N canvas -14 52 1280 877 \$0-less100 0;
#X obj 187 141 change;
#X obj 219 213 tgl 15 0 empty empty empty 17 7 0 10 #fcfcfc #000000
#000000 0 1;
#X obj 155 233 spigot 0;
#X obj 187 188 t b f;
#X obj 187 112 == 0;
#X obj 186 163 == 1;
#X obj 182 51 inlet;
#X obj 124 53 inlet;
#X obj 141 278 outlet;
#X obj 184 88 > 99;
#X connect 0 0 5 0;
#X connect 1 0 2 1;
#X connect 2 0 8 0;
#X connect 3 1 1 0;
#X connect 4 0 0 0;
#X connect 5 0 3 0;
#X connect 6 0 9 0;
#X connect 7 0 2 0;
#X connect 9 0 4 0;
#X restore 63 139 pd \$0-less100;
#N canvas -46 58 1280 877 \$0-greater100 0;
#X obj 187 141 change;
#X obj 219 213 tgl 15 0 empty empty empty 17 7 0 10 #fcfcfc #000000
#000000 0 1;
#X obj 155 233 spigot 0;
#X obj 187 188 t b f;
#X obj 187 112 == 0;
#X obj 186 163 == 1;
#X obj 182 51 inlet;
#X obj 124 53 inlet;
#X obj 141 278 outlet;
#X obj 183 87 < 100;
#X obj 305 190 change;
#X obj 337 262 tgl 15 0 empty empty empty 17 7 0 10 #fcfcfc #000000
#000000 0 1;
#X obj 273 282 spigot 0;
#X obj 305 237 t b f;
#X obj 305 161 == 0;
#X obj 304 212 == 1;
#X obj 301 136 > 255;
#X connect 0 0 5 0;
#X connect 1 0 2 1;
#X connect 2 0 12 0;
#X connect 3 1 1 0;
#X connect 4 0 0 0;
#X connect 5 0 3 0;
#X connect 6 0 9 0;
#X connect 6 0 16 0;
#X connect 7 0 2 0;
#X connect 9 0 4 0;
#X connect 10 0 15 0;
#X connect 11 0 12 1;
#X connect 12 0 8 0;
#X connect 13 1 11 0;
#X connect 14 0 10 0;
#X connect 15 0 13 0;
#X connect 16 0 14 0;
#X restore 215 142 pd \$0-greater100;
#N canvas 104 104 618 355 \$0-twodigit 0;
#N canvas 78 78 646 300 \$0-routedHex 0;
#X obj 46 14 inlet;
#X obj 53 233 f;
#X obj 83 242 t b;
#X obj 244 209 t b;
#X obj 312 209 t b;
#X obj 385 210 t b;
#X obj 473 210 t b;
#X obj 559 212 t b;
#X obj 640 210 t b;
#X floatatom 52 265 5 0 0 0 - - - 0;
#X obj 52 293 l2s;
#X obj 51 322 outlet;
#X obj 42 70 route float;
#X floatatom 42 94 5 0 0 0 - - - 0;
#X obj 42 139 f;
#X obj 42 116 t b f f;
#X msg 245 234 symbol A;
#X msg 313 234 symbol B;
#X msg 386 235 symbol C;
#X msg 474 235 symbol D;
#X msg 561 237 symbol E;
#X msg 641 235 symbol F;
#X obj 42 44 % 15;
#X obj 43 165 route 1 2 3 4 5 6 7 8 9 10 11 12 13 14 15, f 60;
#X connect 0 0 22 0;
#X connect 1 0 9 0;
#X connect 2 0 1 0;
#X connect 3 0 16 0;
#X connect 4 0 17 0;
#X connect 5 0 18 0;
#X connect 6 0 19 0;
#X connect 7 0 20 0;
#X connect 8 0 21 0;
#X connect 9 0 10 0;
#X connect 10 0 11 0;
#X connect 12 0 13 0;
#X connect 13 0 15 0;
#X connect 14 0 23 0;
#X connect 15 0 14 0;
#X connect 15 1 14 1;
#X connect 15 2 1 1;
#X connect 16 0 11 0;
#X connect 17 0 11 0;
#X connect 18 0 11 0;
#X connect 19 0 11 0;
#X connect 20 0 11 0;
#X connect 21 0 11 0;
#X connect 22 0 12 0;
#X connect 23 0 2 0;
#X connect 23 1 2 0;
#X connect 23 2 2 0;
#X connect 23 3 2 0;
#X connect 23 4 2 0;
#X connect 23 5 2 0;
#X connect 23 6 2 0;
#X connect 23 7 2 0;
#X connect 23 8 2 0;
#X connect 23 9 3 0;
#X connect 23 10 4 0;
#X connect 23 11 5 0;
#X connect 23 12 6 0;
#X connect 23 13 7 0;
#X connect 23 14 8 0;
#X restore 167 222 pd \$0-routedHex;
#X listbox 167 247 20 0 0 0 - - - 0;
#X obj 135 302 pack f s s;
#X listbox 135 354 20 0 0 0 - - - 0;
#X msg 135 331 symbol \$2\$3;
#X msg 122 274 0;
#X obj 101 47 inlet;
#X obj 101 152 change;
#X obj 133 224 tgl 15 0 empty empty empty 17 7 0 10 #fcfcfc #000000
#000000 0 1;
#X obj 80 244 spigot 0;
#X obj 101 199 t b f;
#X obj 134 412 outlet;
#X obj 135 387 t s;
#X obj 101 128 == 0;
#X obj 101 175 == 1;
#X obj 99 72 t f f;
#X obj 166 269 t b s;
#X obj 340 221 t b s;
#X obj 344 152 inlet;
#N canvas 78 78 646 300 \$0-routedHex 0;
#X obj 46 14 inlet;
#X obj 185 117 route 0 1 2 3 4 5 6 7 8 9 10 11 12 13 14 15, f 48;
#X obj 53 233 f;
#X obj 113 200 t b;
#X obj 243 202 t b;
#X obj 302 203 t b;
#X obj 390 203 t b;
#X obj 476 205 t b;
#X obj 557 203 t b;
#X floatatom 52 265 5 0 0 0 - - - 0;
#X obj 52 293 l2s;
#X obj 51 322 outlet;
#X obj 42 44 % 16;
#X obj 42 70 route float;
#X floatatom 42 94 5 0 0 0 - - - 0;
#X obj 42 139 f;
#X obj 42 116 t b f f;
#X msg 162 227 symbol A;
#X msg 230 227 symbol B;
#X msg 303 228 symbol C;
#X msg 391 228 symbol D;
#X msg 478 230 symbol E;
#X msg 558 228 symbol F;
#X obj 193 201 t b;
#X connect 0 0 12 0;
#X connect 1 0 3 0;
#X connect 1 1 3 0;
#X connect 1 2 3 0;
#X connect 1 3 3 0;
#X connect 1 4 3 0;
#X connect 1 5 3 0;
#X connect 1 6 3 0;
#X connect 1 7 3 0;
#X connect 1 8 3 0;
#X connect 1 9 3 0;
#X connect 1 10 23 0;
#X connect 1 11 4 0;
#X connect 1 12 5 0;
#X connect 1 13 6 0;
#X connect 1 14 7 0;
#X connect 1 15 8 0;
#X connect 2 0 9 0;
#X connect 3 0 2 0;
#X connect 4 0 18 0;
#X connect 5 0 19 0;
#X connect 6 0 20 0;
#X connect 7 0 21 0;
#X connect 8 0 22 0;
#X connect 9 0 10 0;
#X connect 10 0 11 0;
#X connect 12 0 13 0;
#X connect 13 0 14 0;
#X connect 14 0 16 0;
#X connect 15 0 1 0;
#X connect 16 0 15 0;
#X connect 16 1 15 1;
#X connect 16 2 2 1;
#X connect 17 0 11 0;
#X connect 18 0 11 0;
#X connect 19 0 11 0;
#X connect 20 0 11 0;
#X connect 21 0 11 0;
#X connect 22 0 11 0;
#X connect 23 0 17 0;
#X restore 345 198 pd \$0-routedHex;
#X obj 99 103 > 16;
#X connect 0 0 1 0;
#X connect 1 0 16 0;
#X connect 2 0 4 0;
#X connect 3 0 12 0;
#X connect 4 0 3 0;
#X connect 5 0 2 0;
#X connect 6 0 15 0;
#X connect 7 0 14 0;
#X connect 8 0 9 1;
#X connect 9 0 5 0;
#X connect 10 0 9 0;
#X connect 10 1 8 0;
#X connect 12 0 11 0;
#X connect 13 0 7 0;
#X connect 14 0 10 0;
#X connect 15 0 20 0;
#X connect 15 1 0 0;
#X connect 16 0 5 0;
#X connect 16 1 2 1;
#X connect 17 1 2 2;
#X connect 18 0 19 0;
#X connect 19 0 17 0;
#X connect 20 0 13 0;
#X restore 215 167 pd \$0-twodigit;
#X listbox 217 191 20 0 0 0 - - - 0;
#X obj 217 214 t b s;
#X obj 63 90 r \$0-divValue;
#X obj 217 89 r \$0-divValue;
#X obj 70 113 r \$0-rawvalue;
#X obj 231 114 r \$0-rawvalue;
#X obj 338 142 r \$0-rawvalue;
#X obj 122 306 symbol;
#X msg 62 246 bang;
#X obj 124 335 t s;
#X obj 122 372 s \$0-convertedHexValue;
#X obj 278 233 r \$0-bangdigit;
#X connect 1 0 2 0;
#X connect 2 0 4 0;
#X connect 3 0 15 0;
#X connect 4 0 16 0;
#X connect 4 1 15 1;
#X connect 5 0 1 0;
#X connect 6 0 7 0;
#X connect 7 0 8 0;
#X connect 8 0 9 0;
#X connect 9 0 3 0;
#X connect 9 1 15 1;
#X connect 10 0 5 0;
#X connect 11 0 6 0;
#X connect 12 0 5 1;
#X connect 13 0 6 1;
#X connect 14 0 7 1;
#X connect 15 0 17 0;
#X connect 16 0 15 0;
#X connect 17 0 18 0;
#X restore 709 30 pd \$0-convertTwoDigit;
#X obj 363 499 s \$0-basehexvalue;
#X obj 706 114 r \$0-convertedHexValue;
#X listbox 706 185 20 0 0 0 - - - 0;
#X obj 600 703 t b s;
#N canvas 469 319 494 428 \$0-convertThreeDigit 0;
#X obj 268 304 t s;
#X obj 271 329 s \$0-tmpconvertedHexValue;
#X listbox 115 163 20 0 0 0 - - - 0;
#X obj 115 187 t b s;
#N canvas -46 58 1273 877 \$0-greater255 0;
#X obj 187 141 change;
#X obj 219 213 tgl 15 0 empty empty empty 17 7 0 10 #fcfcfc #000000
#000000 0 1;
#X obj 155 233 spigot 0;
#X obj 187 188 t b f;
#X obj 187 112 == 0;
#X obj 186 163 == 1;
#X obj 182 51 inlet;
#X obj 124 53 inlet;
#X obj 95 372 outlet;
#X obj 175 569 outlet;
#X obj 232 301 loadbang;
#X floatatom 230 444 4 0 0 0 - - - 0;
#X floatatom 188 443 4 0 0 0 - - - 0;
#X floatatom 230 355 4 0 0 0 - - - 0;
#X obj 188 415 div;
#X obj 230 382 t b f;
#X obj 230 416 mod;
#X floatatom 188 355 4 0 0 0 - - - 0;
#X msg 232 327 16;
#X obj 172 282 % 256;
#X obj 183 87 < 256;
#X connect 0 0 5 0;
#X connect 1 0 2 1;
#X connect 2 0 8 0;
#X connect 2 0 19 0;
#X connect 3 1 1 0;
#X connect 4 0 0 0;
#X connect 5 0 3 0;
#X connect 6 0 20 0;
#X connect 7 0 2 0;
#X connect 10 0 18 0;
#X connect 12 0 9 0;
#X connect 13 0 15 0;
#X connect 14 0 12 0;
#X connect 15 0 16 0;
#X connect 15 0 14 0;
#X connect 15 1 16 1;
#X connect 15 1 14 1;
#X connect 16 0 11 0;
#X connect 17 0 16 0;
#X connect 17 0 14 0;
#X connect 18 0 13 0;
#X connect 19 0 17 0;
#X connect 20 0 4 0;
#X restore 115 60 pd \$0-greater255;
#X floatatom 224 86 5 0 0 0 - - - 0;
#N canvas 78 78 646 300 \$0-routedHex 0;
#X obj 46 14 inlet;
#X obj 185 117 route 0 1 2 3 4 5 6 7 8 9 10 11 12 13 14 15, f 48;
#X obj 53 233 f;
#X obj 113 200 t b;
#X obj 243 202 t b;
#X obj 302 203 t b;
#X obj 390 203 t b;
#X obj 476 205 t b;
#X obj 557 203 t b;
#X floatatom 52 265 5 0 0 0 - - - 0;
#X obj 52 293 l2s;
#X obj 51 322 outlet;
#X obj 42 44 % 16;
#X obj 42 70 route float;
#X floatatom 42 94 5 0 0 0 - - - 0;
#X obj 42 139 f;
#X obj 42 116 t b f f;
#X msg 162 227 symbol A;
#X msg 230 227 symbol B;
#X msg 303 228 symbol C;
#X msg 391 228 symbol D;
#X msg 478 230 symbol E;
#X msg 558 228 symbol F;
#X obj 193 201 t b;
#X obj 150 75 +;
#X connect 0 0 12 0;
#X connect 1 0 3 0;
#X connect 1 1 3 0;
#X connect 1 2 3 0;
#X connect 1 3 3 0;
#X connect 1 4 3 0;
#X connect 1 5 3 0;
#X connect 1 6 3 0;
#X connect 1 7 3 0;
#X connect 1 8 3 0;
#X connect 1 9 3 0;
#X connect 1 10 23 0;
#X connect 1 11 4 0;
#X connect 1 12 5 0;
#X connect 1 13 6 0;
#X connect 1 14 7 0;
#X connect 1 15 8 0;
#X connect 2 0 9 0;
#X connect 3 0 2 0;
#X connect 4 0 18 0;
#X connect 5 0 19 0;
#X connect 6 0 20 0;
#X connect 7 0 21 0;
#X connect 8 0 22 0;
#X connect 9 0 10 0;
#X connect 10 0 11 0;
#X connect 12 0 13 0;
#X connect 13 0 14 0;
#X connect 14 0 16 0;
#X connect 15 0 1 0;
#X connect 16 0 15 0;
#X connect 16 1 15 1;
#X connect 16 2 2 1;
#X connect 17 0 11 0;
#X connect 18 0 11 0;
#X connect 19 0 11 0;
#X connect 20 0 11 0;
#X connect 21 0 11 0;
#X connect 22 0 11 0;
#X connect 23 0 17 0;
#X restore 224 111 pd \$0-routedHex;
#N canvas 4 121 580 526 \$0-threedigit 0;
#N canvas 78 78 646 300 \$0-routedHex 0;
#X obj 46 14 inlet;
#X obj 185 117 route 0 1 2 3 4 5 6 7 8 9 10 11 12 13 14 15, f 48;
#X obj 53 233 f;
#X obj 113 200 t b;
#X obj 243 202 t b;
#X obj 302 203 t b;
#X obj 390 203 t b;
#X obj 476 205 t b;
#X obj 557 203 t b;
#X floatatom 52 265 5 0 0 0 - - - 0;
#X obj 52 293 l2s;
#X obj 51 322 outlet;
#X obj 42 44 % 16;
#X obj 42 70 route float;
#X floatatom 42 94 5 0 0 0 - - - 0;
#X obj 42 139 f;
#X obj 42 116 t b f f;
#X msg 162 227 symbol A;
#X msg 230 227 symbol B;
#X msg 303 228 symbol C;
#X msg 391 228 symbol D;
#X msg 478 230 symbol E;
#X msg 558 228 symbol F;
#X obj 193 201 t b;
#X connect 0 0 12 0;
#X connect 1 0 3 0;
#X connect 1 1 3 0;
#X connect 1 2 3 0;
#X connect 1 3 3 0;
#X connect 1 4 3 0;
#X connect 1 5 3 0;
#X connect 1 6 3 0;
#X connect 1 7 3 0;
#X connect 1 8 3 0;
#X connect 1 9 3 0;
#X connect 1 10 23 0;
#X connect 1 11 4 0;
#X connect 1 12 5 0;
#X connect 1 13 6 0;
#X connect 1 14 7 0;
#X connect 1 15 8 0;
#X connect 2 0 9 0;
#X connect 3 0 2 0;
#X connect 4 0 18 0;
#X connect 5 0 19 0;
#X connect 6 0 20 0;
#X connect 7 0 21 0;
#X connect 8 0 22 0;
#X connect 9 0 10 0;
#X connect 10 0 11 0;
#X connect 12 0 13 0;
#X connect 13 0 14 0;
#X connect 14 0 16 0;
#X connect 15 0 1 0;
#X connect 16 0 15 0;
#X connect 16 1 15 1;
#X connect 16 2 2 1;
#X connect 17 0 11 0;
#X connect 18 0 11 0;
#X connect 19 0 11 0;
#X connect 20 0 11 0;
#X connect 21 0 11 0;
#X connect 22 0 11 0;
#X connect 23 0 17 0;
#X restore 204 186 pd \$0-routedHex;
#X listbox 204 211 20 0 0 0 - - - 0;
#X listbox 167 327 20 0 0 0 - - - 0;
#X msg 154 250 0;
#X obj 109 26 inlet;
#X obj 113 127 change;
#X obj 145 199 tgl 15 0 empty empty empty 17 7 0 10 #fcfcfc #000000
#000000 0 1;
#X obj 92 219 spigot 0;
#X obj 113 174 t b f;
#X obj 172 385 outlet;
#X obj 173 360 t s;
#X obj 113 103 == 0;
#X obj 113 150 == 1;
#X obj 109 52 t f f;
#X obj 203 233 t b s;
#X obj 257 159 t b s;
#X obj 257 71 inlet;
#N canvas 78 78 780 300 \$0-routedHex 0;
#X obj 46 14 inlet;
#X obj 185 117 route 0 1 2 3 4 5 6 7 8 9 10 11 12 13 14 15, f 48;
#X obj 53 233 f;
#X obj 113 200 t b;
#X obj 243 202 t b;
#X obj 302 203 t b;
#X obj 390 203 t b;
#X obj 476 205 t b;
#X obj 557 203 t b;
#X floatatom 52 265 5 0 0 0 - - - 0;
#X obj 52 293 l2s;
#X obj 51 322 outlet;
#X obj 42 44 % 16;
#X obj 42 70 route float;
#X floatatom 42 94 5 0 0 0 - - - 0;
#X obj 42 139 f;
#X obj 42 116 t b f f;
#X msg 162 227 symbol A;
#X msg 230 227 symbol B;
#X msg 303 228 symbol C;
#X msg 391 228 symbol D;
#X msg 478 230 symbol E;
#X msg 558 228 symbol F;
#X obj 193 201 t b;
#X connect 0 0 12 0;
#X connect 1 0 3 0;
#X connect 1 1 3 0;
#X connect 1 2 3 0;
#X connect 1 3 3 0;
#X connect 1 4 3 0;
#X connect 1 5 3 0;
#X connect 1 6 3 0;
#X connect 1 7 3 0;
#X connect 1 8 3 0;
#X connect 1 9 3 0;
#X connect 1 10 23 0;
#X connect 1 11 4 0;
#X connect 1 12 5 0;
#X connect 1 13 6 0;
#X connect 1 14 7 0;
#X connect 1 15 8 0;
#X connect 2 0 9 0;
#X connect 3 0 2 0;
#X connect 4 0 18 0;
#X connect 5 0 19 0;
#X connect 6 0 20 0;
#X connect 7 0 21 0;
#X connect 8 0 22 0;
#X connect 9 0 10 0;
#X connect 10 0 11 0;
#X connect 12 0 13 0;
#X connect 13 0 14 0;
#X connect 14 0 16 0;
#X connect 15 0 1 0;
#X connect 16 0 15 0;
#X connect 16 1 15 1;
#X connect 16 2 2 1;
#X connect 17 0 11 0;
#X connect 18 0 11 0;
#X connect 19 0 11 0;
#X connect 20 0 11 0;
#X connect 21 0 11 0;
#X connect 22 0 11 0;
#X connect 23 0 17 0;
#X restore 257 129 pd \$0-routedHex;
#X obj 168 278 pack f s s s;
#X obj 366 66 inlet;
#X obj 363 88 t b s;
#X msg 167 304 symbol \$2\$3\$4;
#X obj 111 78 > 15;
#X connect 0 0 1 0;
#X connect 1 0 14 0;
#X connect 2 0 10 0;
#X connect 3 0 18 0;
#X connect 4 0 13 0;
#X connect 5 0 12 0;
#X connect 6 0 7 1;
#X connect 7 0 3 0;
#X connect 8 0 7 0;
#X connect 8 1 6 0;
#X connect 10 0 9 0;
#X connect 11 0 5 0;
#X connect 12 0 8 0;
#X connect 13 0 22 0;
#X connect 13 1 0 0;
#X connect 14 1 18 2;
#X connect 15 1 18 3;
#X connect 16 0 17 0;
#X connect 17 0 15 0;
#X connect 18 0 21 0;
#X connect 19 0 20 0;
#X connect 20 0 3 0;
#X connect 20 1 18 1;
#X connect 21 0 2 0;
#X connect 22 0 11 0;
#X restore 115 136 pd \$0-threedigit;
#X obj 115 33 r \$0-divValue;
#X obj 224 36 r \$0-rawvalue;
#X obj 135 5 r \$0-rawvalue;
#X obj 119 300 s \$0-bangdigit;
#X connect 0 0 1 0;
#X connect 2 0 3 0;
#X connect 3 0 11 0;
#X connect 3 1 0 0;
#X connect 4 0 7 0;
#X connect 4 1 5 0;
#X connect 5 0 6 0;
#X connect 6 0 7 2;
#X connect 7 0 2 0;
#X connect 8 0 4 0;
#X connect 9 0 4 1;
#X connect 10 0 7 1;
#X restore 708 55 pd \$0-convertThreeDigit;
#X obj 713 210 r \$0-tmpconvertedHexValue;
#N canvas -46 58 1280 877 \$0-greater100 0;
#X obj 187 141 change;
#X obj 219 213 tgl 15 0 empty empty empty 17 7 0 10 #fcfcfc #000000
#000000 0 1;
#X obj 155 233 spigot 0;
#X obj 187 188 t b f;
#X obj 187 112 == 0;
#X obj 186 163 == 1;
#X obj 182 51 inlet;
#X obj 124 53 inlet;
#X obj 275 317 outlet;
#X obj 183 87 < 100;
#X obj 305 190 change;
#X obj 337 262 tgl 15 0 empty empty empty 17 7 0 10 #fcfcfc #000000
#000000 0 1;
#X obj 273 282 spigot 0;
#X obj 305 237 t b f;
#X obj 305 161 == 0;
#X obj 304 212 == 1;
#X obj 301 136 > 4080;
#X connect 0 0 5 0;
#X connect 1 0 2 1;
#X connect 2 0 12 0;
#X connect 3 1 1 0;
#X connect 4 0 0 0;
#X connect 5 0 3 0;
#X connect 6 0 9 0;
#X connect 6 0 16 0;
#X connect 7 0 2 0;
#X connect 9 0 4 0;
#X connect 10 0 15 0;
#X connect 11 0 12 1;
#X connect 12 0 8 0;
#X connect 13 1 11 0;
#X connect 14 0 10 0;
#X connect 15 0 13 0;
#X connect 16 0 14 0;
#X restore 713 256 pd \$0-greater100;
#X obj 822 233 r \$0-rawvalue;
#N canvas -14 52 1280 877 \$0-less100 0;
#X obj 187 141 change;
#X obj 219 213 tgl 15 0 empty empty empty 17 7 0 10 #fcfcfc #000000
#000000 0 1;
#X obj 155 233 spigot 0;
#X obj 187 188 t b f;
#X obj 187 112 == 0;
#X obj 186 163 == 1;
#X obj 182 51 inlet;
#X obj 124 53 inlet;
#X obj 141 278 outlet;
#X obj 185 86 > 256;
#X connect 0 0 5 0;
#X connect 1 0 2 1;
#X connect 2 0 8 0;
#X connect 3 1 1 0;
#X connect 4 0 0 0;
#X connect 5 0 3 0;
#X connect 6 0 9 0;
#X connect 7 0 2 0;
#X connect 9 0 4 0;
#X restore 706 160 pd \$0-less100;
#X obj 793 138 r \$0-rawvalue;
#N canvas -46 58 1273 877 \$0-greater4080 0;
#X obj 187 141 change;
#X obj 219 213 tgl 15 0 empty empty empty 17 7 0 10 #fcfcfc #000000
#000000 0 1;
#X obj 155 233 spigot 0;
#X obj 187 188 t b f;
#X obj 187 112 == 0;
#X obj 186 163 == 1;
#X obj 182 51 inlet;
#X obj 124 53 inlet;
#X obj 95 372 outlet;
#X obj 175 569 outlet;
#X obj 232 301 loadbang;
#X floatatom 230 444 4 0 0 0 - - - 0;
#X floatatom 188 443 4 0 0 0 - - - 0;
#X floatatom 230 355 4 0 0 0 - - - 0;
#X obj 188 415 div;
#X obj 230 382 t b f;
#X obj 230 416 mod;
#X floatatom 188 355 4 0 0 0 - - - 0;
#X obj 162 289 % 255;
#X msg 232 327 16;
#X obj 163 265 t f;
#X obj 182 87 < 4080;
#X obj 110 159 t s;
#X connect 0 0 5 0;
#X connect 1 0 2 1;
#X connect 2 0 8 0;
#X connect 3 1 1 0;
#X connect 4 0 0 0;
#X connect 5 0 3 0;
#X connect 6 0 21 0;
#X connect 7 0 22 0;
#X connect 10 0 19 0;
#X connect 12 0 9 0;
#X connect 13 0 15 0;
#X connect 14 0 12 0;
#X connect 15 0 16 0;
#X connect 15 0 14 0;
#X connect 15 1 16 1;
#X connect 15 1 14 1;
#X connect 16 0 11 0;
#X connect 17 0 16 0;
#X connect 17 0 14 0;
#X connect 18 0 17 0;
#X connect 19 0 13 0;
#X connect 20 0 18 0;
#X connect 21 0 4 0;
#X connect 22 0 2 0;
#X restore 723 355 pd \$0-greater4080;
#X obj 839 331 r \$0-rawvalue;
#X obj 723 308 r \$0-fourdigitHexValue;
#N canvas 238 45 811 758 \$0-convertFourDigit 0;
#X listbox 60 641 20 0 0 0 - - - 0;
#X obj 60 665 t b s;
#N canvas 188 125 580 526 \$0-fourdigit 0;
#N canvas 78 78 646 300 \$0-routedHex 0;
#X obj 46 14 inlet;
#X obj 185 117 route 0 1 2 3 4 5 6 7 8 9 10 11 12 13 14 15, f 48;
#X obj 53 233 f;
#X obj 113 200 t b;
#X obj 243 202 t b;
#X obj 302 203 t b;
#X obj 390 203 t b;
#X obj 476 205 t b;
#X obj 557 203 t b;
#X floatatom 52 265 5 0 0 0 - - - 0;
#X obj 52 293 l2s;
#X obj 51 322 outlet;
#X obj 42 44 % 16;
#X obj 42 70 route float;
#X floatatom 42 94 5 0 0 0 - - - 0;
#X obj 42 139 f;
#X obj 42 116 t b f f;
#X msg 162 227 symbol A;
#X msg 230 227 symbol B;
#X msg 303 228 symbol C;
#X msg 391 228 symbol D;
#X msg 478 230 symbol E;
#X msg 558 228 symbol F;
#X obj 193 201 t b;
#X connect 0 0 12 0;
#X connect 1 0 3 0;
#X connect 1 1 3 0;
#X connect 1 2 3 0;
#X connect 1 3 3 0;
#X connect 1 4 3 0;
#X connect 1 5 3 0;
#X connect 1 6 3 0;
#X connect 1 7 3 0;
#X connect 1 8 3 0;
#X connect 1 9 3 0;
#X connect 1 10 23 0;
#X connect 1 11 4 0;
#X connect 1 12 5 0;
#X connect 1 13 6 0;
#X connect 1 14 7 0;
#X connect 1 15 8 0;
#X connect 2 0 9 0;
#X connect 3 0 2 0;
#X connect 4 0 18 0;
#X connect 5 0 19 0;
#X connect 6 0 20 0;
#X connect 7 0 21 0;
#X connect 8 0 22 0;
#X connect 9 0 10 0;
#X connect 10 0 11 0;
#X connect 12 0 13 0;
#X connect 13 0 14 0;
#X connect 14 0 16 0;
#X connect 15 0 1 0;
#X connect 16 0 15 0;
#X connect 16 1 15 1;
#X connect 16 2 2 1;
#X connect 17 0 11 0;
#X connect 18 0 11 0;
#X connect 19 0 11 0;
#X connect 20 0 11 0;
#X connect 21 0 11 0;
#X connect 22 0 11 0;
#X connect 23 0 17 0;
#X restore 204 186 pd \$0-routedHex;
#X listbox 204 211 20 0 0 0 - - - 0;
#X listbox 165 355 20 0 0 0 - - - 0;
#X msg 154 250 0;
#X obj 109 26 inlet;
#X obj 113 127 change;
#X obj 145 199 tgl 15 0 empty empty empty 17 7 0 10 #fcfcfc #000000
#000000 0 1;
#X obj 92 219 spigot 0;
#X obj 113 174 t b f;
#X obj 170 413 outlet;
#X obj 171 388 t s;
#X obj 113 103 == 0;
#X obj 113 150 == 1;
#X obj 109 52 t f f;
#X obj 203 233 t b s;
#X obj 257 159 t b s;
#X obj 257 71 inlet;
#N canvas 78 78 780 300 \$0-routedHex 0;
#X obj 46 14 inlet;
#X obj 185 117 route 0 1 2 3 4 5 6 7 8 9 10 11 12 13 14 15, f 48;
#X obj 53 233 f;
#X obj 113 200 t b;
#X obj 243 202 t b;
#X obj 302 203 t b;
#X obj 390 203 t b;
#X obj 476 205 t b;
#X obj 557 203 t b;
#X floatatom 52 265 5 0 0 0 - - - 0;
#X obj 52 293 l2s;
#X obj 51 322 outlet;
#X obj 42 44 % 16;
#X obj 42 70 route float;
#X floatatom 42 94 5 0 0 0 - - - 0;
#X obj 42 139 f;
#X obj 42 116 t b f f;
#X msg 162 227 symbol A;
#X msg 230 227 symbol B;
#X msg 303 228 symbol C;
#X msg 391 228 symbol D;
#X msg 478 230 symbol E;
#X msg 558 228 symbol F;
#X obj 193 201 t b;
#X connect 0 0 12 0;
#X connect 1 0 3 0;
#X connect 1 1 3 0;
#X connect 1 2 3 0;
#X connect 1 3 3 0;
#X connect 1 4 3 0;
#X connect 1 5 3 0;
#X connect 1 6 3 0;
#X connect 1 7 3 0;
#X connect 1 8 3 0;
#X connect 1 9 3 0;
#X connect 1 10 23 0;
#X connect 1 11 4 0;
#X connect 1 12 5 0;
#X connect 1 13 6 0;
#X connect 1 14 7 0;
#X connect 1 15 8 0;
#X connect 2 0 9 0;
#X connect 3 0 2 0;
#X connect 4 0 18 0;
#X connect 5 0 19 0;
#X connect 6 0 20 0;
#X connect 7 0 21 0;
#X connect 8 0 22 0;
#X connect 9 0 10 0;
#X connect 10 0 11 0;
#X connect 12 0 13 0;
#X connect 13 0 14 0;
#X connect 14 0 16 0;
#X connect 15 0 1 0;
#X connect 16 0 15 0;
#X connect 16 1 15 1;
#X connect 16 2 2 1;
#X connect 17 0 11 0;
#X connect 18 0 11 0;
#X connect 19 0 11 0;
#X connect 20 0 11 0;
#X connect 21 0 11 0;
#X connect 22 0 11 0;
#X connect 23 0 17 0;
#X restore 257 129 pd \$0-routedHex;
#X obj 168 278 pack f s s s;
#X obj 414 90 inlet;
#X obj 411 112 t b s;
#X msg 165 330 symbol \$2\$3\$4;
#X obj 462 151 tgl 15 0 empty empty empty 17 7 0 10 #fcfcfc #000000
#000000 0 1;
#X obj 409 171 spigot 0;
#X obj 111 78 > 16;
#X obj 408 303 s2l;
#X obj 408 327 list length;
#X floatatom 408 352 5 0 0 0 - - - 0;
#X obj 408 425 route 2 3 4;
#X obj 408 376 route float;
#X floatatom 408 402 5 0 0 0 - - - 0;
#X msg 440 283 symbol;
#X obj 434 496 spigot 0;
#X obj 485 467 tgl 15 0 empty empty empty 17 7 0 10 #fcfcfc #000000
#000000 0 1;
#X msg 403 459 0;
#X msg 507 440 1;
#X obj 408 259 t a b;
#X msg 415 217 symbol \$2\$3\$4;
#X obj 307 295 l2s;
#X connect 0 0 1 0;
#X connect 1 0 14 0;
#X connect 2 0 10 0;
#X connect 3 0 18 0;
#X connect 4 0 13 0;
#X connect 5 0 12 0;
#X connect 6 0 7 1;
#X connect 6 0 22 0;
#X connect 7 0 3 0;
#X connect 8 0 7 0;
#X connect 8 1 6 0;
#X connect 10 0 9 0;
#X connect 11 0 5 0;
#X connect 12 0 8 0;
#X connect 13 0 24 0;
#X connect 13 1 0 0;
#X connect 14 0 23 0;
#X connect 14 1 18 2;
#X connect 15 0 23 0;
#X connect 15 1 18 3;
#X connect 16 0 17 0;
#X connect 17 0 15 0;
#X connect 18 0 21 0;
#X connect 18 0 37 0;
#X connect 18 0 38 0;
#X connect 19 0 20 0;
#X connect 20 0 23 0;
#X connect 20 0 3 0;
#X connect 20 1 18 1;
#X connect 21 0 2 0;
#X connect 22 0 23 1;
#X connect 23 0 3 0;
#X connect 24 0 11 0;
#X connect 25 0 26 0;
#X connect 26 0 27 0;
#X connect 27 0 29 0;
#X connect 28 0 34 0;
#X connect 28 1 34 0;
#X connect 28 2 35 0;
#X connect 29 0 30 0;
#X connect 30 0 28 0;
#X connect 31 0 25 1;
#X connect 33 0 32 1;
#X connect 34 0 33 0;
#X connect 35 0 33 0;
#X connect 36 0 25 0;
#X connect 36 1 31 0;
#X connect 38 0 36 0;
#X restore 45 172 pd \$0-fourdigit;
#N canvas -46 58 1273 877 \$0-greater4080 0;
#X obj 187 141 change;
#X obj 219 213 tgl 15 0 empty empty empty 17 7 0 10 #fcfcfc #000000
#000000 0 1;
#X obj 155 233 spigot 0;
#X obj 187 188 t b f;
#X obj 187 112 == 0;
#X obj 186 163 == 1;
#X obj 182 51 inlet;
#X obj 124 53 inlet;
#X obj 95 372 outlet;
#X obj 175 569 outlet;
#X obj 232 301 loadbang;
#X floatatom 230 444 4 0 0 0 - - - 0;
#X floatatom 188 443 4 0 0 0 - - - 0;
#X floatatom 230 355 4 0 0 0 - - - 0;
#X obj 188 415 div;
#X obj 230 382 t b f;
#X obj 230 416 mod;
#X floatatom 188 355 4 0 0 0 - - - 0;
#X obj 162 289 % 255;
#X msg 232 327 16;
#X obj 110 159 t f;
#X obj 163 265 t f;
#X obj 182 87 < 4080;
#X obj 204 487 s \$0-bigdiv;
#X connect 0 0 5 0;
#X connect 1 0 2 1;
#X connect 2 0 8 0;
#X connect 2 0 21 0;
#X connect 3 1 1 0;
#X connect 4 0 0 0;
#X connect 5 0 3 0;
#X connect 6 0 22 0;
#X connect 7 0 20 0;
#X connect 10 0 19 0;
#X connect 12 0 9 0;
#X connect 12 0 23 0;
#X connect 13 0 15 0;
#X connect 14 0 12 0;
#X connect 15 0 16 0;
#X connect 15 0 14 0;
#X connect 15 1 16 1;
#X connect 15 1 14 1;
#X connect 16 0 11 0;
#X connect 17 0 16 0;
#X connect 17 0 14 0;
#X connect 18 0 17 0;
#X connect 19 0 13 0;
#X connect 20 0 2 0;
#X connect 21 0 18 0;
#X connect 22 0 4 0;
#X restore 11 56 pd \$0-greater4080;
#N canvas -46 58 1273 877 \$0-greater6655 0;
#X obj 187 141 change;
#X obj 219 213 tgl 15 0 empty empty empty 17 7 0 10 #fcfcfc #000000
#000000 0 1;
#X obj 155 233 spigot 0;
#X obj 187 188 t b f;
#X obj 187 112 == 0;
#X obj 186 163 == 1;
#X obj 182 51 inlet;
#X obj 124 53 inlet;
#X obj 95 372 outlet;
#X obj 175 569 outlet;
#X obj 232 301 loadbang;
#X floatatom 230 444 4 0 0 0 - - - 0;
#X floatatom 188 443 4 0 0 0 - - - 0;
#X floatatom 230 355 4 0 0 0 - - - 0;
#X obj 188 415 div;
#X obj 230 382 t b f;
#X obj 230 416 mod;
#X floatatom 188 355 4 0 0 0 - - - 0;
#X obj 162 289 % 255;
#X msg 232 327 16;
#X obj 110 159 t f;
#X obj 163 265 t f;
#X obj 182 87 < 6655;
#X connect 0 0 5 0;
#X connect 1 0 2 1;
#X connect 2 0 8 0;
#X connect 2 0 21 0;
#X connect 3 1 1 0;
#X connect 4 0 0 0;
#X connect 5 0 3 0;
#X connect 6 0 22 0;
#X connect 7 0 20 0;
#X connect 10 0 19 0;
#X connect 12 0 9 0;
#X connect 13 0 15 0;
#X connect 14 0 12 0;
#X connect 15 0 16 0;
#X connect 15 0 14 0;
#X connect 15 1 16 1;
#X connect 15 1 14 1;
#X connect 16 0 11 0;
#X connect 17 0 16 0;
#X connect 17 0 14 0;
#X connect 18 0 17 0;
#X connect 19 0 13 0;
#X connect 20 0 2 0;
#X connect 21 0 18 0;
#X connect 22 0 4 0;
#X restore 45 141 pd \$0-greater6655;
#X obj 86 368 pack f s s;
#X msg 86 295 0;
#X msg 86 394 symbol \$2\$3;
#X obj 40 111 r \$0-divValue;
#X obj 11 32 r \$0-divValue;
#X obj 161 112 r \$0-rawvalue;
#X obj 127 31 r \$0-rawvalue;
#X obj 95 81 r \$0-rawvalue;
#X obj 60 709 s \$0-bangdigit;
#X obj 86 272 r \$0-bangconvertedHex;
#X obj 152 321 r \$0-tmpconvertedHexValue;
#X obj 92 733 s \$0-fourdigitHexValue;
#X obj 175 141 r \$0-lastdigits;
#X obj 119 297 r \$0-firsttwodigits;
#X obj 119 333 t s;
#X obj 152 344 t s;
#X obj 367 516 l2s;
#X obj 407 359 change;
#X obj 438 431 tgl 15 0 empty empty empty 17 7 0 10 #fcfcfc #000000
#000000 0 1;
#X obj 406 406 t b f;
#X obj 407 332 == 0;
#X obj 407 385 == 1;
#X obj 367 453 spigot 0;
#X obj 570 348 change;
#X obj 623 421 tgl 15 0 empty empty empty 17 7 0 10 #fcfcfc #000000
#000000 0 1;
#X obj 570 395 t b f;
#X obj 570 324 == 0;
#X obj 570 371 == 1;
#X obj 570 439 spigot 0;
#X obj 367 274 t f f f f;
#X obj 570 301 <= 19;
#X floatatom 652 686 4 0 0 0 - - - 0;
#X floatatom 610 687 4 0 0 0 - - - 0;
#X floatatom 652 600 4 0 0 0 - - - 0;
#X obj 610 660 div;
#X obj 652 627 t b f;
#X obj 652 661 mod;
#X floatatom 610 600 4 0 0 0 - - - 0;
#X obj 380 165 l2s;
#N canvas 550 130 646 300 \$0-routedHex 0;
#X obj 44 -3 inlet;
#X obj 185 117 route 0 1 2 3 4 5 6 7 8 9 10 11 12 13 14 15, f 48;
#X obj 53 197 f;
#X obj 113 200 t b;
#X obj 243 202 t b;
#X obj 302 203 t b;
#X obj 390 203 t b;
#X obj 476 205 t b;
#X obj 557 203 t b;
#X floatatom 52 265 5 0 0 0 - - - 0;
#X obj 52 293 l2s;
#X obj 51 322 outlet;
#X obj 40 53 route float;
#X floatatom 40 77 5 0 0 0 - - - 0;
#X obj 42 139 f;
#X msg 162 227 symbol A;
#X msg 230 227 symbol B;
#X msg 303 228 symbol C;
#X msg 391 228 symbol D;
#X msg 478 230 symbol E;
#X msg 558 228 symbol F;
#X obj 193 201 t b;
#X obj 251 320 outlet;
#X obj 42 116 t b f f f;
#X obj 41 27 % 10;
#X connect 0 0 24 0;
#X connect 1 0 3 0;
#X connect 1 1 3 0;
#X connect 1 2 3 0;
#X connect 1 3 3 0;
#X connect 1 4 3 0;
#X connect 1 5 3 0;
#X connect 1 6 3 0;
#X connect 1 7 3 0;
#X connect 1 8 3 0;
#X connect 1 9 3 0;
#X connect 1 10 21 0;
#X connect 1 11 4 0;
#X connect 1 12 5 0;
#X connect 1 13 6 0;
#X connect 1 14 7 0;
#X connect 1 15 8 0;
#X connect 2 0 9 0;
#X connect 3 0 2 0;
#X connect 4 0 16 0;
#X connect 5 0 17 0;
#X connect 6 0 18 0;
#X connect 7 0 19 0;
#X connect 8 0 20 0;
#X connect 9 0 10 0;
#X connect 10 0 11 0;
#X connect 12 0 13 0;
#X connect 13 0 23 0;
#X connect 14 0 1 0;
#X connect 15 0 11 0;
#X connect 16 0 11 0;
#X connect 17 0 11 0;
#X connect 18 0 11 0;
#X connect 19 0 11 0;
#X connect 20 0 11 0;
#X connect 21 0 15 0;
#X connect 23 0 14 0;
#X connect 23 1 14 1;
#X connect 23 2 2 1;
#X connect 23 3 22 0;
#X connect 24 0 12 0;
#X restore 380 142 pd \$0-routedHex;
#X obj 608 573 % 495;
#X obj 407 304 > 19;
#X obj 608 548 f;
#X msg 652 573 256;
#X obj 570 495 r \$0-divValue;
#X obj 626 520 r \$0-rawvalue;
#X obj 673 494 r \$0-initdivValue;
#X obj 652 548 t b;
#X obj 440 471 tgl 15 0 empty empty empty 17 7 0 10 #fcfcfc #000000
#000000 0 1;
#X obj 387 490 spigot 0;
#X obj 413 214 s \$0-firsttwodigits;
#X obj 401 566 s \$0-lastdigits;
#X obj 380 243 s \$0-bangconvertedHex;
#X obj 540 468 s \$0-bangconvertedHex;
#N canvas 130 130 450 512 \$0-rawgreater4080less6655 0;
#X floatatom 32 112 5 0 0 0 - - - 0;
#X obj 122 90 change;
#X obj 154 162 tgl 15 0 empty empty empty 17 7 0 10 #fcfcfc #000000
#000000 0 1;
#X obj 106 187 spigot 0;
#X obj 122 137 t b f;
#X obj 122 66 == 0;
#X obj 122 113 == 1;
#X obj 106 425 + 10;
#X obj 32 88 t f;
#X obj 32 136 t f b f;
#X obj 120 40 < 4080;
#X obj 127 299 change;
#X obj 159 371 tgl 15 0 empty empty empty 17 7 0 10 #fcfcfc #000000
#000000 0 1;
#X obj 127 346 t b f;
#X obj 127 275 == 0;
#X obj 127 322 == 1;
#X obj 106 393 spigot 0;
#X obj 106 213 t f;
#X obj 125 249 >= 6655;
#X obj 137 220 r \$0-rawvalue;
#X obj 120 14 r \$0-rawvalue;
#X obj 32 63 r \$0-bigdiv;
#X obj 107 452 t f;
#X obj 109 478 outlet;
#X connect 0 0 9 0;
#X connect 1 0 6 0;
#X connect 2 0 3 1;
#X connect 3 0 17 0;
#X connect 4 1 2 0;
#X connect 5 0 1 0;
#X connect 6 0 4 0;
#X connect 7 0 22 0;
#X connect 8 0 0 0;
#X connect 9 0 3 0;
#X connect 10 0 5 0;
#X connect 11 0 15 0;
#X connect 12 0 16 1;
#X connect 13 1 12 0;
#X connect 14 0 11 0;
#X connect 15 0 13 0;
#X connect 16 0 7 0;
#X connect 17 0 16 0;
#X connect 18 0 14 0;
#X connect 19 0 18 0;
#X connect 20 0 10 0;
#X connect 21 0 8 0;
#X connect 22 0 23 0;
#X restore 367 39 pd \$0-rawgreater4080less6655;
#X obj 380 189 t b s;
#X obj 380 215 del;
#X obj 366 591 s \$0-bangconvertedHex;
#X obj 367 541 t b s;
#N canvas 78 251 503 495 \$0-rawgreater7920less8191 0;
#X obj 147 89 change;
#X obj 177 157 tgl 15 0 empty empty empty 17 7 0 10 #fcfcfc #000000
#000000 0 1;
#X obj 147 136 t b f;
#X obj 147 65 == 0;
#X obj 147 112 == 1;
#X obj 126 194 spigot 0, f 9;
#X obj 150 41 < 7920;
#X obj 142 299 change;
#X obj 172 367 tgl 15 0 empty empty empty 17 7 0 10 #fcfcfc #000000
#000000 0 1;
#X obj 142 346 t b f;
#X obj 142 275 == 0;
#X obj 142 322 == 1;
#X obj 121 393 spigot 0;
#X obj 140 249 >= 8191;
#X obj 141 221 r \$0-rawvalue;
#X obj 151 13 r \$0-rawvalue;
#X obj 63 169 r \$0-largerdiv;
#X obj 122 422 outlet;
#X connect 0 0 4 0;
#X connect 1 0 5 1;
#X connect 2 1 1 0;
#X connect 3 0 0 0;
#X connect 4 0 2 0;
#X connect 5 0 12 0;
#X connect 6 0 3 0;
#X connect 7 0 11 0;
#X connect 8 0 12 1;
#X connect 9 1 8 0;
#X connect 10 0 7 0;
#X connect 11 0 9 0;
#X connect 12 0 17 0;
#X connect 13 0 10 0;
#X connect 14 0 13 0;
#X connect 15 0 6 0;
#X connect 16 0 5 0;
#X restore 392 88 pd \$0-rawgreater7920less8191;
#X obj 610 711 s \$0-largerdiv;
#N canvas 225 149 450 483 \$0-rawgreater8191less10000 0;
#X obj 246 323 + 1;
#X obj 275 206 change;
#X obj 307 278 tgl 15 0 empty empty empty 17 7 0 10 #fcfcfc #000000
#000000 0 1;
#X obj 275 253 t b f;
#X obj 275 182 == 0;
#X obj 275 229 == 1;
#X obj 254 298 spigot 0;
#X obj 277 156 < 10000;
#X obj 174 110 change;
#X obj 204 178 tgl 15 0 empty empty empty 17 7 0 10 #fcfcfc #000000
#000000 0 1;
#X obj 174 157 t b f;
#X obj 174 86 == 0;
#X obj 174 133 == 1;
#X obj 153 204 spigot 0;
#X obj 172 60 < 8191;
#X obj 153 229 + 1;
#X floatatom 153 253 5 0 0 0 - - - 0;
#X obj 279 129 r \$0-rawvalue;
#X obj 172 30 r \$0-rawvalue;
#X obj 250 104 r \$0-largerdiv;
#X obj 320 54 inlet;
#X obj 247 355 outlet;
#X obj 63 157 r \$0-largerdiv;
#X connect 0 0 21 0;
#X connect 1 0 5 0;
#X connect 2 0 6 1;
#X connect 3 1 2 0;
#X connect 4 0 1 0;
#X connect 5 0 3 0;
#X connect 6 0 0 0;
#X connect 7 0 4 0;
#X connect 8 0 12 0;
#X connect 9 0 13 1;
#X connect 10 1 9 0;
#X connect 11 0 8 0;
#X connect 12 0 10 0;
#X connect 13 0 15 0;
#X connect 14 0 11 0;
#X connect 15 0 16 0;
#X connect 16 0 0 0;
#X connect 17 0 7 0;
#X connect 18 0 14 0;
#X connect 19 0 6 0;
#X connect 20 0 0 0;
#X connect 22 0 13 0;
#X restore 392 114 pd \$0-rawgreater8191less10000;
#N canvas 128 236 262 458 \$0-rawgreater6654less7920 0;
#X obj 84 116 change;
#X obj 116 188 tgl 15 0 empty empty empty 17 7 0 10 #fcfcfc #000000
#000000 0 1;
#X obj 63 210 spigot 0;
#X obj 84 163 t b f;
#X obj 84 93 == 0;
#X obj 84 140 == 1;
#X obj 64 233 t f;
#X floatatom 64 256 5 0 0 0 - - - 0;
#X obj 84 67 < 6654;
#X obj 107 307 change;
#X obj 137 375 tgl 15 0 empty empty empty 17 7 0 10 #fcfcfc #000000
#000000 0 1;
#X obj 107 354 t b f;
#X obj 107 283 == 0;
#X obj 107 330 == 1;
#X obj 70 398 spigot 0;
#X obj 105 257 >= 7920;
#X obj 105 234 r \$0-rawvalue;
#X obj 84 43 r \$0-rawvalue;
#X obj 62 17 r \$0-largerdiv;
#X obj 70 431 outlet;
#X connect 0 0 5 0;
#X connect 1 0 2 1;
#X connect 2 0 6 0;
#X connect 3 1 1 0;
#X connect 4 0 0 0;
#X connect 5 0 3 0;
#X connect 6 0 7 0;
#X connect 7 0 14 0;
#X connect 8 0 4 0;
#X connect 9 0 13 0;
#X connect 10 0 14 1;
#X connect 11 1 10 0;
#X connect 12 0 9 0;
#X connect 13 0 11 0;
#X connect 14 0 19 0;
#X connect 15 0 12 0;
#X connect 16 0 15 0;
#X connect 17 0 8 0;
#X connect 18 0 2 0;
#X restore 380 66 pd \$0-rawgreater6654less7920;
#X connect 0 0 1 0;
#X connect 1 0 13 0;
#X connect 1 1 16 0;
#X connect 2 0 0 0;
#X connect 3 0 2 0;
#X connect 4 0 2 0;
#X connect 5 0 7 0;
#X connect 6 0 5 0;
#X connect 7 0 0 0;
#X connect 8 0 4 0;
#X connect 9 0 3 0;
#X connect 10 0 4 1;
#X connect 11 0 3 1;
#X connect 12 0 2 1;
#X connect 14 0 6 0;
#X connect 15 0 20 0;
#X connect 17 0 2 2;
#X connect 18 0 19 0;
#X connect 19 0 5 1;
#X connect 20 0 5 2;
#X connect 21 0 63 0;
#X connect 22 0 26 0;
#X connect 23 0 27 1;
#X connect 24 1 23 0;
#X connect 25 0 22 0;
#X connect 26 0 24 0;
#X connect 27 0 21 0;
#X connect 28 0 32 0;
#X connect 29 0 33 1;
#X connect 30 0 33 0;
#X connect 30 1 29 0;
#X connect 30 1 53 0;
#X connect 31 0 28 0;
#X connect 32 0 30 0;
#X connect 33 0 47 0;
#X connect 33 0 58 0;
#X connect 34 0 27 0;
#X connect 34 1 54 0;
#X connect 34 2 46 0;
#X connect 34 3 35 0;
#X connect 35 0 31 0;
#X connect 37 0 65 0;
#X connect 38 0 40 0;
#X connect 39 0 37 0;
#X connect 40 0 41 0;
#X connect 40 0 39 0;
#X connect 40 1 41 1;
#X connect 40 1 39 1;
#X connect 41 0 36 0;
#X connect 42 0 39 0;
#X connect 42 0 41 0;
#X connect 43 0 60 0;
#X connect 44 0 43 0;
#X connect 45 0 42 0;
#X connect 46 0 25 0;
#X connect 47 0 45 0;
#X connect 48 0 38 0;
#X connect 49 0 45 0;
#X connect 50 0 47 1;
#X connect 51 0 52 0;
#X connect 52 0 48 0;
#X connect 53 0 54 1;
#X connect 54 0 21 0;
#X connect 59 0 34 0;
#X connect 60 0 61 0;
#X connect 60 1 55 0;
#X connect 61 0 57 0;
#X connect 63 0 62 0;
#X connect 63 1 56 0;
#X connect 64 0 66 0;
#X connect 66 0 44 0;
#X connect 67 0 44 0;
#X restore 708 81 pd \$0-convertFourDigit;
#X obj 315 341 r \$0-intvalue;
#N canvas 666 272 450 300 \$0-initsettings 0;
#X msg 301 174 0;
#X obj 212 77 t b b b b;
#X obj 209 134 s \$0-zeroOut;
#X floatatom 120 251 4 0 0 0 - - - 0;
#X floatatom 81 268 4 0 0 0 - - - 0;
#X floatatom 120 122 4 0 0 0 - - - 0;
#X obj 79 241 div;
#X obj 120 183 mod;
#X msg 119 99 16;
#X obj 120 148 t b f b;
#X obj 83 293 s \$0-divValue;
#X obj 50 210 r \$0-rawvalue;
#X obj 166 171 s \$0-initdivValue;
#X msg 106 74 10000;
#X msg 72 96 0;
#X obj 74 70 del;
#X msg 334 171 10000;
#X obj 85 46 t b b b b;
#X obj 87 20 inlet;
#X obj 211 236 outlet;
#X obj 276 233 outlet;
#X obj 335 233 outlet;
#X connect 0 0 20 0;
#X connect 1 0 2 0;
#X connect 1 1 0 0;
#X connect 1 2 16 0;
#X connect 4 0 10 0;
#X connect 5 0 9 0;
#X connect 6 0 4 0;
#X connect 7 0 3 0;
#X connect 8 0 5 0;
#X connect 9 0 7 0;
#X connect 9 0 6 0;
#X connect 9 1 7 1;
#X connect 9 1 6 1;
#X connect 9 2 12 0;
#X connect 11 0 6 0;
#X connect 13 0 19 0;
#X connect 14 0 19 0;
#X connect 15 0 14 0;
#X connect 16 0 21 0;
#X connect 17 0 15 0;
#X connect 17 1 13 0;
#X connect 17 2 8 0;
#X connect 17 3 1 0;
#X connect 18 0 17 0;
#X restore 308 75 pd \$0-initsettings;
#X obj 763 440 s2l;
#X obj 763 464 list length;
#X floatatom 763 491 5 0 0 0 - - - 0;
#X obj 763 564 route 2 3 4;
#X obj 763 515 route float;
#X floatatom 763 541 5 0 0 0 - - - 0;
#X floatatom 857 438 5 0 0 0 - - - 0;
#X msg 810 415 symbol;
#X obj 760 408 t s b;
#X obj 600 661 spigot 0;
#X obj 659 640 tgl 15 0 empty empty empty 17 7 0 10 #fcfcfc #000000
#000000 0 1;
#X msg 659 614 1;
#X obj 710 663 spigot 0;
#X obj 769 642 tgl 15 0 empty empty empty 17 7 0 10 #fcfcfc #000000
#000000 0 1;
#X msg 769 616 1;
#X obj 827 657 spigot 0;
#X obj 886 636 tgl 15 0 empty empty empty 17 7 0 10 #fcfcfc #000000
#000000 0 1;
#X msg 894 606 1;
#X msg 799 617 0, f 2;
#X msg 925 610 0;
#X msg 690 617 0, f 2;
#X listbox 713 280 20 0 0 0 - - - 0;
#X listbox 723 379 20 0 0 0 - - - 0;
#X connect 0 0 31 0;
#X connect 1 0 2 0;
#X connect 3 0 0 0;
#X connect 5 0 3 0;
#X connect 6 0 5 1;
#X connect 7 0 4 0;
#X connect 8 0 5 0;
#X connect 9 0 12 0;
#X connect 10 0 14 0;
#X connect 11 0 10 1;
#X connect 12 0 10 0;
#X connect 12 1 11 0;
#X connect 13 0 15 1;
#X connect 14 0 32 0;
#X connect 14 1 37 0;
#X connect 15 0 9 0;
#X connect 16 0 36 0;
#X connect 17 0 28 0;
#X connect 18 0 33 0;
#X connect 18 1 33 1;
#X connect 19 0 7 0;
#X connect 20 0 1 0;
#X connect 21 0 20 0;
#X connect 21 1 20 1;
#X connect 22 0 19 0;
#X connect 22 1 19 1;
#X connect 23 0 29 0;
#X connect 23 1 22 0;
#X connect 23 2 21 0;
#X connect 24 0 30 0;
#X connect 25 0 26 1;
#X connect 26 0 40 0;
#X connect 27 0 26 0;
#X connect 27 0 37 0;
#X connect 28 0 23 0;
#X connect 29 0 38 0;
#X connect 30 0 16 0;
#X connect 31 0 24 0;
#X connect 32 0 27 0;
#X connect 33 0 0 0;
#X connect 35 0 15 0;
#X connect 36 0 34 0;
#X connect 39 0 18 0;
#X connect 41 0 49 0;
#X connect 42 0 50 0;
#X connect 43 0 67 0;
#X connect 44 0 45 0;
#X connect 45 0 46 0;
#X connect 46 0 52 0;
#X connect 47 0 48 0;
#X connect 49 1 42 0;
#X connect 49 2 44 0;
#X connect 53 0 60 0;
#X connect 54 0 76 0;
#X connect 54 0 77 0;
#X connect 55 0 47 0;
#X connect 55 1 47 1;
#X connect 57 0 58 0;
#X connect 58 0 89 0;
#X connect 59 0 58 1;
#X connect 60 0 54 0;
#X connect 61 0 60 1;
#X connect 62 0 90 0;
#X connect 63 0 62 1;
#X connect 64 0 62 0;
#X connect 66 0 41 0;
#X connect 67 0 41 0;
#X connect 67 1 22 0;
#X connect 67 2 21 0;
#X connect 68 0 69 0;
#X connect 69 0 70 0;
#X connect 70 0 72 0;
#X connect 71 0 86 0;
#X connect 71 0 87 0;
#X connect 71 0 79 0;
#X connect 71 1 82 0;
#X connect 71 1 88 0;
#X connect 71 1 87 0;
#X connect 71 2 85 0;
#X connect 71 2 88 0;
#X connect 71 2 86 0;
#X connect 72 0 73 0;
#X connect 73 0 71 0;
#X connect 75 0 68 1;
#X connect 76 0 68 0;
#X connect 76 1 75 0;
#X connect 77 0 55 0;
#X connect 78 0 77 1;
#X connect 79 0 78 0;
#X connect 80 0 55 0;
#X connect 81 0 80 1;
#X connect 82 0 81 0;
#X connect 83 0 55 0;
#X connect 84 0 83 1;
#X connect 85 0 84 0;
#X connect 86 0 81 0;
#X connect 87 0 84 0;
#X connect 88 0 78 0;
#X connect 89 0 76 0;
#X connect 89 0 80 0;
#X connect 90 0 76 0;
#X connect 90 0 83 0;
