#N canvas 630 196 628 469 12;
#X declare -lib clearessentials;
#X obj 100 100 cnv 15 290 155 empty empty Filters 3 12 0 14 #404040
#ffffff 0;
#X obj 122 844 *~;
#X obj 113 142 hsl 70 12 0.1 10000 0 0 empty empty Lowpass 3 6 0 10
#dfdfdf #00faff #000000 0 1;
#X obj 113 161 hsl 70 12 0.1 10 0 0 empty empty Res 3 6 0 10 #dfdfdf
#00faff #000000 0 1;
#X obj 113 238 hsl 70 12 0.1 100 0 0 empty empty Pan 3 6 0 10 #dfdfdf
#00faff #000000 0 1;
#X obj 113 199 hsl 70 12 0.1 10000 0 0 empty empty Band 3 6 0 10 #dfdfdf
#00faff #000000 0 1;
#X obj 113 180 hsl 70 12 0.1 10 0 0 empty empty Drive 3 6 0 10 #dfdfdf
#00faff #000000 0 1;
#X obj 122 556 lop~;
#X floatatom 147 532 5 0 0 0 - - - 0;
#X floatatom 171 588 5 0 0 0 - - - 0;
#X floatatom 228 610 5 0 0 0 - - - 0;
#X obj 113 219 hsl 70 12 0.1 10 0 0 empty empty Width 3 6 0 10 #dfdfdf
#00faff #000000 0 1;
#X obj 147 505 r \$0-cutoffvalue;
#N canvas -8 -8 1284 729 \$0-voicepan 0;
#X obj 74 92 inlet~;
#X obj 71 289 outlet~;
#X obj 263 290 outlet~;
#X obj 225 38 inlet;
#X obj 71 261 *~;
#X obj 264 263 *~;
#X obj 127 223 line;
#X obj 292 220 line;
#X obj 144 140 cos;
#X obj 311 134 sin;
#X floatatom 141 165 5 0 0 0 - - - 0;
#X floatatom 311 160 5 0 0 0 - - - 0;
#X obj 225 95 clip 0 1.57;
#X obj 225 67 * 0.0157;
#X text 346 31 equal power panning 0 to 100 (50 = centre) Balwyn 10/2017
;
#X msg 142 187 \$1 30;
#X msg 307 183 \$1 30;
#X connect 0 0 5 0;
#X connect 0 0 4 0;
#X connect 3 0 13 0;
#X connect 4 0 1 0;
#X connect 5 0 2 0;
#X connect 6 0 4 1;
#X connect 7 0 5 1;
#X connect 8 0 10 0;
#X connect 9 0 11 0;
#X connect 10 0 15 0;
#X connect 11 0 16 0;
#X connect 12 0 8 0;
#X connect 12 0 9 0;
#X connect 13 0 12 0;
#X connect 15 0 6 0;
#X connect 16 0 7 0;
#X restore 123 929 pd \$0-voicepan;
#X obj 122 877 clip~ -0.9 0.9;
#X obj 218 903 r \$0-panvalue;
#X obj 122 631 vcf~ 1000 1;
#X obj 123 683 bp~ 1000 1;
#X floatatom 227 664 5 0 0 0 - - - 0;
#X obj 123 790 cyclone/overdrive~;
#X floatatom 245 717 7 -10 10 0 - - - 0;
#X obj 245 765 line~;
#X msg 245 740 \$1 20;
#X obj 508 356 inlet~;
#X obj 424 337 inlet;
#X obj 456 496 f;
#X obj 456 472 t b f;
#X obj 530 497 f;
#X obj 521 473 t b f;
#X obj 579 496 f;
#X obj 570 472 t b f;
#X obj 437 908 s \$0-bandvalue;
#X obj 530 860 s \$0-drivevalue;
#X obj 579 811 s \$0-mixvalue;
#X obj 645 497 f;
#X obj 636 473 t b f;
#X obj 645 762 s \$0-cutoffvalue;
#X obj 690 714 s \$0-resvalue;
#X obj 700 500 f;
#X obj 700 471 t b f;
#X obj 760 500 f;
#X obj 760 471 t b f;
#X obj 839 500 f;
#X obj 839 471 t b f;
#X obj 743 664 s \$0-panvalue;
#X obj 821 614 s \$0-widthvalue;
#X obj 245 691 r \$0-drivevalue;
#X obj 228 586 r \$0-resvalue;
#X obj 171 563 r \$0-bandvalue;
#X obj 227 640 r \$0-widthvalue;
#X obj 123 1018 outlet~;
#X obj 121 454 hip~;
#X floatatom 146 425 5 0 0 0 - - - 0;
#X obj 146 401 r \$0-hipvalue;
#X obj 113 123 hsl 70 12 0.1 10000 0 0 empty empty Highpass 3 6 0 10
#dfdfdf #00faff #000000 0 1;
#X obj 901 498 f;
#X obj 901 469 t b f;
#X obj 891 564 s \$0-hipvalue;
#X obj 140 818 r \$0-mixvalue;
#X obj 308 105 hsl 70 12 0.01 1 0 0 empty empty Mix\\\ Level 3 6 0
10 #dfdfdf #00faff #000000 0 1;
#X obj 817 132 * 10000;
#X floatatom 761 155 5 0 0 0 - - - 0;
#X obj 760 131 * 10000;
#X floatatom 817 155 5 0 0 0 - - - 0;
#X obj 648 137 * 10;
#X floatatom 648 159 5 0 0 0 - - - 0;
#X obj 605 137 * 10;
#X floatatom 607 163 5 0 0 0 - - - 0;
#X obj 512 133 * 100;
#X floatatom 513 159 5 0 0 0 - - - 0;
#X obj 560 137 * 10;
#X floatatom 562 164 5 0 0 0 - - - 0;
#X floatatom 697 159 5 0 0 0 - - - 0;
#X obj 696 135 * 10000;
#X obj 224 1013 outlet~;
#X floatatom 817 553 5 0 0 0 - - - 0;
#X obj 192 121 ce_lfopresets 7;
#X obj 192 140 ce_lfopresets 1;
#X obj 192 159 ce_lfopresets 2;
#X obj 192 178 ce_lfopresets 5;
#X obj 192 197 ce_lfopresets 7;
#X obj 192 217 ce_lfopresets 8;
#X obj 192 236 ce_lfopresets 9;
#X obj 1659 446 t a;
#X msg 1650 485 inputmidi \$1 \$2;
#X obj 537 1189 outlet;
#X obj 1641 713 t b;
#X obj 1644 741 bng 15 250 50 0 empty empty get_datadump 17 7 0 10
#fcfcfc #000000 #000000;
#X obj 1687 811 bng 15 250 50 0 empty empty get_datadump 17 7 0 10
#fcfcfc #000000 #000000;
#X obj 1621 806 del 200;
#X obj 1643 762 t b b b;
#X floatatom 437 1112 5 0 0 0 - - - 0;
#X floatatom 1003 1090 5 0 0 0 - - - 0;
#X obj 999 1061 f;
#X obj 437 1082 f;
#X obj 438 1056 t b;
#X floatatom 619 1097 5 0 0 0 - - - 0;
#X floatatom 809 1090 5 0 0 0 - - - 0;
#X obj 809 1058 f;
#X obj 809 1034 t b;
#X obj 619 1067 f;
#X obj 619 1042 t b;
#X floatatom 1500 1092 5 0 0 0 - - - 0;
#X floatatom 1555 1088 5 0 0 0 - - - 0;
#X obj 1555 1056 f;
#X obj 1555 1032 t b;
#X obj 1500 1062 f;
#X obj 1500 1037 t b;
#X msg 1621 832 symbol ce_filters;
#X floatatom 1244 1085 5 0 0 0 - - - 0;
#X obj 1244 1055 f;
#X obj 1244 1030 t b;
#X floatatom 239 1117 5 0 0 0 - - - 0;
#X obj 239 1087 f;
#X obj 239 1062 t b;
#X msg 441 567 get_drive;
#X msg 441 707 get_hipass;
#X msg 441 614 get_cutoff;
#X msg 441 638 get_res;
#X msg 441 660 get_pan;
#X msg 441 683 get_width;
#X msg 441 591 get_mix;
#X msg 441 544 get_band;
#X floatatom 664 1096 5 0 0 0 - - - 0;
#X floatatom 1368 1089 5 0 0 0 - - - 0;
#X floatatom 490 1104 5 0 0 0 - - - 0;
#X floatatom 1098 1087 5 0 0 0 - - - 0;
#X floatatom 109 1120 5 0 0 0 - - - 0;
#X floatatom 861 1089 5 0 0 0 - - - 0;
#X obj 490 1071 f;
#X obj 109 1093 f;
#X obj 664 1064 f;
#X obj 861 1057 f;
#X obj 1098 1057 f;
#X obj 1368 1060 f;
#X floatatom 150 1118 5 0 0 0 - - - 0;
#X floatatom 756 1094 5 0 0 0 - - - 0;
#X floatatom 1412 1090 5 0 0 0 - - - 0;
#X floatatom 575 1100 5 0 0 0 - - - 0;
#X floatatom 1186 1087 5 0 0 0 - - - 0;
#X floatatom 955 1091 5 0 0 0 - - - 0;
#X obj 575 1067 f;
#X obj 151 1092 f;
#X obj 756 1062 f;
#X obj 955 1059 f;
#X obj 1186 1057 f;
#X obj 1412 1061 f;
#X floatatom 710 1098 5 0 0 0 - - - 0;
#X floatatom 1456 1092 5 0 0 0 - - - 0;
#X floatatom 193 1112 5 0 0 0 - - - 0;
#X floatatom 534 1101 5 0 0 0 - - - 0;
#X floatatom 1140 1086 5 0 0 0 - - - 0;
#X floatatom 909 1092 5 0 0 0 - - - 0;
#X obj 190 1089 f;
#X obj 534 1068 f;
#X obj 710 1066 f;
#X obj 909 1060 f;
#X obj 1140 1056 f;
#X obj 1456 1063 f;
#X obj 1844 891 s \$0-gettype;
#X obj 615 188 r \$0-gettype;
#X msg 618 214 get_osctype;
#X obj 1800 919 s \$0-getspeed;
#X obj 1685 859 t b b b b b b b b b b b;
#X obj 817 187 r \$0-getspeed;
#X msg 819 211 get_speed;
#X obj 1774 945 s \$0-gettoggle;
#X obj 709 189 r \$0-gettoggle;
#X msg 713 215 get_toggle;
#X obj 109 1069 t b f;
#X obj 151 1068 t b f;
#X obj 190 1064 t b f;
#X floatatom 291 1118 5 0 0 0 - - - 0;
#X obj 290 1091 f;
#X floatatom 387 1112 5 0 0 0 - - - 0;
#X obj 388 1086 f;
#X floatatom 340 1113 5 0 0 0 - - - 0;
#X obj 337 1090 f;
#X obj 290 1067 t b f;
#X obj 388 1062 t b f;
#X obj 337 1065 t b f;
#X obj 490 1046 t b f;
#X obj 534 1043 t b f;
#X obj 575 1042 t b f;
#X obj 664 1039 t b f;
#X obj 756 1037 t b f;
#X obj 710 1041 t b f;
#X obj 861 1032 t b f;
#X obj 955 1034 t b f;
#X obj 909 1035 t b f;
#X obj 1140 1031 t b f;
#X obj 1186 1032 t b f;
#X obj 1098 1032 t b f;
#X obj 1368 1035 t b f;
#X obj 1412 1036 t b f;
#X obj 1456 1038 t b f;
#X obj 547 1133 pack s f f f f f f f f f f f f f f f f f f f f f f
f f f f f f f, f 102;
#X obj 998 1020 t b;
#X obj 432 414 route setband setdrive setmix setcutoff setres setpan
setwidth sethipass get_band get_drive get_mix get_cutoff get_res get_pan
get_width get_hipass inputmidi get_datadump load_filters, f 183;
#X obj 1767 579 s \$0-presetdata-1;
#X obj 1782 602 s \$0-presetdata-2;
#X obj 1796 626 s \$0-presetdata-3;
#X obj 1808 647 s \$0-presetdata-4;
#X obj 1824 670 s \$0-presetdata-5;
#X obj 1832 692 s \$0-presetdata-6;
#X obj 1852 715 s \$0-presetdata-7;
#X obj 1865 738 s \$0-presetdata-8;
#X obj 1880 761 s \$0-presetdata-9;
#X obj 1893 783 s \$0-presetdata-10;
#X obj 1932 583 s \$0-presetdata-11;
#X obj 1947 606 s \$0-presetdata-12;
#X obj 1960 628 s \$0-presetdata-13;
#X obj 1973 651 s \$0-presetdata-14;
#X obj 1988 674 s \$0-presetdata-15;
#X obj 2001 696 s \$0-presetdata-16;
#X obj 2017 719 s \$0-presetdata-17;
#X obj 2030 742 s \$0-presetdata-18;
#X obj 2044 765 s \$0-presetdata-19;
#X obj 2058 787 s \$0-presetdata-20;
#X obj 2088 585 s \$0-presetdata-21;
#X obj 2104 608 s \$0-presetdata-22;
#X obj 2117 631 s \$0-presetdata-23;
#X obj 2132 654 s \$0-presetdata-24;
#X obj 2145 676 s \$0-presetdata-25;
#X obj 55 -241 r \$0-presetdata-1;
#X obj 71 -219 r \$0-presetdata-2;
#X obj 85 -194 r \$0-presetdata-3;
#X obj 104 -103 r \$0-presetdata-4;
#X obj 208 -236 r \$0-presetdata-5;
#X obj 225 -212 r \$0-presetdata-6;
#X obj 245 -189 r \$0-presetdata-7;
#X obj 259 -95 r \$0-presetdata-8;
#X obj 364 -235 r \$0-presetdata-9;
#X obj 377 -213 r \$0-presetdata-10;
#X obj 390 -191 r \$0-presetdata-11;
#X obj 411 -86 r \$0-presetdata-12;
#X obj 524 -230 r \$0-presetdata-13;
#X obj 537 -207 r \$0-presetdata-14;
#X obj 552 -184 r \$0-presetdata-15;
#X obj 559 -89 r \$0-presetdata-16;
#X obj 684 -231 r \$0-presetdata-17;
#X obj 703 -205 r \$0-presetdata-18;
#X obj 714 -180 r \$0-presetdata-19;
#X obj 738 -80 r \$0-presetdata-20;
#X obj 1071 -194 r \$0-presetdata-25;
#X obj 942 -44 r \$0-presetdata-24;
#X obj 911 -142 r \$0-presetdata-23;
#X obj 898 -165 r \$0-presetdata-22;
#X obj 882 -188 r \$0-presetdata-21;
#X obj 2162 698 s \$0-presetdata-26;
#X obj 2175 721 s \$0-presetdata-27;
#X obj 2190 744 s \$0-presetdata-28;
#X obj 2203 766 s \$0-presetdata-29;
#X obj 1778 538 unpack f f f f f f f f f f f f f f f f f f f f f f
f f f f f f f;
#X obj 1084 -167 r \$0-presetdata-26;
#X obj 1097 -144 r \$0-presetdata-27;
#X obj 1136 -47 r \$0-presetdata-28;
#X obj 1277 -184 r \$0-presetdata-29;
#X text 129 1149 osctype;
#X text 186 1148 speed;
#X text 230 1151 status;
#X text 279 1151 value;
#X msg 54 -172 setosctype \$1;
#X msg 72 -150 setspeed \$1;
#X msg 92 -126 settoggle \$1;
#X msg 210 -167 setosctype \$1;
#X msg 228 -145 setspeed \$1;
#X msg 248 -121 settoggle \$1;
#X msg 372 -158 setosctype \$1;
#X msg 390 -136 setspeed \$1;
#X msg 403 -111 settoggle \$1;
#X msg 523 -160 setosctype \$1;
#X msg 541 -138 setspeed \$1;
#X msg 554 -113 settoggle \$1;
#X msg 691 -152 setosctype \$1;
#X msg 709 -130 setspeed \$1;
#X msg 722 -105 settoggle \$1;
#X msg 888 -116 setosctype \$1;
#X msg 906 -94 setspeed \$1;
#X msg 919 -69 settoggle \$1;
#X msg 1086 -119 setosctype \$1;
#X msg 1104 -97 setspeed \$1;
#X msg 1117 -72 settoggle \$1;
#X obj 320 12 declare -lib clearessentials;
#X connect 1 0 14 0;
#X connect 2 0 36 0;
#X connect 2 0 94 1;
#X connect 3 0 37 0;
#X connect 3 0 100 1;
#X connect 4 0 44 0;
#X connect 4 0 106 1;
#X connect 5 0 31 0;
#X connect 5 0 93 1;
#X connect 6 0 32 0;
#X connect 6 0 98 1;
#X connect 7 0 16 0;
#X connect 8 0 7 1;
#X connect 9 0 16 1;
#X connect 9 0 17 1;
#X connect 10 0 16 2;
#X connect 11 0 45 0;
#X connect 11 0 75 0;
#X connect 11 0 110 1;
#X connect 12 0 8 0;
#X connect 13 0 50 0;
#X connect 13 1 74 0;
#X connect 14 0 13 0;
#X connect 15 0 13 1;
#X connect 16 0 17 0;
#X connect 16 1 17 0;
#X connect 17 0 19 0;
#X connect 18 0 17 2;
#X connect 19 0 1 0;
#X connect 20 0 22 0;
#X connect 21 0 19 1;
#X connect 22 0 21 0;
#X connect 23 0 51 0;
#X connect 24 0 198 0;
#X connect 25 0 5 0;
#X connect 25 0 93 1;
#X connect 26 0 25 0;
#X connect 26 1 25 1;
#X connect 27 0 6 0;
#X connect 27 0 98 1;
#X connect 28 0 27 0;
#X connect 28 1 27 1;
#X connect 29 0 59 0;
#X connect 29 0 104 1;
#X connect 30 0 29 0;
#X connect 30 1 29 1;
#X connect 34 0 2 0;
#X connect 34 0 94 1;
#X connect 35 0 34 0;
#X connect 35 1 34 1;
#X connect 38 0 3 0;
#X connect 38 0 100 1;
#X connect 39 0 38 0;
#X connect 39 1 38 1;
#X connect 40 0 4 0;
#X connect 40 0 106 1;
#X connect 41 0 40 0;
#X connect 41 1 40 1;
#X connect 42 0 11 0;
#X connect 42 0 110 1;
#X connect 43 0 42 0;
#X connect 43 1 42 1;
#X connect 46 0 20 0;
#X connect 47 0 10 0;
#X connect 48 0 9 0;
#X connect 49 0 18 0;
#X connect 51 0 7 0;
#X connect 52 0 51 1;
#X connect 53 0 52 0;
#X connect 54 0 57 0;
#X connect 54 0 113 1;
#X connect 55 0 54 0;
#X connect 55 0 113 1;
#X connect 56 0 55 0;
#X connect 56 1 55 1;
#X connect 58 0 1 1;
#X connect 59 0 33 0;
#X connect 59 0 104 1;
#X connect 60 0 63 0;
#X connect 61 0 2 0;
#X connect 62 0 61 0;
#X connect 63 0 54 0;
#X connect 64 0 65 0;
#X connect 65 0 3 0;
#X connect 66 0 67 0;
#X connect 67 0 6 0;
#X connect 68 0 69 0;
#X connect 69 0 4 0;
#X connect 70 0 71 0;
#X connect 71 0 11 0;
#X connect 72 0 5 0;
#X connect 73 0 72 0;
#X connect 76 2 60 0;
#X connect 76 5 169 0;
#X connect 76 6 171 0;
#X connect 76 7 170 0;
#X connect 77 2 62 0;
#X connect 77 5 178 0;
#X connect 77 6 179 0;
#X connect 77 7 180 0;
#X connect 78 2 64 0;
#X connect 78 5 181 0;
#X connect 78 6 183 0;
#X connect 78 7 182 0;
#X connect 79 2 66 0;
#X connect 79 5 184 0;
#X connect 79 6 185 0;
#X connect 79 7 186 0;
#X connect 80 2 73 0;
#X connect 80 5 187 0;
#X connect 80 6 188 0;
#X connect 80 7 189 0;
#X connect 81 2 70 0;
#X connect 81 5 192 0;
#X connect 81 6 191 0;
#X connect 81 7 190 0;
#X connect 82 2 68 0;
#X connect 82 5 193 0;
#X connect 82 6 194 0;
#X connect 82 7 195 0;
#X connect 83 0 84 0;
#X connect 84 0 76 0;
#X connect 84 0 77 0;
#X connect 84 0 78 0;
#X connect 84 0 79 0;
#X connect 84 0 80 0;
#X connect 84 0 81 0;
#X connect 84 0 82 0;
#X connect 86 0 87 0;
#X connect 87 0 90 0;
#X connect 88 0 163 0;
#X connect 89 0 108 0;
#X connect 90 0 89 0;
#X connect 90 2 88 0;
#X connect 91 0 196 8;
#X connect 92 0 196 20;
#X connect 93 0 92 0;
#X connect 94 0 91 0;
#X connect 95 0 94 0;
#X connect 96 0 196 12;
#X connect 97 0 196 16;
#X connect 98 0 97 0;
#X connect 99 0 98 0;
#X connect 100 0 96 0;
#X connect 101 0 100 0;
#X connect 102 0 196 28;
#X connect 103 0 196 29;
#X connect 104 0 103 0;
#X connect 105 0 104 0;
#X connect 106 0 102 0;
#X connect 107 0 106 0;
#X connect 108 0 196 0;
#X connect 109 0 196 24;
#X connect 110 0 109 0;
#X connect 111 0 110 0;
#X connect 112 0 196 4;
#X connect 113 0 112 0;
#X connect 114 0 113 0;
#X connect 115 0 198 0;
#X connect 116 0 198 0;
#X connect 117 0 198 0;
#X connect 118 0 198 0;
#X connect 119 0 198 0;
#X connect 120 0 198 0;
#X connect 121 0 198 0;
#X connect 122 0 198 0;
#X connect 123 0 196 13;
#X connect 124 0 196 25;
#X connect 125 0 196 9;
#X connect 126 0 196 21;
#X connect 127 0 196 1;
#X connect 128 0 196 17;
#X connect 129 0 125 0;
#X connect 130 0 127 0;
#X connect 131 0 123 0;
#X connect 132 0 128 0;
#X connect 133 0 126 0;
#X connect 134 0 124 0;
#X connect 135 0 196 2;
#X connect 136 0 196 15;
#X connect 137 0 196 26;
#X connect 138 0 196 11;
#X connect 139 0 196 23;
#X connect 140 0 196 19;
#X connect 141 0 138 0;
#X connect 142 0 135 0;
#X connect 143 0 136 0;
#X connect 144 0 140 0;
#X connect 145 0 139 0;
#X connect 146 0 137 0;
#X connect 147 0 196 14;
#X connect 148 0 196 27;
#X connect 149 0 196 3;
#X connect 150 0 196 10;
#X connect 151 0 196 22;
#X connect 152 0 196 18;
#X connect 153 0 149 0;
#X connect 154 0 150 0;
#X connect 155 0 147 0;
#X connect 156 0 152 0;
#X connect 157 0 151 0;
#X connect 158 0 148 0;
#X connect 160 0 161 0;
#X connect 161 0 76 0;
#X connect 161 0 77 0;
#X connect 161 0 78 0;
#X connect 161 0 79 0;
#X connect 161 0 80 0;
#X connect 161 0 81 0;
#X connect 161 0 82 0;
#X connect 163 0 122 0;
#X connect 163 1 115 0;
#X connect 163 2 121 0;
#X connect 163 3 117 0;
#X connect 163 4 118 0;
#X connect 163 5 119 0;
#X connect 163 6 120 0;
#X connect 163 7 116 0;
#X connect 163 8 166 0;
#X connect 163 9 162 0;
#X connect 163 10 159 0;
#X connect 164 0 165 0;
#X connect 165 0 76 0;
#X connect 165 0 77 0;
#X connect 165 0 78 0;
#X connect 165 0 79 0;
#X connect 165 0 80 0;
#X connect 165 0 81 0;
#X connect 165 0 82 0;
#X connect 167 0 168 0;
#X connect 168 0 76 0;
#X connect 168 0 77 0;
#X connect 168 0 78 0;
#X connect 168 0 79 0;
#X connect 168 0 80 0;
#X connect 168 0 81 0;
#X connect 168 0 82 0;
#X connect 169 0 130 0;
#X connect 169 1 130 1;
#X connect 170 0 142 0;
#X connect 171 0 153 0;
#X connect 171 1 153 1;
#X connect 172 0 196 5;
#X connect 173 0 172 0;
#X connect 174 0 196 7;
#X connect 175 0 174 0;
#X connect 176 0 196 6;
#X connect 177 0 176 0;
#X connect 178 0 173 0;
#X connect 178 1 173 1;
#X connect 179 0 175 0;
#X connect 180 0 177 0;
#X connect 180 1 177 1;
#X connect 181 0 129 0;
#X connect 181 1 129 1;
#X connect 182 0 154 0;
#X connect 182 1 154 1;
#X connect 183 0 141 0;
#X connect 183 1 141 1;
#X connect 184 0 131 0;
#X connect 184 1 131 1;
#X connect 185 0 143 0;
#X connect 185 1 143 1;
#X connect 186 0 155 0;
#X connect 186 1 155 1;
#X connect 187 0 132 0;
#X connect 187 1 132 1;
#X connect 188 0 144 0;
#X connect 188 1 144 1;
#X connect 189 0 156 0;
#X connect 189 1 156 1;
#X connect 190 0 157 0;
#X connect 190 1 157 1;
#X connect 191 0 145 0;
#X connect 191 1 145 1;
#X connect 192 0 133 0;
#X connect 192 1 133 1;
#X connect 193 0 134 0;
#X connect 193 1 134 1;
#X connect 194 0 146 0;
#X connect 194 1 146 1;
#X connect 195 0 158 0;
#X connect 195 1 158 1;
#X connect 196 0 85 0;
#X connect 197 0 93 0;
#X connect 198 0 26 0;
#X connect 198 1 28 0;
#X connect 198 2 30 0;
#X connect 198 3 35 0;
#X connect 198 4 39 0;
#X connect 198 5 41 0;
#X connect 198 6 43 0;
#X connect 198 7 56 0;
#X connect 198 8 197 0;
#X connect 198 9 99 0;
#X connect 198 10 105 0;
#X connect 198 11 95 0;
#X connect 198 12 101 0;
#X connect 198 13 107 0;
#X connect 198 14 111 0;
#X connect 198 15 114 0;
#X connect 198 16 83 0;
#X connect 198 17 86 0;
#X connect 198 18 253 0;
#X connect 224 0 262 0;
#X connect 225 0 263 0;
#X connect 226 0 264 0;
#X connect 227 0 54 0;
#X connect 228 0 265 0;
#X connect 229 0 266 0;
#X connect 230 0 267 0;
#X connect 231 0 2 0;
#X connect 232 0 268 0;
#X connect 233 0 269 0;
#X connect 234 0 270 0;
#X connect 235 0 3 0;
#X connect 236 0 271 0;
#X connect 237 0 272 0;
#X connect 238 0 273 0;
#X connect 239 0 6 0;
#X connect 240 0 274 0;
#X connect 241 0 275 0;
#X connect 242 0 276 0;
#X connect 243 0 5 0;
#X connect 244 0 280 0;
#X connect 245 0 11 0;
#X connect 246 0 279 0;
#X connect 247 0 278 0;
#X connect 248 0 277 0;
#X connect 253 0 199 0;
#X connect 253 1 200 0;
#X connect 253 2 201 0;
#X connect 253 3 202 0;
#X connect 253 4 203 0;
#X connect 253 5 204 0;
#X connect 253 6 205 0;
#X connect 253 7 206 0;
#X connect 253 8 207 0;
#X connect 253 9 208 0;
#X connect 253 10 209 0;
#X connect 253 11 210 0;
#X connect 253 12 211 0;
#X connect 253 13 212 0;
#X connect 253 14 213 0;
#X connect 253 15 214 0;
#X connect 253 16 215 0;
#X connect 253 17 216 0;
#X connect 253 18 217 0;
#X connect 253 19 218 0;
#X connect 253 20 219 0;
#X connect 253 21 220 0;
#X connect 253 22 221 0;
#X connect 253 23 222 0;
#X connect 253 24 223 0;
#X connect 253 25 249 0;
#X connect 253 26 250 0;
#X connect 253 27 251 0;
#X connect 253 28 252 0;
#X connect 254 0 281 0;
#X connect 255 0 282 0;
#X connect 256 0 4 0;
#X connect 257 0 59 0;
#X connect 262 0 76 0;
#X connect 263 0 76 0;
#X connect 264 0 76 0;
#X connect 265 0 77 0;
#X connect 266 0 77 0;
#X connect 267 0 77 0;
#X connect 268 0 78 0;
#X connect 269 0 78 0;
#X connect 270 0 78 0;
#X connect 271 0 79 0;
#X connect 272 0 79 0;
#X connect 273 0 79 0;
#X connect 274 0 80 0;
#X connect 275 0 80 0;
#X connect 276 0 80 0;
#X connect 277 0 81 0;
#X connect 278 0 81 0;
#X connect 279 0 81 0;
#X connect 280 0 82 0;
#X connect 281 0 82 0;
#X connect 282 0 82 0;
#X coords 0 -1 1 1 290 155 2 100 100;
