#N canvas -33 55 1280 877 12;
#X declare -lib clearessentials;
#X obj 63 133 vsl 15 100 0 10000 0 1 empty empty empty 0 -9 0 10 #fcfcfc
#000000 #000000 17 1;
#X floatatom 382 216 5 0 0 0 - - - 0;
#X obj 382 241 s \$0-maxrange;
#X msg 64 102 range \$1 \$2;
#X obj 322 264 s \$0-minrange;
#X obj 64 77 pack f f;
#X obj 117 52 r \$0-maxrange;
#X floatatom 322 239 5 0 0 0 - - - 0;
#X obj 64 22 r \$0-minrange;
#X obj 62 482 == 1;
#X obj 62 555 spigot 0;
#X obj 115 529 tgl 15 0 empty empty empty 17 7 0 10 #fcfcfc #000000
#000000 0 1;
#X obj 62 508 t b f;
#X obj 79 434 r \$0-minrange;
#X obj 63 581 t b b;
#X obj 62 457 ==;
#X floatatom 62 323 5 0 0 0 - - - 0;
#X obj 258 74 inlet;
#X obj 92 159 t b f;
#X obj 322 191 f;
#X obj 383 191 f;
#X obj 371 158 t b f;
#X obj 314 164 t b f;
#X obj 63 271 int;
#X obj 78 652 r \$0-minrange;
#X obj 63 679 f;
#X obj 63 629 t b;
#X obj 257 101 t a;
#X floatatom 257 161 5 0 0 0 - - - 0;
#X obj 61 294 t f;
#X obj 62 244 t f;
#X obj 63 606 del;
#X obj 92 184 f;
#X obj 61 370 s \$0-intvalue;
#X obj 62 412 r \$0-intvalue;
#X obj 62 346 t f;
#X obj 129 628 s \$0-zeroOut;
#X obj 258 294 s \$0-routedfloat;
#X obj 92 136 r \$0-routedfloat;
#X obj 63 705 s \$0-setzeroOut;
#X floatatom 306 346 5 0 10000 0 - - - 0;
#X floatatom 323 395 4 0 0 0 - - - 0;
#X obj 308 48 loadbang;
#X obj 306 370 t b f f f f f f;
#X obj 323 419 s \$0-rawvalue;
#X obj 315 318 r \$0-intvalue;
#N canvas 666 272 450 300 \$0-initsettings 0;
#X msg 301 174 0;
#X obj 212 77 t b b b b;
#X obj 209 134 s \$0-zeroOut;
#X floatatom 120 251 4 0 0 0 - - - 0;
#X floatatom 81 268 4 0 0 0 - - - 0;
#X floatatom 120 122 4 0 0 0 - - - 0;
#X obj 79 241 div;
#X obj 120 183 mod;
#X msg 119 99 16;
#X obj 120 148 t b f b;
#X obj 83 293 s \$0-divValue;
#X obj 50 210 r \$0-rawvalue;
#X obj 166 171 s \$0-initdivValue;
#X msg 106 74 10000;
#X msg 72 96 0;
#X obj 74 70 del;
#X msg 334 171 10000;
#X obj 85 46 t b b b b;
#X obj 87 20 inlet;
#X obj 211 236 outlet;
#X obj 276 233 outlet;
#X obj 335 233 outlet;
#X connect 0 0 20 0;
#X connect 1 0 2 0;
#X connect 1 1 0 0;
#X connect 1 2 16 0;
#X connect 4 0 10 0;
#X connect 5 0 9 0;
#X connect 6 0 4 0;
#X connect 7 0 3 0;
#X connect 8 0 5 0;
#X connect 9 0 7 0;
#X connect 9 0 6 0;
#X connect 9 1 7 1;
#X connect 9 1 6 1;
#X connect 9 2 12 0;
#X connect 11 0 6 0;
#X connect 13 0 19 0;
#X connect 14 0 19 0;
#X connect 15 0 14 0;
#X connect 16 0 21 0;
#X connect 17 0 15 0;
#X connect 17 1 13 0;
#X connect 17 2 8 0;
#X connect 17 3 1 0;
#X connect 18 0 17 0;
#X restore 308 75 pd \$0-initsettings;
#X obj 490 214 f;
#X obj 483 175 t b f;
#X obj 695 160 hradio 15 1 0 10 empty empty empty 0 -8 0 10 #fcfcfc
#000000 #000000 0;
#X floatatom 695 182 5 0 0 0 - - - 0;
#X obj 695 208 route 1 2 3 4 5 6 7 8 9 10 0;
#N canvas 130 130 450 300 \$0-twodigits 0;
#X listbox 114 73 5 0 0 0 - - - 0;
#X listbox 173 97 6 0 0 0 - - - 0;
#X msg 61 86 0;
#X obj 57 192 l2s;
#X msg 75 169 symbol;
#X obj 63 116 pack f s s;
#X obj 63 55 inlet;
#X obj 82 228 outlet;
#X obj 179 48 r \$0-one;
#X obj 114 48 r \$0-two;
#X msg 151 170 symbol \$2\$3;
#X connect 0 0 5 1;
#X connect 1 0 5 2;
#X connect 2 0 5 0;
#X connect 4 0 3 1;
#X connect 5 0 4 0;
#X connect 5 0 3 0;
#X connect 5 0 10 0;
#X connect 6 0 2 0;
#X connect 8 0 1 0;
#X connect 9 0 0 0;
#X connect 10 0 7 0;
#X restore 693 235 pd \$0-twodigits;
#N canvas -34 156 1280 857 \$0-threedigits 0;
#X obj 106 59 inlet;
#X obj 129 227 outlet;
#X listbox 155 75 5 0 0 0 - - - 0;
#X listbox 203 100 5 0 0 0 - - - 0;
#X listbox 262 124 6 0 0 0 - - - 0;
#X msg 118 103 0;
#X obj 117 176 l2s;
#X msg 135 153 symbol;
#X obj 117 128 pack f s s s;
#X obj 304 16 r \$0-one;
#X obj 240 16 r \$0-two;
#X obj 162 16 r \$0-three;
#X msg 217 193 symbol \$2\$3\$4;
#X connect 0 0 5 0;
#X connect 2 0 8 1;
#X connect 3 0 8 2;
#X connect 4 0 8 3;
#X connect 5 0 8 0;
#X connect 7 0 6 1;
#X connect 8 0 7 0;
#X connect 8 0 6 0;
#X connect 8 0 12 0;
#X connect 9 0 4 0;
#X connect 10 0 3 0;
#X connect 11 0 2 0;
#X connect 12 0 1 0;
#X restore 748 261 pd \$0-threedigits;
#N canvas 347 238 530 450 \$0-fourdigits 0;
#X obj 60 93 inlet;
#X obj 69 289 outlet;
#X listbox 234 128 5 0 0 0 - - - 0;
#X listbox 282 153 5 0 0 0 - - - 0;
#X listbox 341 177 6 0 0 0 - - - 0;
#X msg 72 137 0;
#X obj 71 260 l2s;
#X msg 89 237 symbol;
#X obj 383 69 r \$0-one;
#X obj 319 69 r \$0-two;
#X obj 241 69 r \$0-three;
#X listbox 161 101 5 0 0 0 - - - 0;
#X obj 71 212 pack f s s s s;
#X obj 162 70 r \$0-four;
#X msg 164 251 symbol \$2\$3\$4\$5;
#X connect 0 0 5 0;
#X connect 2 0 12 2;
#X connect 3 0 12 3;
#X connect 4 0 12 4;
#X connect 5 0 12 0;
#X connect 7 0 6 1;
#X connect 8 0 4 0;
#X connect 9 0 3 0;
#X connect 10 0 2 0;
#X connect 11 0 12 1;
#X connect 12 0 7 0;
#X connect 12 0 6 0;
#X connect 12 0 14 0;
#X connect 13 0 11 0;
#X connect 14 0 1 0;
#X restore 797 291 pd \$0-fourdigits;
#N canvas 465 228 573 455 \$0-fivedigits 0;
#X obj 60 93 inlet;
#X obj 69 289 outlet;
#X listbox 356 130 5 0 0 0 - - - 0;
#X listbox 404 155 5 0 0 0 - - - 0;
#X listbox 463 179 6 0 0 0 - - - 0;
#X msg 72 137 0;
#X obj 71 260 l2s;
#X msg 89 237 symbol;
#X obj 505 71 r \$0-one;
#X obj 441 71 r \$0-two;
#X obj 363 71 r \$0-three;
#X listbox 235 130 5 0 0 0 - - - 0;
#X obj 242 71 r \$0-four;
#X listbox 121 131 5 0 0 0 - - - 0;
#X obj 128 72 r \$0-five;
#X obj 71 212 pack f s s s s s;
#X msg 160 262 symbol \$2\$3\$4\$5\$6;
#X connect 0 0 5 0;
#X connect 2 0 15 3;
#X connect 3 0 15 4;
#X connect 4 0 15 5;
#X connect 5 0 15 0;
#X connect 7 0 6 1;
#X connect 8 0 4 0;
#X connect 9 0 3 0;
#X connect 10 0 2 0;
#X connect 11 0 15 2;
#X connect 12 0 11 0;
#X connect 13 0 15 1;
#X connect 14 0 13 0;
#X connect 15 0 7 0;
#X connect 15 0 6 0;
#X connect 15 0 16 0;
#X connect 16 0 1 0;
#X restore 854 318 pd \$0-fivedigits;
#N canvas 412 259 760 464 \$0-sixdigits 0;
#X obj 60 93 inlet;
#X obj 69 289 outlet;
#X listbox 514 132 5 0 0 0 - - - 0;
#X listbox 562 157 5 0 0 0 - - - 0;
#X listbox 621 181 6 0 0 0 - - - 0;
#X msg 72 137 0;
#X obj 71 260 l2s;
#X msg 89 237 symbol;
#X obj 663 73 r \$0-one;
#X obj 599 73 r \$0-two;
#X obj 521 73 r \$0-three;
#X listbox 393 132 5 0 0 0 - - - 0;
#X obj 400 73 r \$0-four;
#X listbox 279 133 5 0 0 0 - - - 0;
#X obj 286 74 r \$0-five;
#X listbox 160 135 5 0 0 0 - - - 0;
#X obj 166 76 r \$0-six;
#X obj 71 212 pack f s s s s s s;
#X msg 160 262 symbol \$2\$3\$4\$5\$6\$7;
#X connect 0 0 5 0;
#X connect 2 0 17 4;
#X connect 3 0 17 5;
#X connect 4 0 17 6;
#X connect 5 0 17 0;
#X connect 7 0 6 1;
#X connect 8 0 4 0;
#X connect 9 0 3 0;
#X connect 10 0 2 0;
#X connect 11 0 17 3;
#X connect 12 0 11 0;
#X connect 13 0 17 2;
#X connect 14 0 13 0;
#X connect 15 0 17 1;
#X connect 16 0 15 0;
#X connect 17 0 7 0;
#X connect 17 0 6 0;
#X connect 17 0 18 0;
#X connect 18 0 1 0;
#X restore 914 345 pd \$0-sixdigits;
#N canvas 199 226 909 333 \$0-sevendigits 0;
#X obj 60 93 inlet;
#X obj 362 325 outlet;
#X listbox 664 139 5 0 0 0 - - - 0;
#X listbox 712 164 5 0 0 0 - - - 0;
#X listbox 771 188 6 0 0 0 - - - 0;
#X msg 72 137 0;
#X obj 813 80 r \$0-one;
#X obj 749 80 r \$0-two;
#X obj 671 80 r \$0-three;
#X listbox 543 139 5 0 0 0 - - - 0;
#X obj 550 80 r \$0-four;
#X listbox 429 140 5 0 0 0 - - - 0;
#X obj 436 81 r \$0-five;
#X listbox 310 142 5 0 0 0 - - - 0;
#X obj 316 83 r \$0-six;
#X listbox 186 143 5 0 0 0 - - - 0;
#X obj 361 272 pack f s s s s s s s;
#X obj 192 84 r \$0-seven;
#X msg 359 298 symbol \$2\$3\$4\$5\$6\$7\$8;
#X connect 0 0 5 0;
#X connect 2 0 16 5;
#X connect 3 0 16 6;
#X connect 4 0 16 7;
#X connect 5 0 16 0;
#X connect 6 0 4 0;
#X connect 7 0 3 0;
#X connect 8 0 2 0;
#X connect 9 0 16 4;
#X connect 10 0 9 0;
#X connect 11 0 16 3;
#X connect 12 0 11 0;
#X connect 13 0 16 2;
#X connect 14 0 13 0;
#X connect 15 0 16 1;
#X connect 16 0 18 0;
#X connect 17 0 15 0;
#X connect 18 0 1 0;
#X restore 966 367 pd \$0-sevendigits;
#N canvas 212 244 956 462 \$0-eightdigits 0;
#X obj 60 93 inlet;
#X obj 69 289 outlet;
#X listbox 709 136 5 0 0 0 - - - 0;
#X listbox 757 161 5 0 0 0 - - - 0;
#X listbox 816 185 6 0 0 0 - - - 0;
#X msg 72 137 0;
#X obj 71 260 l2s;
#X msg 89 237 symbol;
#X obj 858 77 r \$0-one;
#X obj 794 77 r \$0-two;
#X obj 716 77 r \$0-three;
#X listbox 588 136 5 0 0 0 - - - 0;
#X obj 595 77 r \$0-four;
#X listbox 474 137 5 0 0 0 - - - 0;
#X obj 481 78 r \$0-five;
#X listbox 355 139 5 0 0 0 - - - 0;
#X obj 361 80 r \$0-six;
#X listbox 231 140 5 0 0 0 - - - 0;
#X obj 237 81 r \$0-seven;
#X listbox 116 139 5 0 0 0 - - - 0;
#X obj 71 211 pack f s s s s s s s s;
#X obj 122 80 r \$0-eight;
#X msg 156 243 symbol \$2\$3\$4\$5\$6\$7\$8\$9;
#X connect 0 0 5 0;
#X connect 2 0 20 6;
#X connect 3 0 20 7;
#X connect 4 0 20 8;
#X connect 5 0 20 0;
#X connect 7 0 6 1;
#X connect 8 0 4 0;
#X connect 9 0 3 0;
#X connect 10 0 2 0;
#X connect 11 0 20 5;
#X connect 12 0 11 0;
#X connect 13 0 20 4;
#X connect 14 0 13 0;
#X connect 15 0 20 3;
#X connect 16 0 15 0;
#X connect 17 0 20 2;
#X connect 18 0 17 0;
#X connect 19 0 20 1;
#X connect 20 0 7 0;
#X connect 20 0 6 0;
#X connect 20 0 22 0;
#X connect 21 0 19 0;
#X connect 22 0 1 0;
#X restore 1021 399 pd \$0-eightdigits;
#N canvas 227 176 785 451 \$0-ninedigits 0;
#X obj 60 93 inlet;
#X obj 68 307 outlet;
#X listbox 518 242 5 0 0 0 - - - 0;
#X listbox 566 267 5 0 0 0 - - - 0;
#X listbox 625 291 6 0 0 0 - - - 0;
#X msg 72 137 0;
#X obj 71 260 l2s;
#X msg 89 237 symbol;
#X obj 667 183 r \$0-one;
#X obj 603 183 r \$0-two;
#X obj 525 183 r \$0-three;
#X listbox 397 242 5 0 0 0 - - - 0;
#X obj 404 183 r \$0-four;
#X listbox 283 243 5 0 0 0 - - - 0;
#X obj 290 184 r \$0-five;
#X listbox 598 134 5 0 0 0 - - - 0;
#X obj 604 75 r \$0-six;
#X listbox 474 135 5 0 0 0 - - - 0;
#X obj 480 76 r \$0-seven;
#X listbox 359 134 5 0 0 0 - - - 0;
#X obj 365 75 r \$0-eight;
#X listbox 228 130 5 0 0 0 - - - 0;
#X obj 73 209 pack f s s s s s s s s s;
#X obj 234 71 r \$0-nine;
#X msg 88 274 symbol \$2\$3\$4\$5\$6\$7\$8\$9\$10;
#X connect 0 0 5 0;
#X connect 2 0 22 7;
#X connect 3 0 22 8;
#X connect 4 0 22 9;
#X connect 5 0 22 0;
#X connect 7 0 6 1;
#X connect 8 0 4 0;
#X connect 9 0 3 0;
#X connect 10 0 2 0;
#X connect 11 0 22 6;
#X connect 12 0 11 0;
#X connect 13 0 22 5;
#X connect 14 0 13 0;
#X connect 15 0 22 4;
#X connect 16 0 15 0;
#X connect 17 0 22 3;
#X connect 18 0 17 0;
#X connect 19 0 22 2;
#X connect 20 0 19 0;
#X connect 21 0 22 1;
#X connect 22 0 7 0;
#X connect 22 0 6 0;
#X connect 22 0 24 0;
#X connect 23 0 21 0;
#X connect 24 0 1 0;
#X restore 1081 426 pd \$0-ninedigits;
#N canvas 212 276 735 441 \$0-tendigits 0;
#X obj 60 93 inlet;
#X obj 85 312 outlet;
#X listbox 518 242 5 0 0 0 - - - 0;
#X listbox 566 267 5 0 0 0 - - - 0;
#X listbox 625 291 6 0 0 0 - - - 0;
#X msg 72 137 0;
#X obj 71 260 l2s;
#X msg 89 237 symbol;
#X obj 667 183 r \$0-one;
#X obj 603 183 r \$0-two;
#X obj 525 183 r \$0-three;
#X listbox 397 242 5 0 0 0 - - - 0;
#X obj 404 183 r \$0-four;
#X listbox 283 243 5 0 0 0 - - - 0;
#X obj 290 184 r \$0-five;
#X listbox 598 134 5 0 0 0 - - - 0;
#X obj 604 75 r \$0-six;
#X listbox 474 135 5 0 0 0 - - - 0;
#X obj 480 76 r \$0-seven;
#X listbox 359 134 5 0 0 0 - - - 0;
#X obj 365 75 r \$0-eight;
#X listbox 228 130 5 0 0 0 - - - 0;
#X obj 234 71 r \$0-nine;
#X listbox 117 120 5 0 0 0 - - - 0;
#X obj 123 61 r \$0-nine;
#X obj 73 209 pack f s s s s s s s s s s;
#X msg 88 275 symbol \$2\$3\$4\$5\$6\$7\$8\$9\$10\$11;
#X connect 0 0 5 0;
#X connect 2 0 25 8;
#X connect 3 0 25 9;
#X connect 4 0 25 10;
#X connect 5 0 25 0;
#X connect 7 0 6 1;
#X connect 8 0 4 0;
#X connect 9 0 3 0;
#X connect 10 0 2 0;
#X connect 11 0 25 7;
#X connect 12 0 11 0;
#X connect 13 0 25 6;
#X connect 14 0 13 0;
#X connect 15 0 25 5;
#X connect 16 0 15 0;
#X connect 17 0 25 4;
#X connect 18 0 17 0;
#X connect 19 0 25 3;
#X connect 20 0 19 0;
#X connect 21 0 25 2;
#X connect 22 0 21 0;
#X connect 23 0 25 1;
#X connect 24 0 23 0;
#X connect 25 0 7 0;
#X connect 25 0 6 0;
#X connect 25 0 26 0;
#X connect 26 0 1 0;
#X restore 1135 453 pd \$0-tendigits;
#X obj 540 185 t b;
#X obj 769 456 outlet;
#X obj 540 162 r \$0-banghexlimit;
#X obj 490 238 s \$0-digitlimit;
#X obj 695 132 r \$0-digitlimit;
#N canvas 92 196 737 300 \$0-calculatedigits 0;
#X floatatom 322 93 5 0 0 0 - - - 0;
#X obj 747 160 / 4096;
#X obj 860 161 / 256;
#X obj 976 156 / 16;
#X obj 1094 155 / 1;
#N canvas 550 130 646 300 \$0-routedHex 0;
#X obj 46 14 inlet;
#X obj 185 117 route 0 1 2 3 4 5 6 7 8 9 10 11 12 13 14 15, f 48;
#X obj 53 233 f;
#X obj 113 200 t b;
#X obj 243 202 t b;
#X obj 302 203 t b;
#X obj 390 203 t b;
#X obj 476 205 t b;
#X obj 557 203 t b;
#X floatatom 52 265 5 0 0 0 - - - 0;
#X obj 52 293 l2s;
#X obj 51 322 outlet;
#X obj 42 44 % 16;
#X obj 42 70 route float;
#X floatatom 42 94 5 0 0 0 - - - 0;
#X obj 42 139 f;
#X obj 42 116 t b f f;
#X msg 162 227 symbol A;
#X msg 230 227 symbol B;
#X msg 303 228 symbol C;
#X msg 391 228 symbol D;
#X msg 478 230 symbol E;
#X msg 558 228 symbol F;
#X obj 193 201 t b;
#X connect 0 0 12 0;
#X connect 1 0 3 0;
#X connect 1 1 3 0;
#X connect 1 2 3 0;
#X connect 1 3 3 0;
#X connect 1 4 3 0;
#X connect 1 5 3 0;
#X connect 1 6 3 0;
#X connect 1 7 3 0;
#X connect 1 8 3 0;
#X connect 1 9 3 0;
#X connect 1 10 23 0;
#X connect 1 11 4 0;
#X connect 1 12 5 0;
#X connect 1 13 6 0;
#X connect 1 14 7 0;
#X connect 1 15 8 0;
#X connect 2 0 9 0;
#X connect 3 0 2 0;
#X connect 4 0 18 0;
#X connect 5 0 19 0;
#X connect 6 0 20 0;
#X connect 7 0 21 0;
#X connect 8 0 22 0;
#X connect 9 0 10 0;
#X connect 10 0 11 0;
#X connect 12 0 13 0;
#X connect 13 0 14 0;
#X connect 14 0 16 0;
#X connect 15 0 1 0;
#X connect 16 0 15 0;
#X connect 16 1 15 1;
#X connect 16 2 2 1;
#X connect 17 0 11 0;
#X connect 18 0 11 0;
#X connect 19 0 11 0;
#X connect 20 0 11 0;
#X connect 21 0 11 0;
#X connect 22 0 11 0;
#X connect 23 0 17 0;
#X restore 747 186 pd \$0-routedHex;
#N canvas 550 130 646 300 \$0-routedHex 0;
#X obj 46 14 inlet;
#X obj 185 117 route 0 1 2 3 4 5 6 7 8 9 10 11 12 13 14 15, f 48;
#X obj 53 233 f;
#X obj 113 200 t b;
#X obj 243 202 t b;
#X obj 302 203 t b;
#X obj 390 203 t b;
#X obj 476 205 t b;
#X obj 557 203 t b;
#X floatatom 52 265 5 0 0 0 - - - 0;
#X obj 52 293 l2s;
#X obj 51 322 outlet;
#X obj 42 44 % 16;
#X obj 42 70 route float;
#X floatatom 42 94 5 0 0 0 - - - 0;
#X obj 42 139 f;
#X obj 42 116 t b f f;
#X msg 162 227 symbol A;
#X msg 230 227 symbol B;
#X msg 303 228 symbol C;
#X msg 391 228 symbol D;
#X msg 478 230 symbol E;
#X msg 558 228 symbol F;
#X obj 193 201 t b;
#X connect 0 0 12 0;
#X connect 1 0 3 0;
#X connect 1 1 3 0;
#X connect 1 2 3 0;
#X connect 1 3 3 0;
#X connect 1 4 3 0;
#X connect 1 5 3 0;
#X connect 1 6 3 0;
#X connect 1 7 3 0;
#X connect 1 8 3 0;
#X connect 1 9 3 0;
#X connect 1 10 23 0;
#X connect 1 11 4 0;
#X connect 1 12 5 0;
#X connect 1 13 6 0;
#X connect 1 14 7 0;
#X connect 1 15 8 0;
#X connect 2 0 9 0;
#X connect 3 0 2 0;
#X connect 4 0 18 0;
#X connect 5 0 19 0;
#X connect 6 0 20 0;
#X connect 7 0 21 0;
#X connect 8 0 22 0;
#X connect 9 0 10 0;
#X connect 10 0 11 0;
#X connect 12 0 13 0;
#X connect 13 0 14 0;
#X connect 14 0 16 0;
#X connect 15 0 1 0;
#X connect 16 0 15 0;
#X connect 16 1 15 1;
#X connect 16 2 2 1;
#X connect 17 0 11 0;
#X connect 18 0 11 0;
#X connect 19 0 11 0;
#X connect 20 0 11 0;
#X connect 21 0 11 0;
#X connect 22 0 11 0;
#X connect 23 0 17 0;
#X restore 860 186 pd \$0-routedHex;
#N canvas 550 130 646 300 \$0-routedHex 0;
#X obj 46 14 inlet;
#X obj 185 117 route 0 1 2 3 4 5 6 7 8 9 10 11 12 13 14 15, f 48;
#X obj 53 233 f;
#X obj 113 200 t b;
#X obj 243 202 t b;
#X obj 302 203 t b;
#X obj 390 203 t b;
#X obj 476 205 t b;
#X obj 557 203 t b;
#X floatatom 52 265 5 0 0 0 - - - 0;
#X obj 52 293 l2s;
#X obj 51 322 outlet;
#X obj 42 44 % 16;
#X obj 42 70 route float;
#X floatatom 42 94 5 0 0 0 - - - 0;
#X obj 42 139 f;
#X obj 42 116 t b f f;
#X msg 162 227 symbol A;
#X msg 230 227 symbol B;
#X msg 303 228 symbol C;
#X msg 391 228 symbol D;
#X msg 478 230 symbol E;
#X msg 558 228 symbol F;
#X obj 193 201 t b;
#X connect 0 0 12 0;
#X connect 1 0 3 0;
#X connect 1 1 3 0;
#X connect 1 2 3 0;
#X connect 1 3 3 0;
#X connect 1 4 3 0;
#X connect 1 5 3 0;
#X connect 1 6 3 0;
#X connect 1 7 3 0;
#X connect 1 8 3 0;
#X connect 1 9 3 0;
#X connect 1 10 23 0;
#X connect 1 11 4 0;
#X connect 1 12 5 0;
#X connect 1 13 6 0;
#X connect 1 14 7 0;
#X connect 1 15 8 0;
#X connect 2 0 9 0;
#X connect 3 0 2 0;
#X connect 4 0 18 0;
#X connect 5 0 19 0;
#X connect 6 0 20 0;
#X connect 7 0 21 0;
#X connect 8 0 22 0;
#X connect 9 0 10 0;
#X connect 10 0 11 0;
#X connect 12 0 13 0;
#X connect 13 0 14 0;
#X connect 14 0 16 0;
#X connect 15 0 1 0;
#X connect 16 0 15 0;
#X connect 16 1 15 1;
#X connect 16 2 2 1;
#X connect 17 0 11 0;
#X connect 18 0 11 0;
#X connect 19 0 11 0;
#X connect 20 0 11 0;
#X connect 21 0 11 0;
#X connect 22 0 11 0;
#X connect 23 0 17 0;
#X restore 976 182 pd \$0-routedHex;
#N canvas 550 130 646 300 \$0-routedHex 0;
#X obj 46 14 inlet;
#X obj 185 117 route 0 1 2 3 4 5 6 7 8 9 10 11 12 13 14 15, f 48;
#X obj 53 233 f;
#X obj 113 200 t b;
#X obj 243 202 t b;
#X obj 302 203 t b;
#X obj 390 203 t b;
#X obj 476 205 t b;
#X obj 557 203 t b;
#X floatatom 52 265 5 0 0 0 - - - 0;
#X obj 52 293 l2s;
#X obj 51 322 outlet;
#X obj 42 44 % 16;
#X obj 42 70 route float;
#X floatatom 42 94 5 0 0 0 - - - 0;
#X obj 42 139 f;
#X obj 42 116 t b f f;
#X msg 162 227 symbol A;
#X msg 230 227 symbol B;
#X msg 303 228 symbol C;
#X msg 391 228 symbol D;
#X msg 478 230 symbol E;
#X msg 558 228 symbol F;
#X obj 193 201 t b;
#X connect 0 0 12 0;
#X connect 1 0 3 0;
#X connect 1 1 3 0;
#X connect 1 2 3 0;
#X connect 1 3 3 0;
#X connect 1 4 3 0;
#X connect 1 5 3 0;
#X connect 1 6 3 0;
#X connect 1 7 3 0;
#X connect 1 8 3 0;
#X connect 1 9 3 0;
#X connect 1 10 23 0;
#X connect 1 11 4 0;
#X connect 1 12 5 0;
#X connect 1 13 6 0;
#X connect 1 14 7 0;
#X connect 1 15 8 0;
#X connect 2 0 9 0;
#X connect 3 0 2 0;
#X connect 4 0 18 0;
#X connect 5 0 19 0;
#X connect 6 0 20 0;
#X connect 7 0 21 0;
#X connect 8 0 22 0;
#X connect 9 0 10 0;
#X connect 10 0 11 0;
#X connect 12 0 13 0;
#X connect 13 0 14 0;
#X connect 14 0 16 0;
#X connect 15 0 1 0;
#X connect 16 0 15 0;
#X connect 16 1 15 1;
#X connect 16 2 2 1;
#X connect 17 0 11 0;
#X connect 18 0 11 0;
#X connect 19 0 11 0;
#X connect 20 0 11 0;
#X connect 21 0 11 0;
#X connect 22 0 11 0;
#X connect 23 0 17 0;
#X restore 1093 179 pd \$0-routedHex;
#X listbox 747 215 5 0 0 0 - - - 0;
#X listbox 860 212 5 0 0 0 - - - 0;
#X listbox 976 209 5 0 0 0 - - - 0;
#X listbox 1093 203 6 0 0 0 - - - 0;
#X listbox 632 210 5 0 0 0 - - - 0;
#N canvas 550 130 646 300 \$0-routedHex 0;
#X obj 46 14 inlet;
#X obj 185 117 route 0 1 2 3 4 5 6 7 8 9 10 11 12 13 14 15, f 48;
#X obj 53 233 f;
#X obj 113 200 t b;
#X obj 243 202 t b;
#X obj 302 203 t b;
#X obj 390 203 t b;
#X obj 476 205 t b;
#X obj 557 203 t b;
#X floatatom 52 265 5 0 0 0 - - - 0;
#X obj 52 293 l2s;
#X obj 51 322 outlet;
#X obj 42 44 % 16;
#X obj 42 70 route float;
#X floatatom 42 94 5 0 0 0 - - - 0;
#X obj 42 139 f;
#X obj 42 116 t b f f;
#X msg 162 227 symbol A;
#X msg 230 227 symbol B;
#X msg 303 228 symbol C;
#X msg 391 228 symbol D;
#X msg 478 230 symbol E;
#X msg 558 228 symbol F;
#X obj 193 201 t b;
#X connect 0 0 12 0;
#X connect 1 0 3 0;
#X connect 1 1 3 0;
#X connect 1 2 3 0;
#X connect 1 3 3 0;
#X connect 1 4 3 0;
#X connect 1 5 3 0;
#X connect 1 6 3 0;
#X connect 1 7 3 0;
#X connect 1 8 3 0;
#X connect 1 9 3 0;
#X connect 1 10 23 0;
#X connect 1 11 4 0;
#X connect 1 12 5 0;
#X connect 1 13 6 0;
#X connect 1 14 7 0;
#X connect 1 15 8 0;
#X connect 2 0 9 0;
#X connect 3 0 2 0;
#X connect 4 0 18 0;
#X connect 5 0 19 0;
#X connect 6 0 20 0;
#X connect 7 0 21 0;
#X connect 8 0 22 0;
#X connect 9 0 10 0;
#X connect 10 0 11 0;
#X connect 12 0 13 0;
#X connect 13 0 14 0;
#X connect 14 0 16 0;
#X connect 15 0 1 0;
#X connect 16 0 15 0;
#X connect 16 1 15 1;
#X connect 16 2 2 1;
#X connect 17 0 11 0;
#X connect 18 0 11 0;
#X connect 19 0 11 0;
#X connect 20 0 11 0;
#X connect 21 0 11 0;
#X connect 22 0 11 0;
#X connect 23 0 17 0;
#X restore 632 186 pd \$0-routedHex;
#X obj 631 160 / 65536;
#X obj 976 235 s \$0-two;
#X obj 1093 229 s \$0-one;
#X obj 860 236 s \$0-three;
#X obj 747 239 s \$0-four;
#X obj 632 233 s \$0-five;
#N canvas 550 130 646 300 \$0-routedHex 0;
#X obj 46 14 inlet;
#X obj 185 117 route 0 1 2 3 4 5 6 7 8 9 10 11 12 13 14 15, f 48;
#X obj 53 233 f;
#X obj 113 200 t b;
#X obj 243 202 t b;
#X obj 302 203 t b;
#X obj 390 203 t b;
#X obj 476 205 t b;
#X obj 557 203 t b;
#X floatatom 52 265 5 0 0 0 - - - 0;
#X obj 52 293 l2s;
#X obj 51 322 outlet;
#X obj 42 44 % 16;
#X obj 42 70 route float;
#X floatatom 42 94 5 0 0 0 - - - 0;
#X obj 42 139 f;
#X obj 42 116 t b f f;
#X msg 162 227 symbol A;
#X msg 230 227 symbol B;
#X msg 303 228 symbol C;
#X msg 391 228 symbol D;
#X msg 478 230 symbol E;
#X msg 558 228 symbol F;
#X obj 193 201 t b;
#X connect 0 0 12 0;
#X connect 1 0 3 0;
#X connect 1 1 3 0;
#X connect 1 2 3 0;
#X connect 1 3 3 0;
#X connect 1 4 3 0;
#X connect 1 5 3 0;
#X connect 1 6 3 0;
#X connect 1 7 3 0;
#X connect 1 8 3 0;
#X connect 1 9 3 0;
#X connect 1 10 23 0;
#X connect 1 11 4 0;
#X connect 1 12 5 0;
#X connect 1 13 6 0;
#X connect 1 14 7 0;
#X connect 1 15 8 0;
#X connect 2 0 9 0;
#X connect 3 0 2 0;
#X connect 4 0 18 0;
#X connect 5 0 19 0;
#X connect 6 0 20 0;
#X connect 7 0 21 0;
#X connect 8 0 22 0;
#X connect 9 0 10 0;
#X connect 10 0 11 0;
#X connect 12 0 13 0;
#X connect 13 0 14 0;
#X connect 14 0 16 0;
#X connect 15 0 1 0;
#X connect 16 0 15 0;
#X connect 16 1 15 1;
#X connect 16 2 2 1;
#X connect 17 0 11 0;
#X connect 18 0 11 0;
#X connect 19 0 11 0;
#X connect 20 0 11 0;
#X connect 21 0 11 0;
#X connect 22 0 11 0;
#X connect 23 0 17 0;
#X restore 170 186 pd \$0-routedHex;
#N canvas 550 130 646 300 \$0-routedHex 0;
#X obj 46 14 inlet;
#X obj 185 117 route 0 1 2 3 4 5 6 7 8 9 10 11 12 13 14 15, f 48;
#X obj 53 233 f;
#X obj 113 200 t b;
#X obj 243 202 t b;
#X obj 302 203 t b;
#X obj 390 203 t b;
#X obj 476 205 t b;
#X obj 557 203 t b;
#X floatatom 52 265 5 0 0 0 - - - 0;
#X obj 52 293 l2s;
#X obj 51 322 outlet;
#X obj 42 44 % 16;
#X obj 42 70 route float;
#X floatatom 42 94 5 0 0 0 - - - 0;
#X obj 42 139 f;
#X obj 42 116 t b f f;
#X msg 162 227 symbol A;
#X msg 230 227 symbol B;
#X msg 303 228 symbol C;
#X msg 391 228 symbol D;
#X msg 478 230 symbol E;
#X msg 558 228 symbol F;
#X obj 193 201 t b;
#X connect 0 0 12 0;
#X connect 1 0 3 0;
#X connect 1 1 3 0;
#X connect 1 2 3 0;
#X connect 1 3 3 0;
#X connect 1 4 3 0;
#X connect 1 5 3 0;
#X connect 1 6 3 0;
#X connect 1 7 3 0;
#X connect 1 8 3 0;
#X connect 1 9 3 0;
#X connect 1 10 23 0;
#X connect 1 11 4 0;
#X connect 1 12 5 0;
#X connect 1 13 6 0;
#X connect 1 14 7 0;
#X connect 1 15 8 0;
#X connect 2 0 9 0;
#X connect 3 0 2 0;
#X connect 4 0 18 0;
#X connect 5 0 19 0;
#X connect 6 0 20 0;
#X connect 7 0 21 0;
#X connect 8 0 22 0;
#X connect 9 0 10 0;
#X connect 10 0 11 0;
#X connect 12 0 13 0;
#X connect 13 0 14 0;
#X connect 14 0 16 0;
#X connect 15 0 1 0;
#X connect 16 0 15 0;
#X connect 16 1 15 1;
#X connect 16 2 2 1;
#X connect 17 0 11 0;
#X connect 18 0 11 0;
#X connect 19 0 11 0;
#X connect 20 0 11 0;
#X connect 21 0 11 0;
#X connect 22 0 11 0;
#X connect 23 0 17 0;
#X restore 286 187 pd \$0-routedHex;
#N canvas 550 130 646 300 \$0-routedHex 0;
#X obj 46 14 inlet;
#X obj 185 117 route 0 1 2 3 4 5 6 7 8 9 10 11 12 13 14 15, f 48;
#X obj 53 233 f;
#X obj 113 200 t b;
#X obj 243 202 t b;
#X obj 302 203 t b;
#X obj 390 203 t b;
#X obj 476 205 t b;
#X obj 557 203 t b;
#X floatatom 52 265 5 0 0 0 - - - 0;
#X obj 52 293 l2s;
#X obj 51 322 outlet;
#X obj 42 44 % 16;
#X obj 42 70 route float;
#X floatatom 42 94 5 0 0 0 - - - 0;
#X obj 42 139 f;
#X obj 42 116 t b f f;
#X msg 162 227 symbol A;
#X msg 230 227 symbol B;
#X msg 303 228 symbol C;
#X msg 391 228 symbol D;
#X msg 478 230 symbol E;
#X msg 558 228 symbol F;
#X obj 193 201 t b;
#X connect 0 0 12 0;
#X connect 1 0 3 0;
#X connect 1 1 3 0;
#X connect 1 2 3 0;
#X connect 1 3 3 0;
#X connect 1 4 3 0;
#X connect 1 5 3 0;
#X connect 1 6 3 0;
#X connect 1 7 3 0;
#X connect 1 8 3 0;
#X connect 1 9 3 0;
#X connect 1 10 23 0;
#X connect 1 11 4 0;
#X connect 1 12 5 0;
#X connect 1 13 6 0;
#X connect 1 14 7 0;
#X connect 1 15 8 0;
#X connect 2 0 9 0;
#X connect 3 0 2 0;
#X connect 4 0 18 0;
#X connect 5 0 19 0;
#X connect 6 0 20 0;
#X connect 7 0 21 0;
#X connect 8 0 22 0;
#X connect 9 0 10 0;
#X connect 10 0 11 0;
#X connect 12 0 13 0;
#X connect 13 0 14 0;
#X connect 14 0 16 0;
#X connect 15 0 1 0;
#X connect 16 0 15 0;
#X connect 16 1 15 1;
#X connect 16 2 2 1;
#X connect 17 0 11 0;
#X connect 18 0 11 0;
#X connect 19 0 11 0;
#X connect 20 0 11 0;
#X connect 21 0 11 0;
#X connect 22 0 11 0;
#X connect 23 0 17 0;
#X restore 402 190 pd \$0-routedHex;
#N canvas 550 130 646 300 \$0-routedHex 0;
#X obj 46 14 inlet;
#X obj 185 117 route 0 1 2 3 4 5 6 7 8 9 10 11 12 13 14 15, f 48;
#X obj 53 233 f;
#X obj 113 200 t b;
#X obj 243 202 t b;
#X obj 302 203 t b;
#X obj 390 203 t b;
#X obj 476 205 t b;
#X obj 557 203 t b;
#X floatatom 52 265 5 0 0 0 - - - 0;
#X obj 52 293 l2s;
#X obj 51 322 outlet;
#X obj 42 44 % 16;
#X obj 42 70 route float;
#X floatatom 42 94 5 0 0 0 - - - 0;
#X obj 42 139 f;
#X obj 42 116 t b f f;
#X msg 162 227 symbol A;
#X msg 230 227 symbol B;
#X msg 303 228 symbol C;
#X msg 391 228 symbol D;
#X msg 478 230 symbol E;
#X msg 558 228 symbol F;
#X obj 193 201 t b;
#X connect 0 0 12 0;
#X connect 1 0 3 0;
#X connect 1 1 3 0;
#X connect 1 2 3 0;
#X connect 1 3 3 0;
#X connect 1 4 3 0;
#X connect 1 5 3 0;
#X connect 1 6 3 0;
#X connect 1 7 3 0;
#X connect 1 8 3 0;
#X connect 1 9 3 0;
#X connect 1 10 23 0;
#X connect 1 11 4 0;
#X connect 1 12 5 0;
#X connect 1 13 6 0;
#X connect 1 14 7 0;
#X connect 1 15 8 0;
#X connect 2 0 9 0;
#X connect 3 0 2 0;
#X connect 4 0 18 0;
#X connect 5 0 19 0;
#X connect 6 0 20 0;
#X connect 7 0 21 0;
#X connect 8 0 22 0;
#X connect 9 0 10 0;
#X connect 10 0 11 0;
#X connect 12 0 13 0;
#X connect 13 0 14 0;
#X connect 14 0 16 0;
#X connect 15 0 1 0;
#X connect 16 0 15 0;
#X connect 16 1 15 1;
#X connect 16 2 2 1;
#X connect 17 0 11 0;
#X connect 18 0 11 0;
#X connect 19 0 11 0;
#X connect 20 0 11 0;
#X connect 21 0 11 0;
#X connect 22 0 11 0;
#X connect 23 0 17 0;
#X restore 518 186 pd \$0-routedHex;
#X listbox 170 210 5 0 0 0 - - - 0;
#X listbox 286 213 5 0 0 0 - - - 0;
#X listbox 402 217 5 0 0 0 - - - 0;
#X listbox 518 210 6 0 0 0 - - - 0;
#X listbox 56 211 5 0 0 0 - - - 0;
#N canvas 550 130 646 300 \$0-routedHex 0;
#X obj 46 14 inlet;
#X obj 185 117 route 0 1 2 3 4 5 6 7 8 9 10 11 12 13 14 15, f 48;
#X obj 53 233 f;
#X obj 113 200 t b;
#X obj 243 202 t b;
#X obj 302 203 t b;
#X obj 390 203 t b;
#X obj 476 205 t b;
#X obj 557 203 t b;
#X floatatom 52 265 5 0 0 0 - - - 0;
#X obj 52 293 l2s;
#X obj 51 322 outlet;
#X obj 42 44 % 16;
#X obj 42 70 route float;
#X floatatom 42 94 5 0 0 0 - - - 0;
#X obj 42 139 f;
#X obj 42 116 t b f f;
#X msg 162 227 symbol A;
#X msg 230 227 symbol B;
#X msg 303 228 symbol C;
#X msg 391 228 symbol D;
#X msg 478 230 symbol E;
#X msg 558 228 symbol F;
#X obj 193 201 t b;
#X connect 0 0 12 0;
#X connect 1 0 3 0;
#X connect 1 1 3 0;
#X connect 1 2 3 0;
#X connect 1 3 3 0;
#X connect 1 4 3 0;
#X connect 1 5 3 0;
#X connect 1 6 3 0;
#X connect 1 7 3 0;
#X connect 1 8 3 0;
#X connect 1 9 3 0;
#X connect 1 10 23 0;
#X connect 1 11 4 0;
#X connect 1 12 5 0;
#X connect 1 13 6 0;
#X connect 1 14 7 0;
#X connect 1 15 8 0;
#X connect 2 0 9 0;
#X connect 3 0 2 0;
#X connect 4 0 18 0;
#X connect 5 0 19 0;
#X connect 6 0 20 0;
#X connect 7 0 21 0;
#X connect 8 0 22 0;
#X connect 9 0 10 0;
#X connect 10 0 11 0;
#X connect 12 0 13 0;
#X connect 13 0 14 0;
#X connect 14 0 16 0;
#X connect 15 0 1 0;
#X connect 16 0 15 0;
#X connect 16 1 15 1;
#X connect 16 2 2 1;
#X connect 17 0 11 0;
#X connect 18 0 11 0;
#X connect 19 0 11 0;
#X connect 20 0 11 0;
#X connect 21 0 11 0;
#X connect 22 0 11 0;
#X connect 23 0 17 0;
#X restore 56 187 pd \$0-routedHex;
#X obj 518 234 s \$0-six;
#X obj 401 239 s \$0-seven;
#X obj 286 238 s \$0-eight;
#X obj 170 233 s \$0-nine;
#X obj 56 234 s \$0-ten;
#X obj 518 161 / 1.04858e+06;
#X obj 402 165 / 1.67772e+07;
#X obj 286 163 / 2.68435e+08;
#X obj 170 162 / 4.29497e+09;
#X obj 56 161 / 6.87195e+10;
#X obj 290 18 r \$0-rawvalue;
#X obj 290 43 t b f;
#X obj 290 67 s \$0-banghexlimit;
#X connect 0 0 1 0;
#X connect 0 0 2 0;
#X connect 0 0 3 0;
#X connect 0 0 4 0;
#X connect 0 0 15 0;
#X connect 0 0 36 0;
#X connect 0 0 37 0;
#X connect 0 0 38 0;
#X connect 0 0 39 0;
#X connect 0 0 40 0;
#X connect 1 0 5 0;
#X connect 2 0 6 0;
#X connect 3 0 7 0;
#X connect 4 0 8 0;
#X connect 5 0 9 0;
#X connect 6 0 10 0;
#X connect 7 0 11 0;
#X connect 8 0 12 0;
#X connect 9 0 19 0;
#X connect 10 0 18 0;
#X connect 11 0 16 0;
#X connect 12 0 17 0;
#X connect 13 0 20 0;
#X connect 14 0 13 0;
#X connect 15 0 14 0;
#X connect 21 0 25 0;
#X connect 22 0 26 0;
#X connect 23 0 27 0;
#X connect 24 0 28 0;
#X connect 25 0 34 0;
#X connect 26 0 33 0;
#X connect 27 0 32 0;
#X connect 28 0 31 0;
#X connect 29 0 35 0;
#X connect 30 0 29 0;
#X connect 36 0 24 0;
#X connect 37 0 23 0;
#X connect 38 0 22 0;
#X connect 39 0 21 0;
#X connect 40 0 30 0;
#X connect 41 0 42 0;
#X connect 42 0 43 0;
#X connect 42 1 0 0;
#X restore 698 94 pd \$0-calculatedigits;
#X msg 447 77 set_digitlimit 3;
#X obj 257 131 route float setmin setmax set_digitlimit;
#X obj 320 12 declare -lib clearessentials;
#X connect 0 0 30 0;
#X connect 1 0 2 0;
#X connect 3 0 0 0;
#X connect 5 0 3 0;
#X connect 6 0 5 1;
#X connect 7 0 4 0;
#X connect 8 0 5 0;
#X connect 9 0 12 0;
#X connect 10 0 14 0;
#X connect 11 0 10 1;
#X connect 12 0 10 0;
#X connect 12 1 11 0;
#X connect 13 0 15 1;
#X connect 14 0 31 0;
#X connect 14 1 36 0;
#X connect 15 0 9 0;
#X connect 16 0 35 0;
#X connect 17 0 27 0;
#X connect 18 0 32 0;
#X connect 18 1 32 1;
#X connect 19 0 7 0;
#X connect 20 0 1 0;
#X connect 21 0 20 0;
#X connect 21 1 20 1;
#X connect 22 0 19 0;
#X connect 22 1 19 1;
#X connect 23 0 29 0;
#X connect 24 0 25 1;
#X connect 25 0 39 0;
#X connect 26 0 25 0;
#X connect 26 0 36 0;
#X connect 27 0 68 0;
#X connect 28 0 37 0;
#X connect 29 0 16 0;
#X connect 30 0 23 0;
#X connect 31 0 26 0;
#X connect 32 0 0 0;
#X connect 34 0 15 0;
#X connect 35 0 33 0;
#X connect 38 0 18 0;
#X connect 40 0 43 0;
#X connect 41 0 44 0;
#X connect 42 0 46 0;
#X connect 42 0 67 0;
#X connect 43 1 41 0;
#X connect 45 0 40 0;
#X connect 46 0 40 0;
#X connect 46 1 22 0;
#X connect 46 2 21 0;
#X connect 47 0 64 0;
#X connect 48 0 47 0;
#X connect 48 1 47 1;
#X connect 49 0 50 0;
#X connect 50 0 51 0;
#X connect 51 0 52 0;
#X connect 51 1 52 0;
#X connect 51 2 53 0;
#X connect 51 3 54 0;
#X connect 51 4 55 0;
#X connect 51 5 56 0;
#X connect 51 6 57 0;
#X connect 51 7 58 0;
#X connect 51 8 59 0;
#X connect 51 9 60 0;
#X connect 51 10 52 0;
#X connect 52 0 62 0;
#X connect 53 0 62 0;
#X connect 54 0 62 0;
#X connect 55 0 62 0;
#X connect 56 0 62 0;
#X connect 57 0 62 0;
#X connect 58 0 62 0;
#X connect 59 0 62 0;
#X connect 60 0 62 0;
#X connect 61 0 47 0;
#X connect 63 0 61 0;
#X connect 65 0 49 0;
#X connect 67 0 68 0;
#X connect 68 0 28 0;
#X connect 68 1 22 0;
#X connect 68 2 21 0;
#X connect 68 3 48 0;
