#N canvas 733 150 789 388 12;
#X text 28 46 Written By: Reg Finley;
#X text 26 67 Aka Scr1ptAl1as;
#X text 28 106 Pd 0.52.2;
#X obj 28 152 reportissue;
#X obj 28 132 aboutexternal;
#X text 94 239 0;
#X text 15 239 Inlet(s);
#X text 10 320 Outlet(s);
#N canvas 723 396 450 341 \$0-example 0;
#X obj 175 187 ce_hextobinary;
#X obj 175 139 ce_floattohex;
#X floatatom 158 94 5 0 0 0 - - - 0;
#X msg 174 118 set_digitlimit 4;
#X text 19 28 Using [ce_floattohex] to generate a hex value from a
atom. We can then use that hex value to calculate binary bits.;
#X obj 175 213 print example_bits;
#X listbox 175 163 20 0 0 0 - - - 0;
#X connect 0 0 5 0;
#X connect 1 0 6 0;
#X connect 2 0 1 0;
#X connect 3 0 1 0;
#X connect 6 0 0 0;
#X restore 27 184 pd \$0-example;
#X obj 379 237 ce_hextobinary;
#X obj 379 263 print binary;
#X msg 378 210 C43;
#X msg 363 187 symbol 1A21;
#X text 203 12 [ce_hextobinary] is a small tool to convert a hex to
a binary bits.;
#X text 26 27 ce_hextobinary v1.0;
#X text 26 85 2022/07/23 10:39 PM;
#X text 129 239 Hex;
#X text 93 318 0 - Binary Bits;
#X msg 356 165 ED5A;
#X msg 346 142 1C4;
#X connect 9 0 10 0;
#X connect 11 0 9 0;
#X connect 12 0 9 0;
#X connect 18 0 9 0;
#X connect 19 0 9 0;
