#N canvas 1124 117 790 388 12;
#X declare -path clearessentials;
#X text 28 46 Written By: Reg Finley;
#X text 26 67 Aka Scr1ptAl1as;
#X text 28 106 Pd 0.52.2;
#X obj 28 152 reportissue;
#X obj 28 132 aboutexternal;
#X text 94 239 0;
#X text 15 239 Inlet(s);
#X text 10 320 Outlet(s);
#X text 129 239 float;
#X text 93 319 0 - Hex Value;
#X text 26 85 2022/07/12 4:05 PM;
#X obj 254 240 ce_hextofloat;
#X floatatom 254 266 13 0 0 0 - - - 0;
#X obj 254 290 print out-float;
#N canvas 723 396 450 341 \$0-example 0;
#X obj 171 124 ce_hextofloat;
#X obj 171 68 ce_floattohex;
#X floatatom 171 44 4 0 0 0 - - - 0;
#X floatatom 171 150 5 0 0 0 - - - 0;
#X obj 171 174 print out-float;
#X obj 158 198 print in-float;
#X text 31 238 If hex is converted correctly these print messages should
match values;
#X listbox 171 99 13 0 0 0 Hex - - 0;
#X connect 0 0 3 0;
#X connect 1 0 7 0;
#X connect 2 0 1 0;
#X connect 2 0 5 0;
#X connect 3 0 4 0;
#X connect 7 0 0 0;
#X restore 31 209 pd \$0-example;
#X msg 271 88 symbol C8;
#X msg 270 112 symbol FF1;
#X msg 272 61 64;
#X text 306 51 Hex values that start with a float do not need the [symbol<
flag in front of the value.;
#X msg 270 136 1C3;
#X msg 268 181 E1A23;
#X msg 379 103 1EA2AC;
#X msg 379 127 1EA12AC;
#X msg 380 149 2EF23141;
#X msg 380 173 symbol FAC312ACE;
#X text 514 199 caclulate a ten digit hex value;
#X msg 379 199 symbol EFFEFFFFFF;
#X text 26 27 ce_hextofloat v1.0;
#X text 234 6 [ce_hextofloat] is a small tool to convert a hex to a
float.;
#X msg 270 158 2EA2;
#X obj 14 6 declare -path clearessentials;
#X obj 26 173 watchtutorial;
#X connect 11 0 12 0;
#X connect 12 0 13 0;
#X connect 15 0 11 0;
#X connect 16 0 11 0;
#X connect 17 0 11 0;
#X connect 19 0 11 0;
#X connect 20 0 11 0;
#X connect 21 0 11 0;
#X connect 22 0 11 0;
#X connect 23 0 11 0;
#X connect 24 0 11 0;
#X connect 26 0 11 0;
#X connect 29 0 11 0;
