#N canvas 713 168 1920 997 12;
#X declare -path ./;
#X declare -lib clearessentials;
#X obj 87 782 outlet;
#N canvas 691 170 799 709 \$0-HumanizedMetronome 0;
#X floatatom 101 292 5 0 0 0 - - - 0;
#X floatatom 457 230 5 0 0 0 - - - 0;
#X floatatom 457 272 5 0 0 0 - - - 0;
#X obj 457 321 / 2;
#X floatatom 457 349 5 0 0 0 - - - 0;
#X obj 102 311 t f f;
#X obj 46 267 t f f f f b;
#X obj 457 251 expr 1000/($f1/32);
#X obj 457 376 s \$0-metronomeTime;
#X obj 102 334 s \$0-contStepAt;
#X obj 44 517 t b f;
#N canvas -3 39 1033 931 \$0-metroticker 0;
#X obj 52 395 outlet;
#X obj 108 395 outlet;
#X obj 110 168 f;
#X obj 104 216 + 1;
#X msg 138 82 0;
#X obj 86 83 metro;
#X obj 109 296 count;
#X floatatom 109 323 5 0 0 0 - - - 0;
#X msg 109 269 bang;
#X obj 250 237 r \$0-resettick;
#X msg 249 262 reset;
#X msg 252 287 0;
#X floatatom 110 193 5 0 0 0 - - - 0;
#X obj 118 49 r \$0-metronomeTime;
#X obj 174 84 r \$0-contStepValue;
#X obj 83 25 r \$0-contStepNow;
#X obj 85 50 t b;
#X obj 126 345 r \$0-onmetrooff;
#X msg 127 369 1;
#X obj 219 210 r \$0-onmetrooff;
#X obj 219 234 t b;
#X obj 35 24 inlet;
#X obj 214 21 inlet;
#X floatatom 182 145 5 0 0 0 - - - 0;
#X obj 182 118 r \$0-bymetrosteps;
#X msg 43 248 set 0;
#X obj 144 168 mod 32;
#X obj 595 153 else/display;
#X obj 595 128 else/tap -ms;
#X obj 499 108 bng 15 250 50 0 empty empty empty 17 7 0 10 #fcfcfc
#000000 #000000;
#X floatatom 265 43 5 0 0 0 - - - 0;
#X obj 630 189 r \$0-metronomeTime;
#X obj 165 406 f;
#X obj 584 689 tgl 15 0 empty empty empty 17 7 0 10 #fcfcfc #000000
#000000 0 1;
#X obj 534 714 spigot 0;
#X obj 554 618 change;
#X obj 554 595 == 0;
#X obj 553 641 == 1;
#X obj 552 665 t b f;
#X floatatom 534 742 5 0 0 0 - - - 0;
#X obj 500 892 outlet;
#X obj 524 45 inlet;
#X obj 165 384 t b f;
#X obj 612 283 f;
#X obj 612 259 t b f;
#X floatatom 610 237 5 0 0 0 - - - 0;
#X obj 609 214 r \$0-qres-send;
#X floatatom 612 334 5 0 0 0 - - - 0;
#X obj 796 190 r \$0-metronomeTime;
#X obj 799 216 / 2;
#X floatatom 797 241 5 0 0 0 - - - 0;
#X obj 516 766 f;
#X floatatom 516 790 5 0 0 0 - - - 0;
#X obj 612 307 / 2;
#X obj 518 840 s \$0-qresult;
#X obj 517 816 pack f f;
#X obj 525 74 t b b a;
#X obj 106 240 t f f b f b b b;
#X floatatom 444 581 5 0 0 0 - - - 0;
#X obj 596 366 -;
#X obj 431 683 del;
#X obj 428 658 t b f;
#X obj 428 633 f;
#X obj 579 394 f;
#X obj 531 364 t b f b;
#X floatatom 577 417 5 0 0 0 - - - 0;
#X obj 579 441 > 1;
#X obj 575 467 sel 0 1;
#X msg 500 867 \$1;
#X msg 500 546 0;
#X msg 536 544 1;
#X obj 551 575 tgl 15 0 empty empty empty 17 7 0 10 #fcfcfc #000000
#000000 0 1;
#X obj 623 492 t b b;
#X obj 523 495 t b b;
#X obj 445 605 * 1;
#X floatatom 146 132 5 0 0 0 - - - 0;
#X floatatom 607 817 5 0 0 0 - - - 0;
#X connect 2 0 12 0;
#X connect 3 0 57 0;
#X connect 4 0 2 1;
#X connect 4 0 25 0;
#X connect 5 0 2 0;
#X connect 6 0 7 0;
#X connect 7 0 1 0;
#X connect 8 0 6 0;
#X connect 9 0 10 0;
#X connect 10 0 6 0;
#X connect 10 0 11 0;
#X connect 11 0 1 0;
#X connect 12 0 3 0;
#X connect 13 0 5 1;
#X connect 13 0 30 0;
#X connect 14 0 2 1;
#X connect 14 0 75 0;
#X connect 15 0 16 0;
#X connect 16 0 5 0;
#X connect 17 0 18 0;
#X connect 18 0 1 0;
#X connect 19 0 20 0;
#X connect 20 0 10 0;
#X connect 21 0 5 0;
#X connect 22 0 4 0;
#X connect 23 0 26 1;
#X connect 24 0 23 0;
#X connect 25 0 6 0;
#X connect 26 0 2 1;
#X connect 27 0 59 0;
#X connect 28 0 27 0;
#X connect 29 0 28 0;
#X connect 29 0 69 0;
#X connect 31 0 43 1;
#X connect 32 0 34 0;
#X connect 33 0 34 1;
#X connect 34 0 39 0;
#X connect 35 0 37 0;
#X connect 36 0 35 0;
#X connect 37 0 38 0;
#X connect 38 1 33 0;
#X connect 39 0 51 1;
#X connect 41 0 56 0;
#X connect 42 0 32 0;
#X connect 42 1 32 1;
#X connect 43 0 53 0;
#X connect 44 0 43 0;
#X connect 44 1 53 1;
#X connect 45 0 44 0;
#X connect 46 0 45 0;
#X connect 47 0 59 1;
#X connect 48 0 49 0;
#X connect 49 0 50 0;
#X connect 51 0 52 0;
#X connect 52 0 55 0;
#X connect 53 0 47 0;
#X connect 55 0 54 0;
#X connect 55 0 68 0;
#X connect 56 0 64 0;
#X connect 56 1 29 0;
#X connect 56 2 55 1;
#X connect 57 0 0 0;
#X connect 57 1 26 0;
#X connect 57 2 8 0;
#X connect 57 3 42 0;
#X connect 57 4 29 0;
#X connect 58 0 74 0;
#X connect 59 0 58 0;
#X connect 59 0 63 1;
#X connect 60 0 51 0;
#X connect 61 0 60 0;
#X connect 61 1 60 1;
#X connect 62 0 61 0;
#X connect 63 0 65 0;
#X connect 64 2 63 0;
#X connect 65 0 66 0;
#X connect 66 0 67 0;
#X connect 67 0 73 0;
#X connect 67 1 72 0;
#X connect 68 0 40 0;
#X connect 69 0 71 0;
#X connect 70 0 71 0;
#X connect 71 0 36 0;
#X connect 72 0 70 0;
#X connect 72 1 51 0;
#X connect 73 0 62 0;
#X connect 73 1 70 0;
#X connect 74 0 62 1;
#X restore 46 80 pd \$0-metroticker;
#N canvas 237 187 534 422 \$0-calcsequencemsec 0;
#X obj 46 31 inlet;
#N canvas 0 52 460 300 FindLoopMilliSeconds 0;
#X obj 41 57 inlet;
#X obj 107 32 inlet;
#X obj 71 133 sel 1 0;
#X obj 70 114 tgl 15 0 empty empty empty 17 7 0 10 #fcfcfc #000000
#000000 0 1;
#X obj 70 154 timer;
#X floatatom 71 174 10 0 0 0 - - - 0;
#X obj 52 200 f;
#X obj 41 81 t b b;
#X floatatom 56 220 10 0 0 0 - - - 0;
#X msg 105 83 0;
#X obj 105 58 t b;
#X obj 166 283 outlet;
#X obj 160 84 r \$0-onmetrooff;
#X obj 160 110 t b b;
#X connect 0 0 7 0;
#X connect 1 0 10 0;
#X connect 2 0 4 0;
#X connect 2 1 4 1;
#X connect 3 0 2 0;
#X connect 4 0 5 0;
#X connect 5 0 6 1;
#X connect 6 0 8 0;
#X connect 7 0 6 0;
#X connect 7 1 3 0;
#X connect 8 0 11 0;
#X connect 9 0 3 0;
#X connect 10 0 9 0;
#X connect 12 0 13 0;
#X connect 13 1 9 0;
#X restore 107 129 pd FindLoopMilliSeconds;
#X obj 49 94 bng 15 250 50 0 empty empty empty 17 7 0 10 #fcfcfc #000000
#000000;
#X obj 68 96 bng 15 250 50 0 empty empty empty 17 7 0 10 #fcfcfc #000000
#000000;
#X obj 88 96 bng 15 250 50 0 empty empty empty 17 7 0 10 #fcfcfc #000000
#000000;
#X obj 108 96 bng 15 250 50 0 empty empty empty 17 7 0 10 #fcfcfc #000000
#000000;
#X obj 128 96 bng 15 250 50 0 empty empty empty 17 7 0 10 #fcfcfc #000000
#000000;
#X obj 147 97 bng 15 250 50 0 empty empty empty 17 7 0 10 #fcfcfc #000000
#000000;
#X obj 168 97 bng 15 250 50 0 empty empty empty 17 7 0 10 #fcfcfc #000000
#000000;
#X obj 188 97 bng 15 250 50 0 empty empty empty 17 7 0 10 #fcfcfc #000000
#000000;
#X obj 208 97 bng 15 250 50 0 empty empty empty 17 7 0 10 #fcfcfc #000000
#000000;
#X obj 234 98 bng 15 250 50 0 empty empty empty 17 7 0 10 #fcfcfc #000000
#000000;
#X obj 254 99 bng 15 250 50 0 empty empty empty 17 7 0 10 #fcfcfc #000000
#000000;
#X obj 274 99 bng 15 250 50 0 empty empty empty 17 7 0 10 #fcfcfc #000000
#000000;
#X obj 294 99 bng 15 250 50 0 empty empty empty 17 7 0 10 #fcfcfc #000000
#000000;
#X obj 315 99 bng 15 250 50 0 empty empty empty 17 7 0 10 #fcfcfc #000000
#000000;
#X obj 342 99 bng 15 250 50 0 empty empty empty 17 7 0 10 #fcfcfc #000000
#000000;
#X obj 365 100 bng 15 250 50 0 empty empty empty 17 7 0 10 #fcfcfc
#000000 #000000;
#X obj 49 67 sel 0 1 2 3 4 5 6 7 8 9 10 11 12 13 14 15, f 48;
#X obj 48 176 outlet;
#X connect 0 0 18 0;
#X connect 2 0 19 0;
#X connect 18 0 2 0;
#X connect 18 1 3 0;
#X connect 18 2 4 0;
#X connect 18 3 5 0;
#X connect 18 4 6 0;
#X connect 18 5 7 0;
#X connect 18 6 8 0;
#X connect 18 7 9 0;
#X connect 18 8 10 0;
#X connect 18 9 11 0;
#X connect 18 10 12 0;
#X connect 18 11 13 0;
#X connect 18 12 14 0;
#X connect 18 13 15 0;
#X connect 18 14 16 0;
#X connect 18 15 17 0;
#X restore 83 361 pd \$0-calcsequencemsec;
#N canvas 208 208 450 300 \$0-calcsequencebar 0;
#X obj 148 201 count;
#X floatatom 149 228 5 0 0 0 - - - 0;
#X msg 148 174 bang;
#X obj 217 132 r \$0-resetbar;
#X msg 206 158 reset;
#X msg 207 194 0;
#X obj 92 128 r \$0-onmetrooff;
#X obj 206 84 r \$0-onmetrooff;
#X obj 206 108 t b;
#X obj 147 279 outlet;
#X obj 145 59 inlet;
#X msg 91 152 0;
#X connect 0 0 1 0;
#X connect 1 0 9 0;
#X connect 2 0 0 0;
#X connect 3 0 4 0;
#X connect 4 0 0 0;
#X connect 4 0 5 0;
#X connect 5 0 9 0;
#X connect 6 0 11 0;
#X connect 7 0 8 0;
#X connect 8 0 4 0;
#X connect 10 0 2 0;
#X connect 11 0 9 0;
#X restore 83 388 pd \$0-calcsequencebar;
#N canvas 634 189 605 300 \$0-metroinit 0;
#X text 43 5 Start;
#X text 172 5 Stop;
#X obj 170 99 tgl 15 0 empty empty empty 17 7 0 10 #fcfcfc #000000
#000000 0 1;
#X msg 39 56 1;
#X msg 173 69 0;
#X obj 230 96 s \$0-onmetrooff;
#X obj 173 45 t b b;
#X obj 169 126 outlet;
#X msg 359 75 0;
#X text 358 8 ContinueAtStep;
#X obj 426 165 t b f;
#X msg 458 193 \$1;
#X obj 427 142 - 1;
#X obj 359 97 pack f f;
#X obj 359 119 unpack f f;
#X obj 458 220 s \$0-contStepValue;
#X obj 426 244 s \$0-contStepNow;
#X obj 416 71 r \$0-contStepAt;
#X obj 359 49 t b;
#X obj 39 24 r \$0-hmetronomeOn;
#X obj 173 22 r \$0-hmetronomeOff;
#X obj 360 25 r \$0-continue-step;
#X obj 231 152 s \$0-contStepValue;
#X obj 20 104 s \$0-contStepValue;
#X msg 14 78 0;
#X obj 240 63 bng 15 250 50 0 empty empty empty 17 7 0 10 #fcfcfc #000000
#000000;
#X connect 2 0 7 0;
#X connect 3 0 2 0;
#X connect 4 0 2 0;
#X connect 6 0 4 0;
#X connect 6 1 5 0;
#X connect 6 1 25 0;
#X connect 8 0 13 0;
#X connect 10 0 16 0;
#X connect 10 1 11 0;
#X connect 11 0 15 0;
#X connect 12 0 10 0;
#X connect 13 0 14 0;
#X connect 14 1 12 0;
#X connect 17 0 13 1;
#X connect 18 0 8 0;
#X connect 19 0 24 0;
#X connect 19 0 3 0;
#X connect 20 0 6 0;
#X connect 21 0 18 0;
#X connect 24 0 23 0;
#X restore 46 13 pd \$0-metroinit;
#X floatatom 75 181 5 0 1 0 - - - 0;
#X obj 75 204 t f;
#X floatatom 189 181 5 0 1 0 - - - 0;
#X obj 189 204 t f;
#X floatatom 459 180 5 0 0 0 - - - 0;
#X obj 459 204 t f;
#X floatatom 325 180 5 0 1 0 - - - 0;
#X obj 325 204 t f;
#N canvas 434 110 1126 830 \$0-bytickdivision 0;
#X obj 69 30 inlet;
#X obj 76 276 outlet;
#N canvas 472 268 707 541 byNote 0;
#X obj 51 85 inlet;
#X obj 408 25 loadbang;
#X obj 407 49 f \$1;
#X obj 63 484 outlet;
#X obj 60 198 select 0;
#X obj 166 213 select 0;
#X obj 237 226 select 0;
#X obj 304 230 select 0;
#X obj 60 175 mod 16;
#X obj 158 186 mod 8;
#X obj 238 193 mod 4;
#X obj 304 205 mod 2;
#X text 81 437 whole;
#X text 144 440 1/2 note;
#X text 213 441 1/4 note;
#X text 286 444 1/8 note;
#X text 364 447 1/16 note;
#X obj 614 66 inlet;
#X obj 187 352 t b;
#X obj 142 416 spigot 0;
#X obj 117 351 t b;
#X obj 72 418 spigot 0;
#X obj 115 395 tgl 15 0 empty empty empty 17 7 0 10 #fcfcfc #000000
#000000 0 1;
#X msg 117 374 1;
#X obj 186 397 tgl 15 0 empty empty empty 17 7 0 10 #fcfcfc #000000
#000000 0 1;
#X msg 188 376 1;
#X obj 258 355 t b;
#X obj 213 419 spigot 0;
#X obj 257 400 tgl 15 0 empty empty empty 17 7 0 10 #fcfcfc #000000
#000000 0 1;
#X msg 259 379 1;
#X obj 331 358 t b;
#X obj 286 422 spigot 0;
#X obj 330 403 tgl 15 0 empty empty empty 17 7 0 10 #fcfcfc #000000
#000000 0 1;
#X msg 332 382 1;
#X obj 414 362 t b;
#X obj 369 426 spigot 0;
#X obj 413 407 tgl 15 0 empty empty empty 17 7 0 10 #fcfcfc #000000
#000000 0 1;
#X msg 415 386 1;
#X msg 639 122 0;
#X obj 614 99 t f b;
#X obj 62 261 bng 15 250 50 0 empty empty empty 17 7 0 10 #fcfcfc #000000
#000000;
#X obj 194 257 bng 15 250 50 0 empty empty empty 17 7 0 10 #fcfcfc
#000000 #000000;
#X obj 221 254 bng 15 250 50 0 empty empty empty 17 7 0 10 #fcfcfc
#000000 #000000;
#X obj 290 258 bng 15 250 50 0 empty empty empty 17 7 0 10 #fcfcfc
#000000 #000000;
#X obj 377 201 select 0;
#X obj 380 249 bng 15 250 50 0 empty empty empty 17 7 0 10 #fcfcfc
#000000 #000000;
#X obj 377 176 mod 1;
#X floatatom 47 223 5 0 0 0 - - - 0;
#X obj 86 297 f;
#X obj 153 288 f;
#X obj 246 280 f;
#X obj 293 288 f;
#X obj 398 288 f;
#X floatatom 156 251 5 0 0 0 - - - 0;
#X floatatom 246 252 5 0 0 0 - - - 0;
#X floatatom 326 264 5 0 0 0 - - - 0;
#X floatatom 424 237 5 0 0 0 - - - 0;
#X obj 177 303 sel 0 1 2 3 4 5, f 58;
#X obj 501 208 select 0;
#X obj 492 249 bng 15 250 50 0 empty empty empty 17 7 0 10 #fcfcfc
#000000 #000000;
#X obj 496 292 f;
#X floatatom 519 263 5 0 0 0 - - - 0;
#X obj 518 356 t b;
#X obj 473 420 spigot 0;
#X obj 517 401 tgl 15 0 empty empty empty 17 7 0 10 #fcfcfc #000000
#000000 0 1;
#X msg 519 380 1;
#X text 468 441 1/32 note;
#X obj 632 361 bng 15 250 50 0 empty empty empty 17 7 0 10 #fcfcfc
#000000 #000000;
#X obj 501 183 mod 0.5;
#X obj 506 501;
#X connect 0 0 11 0;
#X connect 0 0 10 0;
#X connect 0 0 9 0;
#X connect 0 0 8 0;
#X connect 0 0 46 0;
#X connect 0 0 68 0;
#X connect 1 0 2 0;
#X connect 4 0 40 0;
#X connect 5 0 41 0;
#X connect 6 0 42 0;
#X connect 7 0 43 0;
#X connect 8 0 4 0;
#X connect 8 0 47 0;
#X connect 9 0 5 0;
#X connect 9 0 53 0;
#X connect 10 0 6 0;
#X connect 10 0 54 0;
#X connect 11 0 7 0;
#X connect 11 0 55 0;
#X connect 17 0 39 0;
#X connect 18 0 25 0;
#X connect 19 0 3 0;
#X connect 20 0 23 0;
#X connect 21 0 3 0;
#X connect 22 0 21 1;
#X connect 23 0 22 0;
#X connect 24 0 19 1;
#X connect 25 0 24 0;
#X connect 26 0 29 0;
#X connect 27 0 3 0;
#X connect 28 0 27 1;
#X connect 29 0 28 0;
#X connect 30 0 33 0;
#X connect 31 0 3 0;
#X connect 32 0 31 1;
#X connect 33 0 32 0;
#X connect 34 0 37 0;
#X connect 35 0 3 0;
#X connect 36 0 35 1;
#X connect 37 0 36 0;
#X connect 38 0 28 0;
#X connect 38 0 24 0;
#X connect 38 0 22 0;
#X connect 38 0 36 0;
#X connect 38 0 32 0;
#X connect 38 0 64 0;
#X connect 39 0 57 0;
#X connect 39 1 38 0;
#X connect 40 0 48 0;
#X connect 41 0 49 0;
#X connect 42 0 50 0;
#X connect 43 0 51 0;
#X connect 44 0 45 0;
#X connect 45 0 52 0;
#X connect 46 0 44 0;
#X connect 46 0 52 1;
#X connect 46 0 56 0;
#X connect 47 0 48 1;
#X connect 48 0 21 0;
#X connect 49 0 19 0;
#X connect 50 0 27 0;
#X connect 51 0 31 0;
#X connect 52 0 35 0;
#X connect 53 0 49 1;
#X connect 54 0 50 1;
#X connect 55 0 51 1;
#X connect 57 0 20 0;
#X connect 57 1 18 0;
#X connect 57 2 26 0;
#X connect 57 3 30 0;
#X connect 57 4 34 0;
#X connect 57 5 62 0;
#X connect 57 6 67 0;
#X connect 58 0 59 0;
#X connect 59 0 60 0;
#X connect 60 0 63 0;
#X connect 62 0 65 0;
#X connect 62 0 36 0;
#X connect 63 0 3 0;
#X connect 64 0 63 1;
#X connect 65 0 64 0;
#X connect 68 0 58 0;
#X connect 68 0 60 1;
#X connect 68 0 61 0;
#X restore 76 92 pd byNote;
#X obj 76 65 t f;
#X obj 75 121 bng 15 250 50 0 empty empty empty 17 7 0 10 #fcfcfc #000000
#000000;
#X floatatom 136 63 5 0 0 0 - - - 0;
#X obj 136 39 r \$0-metrobyticks;
#X floatatom 79 223 5 0 0 0 - - - 0;
#X obj 80 191 count 1 16;
#X msg 94 119 1;
#X obj 79 247 - 1;
#X obj 101 141 r \$0-resettick;
#X msg 103 166 reset;
#X floatatom 219 182 5 0 0 0 - - - 0;
#X obj 220 156 r \$0-bymetrosteps;
#X msg 206 217 max \$1;
#X obj 158 98 r \$0-contStepValue;
#X obj 138 329 bng 15 250 50 0 empty empty measure_beat 17 7 0 10 #fcfcfc
#000000 #000000;
#N canvas 309 393 546 444 \$0-playmetrotick 0;
#X obj 80 37 inlet;
#X obj 91 266 r \$0-metrotickvol;
#X obj 76 290 *~;
#X obj 77 243 readsf~;
#X obj 30 328 dac~ 1 2;
#X obj 80 66 bng 15 250 50 0 empty empty played_sampled 17 7 0 10 #fcfcfc
#000000 #000000;
#X msg 77 164 0;
#X obj 80 93 t b b;
#X obj 77 190 pack f f s;
#N canvas 104 221 1037 570 \$0-checksampledlocation 0;
#X obj 95 154 file which;
#X symbolatom 94 254 0 0 0 0 - - - 0;
#X obj 95 210 unpack s f;
#X floatatom 159 233 2 0 0 1 directory? - - 0;
#X obj 86 13 inlet;
#X obj 89 44 t b b;
#X obj 94 276 outlet;
#X msg 95 128 symbol \$1/metrotick.wav;
#X obj 155 179 print Err:filenotfound:metrotick.wav;
#X msg 84 80 dir;
#X obj 84 104 dir, f 5;
#X connect 0 0 2 0;
#X connect 0 1 8 0;
#X connect 1 0 6 0;
#X connect 2 0 1 0;
#X connect 2 1 3 0;
#X connect 4 0 5 0;
#X connect 5 0 9 0;
#X connect 7 0 0 0;
#X connect 9 0 10 0;
#X connect 10 1 7 0;
#X restore 108 118 pd \$0-checksampledlocation;
#X msg 77 218 open \$3 \, start;
#X obj 112 164 t b s;
#X connect 0 0 5 0;
#X connect 1 0 2 1;
#X connect 2 0 4 1;
#X connect 2 0 4 0;
#X connect 3 0 2 0;
#X connect 5 0 7 0;
#X connect 6 0 8 0;
#X connect 7 1 9 0;
#X connect 8 0 10 0;
#X connect 9 0 11 0;
#X connect 10 0 3 0;
#X connect 11 0 6 0;
#X connect 11 1 8 2;
#X restore 138 349 pd \$0-playmetrotick;
#X floatatom 37 176 5 0 0 0 - - - 0;
#X floatatom 138 282 5 0 0 0 - - - 0;
#X obj 138 250 % 4;
#X obj 138 304 sel 0;
#X connect 0 0 3 0;
#X connect 2 0 4 0;
#X connect 2 0 19 0;
#X connect 3 0 2 0;
#X connect 4 0 8 0;
#X connect 5 0 2 1;
#X connect 6 0 5 0;
#X connect 7 0 10 0;
#X connect 8 0 7 0;
#X connect 9 0 8 0;
#X connect 10 0 1 0;
#X connect 10 0 21 0;
#X connect 11 0 12 0;
#X connect 12 0 8 0;
#X connect 13 0 15 0;
#X connect 14 0 13 0;
#X connect 15 0 8 0;
#X connect 16 0 8 0;
#X connect 17 0 18 0;
#X connect 20 0 22 0;
#X connect 21 0 20 0;
#X connect 22 0 17 0;
#X restore 46 131 pd \$0-bytickdivision;
#N canvas 386 146 470 471 \$0-feelandgroove 0;
#X obj 29 192 & 1;
#X obj 29 131 inlet;
#X obj 56 421 outlet;
#X obj 29 232 pack;
#X obj 29 258 route 0 1;
#X text 24 276 even;
#X text 64 276 odd;
#X obj 124 238 *;
#X obj 139 207 t b f;
#X obj 71 313 pipe;
#X obj 117 61 inlet;
#X text 27 110 ticks;
#X text 86 41 swing-feel;
#X obj 247 68 inlet;
#X obj 56 396 pipe;
#X text 248 49 humanize-feel;
#X text 319 311 Humanized by milliseconds;
#X text 319 246 Swing by milliseconds;
#X floatatom 64 206 5 0 0 0 - - - 0;
#X obj 29 164 t f f b;
#X obj 20 318 t b f;
#X floatatom 235 317 10 0 0 0 - - - 0;
#N canvas 26 659 564 204 RandomPipeInitToValueOrZero 0;
#X obj 124 49 inlet;
#X obj 40 51 inlet;
#X obj 40 148 outlet;
#X floatatom 40 123 5 0 0 0 - - - 0;
#N canvas 117 75 450 422 CheckForMistakeEveryTick 0;
#X floatatom 103 75 5 0 0 0 - - - 0;
#X floatatom 104 119 5 0 0 0 - - - 0;
#X obj 104 139 tgl 15 0 empty empty empty 17 7 0 10 #fcfcfc #000000
#000000 0 1;
#X obj 63 259 spigot 0;
#X obj 63 193 change;
#X floatatom 63 238 5 0 0 0 - - - 0;
#X obj 63 171 == 0;
#X obj 63 217 == 0;
#X obj 63 279 t b;
#X floatatom 127 178 5 0 0 0 - - - 0;
#X obj 127 157 == 0;
#X obj 127 197 change;
#X floatatom 127 242 5 0 0 0 - - - 0;
#X obj 127 221 == 1;
#X obj 127 261 spigot 0;
#X obj 127 284 t b;
#X obj 112 15 inlet;
#X obj 63 334 outlet;
#X obj 127 334 outlet;
#X obj 103 95 & 3;
#X obj 167 10 inlet;
#X msg 65 42 bang;
#X floatatom 203 62 5 0 0 0 - - - 0;
#X obj 169 34 int;
#X obj 107 53 random 3;
#X connect 0 0 19 0;
#X connect 1 0 2 0;
#X connect 2 0 3 1;
#X connect 2 0 6 0;
#X connect 2 0 10 0;
#X connect 2 0 14 1;
#X connect 3 0 8 0;
#X connect 4 0 7 0;
#X connect 5 0 3 0;
#X connect 6 0 4 0;
#X connect 7 0 5 0;
#X connect 8 0 17 0;
#X connect 9 0 11 0;
#X connect 10 0 9 0;
#X connect 11 0 13 0;
#X connect 12 0 14 0;
#X connect 13 0 12 0;
#X connect 14 0 15 0;
#X connect 15 0 18 0;
#X connect 16 0 21 0;
#X connect 19 0 1 0;
#X connect 20 0 23 0;
#X connect 21 0 24 0;
#X connect 23 0 22 0;
#X connect 23 0 24 1;
#X connect 24 0 0 0;
#X restore 40 78 pd CheckForMistakeEveryTick;
#X f 28;
#N canvas 1090 209 450 391 AdjustForFirstStep 0;
#X obj 77 116 bng 15 250 50 0 empty empty empty 17 7 0 10 #fcfcfc #000000
#000000;
#X obj 156 293 bng 15 250 50 0 empty empty empty 17 7 0 10 #fcfcfc
#000000 #000000;
#X msg 156 312 0;
#X obj 77 164 f;
#X floatatom 77 198 5 0 0 0 - - - 0;
#X obj 122 77 > 0;
#X obj 177 79 == 0;
#X floatatom 177 165 5 0 0 0 - - - 0;
#X obj 177 142 == 0;
#X obj 177 184 change;
#X floatatom 177 229 5 0 0 0 - - - 0;
#X obj 177 208 == 1;
#X obj 177 271 spigot 0;
#X floatatom 122 99 5 0 0 0 - - - 0;
#X floatatom 177 101 5 0 0 0 - - - 0;
#X obj 122 120 tgl 15 0 empty empty empty 17 7 0 10 #fcfcfc #000000
#000000 0 1;
#X obj 77 140 spigot 0;
#X obj 222 228 tgl 15 0 empty empty empty 17 7 0 10 #fcfcfc #000000
#000000 0 1;
#X obj 177 121 t f f;
#X obj 177 249 t b;
#X obj 196 27 inlet;
#X obj 77 336 outlet;
#X obj 156 337 outlet;
#X obj 156 27 inlet;
#X obj 77 27 inlet;
#X obj 122 49 r \$0-currentstep;
#X connect 0 0 16 0;
#X connect 1 0 2 0;
#X connect 2 0 22 0;
#X connect 3 0 4 0;
#X connect 4 0 21 0;
#X connect 5 0 13 0;
#X connect 6 0 14 0;
#X connect 7 0 9 0;
#X connect 8 0 7 0;
#X connect 9 0 11 0;
#X connect 10 0 19 0;
#X connect 11 0 10 0;
#X connect 12 0 1 0;
#X connect 13 0 15 0;
#X connect 14 0 18 0;
#X connect 15 0 16 1;
#X connect 16 0 3 0;
#X connect 17 0 12 1;
#X connect 18 0 8 0;
#X connect 18 1 17 0;
#X connect 19 0 12 0;
#X connect 20 0 3 1;
#X connect 23 0 1 0;
#X connect 24 0 0 0;
#X connect 25 0 5 0;
#X connect 25 0 6 0;
#X restore 40 102 pd AdjustForFirstStep;
#X f 55;
#X obj 229 51 inlet;
#X floatatom 418 129 5 0 0 0 - - - 0;
#X connect 0 0 5 2;
#X connect 1 0 4 0;
#X connect 3 0 2 0;
#X connect 4 0 5 0;
#X connect 4 1 5 1;
#X connect 5 0 3 0;
#X connect 5 1 7 0;
#X connect 6 0 4 1;
#X connect 7 0 2 0;
#X restore 83 371 pd RandomPipeInitToValueOrZero;
#X floatatom 569 98 6 0 0 0 - - - 0;
#X obj 569 48 * 100;
#X obj 569 74 int;
#X msg 569 121 label Swing:\$1;
#X floatatom 572 254 6 0 0 0 - - - 0;
#X obj 572 204 * 100;
#X obj 572 230 int;
#X msg 572 277 label Human;
#X floatatom 719 255 6 0 0 0 - - - 0;
#X obj 719 231 int;
#X msg 719 278 label Mistakes;
#X obj 368 67 inlet;
#X text 361 50 mistakes;
#X floatatom 118 146 5 0 0 0 - - - 0;
#X obj 118 106 / 10;
#X obj 118 126 * 4;
#X floatatom 249 140 5 0 0 0 - - - 0;
#X obj 249 100 / 10;
#X obj 249 120 * 4;
#X obj 118 166 t f;
#X obj 250 159 t f;
#X obj 139 186 r \$0-ticklength16;
#X obj 569 144 s \$0-swing-recv;
#X obj 572 300 s \$0-humanize-recv;
#X obj 719 301 s \$0-mistake-recv;
#X obj 572 179 r \$0-humanize-send;
#X obj 719 180 r \$0-mistake-send;
#X obj 569 23 r \$0-swing-send;
#X floatatom 127 430 5 0 0 0 - - - 0;
#X obj 145 317 bng 15 250 50 0 empty empty empty 17 7 0 10 #fcfcfc
#000000 #000000;
#X obj 171 322 bng 15 250 50 0 empty empty empty 17 7 0 10 #fcfcfc
#000000 #000000;
#X obj 232 266 t f;
#X obj 10 369 bng 15 250 50 0 empty empty empty 17 7 0 10 #fcfcfc #000000
#000000;
#X obj 206 229 *;
#X floatatom 353 183 5 0 0 0 - - - 0;
#X floatatom 268 265 5 0 0 0 - - - 0;
#X obj 235 292 * 10;
#X obj 234 342 / 4;
#X floatatom 171 249 5 0 0 0 - - - 0;
#X connect 0 0 3 0;
#X connect 1 0 19 0;
#X connect 3 0 4 0;
#X connect 4 0 20 0;
#X connect 4 0 52 0;
#X connect 4 1 9 0;
#X connect 4 1 53 0;
#X connect 7 0 9 1;
#X connect 7 0 56 0;
#X connect 8 0 7 0;
#X connect 8 1 7 1;
#X connect 8 1 61 0;
#X connect 9 0 14 0;
#X connect 10 0 37 0;
#X connect 13 0 40 0;
#X connect 14 0 2 0;
#X connect 14 0 51 0;
#X connect 19 0 0 0;
#X connect 19 1 3 1;
#X connect 19 1 18 0;
#X connect 20 0 22 0;
#X connect 20 0 55 0;
#X connect 20 1 14 0;
#X connect 21 0 60 0;
#X connect 22 0 14 1;
#X connect 23 0 26 0;
#X connect 24 0 25 0;
#X connect 25 0 23 0;
#X connect 26 0 45 0;
#X connect 27 0 30 0;
#X connect 28 0 29 0;
#X connect 29 0 27 0;
#X connect 30 0 46 0;
#X connect 31 0 33 0;
#X connect 32 0 31 0;
#X connect 33 0 47 0;
#X connect 34 0 22 2;
#X connect 34 0 57 0;
#X connect 36 0 42 0;
#X connect 37 0 38 0;
#X connect 38 0 36 0;
#X connect 39 0 43 0;
#X connect 40 0 41 0;
#X connect 41 0 39 0;
#X connect 42 0 7 0;
#X connect 43 0 56 1;
#X connect 44 0 8 0;
#X connect 48 0 28 0;
#X connect 49 0 32 0;
#X connect 50 0 24 0;
#X connect 54 0 59 0;
#X connect 56 0 54 0;
#X connect 56 0 58 0;
#X connect 59 0 21 0;
#X connect 60 0 22 1;
#X restore 46 240 pd \$0-feelandgroove;
#X f 38;
#X obj 459 154 r \$0-HMbpm;
#X obj 64 493 s \$0-currentstep;
#X obj 83 414 s \$0-currentbar;
#X obj 162 106 s \$0-currenttick;
#X obj 599 309 s \$0-ticklength16;
#X obj 43 546 s \$0-currentstepbang;
#X text 198 14 Metro Human v1.0;
#X text 199 32 Written By: Reg Finley;
#X text 198 50 Aka Scr1ptAl1as;
#X floatatom 105 519 5 0 0 0 - - - 0;
#X obj 75 156 r \$0-swing;
#X obj 189 155 r \$0-humanize;
#X obj 325 155 r \$0-mistakes;
#X obj 532 334 / 2;
#X obj 296 103 s \$0-quantizedtick;
#X obj 404 56 inlet;
#X obj 601 273 f;
#X obj 46 41 t f b b, f 8;
#X floatatom 159 455 5 0 0 0 - - - 0;
#X connect 0 0 5 0;
#X connect 1 0 7 0;
#X connect 2 0 3 0;
#X connect 2 0 41 1;
#X connect 3 0 4 0;
#X connect 4 0 8 0;
#X connect 5 0 9 0;
#X connect 6 0 10 0;
#X connect 6 1 26 0;
#X connect 6 1 34 0;
#X connect 6 1 43 0;
#X connect 6 2 12 0;
#X connect 6 3 0 0;
#X connect 7 0 2 0;
#X connect 10 0 30 0;
#X connect 11 0 23 0;
#X connect 11 1 28 0;
#X connect 11 2 39 0;
#X connect 12 0 13 0;
#X connect 13 0 27 0;
#X connect 14 0 42 0;
#X connect 15 0 16 0;
#X connect 16 0 24 1;
#X connect 17 0 18 0;
#X connect 18 0 24 2;
#X connect 19 0 20 0;
#X connect 20 0 1 0;
#X connect 21 0 22 0;
#X connect 22 0 24 3;
#X connect 23 0 24 0;
#X connect 24 0 6 0;
#X connect 25 0 19 0;
#X connect 35 0 15 0;
#X connect 36 0 17 0;
#X connect 37 0 21 0;
#X connect 40 0 11 2;
#X connect 41 0 29 0;
#X connect 42 0 11 0;
#X connect 42 1 11 1;
#X connect 42 2 41 0;
#X restore 1551 643 pd \$0-HumanizedMetronome;
#X floatatom 242 861 5 0 0 0 - - - 0;
#X floatatom 191 838 5 0 0 0 - - - 0;
#X floatatom 139 809 5 0 0 0 - - - 0;
#X msg 342 499 1;
#X msg 391 436 0;
#X obj 87 762 bng 15 250 50 0 empty empty empty 17 7 0 10 #fcfcfc #000000
#000000;
#X obj 582 414 hradio 15 1 0 6 empty empty Time_Division 0 -8 0 10
#fcfcfc #000000 #000000 0;
#X listbox 547 495 20 0 0 0 - - - 0;
#N canvas 358 163 506 379 \$0-displaytimedivision 0;
#X obj 57 26 inlet;
#X obj 58 96 bng 15 250 50 0 empty empty empty 17 7 0 10 #fcfcfc #000000
#000000;
#X obj 89 95 bng 15 250 50 0 empty empty empty 17 7 0 10 #fcfcfc #000000
#000000;
#X obj 124 95 bng 15 250 50 0 empty empty empty 17 7 0 10 #fcfcfc #000000
#000000;
#X obj 158 94 bng 15 250 50 0 empty empty empty 17 7 0 10 #fcfcfc #000000
#000000;
#X obj 187 95 bng 15 250 50 0 empty empty empty 17 7 0 10 #fcfcfc #000000
#000000;
#X msg 57 117 0;
#X msg 91 117 1;
#X msg 123 115 2;
#X msg 156 115 3;
#X msg 187 116 4;
#X obj 224 92 bng 15 250 50 0 empty empty empty 17 7 0 10 #fcfcfc #000000
#000000;
#X msg 224 113 5;
#X obj 257 155 s \$0-metrobyticks;
#X msg 264 179 symbol Whole;
#X msg 307 277 symbol 1/16;
#X msg 308 300 symbol 1/32;
#X msg 299 253 symbol 1/8;
#X msg 290 227 symbol 1/4;
#X msg 279 203 symbol 1/2;
#X obj 291 328 outlet;
#X obj 241 59 s \$0-divindex;
#X obj 58 62 sel 0 1 2 3 4 5, f 21;
#X connect 0 0 21 0;
#X connect 0 0 22 0;
#X connect 1 0 6 0;
#X connect 2 0 7 0;
#X connect 3 0 8 0;
#X connect 4 0 9 0;
#X connect 5 0 10 0;
#X connect 6 0 13 0;
#X connect 6 0 14 0;
#X connect 7 0 13 0;
#X connect 7 0 19 0;
#X connect 8 0 13 0;
#X connect 8 0 18 0;
#X connect 9 0 13 0;
#X connect 9 0 17 0;
#X connect 10 0 13 0;
#X connect 10 0 15 0;
#X connect 11 0 12 0;
#X connect 12 0 13 0;
#X connect 12 0 16 0;
#X connect 14 0 20 0;
#X connect 15 0 20 0;
#X connect 16 0 20 0;
#X connect 17 0 20 0;
#X connect 18 0 20 0;
#X connect 19 0 20 0;
#X connect 22 0 1 0;
#X connect 22 1 2 0;
#X connect 22 2 3 0;
#X connect 22 3 4 0;
#X connect 22 4 5 0;
#X connect 22 5 11 0;
#X restore 547 469 pd \$0-displaytimedivision;
#X obj 409 333 inlet;
#X obj 535 413 t f;
#X obj 740 498 t f;
#X obj 777 470 t f;
#X obj 809 443 t f;
#X obj 847 413 t f;
#X obj 135 847 outlet;
#X obj 191 866 outlet;
#X obj 242 889 outlet;
#X obj 1062 441 f;
#X obj 1086 469 f;
#X obj 1108 491 f;
#X obj 1132 516 f;
#X obj 906 523 bng 15 250 50 0 empty empty empty 17 7 0 10 #fcfcfc
#000000 #000000;
#X obj 548 521 s \$0-divsymbol;
#N canvas 443 351 450 300 \$0-buildtimedivisionoutput 0;
#X obj 125 94 t s;
#X obj 72 94 f;
#X obj 72 119 pack f s;
#X msg 72 145 list \$1 \$2;
#X obj 90 46 r \$0-divindex;
#X obj 125 70 r \$0-divsymbol;
#X obj 72 20 inlet;
#X obj 72 178 outlet;
#X connect 0 0 2 1;
#X connect 1 0 2 0;
#X connect 2 0 3 0;
#X connect 3 0 7 0;
#X connect 4 0 1 1;
#X connect 5 0 0 0;
#X connect 6 0 1 0;
#X restore 907 546 pd \$0-buildtimedivisionoutput;
#X obj 1105 438 r \$0-swing-send;
#X obj 1127 461 r \$0-humanize-send;
#X obj 1151 485 r \$0-mistakes-send;
#X obj 1080 412 r \$0-HMbpm;
#X obj 752 540 s \$0-HMbpm;
#X obj 139 782 r \$0-currentbar;
#X obj 191 807 r \$0-currentstep;
#X obj 242 832 r \$0-currenttick;
#X obj 389 463 s \$0-hmetronomeOff;
#X obj 342 524 s \$0-hmetronomeOn;
#X obj 388 492 s \$0-continue-step;
#X obj 87 736 r \$0-currentstepbang;
#X floatatom 1025 511 5 0 0 0 - - - 0;
#X floatatom 1404 485 5 0 0 0 - - - 0;
#X floatatom 1353 462 5 0 0 0 - - - 0;
#X floatatom 1308 430 5 0 0 0 - - - 0;
#X obj 1308 403 r \$0-currentbar;
#X obj 1353 431 r \$0-currentstep;
#X obj 1404 456 r \$0-currenttick;
#X obj 1291 461 f;
#X obj 1313 483 f;
#X obj 1337 508 f;
#X text 391 715 Metro Human v1.0;
#X text 392 733 Written By: Reg Finley;
#X text 391 751 Aka Scr1ptAl1as;
#X obj 394 784 declare -path ./;
#X obj 530 543 s divsymbol;
#X obj 567 754 loadbang;
#N canvas 515 225 450 433 \$0-loadmetrodefaults 0;
#X obj 95 43 inlet;
#X msg 76 227 4;
#X obj 112 227 s s0-defaultbpm;
#X msg 145 172 0.02;
#X msg 180 146 0.01;
#X msg 219 127 0.015;
#X obj 145 202 s s0-defaultswing;
#X obj 184 174 s s0-defaulthuman;
#X obj 219 151 s s0-defaultmistakes;
#X obj 79 256 s s0-defaultdivision;
#X msg 174 283 0.5;
#X msg 179 314 2;
#X obj 147 334 s s0-defaultmetrovol;
#X obj 113 364 s s0-defaultqres;
#X msg 112 201 87;
#X obj 229 296 s s0-defaultsteps;
#X msg 230 273 16;
#X obj 91 73 t b b b b b b b b;
#X connect 0 0 17 0;
#X connect 1 0 9 0;
#X connect 3 0 6 0;
#X connect 4 0 7 0;
#X connect 5 0 8 0;
#X connect 10 0 12 0;
#X connect 11 0 13 0;
#X connect 14 0 2 0;
#X connect 16 0 15 0;
#X connect 17 0 1 0;
#X connect 17 1 14 0;
#X connect 17 2 3 0;
#X connect 17 3 4 0;
#X connect 17 4 5 0;
#X connect 17 5 10 0;
#X connect 17 6 11 0;
#X connect 17 7 16 0;
#X restore 567 781 pd \$0-loadmetrodefaults;
#N canvas 307 176 1244 317 \$0-setmetrodefaults 0;
#X obj 85 62 r s0-defaultbpm;
#X obj 477 56 r s0-defaultmistakes;
#X obj 344 57 r s0-defaulthuman;
#X obj 208 55 r s0-defaultswing;
#X msg 85 91 set_bpm \$1;
#X msg 208 85 set_swing \$1;
#X msg 342 86 set_human \$1;
#X msg 479 84 set_mistakes \$1;
#X obj 165 194 outlet;
#X obj 640 62 r s0-defaultdivision;
#X msg 638 89 se_timediv \$1;
#X obj 966 62 r s0-defaultsteps;
#X obj 801 60 r s0-defaultmetrovol;
#X obj 1101 63 r s0-defaultqres;
#X msg 803 90 set_tickvol \$1;
#X msg 965 87 set_totalsteps \$1;
#X msg 1102 92 set_qres \$1;
#X connect 0 0 4 0;
#X connect 1 0 7 0;
#X connect 2 0 6 0;
#X connect 3 0 5 0;
#X connect 4 0 8 0;
#X connect 5 0 8 0;
#X connect 6 0 8 0;
#X connect 7 0 8 0;
#X connect 9 0 10 0;
#X connect 10 0 8 0;
#X connect 11 0 15 0;
#X connect 12 0 14 0;
#X connect 13 0 16 0;
#X connect 14 0 8 0;
#X connect 15 0 8 0;
#X connect 16 0 8 0;
#X restore 383 303 pd \$0-setmetrodefaults;
#X obj 100 307 cnv 15 130 200 empty empty HumanizedMetro 10 10 0 14
#606060 #ffffff 0;
#X floatatom 107 328 5 0 0 0 - - - 0;
#X obj 107 364 hradio 15 1 0 6 empty empty Time_Division 0 -8 0 10
#fcfcfc #000000 #000000 0;
#X obj 110 383 hsl 100 15 0.01 1 0 0 empty empty Swing 3 7 0 10 #202020
#00faff #ffffff 0 1;
#X obj 110 402 hsl 100 15 0.01 1 0 0 empty empty Humanize: 3 7 0 10
#202020 #00faff #ffffff 0 1;
#X obj 110 422 hsl 100 15 0.01 3 0 0 empty empty Mistakes: 3 7 0 10
#202020 #00faff #ffffff 0 1;
#X obj 149 330 bng 15 250 50 0 empty empty empty 17 7 0 10 #00ff04
#000000 #000000;
#X obj 174 330 bng 15 250 50 0 empty empty empty 17 7 0 10 #ff8300
#000000 #000000;
#X obj 197 330 bng 15 250 50 0 empty empty empty 17 7 0 10 #ff0400
#000000 #000000;
#X obj 200 363 cnv 15 15 15 \$0-divdisplay-send \$0-divdisplay-recv
1/16 3 7 0 10 #606060 #ffffff 0;
#X msg 275 416 stop;
#X msg 275 357 start;
#X msg 275 387 continue;
#X obj 248 283 r s0-defaultbpm;
#X obj 210 214 r s0-defaultmistakes;
#X obj 236 238 r s0-defaulthuman;
#X obj 245 259 r s0-defaultswing;
#X obj 370 215 r s0-defaultdivision;
#X obj 529 881 outlet;
#X obj 422 878 outlet;
#X floatatom 108 443 5 0 0 1 Total_Steps - - 0;
#X obj 18 535 s \$0-bymetrosteps;
#X msg 49 435 16;
#X msg 49 410 8;
#X msg 49 460 32;
#X msg 49 485 64;
#X msg 49 333 3;
#X msg 49 357 4;
#X msg 49 383 5;
#X obj 52 259 loadbang;
#X obj 1524 412 t b f;
#X obj 1535 439 f;
#X obj 1435 537 f;
#X obj 1448 496 r \$0-bymetrosteps;
#X obj 325 907 outlet;
#X obj 620 910 outlet;
#X obj 608 823 r \$0-ticklength16;
#X obj 777 496 s \$0-swing-send;
#X obj 809 468 s \$0-humanize-send;
#X obj 845 439 s \$0-mistakes-send;
#X obj 113 596 s \$0-swing;
#X obj 145 568 s \$0-humanize;
#X obj 181 539 s \$0-mistakes;
#X obj 61 621 s \$0-metrotickvol;
#X obj 1372 565 f;
#X obj 1372 540 t b f;
#X obj 115 465 hsl 100 12 0 1 0 0 \$0-tickvol-send \$0-tickvol-recv
Metro\\\ Volume 3 6 0 10 #dfdfdf #00faff #000000 0 1;
#X obj 563 657 s;
#X msg 632 620 symbol \$1-divdisplay-recv;
#X obj 557 601 l2s;
#X obj 556 568 r \$0-divsymbol;
#X obj 70 285 \$0;
#X obj 141 266 s \$0-mID;
#X obj 632 595 r \$0-mID;
#X msg 556 624 label \$1;
#X floatatom 1356 595 5 0 0 0 - - - 0;
#X obj 794 891 outlet;
#X obj 798 808 r \$0-bymetrosteps;
#X obj 886 891 r \$0-quantizedtick;
#X obj 888 917 outlet;
#X obj 115 480 hsl 100 12 1.5 5 1 0 \$0-qres-send \$0-qres-recv Quantize\\\ Res
3 6 0 10 #dfdfdf #00faff #000000 0 1;
#X obj 112 493 cnv 10 10 1 empty empty Loose 3 7 0 10 #606060 #ffffff
0;
#X obj 182 493 cnv 10 10 1 empty empty Tight 3 7 0 10 #606060 #ffffff
0;
#X obj 1580 415 t b f;
#X obj 1591 442 f;
#X obj 211 622 s \$0-divindex;
#X obj 1587 495 t b;
#X obj 1587 524 f;
#X obj 1622 499 r \$0-metrotickvol;
#X obj 393 361 route start stop continue set_timediv set_bpm set_swing
set_human set_mistakes get_timediv get_bpm get_swing get_human get_mistakes
get_bar get_step get_tick set_totalsteps get_totalsteps set_tickvol
quantizebang set_qres get_tickvol get_qres, f 159;
#X obj 1642 389 t b;
#X obj 1644 445 f;
#X obj 1676 423 r \$0-qres-send;
#X obj 308 569 r s0-defaultmetrovol;
#X obj 381 614 r s0-defaultqres;
#X obj 307 593 t f;
#X obj 380 640 t f;
#X obj 1037 909 outlet;
#X obj 796 866 f;
#X obj 796 838 t b f;
#X obj 277 325 t b b;
#X floatatom 679 867 5 0 0 0 - - - 0;
#X obj 1039 824 r \$0-HMbpm;
#X obj 1037 877 f;
#X obj 1038 850 t b f;
#X obj 1163 920 outlet;
#X obj 1162 893 f;
#X obj 1163 866 t b f;
#X obj 1167 839 r \$0-metrotickvol;
#X obj 624 875 t f b b b;
#X obj 1320 945 outlet;
#X obj 1312 916 r \$0-qresult;
#X floatatom 1554 615 5 0 0 0 - - - 0;
#X obj 1543 567 t b f;
#X obj 1550 590 f;
#X obj 1462 955 outlet;
#X obj 1463 924 r \$0-divindex;
#X obj 6 220 declare -lib clearessentials;
#X connect 2 0 19 0;
#X connect 3 0 18 0;
#X connect 4 0 17 0;
#X connect 5 0 36 0;
#X connect 5 0 91 0;
#X connect 6 0 35 0;
#X connect 6 0 91 0;
#X connect 7 0 0 0;
#X connect 8 0 59 0;
#X connect 9 0 25 0;
#X connect 9 0 53 0;
#X connect 10 0 9 0;
#X connect 11 0 126 0;
#X connect 12 0 8 0;
#X connect 13 0 58 0;
#X connect 14 0 60 0;
#X connect 14 0 94 0;
#X connect 15 0 61 0;
#X connect 15 0 95 0;
#X connect 16 0 62 0;
#X connect 16 0 96 0;
#X connect 20 0 76 0;
#X connect 21 0 39 0;
#X connect 21 0 76 0;
#X connect 22 0 76 0;
#X connect 23 0 76 0;
#X connect 24 0 26 0;
#X connect 26 0 75 0;
#X connect 27 0 21 1;
#X connect 28 0 22 1;
#X connect 29 0 23 1;
#X connect 30 0 20 1;
#X connect 32 0 4 0;
#X connect 33 0 3 0;
#X connect 34 0 2 0;
#X connect 38 0 7 0;
#X connect 40 0 48 1;
#X connect 41 0 47 1;
#X connect 42 0 46 1;
#X connect 43 0 42 0;
#X connect 44 0 41 0;
#X connect 45 0 40 0;
#X connect 46 0 76 0;
#X connect 47 0 76 0;
#X connect 48 0 76 0;
#X connect 54 0 55 0;
#X connect 56 0 126 0;
#X connect 58 0 31 0;
#X connect 59 0 10 0;
#X connect 59 0 122 0;
#X connect 59 0 24 0;
#X connect 60 0 97 0;
#X connect 61 0 98 0;
#X connect 62 0 99 0;
#X connect 63 0 68 0;
#X connect 64 0 69 0;
#X connect 65 0 67 0;
#X connect 67 0 126 0;
#X connect 68 0 126 0;
#X connect 69 0 126 0;
#X connect 70 0 13 0;
#X connect 71 0 16 0;
#X connect 72 0 15 0;
#X connect 73 0 14 0;
#X connect 74 0 12 0;
#X connect 77 0 78 0;
#X connect 79 0 77 0;
#X connect 80 0 77 0;
#X connect 81 0 77 0;
#X connect 82 0 77 0;
#X connect 83 0 77 0;
#X connect 84 0 77 0;
#X connect 85 0 77 0;
#X connect 86 0 79 0;
#X connect 86 0 108 0;
#X connect 87 0 88 0;
#X connect 87 1 88 1;
#X connect 88 0 77 0;
#X connect 89 0 76 0;
#X connect 90 0 89 1;
#X connect 93 0 138 0;
#X connect 93 0 146 0;
#X connect 101 0 103 0;
#X connect 101 0 112 0;
#X connect 102 0 101 0;
#X connect 102 1 101 1;
#X connect 103 0 100 0;
#X connect 105 0 104 1;
#X connect 106 0 111 0;
#X connect 107 0 106 0;
#X connect 108 0 109 0;
#X connect 110 0 105 0;
#X connect 111 0 104 0;
#X connect 114 0 136 0;
#X connect 115 0 116 0;
#X connect 120 0 121 0;
#X connect 120 1 121 1;
#X connect 121 0 117 0;
#X connect 123 0 124 0;
#X connect 124 0 76 0;
#X connect 125 0 124 1;
#X connect 126 0 5 0;
#X connect 126 1 6 0;
#X connect 126 2 37 0;
#X connect 126 3 12 0;
#X connect 126 4 13 0;
#X connect 126 5 14 0;
#X connect 126 6 15 0;
#X connect 126 7 16 0;
#X connect 126 8 24 0;
#X connect 126 9 20 0;
#X connect 126 10 21 0;
#X connect 126 11 22 0;
#X connect 126 12 23 0;
#X connect 126 13 46 0;
#X connect 126 14 47 0;
#X connect 126 15 48 0;
#X connect 126 16 87 0;
#X connect 126 17 89 0;
#X connect 126 18 102 0;
#X connect 126 19 150 0;
#X connect 126 20 120 0;
#X connect 126 21 123 0;
#X connect 126 22 127 0;
#X connect 127 0 128 0;
#X connect 128 0 76 0;
#X connect 129 0 128 1;
#X connect 130 0 132 0;
#X connect 131 0 133 0;
#X connect 132 0 103 0;
#X connect 133 0 117 0;
#X connect 135 0 113 0;
#X connect 136 0 135 0;
#X connect 136 1 135 1;
#X connect 139 0 141 0;
#X connect 140 0 134 0;
#X connect 141 0 140 0;
#X connect 141 1 140 1;
#X connect 143 0 142 0;
#X connect 144 0 143 0;
#X connect 144 1 143 1;
#X connect 145 0 144 0;
#X connect 146 0 92 0;
#X connect 146 1 135 0;
#X connect 146 2 140 0;
#X connect 146 3 143 0;
#X connect 148 0 147 0;
#X connect 149 0 1 0;
#X connect 150 0 151 0;
#X connect 150 1 151 1;
#X connect 151 0 149 0;
#X connect 153 0 152 0;
#X coords 0 997 1 996 130 200 0;
