#N struct 3221-bang float c float bc float tc float tx float ty symbol text;
#N canvas 618 103 943 657 10;
#X obj 282 -229 outlet;
#N canvas 0 85 450 300 \$0-display 0;
#X scalar 3221-bang 58 0 555 0.08 0.035 File \;;
#X coords 0 0 1 1 33 15 2 0 0;
#X restore 30 30 pd \$0-display;
#N canvas 206 132 893 522 \$0-bang 1;
#X obj 18 378 outlet;
#X obj 189 91 sel click;
#X obj 32 267 f;
#X obj 127 310 f;
#X obj 129 243 r \$0-colr-active;
#X obj 187 186 r \$0-btn-holdtime;
#X obj 30 195 del 250;
#X obj 251 316 f;
#X obj 345 334 f;
#X obj 236 263 del 250;
#X obj 336 285 r \$0-colr-lblactive;
#X obj 411 307 r \$0-colr-borderclr;
#X floatatom 429 350 5 0 0 0 - - - 0;
#X obj 80 198 r \$0-colr-current;
#X floatatom 501 376 5 0 0 0 - - - 0;
#X floatatom 597 373 5 0 0 0 - - - 0;
#X obj 477 332 r \$0-text-x;
#X obj 572 330 r \$0-text-y;
#X obj 487 397 f;
#X obj 581 394 f;
#X obj 392 -47 inlet;
#X obj 289 262 r \$0-colr-lblcurrent;
#X obj 20 52 struct \$0-bang float c float bc float tc float tx float ty symbol text, f 84;
#X obj 514 465 outlet;
#X obj 513 442 t b;
#X obj 215 453 set \$0-bang c tc bc tx ty;
#X obj 20 105 t a a;
#X obj 20 80 unpack s p f;
#X obj 604 164 pointer;
#X obj 476 353 t b f b;
#X obj 571 351 t b f b;
#X obj 410 329 t b f b;
#X obj 335 307 t b f b;
#X obj 271 292 t b f b;
#X obj 392 -26 t b b;
#X obj 415 369 f;
#X obj 755 176 inlet;
#X obj 76 -59 r \$0-showitemstatus;
#X obj 46 -38 tgl 16 0 empty empty empty 0 -8 0 10 #fcfcfc #000000 #000000 0 1;
#X obj 48 30 filledpolygon c bc 0 0 0 0 1 1 1 1 0;
#X obj 68 7 drawtext text tx ty tc;
#X msg 604 63 symbol pd-\$1-display;
#X obj 603 43 \$0;
#X obj 604 84 t b a;
#X obj 604 121 symbol;
#X msg 603 102 bang;
#X obj 21 161 t b b b b b b b b b;
#X obj 79 220 t b f b b b;
#X obj 130 265 t b f b b;
#X obj 48 -19 t f f b;
#X obj 189 113 t b b b b b b b;
#X obj 393 -2 del 100;
#X obj 686 189 t b;
#X obj 20 129 sel click;
#X msg 604 140 traverse \$1 \, bang;
#X connect 1 0 50 0;
#X connect 2 0 25 0;
#X connect 3 0 24 0;
#X connect 3 0 25 0;
#X connect 4 0 48 0;
#X connect 5 0 6 1;
#X connect 5 0 9 1;
#X connect 6 0 2 0;
#X connect 7 0 25 1;
#X connect 7 0 24 0;
#X connect 8 0 25 1;
#X connect 9 0 7 0;
#X connect 10 0 32 0;
#X connect 11 0 31 0;
#X connect 12 0 35 1;
#X connect 13 0 47 0;
#X connect 14 0 18 1;
#X connect 15 0 19 1;
#X connect 16 0 29 0;
#X connect 17 0 30 0;
#X connect 18 0 25 3;
#X connect 19 0 25 4;
#X connect 20 0 34 0;
#X connect 21 0 33 0;
#X connect 22 0 27 0;
#X connect 24 0 23 0;
#X connect 26 0 53 0;
#X connect 26 1 1 0;
#X connect 27 0 26 0;
#X connect 27 1 25 5;
#X connect 28 0 25 5;
#X connect 29 1 14 0;
#X connect 30 1 15 0;
#X connect 31 1 12 0;
#X connect 32 1 8 1;
#X connect 33 1 7 1;
#X connect 34 0 51 0;
#X connect 34 1 42 0;
#X connect 35 0 25 2;
#X connect 36 0 52 0;
#X connect 37 0 38 0;
#X connect 38 0 49 0;
#X connect 41 0 43 0;
#X connect 42 0 41 0;
#X connect 43 0 45 0;
#X connect 43 1 44 1;
#X connect 44 0 54 0;
#X connect 45 0 44 0;
#X connect 46 0 0 0;
#X connect 46 1 6 0;
#X connect 46 2 3 0;
#X connect 46 3 9 0;
#X connect 46 4 8 0;
#X connect 46 5 35 0;
#X connect 46 6 18 0;
#X connect 46 7 19 0;
#X connect 47 1 2 1;
#X connect 47 2 18 0;
#X connect 47 3 19 0;
#X connect 48 1 3 1;
#X connect 49 0 39 0;
#X connect 49 1 40 0;
#X connect 49 2 42 0;
#X connect 50 0 2 0;
#X connect 50 2 7 0;
#X connect 50 4 35 0;
#X connect 50 5 18 0;
#X connect 50 6 19 0;
#X connect 51 0 50 0;
#X connect 52 0 42 0;
#X connect 53 0 46 0;
#X connect 54 0 28 0;
#X restore 325 -354 pd \$0-bang;
#X obj 16 -486 loadbang;
#X obj 101 -361 s pd-\$0-display;
#X obj 157 -281 symbol pd-\$0-display;
#X msg 157 -258 traverse \$1 \, bang;
#X obj 157 -235 pointer;
#X msg 101 -384 clear;
#X obj 30 -97 set -symbol \$0-bang text;
#X obj 28 -76 namecanvas \$0-this;
#X obj 351 -147 s \$0-this;
#X obj 416 -102 s pd-\$0-display;
#X obj 28 -139 symbol;
#X msg 27 -160 bang;
#X msg 30 -120 symbol \$1;
#X obj 277 -465 inlet;
#X obj 18 -284 pack f f;
#X obj 19 -304 f;
#X msg 17 -225 \$1 \$2;
#N canvas 41 228 300 462 \$0-tabselectcheck 0;
#X obj 36 283 f;
#X obj 109 340 f;
#X obj 124 295 r \$0-colr-borderdefault;
#X obj 70 265 r \$0-colr-boderactive;
#X obj 92 74 tgl 16 0 empty empty empty 0 -8 0 10 #fcfcfc #000000 #000000 0 1;
#X obj 47 98 spigot 0;
#X obj 114 97 == 0;
#X obj 113 117 change;
#X obj 113 138 == 1;
#X obj 113 157 tgl 16 0 empty empty empty 0 -8 0 10 #fcfcfc #000000 #000000 0 1;
#X obj 71 180 spigot 0;
#X obj 74 208 t b;
#X obj 39 127 t b;
#X floatatom 71 286 5 0 0 0 - - - 0;
#X obj 165 -12 inlet;
#X obj 36 395 outlet;
#X floatatom 122 320 5 0 0 0 - - - 0;
#X obj 126 396 s \$0-colr-borderclr;
#X obj 37 151 del 20;
#X obj 79 238 del 20;
#X obj 32 320 t b f;
#X obj 103 364 t b f;
#X obj 209 31 \$1;
#X floatatom 209 70 5 0 0 0 - - - 0;
#X obj 194 90 ==;
#X obj 45 53 t b b f f b;
#X obj 168 6 t f f b;
#X connect 0 0 20 0;
#X connect 1 0 21 0;
#X connect 2 0 16 0;
#X connect 3 0 0 1;
#X connect 3 0 13 0;
#X connect 4 0 5 1;
#X connect 4 0 6 0;
#X connect 5 0 12 0;
#X connect 6 0 7 0;
#X connect 7 0 8 0;
#X connect 8 0 9 0;
#X connect 9 0 10 1;
#X connect 10 0 11 0;
#X connect 11 0 19 0;
#X connect 12 0 18 0;
#X connect 14 0 26 0;
#X connect 16 0 1 1;
#X connect 18 0 0 0;
#X connect 19 0 1 0;
#X connect 20 0 15 0;
#X connect 20 1 17 0;
#X connect 21 0 15 0;
#X connect 21 1 17 0;
#X connect 22 0 23 0;
#X connect 23 0 24 1;
#X connect 24 0 25 0;
#X connect 25 0 5 0;
#X connect 25 1 10 0;
#X connect 25 2 4 0;
#X connect 26 1 24 0;
#X connect 26 2 22 0;
#X restore 278 -424 pd \$0-tabselectcheck;
#X obj 295 -301 \$1;
#X obj 64 -160 r \$0-btntext;
#N canvas 48 173 505 516 \$0-assignbtndetails 0;
#X obj 85 46 inlet;
#X obj 90 308 pack;
#X obj 97 285 t b f;
#X obj 90 330 t l l;
#X symbolatom 414 145 10 0 0 0 - - - 0;
#X floatatom 60 281 5 0 0 0 - - - 0;
#X floatatom 99 264 5 0 0 0 - - - 0;
#X obj 157 323 s \$0-colr-default;
#X obj 235 282 s \$0-colr-active;
#X floatatom 156 244 5 0 0 0 - - - 0;
#X floatatom 193 240 5 0 0 0 - - - 0;
#X floatatom 235 234 5 0 0 0 - - - 0;
#X floatatom 276 235 5 0 0 0 - - - 0;
#X obj 275 261 s \$0-colr-lblactive;
#X obj 192 303 s \$0-colr-lbldefault;
#X obj 376 190 s \$0-btn-holdtime;
#X floatatom 375 170 5 0 0 0 - - - 0;
#X floatatom 58 167 5 0 0 0 - - - 0;
#X obj 58 189 s \$0-bng-tabindex;
#X obj 346 213 s \$0-colr-boderactive;
#X obj 311 237 s \$0-colr-borderdefault;
#X floatatom 310 217 5 0 0 0 - - - 0;
#X floatatom 344 193 4 0 0 0 - - - 0;
#X obj 413 166 s \$0-btntext;
#X obj 89 357 s \$0-tocordsdata1;
#X obj 119 378 s \$0-tocordsdata2;
#X obj 348 342 s \$0-text-x;
#X obj 386 319 s \$0-text-y;
#X floatatom 385 299 5 0 0 0 - - - 0;
#X floatatom 348 320 5 0 0 0 - - - 0;
#X obj 83 98 unpack f f f f f f f f f f f f f s;
#X obj 249 370 s \$0-colr-selected;
#X obj 83 76 list append \$1 \$2 \$3 \$4 \$5 \$6 \$7 \$8 \$9 \$10 \$11 \$12 \$13 \$14;
#X obj 215 343 s \$0-colr-current;
#X connect 0 0 32 0;
#X connect 1 0 3 0;
#X connect 2 0 1 0;
#X connect 2 1 1 1;
#X connect 3 0 24 0;
#X connect 3 1 25 0;
#X connect 4 0 23 0;
#X connect 5 0 1 0;
#X connect 6 0 2 0;
#X connect 9 0 7 0;
#X connect 9 0 33 0;
#X connect 10 0 14 0;
#X connect 11 0 8 0;
#X connect 12 0 13 0;
#X connect 16 0 15 0;
#X connect 17 0 18 0;
#X connect 21 0 20 0;
#X connect 22 0 19 0;
#X connect 28 0 27 0;
#X connect 29 0 26 0;
#X connect 30 0 17 0;
#X connect 30 1 5 0;
#X connect 30 2 6 0;
#X connect 30 3 9 0;
#X connect 30 4 10 0;
#X connect 30 5 11 0;
#X connect 30 6 12 0;
#X connect 30 7 21 0;
#X connect 30 8 22 0;
#X connect 30 9 31 0;
#X connect 30 10 16 0;
#X connect 30 11 29 0;
#X connect 30 12 28 0;
#X connect 30 13 4 0;
#X connect 32 0 30 0;
#X restore 45 -416 pd \$0-assignbtndetails;
#X obj 350 -192 r \$0-tocordsdata1;
#X obj 415 -148 r \$0-tocordsdata2;
#N canvas 88 88 476 560 \$0-tabselectcheck 0;
#X obj 81 209 f;
#X obj 125 383 f;
#X obj 152 129 tgl 16 0 empty empty empty 0 -8 0 10 #fcfcfc #000000 #000000 0 1;
#X obj 59 134 spigot 0;
#X obj 180 214 == 0;
#X obj 179 234 change;
#X obj 179 255 == 1;
#X obj 179 274 tgl 16 0 empty empty empty 0 -8 0 10 #fcfcfc #000000 #000000 0 1;
#X obj 122 292 spigot 0;
#X obj 83 44 t b b f;
#X floatatom 96 187 5 0 0 0 - - - 0;
#X obj 84 3 inlet;
#X obj 46 399 outlet;
#X floatatom 172 341 5 0 0 0 - - - 0;
#X obj 121 415 s \$0-colr-current;
#X obj 96 164 r \$0-colr-selected;
#X obj 50 185 del 20;
#X obj 121 334 del 20;
#X obj 172 322 r \$0-colr-default;
#X floatatom 162 395 5 0 0 0 - - - 0;
#X obj 68 528 s \$0-colr-lblcurrent;
#X obj 46 495 f;
#X obj 63 473 r \$0-colr-lblactive;
#X obj 130 450 f;
#X obj 167 444 r \$0-colr-lbldefault;
#X obj 51 165 t b;
#X obj 40 215 t b b;
#X obj 122 313 t b;
#X obj 123 356 t b b;
#X obj 16 170 bng 16 250 50 0 empty empty empty 0 -8 0 10 #fcfcfc #000000 #000000;
#X obj 204 67 \$1;
#X floatatom 204 89 5 0 0 0 - - - 0;
#X obj 189 109 ==;
#X obj 170 36 t f f b;
#X obj 284 176 s \$0-\$1-iscurrently-sel;
#X connect 0 0 12 0;
#X connect 0 0 14 0;
#X connect 1 0 12 0;
#X connect 1 0 14 0;
#X connect 1 0 19 0;
#X connect 2 0 3 1;
#X connect 2 0 4 0;
#X connect 2 0 34 0;
#X connect 3 0 25 0;
#X connect 4 0 5 0;
#X connect 5 0 6 0;
#X connect 6 0 7 0;
#X connect 7 0 8 1;
#X connect 8 0 27 0;
#X connect 9 0 3 0;
#X connect 9 1 8 0;
#X connect 9 2 2 0;
#X connect 10 0 0 1;
#X connect 11 0 33 0;
#X connect 13 0 1 1;
#X connect 15 0 10 0;
#X connect 16 0 26 0;
#X connect 17 0 28 0;
#X connect 18 0 13 0;
#X connect 21 0 20 0;
#X connect 22 0 21 1;
#X connect 23 0 20 0;
#X connect 24 0 23 1;
#X connect 25 0 16 0;
#X connect 26 0 0 0;
#X connect 26 1 21 0;
#X connect 27 0 17 0;
#X connect 28 0 1 0;
#X connect 28 1 23 0;
#X connect 29 0 16 0;
#X connect 30 0 31 0;
#X connect 31 0 32 1;
#X connect 32 0 9 0;
#X connect 33 1 32 0;
#X connect 33 2 30 0;
#X restore 338 -402 pd \$0-tabselectcheck;
#X obj 34 -330 r \$0-colr-default;
#X obj 62 -308 r \$0-colr-borderdefault;
#X obj 278 -373 t b;
#X msg 366 -217 selected \$1;
#X obj 366 -237 spigot 0;
#X obj 411 -257 r \$0-sel-whenclicked;
#X msg 588 -241 index width height defaultcolor defaultlabel activecolor activelabel borderdefault borderactive selectedcolor holdtime textX textY btntext;
#X obj 209 -187 \$0;
#X obj 211 -205 t b;
#X msg 207 -167 \; \$1-this menuclose 1;
#X obj 18 -396 t b b b b b;
#X obj 210 -222 del 10;
#X obj 338 -381 t b b;
#X obj 16 -185 t b b p;
#X obj 17 -202 append \$0-bang c bc tx ty;
#X obj 207 -95 r \$0-text-x;
#X obj 245 -118 r \$0-text-y;
#X obj 19 -436 t b a b;
#X obj 29 -261 r \$0-colr-borderclr;
#X text 587 -271 Creation arguments in this order. Note* Only last argument is a symbol the rest are floats;
#X obj 282 -251 pack f s;
#X obj 327 -272 r \$0-btntext;
#N canvas 78 61 450 350 \$0-setonselect 0;
#X obj 116 26 inlet;
#X obj 121 138 ==;
#X obj 121 188 tgl 19 0 empty empty empty 0 -10 0 12 #fcfcfc #000000 #000000 0 1;
#X obj 68 211 spigot 0;
#X obj 121 65 unpack f f;
#X obj 155 109 \$1;
#X obj 121 89 t f b;
#X obj 121 162 t f;
#X obj 72 275 tgl 16 0 empty empty empty 0 -8 0 10 #fcfcfc #000000 #000000 0 1;
#X obj 72 296 s \$0-sel-whenclicked;
#X obj 30 136 t b;
#X obj 30 157 f;
#X obj 30 93 t b f;
#X connect 0 0 4 0;
#X connect 1 0 7 0;
#X connect 2 0 3 1;
#X connect 3 0 8 0;
#X connect 4 0 6 0;
#X connect 4 1 12 0;
#X connect 5 0 1 1;
#X connect 6 0 1 0;
#X connect 6 1 5 0;
#X connect 7 0 2 0;
#X connect 8 0 9 0;
#X connect 10 0 11 0;
#X connect 11 0 3 0;
#X connect 12 0 11 0;
#X connect 12 1 11 1;
#X restore 421 -367 pd \$0-setonselect;
#N canvas 78 61 450 350 \$0-setshowitems 0;
#X obj 116 26 inlet;
#X obj 121 138 ==;
#X obj 121 188 tgl 19 0 empty empty empty 0 -10 0 12 #fcfcfc #000000 #000000 0 1;
#X obj 68 211 spigot 0;
#X obj 121 65 unpack f f;
#X obj 155 109 \$1;
#X obj 121 89 t f b;
#X obj 121 162 t f;
#X obj 70 236 tgl 16 0 empty empty empty 0 -8 0 10 #fcfcfc #000000 #000000 0 1;
#X obj 41 136 t b;
#X obj 41 157 f;
#X obj 43 94 t b f;
#X obj 70 257 s \$0-showitemstatus;
#X obj 43 116 del 20;
#X obj 176 151 + 1;
#X connect 0 0 4 0;
#X connect 1 0 7 0;
#X connect 2 0 3 1;
#X connect 3 0 8 0;
#X connect 4 0 6 0;
#X connect 4 1 11 0;
#X connect 5 0 1 1;
#X connect 6 0 1 0;
#X connect 6 1 5 0;
#X connect 7 0 2 0;
#X connect 8 0 12 0;
#X connect 9 0 10 0;
#X connect 10 0 3 0;
#X connect 11 0 13 0;
#X connect 11 1 10 1;
#X connect 13 0 9 0;
#X restore 452 -325 pd \$0-setshowitems;
#X obj 572 -448 inlet;
#X obj 490 -400;
#X obj 277 -445 route float selected selonclick showitems v_pos;
#N canvas 78 61 450 350 \$0-setvisualposition 0;
#X obj 116 26 inlet;
#X obj 121 138 ==;
#X obj 121 188 tgl 19 0 empty empty empty 0 -10 0 12 #fcfcfc #000000 #000000 0 1;
#X obj 68 211 spigot 0;
#X obj 155 109 \$1;
#X obj 121 89 t f b;
#X obj 121 162 t f;
#X obj 41 136 t b;
#X obj 41 157 f;
#X obj 43 116 del 20;
#X obj 70 320 s \$0-v_pos;
#X obj 121 65 unpack f f f;
#X obj 193 203 tgl 19 0 empty empty empty 0 -10 0 12 #fcfcfc #000000 #000000 0 1;
#X obj 140 226 spigot 0;
#X obj 159 179 t b;
#X obj 159 200 f;
#X obj 161 159 del 20;
#X obj 47 79 t f;
#X obj 71 270 pack f f \$0;
#X obj 184 119 t b b f b;
#X msg 71 292 vis_pos \$1 \$2 \$3;
#X connect 0 0 11 0;
#X connect 1 0 6 0;
#X connect 2 0 3 1;
#X connect 2 0 12 0;
#X connect 3 0 18 0;
#X connect 4 0 1 1;
#X connect 5 0 1 0;
#X connect 5 1 4 0;
#X connect 6 0 2 0;
#X connect 7 0 8 0;
#X connect 8 0 3 0;
#X connect 9 0 7 0;
#X connect 11 0 5 0;
#X connect 11 1 17 0;
#X connect 11 2 19 0;
#X connect 12 0 13 1;
#X connect 13 0 18 1;
#X connect 14 0 15 0;
#X connect 15 0 13 0;
#X connect 16 0 14 0;
#X connect 17 0 8 1;
#X connect 18 0 20 0;
#X connect 19 0 9 0;
#X connect 19 1 16 0;
#X connect 19 2 15 1;
#X connect 19 3 18 2;
#X connect 20 0 10 0;
#X restore 480 -294 pd \$0-setvisualposition;
#X obj 205 -59 r \$0-v_pos;
#X msg 205 -31 \; pd-\$4-this \$1 \$2 \$3;
#X msg 351 -170 coords 0 \$2 \$1 0 \$1 \$2 2 30 30;
#X msg 415 -125 coords 0 0 1 1 \$1 \$2 2 0 0;
#X obj 188 131 r \$0-showitemstatus;
#X obj 189 178 sel 0;
#X msg 189 201 0;
#X msg 217 200 1;
#X obj 209 223 tgl 16 0 empty empty empty 0 -8 0 10 #fcfcfc #000000 #000000 0 1;
#X obj 226 375 spigot 0;
#X obj 337 423 r \$0-tocordsdata1;
#X obj 382 162 r \$0-tocordsdata2;
#X obj 336 444 unpack f f;
#X obj 384 186 unpack f f;
#X obj 229 272 t f f;
#X obj 319 489 pack f f f;
#X obj 329 399 t b b f;
#X obj 320 465 f;
#X obj 375 464 f;
#X obj 225 356 f;
#X obj 225 334 t b;
#X obj 226 290 t b f;
#X msg 317 565 coords 0 \$2 \$1 1 \$1 \$2 \$3 30 30;
#X obj 207 244 sel 0;
#X obj 225 313 del 20;
#X floatatom 423 479 5 0 0 0 - - - 0;
#X msg 249 248 2;
#X obj 188 155 tgl 16 0 empty empty empty 0 -8 0 10 #fcfcfc #000000 #000000 0 1;
#X msg 327 545 coords 0 0 1 1 \$1 \$2 \$3 0 0;
#X obj 122 428 r \$0-tocordsdata1;
#X obj 121 449 unpack f f;
#X obj 104 494 pack f f f;
#X obj 114 404 t b b f;
#X obj 105 470 f;
#X obj 132 472 f;
#X floatatom 208 484 5 0 0 0 - - - 0;
#X msg 109 524 coords 0 0 1 1 \$1 \$2 \$3 0 0;
#X msg 101 545 coords 0 \$2 \$1 1 \$1 \$2 \$3 30 30;
#X msg 131 331 0;
#X obj 130 309 t b;
#X floatatom 637 -135 3 0 0 0 - - - 0;
#X obj 637 -161 keyname;
#X symbolatom 710 -180 10 0 0 0 - - - 0;
#X obj 708 -121 symbol;
#X msg 709 -141 bang;
#X obj 710 -160 t b s;
#X obj 637 -78 pack f s;
#X obj 694 20 route Return;
#X obj 637 -25 unpack f s;
#X obj 605 112 spigot;
#X msg 694 -3 \$1;
#X obj 637 0 sel 1;
#X msg 637 81 1;
#X msg 669 75 0;
#X obj 604 133 t b b;
#X obj 244 -390 bng 15 250 50 0 empty empty empty 17 7 0 10 #fcfcfc #000000 #000000;
#X obj 603 173 spigot 0;
#X obj 653 153 tgl 15 0 empty empty empty 17 7 0 10 #fcfcfc #000000 #000000 0 1;
#X obj 651 133 r \$0-\$1-iscurrently-sel;
#X obj 17 -461 init;
#X connect 2 0 21 0;
#X connect 3 0 114 0;
#X connect 5 0 6 0;
#X connect 6 0 7 0;
#X connect 7 0 41 4;
#X connect 8 0 4 0;
#X connect 13 0 15 0;
#X connect 14 0 13 0;
#X connect 15 0 9 0;
#X connect 16 0 53 0;
#X connect 17 0 19 0;
#X connect 18 0 17 0;
#X connect 19 0 41 0;
#X connect 20 0 29 0;
#X connect 21 0 31 0;
#X connect 21 0 47 0;
#X connect 22 0 13 1;
#X connect 24 0 57 0;
#X connect 25 0 58 0;
#X connect 26 0 39 0;
#X connect 27 0 18 1;
#X connect 28 0 17 1;
#X connect 29 0 2 0;
#X connect 30 0 53 0;
#X connect 31 0 30 0;
#X connect 32 0 31 1;
#X connect 34 0 36 0;
#X connect 35 0 34 0;
#X connect 37 0 38 0;
#X connect 37 1 18 0;
#X connect 37 3 5 0;
#X connect 37 4 8 0;
#X connect 38 0 35 0;
#X connect 39 0 2 0;
#X connect 40 1 14 0;
#X connect 40 2 9 1;
#X connect 40 2 2 1;
#X connect 41 0 40 0;
#X connect 42 0 41 2;
#X connect 43 0 41 3;
#X connect 44 0 37 0;
#X connect 44 1 23 0;
#X connect 45 0 41 1;
#X connect 47 0 0 0;
#X connect 48 0 47 1;
#X connect 53 0 20 0;
#X connect 53 1 26 0;
#X connect 53 2 49 0;
#X connect 53 3 50 0;
#X connect 53 4 54 0;
#X connect 55 0 56 0;
#X connect 57 0 11 0;
#X connect 58 0 12 0;
#X connect 59 0 82 0;
#X connect 60 0 61 0;
#X connect 60 1 62 0;
#X connect 61 0 63 0;
#X connect 62 0 63 0;
#X connect 63 0 78 0;
#X connect 64 0 71 0;
#X connect 65 0 67 0;
#X connect 66 0 68 0;
#X connect 67 0 72 1;
#X connect 67 1 73 1;
#X connect 69 0 76 0;
#X connect 69 1 64 1;
#X connect 70 0 77 0;
#X connect 70 0 83 0;
#X connect 71 0 72 0;
#X connect 71 1 73 0;
#X connect 71 2 70 2;
#X connect 71 2 80 0;
#X connect 72 0 70 0;
#X connect 73 0 70 1;
#X connect 74 0 64 0;
#X connect 75 0 74 0;
#X connect 76 0 79 0;
#X connect 76 1 74 1;
#X connect 77 0 11 0;
#X connect 78 0 94 0;
#X connect 78 1 81 0;
#X connect 79 0 75 0;
#X connect 81 0 69 0;
#X connect 82 0 60 0;
#X connect 83 0 12 0;
#X connect 84 0 85 0;
#X connect 85 0 88 1;
#X connect 85 1 89 1;
#X connect 86 0 92 0;
#X connect 86 0 91 0;
#X connect 87 0 88 0;
#X connect 87 1 89 0;
#X connect 87 2 86 2;
#X connect 87 2 90 0;
#X connect 88 0 86 0;
#X connect 89 0 86 1;
#X connect 91 0 12 0;
#X connect 92 0 11 0;
#X connect 93 0 87 0;
#X connect 94 0 93 0;
#X connect 95 0 101 0;
#X connect 96 0 95 0;
#X connect 96 1 97 0;
#X connect 97 0 100 0;
#X connect 98 0 101 1;
#X connect 99 0 98 0;
#X connect 100 0 99 0;
#X connect 100 1 98 1;
#X connect 101 0 103 0;
#X connect 102 0 104 0;
#X connect 103 0 106 0;
#X connect 103 1 105 0;
#X connect 104 0 109 0;
#X connect 105 0 102 0;
#X connect 106 0 107 0;
#X connect 106 1 108 0;
#X connect 107 0 104 1;
#X connect 108 0 104 1;
#X connect 109 0 111 0;
#X connect 110 0 29 0;
#X connect 111 0 21 0;
#X connect 112 0 111 1;
#X connect 113 0 112 0;
#X connect 114 0 44 0;
#X coords 0 15 33 0 33 15 2 30 30;
