#N struct 1532-g1 float x float y float q float lw float lc float fc
float plc float pc float bgc;
#N canvas 354 88 1033 988 12;
#X obj 100 77 bng 15 250 50 0 empty empty empty 17 7 0 10 #fcfcfc #000000
#000000;
#X obj 99 173 outlet;
#X obj 122 48 inlet;
#X obj 123 73 t a;
#N canvas 223 58 1475 804 \$0-ce_knob 1;
#X obj 687 158 struct \$0-g1 float x float y float q float lw float
lc float fc float plc float pc float bgc, f 84;
#X obj 102 102 vsl 27 27 0 1 0 1 empty empty empty 0 -9 0 10 #ffffff
#00faff #ffffff 1500 1;
#X obj 100 100 cnv 15 32 32 empty empty empty 20 12 0 14 #e0e0e0 #404040
0;
#X obj 411 180 bng 15 250 50 0 empty empty create 18 7 0 8 #fcfcfc
#000000 #000000;
#X obj 401 94 loadbang;
#X obj 401 117 \$0;
#X text 1029 268 fc == fill color;
#X text 1029 289 lc == line color;
#N canvas -459 16 1920 997 \$0-innerknob 0;
#X scalar 1532-g1 1 1 0 0 999 701 0 0 999 \;;
#X coords 1 1 10 2 32 32 2 100 0;
#X restore 100 100 pd \$0-innerknob;
#X obj 15 704 outlet;
#X obj 691 2 inlet;
#N canvas 591 103 1073 639 \$0-linecolorsettings 0;
#X msg 575 280 next;
#X obj 563 304 pointer;
#X obj 483 331 set \$0-g1 lw;
#X floatatom 474 244 5 0 0 0 - - - 0;
#X obj 522 392 f;
#X obj 483 274 t f b b;
#X floatatom 483 304 5 0 0 0 - - - 0;
#X floatatom 130 474 5 0 0 0 - - - 0;
#X msg 107 408 22, f 4;
#X msg 223 494 next;
#X obj 211 518 pointer;
#X floatatom 130 520 5 0 0 0 - - - 0;
#X obj 130 496 t f b b;
#X obj 130 543 set \$0-g1 fc;
#X floatatom 442 425 5 0 0 0 - - - 0;
#X msg 535 445 next;
#X obj 523 469 pointer;
#X floatatom 442 481 5 0 0 0 - - - 0;
#X obj 442 447 t f b b;
#X obj 442 504 set \$0-g1 lc;
#X obj 223 390 f;
#X obj 559 204 f;
#X msg 563 255 traverse pd-\$1-innerknob \, bang;
#X msg 523 420 traverse pd-\$1-innerknob \, bang;
#X msg 211 469 traverse pd-\$1-innerknob \, bang;
#X obj 414 81 f;
#X obj 371 28 inlet;
#X obj 486 33 inlet;
#X obj 100 334 ce_colorpicker;
#X msg 92 280 randomize;
#X obj 129 448 f;
#X obj 201 271 t b f;
#X obj 202 298 bng 15 250 50 0 empty empty empty 17 7 0 10 #fcfcfc
#000000 #000000;
#X obj 236 442 s \$0-cebgcolor;
#X obj 201 245 r \$0-cefgcolor;
#X msg 448 203 0;
#X obj 352 310 t f;
#X obj 351 285 r \$0-celccolor;
#X obj 479 179 r \$0-celinewitdh;
#X obj 478 209 t f;
#X obj 683 459 f;
#X floatatom 603 492 5 0 0 0 - - - 0;
#X msg 696 512 next;
#X obj 684 536 pointer;
#X floatatom 603 548 5 0 0 0 - - - 0;
#X obj 603 514 t f b b;
#X msg 684 487 traverse pd-\$1-innerknob \, bang;
#X msg 602 462 999;
#X obj 603 571 set \$0-g1 bgc;
#X obj 416 105 t b b b b f b b f;
#X obj 606 388 t b f;
#X obj 570 393 bng 15 250 50 0 empty empty empty 17 7 0 10 #fcfcfc
#000000 #000000;
#X obj 606 362 r \$0-cebgcolor;
#X msg 441 395 990;
#X connect 0 0 1 0;
#X connect 1 0 2 1;
#X connect 3 0 5 0;
#X connect 4 0 23 0;
#X connect 5 0 6 0;
#X connect 5 1 0 0;
#X connect 5 2 21 0;
#X connect 6 0 2 0;
#X connect 7 0 12 0;
#X connect 9 0 10 0;
#X connect 10 0 13 1;
#X connect 11 0 13 0;
#X connect 12 0 11 0;
#X connect 12 1 9 0;
#X connect 12 2 20 0;
#X connect 14 0 18 0;
#X connect 15 0 16 0;
#X connect 16 0 19 1;
#X connect 17 0 19 0;
#X connect 18 0 17 0;
#X connect 18 1 15 0;
#X connect 18 2 4 0;
#X connect 20 0 24 0;
#X connect 21 0 22 0;
#X connect 22 0 1 0;
#X connect 23 0 16 0;
#X connect 24 0 10 0;
#X connect 25 0 49 0;
#X connect 26 0 25 0;
#X connect 27 0 25 1;
#X connect 28 3 30 1;
#X connect 29 0 28 0;
#X connect 30 0 7 0;
#X connect 31 0 32 0;
#X connect 31 1 30 1;
#X connect 32 0 30 0;
#X connect 34 0 31 0;
#X connect 35 0 3 0;
#X connect 36 0 14 0;
#X connect 37 0 36 0;
#X connect 38 0 39 0;
#X connect 39 0 3 0;
#X connect 40 0 46 0;
#X connect 41 0 45 0;
#X connect 42 0 43 0;
#X connect 43 0 48 1;
#X connect 44 0 48 0;
#X connect 45 0 44 0;
#X connect 45 1 42 0;
#X connect 45 2 40 0;
#X connect 46 0 43 0;
#X connect 47 0 41 0;
#X connect 49 1 35 0;
#X connect 49 2 53 0;
#X connect 49 3 30 0;
#X connect 49 3 8 0;
#X connect 49 4 21 1;
#X connect 49 4 4 1;
#X connect 49 4 20 1;
#X connect 49 5 29 0;
#X connect 49 6 47 0;
#X connect 49 7 40 1;
#X connect 50 0 51 0;
#X connect 50 1 41 0;
#X connect 52 0 50 0;
#X connect 53 0 14 0;
#X restore 417 283 pd \$0-linecolorsettings;
#N canvas 653 207 694 451 \$0-knoblocator 0;
#X obj 60 79 inlet;
#X obj 173 57 inlet;
#X obj 275 53 inlet;
#X obj 177 197 pointer;
#X msg 67 196 1 1;
#X obj 67 223 append \$0-g1 x y;
#X msg 221 130 \; pd-\$1-innerknob clear;
#X obj 175 83 f;
#X obj 175 107 t f f;
#X msg 178 172 traverse pd-\$1-innerknob \, bang;
#X obj 420 343 pointer;
#X msg 310 342 1 1;
#X msg 464 276 \; pd-\$1-innerknob clear;
#X obj 418 229 f;
#X obj 418 253 t f f;
#X msg 421 318 traverse pd-\$1-innerknob \, bang;
#X obj 310 369 append \$0-notch x y;
#X msg 72 51 1216;
#X connect 0 0 4 0;
#X connect 1 0 7 0;
#X connect 2 0 7 1;
#X connect 2 0 13 1;
#X connect 3 0 5 2;
#X connect 4 0 5 0;
#X connect 7 0 8 0;
#X connect 8 0 9 0;
#X connect 8 1 6 0;
#X connect 9 0 3 0;
#X connect 10 0 16 2;
#X connect 11 0 16 0;
#X connect 13 0 14 0;
#X connect 14 0 15 0;
#X connect 14 1 12 0;
#X connect 15 0 10 0;
#X connect 17 0 7 0;
#X restore 425 309 pd \$0-knoblocator;
#X text 1036 249 lw == line width;
#X text 1032 320 pc == fill color;
#X text 1032 341 plc == line color;
#X obj 29 208 f;
#X obj 28 181 r \$0-knobvalue;
#X obj 28 264 * 2;
#X obj 28 237 - 1;
#X obj 590 265 hradio 15 1 0 3 empty empty empty 0 -8 0 10 #fcfcfc
#000000 #000000 0;
#X obj 577 320 route float;
#X floatatom 577 344 5 0 0 0 - - - 0;
#X obj 577 366 sel 0 1 2;
#X floatatom 577 296 5 0 0 0 - - - 0;
#X obj 679 425 f;
#X obj 674 351 r \$0-knobvalue;
#X obj 679 380 t b;
#X obj 679 404 bng 15 250 50 0 empty empty empty 17 7 0 10 #fcfcfc
#000000 #000000;
#X obj 678 554 s;
#X msg 697 528 symbol pd-\$1-innerknob;
#X obj 577 391 bng 15 250 50 0 empty empty empty 17 7 0 10 #fcfcfc
#000000 #000000;
#X obj 597 391 bng 15 250 50 0 empty empty empty 17 7 0 10 #fcfcfc
#000000 #000000;
#X obj 617 391 bng 15 250 50 0 empty empty empty 17 7 0 10 #fcfcfc
#000000 #000000;
#X msg 606 441 100;
#X obj 678 475 f;
#X obj 534 474 s \$0-sizevalue;
#X obj 304 20 r \$0-sizevalue;
#X msg 304 66 size \$1 \$1;
#X msg 527 442 32;
#X msg 566 439 64;
#X obj 304 43 - 5;
#X obj 534 549 s \$0-knobposition;
#X obj 534 502 r \$0-sizevalue;
#X obj 820 595 r \$0-sizevalue;
#X obj 802 731 s;
#X msg 817 703 symbol pd-\$1-ce_knob;
#X obj 802 621 f;
#X obj 678 448 t b f b;
#X floatatom 827 648 5 0 0 0 - - - 0;
#X obj 682 98 t f;
#X obj 681 121 s \$0-cefgcolor;
#X obj 790 123 s \$0-cebgcolor;
#X obj 790 99 t f;
#X obj 895 101 t f;
#X obj 895 125 s \$0-celccolor;
#X obj 938 75 t f;
#X obj 937 100 s \$0-celinewitdh;
#X obj 1097 106 s \$0-cemin;
#X obj 1186 106 s \$0-cemax;
#X msg 401 335 reset;
#X obj 1092 376 r \$0-cemax;
#X obj 1010 376 r \$0-cemin;
#X obj 1062 81 t b f;
#X obj 1154 77 t b f;
#X floatatom 1011 403 5 0 0 0 - - - 0;
#X floatatom 26 287 5 0 0 0 - - - 0;
#X obj 26 311 * 10;
#X floatatom 1057 403 5 0 0 0 - - - 0;
#X obj 985 437 pack f f f;
#X msg 966 403 0;
#X msg 974 465 range \$2 \$3;
#X obj 15 539 vsl 15 128 0 10 0 1 empty empty empty 0 -9 0 10 #fcfcfc
#000000 #000000 7327 1;
#X floatatom 15 679 5 0 0 0 - - - 0;
#X floatatom 36 348 5 0 0 0 - - - 0;
#X obj 460 374 pdcontrol;
#X msg 460 347 dir;
#X obj 458 401 s \$0-patchloc;
#X obj 433 138 t b f f b b b b;
#X text 680 260 square;
#X text 679 303 circle;
#X text 681 197 draw these items below from top to bottom to ensure
they are drawn in order. May need to copy and paste them from top to
bottom one at a time if changes are made directly to this patch.;
#X obj 411 225 t b b b b b b;
#X msg 802 674 coords 1 2 2 \$1 \$1 \$1 2 100 100 100 \, dirty 0;
#X obj 245 368 - 1;
#X obj 246 391 * 2;
#X obj 247 489 int;
#X floatatom 247 516 5 0 0 0 - - - 0;
#X floatatom 247 567 5 0 0 0 - - - 0;
#X obj 247 541 route float;
#X obj 247 439 t f;
#X obj 247 415 t f f;
#X obj 247 464 * 10;
#X floatatom 246 344 5 0 0 0 - - - 0;
#X obj 210 635 bng 15 250 50 0 empty empty empty 17 7 0 10 #fcfcfc
#000000 #000000;
#X obj 232 633 bng 15 250 50 0 empty empty empty 17 7 0 10 #fcfcfc
#000000 #000000;
#X obj 255 633 bng 15 250 50 0 empty empty empty 17 7 0 10 #fcfcfc
#000000 #000000;
#X obj 350 635 bng 15 250 50 0 empty empty empty 17 7 0 10 #fcfcfc
#000000 #000000;
#X obj 402 638 bng 15 250 50 0 empty empty empty 17 7 0 10 #fcfcfc
#000000 #000000;
#X obj 456 637 bng 15 250 50 0 empty empty empty 17 7 0 10 #fcfcfc
#000000 #000000;
#X obj 510 638 bng 15 250 50 0 empty empty empty 17 7 0 10 #fcfcfc
#000000 #000000;
#X obj 559 640 bng 15 250 50 0 empty empty empty 17 7 0 10 #fcfcfc
#000000 #000000;
#X obj 613 636 bng 15 250 50 0 empty empty empty 17 7 0 10 #fcfcfc
#000000 #000000;
#X obj 671 638 bng 15 250 50 0 empty empty empty 17 7 0 10 #fcfcfc
#000000 #000000;
#X obj 729 637 bng 15 250 50 0 empty empty empty 17 7 0 10 #fcfcfc
#000000 #000000;
#X obj 275 634 bng 15 250 50 0 empty empty empty 17 7 0 10 #fcfcfc
#000000 #000000;
#X obj 302 634 bng 15 250 50 0 empty empty empty 17 7 0 10 #fcfcfc
#000000 #000000;
#X obj 322 635 bng 15 250 50 0 empty empty empty 17 7 0 10 #fcfcfc
#000000 #000000;
#X obj 376 637 bng 15 250 50 0 empty empty empty 17 7 0 10 #fcfcfc
#000000 #000000;
#X obj 429 637 bng 15 250 50 0 empty empty empty 17 7 0 10 #fcfcfc
#000000 #000000;
#X obj 485 639 bng 15 250 50 0 empty empty empty 17 7 0 10 #fcfcfc
#000000 #000000;
#X obj 531 638 bng 15 250 50 0 empty empty empty 17 7 0 10 #fcfcfc
#000000 #000000;
#X obj 587 637 bng 15 250 50 0 empty empty empty 17 7 0 10 #fcfcfc
#000000 #000000;
#X obj 640 638 bng 15 250 50 0 empty empty empty 17 7 0 10 #fcfcfc
#000000 #000000;
#X obj 702 636 bng 15 250 50 0 empty empty empty 17 7 0 10 #fcfcfc
#000000 #000000;
#X obj 246 592 sel 0 0.5 1 1.5 2 2.5 3 3.5 4 4.5 5 5.5 6 6.5 7 7.5
8 8.5 9 9.5 10;
#X obj 418 686 s \$0-knobvalue;
#N canvas 551 159 1920 997 \$0-val0 0;
#X obj 45 152 pack s s;
#X msg 45 102 symbol /images/value-0-\$1.gif;
#X msg 45 175 open \$2\$1;
#X obj 45 227 outlet;
#X obj 45 200 t a;
#X obj 44 -4 inlet;
#X obj 98 128 r \$0-patchloc;
#X obj 45 78 f;
#X obj 65 52 r \$0-sizevalue;
#X obj 309 152 pdcontrol;
#X msg 309 125 dir;
#X obj 307 179 s \$0-patchloc;
#X obj 46 20 t b b;
#X connect 0 0 2 0;
#X connect 1 0 0 0;
#X connect 2 0 4 0;
#X connect 4 0 3 0;
#X connect 5 0 12 0;
#X connect 6 0 0 1;
#X connect 7 0 1 0;
#X connect 8 0 7 1;
#X connect 9 0 11 0;
#X connect 10 0 9 0;
#X connect 12 0 7 0;
#X connect 12 1 10 0;
#X restore 139 363 pd \$0-val0;
#N canvas 551 159 1920 997 \$0-val1 0;
#X obj 45 152 pack s s;
#X msg 45 175 open \$2\$1;
#X obj 45 227 outlet;
#X obj 45 200 t a;
#X obj 45 27 inlet;
#X obj 98 128 r \$0-patchloc;
#X obj 45 78 f;
#X obj 65 52 r \$0-sizevalue;
#X msg 45 102 symbol /images/value-1-\$1.gif;
#X connect 0 0 1 0;
#X connect 1 0 3 0;
#X connect 3 0 2 0;
#X connect 4 0 6 0;
#X connect 5 0 0 1;
#X connect 6 0 8 0;
#X connect 7 0 6 1;
#X connect 8 0 0 0;
#X restore 134 390 pd \$0-val1;
#N canvas 551 159 1920 997 \$0-val2 0;
#X obj 45 152 pack s s;
#X msg 45 175 open \$2\$1;
#X obj 45 227 outlet;
#X obj 45 200 t a;
#X obj 45 27 inlet;
#X obj 98 128 r \$0-patchloc;
#X obj 45 78 f;
#X obj 65 52 r \$0-sizevalue;
#X msg 45 102 symbol /images/value-2-\$1.gif;
#X connect 0 0 1 0;
#X connect 1 0 3 0;
#X connect 3 0 2 0;
#X connect 4 0 6 0;
#X connect 5 0 0 1;
#X connect 6 0 8 0;
#X connect 7 0 6 1;
#X connect 8 0 0 0;
#X restore 126 419 pd \$0-val2;
#N canvas 551 159 1920 997 \$0-val3 0;
#X obj 45 152 pack s s;
#X msg 45 175 open \$2\$1;
#X obj 45 227 outlet;
#X obj 45 200 t a;
#X obj 45 27 inlet;
#X obj 98 128 r \$0-patchloc;
#X obj 45 78 f;
#X obj 65 52 r \$0-sizevalue;
#X msg 45 102 symbol /images/value-3-\$1.gif;
#X connect 0 0 1 0;
#X connect 1 0 3 0;
#X connect 3 0 2 0;
#X connect 4 0 6 0;
#X connect 5 0 0 1;
#X connect 6 0 8 0;
#X connect 7 0 6 1;
#X connect 8 0 0 0;
#X restore 117 449 pd \$0-val3;
#N canvas 275 357 404 360 \$0-val4 0;
#X obj 45 152 pack s s;
#X msg 45 175 open \$2\$1;
#X obj 45 227 outlet;
#X obj 45 200 t a;
#X obj 45 27 inlet;
#X obj 98 128 r \$0-patchloc;
#X obj 45 78 f;
#X obj 65 52 r \$0-sizevalue;
#X msg 45 102 symbol /images/value-4-\$1.gif;
#X connect 0 0 1 0;
#X connect 1 0 3 0;
#X connect 3 0 2 0;
#X connect 4 0 6 0;
#X connect 5 0 0 1;
#X connect 6 0 8 0;
#X connect 7 0 6 1;
#X connect 8 0 0 0;
#X restore 105 478 pd \$0-val4;
#N canvas 336 200 448 446 \$0-val5 0;
#X obj 45 152 pack s s;
#X msg 45 175 open \$2\$1;
#X obj 45 227 outlet;
#X obj 45 200 t a;
#X obj 45 27 inlet;
#X obj 98 128 r \$0-patchloc;
#X obj 45 78 f;
#X obj 65 52 r \$0-sizevalue;
#X msg 45 102 symbol /images/value-5-\$1.gif;
#X connect 0 0 1 0;
#X connect 1 0 3 0;
#X connect 3 0 2 0;
#X connect 4 0 6 0;
#X connect 5 0 0 1;
#X connect 6 0 8 0;
#X connect 7 0 6 1;
#X connect 8 0 0 0;
#X restore 99 504 pd \$0-val5;
#N canvas 551 159 1920 997 \$0-val6 0;
#X obj 45 152 pack s s;
#X msg 45 175 open \$2\$1;
#X obj 45 227 outlet;
#X obj 45 200 t a;
#X obj 45 27 inlet;
#X obj 98 128 r \$0-patchloc;
#X obj 45 78 f;
#X obj 65 52 r \$0-sizevalue;
#X msg 45 102 symbol /images/value-6-\$1.gif;
#X connect 0 0 1 0;
#X connect 1 0 3 0;
#X connect 3 0 2 0;
#X connect 4 0 6 0;
#X connect 5 0 0 1;
#X connect 6 0 8 0;
#X connect 7 0 6 1;
#X connect 8 0 0 0;
#X restore 91 533 pd \$0-val6;
#N canvas 802 327 509 464 \$0-val7 0;
#X obj 45 152 pack s s;
#X msg 45 175 open \$2\$1;
#X obj 45 227 outlet;
#X obj 45 200 t a;
#X obj 45 27 inlet;
#X obj 98 128 r \$0-patchloc;
#X obj 45 78 f;
#X obj 65 52 r \$0-sizevalue;
#X msg 45 101 symbol /images/value-7-\$1.gif;
#X connect 0 0 1 0;
#X connect 1 0 3 0;
#X connect 3 0 2 0;
#X connect 4 0 6 0;
#X connect 5 0 0 1;
#X connect 6 0 8 0;
#X connect 7 0 6 1;
#X connect 8 0 0 0;
#X restore 82 563 pd \$0-val7;
#N canvas 607 381 480 322 \$0-val8 0;
#X obj 45 152 pack s s;
#X msg 45 175 open \$2\$1;
#X obj 45 227 outlet;
#X obj 45 200 t a;
#X obj 45 27 inlet;
#X obj 98 128 r \$0-patchloc;
#X obj 45 78 f;
#X obj 65 52 r \$0-sizevalue;
#X msg 45 102 symbol /images/value-8-\$1.gif;
#X connect 0 0 1 0;
#X connect 1 0 3 0;
#X connect 3 0 2 0;
#X connect 4 0 6 0;
#X connect 5 0 0 1;
#X connect 6 0 8 0;
#X connect 7 0 6 1;
#X connect 8 0 0 0;
#X restore 86 592 pd \$0-val8;
#N canvas 757 282 391 379 \$0-val9 0;
#X obj 45 152 pack s s;
#X msg 45 175 open \$2\$1;
#X obj 45 227 outlet;
#X obj 45 200 t a;
#X obj 45 27 inlet;
#X obj 98 128 r \$0-patchloc;
#X obj 45 78 f;
#X obj 65 52 r \$0-sizevalue;
#X msg 45 102 symbol /images/value-9-\$1.gif;
#X connect 0 0 1 0;
#X connect 1 0 3 0;
#X connect 3 0 2 0;
#X connect 4 0 6 0;
#X connect 5 0 0 1;
#X connect 6 0 8 0;
#X connect 7 0 6 1;
#X connect 8 0 0 0;
#X restore 78 621 pd \$0-val9;
#N canvas 467 363 416 328 \$0-val10 0;
#X obj 45 152 pack s s;
#X msg 45 175 open \$2\$1;
#X obj 45 227 outlet;
#X obj 45 200 t a;
#X obj 45 27 inlet;
#X obj 98 128 r \$0-patchloc;
#X obj 45 78 f;
#X obj 65 52 r \$0-sizevalue;
#X msg 45 102 symbol /images/value-10-\$1.gif;
#X connect 0 0 1 0;
#X connect 1 0 3 0;
#X connect 3 0 2 0;
#X connect 4 0 6 0;
#X connect 5 0 0 1;
#X connect 6 0 8 0;
#X connect 7 0 6 1;
#X connect 8 0 0 0;
#X restore 69 651 pd \$0-val10;
#X obj 105 -21 r \$0-knobposition;
#X msg 103 33 pos \$1 \$1;
#X msg 247 59 bang;
#X obj 275 38 bng 15 250 50 0 empty empty empty 17 7 0 10 #fcfcfc #000000
#000000;
#X obj 247 14 t b b;
#X obj 570 232 s \$0-sizevalue;
#X obj 571 171 del 100;
#X obj 20 53 iemgui;
#X msg 570 209 32;
#X obj 99 99 iem_image C:/Users/Retro/Documents/Pd/externals/clearessentials/images/value-5-32.gif
0 0 empty empty;
#X obj 898 739 outlet;
#X msg 502 174 0;
#X obj 1215 210 route float;
#X floatatom 1216 235 5 0 0 0 - - - 0;
#X obj 534 525 / 32;
#X obj 1243 264 sel 0;
#X obj 104 5 + 99;
#X obj 1216 321 f;
#X obj 1214 297 t b f;
#X obj 1218 346 t f;
#X obj 692 34 route bang setfgcolor setbgcolor setlinecolor setlinewidth
setmin setmax setsize setvalue, f 78;
#X obj 1306 106 f;
#X obj 1305 84 t b f;
#X obj 1308 131 t f;
#X obj 1310 155 s \$0-ceknobvalue;
#X obj 169 182 r \$0-ceknobvalue;
#X obj 169 205 t b f;
#X obj 169 229 bng 15 250 50 0 empty empty empty 17 7 0 10 #fcfcfc
#000000 #000000;
#X floatatom 219 233 5 0 0 0 - - - 0;
#X msg 519 104 range 0 1;
#X obj 1343 227 * 0.1;
#X floatatom 1352 290 5 0 0 0 - - - 0;
#X obj 1275 409 / 2;
#X obj 1283 367 + 2;
#X obj 687 283 filledpolygon bgc bgc lw -1 -2 0 -2 0 0 -1 0;
#X obj 683 320 filledcurve fc lc lw -1 -2 0 -2 0 0 -1 0;
#X msg 678 498 donecanvasdialog 1 2 2 1 1 10 2 \$1 \$1 \$1 \, dirty
0;
#X connect 1 0 161 0;
#X connect 3 0 82 0;
#X connect 4 0 5 0;
#X connect 4 0 60 0;
#X connect 4 0 78 0;
#X connect 5 0 25 1;
#X connect 5 0 46 0;
#X connect 10 0 148 0;
#X connect 16 0 19 0;
#X connect 17 0 16 0;
#X connect 18 0 66 0;
#X connect 19 0 18 0;
#X connect 20 0 24 0;
#X connect 21 0 22 0;
#X connect 22 0 23 0;
#X connect 23 0 31 0;
#X connect 23 1 32 0;
#X connect 23 2 33 0;
#X connect 24 0 21 0;
#X connect 25 0 48 0;
#X connect 26 0 27 0;
#X connect 27 0 28 0;
#X connect 28 0 25 0;
#X connect 30 0 29 1;
#X connect 31 0 39 0;
#X connect 32 0 40 0;
#X connect 33 0 34 0;
#X connect 34 0 35 1;
#X connect 34 0 36 0;
#X connect 34 0 142 1;
#X connect 35 0 164 0;
#X connect 37 0 41 0;
#X connect 38 0 1 0;
#X connect 39 0 35 1;
#X connect 39 0 36 0;
#X connect 39 0 142 1;
#X connect 40 0 35 1;
#X connect 40 0 36 0;
#X connect 40 0 142 1;
#X connect 41 0 38 0;
#X connect 43 0 142 0;
#X connect 44 0 47 1;
#X connect 46 0 45 1;
#X connect 47 0 83 0;
#X connect 47 0 49 0;
#X connect 48 0 35 0;
#X connect 48 1 30 0;
#X connect 48 2 47 0;
#X connect 50 0 51 0;
#X connect 53 0 52 0;
#X connect 54 0 55 0;
#X connect 56 0 57 0;
#X connect 61 0 68 0;
#X connect 62 0 65 0;
#X connect 63 0 70 0;
#X connect 63 1 58 0;
#X connect 64 0 70 0;
#X connect 64 1 59 0;
#X connect 65 0 69 1;
#X connect 66 0 67 0;
#X connect 67 0 74 0;
#X connect 68 0 69 2;
#X connect 69 0 71 0;
#X connect 70 0 69 0;
#X connect 71 0 72 0;
#X connect 72 0 73 0;
#X connect 73 0 9 0;
#X connect 74 0 72 0;
#X connect 75 0 77 0;
#X connect 76 0 75 0;
#X connect 78 0 3 0;
#X connect 78 1 12 2;
#X connect 78 2 11 1;
#X connect 78 3 139 0;
#X connect 78 4 157 0;
#X connect 78 5 134 0;
#X connect 78 6 76 0;
#X connect 82 0 117 0;
#X connect 82 1 11 0;
#X connect 82 3 12 0;
#X connect 82 4 12 1;
#X connect 82 5 76 0;
#X connect 83 0 138 0;
#X connect 83 0 45 0;
#X connect 84 0 85 0;
#X connect 85 0 91 0;
#X connect 86 0 87 0;
#X connect 87 0 89 0;
#X connect 88 0 115 0;
#X connect 89 0 88 0;
#X connect 90 0 92 0;
#X connect 91 0 90 0;
#X connect 92 0 86 0;
#X connect 93 0 84 0;
#X connect 94 0 116 0;
#X connect 94 0 117 0;
#X connect 95 0 116 0;
#X connect 96 0 116 0;
#X connect 96 0 118 0;
#X connect 97 0 116 0;
#X connect 97 0 120 0;
#X connect 98 0 116 0;
#X connect 98 0 121 0;
#X connect 99 0 116 0;
#X connect 99 0 122 0;
#X connect 100 0 116 0;
#X connect 100 0 123 0;
#X connect 101 0 116 0;
#X connect 101 0 124 0;
#X connect 102 0 116 0;
#X connect 102 0 125 0;
#X connect 103 0 116 0;
#X connect 103 0 126 0;
#X connect 104 0 116 0;
#X connect 104 0 127 0;
#X connect 105 0 116 0;
#X connect 106 0 116 0;
#X connect 106 0 119 0;
#X connect 107 0 116 0;
#X connect 108 0 116 0;
#X connect 109 0 116 0;
#X connect 110 0 116 0;
#X connect 111 0 116 0;
#X connect 112 0 116 0;
#X connect 113 0 116 0;
#X connect 114 0 116 0;
#X connect 115 0 94 0;
#X connect 115 1 95 0;
#X connect 115 2 96 0;
#X connect 115 3 105 0;
#X connect 115 4 106 0;
#X connect 115 5 107 0;
#X connect 115 6 97 0;
#X connect 115 7 108 0;
#X connect 115 8 98 0;
#X connect 115 9 109 0;
#X connect 115 10 99 0;
#X connect 115 11 110 0;
#X connect 115 12 100 0;
#X connect 115 13 111 0;
#X connect 115 14 101 0;
#X connect 115 15 112 0;
#X connect 115 16 102 0;
#X connect 115 17 113 0;
#X connect 115 18 103 0;
#X connect 115 19 114 0;
#X connect 115 20 104 0;
#X connect 117 0 137 0;
#X connect 118 0 137 0;
#X connect 119 0 137 0;
#X connect 120 0 137 0;
#X connect 121 0 137 0;
#X connect 122 0 137 0;
#X connect 123 0 137 0;
#X connect 124 0 137 0;
#X connect 125 0 137 0;
#X connect 126 0 137 0;
#X connect 127 0 137 0;
#X connect 128 0 144 0;
#X connect 129 0 137 0;
#X connect 130 0 1 0;
#X connect 131 0 1 0;
#X connect 132 0 130 0;
#X connect 132 1 131 0;
#X connect 136 0 133 0;
#X connect 139 0 20 0;
#X connect 140 0 141 0;
#X connect 141 0 143 0;
#X connect 141 0 146 0;
#X connect 142 0 42 0;
#X connect 143 0 145 0;
#X connect 143 1 145 0;
#X connect 144 0 129 0;
#X connect 144 0 132 0;
#X connect 145 0 147 0;
#X connect 146 0 145 0;
#X connect 146 1 145 1;
#X connect 147 0 20 0;
#X connect 148 0 3 0;
#X connect 148 1 50 0;
#X connect 148 2 53 0;
#X connect 148 3 54 0;
#X connect 148 4 56 0;
#X connect 148 5 63 0;
#X connect 148 6 64 0;
#X connect 148 7 140 0;
#X connect 148 8 158 0;
#X connect 148 8 150 0;
#X connect 149 0 151 0;
#X connect 150 0 149 0;
#X connect 150 1 149 1;
#X connect 151 0 152 0;
#X connect 153 0 154 0;
#X connect 154 0 155 0;
#X connect 154 1 1 0;
#X connect 154 1 156 0;
#X connect 155 0 1 0;
#X connect 157 0 1 0;
#X connect 158 0 159 0;
#X connect 160 0 16 1;
#X connect 160 0 93 0;
#X connect 161 0 160 0;
#X connect 164 0 29 0;
#X coords 1 2 2 32 32 32 2 100 100;
#X restore 100 100 pd \$0-ce_knob;
#X obj 229 75 t a;
#X obj 228 125 namecanvas \$0-knobparent;
#X obj 228 99 s \$0-knobparent;
#X connect 2 0 3 0;
#X connect 3 0 4 0;
#X connect 4 0 1 0;
#X connect 4 1 5 0;
#X connect 5 0 7 0;
#X coords 1 2 2 32 32 32 2 100 100;
