#N struct 1778-g1 float x float y float q float lw float lc float fc
float plc float pc float bgc;
#N struct 1780-g1 float x float y float q float lw float lc float fc
float plc float pc float bgc;
#N struct 1784-g1 float x float y float q float lw float lc float fc
float plc float pc float bgc;
#N canvas 641 174 1124 554 12;
#X declare -path clearessentials;
#X obj 408 411 print;
#X obj 500 348 ce_knob64;
#X obj 596 330 ce_knob100;
#X text 610 305 ce_knob100;
#X text 497 318 ce_knob64;
#X text 389 335 ce_knob32;
#X obj 500 425 print, f 6;
#X obj 596 439 print;
#X text 14 52 Written By: Reg Finley;
#X text 13 73 Aka Scr1ptAl1as;
#X text 15 112 Pd 0.52.2;
#X obj 15 158 reportissue;
#X obj 15 138 aboutexternal;
#X text 229 46 [ce_knob32];
#X text 325 46 [ce_knob64];
#X text 424 46 [ce_knob100];
#X text 229 74 Currently sizes can not be adjusted "live" or on the
fly.;
#X text 230 163 Overlay images are named with this syntax from 0 to
10;
#X text 243 194 value-0-32.gif;
#X text 243 216 value-1-32.gif;
#X text 243 236 value-2-32.gif;
#X text 356 191 value-0-64.gif;
#X text 356 213 value-1-64.gif;
#X text 356 233 value-2-64.gif;
#X text 244 253 ect...;
#X text 356 253 ect...;
#X text 478 256 ect...;
#X text 478 194 value-0-100.gif;
#X text 478 216 value-1-100.gif;
#X text 478 236 value-2-100.gif;
#X text 13 91 2022/06/26 11:02PM;
#X text 645 7 Note* open value-0-32.gif \, value-0-64.gif or value-0-100.gif
in your favorite image editor to see how the overlay is designed.;
#X text 655 64 Backup images are located in:;
#X text 652 83 "clearessentials/images/";
#X text 13 33 ce_knob100 v1.0;
#X text 229 3 ce_knob100 is forced to one of 3 sizes 32px 64px and
100px each is created with te syntax below.;
#X text 231 108 [ce_knob100] works with a hidden vslider that updates
a overlay image based on its current value for each value change of
the vslider.;
#X obj 408 365 ce_knob32;
#X obj 14 6 declare -path clearessentials;
#X obj 17 180 watchtutorial;
#X text 656 108 iemgui is needed for this external.;
#X connect 1 0 6 0;
#X connect 2 0 7 0;
#X connect 37 0 0 0;
#X coords 0 554 1 553 32 32 0;
