#N canvas 735 203 790 563 12;
#X declare -path clearessentials;
#X text 27 49 Written By: Reg Finley;
#X text 26 70 Aka Scr1ptAl1as;
#X text 28 109 Pd 0.52.2;
#X obj 28 155 reportissue;
#X obj 28 135 aboutexternal;
#X text 26 88 2022/06/21 6:08PM;
#X obj 151 220 ce_lfopartials;
#X text 232 5 ce_lfopartials enables automation to partial elements
of the ocs voice..;
#X text 233 49 Partials lfo's are indexed from top to bottom left to
right.;
#X text 26 30 ce_partials v1.0;
#X obj 14 6 declare -path clearessentials;
#X obj 31 176 watchtutorial;
