#N canvas 304 15 1920 997 12;
#X obj 100 100 cnv 15 500 155 empty empty Partials\\\ LFO's 3 12 0
14 #606060 #ffffff 0;
#X obj 666 493 outlet;
#X msg 681 174 setslidervalue 0 \$1;
#X floatatom 683 150 5 0 0 0 - - - 0;
#X floatatom 698 199 5 0 0 0 - - - 0;
#X floatatom 709 249 5 0 0 0 - - - 0;
#X floatatom 732 298 5 0 0 0 - - - 0;
#X msg 696 223 setslidervalue 1 \$1;
#X msg 707 271 setslidervalue 2 \$1;
#X msg 731 323 setslidervalue 3 \$1;
#X floatatom 744 349 5 0 0 0 - - - 0;
#X msg 743 374 setslidervalue 4 \$1;
#X floatatom 754 402 5 0 0 0 - - - 0;
#X msg 753 427 setslidervalue 5 \$1;
#X floatatom 902 152 5 0 0 0 - - - 0;
#X floatatom 917 201 5 0 0 0 - - - 0;
#X floatatom 928 251 5 0 0 0 - - - 0;
#X floatatom 951 300 5 0 0 0 - - - 0;
#X floatatom 963 351 5 0 0 0 - - - 0;
#X floatatom 973 404 5 0 0 0 - - - 0;
#X msg 900 176 setslidervalue 6 \$1;
#X msg 915 225 setslidervalue 7 \$1;
#X msg 926 273 setslidervalue 8 \$1;
#X msg 950 325 setslidervalue 9 \$1;
#X msg 962 376 setslidervalue 10 \$1;
#X msg 972 429 setslidervalue 11 \$1;
#X obj 125 123 cnv 15 16 16 empty empty 1 3 8 0 14 #606060 #000000
0;
#X obj 125 145 cnv 15 16 16 empty empty 2 3 8 0 14 #606060 #000000
0;
#X obj 125 168 cnv 15 16 16 empty empty 3 3 8 0 14 #606060 #000000
0;
#X obj 125 190 cnv 15 16 16 empty empty 4 3 8 0 14 #606060 #000000
0;
#X obj 125 212 cnv 15 16 16 empty empty 5 3 8 0 14 #606060 #000000
0;
#X obj 125 234 cnv 15 16 16 empty empty 6 3 8 0 14 #606060 #000000
0;
#X obj 370 123 cnv 15 16 16 empty empty 7 3 8 0 14 #606060 #000000
0;
#X obj 370 145 cnv 15 16 16 empty empty 8 3 8 0 14 #606060 #000000
0;
#X obj 370 168 cnv 15 16 16 empty empty 9 3 8 0 14 #606060 #000000
0;
#X obj 370 190 cnv 15 16 16 empty empty 10 3 8 0 14 #606060 #000000
0;
#X obj 370 212 cnv 15 16 16 empty empty 11 3 8 0 14 #606060 #000000
0;
#X obj 370 234 cnv 15 16 16 empty empty 12 3 8 0 14 #606060 #000000
0;
#X obj 157 122 ce_lfopresets 20;
#X obj 157 145 ce_lfopresets 21;
#X obj 157 167 ce_lfopresets 22;
#X obj 157 190 ce_lfopresets 23;
#X obj 157 213 ce_lfopresets 24;
#X obj 157 235 ce_lfopresets 25;
#X obj 404 122 ce_lfopresets 26;
#X obj 404 145 ce_lfopresets 27;
#X obj 404 167 ce_lfopresets 28;
#X obj 404 190 ce_lfopresets 29;
#X obj 404 212 ce_lfopresets 30;
#X obj 404 234 ce_lfopresets 31;
#X msg 80 382 inputmidi \$1 \$2;
#X obj 79 277 inlet;
#X obj 79 359 t a;
#X obj 65 962 outlet;
#X obj 936 464 t b;
#X obj 939 492 bng 15 250 50 0 empty empty get_datadump 17 7 0 10 #fcfcfc
#000000 #000000;
#X msg 916 583 symbol ce_lfopartials;
#X obj 982 562 bng 15 250 50 0 empty empty get_datadump 17 7 0 10 #fcfcfc
#000000 #000000;
#X floatatom 351 862 5 0 0 0 - - - 0;
#X floatatom 760 864 5 0 0 0 - - - 0;
#X floatatom 1188 865 5 0 0 0 - - - 0;
#X floatatom 1624 859 5 0 0 0 - - - 0;
#X floatatom 137 815 5 0 0 0 - - - 0;
#X floatatom 627 865 5 0 0 0 - - - 0;
#X floatatom 1027 865 5 0 0 0 - - - 0;
#X floatatom 1476 858 5 0 0 0 - - - 0;
#X floatatom -16 820 5 0 0 0 - - - 0;
#X floatatom 490 866 5 0 0 0 - - - 0;
#X floatatom 894 865 5 0 0 0 - - - 0;
#X floatatom 1331 860 5 0 0 0 - - - 0;
#X obj 627 833 f;
#X obj 760 830 f;
#X obj 760 805 t b;
#X obj 894 831 f;
#X obj 894 806 t b;
#X obj 1027 832 f;
#X obj 1027 807 t b;
#X obj 351 829 f;
#X obj 351 805 t b;
#X obj 490 833 f;
#X obj 490 808 t b;
#X obj 627 808 t b;
#X obj -17 791 f;
#X obj -16 764 t b;
#X obj 137 785 f;
#X obj 137 760 t b;
#X obj 1188 833 f;
#X obj 1331 828 f;
#X obj 1331 803 t b;
#X obj 1476 828 f;
#X obj 1476 803 t b;
#X obj 1624 830 f;
#X obj 1624 805 t b;
#X obj 1188 808 t b;
#X msg 968 635 get_osctype;
#X obj 1087 630 s \$0-bangtypes;
#X obj -58 304 r \$0-bangtypes;
#X floatatom 395 861 5 0 0 0 - - - 0;
#X floatatom 805 866 5 0 0 0 - - - 0;
#X floatatom 1236 862 5 0 0 0 - - - 0;
#X floatatom 1668 860 5 0 0 0 - - - 0;
#X floatatom 178 813 5 0 0 0 - - - 0;
#X floatatom 672 867 5 0 0 0 - - - 0;
#X floatatom 1075 863 5 0 0 0 - - - 0;
#X floatatom 1524 857 5 0 0 0 - - - 0;
#X floatatom 26 814 5 0 0 0 - - - 0;
#X floatatom 532 866 5 0 0 0 - - - 0;
#X floatatom 942 866 5 0 0 0 - - - 0;
#X floatatom 1374 860 5 0 0 0 - - - 0;
#X obj 672 835 f;
#X obj 805 832 f;
#X obj 805 807 t b;
#X obj 942 832 f;
#X obj 942 807 t b;
#X obj 1075 830 f;
#X obj 1075 805 t b;
#X obj 395 828 f;
#X obj 395 804 t b;
#X obj 532 833 f;
#X obj 532 808 t b;
#X obj 672 810 t b;
#X obj 26 782 f;
#X obj 26 758 t b;
#X obj 178 783 f;
#X obj 178 758 t b;
#X obj 1236 830 f;
#X obj 1374 828 f;
#X obj 1374 803 t b;
#X obj 1524 827 f;
#X obj 1524 802 t b;
#X obj 1668 831 f;
#X obj 1668 806 t b;
#X obj 1236 805 t b;
#X msg -59 329 get_osctype;
#X msg -51 394 get_speed;
#X obj -51 368 r \$0-bangspeeds;
#X msg 974 662 get_speed;
#X obj 1084 682 s \$0-bangspeed;
#X floatatom 441 861 5 0 0 0 - - - 0;
#X floatatom 850 866 5 0 0 0 - - - 0;
#X floatatom 1279 861 5 0 0 0 - - - 0;
#X floatatom 1712 862 5 0 0 0 - - - 0;
#X floatatom 218 812 5 0 0 0 - - - 0;
#X floatatom 715 868 5 0 0 0 - - - 0;
#X floatatom 1124 865 5 0 0 0 - - - 0;
#X floatatom 1572 859 5 0 0 0 - - - 0;
#X floatatom 69 814 5 0 0 0 - - - 0;
#X floatatom 577 865 5 0 0 0 - - - 0;
#X floatatom 984 866 5 0 0 0 - - - 0;
#X floatatom 1419 863 5 0 0 0 - - - 0;
#X obj 715 836 f;
#X obj 850 832 f;
#X obj 850 807 t b;
#X obj 984 832 f;
#X obj 984 807 t b;
#X obj 1124 832 f;
#X obj 1124 807 t b;
#X obj 441 828 f;
#X obj 441 804 t b;
#X obj 577 832 f;
#X obj 577 807 t b;
#X obj 715 811 t b;
#X obj 69 782 f;
#X obj 69 758 t b;
#X obj 218 782 f;
#X obj 218 757 t b;
#X obj 1279 829 f;
#X obj 1419 831 f;
#X obj 1419 806 t b;
#X obj 1572 829 f;
#X obj 1572 804 t b;
#X obj 1712 833 f;
#X obj 1712 808 t b;
#X obj 1279 804 t b;
#X msg 985 683 get_toggle;
#X obj 980 610 t b b b b b b;
#X obj 1085 657 s \$0-bangtoggles;
#X msg -58 274 get_toggle;
#X obj -57 250 r \$0-bangtoggles;
#X obj 66 933 pack s f f f f f f f f f f f f f f f f f f f f f f f
f f f f f f f f f f f f f, f 102;
#X obj 82 308 route inputmidi get_datadump get_speed get_osctype get_toggle
load_lfopartials, f 69;
#X obj -1 -238 r \$0-presetdata-1;
#X obj 15 -216 r \$0-presetdata-2;
#X obj 29 -191 r \$0-presetdata-3;
#X obj 138 -165 r \$0-presetdata-4;
#X obj 152 -140 r \$0-presetdata-5;
#X obj 169 -116 r \$0-presetdata-6;
#X obj 290 -179 r \$0-presetdata-7;
#X obj 306 -152 r \$0-presetdata-8;
#X obj 329 -127 r \$0-presetdata-9;
#X obj 507 -183 r \$0-presetdata-10;
#X obj 520 -161 r \$0-presetdata-11;
#X obj 543 -135 r \$0-presetdata-12;
#X obj 691 -171 r \$0-presetdata-13;
#X obj 704 -148 r \$0-presetdata-14;
#X obj 719 -125 r \$0-presetdata-15;
#X obj 910 -173 r \$0-presetdata-16;
#X obj 921 -144 r \$0-presetdata-17;
#X obj 940 -118 r \$0-presetdata-18;
#X obj 1090 -175 r \$0-presetdata-19;
#X obj 1099 -149 r \$0-presetdata-20;
#X obj 1443 -172 r \$0-presetdata-25;
#X obj 1290 -118 r \$0-presetdata-24;
#X obj 1277 -149 r \$0-presetdata-23;
#X obj 1264 -172 r \$0-presetdata-22;
#X obj 1110 -120 r \$0-presetdata-21;
#X obj 1456 -145 r \$0-presetdata-26;
#X obj 1469 -122 r \$0-presetdata-27;
#X obj 1103 59 r \$0-presetdata-28;
#X obj 1118 87 r \$0-presetdata-29;
#X msg 37 -99 setosctype \$1;
#X msg 48 -74 setspeed \$1;
#X msg 25 -121 settoggle \$1;
#X msg 163 -64 setosctype \$1;
#X msg 171 -40 setspeed \$1;
#X msg 153 -88 settoggle \$1;
#X msg 521 -77 setosctype \$1;
#X msg 539 -55 setspeed \$1;
#X msg 508 -102 settoggle \$1;
#X obj 1196 500 s \$0-presetdata-1;
#X obj 1211 523 s \$0-presetdata-2;
#X obj 1225 547 s \$0-presetdata-3;
#X obj 1237 568 s \$0-presetdata-4;
#X obj 1253 591 s \$0-presetdata-5;
#X obj 1261 613 s \$0-presetdata-6;
#X obj 1281 636 s \$0-presetdata-7;
#X obj 1294 659 s \$0-presetdata-8;
#X obj 1309 682 s \$0-presetdata-9;
#X obj 1322 704 s \$0-presetdata-10;
#X obj 1361 504 s \$0-presetdata-11;
#X obj 1376 527 s \$0-presetdata-12;
#X obj 1389 549 s \$0-presetdata-13;
#X obj 1402 572 s \$0-presetdata-14;
#X obj 1417 595 s \$0-presetdata-15;
#X obj 1430 617 s \$0-presetdata-16;
#X obj 1446 640 s \$0-presetdata-17;
#X obj 1459 663 s \$0-presetdata-18;
#X obj 1473 686 s \$0-presetdata-19;
#X obj 1487 708 s \$0-presetdata-20;
#X obj 1517 506 s \$0-presetdata-21;
#X obj 1533 529 s \$0-presetdata-22;
#X obj 1546 552 s \$0-presetdata-23;
#X obj 1561 575 s \$0-presetdata-24;
#X obj 1574 597 s \$0-presetdata-25;
#X obj 1591 619 s \$0-presetdata-26;
#X obj 1604 642 s \$0-presetdata-27;
#X obj 1619 665 s \$0-presetdata-28;
#X obj 1632 687 s \$0-presetdata-29;
#X obj 1207 459 unpack f f f f f f f f f f f f f f f f f f f f f f
f f f f f f f f f f f f f f;
#X obj 1647 714 s \$0-presetdata-30;
#X obj 1656 744 s \$0-presetdata-31;
#X obj 1732 563 s \$0-presetdata-32;
#X obj 1745 586 s \$0-presetdata-33;
#X obj 1760 609 s \$0-presetdata-34;
#X obj 1773 631 s \$0-presetdata-35;
#X obj 1772 653 s \$0-presetdata-36;
#X text -43 724 status;
#X text 7 727 osctype;
#X text 69 723 speed;
#X msg 324 -71 setosctype \$1;
#X msg 342 -49 setspeed \$1;
#X msg 315 -95 settoggle \$1;
#X msg 688 -58 setosctype \$1;
#X msg 706 -36 setspeed \$1;
#X msg 675 -83 settoggle \$1;
#X obj 1132 114 r \$0-presetdata-30;
#X obj 1288 56 r \$0-presetdata-31;
#X obj 1298 84 r \$0-presetdata-32;
#X obj 1311 107 r \$0-presetdata-33;
#X obj 1456 61 r \$0-presetdata-34;
#X obj 1469 83 r \$0-presetdata-35;
#X obj 1477 106 r \$0-presetdata-36;
#X msg 907 -62 setosctype \$1;
#X msg 925 -40 setspeed \$1;
#X msg 894 -87 settoggle \$1;
#X msg 1125 -62 setosctype \$1;
#X msg 1143 -40 setspeed \$1;
#X msg 1112 -87 settoggle \$1;
#X msg 1285 -59 setosctype \$1;
#X msg 1303 -37 setspeed \$1;
#X msg 1272 -84 settoggle \$1;
#X msg 1461 -63 setosctype \$1;
#X msg 1479 -41 setspeed \$1;
#X msg 1448 -88 settoggle \$1;
#X msg 1120 169 setosctype \$1;
#X msg 1138 191 setspeed \$1;
#X msg 1107 144 settoggle \$1;
#X msg 1314 165 setosctype \$1;
#X msg 1332 187 setspeed \$1;
#X msg 1301 140 settoggle \$1;
#X msg 1468 155 setosctype \$1;
#X msg 1486 177 setspeed \$1;
#X msg 1455 130 settoggle \$1;
#X obj 1105 477 outlet;
#X obj 938 512 t b b b;
#X obj 915 550 del 200;
#X connect 2 0 1 0;
#X connect 3 0 2 0;
#X connect 4 0 7 0;
#X connect 5 0 8 0;
#X connect 6 0 9 0;
#X connect 7 0 1 0;
#X connect 8 0 1 0;
#X connect 9 0 1 0;
#X connect 10 0 11 0;
#X connect 11 0 1 0;
#X connect 12 0 13 0;
#X connect 13 0 1 0;
#X connect 14 0 20 0;
#X connect 15 0 21 0;
#X connect 16 0 22 0;
#X connect 17 0 23 0;
#X connect 18 0 24 0;
#X connect 19 0 25 0;
#X connect 20 0 1 0;
#X connect 21 0 1 0;
#X connect 22 0 1 0;
#X connect 23 0 1 0;
#X connect 24 0 1 0;
#X connect 25 0 1 0;
#X connect 38 2 3 0;
#X connect 38 5 121 1;
#X connect 38 6 82 1;
#X connect 38 7 162 1;
#X connect 39 2 4 0;
#X connect 39 5 123 1;
#X connect 39 6 84 1;
#X connect 39 7 164 1;
#X connect 40 2 5 0;
#X connect 40 5 116 1;
#X connect 40 6 77 1;
#X connect 40 7 157 1;
#X connect 41 2 6 0;
#X connect 41 5 118 1;
#X connect 41 6 79 1;
#X connect 41 7 159 1;
#X connect 42 2 10 0;
#X connect 42 5 109 1;
#X connect 42 6 70 1;
#X connect 42 7 150 1;
#X connect 43 2 12 0;
#X connect 43 5 110 1;
#X connect 43 6 71 1;
#X connect 43 7 151 1;
#X connect 44 2 14 0;
#X connect 44 5 112 1;
#X connect 44 6 73 1;
#X connect 44 7 153 1;
#X connect 45 2 15 0;
#X connect 45 5 114 1;
#X connect 45 6 75 1;
#X connect 45 7 155 1;
#X connect 46 2 16 0;
#X connect 46 5 125 1;
#X connect 46 6 86 1;
#X connect 46 7 166 1;
#X connect 47 2 17 0;
#X connect 47 5 126 1;
#X connect 47 6 87 1;
#X connect 47 7 167 1;
#X connect 48 2 18 0;
#X connect 48 5 128 1;
#X connect 48 6 89 1;
#X connect 48 7 169 1;
#X connect 49 2 19 0;
#X connect 49 5 130 1;
#X connect 49 6 91 1;
#X connect 49 7 171 1;
#X connect 50 0 38 0;
#X connect 50 0 39 0;
#X connect 50 0 40 0;
#X connect 50 0 41 0;
#X connect 50 0 42 0;
#X connect 50 0 43 0;
#X connect 50 0 44 0;
#X connect 50 0 45 0;
#X connect 50 0 46 0;
#X connect 50 0 47 0;
#X connect 50 0 48 0;
#X connect 50 0 49 0;
#X connect 51 0 180 0;
#X connect 52 0 50 0;
#X connect 54 0 55 0;
#X connect 55 0 294 0;
#X connect 56 0 179 0;
#X connect 57 0 175 0;
#X connect 58 0 179 7;
#X connect 59 0 179 16;
#X connect 60 0 179 25;
#X connect 61 0 179 34;
#X connect 62 0 179 4;
#X connect 63 0 179 13;
#X connect 64 0 179 22;
#X connect 65 0 179 31;
#X connect 66 0 179 1;
#X connect 67 0 179 10;
#X connect 68 0 179 19;
#X connect 69 0 179 28;
#X connect 70 0 63 0;
#X connect 71 0 59 0;
#X connect 72 0 71 0;
#X connect 73 0 68 0;
#X connect 74 0 73 0;
#X connect 75 0 64 0;
#X connect 76 0 75 0;
#X connect 77 0 58 0;
#X connect 78 0 77 0;
#X connect 79 0 67 0;
#X connect 80 0 79 0;
#X connect 81 0 70 0;
#X connect 82 0 66 0;
#X connect 83 0 82 0;
#X connect 84 0 62 0;
#X connect 85 0 84 0;
#X connect 86 0 60 0;
#X connect 87 0 69 0;
#X connect 88 0 87 0;
#X connect 89 0 65 0;
#X connect 90 0 89 0;
#X connect 91 0 61 0;
#X connect 92 0 91 0;
#X connect 93 0 86 0;
#X connect 94 0 180 0;
#X connect 96 0 133 0;
#X connect 97 0 179 8;
#X connect 98 0 179 17;
#X connect 99 0 179 26;
#X connect 100 0 179 35;
#X connect 101 0 179 5;
#X connect 102 0 179 14;
#X connect 103 0 179 23;
#X connect 104 0 179 32;
#X connect 105 0 179 2;
#X connect 106 0 179 11;
#X connect 107 0 179 20;
#X connect 108 0 179 29;
#X connect 109 0 102 0;
#X connect 110 0 98 0;
#X connect 111 0 110 0;
#X connect 112 0 107 0;
#X connect 113 0 112 0;
#X connect 114 0 103 0;
#X connect 115 0 114 0;
#X connect 116 0 97 0;
#X connect 117 0 116 0;
#X connect 118 0 106 0;
#X connect 119 0 118 0;
#X connect 120 0 109 0;
#X connect 121 0 105 0;
#X connect 122 0 121 0;
#X connect 123 0 101 0;
#X connect 124 0 123 0;
#X connect 125 0 99 0;
#X connect 126 0 108 0;
#X connect 127 0 126 0;
#X connect 128 0 104 0;
#X connect 129 0 128 0;
#X connect 130 0 100 0;
#X connect 131 0 130 0;
#X connect 132 0 125 0;
#X connect 133 0 38 0;
#X connect 133 0 39 0;
#X connect 133 0 40 0;
#X connect 133 0 41 0;
#X connect 133 0 42 0;
#X connect 133 0 43 0;
#X connect 133 0 44 0;
#X connect 133 0 45 0;
#X connect 133 0 46 0;
#X connect 133 0 47 0;
#X connect 133 0 48 0;
#X connect 133 0 49 0;
#X connect 134 0 38 0;
#X connect 134 0 39 0;
#X connect 134 0 40 0;
#X connect 134 0 41 0;
#X connect 134 0 42 0;
#X connect 134 0 43 0;
#X connect 134 0 44 0;
#X connect 134 0 45 0;
#X connect 134 0 46 0;
#X connect 134 0 47 0;
#X connect 134 0 48 0;
#X connect 134 0 49 0;
#X connect 135 0 134 0;
#X connect 136 0 180 0;
#X connect 138 0 179 9;
#X connect 139 0 179 18;
#X connect 140 0 179 27;
#X connect 141 0 179 36;
#X connect 142 0 179 6;
#X connect 143 0 179 15;
#X connect 144 0 179 24;
#X connect 145 0 179 33;
#X connect 146 0 179 3;
#X connect 147 0 179 12;
#X connect 148 0 179 21;
#X connect 149 0 179 30;
#X connect 150 0 143 0;
#X connect 151 0 139 0;
#X connect 152 0 151 0;
#X connect 153 0 148 0;
#X connect 154 0 153 0;
#X connect 155 0 144 0;
#X connect 156 0 155 0;
#X connect 157 0 138 0;
#X connect 158 0 157 0;
#X connect 159 0 147 0;
#X connect 160 0 159 0;
#X connect 161 0 150 0;
#X connect 162 0 146 0;
#X connect 163 0 162 0;
#X connect 164 0 142 0;
#X connect 165 0 164 0;
#X connect 166 0 140 0;
#X connect 167 0 149 0;
#X connect 168 0 167 0;
#X connect 169 0 145 0;
#X connect 170 0 169 0;
#X connect 171 0 141 0;
#X connect 172 0 171 0;
#X connect 173 0 166 0;
#X connect 174 0 180 0;
#X connect 175 0 94 0;
#X connect 175 1 136 0;
#X connect 175 2 174 0;
#X connect 175 3 137 0;
#X connect 175 4 176 0;
#X connect 175 5 95 0;
#X connect 177 0 38 0;
#X connect 177 0 49 0;
#X connect 177 0 48 0;
#X connect 177 0 47 0;
#X connect 177 0 46 0;
#X connect 177 0 45 0;
#X connect 177 0 44 0;
#X connect 177 0 43 0;
#X connect 177 0 42 0;
#X connect 177 0 41 0;
#X connect 177 0 40 0;
#X connect 177 0 39 0;
#X connect 178 0 177 0;
#X connect 179 0 53 0;
#X connect 180 0 52 0;
#X connect 180 1 54 0;
#X connect 180 2 92 0;
#X connect 180 2 90 0;
#X connect 180 2 88 0;
#X connect 180 2 93 0;
#X connect 180 2 76 0;
#X connect 180 2 74 0;
#X connect 180 2 72 0;
#X connect 180 2 81 0;
#X connect 180 2 80 0;
#X connect 180 2 78 0;
#X connect 180 2 85 0;
#X connect 180 2 83 0;
#X connect 180 3 131 0;
#X connect 180 3 129 0;
#X connect 180 3 127 0;
#X connect 180 3 132 0;
#X connect 180 3 115 0;
#X connect 180 3 113 0;
#X connect 180 3 111 0;
#X connect 180 3 120 0;
#X connect 180 3 119 0;
#X connect 180 3 117 0;
#X connect 180 3 124 0;
#X connect 180 3 122 0;
#X connect 180 4 172 0;
#X connect 180 4 170 0;
#X connect 180 4 168 0;
#X connect 180 4 173 0;
#X connect 180 4 156 0;
#X connect 180 4 154 0;
#X connect 180 4 152 0;
#X connect 180 4 161 0;
#X connect 180 4 160 0;
#X connect 180 4 158 0;
#X connect 180 4 165 0;
#X connect 180 4 163 0;
#X connect 180 5 248 0;
#X connect 181 0 212 0;
#X connect 182 0 210 0;
#X connect 183 0 211 0;
#X connect 184 0 215 0;
#X connect 185 0 213 0;
#X connect 186 0 214 0;
#X connect 187 0 261 0;
#X connect 188 0 259 0;
#X connect 189 0 260 0;
#X connect 190 0 218 0;
#X connect 191 0 216 0;
#X connect 192 0 217 0;
#X connect 193 0 264 0;
#X connect 194 0 262 0;
#X connect 195 0 263 0;
#X connect 196 0 274 0;
#X connect 197 0 272 0;
#X connect 198 0 273 0;
#X connect 199 0 277 0;
#X connect 200 0 275 0;
#X connect 201 0 283 0;
#X connect 202 0 279 0;
#X connect 203 0 278 0;
#X connect 204 0 280 0;
#X connect 205 0 276 0;
#X connect 206 0 281 0;
#X connect 207 0 282 0;
#X connect 208 0 286 0;
#X connect 209 0 284 0;
#X connect 210 0 38 0;
#X connect 211 0 38 0;
#X connect 212 0 38 0;
#X connect 213 0 39 0;
#X connect 214 0 39 0;
#X connect 215 0 39 0;
#X connect 216 0 41 0;
#X connect 217 0 41 0;
#X connect 218 0 41 0;
#X connect 248 0 219 0;
#X connect 248 1 220 0;
#X connect 248 2 221 0;
#X connect 248 3 222 0;
#X connect 248 4 223 0;
#X connect 248 5 224 0;
#X connect 248 6 225 0;
#X connect 248 7 226 0;
#X connect 248 8 227 0;
#X connect 248 9 228 0;
#X connect 248 10 229 0;
#X connect 248 11 230 0;
#X connect 248 12 231 0;
#X connect 248 13 232 0;
#X connect 248 14 233 0;
#X connect 248 15 234 0;
#X connect 248 16 235 0;
#X connect 248 17 236 0;
#X connect 248 18 237 0;
#X connect 248 19 238 0;
#X connect 248 20 239 0;
#X connect 248 21 240 0;
#X connect 248 22 241 0;
#X connect 248 23 242 0;
#X connect 248 24 243 0;
#X connect 248 25 244 0;
#X connect 248 26 245 0;
#X connect 248 27 246 0;
#X connect 248 28 247 0;
#X connect 248 29 249 0;
#X connect 248 30 250 0;
#X connect 248 31 251 0;
#X connect 248 32 252 0;
#X connect 248 33 253 0;
#X connect 248 34 254 0;
#X connect 248 35 255 0;
#X connect 259 0 40 0;
#X connect 260 0 40 0;
#X connect 261 0 40 0;
#X connect 262 0 42 0;
#X connect 263 0 42 0;
#X connect 264 0 42 0;
#X connect 265 0 285 0;
#X connect 266 0 289 0;
#X connect 267 0 287 0;
#X connect 268 0 288 0;
#X connect 269 0 292 0;
#X connect 270 0 290 0;
#X connect 271 0 291 0;
#X connect 272 0 43 0;
#X connect 273 0 43 0;
#X connect 274 0 43 0;
#X connect 275 0 44 0;
#X connect 276 0 44 0;
#X connect 277 0 44 0;
#X connect 278 0 45 0;
#X connect 279 0 45 0;
#X connect 280 0 45 0;
#X connect 281 0 46 0;
#X connect 282 0 46 0;
#X connect 283 0 46 0;
#X connect 284 0 47 0;
#X connect 285 0 47 0;
#X connect 286 0 47 0;
#X connect 287 0 48 0;
#X connect 288 0 48 0;
#X connect 289 0 48 0;
#X connect 290 0 49 0;
#X connect 291 0 49 0;
#X connect 292 0 49 0;
#X connect 294 0 293 0;
#X connect 294 1 295 0;
#X connect 294 2 57 0;
#X connect 295 0 56 0;
#X coords 0 -1 1 1 500 155 2 100 100;
