#N canvas 130 106 1920 997 12;
#X msg 819 1005 clear;
#X msg 867 1005 read wtablepresets.txt;
#X obj 869 1032 text define -k \$0-wtablepresets;
#A set 0 Square 0 0.333 0 0.2 0 0.142857 0 0.111111 0 0.090909 0 0.0769213
\; 1 Tri 0 -0.111111 0 0.04 -0.020408 0 0.0123457 0 -0.00826446 0 0
0 \; 2 Sine 0 0 0 0 0 0 0 0 0 0 0 0 \; 3 Saw 0.5 0.333 0.25 0.2 0.166667
0.142857 0.125 0.111111 0.1 0.090909 0.0833333 0.0769213 \;;
#X msg 896 977 write wtablepresets.txt;
#X text 1301 700 insert before line 2;
#X obj 1043 722 text insert \$0-wtablepresets 3;
#X obj 350 516 text get \$0-wtablepresets 1;
#X obj 678 306 bng 15 250 50 0 empty empty empty 17 7 0 10 #fcfcfc
#000000 #000000;
#X obj 652 362 +;
#X floatatom 652 409 5 0 0 0 - - - 0;
#X msg 652 336 -1;
#X msg 880 443 1;
#X obj 876 353 bng 15 250 50 0 empty empty empty 17 7 0 10 #fcfcfc
#000000 #000000;
#X msg 846 974 -1;
#X obj 652 384 mod 64;
#X obj 784 885 loadbang;
#X obj 685 362 r \$0-totalpresetcount;
#X obj 786 1135 text size \$0-wtablepresets 1;
#X obj 786 1115 bng 15 250 50 0 empty empty empty 17 7 0 10 #fcfcfc
#000000 #000000;
#X obj 786 1156 s \$0-totalpresetcount;
#X obj 786 951 t b b b b;
#X listbox 351 538 20 0 0 0 - - - 0;
#X obj 659 489 text get \$0-wtablepresets;
#X msg 708 465 2;
#X msg 758 464 12;
#X obj 652 438 t f f b b;
#X obj 661 551 unpack f f f f f f f f f f f f;
#X msg 699 579 set 0 \$1 \, get 0;
#X msg 710 601 set 1 \$1 \, get 1;
#X msg 720 625 set 2 \$1 \, get 2;
#X msg 731 647 set 3 \$1 \, get 3;
#X msg 741 671 set 4 \$1 \, get 4;
#X msg 749 691 set 5 \$1 \, get 5;
#X msg 759 715 set 6 \$1 \, get 6;
#X msg 770 737 set 7 \$1 \, get 7;
#X msg 780 761 set 8 \$1 \, get 8;
#X msg 793 785 set 9 \$1 \, get 9;
#X msg 803 809 set 10 \$1 \, get 10;
#X msg 814 831 set 11 \$1 \, get 11;
#X obj 859 277 r \$0-processnextpreset;
#X obj 655 265 r \$0-processprevpreset;
#X obj 407 180 table \$0-lfotable;
#X obj 737 862 outlet;
#X obj 925 375 savepanel;
#X symbolatom 925 399 75 0 0 0 - - - 0;
#X obj 925 301 inlet;
#X obj 925 422 file splitname;
#X obj 925 447 unpack s s;
#X listbox 992 472 20 0 0 0 - - - 0;
#X obj 925 351 pdcontrol;
#X msg 925 327 dir;
#X obj 1043 648 pack f s f f f f f f f f f f f f;
#X msg 1083 495 get 0 \, get 1 \, get 2 \, get 3 \, get 4 \, get 5
\, get 6 \, get 7 \, get 8 \, get 9 \, get 10 \, get 11, f 85;
#X obj 1094 562 r slider0;
#X obj 1169 564 r slider1;
#X obj 1245 565 r slider2;
#X obj 1320 565 r slider3;
#X obj 1396 567 r slider4;
#X obj 1472 568 r slider5, f 10;
#X obj 1556 568 r slider6;
#X obj 1631 570 r slider7;
#X obj 1707 571 r slider8;
#X obj 1783 571 r slider9;
#X obj 1858 573 r slider10;
#X obj 1934 574 r slider11;
#X obj 1043 623 f;
#X obj 1063 535 r \$0-totalpresetcount;
#X obj 1146 696 r \$0-totalpresetcount;
#X obj 800 1086 r \$0-processnextpreset;
#X obj 795 1061 r \$0-processprevpreset;
#X obj 993 497 t b b b s b;
#X obj 993 532 del 20;
#X obj 993 554 t b;
#X msg 1043 672 \$1 \$2 \$3 \$4 \$5 \$6 \$7 \$8 \$9 \$10 \$11 \$12
\$13 \$14, f 78;
#X obj 385 644 s;
#X obj 403 562 loadbang;
#X obj 404 586 \$0;
#X msg 403 618 symbol \$1-presettable-recv;
#X msg 351 600 label \$1;
#X obj 351 560 l2s;
#X obj 1062 586 - 1;
#X obj 406 215 inlet;
#X floatatom 1161 601 5 0 0 0 - - - 0;
#X floatatom 1249 601 5 0 0 0 - - - 0;
#X floatatom 1309 609 5 0 0 0 - - - 0;
#X obj 1080 937 s;
#X obj 1048 837 t a b;
#X floatatom 1107 868 5 0 0 0 - - - 0;
#X obj 1104 893 t f;
#X msg 1107 918 symbol \$1-lfotable;
#X obj 1110 838 \$0;
#X msg 1006 773 sinesum 2048 1 \$1 \$2 \$3 \$4 \$5 \$6 \$7 \$8 \$9
\$10 \$11 \$12 \, normalize 1 \;, f 81;
#X obj 926 906 outlet;
#X obj 100 100 cnv 15 190 16 empty empty empty 3 8 0 14 #404040 #ffffff
0;
#N canvas 295 119 1111 760 \$0-previousKit 0;
#X obj 268 59 tgl 15 0 empty empty empty 17 7 0 10 #fcfcfc #000000
#000000 0 1;
#X obj 268 185 spigot 0;
#X obj 268 119 change;
#X floatatom 268 164 5 0 0 0 - - - 0;
#X obj 268 97 == 0;
#X obj 282 142 == 0;
#X floatatom 439 203 5 0 0 0 - - - 0;
#X obj 439 182 == 0;
#X obj 439 222 change;
#X floatatom 439 267 5 0 0 0 - - - 0;
#X obj 439 246 == 1;
#X obj 439 286 spigot 0;
#X obj 146 27 inlet;
#X obj 101 102 bng 11 250 50 0 empty empty empty 17 7 0 10 #fcfcfc
#000000 #000000;
#X obj 433 31 loadbang;
#X obj 326 324 tgl 10 0 exprtloopern-send exprtloopern-recv B 2 5 0
10 #b8b8b8 #000000 #000000 0 1;
#X msg 436 162 1;
#X obj 436 141 t b;
#X msg 359 297 1;
#X msg 326 298 1;
#X obj 100 100 cnv 12 13 13 \$0-prevkitswitch-send \$0-prevkitswitch-recv
< 4 7 0 9 #9f9f9f #000000 0;
#X msg 435 78 \$1;
#X floatatom 816 111 5 0 0 0 - - - 0;
#X obj 776 531 symbol;
#X obj 819 215 t b s;
#X msg 815 238 bang;
#X obj 815 130 t f f;
#X obj 618 678 s;
#X obj 326 340 t b b;
#X obj 875 431 f;
#X obj 924 319 t b f;
#X obj 438 350 t f b b b;
#X obj 215 436 pack f f f;
#X obj 513 459 pack f f f;
#X obj 268 205 t b b b b b;
#X obj 434 53 \$0;
#X obj 901 138 \$1;
#X obj 438 326 f;
#X obj 438 306 bng 15 250 50 0 empty empty empty 17 7 0 10 #fcfcfc
#000000 #000000;
#X obj 433 119 del 10, f 7;
#X obj 435 99 t b f;
#X obj 887 357 del 10;
#X obj 884 381 bng 15 250 50 0 empty empty empty 17 7 0 10 #fcfcfc
#000000 #000000;
#X obj 77 60 del 100;
#X msg 213 410 4;
#X msg 511 437 4;
#X msg 243 409 7;
#X msg 559 438 7;
#X msg 436 375 \; \$1-prevkitswitch-recv label < \;;
#X msg 216 458 \; \$3-prevkitswitch-recv label_pos \$1 \$2;
#X msg 513 482 \; \$3-prevkitswitch-recv label_pos \$1 \$2;
#X msg 880 467 \; \$1-prevkitswitch-recv label < \;;
#X obj 144 49 t b b;
#X msg 816 189 symbol \$1-processprevpreset;
#X connect 0 0 1 1;
#X connect 0 0 4 0;
#X connect 0 0 7 0;
#X connect 0 0 11 1;
#X connect 1 0 34 0;
#X connect 2 0 5 0;
#X connect 3 0 1 0;
#X connect 4 0 2 0;
#X connect 5 0 3 0;
#X connect 6 0 8 0;
#X connect 7 0 6 0;
#X connect 8 0 10 0;
#X connect 9 0 11 0;
#X connect 10 0 9 0;
#X connect 11 0 38 0;
#X connect 12 0 52 0;
#X connect 13 0 0 0;
#X connect 14 0 35 0;
#X connect 15 0 28 0;
#X connect 16 0 0 0;
#X connect 17 0 16 0;
#X connect 18 0 15 0;
#X connect 19 0 15 0;
#X connect 21 0 40 0;
#X connect 22 0 26 0;
#X connect 22 0 36 0;
#X connect 22 0 37 1;
#X connect 23 0 27 1;
#X connect 24 0 25 0;
#X connect 24 1 23 1;
#X connect 25 0 23 0;
#X connect 26 0 53 0;
#X connect 26 1 30 0;
#X connect 28 0 27 0;
#X connect 28 1 25 0;
#X connect 29 0 51 0;
#X connect 29 0 32 2;
#X connect 29 0 33 2;
#X connect 30 0 41 0;
#X connect 30 1 29 1;
#X connect 31 0 48 0;
#X connect 31 1 18 0;
#X connect 31 2 45 0;
#X connect 31 3 47 0;
#X connect 32 0 49 0;
#X connect 33 0 50 0;
#X connect 34 1 19 0;
#X connect 34 2 44 0;
#X connect 34 3 46 0;
#X connect 34 4 29 0;
#X connect 35 0 21 0;
#X connect 37 0 31 0;
#X connect 38 0 37 0;
#X connect 39 0 17 0;
#X connect 40 0 39 0;
#X connect 40 1 22 0;
#X connect 41 0 42 0;
#X connect 42 0 29 0;
#X connect 43 0 13 0;
#X connect 44 0 32 0;
#X connect 45 0 33 0;
#X connect 46 0 32 1;
#X connect 47 0 33 1;
#X connect 52 0 43 0;
#X connect 52 1 13 0;
#X connect 53 0 24 0;
#X coords 0 -1 1 1 13 13 2 100 100;
#X restore 101 101 pd \$0-previousKit;
#N canvas 89 78 1090 702 \$0-nextKit 0;
#X obj 268 59 tgl 15 0 empty empty empty 17 7 0 10 #fcfcfc #000000
#000000 0 1;
#X obj 268 185 spigot 0;
#X obj 268 119 change;
#X floatatom 268 164 5 0 0 0 - - - 0;
#X obj 268 97 == 0;
#X obj 282 142 == 0;
#X floatatom 439 203 5 0 0 0 - - - 0;
#X obj 439 182 == 0;
#X obj 439 222 change;
#X floatatom 439 267 5 0 0 0 - - - 0;
#X obj 439 246 == 1;
#X obj 439 286 spigot 0;
#X obj 146 27 inlet;
#X obj 100 102 bng 11 250 50 0 empty empty empty 17 7 0 10 #fcfcfc
#000000 #000000;
#X obj 135 101 bng 11 250 50 0 empty empty empty 17 7 0 10 #fcfcfc
#000000 #000000;
#X obj 433 31 loadbang;
#X obj 326 324 tgl 10 0 exprtloopern-send exprtloopern-recv B 2 5 0
10 #b8b8b8 #000000 #000000 0 1;
#X msg 436 162 1;
#X obj 436 141 t b;
#X obj 123 100 bng 11 250 50 0 empty empty empty 17 7 0 10 #fcfcfc
#000000 #000000;
#X msg 359 297 1;
#X msg 326 298 1;
#X msg 435 78 \$1;
#X floatatom 816 111 5 0 0 0 - - - 0;
#X obj 776 531 symbol;
#X obj 819 215 t b s;
#X msg 815 238 bang;
#X obj 815 130 t f f;
#X obj 618 678 s;
#X obj 326 340 t b b;
#X obj 875 431 f;
#X obj 924 319 t b f;
#X obj 438 350 t f b b b;
#X obj 215 436 pack f f f;
#X obj 513 459 pack f f f;
#X obj 268 205 t b b b b b;
#X obj 434 53 \$0;
#X obj 901 138 \$1;
#X obj 438 326 f;
#X obj 438 306 bng 15 250 50 0 empty empty empty 17 7 0 10 #fcfcfc
#000000 #000000;
#X obj 433 119 del 10, f 7;
#X obj 435 99 t b f;
#X obj 887 357 del 10;
#X obj 884 381 bng 15 250 50 0 empty empty empty 17 7 0 10 #fcfcfc
#000000 #000000;
#X obj 77 60 del 100;
#X msg 213 410 4;
#X msg 511 437 4;
#X msg 243 409 7;
#X msg 559 438 7;
#X obj 100 100 cnv 12 13 13 \$0-nextkitswitch-send \$0-nextkitswitch-recv
> 4 7 0 9 #9f9f9f #000000 0;
#X msg 216 458 \; \$3-nextkitswitch-recv label_pos \$1 \$2;
#X msg 513 482 \; \$3-nextkitswitch-recv label_pos \$1 \$2;
#X msg 436 375 \; \$1-nextkitswitch-recv label > \;;
#X msg 880 466 \; \$1-nextkitswitch-recv label > \;;
#X obj 144 49 t b b;
#X msg 816 189 symbol \$1-processnextpreset;
#X connect 0 0 1 1;
#X connect 0 0 4 0;
#X connect 0 0 7 0;
#X connect 0 0 11 1;
#X connect 1 0 35 0;
#X connect 2 0 5 0;
#X connect 3 0 1 0;
#X connect 4 0 2 0;
#X connect 5 0 3 0;
#X connect 6 0 8 0;
#X connect 7 0 6 0;
#X connect 8 0 10 0;
#X connect 9 0 11 0;
#X connect 10 0 9 0;
#X connect 11 0 39 0;
#X connect 12 0 54 0;
#X connect 13 0 0 0;
#X connect 14 0 0 0;
#X connect 15 0 36 0;
#X connect 16 0 29 0;
#X connect 17 0 0 0;
#X connect 18 0 17 0;
#X connect 19 0 0 0;
#X connect 20 0 16 0;
#X connect 21 0 16 0;
#X connect 22 0 41 0;
#X connect 23 0 27 0;
#X connect 23 0 37 0;
#X connect 23 0 38 1;
#X connect 24 0 28 1;
#X connect 25 0 26 0;
#X connect 25 1 24 1;
#X connect 26 0 24 0;
#X connect 27 0 55 0;
#X connect 27 1 31 0;
#X connect 29 0 28 0;
#X connect 29 1 26 0;
#X connect 30 0 53 0;
#X connect 30 0 33 2;
#X connect 30 0 34 2;
#X connect 31 0 42 0;
#X connect 31 1 30 1;
#X connect 32 0 52 0;
#X connect 32 1 20 0;
#X connect 32 2 46 0;
#X connect 32 3 48 0;
#X connect 33 0 50 0;
#X connect 34 0 51 0;
#X connect 35 1 21 0;
#X connect 35 2 45 0;
#X connect 35 3 47 0;
#X connect 35 4 30 0;
#X connect 36 0 22 0;
#X connect 38 0 32 0;
#X connect 39 0 38 0;
#X connect 40 0 18 0;
#X connect 41 0 40 0;
#X connect 41 1 23 0;
#X connect 42 0 43 0;
#X connect 43 0 30 0;
#X connect 44 0 13 0;
#X connect 45 0 33 0;
#X connect 46 0 34 0;
#X connect 47 0 33 1;
#X connect 48 0 34 1;
#X connect 54 0 44 0;
#X connect 54 1 13 0;
#X connect 55 0 25 0;
#X coords 0 -1 1 1 13 13 2 100 100;
#X restore 178 101 pd \$0-nextKit;
#X obj 116 102 cnv 10 60 11 \$0-presettable-send \$0-presettable-recv
Saw 3 5 0 10 #131255 #ffffff 0;
#X obj 406 281 t a;
#N canvas 721 176 446 419 \$0-packedvalues 0;
#X obj 79 50 inlet;
#X obj 79 102 unpack f f;
#X obj 79 76 t a;
#X floatatom 79 134 5 0 0 0 - - - 0;
#X floatatom 146 128 5 0 0 0 - - - 0;
#X obj 79 187 route float;
#X floatatom 79 213 5 0 0 0 - - - 0;
#X obj 80 261 s \$0-tofield;
#X obj 146 151 s \$0-tovalue;
#N canvas 658 75 960 823 \$0-checkifsetvalue 0;
#X obj 98 218 spigot 0;
#X obj 153 196 tgl 15 0 empty empty empty 17 7 0 10 #fcfcfc #000000
#000000 0 1;
#X obj 153 172 t f;
#X obj 98 244 s slider0;
#X obj 153 25 r \$0-tofield;
#X obj 50 188 r \$0-tovalue;
#X obj 153 49 t f;
#X obj 261 224 spigot 0;
#X obj 316 202 tgl 15 0 empty empty empty 17 7 0 10 #fcfcfc #000000
#000000 0 1;
#X obj 316 178 t f;
#X obj 316 31 r \$0-tofield;
#X obj 213 194 r \$0-tovalue;
#X obj 316 55 t f;
#X obj 441 224 spigot 0;
#X obj 496 202 tgl 15 0 empty empty empty 17 7 0 10 #fcfcfc #000000
#000000 0 1;
#X obj 496 178 t f;
#X obj 496 31 r \$0-tofield;
#X obj 393 194 r \$0-tovalue;
#X obj 496 55 t f;
#X obj 611 224 spigot 0;
#X obj 666 202 tgl 15 0 empty empty empty 17 7 0 10 #fcfcfc #000000
#000000 0 1;
#X obj 666 178 t f;
#X obj 666 31 r \$0-tofield;
#X obj 563 194 r \$0-tovalue;
#X obj 666 55 t f;
#X obj 781 224 spigot 0;
#X obj 836 202 tgl 15 0 empty empty empty 17 7 0 10 #fcfcfc #000000
#000000 0 1;
#X obj 836 178 t f;
#X obj 836 31 r \$0-tofield;
#X obj 733 194 r \$0-tovalue;
#X obj 836 55 t f;
#X obj 93 481 spigot 0;
#X obj 148 459 tgl 15 0 empty empty empty 17 7 0 10 #fcfcfc #000000
#000000 0 1;
#X obj 148 435 t f;
#X obj 148 288 r \$0-tofield;
#X obj 45 451 r \$0-tovalue;
#X obj 148 312 t f;
#X obj 256 487 spigot 0;
#X obj 311 465 tgl 15 0 empty empty empty 17 7 0 10 #fcfcfc #000000
#000000 0 1;
#X obj 311 441 t f;
#X obj 311 294 r \$0-tofield;
#X obj 208 457 r \$0-tovalue;
#X obj 311 318 t f;
#X obj 436 487 spigot 0;
#X obj 491 465 tgl 15 0 empty empty empty 17 7 0 10 #fcfcfc #000000
#000000 0 1;
#X obj 491 441 t f;
#X obj 491 294 r \$0-tofield;
#X obj 388 457 r \$0-tovalue;
#X obj 491 318 t f;
#X obj 606 487 spigot 0;
#X obj 661 465 tgl 15 0 empty empty empty 17 7 0 10 #fcfcfc #000000
#000000 0 1;
#X obj 661 441 t f;
#X obj 661 294 r \$0-tofield;
#X obj 558 457 r \$0-tovalue;
#X obj 661 318 t f;
#X obj 776 487 spigot 0;
#X obj 831 465 tgl 15 0 empty empty empty 17 7 0 10 #fcfcfc #000000
#000000 0 1;
#X obj 831 441 t f;
#X obj 831 294 r \$0-tofield;
#X obj 728 457 r \$0-tovalue;
#X obj 831 318 t f;
#X obj 316 80 == 1;
#X obj 496 80 == 2;
#X obj 666 80 == 3;
#X obj 836 80 == 4;
#X obj 86 757 spigot 0;
#X obj 141 735 tgl 15 0 empty empty empty 17 7 0 10 #fcfcfc #000000
#000000 0 1;
#X obj 141 711 t f;
#X obj 141 564 r \$0-tofield;
#X obj 38 727 r \$0-tovalue;
#X obj 141 588 t f;
#X obj 256 757 spigot 0;
#X obj 311 735 tgl 15 0 empty empty empty 17 7 0 10 #fcfcfc #000000
#000000 0 1;
#X obj 311 711 t f;
#X obj 311 564 r \$0-tofield;
#X obj 208 727 r \$0-tovalue;
#X obj 311 588 t f;
#X obj 256 783 s slider11;
#X obj 86 783 s slider10;
#X obj 776 513 s slider9;
#X obj 606 513 s slider8;
#X obj 436 513 s slider7;
#X obj 256 513 s slider6;
#X obj 93 507 s slider5;
#X obj 781 250 s slider4;
#X obj 611 250 s slider3;
#X obj 441 250 s slider2;
#X obj 261 250 s slider1;
#X obj 153 74 < 1;
#X obj 148 337 == 5;
#X obj 311 343 == 6;
#X obj 491 343 == 7;
#X obj 661 343 == 8;
#X obj 831 343 == 9;
#X obj 141 613 == 10;
#X obj 311 613 == 11;
#X obj 153 99 == 1;
#X obj 311 638 == 1;
#X obj 141 638 == 1;
#X obj 148 362 == 1;
#X obj 311 368 == 1;
#X obj 491 368 == 1;
#X obj 661 368 == 1;
#X obj 831 368 == 1;
#X obj 836 105 == 1;
#X obj 666 105 == 1;
#X obj 496 105 == 1;
#X obj 316 105 == 1;
#X connect 0 0 3 0;
#X connect 1 0 0 1;
#X connect 2 0 1 0;
#X connect 4 0 6 0;
#X connect 5 0 0 0;
#X connect 6 0 88 0;
#X connect 7 0 87 0;
#X connect 8 0 7 1;
#X connect 9 0 8 0;
#X connect 10 0 12 0;
#X connect 11 0 7 0;
#X connect 12 0 61 0;
#X connect 13 0 86 0;
#X connect 14 0 13 1;
#X connect 15 0 14 0;
#X connect 16 0 18 0;
#X connect 17 0 13 0;
#X connect 18 0 62 0;
#X connect 19 0 85 0;
#X connect 20 0 19 1;
#X connect 21 0 20 0;
#X connect 22 0 24 0;
#X connect 23 0 19 0;
#X connect 24 0 63 0;
#X connect 25 0 84 0;
#X connect 26 0 25 1;
#X connect 27 0 26 0;
#X connect 28 0 30 0;
#X connect 29 0 25 0;
#X connect 30 0 64 0;
#X connect 31 0 83 0;
#X connect 32 0 31 1;
#X connect 33 0 32 0;
#X connect 34 0 36 0;
#X connect 35 0 31 0;
#X connect 36 0 89 0;
#X connect 37 0 82 0;
#X connect 38 0 37 1;
#X connect 39 0 38 0;
#X connect 40 0 42 0;
#X connect 41 0 37 0;
#X connect 42 0 90 0;
#X connect 43 0 81 0;
#X connect 44 0 43 1;
#X connect 45 0 44 0;
#X connect 46 0 48 0;
#X connect 47 0 43 0;
#X connect 48 0 91 0;
#X connect 49 0 80 0;
#X connect 50 0 49 1;
#X connect 51 0 50 0;
#X connect 52 0 54 0;
#X connect 53 0 49 0;
#X connect 54 0 92 0;
#X connect 55 0 79 0;
#X connect 56 0 55 1;
#X connect 57 0 56 0;
#X connect 58 0 60 0;
#X connect 59 0 55 0;
#X connect 60 0 93 0;
#X connect 61 0 107 0;
#X connect 62 0 106 0;
#X connect 63 0 105 0;
#X connect 64 0 104 0;
#X connect 65 0 78 0;
#X connect 66 0 65 1;
#X connect 67 0 66 0;
#X connect 68 0 70 0;
#X connect 69 0 65 0;
#X connect 70 0 94 0;
#X connect 71 0 77 0;
#X connect 72 0 71 1;
#X connect 73 0 72 0;
#X connect 74 0 76 0;
#X connect 75 0 71 0;
#X connect 76 0 95 0;
#X connect 88 0 96 0;
#X connect 89 0 99 0;
#X connect 90 0 100 0;
#X connect 91 0 101 0;
#X connect 92 0 102 0;
#X connect 93 0 103 0;
#X connect 94 0 98 0;
#X connect 95 0 97 0;
#X connect 96 0 2 0;
#X connect 97 0 73 0;
#X connect 98 0 67 0;
#X connect 99 0 33 0;
#X connect 100 0 39 0;
#X connect 101 0 45 0;
#X connect 102 0 51 0;
#X connect 103 0 57 0;
#X connect 104 0 27 0;
#X connect 105 0 21 0;
#X connect 106 0 15 0;
#X connect 107 0 9 0;
#X restore 80 288 pd \$0-checkifsetvalue;
#X obj 79 234 t f;
#X obj 79 158 t f;
#X connect 0 0 2 0;
#X connect 1 0 3 0;
#X connect 1 1 4 0;
#X connect 2 0 1 0;
#X connect 3 0 11 0;
#X connect 4 0 8 0;
#X connect 5 0 6 0;
#X connect 6 0 10 0;
#X connect 10 0 7 0;
#X connect 11 0 5 0;
#X restore 406 306 pd \$0-packedvalues;
#N canvas 130 130 450 300 \$0-oscLFO 0;
#X obj 56 18 inlet;
#X obj 143 39 inlet;
#X obj 56 112 outlet;
#N canvas 156 156 450 300 \$0-lfoticker 0;
#X obj 56 38 inlet;
#X obj 131 34 inlet;
#X obj 56 60 metro 100;
#X obj 56 112 outlet;
#X obj 56 86 snapshot~;
#X obj 132 58 wavetable~ \$0-lfotable;
#X connect 0 0 2 0;
#X connect 1 0 5 0;
#X connect 2 0 4 0;
#X connect 4 0 3 0;
#X connect 5 0 4 0;
#X restore 56 71 pd \$0-lfoticker;
#X connect 0 0 3 0;
#X connect 1 0 3 1;
#X connect 3 0 2 0;
#X restore 277 881 pd \$0-oscLFO;
#X obj 251 825 tgl 15 0 empty empty empty 17 7 0 10 #fcfcfc #000000
#000000 0 1;
#X obj 215 102 hsl 70 12 0.05 5 1 0 empty empty Speed 3 6 0 10 #dfdfdf
#00faff #000000 0 1;
#N canvas 235 76 934 843 \$0-pwnlfotoggle 0;
#X obj 102 102 tgl 12 0 empty empty empty 17 7 0 10 #606060 #000000
#dcdcdc 0 1;
#X obj 100 100 cnv 16 16 16 empty empty empty 20 12 0 14 #202020 #404040
0;
#X obj 103 103 cnv 10 10 10 \$0-pwmlfotoggle-send \$0-pwmlfotoggle-recv
empty 20 12 0 14 #fcac44 #404040 0;
#X obj 169 598 s;
#X obj 171 442 f;
#X obj 171 420 t b f;
#X obj 100 206 spigot 0;
#X obj 145 162 tgl 15 0 empty empty empty 17 7 0 10 #fcfcfc #000000
#000000 0 1;
#X obj 145 139 change;
#X obj 145 116 == 0;
#X obj 216 372 tgl 15 0 empty empty empty 17 7 0 10 #fcfcfc #000000
#000000 0 1;
#X obj 171 345 change;
#X obj 171 395 spigot 0;
#X obj 171 322 == 0;
#X obj 171 366 t b f;
#X obj 171 462 t b b;
#X obj 73 424 s;
#X obj 100 251 f;
#X obj 100 229 t b f;
#X obj 100 271 t b b;
#X msg 169 551 color 16;
#X obj 145 184 t f f;
#X obj 56 129 tgl 15 0 empty empty empty 17 7 0 10 #fcfcfc #000000
#000000 0 1;
#X obj 55 150 t f b f;
#X obj 192 17 inlet;
#X obj 294 66 loadbang;
#X msg 144 94 0;
#X msg 27 464 color \$1;
#X floatatom 25 438 5 0 0 0 - - - 0;
#X obj 425 103 \$1;
#X msg 426 128 \$1;
#X floatatom 410 151 5 0 0 0 - - - 0;
#X obj 182 574 symbol;
#X obj 413 255 t b s;
#X msg 409 278 bang;
#X obj 409 189 t f f;
#X obj 146 712 symbol;
#X obj 145 671 t b s;
#X msg 141 694 bang;
#X obj 129 733 s;
#X msg 218 260 bang;
#X msg 279 243 \$1;
#X obj 219 281 f;
#X msg 53 365 color \$1;
#X obj 388 397 == 16;
#X obj 390 427 change;
#X obj 392 448 == 0;
#X obj 393 473 t b;
#X obj 397 500 bng 15 250 50 0 empty empty empty 17 7 0 10 #fcfcfc
#000000 #000000;
#X obj 396 534 tgl 15 0 empty empty empty 17 7 0 10 #fcfcfc #000000
#000000 0 1;
#X obj 349 555 spigot 0;
#X obj 488 466 change;
#X obj 491 512 t b;
#X obj 495 539 bng 15 250 50 0 empty empty empty 17 7 0 10 #fcfcfc
#000000 #000000;
#X obj 494 573 tgl 15 0 empty empty empty 17 7 0 10 #fcfcfc #000000
#000000 0 1;
#X obj 447 594 spigot 0;
#X obj 490 487 == 1;
#X obj 486 436 != 16;
#X msg 298 589 color 13;
#X obj 141 75 t b b;
#X text 184 764 comment;
#X symbolatom 168 742 10 0 0 0 - - - 0;
#X obj 249 199 t b b f;
#X obj 392 364 r \$0-NewUiColorColorNum;
#X obj 490 403 r \$0-NewUiColorColorNum;
#X obj 335 96 \$0;
#X msg 335 124 \$1;
#X floatatom 331 153 5 0 0 0 - - - 0;
#X msg 411 229 symbol \$1-pwmlfotoggle-recv;
#X obj 62 737 outlet;
#X obj 470 318 s NewUiColorMSG;
#X obj 395 341 r NewUiColorColorNum;
#X obj 246 175 r NewUiColorColorNum;
#X obj 234 148 r \$0-NewUiColorColorNum;
#X obj 531 431 r NewUiColorColorNum;
#X msg 144 648 symbol \$1-lfotoggle;
#X connect 0 0 22 0;
#X connect 4 0 15 0;
#X connect 5 0 4 0;
#X connect 5 1 4 1;
#X connect 6 0 18 0;
#X connect 7 0 21 0;
#X connect 8 0 7 0;
#X connect 9 0 8 0;
#X connect 10 0 12 1;
#X connect 11 0 14 0;
#X connect 12 0 5 0;
#X connect 13 0 11 0;
#X connect 14 0 12 0;
#X connect 14 1 10 0;
#X connect 15 0 20 0;
#X connect 15 0 50 0;
#X connect 15 1 34 0;
#X connect 17 0 19 0;
#X connect 18 0 17 0;
#X connect 18 1 17 1;
#X connect 19 0 40 0;
#X connect 19 1 34 0;
#X connect 20 0 55 0;
#X connect 21 0 6 1;
#X connect 21 1 13 0;
#X connect 22 0 23 0;
#X connect 23 0 39 0;
#X connect 23 0 69 0;
#X connect 23 1 6 0;
#X connect 23 2 9 0;
#X connect 24 0 22 0;
#X connect 25 0 29 0;
#X connect 25 0 59 0;
#X connect 25 0 65 0;
#X connect 26 0 9 0;
#X connect 26 0 22 0;
#X connect 27 0 16 0;
#X connect 28 0 27 0;
#X connect 29 0 30 0;
#X connect 30 0 31 0;
#X connect 32 0 16 1;
#X connect 32 0 3 1;
#X connect 33 0 34 0;
#X connect 33 1 32 1;
#X connect 34 0 32 0;
#X connect 35 0 68 0;
#X connect 35 1 75 0;
#X connect 36 0 39 1;
#X connect 36 0 61 0;
#X connect 37 0 38 0;
#X connect 37 1 36 1;
#X connect 38 0 36 0;
#X connect 40 0 42 0;
#X connect 41 0 42 1;
#X connect 42 0 43 0;
#X connect 43 0 16 0;
#X connect 44 0 45 0;
#X connect 45 0 46 0;
#X connect 46 0 47 0;
#X connect 47 0 48 0;
#X connect 48 0 49 0;
#X connect 49 0 50 1;
#X connect 50 0 58 0;
#X connect 51 0 56 0;
#X connect 52 0 53 0;
#X connect 53 0 54 0;
#X connect 54 0 55 1;
#X connect 55 0 3 0;
#X connect 56 0 52 0;
#X connect 57 0 51 0;
#X connect 58 0 3 0;
#X connect 59 0 26 0;
#X connect 59 1 26 0;
#X connect 62 0 12 0;
#X connect 62 1 40 0;
#X connect 62 2 41 0;
#X connect 63 0 44 0;
#X connect 64 0 57 0;
#X connect 65 0 66 0;
#X connect 66 0 67 0;
#X connect 67 0 35 0;
#X connect 68 0 33 0;
#X connect 71 0 44 0;
#X connect 72 0 62 0;
#X connect 73 0 62 0;
#X connect 74 0 57 0;
#X connect 75 0 37 0;
#X coords 0 -1 1 1 16 16 2 100 100;
#X restore 194 100 pd \$0-pwnlfotoggle;
#X obj 200 848 spigot 0, f 9;
#X msg 201 778 1;
#X msg 278 780 0;
#X obj 484 337 t b f;
#X obj 484 364 f;
#X obj 568 306 t b f;
#X obj 568 333 f;
#X obj 113 499 sel 0 127;
#X obj 113 524 bng 15 250 50 0 empty empty empty 17 7 0 10 #fcfcfc
#000000 #000000;
#X obj 173 526 bng 15 250 50 0 empty empty empty 17 7 0 10 #fcfcfc
#000000 #000000;
#X obj 173 547 s \$0-triggerlfoON;
#X obj 113 571 s \$0-triggerlfoOFF;
#X obj 89 384 notein;
#X obj 280 758 r \$0-triggerlfoOFF;
#X obj 199 736 r \$0-triggerlfoON;
#X obj 112 470 spigot 0;
#X obj 166 447 tgl 15 0 empty empty empty 17 7 0 10 #fcfcfc #000000
#000000 0 1;
#X floatatom 277 907 5 0 0 0 - - - 0;
#X floatatom 277 988 5 0 0 0 - - - 0;
#X obj 277 932 + 1;
#X obj 277 960 / 2;
#X obj 1026 925 outlet;
#X obj 659 519 t a a;
#X obj 1283 952 outlet;
#X obj 558 803 f;
#X obj 583 417 f;
#X floatatom 582 440 5 0 0 0 - - - 0;
#X obj 719 316 t b f;
#X obj 719 343 f;
#X obj 822 330 f;
#X obj 822 303 t b;
#X obj 1346 952 outlet;
#X obj 1040 358 pack f f;
#X obj 1093 334 r \$0-tovalue;
#X obj 1058 309 r \$0-tofield;
#X obj 1040 333 f;
#X obj 1023 309 t b;
#X obj 1219 352 f;
#X obj 227 122 s \$0-activestatus;
#X obj 1237 328 r \$0-activestatus;
#X obj 355 857 r \$0-currentlfospeed;
#X obj 246 146 s \$0-currentlfospeed;
#X obj 1378 369 f;
#X obj 1396 345 r \$0-currentlfospeed;
#X obj 1378 323 t b;
#X obj 1219 306 t b;
#X obj 1557 368 f;
#X obj 1557 322 t b;
#X obj 582 468 s \$0-sval;
#X obj 1579 342 r \$0-sval;
#X obj 594 366 t b f;
#X obj 577 778 r \$0-sval;
#X obj 786 1018 t b b b;
#X obj 701 1058 del 20;
#X obj 715 1087 del 10;
#X floatatom 243 468 5 0 0 0 - - - 0;
#X obj 156 362 midiin;
#X obj 104 424 t f;
#X floatatom 190 389 5 0 0 0 - - - 0;
#X floatatom 73 462 5 0 0 0 - - - 0;
#X obj 166 413 r \$0-lfotoggle;
#X obj 251 804 r \$0-lfotoggle;
#X obj 406 239 route setvalue settoggle setspeed setstartvalue setosctype
get_osctype get_value get_toggle get_speed get_startvalue inputmidi
, f 137;
#X obj 1479 251 unpack f f;
#X connect 0 0 2 0;
#X connect 1 0 2 0;
#X connect 3 0 2 0;
#X connect 6 0 21 0;
#X connect 7 0 10 0;
#X connect 7 0 92 0;
#X connect 8 0 14 0;
#X connect 9 0 25 0;
#X connect 9 0 132 1;
#X connect 10 0 8 0;
#X connect 11 0 8 0;
#X connect 12 0 11 0;
#X connect 12 0 92 0;
#X connect 13 0 8 1;
#X connect 14 0 8 1;
#X connect 14 0 9 0;
#X connect 15 0 20 0;
#X connect 15 0 90 0;
#X connect 16 0 14 1;
#X connect 17 0 19 0;
#X connect 18 0 17 0;
#X connect 20 0 155 0;
#X connect 20 1 1 0;
#X connect 20 2 0 0;
#X connect 20 3 13 0;
#X connect 21 0 79 0;
#X connect 22 0 125 0;
#X connect 23 0 22 1;
#X connect 24 0 22 2;
#X connect 25 0 6 0;
#X connect 25 1 22 0;
#X connect 25 2 23 0;
#X connect 25 3 24 0;
#X connect 26 0 27 0;
#X connect 26 1 28 0;
#X connect 26 2 29 0;
#X connect 26 3 30 0;
#X connect 26 4 31 0;
#X connect 26 5 32 0;
#X connect 26 6 33 0;
#X connect 26 7 34 0;
#X connect 26 8 35 0;
#X connect 26 9 36 0;
#X connect 26 10 37 0;
#X connect 26 11 38 0;
#X connect 27 0 42 0;
#X connect 28 0 42 0;
#X connect 29 0 42 0;
#X connect 30 0 42 0;
#X connect 31 0 42 0;
#X connect 32 0 42 0;
#X connect 33 0 42 0;
#X connect 34 0 42 0;
#X connect 35 0 42 0;
#X connect 36 0 42 0;
#X connect 37 0 42 0;
#X connect 38 0 42 0;
#X connect 39 0 12 0;
#X connect 40 0 7 0;
#X connect 43 0 44 0;
#X connect 44 0 46 0;
#X connect 45 0 50 0;
#X connect 46 0 47 0;
#X connect 47 1 48 0;
#X connect 48 0 70 0;
#X connect 49 0 43 0;
#X connect 50 0 49 0;
#X connect 51 0 73 0;
#X connect 52 0 42 0;
#X connect 53 0 51 2;
#X connect 54 0 51 3;
#X connect 54 0 82 0;
#X connect 55 0 51 4;
#X connect 55 0 83 0;
#X connect 56 0 51 5;
#X connect 56 0 84 0;
#X connect 57 0 51 6;
#X connect 58 0 51 7;
#X connect 59 0 51 8;
#X connect 60 0 51 9;
#X connect 61 0 51 10;
#X connect 62 0 51 11;
#X connect 63 0 51 12;
#X connect 64 0 51 13;
#X connect 65 0 51 0;
#X connect 66 0 80 0;
#X connect 67 0 5 1;
#X connect 68 0 18 0;
#X connect 69 0 18 0;
#X connect 70 0 71 0;
#X connect 70 1 3 0;
#X connect 70 2 65 0;
#X connect 70 3 51 1;
#X connect 70 4 52 0;
#X connect 71 0 72 0;
#X connect 72 0 1 0;
#X connect 73 0 5 0;
#X connect 75 0 76 0;
#X connect 76 0 77 0;
#X connect 77 0 74 1;
#X connect 78 0 74 0;
#X connect 79 0 78 0;
#X connect 80 0 65 1;
#X connect 81 0 165 0;
#X connect 86 0 85 0;
#X connect 87 0 88 0;
#X connect 88 0 89 0;
#X connect 89 0 85 1;
#X connect 90 0 87 0;
#X connect 91 0 86 0;
#X connect 97 0 98 0;
#X connect 99 0 120 0;
#X connect 100 0 103 1;
#X connect 101 0 144 0;
#X connect 102 0 141 0;
#X connect 103 0 99 0;
#X connect 104 0 103 0;
#X connect 105 0 99 0;
#X connect 106 0 107 0;
#X connect 106 1 107 1;
#X connect 107 0 102 0;
#X connect 108 0 109 0;
#X connect 108 1 109 1;
#X connect 109 0 101 0;
#X connect 110 0 111 0;
#X connect 110 1 112 0;
#X connect 110 2 112 0;
#X connect 111 0 114 0;
#X connect 111 0 127 0;
#X connect 112 0 113 0;
#X connect 112 0 128 0;
#X connect 115 0 162 0;
#X connect 115 1 160 0;
#X connect 116 0 105 0;
#X connect 117 0 104 0;
#X connect 118 0 110 0;
#X connect 119 0 118 1;
#X connect 120 0 122 0;
#X connect 121 0 124 0;
#X connect 122 0 123 0;
#X connect 123 0 121 0;
#X connect 125 0 26 0;
#X connect 125 1 91 0;
#X connect 127 0 126 0;
#X connect 128 0 129 0;
#X connect 129 0 151 0;
#X connect 130 0 131 0;
#X connect 130 1 131 1;
#X connect 131 0 8 0;
#X connect 132 0 134 0;
#X connect 133 0 132 0;
#X connect 135 0 134 0;
#X connect 136 0 135 1;
#X connect 137 0 138 1;
#X connect 138 0 135 0;
#X connect 139 0 138 0;
#X connect 140 0 134 0;
#X connect 142 0 140 1;
#X connect 143 0 99 1;
#X connect 145 0 134 0;
#X connect 146 0 145 1;
#X connect 147 0 145 0;
#X connect 148 0 140 0;
#X connect 149 0 134 0;
#X connect 150 0 149 0;
#X connect 152 0 149 1;
#X connect 153 0 128 0;
#X connect 153 1 128 1;
#X connect 154 0 127 1;
#X connect 155 0 156 0;
#X connect 155 1 157 0;
#X connect 155 2 18 0;
#X connect 156 0 12 0;
#X connect 157 0 7 0;
#X connect 159 1 161 0;
#X connect 160 0 118 0;
#X connect 160 0 158 0;
#X connect 163 0 119 0;
#X connect 164 0 100 0;
#X connect 165 0 97 0;
#X connect 165 1 106 0;
#X connect 165 2 108 0;
#X connect 165 3 153 0;
#X connect 165 4 130 0;
#X connect 165 5 133 0;
#X connect 165 6 139 0;
#X connect 165 7 148 0;
#X connect 165 8 147 0;
#X connect 165 9 150 0;
#X connect 165 10 166 0;
#X connect 166 1 118 0;
#X coords 0 -1 1 1 190 16 2 100 100;
