#N canvas 732 132 683 541 12;
#X declare -path clearessentials;
#X text 36 56 Written By: Reg Finley;
#X text 35 77 Aka Scr1ptAl1as;
#X text 37 116 Pd 0.52.2;
#X obj 36 158 reportissue;
#X obj 37 142 aboutexternal;
#X text 35 37 lfopresets v1.0;
#X text 235 5 [lfopresets] is a small lfo controller that is used with
[ce_customarray];
#X text 35 94 2022/06/16 3:56AM;
#X text 237 44 Note* For example this lfo object can be used to modify
partials for the sliders in [ce_customarray] object as show in the
example.;
#X obj 434 414 print get_result;
#X msg 331 240 get_osctype;
#X msg 350 338 get_speed;
#X msg 341 289 get_startvalue;
#X msg 316 189 get_toggle;
#X msg 308 142 get_value;
#X msg 307 116 setvalue 0 1;
#X msg 313 166 settoggle 0;
#X msg 324 215 setosctype 0;
#X msg 339 266 setstartvalue 0;
#X msg 348 315 setspeed 0.5;
#X text 10 320 Outlet(s);
#X text 93 319 0 - LFO value;
#X text 94 340 1 - Get results;
#X obj 341 391 ce_lfopresets;
#X obj 27 5 declare -path clearessentials;
#X obj 38 177 watchtutorial;
#X connect 10 0 23 0;
#X connect 11 0 23 0;
#X connect 12 0 23 0;
#X connect 13 0 23 0;
#X connect 14 0 23 0;
#X connect 15 0 23 0;
#X connect 16 0 23 0;
#X connect 17 0 23 0;
#X connect 18 0 23 0;
#X connect 19 0 23 0;
#X connect 23 4 9 0;
