#N canvas 272 290 544 584 12;
#X obj 112 14 inlet;
#X obj 279 52 inlet;
#X obj 261 76 f;
#X floatatom 212 203 5 0 0 0 - - - 0;
#X obj 182 155 list length;
#X obj 180 132 s2l;
#X msg 198 108 symbol;
#X obj 160 89 t a b;
#X obj 180 202 >;
#X obj 180 230 tgl 19 0 empty empty empty 0 -10 0 12 #fcfcfc #000000 #000000 0 1;
#X obj 105 256 spigot 0;
#X obj 265 399 == 0;
#X obj 265 422 change;
#X obj 265 445 == 1;
#X obj 265 470 tgl 19 0 empty empty empty 0 -10 0 12 #fcfcfc #000000 #000000 0 1;
#X obj 212 496 spigot 0;
#X obj 139 544 outlet;
#X obj 105 332 s2l;
#X msg 123 308 symbol;
#X obj 105 282 t a b b b;
#X obj 112 37 t b a a a b b b;
#X msg 237 332 0;
#X msg 332 101 clear;
#X obj 260 126 - 1;
#X obj 292 129 - 1;
#X msg 72 388 0;
#X obj 114 385 t b f;
#X msg 111 409 0;
#X obj 75 489 l2s;
#X msg 122 462 symbol;
#X obj 75 459 t a b;
#X obj 73 359 t b a;
#X obj 261 101 t f f;
#X obj 129 358 text insert \$0-limitedfname 255;
#X obj 75 433 text get \$0-limitedfname;
#X obj 333 126 text define \$0-limitedfname;
#X msg 75 514 symbol \$1..;
#X connect 0 0 20 0;
#X connect 1 0 2 1;
#X connect 2 0 32 0;
#X connect 4 0 8 0;
#X connect 4 0 3 0;
#X connect 5 0 4 0;
#X connect 6 0 5 1;
#X connect 7 0 5 0;
#X connect 7 1 6 0;
#X connect 8 0 9 0;
#X connect 9 0 10 1;
#X connect 9 0 11 0;
#X connect 10 0 19 0;
#X connect 11 0 12 0;
#X connect 12 0 13 0;
#X connect 13 0 14 0;
#X connect 14 0 15 1;
#X connect 15 0 16 0;
#X connect 17 0 31 0;
#X connect 18 0 17 1;
#X connect 19 0 17 0;
#X connect 19 1 18 0;
#X connect 20 1 10 0;
#X connect 20 2 15 0;
#X connect 20 3 7 0;
#X connect 20 4 2 0;
#X connect 20 5 21 0;
#X connect 20 6 22 0;
#X connect 21 0 33 1;
#X connect 22 0 35 0;
#X connect 23 0 8 1;
#X connect 24 0 26 0;
#X connect 25 0 34 0;
#X connect 26 0 27 0;
#X connect 26 1 34 2;
#X connect 27 0 34 1;
#X connect 28 0 36 0;
#X connect 29 0 28 1;
#X connect 30 0 28 0;
#X connect 30 1 29 0;
#X connect 31 0 25 0;
#X connect 31 1 33 0;
#X connect 32 0 23 0;
#X connect 32 1 24 0;
#X connect 34 0 30 0;
#X connect 36 0 16 0;
