#N canvas 106 146 1011 549 12;
#X declare -lib clearessentials;
#X obj 100 100 cnv 69 312 69 \$0-cnvsbg-send \$0-cnvsbg-recv empty
20 12 0 14 #606060 #404040 0;
#N canvas -108 51 1920 997 \$0-slider-builder 0;
#X obj 13 226 f;
#X obj 8 310 s \$0-displayID;
#X obj 22 48 inlet;
#X obj 118 210 t b;
#X floatatom 13 249 5 0 0 0 - - - 0;
#X obj 13 271 t f;
#X obj 118 234 f;
#X obj 120 257 t f;
#X obj 186 121 t b;
#X obj 187 143 bng 15 250 50 0 empty empty start_writing_sliders 17
7 0 10 #fcfcfc #000000 #000000;
#X obj 56 411 bng 15 250 50 0 empty empty set_vertical_slider 17 7
0 10 #fcfcfc #000000 #000000;
#X obj 354 422 bng 15 250 50 0 empty empty resize_vert 17 7 0 10 #fcfcfc
#000000 #000000;
#X obj 120 372 bng 15 250 50 0 empty empty set_horizontal_slider 17
7 0 10 #fcfcfc #000000 #000000;
#X obj 55 389 t b a;
#N canvas 627 210 486 526 \$0-assignhorizontaldetails 0;
#X obj 90 127 f;
#X obj 88 66 unpack f f;
#X obj 88 92 t b f;
#X obj 152 127 f;
#X obj 150 92 t b f;
#X obj 83 38 inlet;
#X obj 90 154 s \$0-hswidth;
#X obj 153 178 s \$0-hsheight;
#X obj 200 39 r \$0-doassignhdetails;
#X obj 201 65 t b b;
#X connect 0 0 6 0;
#X connect 1 0 2 0;
#X connect 1 1 4 0;
#X connect 2 0 0 0;
#X connect 2 1 0 1;
#X connect 3 0 7 0;
#X connect 4 0 3 0;
#X connect 4 1 3 1;
#X connect 5 0 1 0;
#X connect 8 0 9 0;
#X connect 9 0 0 0;
#X connect 9 1 3 0;
#X restore 135 390 pd \$0-assignhorizontaldetails;
#N canvas 485 129 450 300 \$0-assignverticaldetails 0;
#X obj 90 127 f;
#X obj 88 66 unpack f f;
#X obj 88 92 t b f;
#X obj 152 127 f;
#X obj 150 92 t b f;
#X obj 90 154 s \$0-vswidth;
#X obj 153 178 s \$0-vsheight;
#X obj 83 38 inlet;
#X obj 200 62 t b b;
#X obj 199 36 r \$0-doassignvdetails;
#X connect 0 0 5 0;
#X connect 1 0 2 0;
#X connect 1 1 4 0;
#X connect 2 0 0 0;
#X connect 2 1 0 1;
#X connect 3 0 6 0;
#X connect 4 0 3 0;
#X connect 4 1 3 1;
#X connect 7 0 1 0;
#X connect 8 0 0 0;
#X connect 8 1 3 0;
#X connect 9 0 8 0;
#X restore 52 433 pd \$0-assignverticaldetails;
#X obj 118 347 t b a;
#X obj 430 162 bng 15 250 50 0 empty empty set_padding 17 7 0 10 #fcfcfc
#000000 #000000;
#X obj 412 112 t b f;
#X obj 430 181 f;
#X obj 431 226 s \$0-sliderpadding;
#X obj 395 243 l2s;
#X msg 120 281 \; pd-\$1-mslider-display clear;
#X floatatom 431 204 5 0 0 0 - - - 0;
#N canvas 633 97 1178 721 \$0-resizevertsliders 0;
#X obj 131 188 inlet;
#X obj 260 266 r \$0-sliderpadding;
#X floatatom 260 293 5 0 0 0 - - - 0;
#X floatatom 815 370 5 0 0 0 - - - 0;
#X floatatom 530 334 5 0 0 0 - - - 0;
#X obj 843 410 t b f;
#X obj 556 429 f;
#X obj 843 437 f;
#X obj 257 434 f;
#X obj 550 403 t b f;
#X obj 256 406 t b f;
#X obj 304 428 f;
#X obj 303 400 t b f;
#X obj 305 373 r \$0-displayID;
#X obj 133 505 t l;
#X msg 133 445 0;
#X obj 131 477 pack f f f f f;
#X obj 537 257 spigot 0;
#X obj 602 240 tgl 15 0 empty empty empty 17 7 0 10 #fcfcfc #000000
#000000 0 1;
#X obj 514 221 spigot 0;
#X obj 575 203 tgl 15 0 empty empty empty 17 7 0 10 #fcfcfc #000000
#000000 0 1;
#X obj 808 241 spigot 0;
#X obj 873 224 tgl 15 0 empty empty empty 17 7 0 10 #fcfcfc #000000
#000000 0 1;
#X obj 843 267 spigot 0;
#X obj 908 250 tgl 15 0 empty empty empty 17 7 0 10 #fcfcfc #000000
#000000 0 1;
#X obj 602 210 r \$0-nextdirect-up;
#X obj 557 77 r \$0-totalsliders;
#X floatatom 558 101 5 0 0 0 - - - 0;
#X obj 576 180 r \$0-nextdirect-down;
#X obj 872 189 r \$0-nextdirect-left;
#X obj 907 218 r \$0-nextdirect-right;
#X obj 512 154 *;
#X floatatom 510 179 5 0 0 0 - - - 0;
#X obj 529 125 f;
#X obj 523 96 t b;
#X obj 855 106 r \$0-totalsliders;
#X floatatom 856 130 5 0 0 0 - - - 0;
#X obj 810 183 *;
#X obj 827 154 f;
#X obj 821 125 t b;
#X floatatom 810 211 5 0 0 0 - - - 0;
#X obj 514 358 f;
#X obj 516 285 t b f;
#X obj 796 396 f;
#X obj 811 301 t b f;
#X obj 131 261 spigot 0;
#X obj 196 244 tgl 15 0 empty empty empty 17 7 0 10 #fcfcfc #000000
#000000 0 1;
#X obj 527 25 r \$0-sliderpadding;
#X obj 510 73 +;
#X obj 830 57 r \$0-sliderpadding;
#X obj 810 102 +;
#X obj 259 320 * 4;
#X obj 275 349 s $-clipend;
#X floatatom 787 46 5 0 0 0 - - - 0;
#X floatatom 484 29 5 0 0 0 - - - 0;
#X obj 484 1 r \$0-vsheight;
#X obj 789 21 r \$0-vswidth;
#X obj 193 218 r \$0-vtype;
#X obj 816 324 r \$0-vsheight;
#X obj 527 309 r \$0-vswidth;
#X obj 816 348 + 6;
#X obj 845 460 + 1;
#X obj 909 412 t b f;
#X obj 909 439 f;
#X obj 962 469 *;
#X obj 962 396 r \$0-totalsliders;
#X obj 962 420 t f b;
#X obj 908 390 +;
#X obj 930 365 r \$0-sliderpadding;
#X obj 861 508 +;
#X obj 899 510 r \$0-sliderpadding;
#X obj 861 534 -;
#X msg 995 443 2;
#X obj 997 469 r \$0-sliderpadding;
#X obj 94 626 outlet;
#X msg 133 530 \; pd-\$5-mslider-display coords 0 0 1 1 \$2 \$3 2 100
100;
#X msg 112 571 coords 0 0 1 1 \$2 \$3 2 100 100;
#X obj 239 681 s \$0-cnvsbg-recv;
#X msg 238 656 vis_size \$2 \$3;
#X msg 345 631 size \$3;
#X obj 473 625 t b;
#X msg 475 650 pos 100 100;
#X connect 0 0 45 0;
#X connect 1 0 2 0;
#X connect 2 0 51 0;
#X connect 3 0 43 1;
#X connect 4 0 41 1;
#X connect 5 0 7 0;
#X connect 5 1 7 1;
#X connect 6 0 16 2;
#X connect 7 0 61 0;
#X connect 8 0 16 3;
#X connect 9 0 6 0;
#X connect 9 1 6 1;
#X connect 10 0 8 0;
#X connect 10 1 8 1;
#X connect 11 0 16 4;
#X connect 12 0 11 0;
#X connect 12 1 11 1;
#X connect 13 0 12 0;
#X connect 14 0 75 0;
#X connect 14 0 76 0;
#X connect 15 0 16 0;
#X connect 15 0 34 0;
#X connect 15 0 39 0;
#X connect 16 0 14 0;
#X connect 16 0 78 0;
#X connect 16 0 79 0;
#X connect 16 0 80 0;
#X connect 17 0 42 0;
#X connect 18 0 17 1;
#X connect 19 0 42 0;
#X connect 20 0 19 1;
#X connect 21 0 44 0;
#X connect 22 0 21 1;
#X connect 23 0 44 0;
#X connect 24 0 23 1;
#X connect 25 0 18 0;
#X connect 26 0 27 0;
#X connect 27 0 33 1;
#X connect 28 0 20 0;
#X connect 29 0 22 0;
#X connect 30 0 24 0;
#X connect 31 0 32 0;
#X connect 32 0 19 0;
#X connect 32 0 17 0;
#X connect 33 0 31 1;
#X connect 34 0 33 0;
#X connect 35 0 36 0;
#X connect 36 0 38 1;
#X connect 37 0 40 0;
#X connect 38 0 37 1;
#X connect 39 0 38 0;
#X connect 40 0 23 0;
#X connect 40 0 21 0;
#X connect 41 0 5 0;
#X connect 41 0 67 0;
#X connect 42 0 41 0;
#X connect 42 1 9 0;
#X connect 43 0 9 0;
#X connect 44 0 43 0;
#X connect 44 1 5 0;
#X connect 44 1 67 0;
#X connect 45 0 15 0;
#X connect 46 0 45 1;
#X connect 47 0 48 1;
#X connect 48 0 31 0;
#X connect 49 0 50 1;
#X connect 50 0 37 0;
#X connect 51 0 10 0;
#X connect 51 0 52 0;
#X connect 53 0 50 0;
#X connect 54 0 48 0;
#X connect 55 0 54 0;
#X connect 56 0 53 0;
#X connect 57 0 46 0;
#X connect 58 0 60 0;
#X connect 59 0 4 0;
#X connect 60 0 3 0;
#X connect 62 0 63 0;
#X connect 62 1 63 1;
#X connect 63 0 69 0;
#X connect 64 0 69 1;
#X connect 65 0 66 0;
#X connect 66 0 64 0;
#X connect 66 1 72 0;
#X connect 67 0 62 0;
#X connect 68 0 67 1;
#X connect 69 0 71 0;
#X connect 70 0 71 1;
#X connect 71 0 16 1;
#X connect 73 0 64 1;
#X connect 76 0 74 0;
#X connect 78 0 77 0;
#X connect 79 0 77 0;
#X connect 80 0 81 0;
#X connect 81 0 77 0;
#X coords 0 721 1 720 312 69 0;
#X restore 354 460 pd \$0-resizevertsliders;
#N canvas 410 69 1099 672 \$0-resizehorzsliders 0;
#X obj 131 202 inlet;
#X obj 99 612 outlet;
#X obj 260 266 r \$0-sliderpadding;
#X floatatom 260 293 5 0 0 0 - - - 0;
#X floatatom 815 370 5 0 0 0 - - - 0;
#X floatatom 530 334 5 0 0 0 - - - 0;
#X obj 843 410 t b f;
#X obj 556 429 f;
#X obj 843 437 f;
#X obj 257 434 f;
#X obj 550 403 t b f;
#X obj 256 406 t b f;
#X obj 304 428 f;
#X obj 303 400 t b f;
#X obj 305 373 r \$0-displayID;
#X obj 133 505 t l;
#X msg 133 445 0;
#X obj 131 477 pack f f f f f;
#X obj 537 257 spigot 0;
#X obj 602 240 tgl 15 0 empty empty empty 17 7 0 10 #fcfcfc #000000
#000000 0 1;
#X obj 514 221 spigot 0;
#X obj 575 203 tgl 15 0 empty empty empty 17 7 0 10 #fcfcfc #000000
#000000 0 1;
#X obj 808 241 spigot 0;
#X obj 873 224 tgl 15 0 empty empty empty 17 7 0 10 #fcfcfc #000000
#000000 0 1;
#X obj 843 267 spigot 0;
#X obj 908 250 tgl 15 0 empty empty empty 17 7 0 10 #fcfcfc #000000
#000000 0 1;
#X obj 602 210 r \$0-nextdirect-up;
#X obj 557 77 r \$0-totalsliders;
#X floatatom 558 101 5 0 0 0 - - - 0;
#X obj 576 180 r \$0-nextdirect-down;
#X obj 872 189 r \$0-nextdirect-left;
#X obj 907 218 r \$0-nextdirect-right;
#X obj 512 154 *;
#X floatatom 510 179 5 0 0 0 - - - 0;
#X obj 529 125 f;
#X obj 523 96 t b;
#X obj 855 106 r \$0-totalsliders;
#X floatatom 856 130 5 0 0 0 - - - 0;
#X obj 810 183 *;
#X obj 827 154 f;
#X obj 821 125 t b;
#X floatatom 810 211 5 0 0 0 - - - 0;
#X obj 514 358 f;
#X obj 516 285 t b f;
#X obj 796 396 f;
#X obj 811 301 t b f;
#X obj 131 261 spigot 0;
#X obj 196 244 tgl 15 0 empty empty empty 17 7 0 10 #fcfcfc #000000
#000000 0 1;
#X obj 527 25 r \$0-sliderpadding;
#X obj 510 73 +;
#X obj 830 57 r \$0-sliderpadding;
#X obj 810 102 +;
#X obj 259 320 * 4;
#X obj 275 349 s $-clipend;
#X floatatom 787 46 5 0 0 0 - - - 0;
#X floatatom 484 29 5 0 0 0 - - - 0;
#X obj 845 460 + 1;
#X obj 909 412 t b f;
#X obj 909 439 f;
#X obj 962 469 *;
#X obj 962 396 r \$0-totalsliders;
#X obj 962 420 t f b;
#X obj 908 390 +;
#X obj 930 365 r \$0-sliderpadding;
#X obj 861 508 +;
#X obj 899 510 r \$0-sliderpadding;
#X obj 861 534 -;
#X msg 995 443 2;
#X obj 997 469 r \$0-sliderpadding;
#X msg 133 530 \; pd-\$5-mslider-display coords 0 0 1 1 \$2 \$3 2 100
100;
#X msg 112 571 coords 0 0 1 1 \$2 \$3 2 100 100;
#X obj 484 1 r \$0-hsheight;
#X obj 789 21 r \$0-hswidth;
#X obj 527 309 r \$0-hswidth;
#X obj 816 324 r \$0-hsheight;
#X obj 193 218 r \$0-htype;
#X obj 194 628 s \$0-cnvsbg-recv;
#X msg 193 603 vis_size \$2 \$3;
#X msg 319 603 size \$3;
#X obj 448 591 t b;
#X msg 450 616 pos 100 100;
#X connect 0 0 46 0;
#X connect 2 0 3 0;
#X connect 3 0 52 0;
#X connect 4 0 44 1;
#X connect 5 0 42 1;
#X connect 6 0 8 0;
#X connect 6 1 8 1;
#X connect 7 0 17 2;
#X connect 8 0 56 0;
#X connect 9 0 17 3;
#X connect 10 0 7 0;
#X connect 10 1 7 1;
#X connect 11 0 9 0;
#X connect 11 1 9 1;
#X connect 12 0 17 4;
#X connect 13 0 12 0;
#X connect 13 1 12 1;
#X connect 14 0 13 0;
#X connect 15 0 69 0;
#X connect 15 0 70 0;
#X connect 16 0 17 0;
#X connect 16 0 35 0;
#X connect 16 0 40 0;
#X connect 17 0 15 0;
#X connect 17 0 77 0;
#X connect 17 0 78 0;
#X connect 17 0 79 0;
#X connect 18 0 43 0;
#X connect 19 0 18 1;
#X connect 20 0 43 0;
#X connect 21 0 20 1;
#X connect 22 0 45 0;
#X connect 23 0 22 1;
#X connect 24 0 45 0;
#X connect 25 0 24 1;
#X connect 26 0 19 0;
#X connect 27 0 28 0;
#X connect 28 0 34 1;
#X connect 29 0 21 0;
#X connect 30 0 23 0;
#X connect 31 0 25 0;
#X connect 32 0 33 0;
#X connect 33 0 20 0;
#X connect 33 0 18 0;
#X connect 34 0 32 1;
#X connect 35 0 34 0;
#X connect 36 0 37 0;
#X connect 37 0 39 1;
#X connect 38 0 41 0;
#X connect 39 0 38 1;
#X connect 40 0 39 0;
#X connect 41 0 24 0;
#X connect 41 0 22 0;
#X connect 42 0 6 0;
#X connect 42 0 62 0;
#X connect 43 0 42 0;
#X connect 43 1 10 0;
#X connect 44 0 10 0;
#X connect 45 0 44 0;
#X connect 45 1 6 0;
#X connect 45 1 62 0;
#X connect 46 0 16 0;
#X connect 47 0 46 1;
#X connect 48 0 49 1;
#X connect 49 0 32 0;
#X connect 50 0 51 1;
#X connect 51 0 38 0;
#X connect 52 0 11 0;
#X connect 52 0 53 0;
#X connect 54 0 51 0;
#X connect 55 0 49 0;
#X connect 57 0 58 0;
#X connect 57 1 58 1;
#X connect 58 0 64 0;
#X connect 59 0 64 1;
#X connect 60 0 61 0;
#X connect 61 0 59 0;
#X connect 61 1 67 0;
#X connect 62 0 57 0;
#X connect 63 0 62 1;
#X connect 64 0 66 0;
#X connect 65 0 66 1;
#X connect 66 0 17 1;
#X connect 68 0 59 1;
#X connect 70 0 1 0;
#X connect 71 0 55 0;
#X connect 72 0 54 0;
#X connect 73 0 5 0;
#X connect 74 0 4 0;
#X connect 75 0 47 0;
#X connect 77 0 76 0;
#X connect 78 0 76 0;
#X connect 79 0 80 0;
#X connect 80 0 76 0;
#X restore 388 489 pd \$0-resizehorzsliders;
#X obj 388 438 bng 15 250 50 0 empty empty resize_horz 17 7 0 10 #fcfcfc
#000000 #000000;
#X obj 366 216 t b a;
#X obj 24 205 bng 15 250 50 0 empty empty empty 17 7 0 10 #fcfcfc #000000
#000000;
#X obj 622 369 bng 15 250 50 0 empty empty set_next_direction 17 7
0 10 #fcfcfc #000000 #000000;
#X obj 625 344 t b s;
#X obj 662 293 l2s;
#X obj 623 320 symbol;
#X msg 623 295 bang;
#X obj 622 271 t b a;
#X obj 715 214 bng 15 250 50 0 empty empty totalsliders 17 7 0 10 #fcfcfc
#000000 #000000;
#X obj 714 192 t b f;
#X obj 715 233 f;
#X obj 715 258 s \$0-totalsliders;
#N canvas 394 167 630 467 \$0-assignnextdirection 0;
#X obj 93 56 inlet;
#X msg 91 87 \$1;
#X obj 91 111 route up down left right;
#X obj 93 145 bng 15 250 50 0 empty empty up 17 7 0 10 #fcfcfc #000000
#000000;
#X obj 140 144 bng 15 250 50 0 empty empty down 17 7 0 10 #fcfcfc #000000
#000000;
#X obj 210 151 bng 15 250 50 0 empty empty left 17 7 0 10 #fcfcfc #000000
#000000;
#X obj 257 150 bng 15 250 50 0 empty empty right 17 7 0 10 #fcfcfc
#000000 #000000;
#X msg 93 172 1;
#X msg 138 174 1;
#X msg 158 195 0;
#X msg 114 197 0;
#X msg 206 177 1;
#X msg 251 179 1;
#X msg 271 200 0;
#X msg 227 202 0;
#X obj 162 250 tgl 15 0 empty empty empty 17 7 0 10 #fcfcfc #000000
#000000 0 1;
#X obj 250 249 tgl 15 0 empty empty empty 17 7 0 10 #fcfcfc #000000
#000000 0 1;
#X obj 334 252 tgl 15 0 empty empty empty 17 7 0 10 #fcfcfc #000000
#000000 0 1;
#X obj 422 251 tgl 15 0 empty empty empty 17 7 0 10 #fcfcfc #000000
#000000 0 1;
#X obj 160 272 s \$0-nextdirect-up;
#X obj 248 295 s \$0-nextdirect-down;
#X obj 339 315 s \$0-nextdirect-left;
#X obj 428 339 s \$0-nextdirect-right;
#X connect 0 0 1 0;
#X connect 1 0 2 0;
#X connect 2 0 3 0;
#X connect 2 1 4 0;
#X connect 2 2 5 0;
#X connect 2 3 6 0;
#X connect 3 0 7 0;
#X connect 3 0 10 0;
#X connect 4 0 8 0;
#X connect 4 0 9 0;
#X connect 5 0 11 0;
#X connect 5 0 14 0;
#X connect 6 0 12 0;
#X connect 6 0 13 0;
#X connect 7 0 15 0;
#X connect 8 0 16 0;
#X connect 9 0 15 0;
#X connect 9 0 17 0;
#X connect 9 0 18 0;
#X connect 10 0 16 0;
#X connect 10 0 17 0;
#X connect 10 0 18 0;
#X connect 11 0 17 0;
#X connect 12 0 18 0;
#X connect 13 0 15 0;
#X connect 13 0 16 0;
#X connect 13 0 17 0;
#X connect 14 0 15 0;
#X connect 14 0 16 0;
#X connect 14 0 18 0;
#X connect 15 0 19 0;
#X connect 16 0 20 0;
#X connect 17 0 21 0;
#X connect 18 0 22 0;
#X restore 660 390 pd \$0-assignnextdirection;
#N canvas 756 170 585 551 \$0-assigntypeflags 0;
#X obj 37 37 inlet;
#X obj 42 160 bng 15 250 50 0 empty empty vert-horz-flag 17 7 0 10
#fcfcfc #000000 #000000;
#X obj 83 196 route -h -v;
#X obj 42 138 t b s;
#X obj 74 223 bng 15 250 50 0 empty empty horz 17 7 0 10 #fcfcfc #000000
#000000;
#X obj 121 222 bng 15 250 50 0 empty empty vert 17 7 0 10 #fcfcfc #000000
#000000;
#X msg 79 172 \$1;
#X obj 76 265 tgl 15 0 empty empty empty 17 7 0 10 #fcfcfc #000000
#000000 0 1;
#X msg 74 242 1;
#X obj 131 293 tgl 15 0 empty empty empty 17 7 0 10 #fcfcfc #000000
#000000 0 1;
#X msg 119 244 1;
#X msg 139 265 0;
#X msg 95 267 0;
#X obj 40 114 symbol;
#X msg 40 89 bang;
#X obj 65 336 s \$0-htype;
#X obj 136 359 s \$0-vtype;
#X obj 98 39 inlet;
#X obj 160 56 r \$0-doassignflags;
#X msg 105 392 symbol vsl;
#X msg 106 417 symbol hsl;
#X obj 88 448 s \$0-sliderflag;
#X connect 0 0 13 1;
#X connect 2 0 4 0;
#X connect 2 1 5 0;
#X connect 3 0 1 0;
#X connect 3 1 6 0;
#X connect 4 0 8 0;
#X connect 4 0 12 0;
#X connect 5 0 10 0;
#X connect 5 0 11 0;
#X connect 6 0 2 0;
#X connect 7 0 15 0;
#X connect 8 0 7 0;
#X connect 8 0 20 0;
#X connect 9 0 16 0;
#X connect 10 0 9 0;
#X connect 10 0 19 0;
#X connect 11 0 7 0;
#X connect 12 0 9 0;
#X connect 13 0 3 0;
#X connect 14 0 13 0;
#X connect 17 0 14 0;
#X connect 18 0 14 0;
#X connect 19 0 21 0;
#X connect 20 0 21 0;
#X restore 393 267 pd \$0-assigntypeflags;
#X obj 834 141 l2s;
#X obj 799 165 symbol;
#X msg 799 140 bang;
#X obj 798 116 t b a;
#X obj 397 400 s \$0-doassignflags;
#X obj 435 136 r \$0-doassignpadding;
#X obj 416 377 s \$0-doassignpadding;
#X obj 434 351 s \$0-doassignhdetails;
#X obj 453 328 s \$0-doassignvdetails;
#X obj 368 297 t b b b b b b;
#X obj 800 190 s \$0-instancename;
#X obj 884 117 t b a;
#X obj 888 218 unpack f f f;
#X obj 890 241 s \$0-torangeindex;
#X obj 899 268 s \$0-torangemin;
#X obj 915 289 s \$0-torangemax;
#X msg 183 205 set_srange 0 0 1;
#X obj 206 234 bng 15 250 50 0 empty empty create 17 7 0 10 #fcfcfc
#000000 #000000;
#X obj 184 186 bng 15 250 50 0 empty empty default 17 7 0 10 #fcfcfc
#000000 #000000;
#N canvas 367 124 826 727 \$0-writedefaultsliders 0;
#X obj 32 3 inlet;
#X obj 79 164 r \$0-displayID;
#X msg 355 206 \; obj 103 102 vsl 15 128 0 127 0 0 thislider-send thislider-recv
labelhere 0 -9 0 10 #fcfcfc #000000 #000000 0 1, f 121;
#X floatatom 79 188 5 0 0 0 - - - 0;
#X obj 61 213 f;
#X msg 61 239 \$1;
#X floatatom 65 97 5 0 0 0 - - - 0;
#X obj 62 120 s \$0-atsindex;
#N canvas 208 208 450 300 \$0-countoffsliders 0;
#X obj 56 22 inlet;
#X obj 58 207 outlet;
#X obj 58 121 until;
#X obj 58 149 f;
#X obj 96 149 + 1;
#X obj 141 148 sel 0;
#X obj 96 175 mod 10;
#X obj 60 93 f;
#X obj 85 72 r \$0-totalsliders;
#X obj 56 52 t b b;
#X obj 139 116 r \$0-totalsliders;
#X obj 193 207 outlet;
#X connect 0 0 9 0;
#X connect 2 0 3 0;
#X connect 3 0 4 0;
#X connect 3 0 1 0;
#X connect 4 0 6 0;
#X connect 5 0 2 1;
#X connect 6 0 3 1;
#X connect 6 0 5 0;
#X connect 7 0 2 0;
#X connect 8 0 7 1;
#X connect 9 0 7 0;
#X connect 9 1 11 0;
#X connect 10 0 6 1;
#X restore 64 47 pd \$0-countoffsliders;
#X obj 64 72 t f;
#X obj 61 142 r \$0-writeatindex;
#X obj 61 262 t f f;
#X msg 355 282 2 0 0 0;
#X msg 355 257 1 0 2 0;
#X msg 355 306 3 0 4 0;
#X msg 355 331 4 0 0 0;
#X msg 355 356 5 0 6 0;
#N canvas 208 208 450 300 \$0-create-sendto-routeout 0;
#X obj 105 63 r \$0-displayID;
#X floatatom 105 87 5 0 0 0 - - - 0;
#X obj 87 112 f;
#X obj 87 42 t b;
#X obj 159 86 r \$0-atsindex;
#X obj 159 111 * 20;
#X obj 158 133 + 50;
#X obj 140 160 f;
#X obj 127 136 t b;
#X obj 87 17 inlet;
#X obj 195 150 + 20;
#X obj 270 143 r \$0-instancename;
#X obj 87 184 pack f f s;
#X msg 84 209 \; pd-\$1-recieve-allsends obj 400 \$2 s routeout-\$3
;
#X connect 0 0 1 0;
#X connect 1 0 2 1;
#X connect 2 0 8 0;
#X connect 2 0 12 0;
#X connect 3 0 2 0;
#X connect 4 0 5 0;
#X connect 5 0 6 0;
#X connect 6 0 7 1;
#X connect 7 0 10 0;
#X connect 8 0 7 0;
#X connect 9 0 3 0;
#X connect 10 0 12 1;
#X connect 11 0 12 2;
#X connect 12 0 13 0;
#X restore 209 69 pd \$0-create-sendto-routeout;
#N canvas 699 151 938 773 \$0-write-newslider 0;
#X obj 172 316 r \$0-defaultrangemin;
#X obj 181 341 r \$0-defauiltrangemax;
#X msg 461 273 1;
#X msg 462 249 0;
#X msg 464 164 symbol #fcfcfc;
#X msg 464 222 symbol #000000;
#X obj 462 140 r \$0-sliderfontsize;
#X msg 467 110 0;
#X msg 428 111 0;
#X obj 508 42 r \$0-setdefaultlabel;
#X obj 510 273 r \$0-soffsetx;
#X obj 553 299 r \$0-soffsety;
#X floatatom 553 323 5 0 0 0 - - - 0;
#X floatatom 509 296 5 0 0 0 - - - 0;
#X msg 466 83 symbol \$1;
#N canvas 849 239 450 455 \$0-buildnameatindex 0;
#X obj 60 361 outlet;
#X obj 149 359 outlet;
#X obj 96 88 r \$0-instancename;
#X listbox 96 113 20 0 0 0 - - - 0;
#X obj 98 189 symbol;
#X msg 98 163 bang;
#X obj 98 137 t b s;
#X msg 52 247 symbol \$2-\$3-\$4-send;
#X msg 52 279 symbol \$2-\$3-\$4-recv;
#X obj 47 38 r \$0-displayID;
#X obj 152 141 r \$0-atsindex;
#X obj 48 222 pack f f s f;
#X msg 43 189 0;
#X obj 151 164 t b b f;
#X obj 225 358 outlet;
#X floatatom 47 63 5 0 0 0 - - - 0;
#X connect 2 0 3 0;
#X connect 3 0 6 0;
#X connect 4 0 11 2;
#X connect 5 0 4 0;
#X connect 6 0 5 0;
#X connect 6 1 4 1;
#X connect 7 0 1 0;
#X connect 8 0 14 0;
#X connect 9 0 15 0;
#X connect 10 0 13 0;
#X connect 11 0 7 0;
#X connect 11 0 8 0;
#X connect 12 0 11 0;
#X connect 13 0 0 0;
#X connect 13 1 12 0;
#X connect 13 2 11 3;
#X connect 15 0 11 1;
#X restore 152 268 pd \$0-buildnameatindex;
#X obj 112 302 s \$0-writeatindex;
#N canvas 143 98 1363 770 \$0-atxylocation 0;
#X obj 43 591 outlet;
#X obj 265 601 outlet;
#X obj 301 356 r \$0-toyloc;
#X obj 135 348 r \$0-toxloc;
#X floatatom 269 408 5 0 0 0 - - - 0;
#X floatatom 135 371 5 0 0 0 - - - 0;
#X obj 103 469 +;
#X obj 268 462 +;
#X obj 286 432 r \$0-sliderpadding;
#X floatatom 264 567 5 0 0 0 - - - 0;
#X obj 43 534 +;
#X obj 49 308 *;
#X obj 49 74 r \$0-atsindex;
#X obj 268 333 spigot 0;
#X obj 333 316 tgl 15 0 empty empty empty 17 7 0 10 #fcfcfc #000000
#000000 0 1;
#X obj 49 358 spigot 0;
#X obj 104 336 tgl 15 0 empty empty empty 17 7 0 10 #fcfcfc #000000
#000000 0 1;
#X obj 1026 310 spigot 0;
#X obj 1091 293 tgl 15 0 empty empty empty 17 7 0 10 #fcfcfc #000000
#000000 0 1;
#X obj 105 314 r \$0-nextdirect-left;
#X obj 1089 265 r \$0-nextdirect-right;
#X obj 268 310 *;
#X obj 266 68 r \$0-atsindex;
#X floatatom 46 330 5 0 0 0 - - - 0;
#X obj 287 90 r \$0-sliderflag;
#X listbox 287 114 20 0 0 0 - - - 0;
#X obj 287 159 route hsl vsl;
#X msg 288 137 \$1;
#X obj 288 183 bng 15 250 50 0 empty empty empty 17 7 0 10 #fcfcfc
#000000 #000000;
#X obj 329 184 bng 15 250 50 0 empty empty empty 17 7 0 10 #fcfcfc
#000000 #000000;
#X obj 329 262 f;
#X obj 288 226 f;
#X obj 66 102 r \$0-sliderflag;
#X listbox 66 126 20 0 0 0 - - - 0;
#X obj 66 171 route hsl vsl;
#X msg 67 149 \$1;
#X obj 67 195 bng 15 250 50 0 empty empty empty 17 7 0 10 #fcfcfc #000000
#000000;
#X obj 108 196 bng 15 250 50 0 empty empty empty 17 7 0 10 #fcfcfc
#000000 #000000;
#X obj 113 279 f;
#X obj 67 240 f;
#X obj 956 60 r \$0-sliderflag;
#X listbox 956 84 20 0 0 0 - - - 0;
#X obj 956 129 route hsl vsl;
#X msg 957 107 \$1;
#X obj 957 153 bng 15 250 50 0 empty empty empty 17 7 0 10 #fcfcfc
#000000 #000000;
#X obj 998 154 bng 15 250 50 0 empty empty empty 17 7 0 10 #fcfcfc
#000000 #000000;
#X obj 334 294 r \$0-nextdirect-left;
#X obj 269 358 t b;
#X obj 268 384 f;
#X obj 1078 387 r \$0-sliderflag;
#X listbox 1078 411 20 0 0 0 - - - 0;
#X obj 1078 456 route hsl vsl;
#X msg 1079 434 \$1;
#X obj 1077 488 bng 15 250 50 0 empty empty empty 17 7 0 10 #fcfcfc
#000000 #000000;
#X obj 1118 489 bng 15 250 50 0 empty empty empty 17 7 0 10 #fcfcfc
#000000 #000000;
#X msg 1063 505 1;
#X msg 1124 518 1;
#X obj 1057 528 tgl 15 0 empty empty empty 17 7 0 10 #fcfcfc #000000
#000000 0 1;
#X obj 1121 544 tgl 15 0 empty empty empty 17 7 0 10 #fcfcfc #000000
#000000 0 1;
#X msg 1144 540 0;
#X msg 1081 527 0;
#X obj 1077 642 spigot 0;
#X obj 958 510 spigot 0;
#X obj 968 564 spigot 0;
#X obj 1158 615 spigot 0;
#X obj 778 354 r \$0-toyloc;
#X obj 544 377 r \$0-toxloc;
#X floatatom 741 404 5 0 0 0 - - - 0;
#X floatatom 543 399 5 0 0 0 - - - 0;
#X obj 553 447 +;
#X obj 575 420 r \$0-sliderpadding;
#X obj 741 447 +;
#X obj 759 424 r \$0-sliderpadding;
#X obj 520 472 +;
#X obj 522 302 *;
#X obj 522 68 r \$0-atsindex;
#X obj 741 327 spigot 0;
#X obj 806 310 tgl 15 0 empty empty empty 17 7 0 10 #fcfcfc #000000
#000000 0 1;
#X obj 522 352 spigot 0;
#X obj 577 330 tgl 15 0 empty empty empty 17 7 0 10 #fcfcfc #000000
#000000 0 1;
#X obj 741 304 *;
#X obj 739 62 r \$0-atsindex;
#X floatatom 519 324 5 0 0 0 - - - 0;
#X obj 760 84 r \$0-sliderflag;
#X listbox 760 108 20 0 0 0 - - - 0;
#X obj 760 153 route hsl vsl;
#X msg 761 131 \$1;
#X obj 761 177 bng 15 250 50 0 empty empty empty 17 7 0 10 #fcfcfc
#000000 #000000;
#X obj 802 178 bng 15 250 50 0 empty empty empty 17 7 0 10 #fcfcfc
#000000 #000000;
#X obj 802 256 f;
#X obj 761 220 f;
#X obj 539 96 r \$0-sliderflag;
#X listbox 539 120 20 0 0 0 - - - 0;
#X obj 539 165 route hsl vsl;
#X msg 540 143 \$1;
#X obj 540 189 bng 15 250 50 0 empty empty empty 17 7 0 10 #fcfcfc
#000000 #000000;
#X obj 581 190 bng 15 250 50 0 empty empty empty 17 7 0 10 #fcfcfc
#000000 #000000;
#X obj 581 271 f;
#X obj 540 234 f;
#X obj 742 352 t b;
#X obj 741 378 f;
#X obj 578 308 r \$0-nextdirect-down;
#X obj 807 288 r \$0-nextdirect-down;
#X floatatom 40 562 5 0 0 0 - - - 0;
#X obj 22 279 f;
#X obj 117 416 r \$0-sliderpadding;
#X obj 1158 591 + 3;
#X obj 110 393 + 1;
#X obj 143 243 r \$0-vswidthpad;
#X obj 564 210 r \$0-hswidthpad;
#X obj 595 238 r \$0-vswidthpad;
#X obj 319 204 r \$0-hsheightpad;
#X obj 348 235 r \$0-vsheightpad;
#X obj 793 199 r \$0-hsheightpad;
#X obj 822 228 r \$0-vsheightpad;
#X obj 92 217 r \$0-hswidthpad;
#X obj 307 459 / 2;
#X obj 139 451 / 4;
#X obj 957 483 + 3;
#X connect 2 0 48 1;
#X connect 3 0 5 0;
#X connect 4 0 7 0;
#X connect 4 0 63 0;
#X connect 5 0 107 0;
#X connect 5 0 6 0;
#X connect 6 0 61 0;
#X connect 6 0 118 0;
#X connect 7 0 9 0;
#X connect 8 0 116 0;
#X connect 9 0 1 0;
#X connect 10 0 103 0;
#X connect 11 0 15 0;
#X connect 11 0 23 0;
#X connect 12 0 11 0;
#X connect 13 0 47 0;
#X connect 14 0 13 1;
#X connect 15 0 10 0;
#X connect 16 0 15 1;
#X connect 18 0 17 1;
#X connect 19 0 16 0;
#X connect 20 0 18 0;
#X connect 21 0 13 0;
#X connect 22 0 21 0;
#X connect 24 0 25 0;
#X connect 25 0 27 0;
#X connect 26 0 28 0;
#X connect 26 1 29 0;
#X connect 27 0 26 0;
#X connect 28 0 31 0;
#X connect 29 0 30 0;
#X connect 30 0 21 1;
#X connect 31 0 21 1;
#X connect 32 0 33 0;
#X connect 33 0 35 0;
#X connect 34 0 36 0;
#X connect 34 1 37 0;
#X connect 35 0 34 0;
#X connect 36 0 39 0;
#X connect 37 0 38 0;
#X connect 38 0 11 1;
#X connect 39 0 11 1;
#X connect 40 0 41 0;
#X connect 41 0 43 0;
#X connect 42 0 44 0;
#X connect 42 1 45 0;
#X connect 43 0 42 0;
#X connect 46 0 14 0;
#X connect 47 0 48 0;
#X connect 48 0 4 0;
#X connect 48 0 106 0;
#X connect 49 0 50 0;
#X connect 50 0 52 0;
#X connect 51 0 53 0;
#X connect 51 1 54 0;
#X connect 52 0 51 0;
#X connect 53 0 55 0;
#X connect 53 0 60 0;
#X connect 54 0 56 0;
#X connect 54 0 59 0;
#X connect 55 0 57 0;
#X connect 56 0 58 0;
#X connect 57 0 62 1;
#X connect 57 0 63 1;
#X connect 58 0 61 1;
#X connect 58 0 64 1;
#X connect 59 0 57 0;
#X connect 60 0 58 0;
#X connect 61 0 10 1;
#X connect 62 0 10 1;
#X connect 63 0 9 0;
#X connect 64 0 9 0;
#X connect 65 0 100 1;
#X connect 66 0 68 0;
#X connect 67 0 71 0;
#X connect 68 0 69 0;
#X connect 68 0 73 1;
#X connect 70 0 69 1;
#X connect 71 0 9 0;
#X connect 72 0 71 1;
#X connect 73 0 103 0;
#X connect 74 0 78 0;
#X connect 74 0 82 0;
#X connect 75 0 74 0;
#X connect 76 0 99 0;
#X connect 77 0 76 1;
#X connect 78 0 73 0;
#X connect 79 0 78 1;
#X connect 80 0 76 0;
#X connect 81 0 80 0;
#X connect 83 0 84 0;
#X connect 84 0 86 0;
#X connect 85 0 87 0;
#X connect 85 1 88 0;
#X connect 86 0 85 0;
#X connect 87 0 90 0;
#X connect 88 0 89 0;
#X connect 89 0 80 1;
#X connect 90 0 80 1;
#X connect 91 0 92 0;
#X connect 92 0 94 0;
#X connect 93 0 95 0;
#X connect 93 1 96 0;
#X connect 94 0 93 0;
#X connect 95 0 98 0;
#X connect 96 0 97 0;
#X connect 97 0 74 1;
#X connect 98 0 74 1;
#X connect 99 0 100 0;
#X connect 100 0 67 0;
#X connect 101 0 79 0;
#X connect 102 0 77 0;
#X connect 103 0 0 0;
#X connect 105 0 117 0;
#X connect 106 0 64 0;
#X connect 108 0 38 1;
#X connect 109 0 98 1;
#X connect 110 0 97 1;
#X connect 111 0 31 1;
#X connect 112 0 30 1;
#X connect 113 0 90 1;
#X connect 114 0 89 1;
#X connect 115 0 39 1;
#X connect 116 0 7 1;
#X connect 117 0 6 1;
#X connect 118 0 62 0;
#X restore 100 192 pd \$0-atxylocation;
#X obj 155 220 r \$0-sliderflag;
#X msg 84 405 \; pd-\$1-mslider-display obj \$2 \$3 \$4 \$5 \$6 \$7
\$8 \$9 \$10 \$11 \$12 \$13 \$14 \$15 \$16 \$17 \$18 \$19 \$20 \$21
\$22, f 86;
#X obj 84 376 pack f f f s f f f f f f s s s f f f f s s s f f;
#X listbox 156 243 20 0 0 0 - - - 0;
#N canvas 512 64 878 780 \$0-VHChecks 0;
#X floatatom 236 129 5 0 0 0 - - - 0;
#X floatatom 196 103 5 0 0 0 - - - 0;
#X obj 195 77 r \$0-vswidth;
#X obj 238 104 r \$0-vsheight;
#X obj 255 260 r \$0-sliderpadding;
#X obj 236 285 +;
#X obj 220 179 r \$0-sliderpadding;
#X obj 201 204 +;
#X floatatom 151 79 5 0 0 0 - - - 0;
#X floatatom 112 53 5 0 0 0 - - - 0;
#X obj 160 342 r \$0-sliderpadding;
#X obj 141 395 +;
#X obj 98 440 r \$0-sliderpadding;
#X obj 81 485 +;
#X obj 111 27 r \$0-hswidth;
#X obj 153 52 r \$0-hsheight;
#X obj 201 238 s \$0-vswidthpad;
#X obj 238 309 s \$0-vsheightpad;
#X obj 80 513 s \$0-hswidthpad;
#X obj 139 418 s \$0-hsheightpad;
#N canvas 592 208 450 407 \$0-checktype 0;
#X obj 95 43 inlet;
#X obj 182 80 r \$0-sliderflag;
#X listbox 182 104 20 0 0 0 - - - 0;
#X obj 182 149 route hsl vsl;
#X msg 183 127 \$1;
#X obj 181 181 bng 15 250 50 0 empty empty empty 17 7 0 10 #fcfcfc
#000000 #000000;
#X obj 222 182 bng 15 250 50 0 empty empty empty 17 7 0 10 #fcfcfc
#000000 #000000;
#X msg 167 198 1;
#X msg 228 211 1;
#X obj 161 221 tgl 15 0 empty empty empty 17 7 0 10 #fcfcfc #000000
#000000 0 1;
#X obj 225 237 tgl 15 0 empty empty empty 17 7 0 10 #fcfcfc #000000
#000000 0 1;
#X msg 248 233 0;
#X msg 185 220 0;
#X obj 85 314 outlet;
#X obj 185 312 outlet;
#X obj 83 275 spigot 0;
#X obj 184 281 spigot 0;
#X obj 163 39 inlet;
#X obj 252 284 spigot 0;
#X obj 258 318 outlet;
#X obj 216 39 inlet;
#X obj 45 43 inlet;
#X obj 24 316 outlet;
#X obj 15 274 spigot 0;
#X connect 0 0 15 0;
#X connect 1 0 2 0;
#X connect 2 0 4 0;
#X connect 3 0 5 0;
#X connect 3 1 6 0;
#X connect 4 0 3 0;
#X connect 5 0 7 0;
#X connect 5 0 12 0;
#X connect 6 0 8 0;
#X connect 6 0 11 0;
#X connect 7 0 9 0;
#X connect 8 0 10 0;
#X connect 9 0 15 1;
#X connect 9 0 23 1;
#X connect 10 0 16 1;
#X connect 10 0 18 1;
#X connect 11 0 9 0;
#X connect 12 0 10 0;
#X connect 15 0 13 0;
#X connect 16 0 14 0;
#X connect 17 0 16 0;
#X connect 18 0 19 0;
#X connect 20 0 18 0;
#X connect 21 0 23 0;
#X connect 23 0 22 0;
#X restore 134 154 pd \$0-checktype;
#X obj 159 369 * 2;
#X obj 100 462 * 2;
#X obj 203 581 outlet;
#X obj 273 518 outlet;
#X connect 0 0 20 3;
#X connect 1 0 20 2;
#X connect 2 0 1 0;
#X connect 3 0 0 0;
#X connect 4 0 5 1;
#X connect 5 0 17 0;
#X connect 6 0 7 1;
#X connect 7 0 16 0;
#X connect 7 0 23 0;
#X connect 8 0 20 1;
#X connect 9 0 20 0;
#X connect 10 0 21 0;
#X connect 11 0 19 0;
#X connect 12 0 22 0;
#X connect 13 0 18 0;
#X connect 14 0 9 0;
#X connect 15 0 8 0;
#X connect 20 0 13 0;
#X connect 20 0 23 0;
#X connect 20 1 11 0;
#X connect 20 1 24 0;
#X connect 20 2 7 0;
#X connect 20 3 5 0;
#X connect 20 3 24 0;
#X connect 21 0 11 1;
#X connect 22 0 13 1;
#X restore 184 136 pd \$0-VHChecks;
#X floatatom 276 168 5 0 0 0 - - - 0;
#X floatatom 185 165 5 0 0 0 - - - 0;
#X obj 29 126 inlet;
#X msg 438 479 pd-\$2-recieve-allsends obj 100 \$4 r \$2-multislider-\$5-send
\; pd-\$2-recieve-allsends msg 314 \$4 \$2 \$5 \$1 \;;
#X msg 95 519 \$2;
#X msg 24 621 0;
#X msg 134 518 \$3;
#X msg 55 520 \$1;
#X obj 92 475 t b a a a;
#X msg 173 519 \$4;
#X obj 127 625 - 1;
#X obj 281 515 * 20;
#X obj 322 516 + 1;
#X msg 45 435 \$1;
#X obj 244 477 r \$0-atsindex;
#X floatatom 161 610 5 0 0 0 - - - 0;
#X obj 239 517 + 20;
#X obj 204 593 r \$0-instancename;
#X obj 108 270 \$1;
#X obj 360 511 loadbang;
#X obj 230 550 pack f f f f;
#X obj 33 651 pack f f f f f s f;
#X obj 363 553 bng 15 250 50 0 empty empty empty 17 7 0 10 #fcfcfc
#000000 #000000;
#X floatatom 363 616 5 0 0 0 - - - 0;
#X obj 47 166 t f b;
#X obj 361 584 \$1;
#X msg 35 678 \; pd-\$2-recieve-allsends obj 100 \$4 r \$2-\$6-\$5-send
\; pd-\$2-recieve-allsends msg 314 \$4 \$7 \$5 \\\$1 \;;
#X connect 0 0 20 6;
#X connect 1 0 20 7;
#X connect 2 0 20 21;
#X connect 3 0 20 20;
#X connect 4 0 20 17;
#X connect 5 0 20 19;
#X connect 5 0 20 18;
#X connect 6 0 20 16;
#X connect 7 0 20 15;
#X connect 8 0 20 9;
#X connect 8 0 20 8;
#X connect 9 0 14 0;
#X connect 9 0 8 0;
#X connect 9 0 7 0;
#X connect 9 0 4 0;
#X connect 9 0 5 0;
#X connect 9 0 3 0;
#X connect 9 0 2 0;
#X connect 10 0 13 0;
#X connect 11 0 12 0;
#X connect 12 0 20 14;
#X connect 13 0 20 13;
#X connect 14 0 20 12;
#X connect 15 0 16 0;
#X connect 15 1 20 10;
#X connect 15 2 20 11;
#X connect 17 0 20 1;
#X connect 17 1 20 2;
#X connect 18 0 20 3;
#X connect 18 0 21 0;
#X connect 20 0 19 0;
#X connect 20 0 36 0;
#X connect 22 0 24 0;
#X connect 22 1 23 0;
#X connect 23 0 20 5;
#X connect 24 0 20 4;
#X connect 25 0 47 0;
#X connect 27 0 44 2;
#X connect 28 0 44 0;
#X connect 29 0 44 3;
#X connect 30 0 44 1;
#X connect 31 0 28 0;
#X connect 31 1 29 0;
#X connect 31 1 27 0;
#X connect 31 1 30 0;
#X connect 31 1 32 0;
#X connect 32 0 33 0;
#X connect 32 0 38 0;
#X connect 33 0 44 4;
#X connect 34 0 43 2;
#X connect 35 0 43 3;
#X connect 36 0 43 0;
#X connect 37 0 34 0;
#X connect 37 0 35 0;
#X connect 37 0 39 0;
#X connect 39 0 43 1;
#X connect 40 0 44 5;
#X connect 41 0 16 0;
#X connect 42 0 45 0;
#X connect 43 0 31 0;
#X connect 44 0 49 0;
#X connect 45 0 48 0;
#X connect 47 0 20 0;
#X connect 47 1 45 0;
#X connect 48 0 44 6;
#X connect 48 0 46 0;
#X restore 93 287 pd \$0-write-newslider;
#N canvas 1072 370 446 554 \$0-make-objconnections 0;
#X obj 160 97 * 20;
#X obj 107 120 pack f f f f;
#N canvas 783 259 396 488 \$0-evenoddcheck 0;
#X obj 174 213 &;
#X floatatom 174 118 5 0 0 0 - - - 0;
#X obj 174 148 t b f;
#X floatatom 110 100 5 0 0 0 - - - 0;
#X floatatom 174 241 4 0 0 0 - - - 0;
#X msg 166 90 1;
#X obj 104 69 t f b;
#X obj 102 38 inlet;
#X obj 169 270 sel 0 1;
#X obj 136 340 outlet;
#X obj 205 341 outlet;
#X obj 137 308 t b;
#X obj 200 307 t b;
#X connect 0 0 4 0;
#X connect 1 0 2 0;
#X connect 2 0 0 0;
#X connect 2 1 0 1;
#X connect 3 0 0 0;
#X connect 4 0 8 0;
#X connect 5 0 1 0;
#X connect 6 0 3 0;
#X connect 6 1 5 0;
#X connect 7 0 6 0;
#X connect 8 0 11 0;
#X connect 8 1 12 0;
#X connect 11 0 9 0;
#X connect 12 0 10 0;
#X restore 143 167 pd \$0-evenoddcheck;
#X obj 287 200 bng 15 250 50 0 empty empty empty 17 7 0 10 #fcfcfc
#000000 #000000;
#X obj 143 196 bng 15 250 50 0 empty empty empty 17 7 0 10 #fcfcfc
#000000 #000000;
#X obj 260 285 spigot 0;
#X obj 324 266 tgl 15 0 empty empty empty 17 7 0 10 #fcfcfc #000000
#000000 0 1;
#X msg 310 244 1;
#X msg 341 243 0;
#X obj 105 283 spigot 0;
#X obj 169 264 tgl 15 0 empty empty empty 17 7 0 10 #fcfcfc #000000
#000000 0 1;
#X msg 166 239 1;
#X msg 200 239 0;
#N canvas 879 246 772 539 \$0-evenconnection 0;
#X msg 136 139 \$2;
#X msg 65 241 0;
#X msg 175 138 \$3;
#X msg 96 140 \$1;
#X obj 133 95 t b a a a;
#X obj 74 271 pack f f f f f;
#X msg 214 139 \$4;
#X obj 146 54 inlet;
#X msg 311 187 \; pd-\$2-recieve-allsends obj 100 \$4 r \$2-multislider-\$5-send
\; pd-\$2-recieve-allsends msg 314 \$4 \$2 \$5 \\\$1 \; pd-\$2-recieve-allsends
connect \$3 0 0 0;
#X msg 72 303 \; pd-\$2-recieve-allsends connect \$3 0 0 0;
#X floatatom 254 158 5 0 0 0 - - - 0;
#X obj 212 183 - 1;
#X floatatom 127 177 5 0 0 0 - - - 0;
#X msg 84 367 makecon;
#X connect 0 0 12 0;
#X connect 1 0 5 0;
#X connect 2 0 5 3;
#X connect 3 0 5 1;
#X connect 4 0 1 0;
#X connect 4 1 2 0;
#X connect 4 1 0 0;
#X connect 4 1 3 0;
#X connect 4 1 6 0;
#X connect 5 0 9 0;
#X connect 6 0 10 0;
#X connect 6 0 11 0;
#X connect 7 0 4 0;
#X connect 11 0 5 4;
#X connect 12 0 5 2;
#X restore 104 309 pd \$0-evenconnection;
#N canvas 319 319 626 470 \$0-oddconnection 0;
#X msg 136 139 \$2;
#X msg 65 241 0;
#X msg 175 138 \$3;
#X msg 96 140 \$1;
#X obj 76 91 t b a a a;
#X msg 214 139 \$4;
#X msg 54 377 \; pd-\$2-recieve-allsends obj 100 \$4 r \$2-multislider-\$3-recv
\;;
#X obj 75 66 inlet;
#X obj 74 271 pack f f f f f f;
#X obj 170 206 + 1;
#X obj 221 193 - 1;
#X msg 55 417 \; pd-\$2-recieve-allsends obj 100 \$4 r \$2-multislider-\$5-send
\; pd-\$2-recieve-allsends msg 314 \$4 \$2 \$5 \\\$1 \; pd-\$2-recieve-allsends
connect \$3 0 \$6 0;
#X msg 72 297 \; pd-\$2-recieve-allsends connect \$3 0 \$6 0;
#X connect 0 0 8 2;
#X connect 0 0 9 0;
#X connect 1 0 8 0;
#X connect 2 0 8 3;
#X connect 3 0 8 1;
#X connect 4 0 1 0;
#X connect 4 1 2 0;
#X connect 4 1 0 0;
#X connect 4 1 3 0;
#X connect 4 1 5 0;
#X connect 5 0 10 0;
#X connect 7 0 4 0;
#X connect 8 0 12 0;
#X connect 9 0 8 5;
#X connect 10 0 8 4;
#X restore 259 313 pd \$0-oddconnection;
#X obj 287 220 t b b b;
#X obj 143 216 t b b b;
#X obj 197 96 + 1;
#X obj 108 48 inlet;
#X obj 145 145 r \$0-atcindex;
#X obj 155 48 r \$0-atcindex;
#X floatatom 247 88 5 0 0 0 - - - 0;
#X connect 0 0 1 2;
#X connect 1 0 5 0;
#X connect 1 0 9 0;
#X connect 2 0 4 0;
#X connect 2 1 3 0;
#X connect 3 0 15 0;
#X connect 4 0 16 0;
#X connect 5 0 14 0;
#X connect 6 0 5 1;
#X connect 7 0 6 0;
#X connect 8 0 10 0;
#X connect 9 0 13 0;
#X connect 10 0 9 1;
#X connect 11 0 10 0;
#X connect 12 0 6 0;
#X connect 15 1 7 0;
#X connect 15 2 8 0;
#X connect 16 1 11 0;
#X connect 16 2 12 0;
#X connect 17 0 1 3;
#X connect 18 0 1 0;
#X connect 19 0 2 0;
#X connect 20 0 0 0;
#X connect 20 0 1 1;
#X connect 20 0 17 0;
#X connect 20 0 21 0;
#X restore 31 585 pd \$0-make-objconnections;
#X msg 355 383 6 0 0 0;
#X msg 355 408 7 0 8 0;
#X msg 355 433 8 0 0 0;
#X floatatom 32 362 5 0 0 0 - - - 0;
#X obj 32 338 t f;
#X obj 32 23 t b b;
#N canvas 519 149 576 640 \$0-countoffconnections 0;
#X obj 28 37 inlet;
#X obj 55 440 outlet;
#X obj 68 131 until;
#X obj 68 159 f;
#X obj 106 159 + 1;
#X obj 140 158 sel 0;
#X obj 106 185 mod 10;
#X obj 70 103 f;
#X obj 38 77 t b b;
#X obj 185 158 r \$0-totalsliders;
#X obj 244 563 outlet;
#X obj 89 59 r \$0-totalsliders;
#X obj 95 210 r \$0-totalsliders;
#X obj 70 236 +, f 4;
#X obj 243 233 r \$0-totalsliders;
#X obj 221 259 f;
#X obj 233 319 r \$0-totalsliders;
#X obj 215 373 tgl 15 0 empty empty empty 17 7 0 10 #fcfcfc #000000
#000000 0 1;
#X obj 215 345 <;
#X obj 157 397 spigot 0;
#X obj 272 365 > 0;
#X obj 271 391 tgl 15 0 empty empty empty 17 7 0 10 #fcfcfc #000000
#000000 0 1;
#X obj 220 423 spigot 0;
#X obj 347 468 tgl 15 0 empty empty empty 17 7 0 10 #fcfcfc #000000
#000000 0 1;
#X obj 295 498 spigot 0;
#X obj 348 442 ==;
#X floatatom 300 275 5 0 0 0 - - - 0;
#X obj 378 321 f;
#X obj 378 284 bng 15 250 50 0 empty empty empty 17 7 0 10 #fcfcfc
#000000 #000000;
#X obj 375 259 del;
#X connect 0 0 8 0;
#X connect 2 0 3 0;
#X connect 3 0 4 0;
#X connect 3 0 13 0;
#X connect 3 0 18 0;
#X connect 3 0 19 0;
#X connect 3 0 20 0;
#X connect 3 0 25 0;
#X connect 4 0 6 0;
#X connect 5 0 2 1;
#X connect 6 0 3 1;
#X connect 6 0 5 0;
#X connect 7 0 2 0;
#X connect 8 0 15 0;
#X connect 8 1 7 0;
#X connect 9 0 6 1;
#X connect 11 0 7 1;
#X connect 12 0 13 1;
#X connect 13 0 1 0;
#X connect 14 0 15 1;
#X connect 14 0 25 1;
#X connect 14 0 26 0;
#X connect 15 0 3 0;
#X connect 16 0 18 1;
#X connect 17 0 19 1;
#X connect 18 0 17 0;
#X connect 19 0 22 0;
#X connect 20 0 21 0;
#X connect 21 0 22 1;
#X connect 22 0 10 0;
#X connect 23 0 24 1;
#X connect 24 0 10 0;
#X connect 25 0 23 0;
#X connect 26 0 27 1;
#X connect 26 0 29 0;
#X connect 27 0 24 0;
#X connect 28 0 27 0;
#X connect 29 0 28 0;
#X restore 33 315 pd \$0-countoffconnections;
#X obj 63 413 s \$0-atcindex;
#X obj 50 464 r \$0-displayID;
#X floatatom 50 488 5 0 0 0 - - - 0;
#X obj 32 513 f;
#X msg 32 539 \$1;
#X obj 32 562 t f f;
#X obj 32 385 t b f;
#X obj 238 162 r \$0-vsheight;
#X obj 244 184 r \$0-vswidth;
#X obj 176 236 r \$0-hsheight;
#X obj 132 212 r \$0-hswidth;
#X connect 0 0 25 0;
#X connect 1 0 3 0;
#X connect 3 0 4 1;
#X connect 4 0 5 0;
#X connect 5 0 11 0;
#X connect 6 0 7 0;
#X connect 8 0 9 0;
#X connect 8 1 17 0;
#X connect 9 0 6 0;
#X connect 10 0 4 0;
#X connect 11 1 18 0;
#X connect 23 0 33 0;
#X connect 24 0 23 0;
#X connect 25 0 26 0;
#X connect 25 1 8 0;
#X connect 26 0 24 0;
#X connect 26 1 24 0;
#X connect 28 0 29 0;
#X connect 29 0 30 1;
#X connect 30 0 31 0;
#X connect 31 0 32 0;
#X connect 32 0 19 0;
#X connect 33 0 30 0;
#X connect 33 1 27 0;
#X restore 205 255 pd \$0-writedefaultsliders;
#X obj 988 194 s \$0-defaultrangemin;
#X obj 1059 217 s \$0-defauiltrangemax;
#X obj 994 145 bng 15 250 50 0 empty empty minrange 17 7 0 10 #fcfcfc
#000000 #000000;
#X obj 993 123 t b f;
#X obj 994 164 f;
#X obj 1068 145 bng 15 250 50 0 empty empty maxrange 17 7 0 10 #fcfcfc
#000000 #000000;
#X obj 1067 123 t b f;
#X obj 1068 164 f;
#X obj 1069 259 unpack f f f;
#X obj 1139 130 t a;
#X obj 1071 282 s \$0-toxloc;
#X obj 1080 304 s \$0-toyloc;
#X obj 1171 147 bng 15 250 50 0 empty empty empty 17 7 0 10 #fcfcfc
#000000 #000000;
#X obj 1249 229 bng 15 250 50 0 empty empty fontsize 17 7 0 10 #fcfcfc
#000000 #000000;
#X obj 1248 207 t b f;
#X obj 1249 248 f;
#X obj 1305 491 s \$0-sliderfontsize;
#X obj 1330 253 t b a;
#X obj 1362 373 unpack f s;
#X obj 1361 421 s \$0-atdefaultlabel;
#X obj 1398 337 s \$0-setdefaultlabel;
#X obj 1398 315 symbol;
#X msg 1394 289 bang;
#X obj 1440 398 s \$0-setnewlabel;
#X obj 1396 258 t b a;
#X listbox 1449 294 20 0 0 0 - - - 0;
#X obj 1447 269 unpack s;
#X listbox 1425 453 20 0 0 0 - - - 0;
#X msg 118 27 set_srange 0 1 11;
#N canvas 189 406 1340 512 \$0-slidercmds 0;
#X obj 63 214 s;
#X obj 77 89 r \$0-displayID;
#X obj 130 59 r \$0-torangemax;
#X obj 96 40 r \$0-torangemin;
#X obj 54 18 r \$0-torangeindex;
#X msg 53 167 range \$3 \$4;
#X obj 53 141 t a a;
#X obj 42 191 bng 15 250 50 0 empty empty empty 17 7 0 10 #fcfcfc #000000
#000000;
#X obj 304 203 s;
#X obj 336 79 r \$0-displayID;
#X obj 303 131 t a a;
#X msg 304 156 label \$3;
#X obj 371 31 r \$0-setnewlabel;
#X obj 303 56 r \$0-atdefaultlabel;
#X obj 582 204 s;
#X obj 600 82 r \$0-displayID;
#X obj 582 132 t a a;
#X obj 651 55 r \$0-slider-bgcolor;
#X obj 581 33 r \$0-atcolorslider;
#X obj 969 204 s;
#X obj 983 79 r \$0-displayID;
#X obj 959 131 t a a;
#X obj 948 181 bng 15 250 50 0 empty empty empty 17 7 0 4 #fcfcfc #000000
#000000;
#X obj 1086 48 r \$0-sliderfontsize;
#X msg 1032 54 3;
#X obj 956 28 r \$0-atfontindex;
#X msg 960 156 label_font \$3 \$4;
#X msg 582 157 color \$3 \$4 \$5;
#X obj 723 77 r \$0-slider-frontcolor;
#X obj 761 101 r \$0-slider-labelcolor;
#X obj 193 412 s;
#X obj 211 310 r \$0-displayID;
#X obj 178 362 t a a;
#X msg 179 385 \$3;
#X obj 53 117 pack f f f f s;
#X obj 303 107 pack f f s s;
#X obj 582 108 pack f f f f f s;
#X obj 959 107 pack f f f f s;
#X obj 163 112 r \$0-instancename;
#X obj 408 108 r \$0-instancename;
#X obj 719 133 r \$0-instancename;
#X obj 1071 115 r \$0-instancename;
#X msg 84 190 symbol \$2-\$5-\$1-recv;
#X msg 325 179 symbol \$2-\$4-\$1-recv;
#X msg 603 180 symbol \$2-\$6-\$1-recv;
#X msg 990 180 symbol \$2-\$5-\$1-recv;
#X obj 178 338 pack f f f s;
#X obj 278 341 r \$0-instancename;
#X msg 214 388 symbol \$2-\$4-\$1-recv;
#X obj 178 287 r \$0-\$1-atnewsvalue;
#X obj 246 262 r \$0-\$1-setnewsvalue;
#X connect 1 0 34 1;
#X connect 2 0 34 3;
#X connect 3 0 34 2;
#X connect 4 0 34 0;
#X connect 5 0 0 0;
#X connect 5 0 7 0;
#X connect 6 0 5 0;
#X connect 6 1 42 0;
#X connect 9 0 35 1;
#X connect 10 0 11 0;
#X connect 10 1 43 0;
#X connect 11 0 8 0;
#X connect 12 0 35 2;
#X connect 13 0 35 0;
#X connect 15 0 36 1;
#X connect 16 0 27 0;
#X connect 16 1 44 0;
#X connect 17 0 36 2;
#X connect 18 0 36 0;
#X connect 20 0 37 1;
#X connect 21 0 26 0;
#X connect 21 1 45 0;
#X connect 23 0 24 0;
#X connect 23 0 37 3;
#X connect 24 0 37 2;
#X connect 25 0 37 0;
#X connect 26 0 19 0;
#X connect 26 0 22 0;
#X connect 27 0 14 0;
#X connect 28 0 36 3;
#X connect 29 0 36 4;
#X connect 31 0 46 1;
#X connect 32 0 33 0;
#X connect 32 1 48 0;
#X connect 33 0 30 0;
#X connect 34 0 6 0;
#X connect 35 0 10 0;
#X connect 36 0 16 0;
#X connect 37 0 21 0;
#X connect 38 0 34 4;
#X connect 39 0 35 3;
#X connect 40 0 36 5;
#X connect 41 0 37 4;
#X connect 42 0 0 1;
#X connect 43 0 8 1;
#X connect 44 0 14 1;
#X connect 45 0 19 1;
#X connect 46 0 32 0;
#X connect 47 0 46 3;
#X connect 48 0 30 1;
#X connect 49 0 46 0;
#X connect 50 0 46 2;
#X restore 50 478 pd \$0-slidercmds;
#X obj 1535 538 s \$0-atcolorslider;
#X obj 1582 567 s \$0-slider-bgcolor;
#X obj 1242 420 unpack f f;
#X obj 1241 468 s \$0-atfontindex;
#X msg 562 38 set_fontsize 0 12;
#X obj 1642 588 s \$0-slider-frontcolor;
#X obj 1692 613 s \$0-slider-labelcolor;
#X obj 1536 490 unpack f f f f;
#X msg 718 37 set_color 0 7 9 25;
#X msg 391 39 set_label 0 empty;
#N canvas 482 164 1920 997 \$0-recieve-allsends 0;
#X obj 400 210 s routeout-multislider;
#X obj 100 0 r 1107-multislider-0-send;
#X msg 314 0 99 0 \$1;
#X obj 100 20 r 1107-multislider-1-send;
#X msg 314 20 99 1 \$1;
#X obj 100 40 r 1107-multislider-2-send;
#X msg 314 40 99 2 \$1;
#X obj 100 60 r 1107-multislider-3-send;
#X msg 314 60 99 3 \$1;
#X obj 100 80 r 1107-multislider-4-send;
#X msg 314 80 99 4 \$1;
#X obj 100 100 r 1107-multislider-5-send;
#X msg 314 100 99 5 \$1;
#X obj 100 120 r 1107-multislider-6-send;
#X msg 314 120 99 6 \$1;
#X obj 100 140 r 1107-multislider-7-send;
#X msg 314 140 99 7 \$1;
#X connect 1 0 2 0;
#X connect 2 0 0 0;
#X connect 3 0 4 0;
#X connect 4 0 0 0;
#X connect 5 0 6 0;
#X connect 6 0 0 0;
#X connect 7 0 8 0;
#X connect 8 0 0 0;
#X connect 9 0 10 0;
#X connect 10 0 0 0;
#X connect 11 0 12 0;
#X connect 12 0 0 0;
#X connect 13 0 14 0;
#X connect 14 0 0 0;
#X connect 15 0 16 0;
#X connect 16 0 0 0;
#X restore 49 507 pd \$0-recieve-allsends;
#X msg 164 321 \; pd-\$1-recieve-allsends clear;
#X obj 1386 190 bng 15 250 50 0 empty empty showuid 17 7 0 10 #fcfcfc
#000000 #000000;
#X obj 1385 168 t b f;
#X obj 1386 209 f;
#X obj 1454 223 tgl 15 0 empty empty empty 17 7 0 10 #fcfcfc #000000
#000000 0 1;
#X obj 1498 225 s \$0-showuidstatus;
#X obj 396 528 outlet;
#X obj 344 529 outlet;
#X obj 24 73 route initiate clear writesliders set_hslidersize set_vslidersize
set_padding resize_display set_type set_instanceID set_nextdirection
set_totalsliders set_iname set_srange set_defaultminrange set_defaultmaxrange
set_startloc set_fontsize set_label set_defaultlabel set_color set_showuniqueid
set_value set_allvalues, f 223;
#X floatatom 1291 587 5 0 0 0 - - - 0;
#X obj 1292 564 unpack f;
#X obj 1283 679 until;
#X obj 1283 707 f;
#X obj 1321 707 + 1;
#X obj 1366 706 sel 0;
#X obj 1285 651 f;
#X obj 1310 630 r \$0-totalsliders;
#X obj 1364 674 r \$0-totalsliders;
#X obj 1290 609 t b f;
#X obj 1283 757 pack f f;
#X obj 1287 783 unpack f f;
#X obj 1321 733 mod 8;
#X obj 22 137 t b b;
#X obj 56 160 \$0;
#N canvas 1040 139 519 709 \$0-setsinglevalue 0;
#X obj 21 7 inlet;
#X obj 46 121 unpack f f f;
#X obj 302 179 \$1;
#X floatatom 305 201 5 0 0 0 - - - 0;
#X obj 293 224 ==;
#X obj 209 438 pack f f f;
#X obj 285 253 sel 0 1;
#X obj 304 395 spigot 0;
#X msg 281 292 0;
#X msg 319 294 1;
#X obj 280 319 tgl 15 0 empty empty empty 17 7 0 10 #fcfcfc #000000
#000000 0 1;
#X obj 229 396 spigot 0;
#X obj 141 398 spigot 0;
#X obj 208 462 unpack f f f;
#X obj 248 553 s;
#X msg 309 581 symbol \$2-\$1-atnewsvalue;
#X obj 291 604 s;
#X msg 266 528 symbol \$2-\$1-setnewsvalue;
#N canvas 551 149 450 300 \$0-atsliderid 0;
#X obj 155 64 r \$0-displayID;
#X obj 155 156 pack f f;
#X obj 209 129 r \$0-displayID;
#X obj 153 85 bng 15 250 50 0 empty empty empty 17 7 0 10 #fcfcfc #000000
#000000;
#X obj 152 106 \$1;
#X floatatom 153 130 5 0 0 0 - - - 0;
#X obj 156 188 outlet;
#X connect 0 0 3 0;
#X connect 1 0 6 0;
#X connect 2 0 1 1;
#X connect 3 0 4 0;
#X connect 4 0 5 0;
#X connect 5 0 1 0;
#X restore 266 495 pd \$0-atsliderid;
#X floatatom 225 526 5 0 0 0 - - - 0;
#X floatatom 266 579 5 0 0 0 - - - 0;
#X obj 93 84 unpack f f f;
#X obj 306 146 bng 15 250 50 0 empty empty empty 17 7 0 10 #fcfcfc
#000000 #000000;
#X obj 22 68 t a a b;
#X connect 0 0 23 0;
#X connect 1 0 12 0;
#X connect 1 1 11 0;
#X connect 1 2 7 0;
#X connect 2 0 3 0;
#X connect 3 0 4 1;
#X connect 4 0 6 0;
#X connect 5 0 13 0;
#X connect 6 0 8 0;
#X connect 6 1 9 0;
#X connect 7 0 5 2;
#X connect 8 0 10 0;
#X connect 9 0 10 0;
#X connect 10 0 7 1;
#X connect 10 0 11 1;
#X connect 10 0 12 1;
#X connect 11 0 5 1;
#X connect 12 0 5 0;
#X connect 13 1 20 0;
#X connect 13 2 19 0;
#X connect 15 0 16 1;
#X connect 17 0 14 1;
#X connect 18 0 17 0;
#X connect 18 0 15 0;
#X connect 19 0 14 0;
#X connect 20 0 16 0;
#X connect 21 0 4 0;
#X connect 22 0 2 0;
#X connect 23 0 1 0;
#X connect 23 1 21 0;
#X connect 23 2 22 0;
#X restore 963 527 pd \$0-setsinglevalue;
#X obj 1361 879 s;
#X msg 1330 905 symbol \$2-\$1-atnewsvalue;
#X obj 1311 932 s;
#X msg 1380 852 symbol \$2-\$1-setnewsvalue;
#N canvas 551 149 450 300 \$0-atsliderid 0;
#X obj 155 64 r \$0-displayID;
#X obj 155 156 pack f f;
#X obj 209 129 r \$0-displayID;
#X obj 153 85 bng 15 250 50 0 empty empty empty 17 7 0 10 #fcfcfc #000000
#000000;
#X obj 152 106 \$1;
#X floatatom 153 130 5 0 0 0 - - - 0;
#X obj 156 188 outlet;
#X connect 0 0 3 0;
#X connect 1 0 6 0;
#X connect 2 0 1 1;
#X connect 3 0 4 0;
#X connect 4 0 5 0;
#X connect 5 0 1 0;
#X restore 1379 825 pd \$0-atsliderid;
#X obj 1113 409 t a;
#X obj 183 160 t b b b b;
#X obj 310 180 bng 15 50 10 0 empty empty empty 17 7 0 10 #fcfcfc #000000
#000000;
#X connect 0 0 4 0;
#X connect 0 0 6 1;
#X connect 2 0 110 0;
#X connect 3 0 6 0;
#X connect 4 0 5 0;
#X connect 5 0 1 0;
#X connect 6 0 7 0;
#X connect 7 0 22 0;
#X connect 7 0 102 0;
#X connect 8 0 9 0;
#X connect 9 0 133 0;
#X connect 11 0 24 0;
#X connect 13 0 10 0;
#X connect 13 1 15 0;
#X connect 16 0 12 0;
#X connect 16 1 14 0;
#X connect 17 0 19 0;
#X connect 18 0 17 0;
#X connect 18 1 19 1;
#X connect 19 0 23 0;
#X connect 21 0 40 0;
#X connect 23 0 20 0;
#X connect 24 0 109 0;
#X connect 25 0 108 0;
#X connect 26 0 25 0;
#X connect 27 0 40 1;
#X connect 27 1 21 0;
#X connect 28 0 0 0;
#X connect 30 0 29 0;
#X connect 30 1 39 0;
#X connect 31 0 32 1;
#X connect 32 0 30 0;
#X connect 33 0 32 0;
#X connect 34 0 33 0;
#X connect 34 1 31 0;
#X connect 35 0 37 0;
#X connect 36 0 35 0;
#X connect 36 1 37 1;
#X connect 37 0 38 0;
#X connect 41 0 42 1;
#X connect 42 0 51 0;
#X connect 43 0 42 0;
#X connect 44 0 43 0;
#X connect 44 1 41 0;
#X connect 46 0 17 0;
#X connect 50 0 11 0;
#X connect 50 1 26 0;
#X connect 50 2 45 0;
#X connect 50 3 47 0;
#X connect 50 4 48 0;
#X connect 50 5 49 0;
#X connect 52 1 53 0;
#X connect 53 0 54 0;
#X connect 53 1 55 0;
#X connect 53 2 56 0;
#X connect 58 0 60 0;
#X connect 59 0 57 0;
#X connect 63 0 65 0;
#X connect 64 0 63 0;
#X connect 64 1 65 1;
#X connect 65 0 61 0;
#X connect 66 0 68 0;
#X connect 67 0 66 0;
#X connect 67 1 68 1;
#X connect 68 0 62 0;
#X connect 69 0 71 0;
#X connect 69 1 72 0;
#X connect 70 0 69 0;
#X connect 70 0 73 0;
#X connect 74 0 76 0;
#X connect 75 0 74 0;
#X connect 75 1 76 1;
#X connect 78 1 79 0;
#X connect 79 0 80 0;
#X connect 79 1 84 0;
#X connect 79 1 88 0;
#X connect 82 0 81 0;
#X connect 83 0 82 0;
#X connect 85 0 83 0;
#X connect 85 1 87 0;
#X connect 86 0 82 1;
#X connect 87 0 86 0;
#X connect 89 0 110 0;
#X connect 93 0 94 0;
#X connect 93 1 77 0;
#X connect 95 0 110 0;
#X connect 98 0 91 0;
#X connect 98 1 92 0;
#X connect 98 2 96 0;
#X connect 98 3 97 0;
#X connect 99 0 110 0;
#X connect 100 0 110 0;
#X connect 103 0 105 0;
#X connect 104 0 103 0;
#X connect 104 1 105 1;
#X connect 105 0 106 0;
#X connect 106 0 107 0;
#X connect 110 0 124 0;
#X connect 110 1 3 0;
#X connect 110 2 8 0;
#X connect 110 3 16 0;
#X connect 110 4 13 0;
#X connect 110 5 18 0;
#X connect 110 6 50 0;
#X connect 110 7 27 0;
#X connect 110 8 0 1;
#X connect 110 9 34 0;
#X connect 110 10 36 0;
#X connect 110 11 44 0;
#X connect 110 12 52 0;
#X connect 110 13 64 0;
#X connect 110 14 67 0;
#X connect 110 15 70 0;
#X connect 110 16 75 0;
#X connect 110 16 93 0;
#X connect 110 17 78 0;
#X connect 110 18 85 0;
#X connect 110 19 98 0;
#X connect 110 20 104 0;
#X connect 110 21 132 0;
#X connect 110 22 112 0;
#X connect 111 0 120 0;
#X connect 112 0 111 0;
#X connect 113 0 114 0;
#X connect 114 0 115 0;
#X connect 114 0 121 0;
#X connect 115 0 123 0;
#X connect 116 0 113 1;
#X connect 117 0 113 0;
#X connect 118 0 117 1;
#X connect 119 0 123 1;
#X connect 120 0 117 0;
#X connect 120 1 121 1;
#X connect 121 0 122 0;
#X connect 122 0 129 0;
#X connect 122 1 127 0;
#X connect 123 0 114 1;
#X connect 123 0 116 0;
#X connect 124 0 28 0;
#X connect 124 1 125 0;
#X connect 125 0 0 1;
#X connect 128 0 129 1;
#X connect 130 0 127 1;
#X connect 131 0 130 0;
#X connect 131 0 128 0;
#X connect 132 0 126 0;
#X connect 133 0 59 0;
#X connect 133 1 58 0;
#X connect 133 3 134 0;
#X connect 134 0 43 0;
#X restore 107 -88 pd \$0-slider-builder;
#X msg 59 -217 initiate;
#X obj 110 -192 bng 15 250 50 0 empty empty empty 17 7 0 10 #fcfcfc
#000000 #000000;
#X msg 111 -147 writesliders;
#X obj 127 -175 t b b b b;
#X obj 59 -322 loadbang;
#X obj 59 -298 \$0;
#X msg 142 -205 set_instanceID \$1;
#N canvas 4 558 451 366 \$0-mslider-display 0;
#X obj 100 103 vsl 39 63 0 1 0 0 1107-multislider-0-send 1107-multislider-0-recv
empty 0 0 0 4 #fcfcfc #000000 #000000 0 1;
#X obj 139 103 vsl 39 63 0 1 0 0 1107-multislider-1-send 1107-multislider-1-recv
empty 0 0 0 4 #fcfcfc #000000 #000000 0 1;
#X obj 178 103 vsl 39 63 0 1 0 0 1107-multislider-2-send 1107-multislider-2-recv
empty 0 0 0 4 #fcfcfc #000000 #000000 0 1;
#X obj 217 103 vsl 39 63 0 1 0 0 1107-multislider-3-send 1107-multislider-3-recv
empty 0 0 0 4 #fcfcfc #000000 #000000 0 1;
#X obj 256 103 vsl 39 63 0 1 0 0 1107-multislider-4-send 1107-multislider-4-recv
empty 0 0 0 4 #fcfcfc #000000 #000000 0 1;
#X obj 295 103 vsl 39 63 0 1 0 0 1107-multislider-5-send 1107-multislider-5-recv
empty 0 0 0 4 #fcfcfc #000000 #000000 0 1;
#X obj 334 103 vsl 39 63 0 1 0 0 1107-multislider-6-send 1107-multislider-6-recv
empty 0 0 0 4 #fcfcfc #000000 #000000 0 1;
#X obj 373 103 vsl 39 63 0 1 0 0 1107-multislider-7-send 1107-multislider-7-recv
empty 0 0 0 4 #fcfcfc #000000 #000000 0 1;
#X coords 0 0 1 1 312 69 2 100 100;
#X restore 100 100 pd \$0-mslider-display;
#N canvas 250 312 855 593 \$0-initslider 0;
#X obj 88 60 inlet;
#X obj 68 535 outlet;
#X msg 140 430 clear;
#N canvas 52 52 450 300 \$0-setvflags 0;
#X obj 179 258 outlet;
#X obj 178 57 inlet;
#X msg 186 135 set_type -v;
#X obj 178 81 t b b b;
#X obj 271 72 inlet;
#X obj 202 172 f;
#X msg 199 200 set_padding \$1;
#X msg 211 107 set_vslidersize 39 63;
#X connect 1 0 3 0;
#X connect 2 0 0 0;
#X connect 3 0 7 0;
#X connect 3 1 2 0;
#X connect 3 2 5 0;
#X connect 4 0 5 1;
#X connect 5 0 6 0;
#X connect 6 0 0 0;
#X connect 7 0 0 0;
#X restore 333 421 pd \$0-setvflags;
#X msg 131 455 initiate;
#N canvas 52 52 450 300 \$0-sethflags 0;
#X obj 180 241 outlet;
#X obj 178 57 inlet;
#X msg 186 135 set_type -h;
#X obj 176 81 t b b b;
#X obj 233 164 inlet;
#X obj 199 190 f;
#X msg 198 215 set_padding \$1;
#X msg 178 104 set_hslidersize 50 20;
#X connect 1 0 3 0;
#X connect 2 0 0 0;
#X connect 3 0 7 0;
#X connect 3 1 2 0;
#X connect 3 2 5 0;
#X connect 4 0 5 1;
#X connect 5 0 6 0;
#X connect 6 0 0 0;
#X connect 7 0 0 0;
#X restore 262 396 pd \$0-sethflags;
#X msg 68 508 resize_display;
#X msg 280 131 set_iname multislider;
#X msg 78 481 set_nextdirection left;
#X msg 478 171 set_defaultminrange 0;
#X msg 477 196 set_defaultmaxrange 1;
#X msg 477 146 set_startloc 100 100;
#X msg 476 220 set_fontsize 10;
#X msg 477 245 set_defaultlabel empty;
#X obj 288 245 route 0 1;
#X obj 289 216 inlet;
#X obj 264 300 f;
#X msg 283 272 0;
#X msg 318 273 1;
#X obj 263 332 route 0 1;
#X obj 404 226 inlet;
#X obj 408 250 t f f;
#X obj 675 125 inlet;
#X msg 676 197 set_showuniqueid \$1;
#X obj 676 174 f;
#X obj 676 148 t b f;
#X obj 87 86 t b b b b b b b b b b b b b b b;
#X msg 283 154 set_totalsliders 8;
#X connect 0 0 26 0;
#X connect 2 0 1 0;
#X connect 3 0 1 0;
#X connect 4 0 1 0;
#X connect 5 0 1 0;
#X connect 6 0 1 0;
#X connect 7 0 1 0;
#X connect 8 0 1 0;
#X connect 9 0 1 0;
#X connect 10 0 1 0;
#X connect 11 0 1 0;
#X connect 12 0 1 0;
#X connect 13 0 1 0;
#X connect 14 0 17 0;
#X connect 14 1 18 0;
#X connect 15 0 14 0;
#X connect 16 0 19 0;
#X connect 17 0 16 1;
#X connect 18 0 16 1;
#X connect 19 0 5 0;
#X connect 19 1 3 0;
#X connect 19 2 5 0;
#X connect 20 0 21 0;
#X connect 21 0 5 1;
#X connect 21 1 3 1;
#X connect 22 0 25 0;
#X connect 23 0 1 0;
#X connect 24 0 23 0;
#X connect 25 0 24 0;
#X connect 25 1 24 1;
#X connect 26 0 6 0;
#X connect 26 1 8 0;
#X connect 26 2 16 0;
#X connect 26 3 4 0;
#X connect 26 4 2 0;
#X connect 26 5 27 0;
#X connect 26 7 7 0;
#X connect 26 8 10 0;
#X connect 26 9 9 0;
#X connect 26 10 11 0;
#X connect 26 11 12 0;
#X connect 26 12 13 0;
#X connect 26 13 24 0;
#X connect 27 0 1 0;
#X restore 166 -116 pd \$0-initslider;
#X obj 220 -154 tgl 15 0 empty empty empty 17 7 0 10 #fcfcfc #000000
#000000 0 1;
#X floatatom 310 -147 5 0 0 0 padding - - 0;
#X msg 309 -170 0;
#X obj 637 54 outlet;
#X obj 400 -136 tgl 15 0 empty empty show_unique_id 17 7 0 10 #fcfcfc
#000000 #000000 0 1;
#X obj 702 -137 tgl 15 0 empty empty empty 17 7 0 10 #fcfcfc #000000
#000000 0 1;
#X msg 636 -43 \$1 \$2 \$3;
#X msg 671 29 \$2 \$3;
#X obj 721 -24 tgl 15 0 empty empty empty 17 7 0 10 #fcfcfc #000000
#000000 0 1;
#X obj 635 -70 spigot 0;
#X obj 670 -6 spigot 0;
#X obj 724 -103 == 1;
#X obj 725 -78 change;
#X obj 722 -49 == 0;
#X obj 21 -154 inlet;
#X obj 346 -284 namecanvas \$0-ce_multislider;
#X obj 104 -54 s \$0-ce_multislider;
#X msg 218 -180 1;
#X obj 318 -41 route vsl hsl;
#X obj 318 -67 r \$0-sliderflag;
#X floatatom 141 -227 5 0 0 0 - - - 0;
#X obj 306 -209 del 10;
#X obj 57 -263 t b b f b b b b b b;
#X obj 385 -222 t b b;
#X obj 369 -246 bng 15 250 50 0 empty empty empty 17 7 0 10 #fcfcfc
#000000 #000000;
#X msg 124 25 set_value 4 2 0.5;
#X obj 685 -302 r \$0-instancename;
#X obj 630 -221 symbol;
#X msg 631 -249 bang;
#X msg 631 -193 symbol routeout-\$1;
#X obj 630 -166 ce_recvobj \$1;
#X msg 385 -163 1;
#X msg 443 -191 0;
#X obj 633 -273 bng 15 100 50 0 empty empty empty 17 7 0 10 #fcfcfc
#000000 #000000;
#X obj 631 -300 del;
#X obj 381 -192 del 10;
#X obj 706 -262 t b s;
#X obj 136 -317 declare -lib clearessentials;
#X connect 1 0 27 0;
#X connect 1 1 27 0;
#X connect 2 0 1 0;
#X connect 3 0 5 0;
#X connect 4 0 1 0;
#X connect 5 0 45 0;
#X connect 5 1 4 0;
#X connect 5 2 10 0;
#X connect 5 3 10 0;
#X connect 6 0 7 0;
#X connect 7 0 33 0;
#X connect 8 0 1 0;
#X connect 10 0 1 0;
#X connect 11 0 10 1;
#X connect 12 0 10 2;
#X connect 13 0 12 0;
#X connect 15 0 10 3;
#X connect 15 0 16 0;
#X connect 16 0 20 1;
#X connect 16 0 22 0;
#X connect 17 0 14 0;
#X connect 18 0 14 0;
#X connect 19 0 21 1;
#X connect 20 0 17 0;
#X connect 21 0 18 0;
#X connect 22 0 23 0;
#X connect 23 0 24 0;
#X connect 24 0 19 0;
#X connect 25 0 1 0;
#X connect 25 0 42 0;
#X connect 28 0 11 0;
#X connect 30 0 29 0;
#X connect 31 0 8 0;
#X connect 32 0 28 0;
#X connect 33 0 3 0;
#X connect 33 1 2 0;
#X connect 33 2 31 0;
#X connect 33 3 13 0;
#X connect 33 4 32 0;
#X connect 33 4 34 0;
#X connect 33 6 28 0;
#X connect 34 0 46 0;
#X connect 34 1 43 0;
#X connect 35 0 34 0;
#X connect 36 0 1 0;
#X connect 37 0 47 0;
#X connect 38 0 40 0;
#X connect 39 0 38 0;
#X connect 40 0 41 0;
#X connect 41 0 21 0;
#X connect 41 0 20 0;
#X connect 42 0 15 0;
#X connect 43 0 15 0;
#X connect 44 0 39 0;
#X connect 45 0 44 0;
#X connect 46 0 42 0;
#X connect 47 0 44 0;
#X connect 47 1 38 1;
#X coords 0 0 1 1 312 69 2 100 100;
