#N canvas 459 152 966 604 12;
#X obj 100 100 cnv 15 309 15 \$0-cnvsbg-send \$0-cnvsbg-recv empty
20 12 0 14 #00faff #404040 0;
#N canvas 1093 71 763 510 \$0-routesettings 0;
#X obj 70 24 inlet;
#X obj 509 210 outlet;
#N canvas 215 113 749 300 \$0-setforecolor 0;
#X obj 70 34 inlet;
#X obj 71 67 unpack f f;
#X floatatom 73 90 5 0 0 0 toindex - - 0;
#X floatatom 139 109 5 0 0 0 forecolor - - 0;
#X obj 141 133 s \$0-toggle-frontcolor;
#X obj 73 158 s \$0-atcolortoggle;
#X connect 0 0 1 0;
#X connect 1 0 2 0;
#X connect 1 1 3 0;
#X connect 2 0 5 0;
#X connect 3 0 4 0;
#X restore 87 215 pd \$0-setforecolor;
#N canvas 234 234 1920 997 \$0-setbordercolor 0;
#X obj 70 34 inlet;
#X obj 71 67 unpack f f;
#X floatatom 73 90 5 0 0 0 toindex - - 0;
#X floatatom 139 109 5 0 0 0 forecolor - - 0;
#X obj 143 172 s \$0-toggle-bgcolor;
#X obj 56 143 s \$0-atcolortoggle;
#X connect 0 0 1 0;
#X connect 1 0 2 0;
#X connect 1 1 3 0;
#X connect 2 0 5 0;
#X connect 3 0 4 0;
#X restore 105 239 pd \$0-setbordercolor;
#N canvas 26 26 450 300 \$0-settotaltoggles 0;
#X obj 167 71 inlet;
#X obj 167 101 t b f;
#X obj 168 125 f;
#X floatatom 167 150 5 0 0 0 total\ toggles - - 0;
#X obj 166 215 s \$0-total-multitoggles;
#X obj 133 46 r \$0-doassigndetails;
#X obj 134 71 t b;
#X connect 0 0 1 0;
#X connect 1 0 2 0;
#X connect 1 1 2 1;
#X connect 2 0 3 0;
#X connect 3 0 4 0;
#X connect 5 0 6 0;
#X connect 6 0 2 0;
#X restore 118 263 pd \$0-settotaltoggles;
#N canvas 104 104 364 217 \$0-errorreport 0;
#X obj 131 58 l2s;
#X obj 134 131 symbol;
#X msg 132 107 bang;
#X obj 130 82 t b a;
#X obj 135 154 s \$0-onerror;
#X obj 131 31 inlet;
#X connect 0 0 3 0;
#X connect 1 0 4 0;
#X connect 2 0 1 0;
#X connect 3 0 2 0;
#X connect 3 1 1 1;
#X connect 5 0 0 0;
#X restore 111 81 pd \$0-errorreport;
#X obj 70 51 t a a;
#N canvas 234 234 450 300 \$0-settogglepadding 0;
#X obj 70 34 inlet;
#X obj 73 64 t b f;
#X obj 75 93 f;
#X obj 76 126 s \$0-togglepadding;
#X obj 128 55 t b;
#X obj 126 30 r \$0-doassignpadding;
#X connect 0 0 1 0;
#X connect 1 0 2 0;
#X connect 1 1 2 1;
#X connect 2 0 3 0;
#X connect 4 0 2 0;
#X connect 5 0 4 0;
#X restore 152 311 pd \$0-settogglepadding;
#N canvas 156 156 632 473 \$0-setmultitogglesize 0;
#X obj 43 36 inlet;
#X obj 59 100 t b f;
#X obj 60 124 f;
#X obj 28 70 r \$0-doassigndetails;
#X obj 29 98 t b;
#X obj 81 176 s \$0-vtwidth;
#X obj 135 213 s \$0-vtheight;
#X obj 35 199 s \$0-htwidth;
#X obj 91 237 s \$0-htheight;
#X connect 0 0 1 0;
#X connect 1 0 2 0;
#X connect 1 1 2 1;
#X connect 2 0 5 0;
#X connect 2 0 7 0;
#X connect 2 0 6 0;
#X connect 2 0 8 0;
#X connect 3 0 4 0;
#X connect 4 0 2 0;
#X restore 74 189 pd \$0-setmultitogglesize;
#N canvas 781 98 630 467 \$0-assignnextdirection 0;
#X obj 81 23 inlet;
#X msg 104 164 \$1;
#X obj 104 188 route up down left right;
#X obj 106 222 bng 15 250 50 0 empty empty up 17 7 0 10 #fcfcfc #000000
#000000;
#X obj 153 221 bng 15 250 50 0 empty empty down 17 7 0 10 #fcfcfc #000000
#000000;
#X obj 223 228 bng 15 250 50 0 empty empty left 17 7 0 10 #fcfcfc #000000
#000000;
#X obj 270 227 bng 15 250 50 0 empty empty right 17 7 0 10 #fcfcfc
#000000 #000000;
#X msg 106 249 1;
#X msg 151 251 1;
#X msg 171 272 0;
#X msg 127 274 0;
#X msg 219 254 1;
#X msg 264 256 1;
#X msg 284 277 0;
#X msg 240 279 0;
#X obj 175 327 tgl 15 0 empty empty empty 17 7 0 10 #fcfcfc #000000
#000000 0 1;
#X obj 263 326 tgl 15 0 empty empty empty 17 7 0 10 #fcfcfc #000000
#000000 0 1;
#X obj 347 329 tgl 15 0 empty empty empty 17 7 0 10 #fcfcfc #000000
#000000 0 1;
#X obj 435 328 tgl 15 0 empty empty empty 17 7 0 10 #fcfcfc #000000
#000000 0 1;
#X obj 173 349 s \$0-nextdirect-up;
#X obj 261 372 s \$0-nextdirect-down;
#X obj 352 392 s \$0-nextdirect-left;
#X obj 441 416 s \$0-nextdirect-right;
#X obj 81 146 bng 15 250 50 0 empty empty set_next_direction 17 7 0
10 #fcfcfc #000000 #000000;
#X obj 84 121 t b s;
#X obj 121 70 l2s;
#X obj 82 97 symbol;
#X msg 82 72 bang;
#X obj 81 48 t b a;
#X obj 156 15 r \$0-doassigndetails;
#X obj 157 40 t b;
#X connect 0 0 28 0;
#X connect 1 0 2 0;
#X connect 2 0 3 0;
#X connect 2 1 4 0;
#X connect 2 2 5 0;
#X connect 2 3 6 0;
#X connect 3 0 7 0;
#X connect 3 0 10 0;
#X connect 4 0 8 0;
#X connect 4 0 9 0;
#X connect 5 0 11 0;
#X connect 5 0 14 0;
#X connect 6 0 12 0;
#X connect 6 0 13 0;
#X connect 7 0 15 0;
#X connect 8 0 16 0;
#X connect 9 0 15 0;
#X connect 9 0 17 0;
#X connect 9 0 18 0;
#X connect 10 0 16 0;
#X connect 10 0 17 0;
#X connect 10 0 18 0;
#X connect 11 0 17 0;
#X connect 12 0 18 0;
#X connect 13 0 15 0;
#X connect 13 0 16 0;
#X connect 13 0 17 0;
#X connect 14 0 15 0;
#X connect 14 0 16 0;
#X connect 14 0 18 0;
#X connect 15 0 19 0;
#X connect 16 0 20 0;
#X connect 17 0 21 0;
#X connect 18 0 22 0;
#X connect 24 0 23 0;
#X connect 24 1 1 0;
#X connect 25 0 26 1;
#X connect 26 0 24 0;
#X connect 27 0 26 0;
#X connect 28 0 27 0;
#X connect 28 1 25 0;
#X connect 29 0 30 0;
#X connect 30 0 27 0;
#X restore 162 338 pd \$0-assignnextdirection;
#N canvas 26 26 450 377 \$0-settoggletype 0;
#X obj 178 42 inlet;
#X obj 174 177 symbol;
#X obj 176 104 l2s;
#X msg 175 151 bang;
#X obj 176 127 t b s;
#X obj 229 94 r \$0-doassignflags;
#X obj 229 118 t b;
#X msg 177 202 \$1;
#X obj 252 324 s \$0-vtype;
#X obj 161 313 s \$0-htype;
#X msg 160 284 1;
#X msg 196 282 0;
#X msg 266 291 1;
#X msg 233 292 0;
#X obj 165 257 t b b;
#X obj 211 256 t b b;
#X obj 264 257 t b;
#X obj 175 229 route -h -v;
#X msg 273 142 symbol tgl;
#X obj 274 169 s \$0-toggleflag;
#X obj 176 69 t a b;
#X connect 0 0 20 0;
#X connect 1 0 7 0;
#X connect 2 0 4 0;
#X connect 3 0 1 0;
#X connect 4 0 3 0;
#X connect 4 1 1 1;
#X connect 5 0 6 0;
#X connect 6 0 3 0;
#X connect 6 0 18 0;
#X connect 7 0 17 0;
#X connect 10 0 9 0;
#X connect 11 0 8 0;
#X connect 12 0 8 0;
#X connect 13 0 9 0;
#X connect 14 0 10 0;
#X connect 14 1 11 0;
#X connect 15 0 12 0;
#X connect 15 1 13 0;
#X connect 16 0 10 0;
#X connect 17 0 14 0;
#X connect 17 1 15 0;
#X connect 17 2 16 0;
#X connect 18 0 19 0;
#X connect 20 0 2 0;
#X connect 20 1 18 0;
#X restore 136 287 pd \$0-settoggletype;
#N canvas 361 192 450 300 \$0-settoggleinstancename 0;
#X obj 58 29 inlet;
#X obj 93 83 l2s;
#X obj 58 107 symbol;
#X msg 58 82 bang;
#X obj 57 58 t b a;
#X obj 59 132 s \$0-instancename;
#X obj 156 15 r \$0-doassigndetails;
#X obj 157 40 t b;
#X connect 0 0 4 0;
#X connect 1 0 2 1;
#X connect 2 0 5 0;
#X connect 3 0 2 0;
#X connect 4 0 3 0;
#X connect 4 1 1 0;
#X connect 6 0 7 0;
#X connect 7 0 3 0;
#X restore 180 362 pd \$0-settoggleinstancename;
#N canvas 26 26 450 300 \$0-setfontsize 0;
#X obj 64 55 inlet;
#X obj 169 112 r \$0-doassigndetails;
#X obj 170 140 t b;
#X obj 74 204 unpack f f;
#X floatatom 76 227 5 0 0 0 toindex - - 0;
#X floatatom 200 242 5 0 0 0 size - - 0;
#X obj 71 267 s \$0-atfontindex;
#X obj 200 270 s \$0-togglefontsize;
#X obj 200 213 f;
#X obj 200 184 t b f;
#X connect 0 0 3 0;
#X connect 1 0 2 0;
#X connect 2 0 8 0;
#X connect 3 0 4 0;
#X connect 3 1 9 0;
#X connect 4 0 6 0;
#X connect 5 0 7 0;
#X connect 8 0 5 0;
#X connect 9 0 8 0;
#X connect 9 1 8 1;
#X restore 195 388 pd \$0-setfontsize;
#X msg 35 319 symbol tgl;
#X obj 36 346 s \$0-toggleflag;
#N canvas 234 234 556 407 \$0-setstartlocation 0;
#X obj 51 33 inlet;
#X obj 51 58 unpack f f f;
#X obj 67 209 s \$0-toxloc;
#X obj 107 233 s \$0-toyloc;
#X obj 29 100 r \$0-doassigndetails;
#X obj 33 127 t b;
#X obj 39 164 f;
#X obj 101 148 f;
#X floatatom 135 184 5 0 0 0 - - - 0;
#X floatatom 25 201 5 0 0 0 - - - 0;
#X connect 0 0 1 0;
#X connect 1 0 2 0;
#X connect 1 0 6 1;
#X connect 1 1 7 1;
#X connect 1 1 3 0;
#X connect 4 0 5 0;
#X connect 5 0 7 0;
#X connect 5 0 6 0;
#X connect 6 0 2 0;
#X connect 6 0 9 0;
#X connect 7 0 3 0;
#X connect 7 0 8 0;
#X restore 211 412 pd \$0-setstartlocation;
#X obj 761 116 r \$0-toggle-labelcolor;
#N canvas 215 113 749 300 \$0-setlabelcolor 0;
#X obj 71 40 inlet;
#X obj 71 67 unpack f f;
#X floatatom 73 90 5 0 0 0 toindex - - 0;
#X floatatom 139 109 5 0 0 0 forecolor - - 0;
#X obj 73 158 s \$0-atcolortoggle;
#X obj 139 131 s \$0-toggle-labelcolor;
#X connect 0 0 1 0;
#X connect 1 0 2 0;
#X connect 1 1 3 0;
#X connect 2 0 4 0;
#X connect 3 0 5 0;
#X restore 228 437 pd \$0-setlabelcolor;
#N canvas 215 113 749 300 \$0-settogglevalue 0;
#X obj 71 40 inlet;
#X obj 71 67 unpack f f;
#X floatatom 73 90 5 0 0 0 toindex - - 0;
#X floatatom 157 110 5 0 0 0 new\ value - - 0;
#X obj 159 133 s \$0-setnewtvalue;
#X obj 70 156 s \$0-atnewtvalue;
#X connect 0 0 1 0;
#X connect 1 0 2 0;
#X connect 1 1 3 0;
#X connect 2 0 5 0;
#X connect 3 0 4 0;
#X restore 280 462 pd \$0-settogglevalue;
#X obj 66 111 route set_size set_forecolor set_bordercolor set_totaltoggles
set_type set_padding set_direction set_iname set_fontsize set_startloc
set_labelcolor set_value set_label;
#N canvas 215 113 749 300 \$0-settoglelabel 0;
#X obj 71 40 inlet;
#X floatatom 73 90 5 0 0 0 toindex - - 0;
#X obj 143 118 s \$0-setnewlabel;
#X obj 72 141 s \$0-atdefaultlabel;
#X obj 71 67 unpack f s;
#X symbolatom 143 97 10 0 0 0 - - - 0;
#X connect 0 0 4 0;
#X connect 1 0 3 0;
#X connect 4 0 1 0;
#X connect 4 1 5 0;
#X connect 5 0 2 0;
#X restore 389 404 pd \$0-settoglelabel;
#X connect 0 0 6 0;
#X connect 6 0 19 0;
#X connect 6 1 5 0;
#X connect 13 0 14 0;
#X connect 19 0 8 0;
#X connect 19 0 13 0;
#X connect 19 1 2 0;
#X connect 19 2 3 0;
#X connect 19 3 4 0;
#X connect 19 4 10 0;
#X connect 19 5 7 0;
#X connect 19 6 9 0;
#X connect 19 7 11 0;
#X connect 19 8 12 0;
#X connect 19 9 15 0;
#X connect 19 10 17 0;
#X connect 19 11 18 0;
#X connect 19 12 20 0;
#X connect 19 13 1 0;
#X restore 97 -192 pd \$0-routesettings;
#X obj 51 -222 inlet;
#N canvas 244 150 736 346 \$0-multitogglearea 0;
#X obj 93 48 inlet;
#X obj 405 121 outlet;
#X obj 498 97 r \$0-total-multitoggles;
#X floatatom 498 122 5 0 0 0 - - - 0;
#X obj 93 95 route create_toggles cleararea resize_display;
#N canvas 371 259 642 337 \$0-rresizemultigoggle 0;
#N canvas 486 68 1178 721 \$0-resizevertsliders 0;
#X obj 131 188 inlet;
#X floatatom 260 293 5 0 0 0 - - - 0;
#X floatatom 815 370 5 0 0 0 - - - 0;
#X floatatom 530 334 5 0 0 0 - - - 0;
#X obj 843 410 t b f;
#X obj 556 429 f;
#X obj 843 437 f;
#X obj 257 434 f;
#X obj 550 403 t b f;
#X obj 256 406 t b f;
#X obj 304 428 f;
#X obj 303 400 t b f;
#X obj 133 505 t l;
#X obj 131 477 pack f f f f f;
#X obj 537 257 spigot 0;
#X obj 602 240 tgl 15 0 empty empty empty 17 7 0 10 #fcfcfc #000000
#000000 0 1;
#X obj 514 221 spigot 0;
#X obj 575 203 tgl 15 0 empty empty empty 17 7 0 10 #fcfcfc #000000
#000000 0 1;
#X obj 808 241 spigot 0;
#X obj 873 224 tgl 15 0 empty empty empty 17 7 0 10 #fcfcfc #000000
#000000 0 1;
#X obj 843 267 spigot 0;
#X obj 908 250 tgl 15 0 empty empty empty 17 7 0 10 #fcfcfc #000000
#000000 0 1;
#X obj 602 210 r \$0-nextdirect-up;
#X floatatom 558 101 5 0 0 0 - - - 0;
#X obj 576 180 r \$0-nextdirect-down;
#X obj 872 189 r \$0-nextdirect-left;
#X obj 907 218 r \$0-nextdirect-right;
#X obj 512 154 *;
#X floatatom 510 179 5 0 0 0 - - - 0;
#X obj 529 125 f;
#X obj 523 96 t b;
#X floatatom 856 130 5 0 0 0 - - - 0;
#X obj 810 183 *;
#X obj 827 154 f;
#X obj 821 125 t b;
#X floatatom 810 211 5 0 0 0 - - - 0;
#X obj 514 358 f;
#X obj 516 285 t b f;
#X obj 796 396 f;
#X obj 811 301 t b f;
#X obj 131 261 spigot 0;
#X obj 196 244 tgl 15 0 empty empty empty 17 7 0 10 #fcfcfc #000000
#000000 0 1;
#X obj 510 73 +;
#X obj 810 102 +;
#X obj 259 320 * 4;
#X obj 275 349 s $-clipend;
#X floatatom 787 46 5 0 0 0 - - - 0;
#X floatatom 484 29 5 0 0 0 - - - 0;
#X obj 193 218 r \$0-vtype;
#X obj 816 348 + 6;
#X obj 845 460 + 1;
#X obj 909 412 t b f;
#X obj 909 439 f;
#X obj 962 469 *;
#X obj 962 420 t f b;
#X obj 908 390 +;
#X obj 861 508 +;
#X obj 861 534 -;
#X msg 995 443 2;
#X obj 112 596 outlet;
#X msg 112 571 coords 0 0 1 1 \$2 \$3 2 100 100;
#X obj 557 77 r \$0-total-multitoggles;
#X obj 962 396 r \$0-total-multitoggles;
#X obj 259 265 r \$0-togglepadding;
#X obj 527 25 r \$0-togglepadding;
#X obj 830 57 r \$0-togglepadding;
#X obj 931 364 r \$0-togglepadding;
#X obj 997 469 r \$0-togglepadding;
#X obj 899 510 r \$0-togglepadding;
#X msg 131 529 \; pd-\$5-mtoggle-display coords 0 0 1 1 \$2 \$3 2 100
100;
#X obj 484 1 r \$0-vtheight;
#X obj 789 21 r \$0-vtwidth;
#X obj 527 309 r \$0-vtwidth;
#X obj 816 324 r \$0-vtheight;
#X obj 855 106 r \$0-total-multitoggles;
#X obj 303 375 r \$0-instanceID-multitoggle;
#X obj 114 231 t b;
#X obj 124 419 t f b b;
#X msg 127 451 \$1;
#X obj 239 681 s \$0-cnvsbg-recv;
#X msg 238 656 vis_size \$2 \$3;
#X msg 345 631 size \$3;
#X obj 473 625 t b;
#X msg 475 650 pos 100 100;
#X connect 0 0 76 0;
#X connect 1 0 44 0;
#X connect 2 0 38 1;
#X connect 3 0 36 1;
#X connect 4 0 6 0;
#X connect 4 1 6 1;
#X connect 5 0 13 2;
#X connect 6 0 50 0;
#X connect 7 0 13 3;
#X connect 8 0 5 0;
#X connect 8 1 5 1;
#X connect 9 0 7 0;
#X connect 9 1 7 1;
#X connect 10 0 13 4;
#X connect 11 0 10 0;
#X connect 11 1 10 1;
#X connect 12 0 69 0;
#X connect 12 0 60 0;
#X connect 13 0 12 0;
#X connect 13 0 82 0;
#X connect 13 0 81 0;
#X connect 13 0 80 0;
#X connect 14 0 37 0;
#X connect 15 0 14 1;
#X connect 16 0 37 0;
#X connect 17 0 16 1;
#X connect 18 0 39 0;
#X connect 19 0 18 1;
#X connect 20 0 39 0;
#X connect 21 0 20 1;
#X connect 22 0 15 0;
#X connect 23 0 29 1;
#X connect 24 0 17 0;
#X connect 25 0 19 0;
#X connect 26 0 21 0;
#X connect 27 0 28 0;
#X connect 28 0 16 0;
#X connect 28 0 14 0;
#X connect 29 0 27 1;
#X connect 30 0 29 0;
#X connect 31 0 33 1;
#X connect 32 0 35 0;
#X connect 33 0 32 1;
#X connect 34 0 33 0;
#X connect 35 0 20 0;
#X connect 35 0 18 0;
#X connect 36 0 4 0;
#X connect 36 0 55 0;
#X connect 37 0 36 0;
#X connect 37 1 8 0;
#X connect 38 0 8 0;
#X connect 39 0 38 0;
#X connect 39 1 4 0;
#X connect 39 1 55 0;
#X connect 40 0 77 0;
#X connect 41 0 40 1;
#X connect 42 0 27 0;
#X connect 43 0 32 0;
#X connect 44 0 9 0;
#X connect 44 0 45 0;
#X connect 46 0 43 0;
#X connect 47 0 42 0;
#X connect 48 0 41 0;
#X connect 49 0 2 0;
#X connect 51 0 52 0;
#X connect 51 1 52 1;
#X connect 52 0 56 0;
#X connect 53 0 56 1;
#X connect 54 0 53 0;
#X connect 54 1 58 0;
#X connect 55 0 51 0;
#X connect 56 0 57 0;
#X connect 57 0 13 1;
#X connect 60 0 59 0;
#X connect 61 0 23 0;
#X connect 62 0 54 0;
#X connect 63 0 1 0;
#X connect 64 0 42 1;
#X connect 65 0 43 1;
#X connect 66 0 55 1;
#X connect 67 0 53 1;
#X connect 68 0 57 1;
#X connect 70 0 47 0;
#X connect 71 0 46 0;
#X connect 72 0 3 0;
#X connect 73 0 49 0;
#X connect 74 0 31 0;
#X connect 75 0 11 0;
#X connect 76 0 40 0;
#X connect 77 0 78 0;
#X connect 77 1 34 0;
#X connect 77 2 30 0;
#X connect 78 0 13 0;
#X connect 80 0 79 0;
#X connect 81 0 79 0;
#X connect 82 0 83 0;
#X connect 83 0 79 0;
#X coords 0 721 1 720 5 15 0;
#X restore 94 173 pd \$0-resizevertsliders;
#N canvas 638 250 1099 714 \$0-resizehorzsliders 0;
#X obj 131 202 inlet;
#X floatatom 260 293 5 0 0 0 - - - 0;
#X floatatom 829 354 5 0 0 0 - - - 0;
#X floatatom 528 356 5 0 0 0 - - - 0;
#X obj 842 413 t b f;
#X obj 514 448 f;
#X obj 842 440 f;
#X obj 257 434 f;
#X obj 511 421 t b f;
#X obj 256 406 t b f;
#X obj 304 428 f;
#X obj 303 400 t b f;
#X obj 131 505 t l;
#X obj 130 480 pack f f f f f;
#X obj 537 257 spigot 0;
#X obj 602 240 tgl 15 0 empty empty empty 17 7 0 10 #fcfcfc #000000
#000000 0 1;
#X obj 514 221 spigot 0;
#X obj 575 203 tgl 15 0 empty empty empty 17 7 0 10 #fcfcfc #000000
#000000 0 1;
#X obj 808 241 spigot 0;
#X obj 873 224 tgl 15 0 empty empty empty 17 7 0 10 #fcfcfc #000000
#000000 0 1;
#X obj 843 267 spigot 0;
#X obj 908 250 tgl 15 0 empty empty empty 17 7 0 10 #fcfcfc #000000
#000000 0 1;
#X obj 602 210 r \$0-nextdirect-up;
#X floatatom 558 101 5 0 0 0 - - - 0;
#X obj 576 180 r \$0-nextdirect-down;
#X obj 872 189 r \$0-nextdirect-left;
#X obj 907 218 r \$0-nextdirect-right;
#X obj 512 154 *;
#X floatatom 510 179 5 0 0 0 - - - 0;
#X obj 529 125 f;
#X obj 523 96 t b;
#X floatatom 856 130 5 0 0 0 - - - 0;
#X obj 810 183 *;
#X obj 827 154 f;
#X obj 821 125 t b;
#X floatatom 810 211 5 0 0 0 - - - 0;
#X obj 512 380 f;
#X obj 516 285 t b f;
#X obj 810 380 f;
#X obj 811 301 t b f;
#X obj 131 261 spigot 0;
#X obj 196 244 tgl 15 0 empty empty empty 17 7 0 10 #fcfcfc #000000
#000000 0 1;
#X obj 193 218 r \$0-htype;
#X obj 510 73 +;
#X obj 810 102 +;
#X obj 259 320 * 4;
#X floatatom 787 46 5 0 0 0 - - - 0;
#X floatatom 484 29 5 0 0 0 - - - 0;
#X obj 736 496 +;
#X obj 895 470 *;
#X obj 895 421 t f b;
#X msg 928 444 2;
#X obj 843 390 +;
#X obj 99 612 outlet;
#X msg 95 570 coords 0 0 1 1 \$2 \$3 2 100 100;
#X obj 527 25 r \$0-togglepadding;
#X obj 830 57 r \$0-togglepadding;
#X obj 863 366 r \$0-togglepadding;
#X obj 260 266 r \$0-togglepadding;
#X msg 131 530 \; pd-\$5-mtoggle-display coords 0 0 1 1 \$2 \$3 2 100
100;
#X obj 893 397 r \$0-total-multitoggles;
#X obj 856 101 r \$0-total-multitoggles;
#X obj 555 72 r \$0-total-multitoggles;
#X obj 484 1 r \$0-htheight;
#X obj 528 303 r \$0-htwidth;
#X obj 789 21 r \$0-htwidth;
#X obj 829 326 r \$0-htheight;
#X obj 303 375 r \$0-instanceID-multitoggle;
#X obj 275 349 s \$0-clipend;
#X obj 128 233 t b;
#X obj 124 419 t f b b;
#X msg 124 446 \$1;
#X obj 609 105 -;
#X obj 921 500 r \$0-togglepadding;
#X obj 920 524 == 0;
#X obj 921 548 sel 0 1;
#X obj 918 573 bng 15 250 50 0 empty empty empty 17 7 0 10 #fcfcfc
#000000 #000000;
#X obj 949 574 bng 15 250 50 0 empty empty empty 17 7 0 10 #fcfcfc
#000000 #000000;
#X msg 890 605 0;
#X msg 925 607 1;
#X msg 968 607 0;
#X msg 1001 605 1;
#X obj 904 641 tgl 15 0 empty empty empty 17 7 0 10 #fcfcfc #000000
#000000 0 1;
#X obj 989 641 tgl 15 0 empty empty empty 17 7 0 10 #fcfcfc #000000
#000000 0 1;
#X obj 852 668 spigot 0;
#X obj 945 675 spigot 0;
#X obj 836 593 - 9;
#X obj 740 527 + 3;
#X obj 239 681 s \$0-cnvsbg-recv;
#X msg 238 656 vis_size \$2 \$3;
#X msg 345 631 size \$3;
#X obj 473 625 t b;
#X msg 475 650 pos 100 100;
#X connect 0 0 69 0;
#X connect 1 0 45 0;
#X connect 2 0 38 1;
#X connect 3 0 36 1;
#X connect 4 0 6 0;
#X connect 4 1 6 1;
#X connect 5 0 13 2;
#X connect 6 0 48 0;
#X connect 7 0 13 3;
#X connect 8 0 5 0;
#X connect 8 1 5 1;
#X connect 9 0 7 0;
#X connect 9 1 7 1;
#X connect 10 0 13 4;
#X connect 11 0 10 0;
#X connect 11 1 10 1;
#X connect 12 0 59 0;
#X connect 12 0 54 0;
#X connect 13 0 12 0;
#X connect 13 0 91 0;
#X connect 13 0 90 0;
#X connect 13 0 89 0;
#X connect 14 0 37 0;
#X connect 15 0 14 1;
#X connect 16 0 37 0;
#X connect 17 0 16 1;
#X connect 18 0 39 0;
#X connect 19 0 18 1;
#X connect 20 0 39 0;
#X connect 21 0 20 1;
#X connect 22 0 15 0;
#X connect 23 0 29 1;
#X connect 24 0 17 0;
#X connect 25 0 19 0;
#X connect 26 0 21 0;
#X connect 27 0 28 0;
#X connect 28 0 16 0;
#X connect 28 0 14 0;
#X connect 29 0 27 1;
#X connect 30 0 29 0;
#X connect 31 0 33 1;
#X connect 32 0 35 0;
#X connect 33 0 32 1;
#X connect 34 0 33 0;
#X connect 35 0 20 0;
#X connect 35 0 18 0;
#X connect 36 0 52 0;
#X connect 37 0 36 0;
#X connect 37 1 8 0;
#X connect 38 0 8 0;
#X connect 39 0 38 0;
#X connect 39 1 52 0;
#X connect 40 0 70 0;
#X connect 41 0 40 1;
#X connect 42 0 41 0;
#X connect 43 0 27 0;
#X connect 44 0 32 0;
#X connect 45 0 9 0;
#X connect 45 0 68 0;
#X connect 46 0 44 0;
#X connect 47 0 43 0;
#X connect 48 0 86 0;
#X connect 48 0 87 0;
#X connect 49 0 48 1;
#X connect 50 0 49 0;
#X connect 50 1 51 0;
#X connect 51 0 49 1;
#X connect 52 0 4 0;
#X connect 54 0 53 0;
#X connect 55 0 43 1;
#X connect 56 0 44 1;
#X connect 57 0 52 1;
#X connect 58 0 1 0;
#X connect 60 0 50 0;
#X connect 61 0 31 0;
#X connect 62 0 23 0;
#X connect 63 0 47 0;
#X connect 64 0 3 0;
#X connect 65 0 46 0;
#X connect 66 0 2 0;
#X connect 67 0 11 0;
#X connect 69 0 40 0;
#X connect 70 0 71 0;
#X connect 70 1 34 0;
#X connect 70 2 30 0;
#X connect 71 0 13 0;
#X connect 73 0 74 0;
#X connect 74 0 75 0;
#X connect 75 0 76 0;
#X connect 75 1 77 0;
#X connect 76 0 79 0;
#X connect 76 0 80 0;
#X connect 77 0 81 0;
#X connect 77 0 78 0;
#X connect 78 0 82 0;
#X connect 79 0 82 0;
#X connect 80 0 83 0;
#X connect 81 0 83 0;
#X connect 82 0 84 1;
#X connect 83 0 85 1;
#X connect 84 0 13 1;
#X connect 85 0 13 1;
#X connect 86 0 85 0;
#X connect 87 0 84 0;
#X connect 89 0 88 0;
#X connect 90 0 88 0;
#X connect 91 0 92 0;
#X connect 92 0 88 0;
#X restore 138 197 pd \$0-resizehorzsliders;
#X obj 151 144 s \$0-doassignflags;
#X obj 170 118 s \$0-doassignpadding;
#X obj 106 37 inlet;
#X obj 193 94 s \$0-doassigndetails;
#X obj 108 63 t b b b b b;
#X obj 121 234 s \$0-ce_multitoggle;
#X obj 378 203 *;
#X obj 405 150 r \$0-total-multitoggles;
#X obj 372 174 r \$0-togglepadding;
#X connect 0 0 7 0;
#X connect 1 0 7 0;
#X connect 4 0 6 0;
#X connect 6 0 0 0;
#X connect 6 1 1 0;
#X connect 6 2 2 0;
#X connect 6 3 3 0;
#X connect 6 4 5 0;
#X connect 9 0 8 1;
#X connect 10 0 8 0;
#X restore 303 239 pd \$0-rresizemultigoggle;
#X obj 93 71 t a;
#X obj 197 143 t b;
#X obj 303 219 bng 15 250 50 0 empty empty empty 17 7 0 10 #fcfcfc
#000000 #000000;
#N canvas 234 234 450 300 \$0-cleardisplayarea 0;
#X obj 53 26 inlet;
#X obj 53 76 f;
#X obj 71 53 r \$0-instanceID-multitoggle;
#X msg 98 130 \; pd-\$1-mtoggle-display clear;
#X obj 69 108 t f f;
#X msg 67 169 \; pd-\$1-recieve-allsends clear;
#X connect 0 0 1 0;
#X connect 1 0 4 0;
#X connect 2 0 1 1;
#X connect 4 0 5 0;
#X connect 4 1 3 0;
#X restore 197 172 pd \$0-cleardisplayarea;
#X obj 93 144 t b b b;
#N canvas 241 76 613 807 \$0-writedefaulttoggles 0;
#X floatatom 130 257 5 0 0 0 - - - 0;
#X obj 112 282 f;
#X msg 112 308 \$1;
#X floatatom 122 164 5 0 0 0 - - - 0;
#X obj 83 92 t b b;
#N canvas 519 149 576 640 \$0-countoffconnections 0;
#X obj 28 37 inlet;
#X obj 55 440 outlet;
#X obj 68 131 until;
#X obj 68 159 f;
#X obj 106 159 + 1;
#X obj 140 158 sel 0;
#X obj 106 185 mod 10;
#X obj 70 103 f;
#X obj 38 77 t b b;
#X obj 244 563 outlet;
#X obj 56 312 +, f 4;
#X obj 221 259 f;
#X obj 215 373 tgl 15 0 empty empty empty 17 7 0 10 #fcfcfc #000000
#000000 0 1;
#X obj 215 345 <;
#X obj 157 397 spigot 0;
#X obj 272 365 > 0;
#X obj 271 391 tgl 15 0 empty empty empty 17 7 0 10 #fcfcfc #000000
#000000 0 1;
#X obj 220 423 spigot 0;
#X obj 347 468 tgl 15 0 empty empty empty 17 7 0 10 #fcfcfc #000000
#000000 0 1;
#X obj 295 498 spigot 0;
#X obj 348 442 ==;
#X floatatom 300 275 5 0 0 0 - - - 0;
#X obj 378 321 f;
#X obj 378 284 bng 15 250 50 0 empty empty empty 17 7 0 10 #fcfcfc
#000000 #000000;
#X obj 375 259 del;
#X obj 105 84 r \$0-total-multitoggles;
#X obj 200 127 r \$0-total-multitoggles;
#X obj 240 212 r \$0-total-multitoggles;
#X obj 233 311 r \$0-total-multitoggles;
#X obj 86 277 r \$0-total-multitoggles;
#X connect 0 0 8 0;
#X connect 2 0 3 0;
#X connect 3 0 4 0;
#X connect 3 0 10 0;
#X connect 3 0 13 0;
#X connect 3 0 14 0;
#X connect 3 0 15 0;
#X connect 3 0 20 0;
#X connect 4 0 6 0;
#X connect 5 0 2 1;
#X connect 6 0 3 1;
#X connect 6 0 5 0;
#X connect 7 0 2 0;
#X connect 8 0 11 0;
#X connect 8 1 7 0;
#X connect 10 0 1 0;
#X connect 11 0 3 0;
#X connect 12 0 14 1;
#X connect 13 0 12 0;
#X connect 14 0 17 0;
#X connect 15 0 16 0;
#X connect 16 0 17 1;
#X connect 17 0 9 0;
#X connect 18 0 19 1;
#X connect 19 0 9 0;
#X connect 20 0 18 0;
#X connect 21 0 22 1;
#X connect 21 0 24 0;
#X connect 22 0 19 0;
#X connect 23 0 22 0;
#X connect 24 0 23 0;
#X connect 25 0 7 1;
#X connect 26 0 6 1;
#X connect 27 0 21 0;
#X connect 27 0 20 1;
#X connect 27 0 11 1;
#X connect 28 0 13 1;
#X connect 29 0 10 1;
#X restore 84 384 pd \$0-countoffconnections;
#N canvas 19 58 902 668 \$0-writenewtoggles 0;
#X msg 101 529 obj 100 100 tgl 15 0 \$0-toggle-send \$0-toggle-recv
empty 17 7 0 10 #fcfcfc #000000 #000000 0 1 \;, f 96;
#X msg 100 574 obj 100 100 cnv 15 15 15 \$0-canvas-send \$0-canvas-recv
empty 3 7 0 14 #e0e0e0 #404040 0 \;, f 89;
#X msg 101 619 obj 103 103 cnv 10 10 10 \$0-togglemarker-send \$0-togglemarker-recv
empty 20 12 0 14 #ff0400 #404040 0 \;, f 103;
#N canvas 163 52 1327 997 \$0-atxylocation 0;
#X obj 39 586 outlet;
#X obj 742 595 outlet;
#X obj 301 356 r \$0-toyloc;
#X obj 61 386 r \$0-toxloc;
#X floatatom 269 408 5 0 0 0 - - - 0;
#X floatatom 61 409 5 0 0 0 - - - 0;
#X obj 87 462 +;
#X obj 268 462 +;
#X floatatom 740 567 5 0 0 0 - - - 0;
#X obj 43 534 +;
#X obj 49 308 *;
#X obj 268 333 spigot 0;
#X obj 333 316 tgl 15 0 empty empty empty 17 7 0 10 #fcfcfc #000000
#000000 0 1;
#X obj 49 358 spigot 0;
#X obj 104 336 tgl 15 0 empty empty empty 17 7 0 10 #fcfcfc #000000
#000000 0 1;
#X obj 105 314 r \$0-nextdirect-left;
#X obj 268 310 *;
#X listbox 287 114 20 0 0 0 - - - 0;
#X msg 288 137 \$1;
#X obj 288 183 bng 15 250 50 0 empty empty empty 17 7 0 10 #fcfcfc
#000000 #000000;
#X obj 288 226 f;
#X listbox 66 126 20 0 0 0 - - - 0;
#X msg 67 149 \$1;
#X obj 67 195 bng 15 250 50 0 empty empty empty 17 7 0 10 #fcfcfc #000000
#000000;
#X obj 67 240 f;
#X obj 334 294 r \$0-nextdirect-left;
#X obj 269 358 t b;
#X obj 268 384 f;
#X listbox 1001 420 20 0 0 0 - - - 0;
#X msg 1002 443 \$1;
#X obj 778 354 r \$0-toyloc;
#X obj 544 377 r \$0-toxloc;
#X floatatom 741 404 5 0 0 0 - - - 0;
#X floatatom 543 399 5 0 0 0 - - - 0;
#X obj 553 447 +;
#X obj 741 447 +;
#X obj 520 472 +;
#X obj 522 302 *;
#X obj 741 327 spigot 0;
#X obj 806 310 tgl 15 0 empty empty empty 17 7 0 10 #fcfcfc #000000
#000000 0 1;
#X obj 522 352 spigot 0;
#X obj 577 330 tgl 15 0 empty empty empty 17 7 0 10 #fcfcfc #000000
#000000 0 1;
#X obj 741 304 *;
#X floatatom 519 324 5 0 0 0 - - - 0;
#X listbox 760 108 20 0 0 0 - - - 0;
#X msg 761 131 \$1;
#X obj 761 177 bng 15 250 50 0 empty empty empty 17 7 0 10 #fcfcfc
#000000 #000000;
#X obj 761 220 f;
#X listbox 539 120 20 0 0 0 - - - 0;
#X msg 540 143 \$1;
#X obj 540 189 bng 15 250 50 0 empty empty empty 17 7 0 10 #fcfcfc
#000000 #000000;
#X obj 540 234 f;
#X obj 742 352 t b;
#X obj 741 378 f;
#X obj 578 308 r \$0-nextdirect-down;
#X obj 807 288 r \$0-nextdirect-down;
#X floatatom 40 562 5 0 0 0 - - - 0;
#X obj 23 147 f;
#X obj 62 431 + 1;
#X obj 307 459 / 2;
#X obj 105 436 / 4;
#X obj 49 74 r \$0-attindex;
#X obj 266 68 r \$0-attindex;
#X obj 522 68 r \$0-attindex;
#X obj 739 62 r \$0-attindex;
#X obj 66 102 r \$0-toggleflag;
#X obj 287 90 r \$0-toggleflag;
#X obj 539 96 r \$0-toggleflag;
#X obj 760 84 r \$0-toggleflag;
#X obj 1001 396 r \$0-toggleflag;
#X obj 66 171 route tgl;
#X obj 287 159 route tgl;
#X obj 539 165 route tgl;
#X obj 760 153 route tgl;
#X obj 106 413 r \$0-togglepadding;
#X obj 286 432 r \$0-togglepadding;
#X obj 575 420 r \$0-togglepadding;
#X obj 759 424 r \$0-togglepadding;
#X obj 92 217 r \$0-htwidthpad;
#X obj 319 204 r \$0-htheightpad;
#X obj 564 210 r \$0-htwidthpad;
#X obj 793 199 r \$0-htheightpad;
#X floatatom 106 246 5 0 0 0 - - - 0;
#X obj 245 142 f;
#X obj 500 141 f;
#X obj 727 138 f;
#X obj 32 20 inlet;
#X obj 32 42 t b b b b;
#X obj 1006 504 bng 15 250 50 0 empty empty empty 17 7 0 10 #fcfcfc
#000000 #000000;
#X obj 1047 505 bng 15 250 50 0 empty empty empty 17 7 0 10 #fcfcfc
#000000 #000000;
#X msg 992 521 1;
#X msg 1053 534 1;
#X obj 986 544 tgl 15 0 empty empty empty 17 7 0 10 #fcfcfc #000000
#000000 0 1;
#X obj 1050 560 tgl 15 0 empty empty empty 17 7 0 10 #fcfcfc #000000
#000000 0 1;
#X msg 1073 556 0;
#X msg 1010 543 0;
#X obj 1006 658 spigot 0;
#X obj 887 526 spigot 0;
#X obj 897 580 spigot 0;
#X obj 1087 631 spigot 0;
#X obj 1007 472 route tgl;
#X obj 887 499 + 1;
#X obj 1087 607 + 1;
#X connect 2 0 27 1;
#X connect 3 0 5 0;
#X connect 4 0 7 0;
#X connect 4 0 98 0;
#X connect 5 0 58 0;
#X connect 5 0 6 0;
#X connect 6 0 96 0;
#X connect 6 0 101 0;
#X connect 8 0 1 0;
#X connect 9 0 56 0;
#X connect 10 0 13 0;
#X connect 11 0 26 0;
#X connect 12 0 11 1;
#X connect 13 0 9 0;
#X connect 14 0 13 1;
#X connect 15 0 14 0;
#X connect 16 0 11 0;
#X connect 17 0 18 0;
#X connect 18 0 71 0;
#X connect 19 0 20 0;
#X connect 20 0 16 1;
#X connect 21 0 22 0;
#X connect 22 0 70 0;
#X connect 23 0 24 0;
#X connect 24 0 10 1;
#X connect 25 0 12 0;
#X connect 26 0 27 0;
#X connect 27 0 4 0;
#X connect 27 0 102 0;
#X connect 28 0 29 0;
#X connect 29 0 100 0;
#X connect 30 0 53 1;
#X connect 31 0 33 0;
#X connect 32 0 35 0;
#X connect 33 0 34 0;
#X connect 33 0 36 1;
#X connect 35 0 8 0;
#X connect 36 0 56 0;
#X connect 37 0 40 0;
#X connect 37 0 43 0;
#X connect 38 0 52 0;
#X connect 39 0 38 1;
#X connect 40 0 36 0;
#X connect 41 0 40 1;
#X connect 42 0 38 0;
#X connect 44 0 45 0;
#X connect 45 0 73 0;
#X connect 46 0 47 0;
#X connect 47 0 42 1;
#X connect 48 0 49 0;
#X connect 49 0 72 0;
#X connect 50 0 51 0;
#X connect 51 0 37 1;
#X connect 52 0 53 0;
#X connect 53 0 32 0;
#X connect 54 0 41 0;
#X connect 55 0 39 0;
#X connect 56 0 0 0;
#X connect 57 0 10 0;
#X connect 59 0 7 1;
#X connect 60 0 6 1;
#X connect 61 0 57 1;
#X connect 62 0 83 1;
#X connect 63 0 84 1;
#X connect 64 0 85 1;
#X connect 65 0 21 0;
#X connect 66 0 17 0;
#X connect 67 0 48 0;
#X connect 68 0 44 0;
#X connect 69 0 28 0;
#X connect 70 0 23 0;
#X connect 71 0 19 0;
#X connect 72 0 50 0;
#X connect 73 0 46 0;
#X connect 74 0 60 0;
#X connect 75 0 59 0;
#X connect 76 0 34 1;
#X connect 77 0 35 1;
#X connect 78 0 24 1;
#X connect 78 0 82 0;
#X connect 79 0 20 1;
#X connect 80 0 51 1;
#X connect 81 0 47 1;
#X connect 83 0 16 0;
#X connect 84 0 37 0;
#X connect 85 0 42 0;
#X connect 86 0 87 0;
#X connect 87 0 57 0;
#X connect 87 1 83 0;
#X connect 87 2 84 0;
#X connect 87 3 85 0;
#X connect 88 0 90 0;
#X connect 88 0 95 0;
#X connect 89 0 91 0;
#X connect 89 0 94 0;
#X connect 90 0 92 0;
#X connect 91 0 93 0;
#X connect 92 0 97 1;
#X connect 92 0 98 1;
#X connect 93 0 96 1;
#X connect 93 0 99 1;
#X connect 94 0 92 0;
#X connect 95 0 93 0;
#X connect 96 0 9 1;
#X connect 97 0 9 1;
#X connect 98 0 8 0;
#X connect 99 0 8 0;
#X connect 100 0 88 0;
#X connect 100 1 89 0;
#X connect 101 0 97 0;
#X connect 102 0 99 0;
#X restore 120 108 pd \$0-atxylocation;
#X obj 94 391 pack f f f s f f s s s f f f f s s s f f;
#N canvas 849 239 450 455 \$0-buildnameatindex 0;
#X obj 60 361 outlet;
#X obj 149 359 outlet;
#X obj 96 88 r \$0-instancename;
#X listbox 96 113 20 0 0 0 - - - 0;
#X obj 98 189 symbol;
#X msg 98 163 bang;
#X obj 98 137 t b s;
#X msg 52 247 symbol \$2-\$3-\$4-send;
#X msg 52 279 symbol \$2-\$3-\$4-recv;
#X obj 48 222 pack f f s f;
#X msg 43 189 0;
#X obj 151 164 t b b f;
#X obj 225 358 outlet;
#X obj 152 141 r \$0-attindex;
#X obj 73 61 r \$0-instanceID-multitoggle;
#X floatatom 222 188 5 0 0 0 - - - 0;
#X obj 222 213 - 1;
#X connect 2 0 3 0;
#X connect 3 0 6 0;
#X connect 4 0 9 2;
#X connect 5 0 4 0;
#X connect 6 0 5 0;
#X connect 6 1 4 1;
#X connect 7 0 1 0;
#X connect 8 0 12 0;
#X connect 9 0 7 0;
#X connect 9 0 8 0;
#X connect 10 0 9 0;
#X connect 11 0 0 0;
#X connect 11 1 10 0;
#X connect 11 2 15 0;
#X connect 13 0 11 0;
#X connect 14 0 9 1;
#X connect 15 0 16 0;
#X connect 16 0 9 3;
#X restore 92 19 pd \$0-buildnameatindex;
#X msg 100 466 \; pd-\$1-mtoggle-display obj \$2 \$3 \$4 \$5 \$6 \$7
\$8 \$9 \$10 \$11 \$12 \$13 \$14 \$15 \$16 \$17 \$18, f 87;
#X obj 291 276 r \$0-togglefontsize;
#X floatatom 280 349 5 0 0 0 - - - 0;
#X floatatom 237 332 5 0 0 0 - - - 0;
#X obj 239 302 r \$0-toffsetx;
#X obj 279 324 r \$0-toffsety;
#X msg 392 325 0;
#X msg 531 401 0;
#X msg 484 436 1;
#X obj 85 136 s \$0-writeattoggleindex;
#X msg 321 222 symbol empty;
#X msg 492 354 symbol #000000;
#X msg 479 308 symbol #fcfcfc;
#X obj 143 277 r \$0-toggleflag;
#N canvas 512 64 878 780 \$0-VHChecks 0;
#X floatatom 236 129 5 0 0 0 - - - 0;
#X floatatom 196 103 5 0 0 0 - - - 0;
#X obj 236 285 +;
#X obj 201 204 +;
#X floatatom 151 79 5 0 0 0 - - - 0;
#X floatatom 112 53 5 0 0 0 - - - 0;
#X obj 141 395 +;
#X obj 81 485 +;
#N canvas 592 208 450 407 \$0-checktype 0;
#X obj 95 43 inlet;
#X listbox 182 104 20 0 0 0 - - - 0;
#X msg 183 127 \$1;
#X obj 167 177 bng 15 250 50 0 empty empty empty 17 7 0 10 #fcfcfc
#000000 #000000;
#X obj 234 187 bng 15 250 50 0 empty empty empty 17 7 0 10 #fcfcfc
#000000 #000000;
#X msg 167 198 1;
#X msg 228 211 1;
#X obj 161 221 tgl 15 0 empty empty empty 17 7 0 10 #fcfcfc #000000
#000000 0 1;
#X obj 225 237 tgl 15 0 empty empty empty 17 7 0 10 #fcfcfc #000000
#000000 0 1;
#X msg 248 233 0;
#X msg 185 220 0;
#X obj 85 314 outlet;
#X obj 185 312 outlet;
#X obj 83 275 spigot 0;
#X obj 184 281 spigot 0;
#X obj 163 39 inlet;
#X obj 252 284 spigot 0;
#X obj 258 318 outlet;
#X obj 216 39 inlet;
#X obj 45 43 inlet;
#X obj 24 316 outlet;
#X obj 15 274 spigot 0;
#X obj 182 80 r \$0-toggleflag;
#X obj 182 149 route tgl;
#X connect 0 0 13 0;
#X connect 1 0 2 0;
#X connect 2 0 23 0;
#X connect 3 0 5 0;
#X connect 3 0 10 0;
#X connect 4 0 6 0;
#X connect 4 0 9 0;
#X connect 5 0 7 0;
#X connect 6 0 8 0;
#X connect 7 0 13 1;
#X connect 7 0 21 1;
#X connect 8 0 14 1;
#X connect 8 0 16 1;
#X connect 9 0 7 0;
#X connect 10 0 8 0;
#X connect 13 0 11 0;
#X connect 14 0 12 0;
#X connect 15 0 14 0;
#X connect 16 0 17 0;
#X connect 18 0 16 0;
#X connect 19 0 21 0;
#X connect 21 0 20 0;
#X connect 22 0 1 0;
#X connect 23 0 3 0;
#X connect 23 1 4 0;
#X restore 134 154 pd \$0-checktype;
#X obj 159 369 * 2;
#X obj 100 462 * 2;
#X obj 203 581 outlet;
#X obj 273 518 outlet;
#X obj 111 27 r \$0-htwidth;
#X obj 153 52 r \$0-htheight;
#X obj 195 77 r \$0-vtwidth;
#X obj 238 104 r \$0-vtheight;
#X obj 220 179 r \$0-togglepadding;
#X obj 212 237 s \$0-vtwidthpad;
#X obj 255 260 r \$0-togglepadding;
#X obj 238 309 s \$0-vtheightpad;
#X obj 160 342 r \$0-togglepadding;
#X obj 139 418 s \$0-htheightpad;
#X obj 98 440 r \$0-togglepadding;
#X obj 80 513 s \$0-htwidthpad;
#X connect 0 0 8 3;
#X connect 1 0 8 2;
#X connect 2 0 20 0;
#X connect 3 0 11 0;
#X connect 3 0 18 0;
#X connect 4 0 8 1;
#X connect 5 0 8 0;
#X connect 6 0 22 0;
#X connect 7 0 24 0;
#X connect 8 0 7 0;
#X connect 8 0 11 0;
#X connect 8 1 6 0;
#X connect 8 1 12 0;
#X connect 8 2 3 0;
#X connect 8 3 2 0;
#X connect 8 3 12 0;
#X connect 9 0 6 1;
#X connect 10 0 7 1;
#X connect 13 0 5 0;
#X connect 14 0 4 0;
#X connect 15 0 1 0;
#X connect 16 0 0 0;
#X connect 17 0 3 1;
#X connect 19 0 2 1;
#X connect 21 0 9 0;
#X connect 23 0 10 0;
#X restore 422 168 pd \$0-VHChecks;
#X floatatom 514 200 5 0 0 0 - - - 0;
#X floatatom 423 197 5 0 0 0 - - - 0;
#X obj 120 77 t b b b b b b b b b;
#X obj 490 274 bng 15 250 50 0 empty empty empty 17 7 0 10 #fcfcfc
#000000 #000000;
#X obj 491 335 bng 15 250 50 0 empty empty empty 17 7 0 10 #fcfcfc
#000000 #000000;
#X obj 533 379 bng 15 250 50 0 empty empty empty 17 7 0 10 #fcfcfc
#000000 #000000;
#X obj 480 409 bng 15 250 50 0 empty empty empty 17 7 0 10 #fcfcfc
#000000 #000000;
#X obj 397 304 bng 15 250 50 0 empty empty empty 17 7 0 10 #fcfcfc
#000000 #000000;
#X obj 90 50 t b b;
#X obj 58 243 inlet;
#X msg 95 701 \$2;
#X msg 24 803 0;
#X msg 134 700 \$3;
#X msg 55 702 \$1;
#X obj 92 657 t b a a a;
#X msg 173 701 \$4;
#X obj 117 801 - 1;
#X obj 271 750 * 20;
#X obj 218 773 pack f f f f;
#X msg 33 638 \$1;
#X floatatom 161 792 5 0 0 0 - - - 0;
#X obj 219 723 + 20;
#X obj 244 684 r \$0-attindex;
#X obj 33 833 pack f f f f f s;
#X obj 219 636 r \$0-instancename;
#X msg 35 860 \; pd-\$2-recieve-allsends obj 100 \$4 r \$2-\$6-\$5-send
\; pd-\$2-recieve-allsends msg 314 \$4 \$2 \$5 \\\$1 \;;
#X connect 3 0 4 1;
#X connect 3 1 4 2;
#X connect 4 0 6 0;
#X connect 4 0 40 0;
#X connect 5 0 29 0;
#X connect 5 1 4 6;
#X connect 5 2 4 7;
#X connect 7 0 4 12;
#X connect 8 0 4 10;
#X connect 9 0 4 9;
#X connect 10 0 9 0;
#X connect 11 0 8 0;
#X connect 12 0 4 11;
#X connect 13 0 4 16;
#X connect 14 0 4 17;
#X connect 16 0 4 8;
#X connect 17 0 4 14;
#X connect 17 0 4 15;
#X connect 18 0 4 13;
#X connect 19 0 4 3;
#X connect 20 0 22 0;
#X connect 20 1 21 0;
#X connect 21 0 4 5;
#X connect 22 0 4 4;
#X connect 23 0 3 0;
#X connect 23 3 28 0;
#X connect 23 4 24 0;
#X connect 23 5 25 0;
#X connect 23 6 26 0;
#X connect 23 7 27 0;
#X connect 23 8 16 0;
#X connect 24 0 18 0;
#X connect 25 0 17 0;
#X connect 26 0 13 0;
#X connect 27 0 14 0;
#X connect 28 0 12 0;
#X connect 29 0 15 0;
#X connect 29 1 23 0;
#X connect 30 0 4 0;
#X connect 31 0 44 2;
#X connect 32 0 44 0;
#X connect 33 0 44 3;
#X connect 34 0 44 1;
#X connect 35 0 32 0;
#X connect 35 1 33 0;
#X connect 35 1 31 0;
#X connect 35 1 34 0;
#X connect 35 1 36 0;
#X connect 36 0 37 0;
#X connect 36 0 41 0;
#X connect 37 0 44 4;
#X connect 38 0 39 2;
#X connect 39 0 35 0;
#X connect 40 0 39 0;
#X connect 42 0 39 1;
#X connect 43 0 38 0;
#X connect 43 0 42 0;
#X connect 43 0 39 3;
#X connect 44 0 46 0;
#X connect 45 0 44 5;
#X restore 114 357 pd \$0-writenewtoggles;
#X obj 112 331 t f;
#N canvas 208 208 450 300 \$0-countofftoggles 0;
#X obj 56 22 inlet;
#X obj 58 207 outlet;
#X obj 58 121 until;
#X obj 58 149 f;
#X obj 96 149 + 1;
#X obj 141 148 sel 0;
#X obj 96 175 mod 10;
#X obj 60 93 f;
#X obj 56 52 t b b;
#X obj 193 207 outlet;
#X obj 114 45 r \$0-total-multitoggles;
#X obj 130 117 r \$0-total-multitoggles;
#X obj 260 209 t b;
#X obj 271 240 outlet;
#X connect 0 0 8 0;
#X connect 2 0 3 0;
#X connect 3 0 4 0;
#X connect 3 0 1 0;
#X connect 4 0 6 0;
#X connect 5 0 2 1;
#X connect 5 0 12 0;
#X connect 6 0 3 1;
#X connect 6 0 5 0;
#X connect 7 0 2 0;
#X connect 8 0 7 0;
#X connect 8 1 9 0;
#X connect 10 0 7 1;
#X connect 11 0 6 1;
#X connect 12 0 13 0;
#X restore 115 116 pd \$0-countofftoggles;
#X obj 113 189 s \$0-attindex;
#X obj 81 64 inlet;
#X obj 129 234 r \$0-instanceID-multitoggle;
#N canvas 1072 370 662 554 \$0-make-objconnections 0;
#X obj 160 97 * 20;
#X obj 107 120 pack f f f f;
#N canvas 783 259 523 538 \$0-evenoddcheck 0;
#X obj 174 213 &;
#X floatatom 174 118 5 0 0 0 - - - 0;
#X obj 174 148 t b f;
#X floatatom 110 100 5 0 0 0 - - - 0;
#X floatatom 174 241 4 0 0 0 - - - 0;
#X msg 166 90 1;
#X obj 104 69 t f b;
#X obj 102 38 inlet;
#X obj 169 270 sel 0 1;
#X obj 136 340 outlet;
#X obj 205 341 outlet;
#X obj 137 308 t b;
#X obj 200 307 t b;
#X connect 0 0 4 0;
#X connect 1 0 2 0;
#X connect 2 0 0 0;
#X connect 2 1 0 1;
#X connect 3 0 0 0;
#X connect 4 0 8 0;
#X connect 5 0 1 0;
#X connect 6 0 3 0;
#X connect 6 1 5 0;
#X connect 7 0 6 0;
#X connect 8 0 11 0;
#X connect 8 1 12 0;
#X connect 11 0 9 0;
#X connect 12 0 10 0;
#X restore 143 167 pd \$0-evenoddcheck;
#X obj 287 200 bng 15 250 50 0 empty empty empty 17 7 0 10 #fcfcfc
#000000 #000000;
#X obj 143 196 bng 15 250 50 0 empty empty empty 17 7 0 10 #fcfcfc
#000000 #000000;
#X obj 260 285 spigot 0;
#X obj 324 266 tgl 15 0 empty empty empty 17 7 0 10 #fcfcfc #000000
#000000 0 1;
#X msg 310 244 1;
#X msg 341 243 0;
#X obj 105 283 spigot 0;
#X obj 169 264 tgl 15 0 empty empty empty 17 7 0 10 #fcfcfc #000000
#000000 0 1;
#X msg 166 239 1;
#X msg 200 239 0;
#N canvas 879 246 772 539 \$0-evenconnection 0;
#X msg 136 139 \$2;
#X msg 65 241 0;
#X msg 175 138 \$3;
#X msg 96 140 \$1;
#X obj 133 95 t b a a a;
#X obj 74 271 pack f f f f f;
#X msg 214 139 \$4;
#X obj 146 54 inlet;
#X msg 72 303 \; pd-\$2-recieve-allsends connect \$3 0 0 0;
#X floatatom 254 158 5 0 0 0 - - - 0;
#X obj 212 183 - 1;
#X floatatom 127 177 5 0 0 0 - - - 0;
#X connect 0 0 11 0;
#X connect 1 0 5 0;
#X connect 2 0 5 3;
#X connect 3 0 5 1;
#X connect 4 0 1 0;
#X connect 4 1 2 0;
#X connect 4 1 0 0;
#X connect 4 1 3 0;
#X connect 4 1 6 0;
#X connect 5 0 8 0;
#X connect 6 0 9 0;
#X connect 6 0 10 0;
#X connect 7 0 4 0;
#X connect 10 0 5 4;
#X connect 11 0 5 2;
#X restore 104 309 pd \$0-evenconnection;
#N canvas 319 319 626 470 \$0-oddconnection 0;
#X msg 136 139 \$2;
#X msg 65 241 0;
#X msg 175 138 \$3;
#X msg 96 140 \$1;
#X obj 76 91 t b a a a;
#X msg 214 139 \$4;
#X msg 54 377 \; pd-\$2-recieve-allsends obj 100 \$4 r \$2-multislider-\$3-recv
\;;
#X obj 75 66 inlet;
#X obj 74 271 pack f f f f f f;
#X obj 170 206 + 1;
#X obj 221 193 - 1;
#X msg 55 417 \; pd-\$2-recieve-allsends obj 100 \$4 r \$2-multislider-\$5-send
\; pd-\$2-recieve-allsends msg 314 \$4 \$2 \$5 \\\$1 \; pd-\$2-recieve-allsends
connect \$3 0 \$6 0;
#X msg 72 297 \; pd-\$2-recieve-allsends connect \$3 0 \$6 0;
#X connect 0 0 8 2;
#X connect 0 0 9 0;
#X connect 1 0 8 0;
#X connect 2 0 8 3;
#X connect 3 0 8 1;
#X connect 4 0 1 0;
#X connect 4 1 2 0;
#X connect 4 1 0 0;
#X connect 4 1 3 0;
#X connect 4 1 5 0;
#X connect 5 0 10 0;
#X connect 7 0 4 0;
#X connect 8 0 12 0;
#X connect 9 0 8 5;
#X connect 10 0 8 4;
#X restore 259 313 pd \$0-oddconnection;
#X obj 287 220 t b b b;
#X obj 143 216 t b b b;
#X obj 108 48 inlet;
#X obj 145 145 r \$0-atcindex;
#X obj 161 48 r \$0-atcindex;
#X floatatom 196 76 5 0 0 0 - - - 0;
#X obj 395 202 bng 15 250 50 0 empty empty empty 17 7 0 10 #fcfcfc
#000000 #000000;
#X obj 395 222 t b b b;
#X obj 431 272 tgl 15 0 empty empty empty 17 7 0 10 #fcfcfc #000000
#000000 0 1;
#X msg 417 250 1;
#X msg 448 249 0;
#X obj 416 302 spigot 0;
#N canvas 319 319 626 267 \$0-zeroconnection 0;
#X msg 153 107 0;
#X obj 154 81 t b a a a;
#X obj 153 56 inlet;
#X msg 160 163 \; pd-\$2-recieve-allsends connect 1 0 2 0;
#X obj 215 111 r \$0-instanceID-multitoggle;
#X obj 162 137 pack f f;
#X connect 0 0 5 0;
#X connect 1 0 0 0;
#X connect 2 0 1 0;
#X connect 4 0 5 1;
#X connect 5 0 3 0;
#X restore 415 330 pd \$0-zeroconnection;
#X obj 197 96 + 1;
#X obj 397 174 inlet;
#X connect 0 0 1 2;
#X connect 1 0 5 0;
#X connect 1 0 9 0;
#X connect 2 0 4 0;
#X connect 2 1 3 0;
#X connect 3 0 15 0;
#X connect 4 0 16 0;
#X connect 5 0 14 0;
#X connect 6 0 5 1;
#X connect 7 0 6 0;
#X connect 8 0 10 0;
#X connect 8 0 23 0;
#X connect 9 0 13 0;
#X connect 10 0 9 1;
#X connect 11 0 10 0;
#X connect 12 0 6 0;
#X connect 12 0 23 0;
#X connect 15 1 7 0;
#X connect 15 2 8 0;
#X connect 16 1 11 0;
#X connect 16 2 12 0;
#X connect 17 0 1 0;
#X connect 18 0 2 0;
#X connect 19 0 0 0;
#X connect 19 0 1 1;
#X connect 19 0 20 0;
#X connect 20 0 28 0;
#X connect 21 0 22 0;
#X connect 22 0 26 0;
#X connect 22 1 24 0;
#X connect 22 2 25 0;
#X connect 23 0 26 1;
#X connect 24 0 23 0;
#X connect 25 0 6 0;
#X connect 25 0 10 0;
#X connect 26 0 27 0;
#X connect 28 0 1 3;
#X connect 29 0 21 0;
#X restore 83 672 pd \$0-make-objconnections;
#X floatatom 84 476 5 0 0 0 - - - 0;
#X obj 84 452 t f;
#X obj 115 527 s \$0-atcindex;
#X floatatom 102 575 5 0 0 0 - - - 0;
#X obj 84 600 f;
#X msg 84 626 \$1;
#X obj 84 649 t f f;
#X obj 84 499 t b f;
#X obj 102 552 r \$0-instanceID-multitoggle;
#X obj 380 181 inlet;
#X obj 112 211 r \$0-writeattoggleindex;
#X obj 115 141 t f b;
#X obj 177 164 + 1;
#N canvas 208 208 547 300 \$0-create-sendto-routeout 0;
#X floatatom 105 87 5 0 0 0 - - - 0;
#X obj 87 112 f;
#X obj 87 42 t b;
#X obj 159 111 * 20;
#X obj 87 184 pack f f;
#X obj 158 133 + 50;
#X obj 140 160 f;
#X obj 127 136 t b;
#X obj 87 17 inlet;
#X obj 187 165 + 20;
#X msg 84 209 \; pd-\$1-recieve-allsends obj 400 \$2 s routetoggles-out
;
#X obj 159 86 r \$0-attindex;
#X obj 107 62 r \$0-instanceID-multitoggle;
#X connect 0 0 1 1;
#X connect 1 0 4 0;
#X connect 1 0 7 0;
#X connect 2 0 1 0;
#X connect 3 0 5 0;
#X connect 4 0 10 0;
#X connect 5 0 6 1;
#X connect 6 0 9 0;
#X connect 7 0 6 0;
#X connect 8 0 2 0;
#X connect 9 0 4 1;
#X connect 11 0 3 0;
#X connect 12 0 0 0;
#X restore 257 145 pd \$0-create-sendto-routeout;
#X connect 0 0 1 1;
#X connect 1 0 2 0;
#X connect 2 0 7 0;
#X connect 3 0 25 0;
#X connect 4 0 5 0;
#X connect 4 1 8 0;
#X connect 5 0 14 0;
#X connect 5 1 14 0;
#X connect 7 0 6 0;
#X connect 8 0 24 0;
#X connect 8 1 26 0;
#X connect 8 2 12 1;
#X connect 10 0 4 0;
#X connect 11 0 0 0;
#X connect 13 0 20 0;
#X connect 14 0 13 0;
#X connect 16 0 17 1;
#X connect 17 0 18 0;
#X connect 18 0 19 0;
#X connect 19 0 12 0;
#X connect 20 0 17 0;
#X connect 20 1 15 0;
#X connect 21 0 16 0;
#X connect 23 0 1 0;
#X connect 24 0 3 0;
#X connect 25 0 9 0;
#X restore 93 210 pd \$0-writedefaulttoggles;
#X obj 303 196 t b b b;
#X connect 0 0 6 0;
#X connect 2 0 3 0;
#X connect 4 0 10 0;
#X connect 4 1 7 0;
#X connect 4 2 12 0;
#X connect 4 3 1 0;
#X connect 6 0 4 0;
#X connect 7 0 9 0;
#X connect 8 0 5 0;
#X connect 10 0 11 0;
#X connect 10 1 9 0;
#X connect 10 2 12 0;
#X connect 12 0 8 0;
#X connect 12 1 5 0;
#X connect 12 2 11 1;
#X restore 97 -165 pd \$0-multitogglearea;
#N canvas 52 52 450 300 \$0-getmultitoggledata 0;
#N canvas 234 234 450 300 \$0-gettogglebyindex 0;
#X obj 70 34 inlet;
#X obj 72 111 s \$0-get-toggleindex;
#X obj 71 60 t b f;
#X obj 72 85 f;
#X connect 0 0 2 0;
#X connect 2 0 3 0;
#X connect 2 1 3 1;
#X connect 3 0 1 0;
#X restore 95 147 pd \$0-gettogglebyindex;
#X obj 96 122 route get_toggle;
#X obj 91 70 inlet;
#X obj 267 89 outlet;
#X obj 93 95 t a;
#X connect 1 0 0 0;
#X connect 1 1 3 0;
#X connect 2 0 4 0;
#X connect 4 0 1 0;
#X restore 97 -140 pd \$0-getmultitoggledata;
#N canvas 78 78 797 371 \$0-setmultitoggledata 0;
#X obj 76 26 inlet;
#X obj 75 79 route set_toggle;
#X obj 184 103 t b;
#N canvas 156 156 450 300 \$0-reportmultitoggleerror 0;
#X obj 84 53 inlet;
#X obj 139 156 r \$0-onerror;
#X obj 132 60 r \$0-instanceID-multitoggle;
#X obj 133 107 f;
#X obj 133 84 t b f;
#X obj 84 230 print;
#X obj 86 155 symbol;
#X msg 87 134 bang;
#X obj 86 181 pack s s;
#X obj 86 112 t b;
#X obj 84 206 list trim;
#X msg 133 130 symbol Unknown_msg_recieved_for_multitoggle_instanceID:\$1->
;
#X connect 0 0 9 0;
#X connect 1 0 8 1;
#X connect 2 0 4 0;
#X connect 3 0 11 0;
#X connect 4 0 3 0;
#X connect 4 1 3 1;
#X connect 6 0 8 0;
#X connect 7 0 6 0;
#X connect 8 0 10 0;
#X connect 9 0 7 0;
#X connect 10 0 5 0;
#X connect 11 0 6 1;
#X restore 184 128 pd \$0-reportmultitoggleerror;
#X obj 75 53 t a;
#X connect 0 0 4 0;
#X connect 1 1 2 0;
#X connect 2 0 3 0;
#X connect 4 0 1 0;
#X restore 97 -113 pd \$0-setmultitoggledata;
#X obj 91 -294 loadbang;
#X obj 93 -269 \$0;
#X obj 95 -84 namecanvas \$0-ce_multitoggle;
#N canvas 1192 522 450 300 \$0-mtoggle-display 0;
#X obj 106 100 tgl 15 1.04858e+06 4718-multitoggle-0-send 4718-multitoggle-0-recv
empty 0 0 0 4 #001488 #28f4f4 #606060 0 1;
#X obj 125 100 tgl 15 1.04858e+06 4718-multitoggle-1-send 4718-multitoggle-1-recv
empty 0 0 0 4 #001488 #28f4f4 #606060 0 1;
#X obj 144 100 tgl 15 1.04858e+06 4718-multitoggle-2-send 4718-multitoggle-2-recv
empty 0 0 0 4 #001488 #28f4f4 #606060 0 1;
#X obj 163 100 tgl 15 1.04858e+06 4718-multitoggle-3-send 4718-multitoggle-3-recv
empty 0 0 0 4 #001488 #28f4f4 #606060 0 1;
#X obj 182 100 tgl 15 1.04858e+06 4718-multitoggle-4-send 4718-multitoggle-4-recv
empty 0 0 0 4 #001488 #28f4f4 #606060 0 1;
#X obj 201 100 tgl 15 1.04858e+06 4718-multitoggle-5-send 4718-multitoggle-5-recv
empty 0 0 0 4 #001488 #28f4f4 #606060 0 1;
#X obj 220 100 tgl 15 1.04858e+06 4718-multitoggle-6-send 4718-multitoggle-6-recv
empty 0 0 0 4 #001488 #28f4f4 #606060 0 1;
#X obj 239 100 tgl 15 1.04858e+06 4718-multitoggle-7-send 4718-multitoggle-7-recv
empty 0 0 0 4 #001488 #28f4f4 #606060 0 1;
#X obj 258 100 tgl 15 1.04858e+06 4718-multitoggle-8-send 4718-multitoggle-8-recv
empty 0 0 0 4 #001488 #28f4f4 #606060 0 1;
#X obj 277 100 tgl 15 1.04858e+06 4718-multitoggle-9-send 4718-multitoggle-9-recv
empty 0 0 0 4 #001488 #28f4f4 #606060 0 1;
#X obj 296 100 tgl 15 1.04858e+06 4718-multitoggle-10-send 4718-multitoggle-10-recv
empty 0 0 0 4 #001488 #28f4f4 #606060 0 1;
#X obj 315 100 tgl 15 1.04858e+06 4718-multitoggle-11-send 4718-multitoggle-11-recv
empty 0 0 0 4 #001488 #28f4f4 #606060 0 1;
#X obj 334 100 tgl 15 1.04858e+06 4718-multitoggle-12-send 4718-multitoggle-12-recv
empty 0 0 0 4 #001488 #28f4f4 #606060 0 1;
#X obj 353 100 tgl 15 1.04858e+06 4718-multitoggle-13-send 4718-multitoggle-13-recv
empty 0 0 0 4 #001488 #28f4f4 #606060 0 1;
#X obj 372 100 tgl 15 1.04858e+06 4718-multitoggle-14-send 4718-multitoggle-14-recv
empty 0 0 0 4 #001488 #28f4f4 #606060 0 1;
#X obj 391 100 tgl 15 1.04858e+06 4718-multitoggle-15-send 4718-multitoggle-15-recv
empty 0 0 0 4 #001488 #28f4f4 #606060 0 1;
#X coords 0 0 1 1 309 15 2 100 100;
#X restore 100 100 pd \$0-mtoggle-display;
#N canvas 433 110 771 406 \$0-initdefaultsettings 0;
#X obj 44 4 inlet;
#X obj 280 419 outlet;
#X msg 135 343 set_type -h;
#X obj 128 82 s \$0-instanceID-multitoggle;
#X msg 203 165 set_iname multitoggle;
#X msg 229 140 set_fontsize 12;
#X msg 68 166 create_toggles;
#X msg 106 397 set_direction left;
#X msg 438 156 set_labelcolor \$1 21;
#X msg 420 180 set_bordercolor \$1 58;
#X obj 398 63 until;
#X obj 398 91 f;
#X obj 436 91 + 1;
#X obj 481 90 sel 0;
#X obj 436 117 mod 10;
#X obj 400 35 f;
#X obj 418 7 r \$0-total-multitoggles;
#X obj 480 42 r \$0-total-multitoggles;
#X obj 95 104 t b b b b b b b b b b b b;
#X msg 502 235 set_label \$1 empty;
#X obj 381 134 t f f f f f;
#X msg 511 266 set_value \$1 0;
#X msg 565 206 set_forecolor 0 34;
#X obj 348 22 bng 15 250 50 0 empty empty empty 17 7 0 10 #fcfcfc #000000
#000000;
#X obj 44 28 t b b f b;
#X msg 117 374 set_padding 2;
#X msg 189 192 set_size 15;
#X obj 95 55 t b b f;
#X msg 155 234 16;
#X msg 146 314 set_totaltoggles \$1;
#X obj 185 274 f;
#X obj 266 229 inlet;
#X obj 330 207 inlet;
#X obj 267 273 t b f;
#X msg 403 205 set_forecolor \$1 17;
#X msg 329 273 set_startloc 105 100;
#X obj 24 97 del;
#X obj 36 139 t b b;
#X obj 33 176 del;
#X connect 0 0 24 0;
#X connect 2 0 1 0;
#X connect 4 0 1 0;
#X connect 5 0 1 0;
#X connect 6 0 1 0;
#X connect 7 0 1 0;
#X connect 8 0 1 0;
#X connect 9 0 1 0;
#X connect 10 0 11 0;
#X connect 11 0 12 0;
#X connect 11 0 20 0;
#X connect 12 0 14 0;
#X connect 13 0 10 1;
#X connect 14 0 11 1;
#X connect 14 0 13 0;
#X connect 15 0 10 0;
#X connect 16 0 15 1;
#X connect 17 0 14 1;
#X connect 18 0 37 0;
#X connect 18 1 7 0;
#X connect 18 2 25 0;
#X connect 18 3 2 0;
#X connect 18 4 30 0;
#X connect 18 6 26 0;
#X connect 18 7 4 0;
#X connect 18 8 5 0;
#X connect 18 9 35 0;
#X connect 19 0 1 0;
#X connect 20 0 34 0;
#X connect 20 1 9 0;
#X connect 20 2 8 0;
#X connect 20 3 19 0;
#X connect 20 4 21 0;
#X connect 21 0 1 0;
#X connect 22 0 1 0;
#X connect 23 0 15 0;
#X connect 24 0 36 0;
#X connect 24 2 27 0;
#X connect 25 0 1 0;
#X connect 26 0 1 0;
#X connect 27 0 18 0;
#X connect 27 1 28 0;
#X connect 27 2 3 0;
#X connect 28 0 29 0;
#X connect 29 0 1 0;
#X connect 30 0 29 0;
#X connect 31 0 33 0;
#X connect 32 0 18 0;
#X connect 33 0 30 0;
#X connect 33 1 30 1;
#X connect 34 0 1 0;
#X connect 35 0 1 0;
#X connect 36 0 23 0;
#X connect 37 0 38 0;
#X connect 37 1 6 0;
#X connect 38 0 23 0;
#X restore 97 -222 pd \$0-initdefaultsettings;
#X obj 94 -245 t f;
#N canvas 340 101 598 278 \$0-recieve-allsends 0;
#X obj 400 20 s routetoggles-out;
#X obj 100 20 r 4718-multitoggle-0-send;
#X msg 314 20 4718 0 \$1;
#X obj 100 40 r 4718-multitoggle-1-send;
#X msg 314 40 4718 1 \$1;
#X obj 100 60 r 4718-multitoggle-2-send;
#X msg 314 60 4718 2 \$1;
#X obj 100 80 r 4718-multitoggle-3-send;
#X msg 314 80 4718 3 \$1;
#X obj 100 100 r 4718-multitoggle-4-send;
#X msg 314 100 4718 4 \$1;
#X obj 100 120 r 4718-multitoggle-5-send;
#X msg 314 120 4718 5 \$1;
#X obj 100 140 r 4718-multitoggle-6-send;
#X msg 314 140 4718 6 \$1;
#X obj 100 160 r 4718-multitoggle-7-send;
#X msg 314 160 4718 7 \$1;
#X obj 100 180 r 4718-multitoggle-8-send;
#X msg 314 180 4718 8 \$1;
#X obj 100 200 r 4718-multitoggle-9-send;
#X msg 314 200 4718 9 \$1;
#X obj 100 220 r 4718-multitoggle-10-send;
#X msg 314 220 4718 10 \$1;
#X obj 100 240 r 4718-multitoggle-11-send;
#X msg 314 240 4718 11 \$1;
#X obj 100 260 r 4718-multitoggle-12-send;
#X msg 314 260 4718 12 \$1;
#X obj 100 280 r 4718-multitoggle-13-send;
#X msg 314 280 4718 13 \$1;
#X obj 100 300 r 4718-multitoggle-14-send;
#X msg 314 300 4718 14 \$1;
#X obj 100 320 r 4718-multitoggle-15-send;
#X msg 314 320 4718 15 \$1;
#X connect 1 0 2 0;
#X connect 2 0 0 0;
#X connect 3 0 4 0;
#X connect 4 0 0 0;
#X connect 5 0 6 0;
#X connect 6 0 0 0;
#X connect 7 0 8 0;
#X connect 8 0 0 0;
#X connect 9 0 10 0;
#X connect 10 0 0 0;
#X connect 11 0 12 0;
#X connect 12 0 0 0;
#X connect 13 0 14 0;
#X connect 14 0 0 0;
#X connect 15 0 16 0;
#X connect 16 0 0 0;
#X connect 17 0 18 0;
#X connect 18 0 0 0;
#X connect 19 0 20 0;
#X connect 20 0 0 0;
#X connect 21 0 22 0;
#X connect 22 0 0 0;
#X connect 23 0 24 0;
#X connect 24 0 0 0;
#X connect 25 0 26 0;
#X connect 26 0 0 0;
#X connect 27 0 28 0;
#X connect 28 0 0 0;
#X connect 29 0 30 0;
#X connect 30 0 0 0;
#X connect 31 0 32 0;
#X connect 32 0 0 0;
#X restore 96 -55 pd \$0-recieve-allsends;
#X obj 99 0 r routetoggles-out;
#N canvas 169 381 1340 512 \$0-togglecmds 0;
#X obj 70 207 s;
#X obj 69 135 t a a;
#X msg 70 160 label \$3;
#X obj 137 35 r \$0-setnewlabel;
#X obj 69 60 r \$0-atdefaultlabel;
#X obj 571 331 s;
#X obj 571 259 t a a;
#X obj 969 204 s;
#X obj 959 131 t a a;
#X obj 948 181 bng 15 250 50 0 empty empty empty 17 7 0 4 #fcfcfc #000000
#000000;
#X msg 1032 54 3;
#X obj 956 28 r \$0-atfontindex;
#X msg 960 156 label_font \$3 \$4;
#X msg 571 284 color \$3 \$4 \$5;
#X obj 261 363 s;
#X obj 246 313 t a a;
#X msg 247 336 \$3;
#X obj 69 111 pack f f s s;
#X obj 246 289 pack f f f s;
#X obj 571 235 pack f f f f f s;
#X obj 959 107 pack f f f f s;
#X obj 303 68 r \$0-instancename;
#X obj 308 91 t s s s s;
#X msg 91 183 symbol \$2-\$4-\$1-recv;
#X msg 282 339 symbol \$2-\$4-\$1-recv;
#X obj 95 83 r \$0-instanceID-multitoggle;
#X obj 273 262 r \$0-instanceID-multitoggle;
#X obj 476 106 r \$0-instanceID-multitoggle;
#X obj 976 79 r \$0-instanceID-multitoggle;
#X obj 527 130 r \$0-atcolortoggle;
#X obj 615 172 r \$0-toggle-frontcolor;
#X obj 639 198 r \$0-toggle-labelcolor;
#X obj 1086 48 r \$0-togglefontsize;
#X obj 597 152 r \$0-toggle-bgcolor;
#X obj 246 238 r \$0-atnewtvalue;
#X obj 314 213 r \$0-setnewtvalue;
#X msg 506 204 0;
#X msg 502 252 1;
#X msg 592 307 symbol \$2-\$6-\$1-recv;
#X msg 990 180 symbol \$2-\$5-\$1-recv;
#X connect 1 0 2 0;
#X connect 1 1 23 0;
#X connect 2 0 0 0;
#X connect 3 0 17 2;
#X connect 4 0 17 0;
#X connect 6 0 13 0;
#X connect 6 1 38 0;
#X connect 8 0 12 0;
#X connect 8 1 39 0;
#X connect 10 0 20 2;
#X connect 11 0 20 0;
#X connect 12 0 7 0;
#X connect 12 0 9 0;
#X connect 13 0 5 0;
#X connect 15 0 16 0;
#X connect 15 1 24 0;
#X connect 16 0 14 0;
#X connect 17 0 1 0;
#X connect 18 0 15 0;
#X connect 19 0 6 0;
#X connect 20 0 8 0;
#X connect 21 0 22 0;
#X connect 22 0 17 3;
#X connect 22 1 18 3;
#X connect 22 2 19 5;
#X connect 22 3 20 4;
#X connect 23 0 0 1;
#X connect 24 0 14 1;
#X connect 25 0 17 1;
#X connect 26 0 18 1;
#X connect 27 0 19 1;
#X connect 28 0 20 1;
#X connect 29 0 19 0;
#X connect 30 0 19 3;
#X connect 31 0 19 4;
#X connect 32 0 10 0;
#X connect 32 0 20 3;
#X connect 33 0 19 2;
#X connect 34 0 18 0;
#X connect 35 0 18 2;
#X connect 36 0 19 0;
#X connect 37 0 19 0;
#X connect 38 0 5 1;
#X connect 39 0 7 1;
#X restore 94 -27 pd \$0-togglecmds;
#X obj 97 34 outlet;
#X obj 349 -234 inlet;
#X obj 346 -201 t b f;
#X obj 50 -267 bng 15 250 50 0 empty empty empty 17 7 0 10 #fcfcfc
#000000 #000000;
#X connect 1 0 3 0;
#X connect 2 0 1 0;
#X connect 3 0 4 0;
#X connect 4 0 5 0;
#X connect 6 0 7 0;
#X connect 7 0 11 0;
#X connect 10 0 1 0;
#X connect 11 0 10 0;
#X connect 13 0 15 0;
#X connect 16 0 17 0;
#X connect 17 0 10 2;
#X connect 17 1 10 1;
#X connect 18 0 7 0;
#X coords 0 0 1 1 309 15 2 100 100;
