#N struct 1484-bang float c float bc float w float z float x float y symbol text;
#N struct 0-g1 float x float y float q;
#N struct 1491-bang float c float bc float w float z float x float y symbol text;
#N struct 1-g1 float x float y float q;
#N struct 1498-bang float c float bc float w float z float x float y symbol text;
#N struct 2-g1 float x float y float q;
#N struct 1505-bang float c float bc float w float z float x float y symbol text;
#N struct 3-g1 float x float y float q;
#N struct 1512-bang float c float bc float w float z float x float y symbol text;
#N struct 4-g1 float x float y float q;
#N struct 1519-bang float c float bc float w float z float x float y symbol text;
#N struct 5-g1 float x float y float q;
#N struct 1526-bang float c float bc float w float z float x float y symbol text;
#N struct 6-g1 float x float y float q;
#N struct 1533-bang float c float bc float w float z float x float y symbol text;
#N struct 8-g1 float x float y float q;
#N struct 1540-bang float c float bc float w float z float x float y symbol text;
#N struct 9-g1 float x float y float q;
#N struct 1547-bang float c float bc float w float z float x float y symbol text;
#N struct 10-g1 float x float y float q;
#N struct 1554-bang float c float bc float w float z float x float y symbol text;
#N struct 11-g1 float x float y float q;
#N struct 1561-bang float c float bc float w float z float x float y symbol text;
#N struct 12-g1 float x float y float q;
#N struct 1568-bang float c float bc float w float z float x float y symbol text;
#N struct 13-g1 float x float y float q;
#N struct 1575-bang float c float bc float w float z float x float y symbol text;
#N struct 14-g1 float x float y float q;
#N struct 1582-bang float c float bc float w float z float x float y symbol text;
#N struct 16-g1 float x float y float q;
#N struct 1589-bang float c float bc float w float z float x float y symbol text;
#N struct 17-g1 float x float y float q;
#N struct 1596-bang float c float bc float w float z float x float y symbol text;
#N struct 18-g1 float x float y float q;
#N struct 1603-bang float c float bc float w float z float x float y symbol text;
#N struct 19-g1 float x float y float q;
#N struct 1610-bang float c float bc float w float z float x float y symbol text;
#N struct 20-g1 float x float y float q;
#N struct 1617-bang float c float bc float w float z float x float y symbol text;
#N struct 21-g1 float x float y float q;
#N struct 1624-bang float c float bc float w float z float x float y symbol text;
#N struct 22-g1 float x float y float q;
#N struct 1631-bang float c float bc float w float z float x float y symbol text;
#N struct 24-g1 float x float y float q;
#N struct 1638-bang float c float bc float w float z float x float y symbol text;
#N struct 25-g1 float x float y float q;
#N struct 1645-bang float c float bc float w float z float x float y symbol text;
#N struct 26-g1 float x float y float q;
#N struct 1652-bang float c float bc float w float z float x float y symbol text;
#N struct 27-g1 float x float y float q;
#N struct 1659-bang float c float bc float w float z float x float y symbol text;
#N struct 28-g1 float x float y float q;
#N struct 1666-bang float c float bc float w float z float x float y symbol text;
#N struct 29-g1 float x float y float q;
#N struct 1673-bang float c float bc float w float z float x float y symbol text;
#N struct 30-g1 float x float y float q;
#N struct 1680-bang float c float bc float w float z float x float y symbol text;
#N struct 15-g1 float x float y float q;
#N struct 1687-bang float c float bc float w float z float x float y symbol text;
#N struct 23-g1 float x float y float q;
#N struct 1694-bang float c float bc float w float z float x float y symbol text;
#N struct 31-g1 float x float y float q;
#N struct 1701-bang float c float bc float w float z float x float y symbol text;
#N struct 7-g1 float x float y float q;
#N struct 1709-bang float c float bc float w float z float x float y symbol text;
#N struct 1711-bang float c float bc float w float z float x float y symbol text;
#N struct 1713-bang float c float bc float w float z float x float y symbol text;
#N struct 1715-bang float c float bc float w float z float x float y symbol text;
#N struct 1717-bang float c float bc float w float z float x float y symbol text;
#N struct 1719-bang float c float bc float w float z float x float y symbol text;
#N struct 1721-bang float c float bc float w float z float x float y symbol text;
#N struct 1723-bang float c float bc float w float z float x float y symbol text;
#N struct 1725-bang float c float bc float w float z float x float y symbol text;
#N struct 1727-bang float c float bc float w float z float x float y symbol text;
#N struct 1729-bang float c float bc float w float z float x float y symbol text;
#N struct 1731-bang float c float bc float w float z float x float y symbol text;
#N struct 1733-bang float c float bc float w float z float x float y symbol text;
#N struct 1737-bang float c float bc float w float z float x float y symbol text;
#N struct 1810-bang float c float bc float w float z float x float y symbol text;
#N struct 1812-bang float c float bc float w float z float x float y symbol text;
#N struct 1814-bang float c float bc float w float z float x float y symbol text;
#N struct 1816-bang float c float bc float w float z float x float y symbol text;
#N struct 1818-bang float c float bc float w float z float x float y symbol text;
#N struct 1820-bang float c float bc float w float z float x float y symbol text;
#N canvas 592 79 1319 810 12;
#X declare -path clearessentials;
#X declare -lib clearessentials;
#X obj 10 779 outlet;
#N canvas 414 11 1485 909 \$0-studio-display 1;
#X obj 100 220 ce_restepper;
#N canvas 227 75 1051 598 \$0-sequencequeue 0;
#X obj 112 -23 inlet;
#X obj 119 66 s \$0-toallqueues;
#X obj 244 62 s \$0-toallqueues;
#X msg 242 35 set_totalsteps \$1;
#X msg 118 39 triggerstep \$1, f 15;
#X obj 382 65 s \$0-toallqueues;
#X msg 384 37 millsperbeat \$1;
#X obj 506 480 outlet;
#X obj 506 454 r \$0-cmd-toseq;
#X obj 101 101 cnv 19 877 20 empty empty Sequences 410 12 0 12 #dfdfdf #000000 0;
#X obj 619 475 outlet;
#X obj 901 2 s \$0-toallqueues;
#X msg 869 -24 set_seqtitle 0 asdfaewf;
#X text 331 501 Pattern data;
#X msg 336 524 index|name|vel|solo|mute|effects;
#X msg 512 39 set_isplaying \$1;
#X obj 512 64 s \$0-toallqueues;
#X obj 639 62 s \$0-toallqueues;
#X msg 639 36 set_isexporting \$1;
#X obj 887 -57 s \$0-toallqueues;
#X msg 758 -57 set_isexporting \$1;
#X obj 31 -63 loadbang;
#X msg 33 33 0;
#X obj 30 -13 del 1;
#X obj 31 10 t b;
#N canvas 180 164 450 361 \$0-bpmcalculator 0;
#X obj 36 25 inlet;
#X obj 165 70 r \$0-total_sepsteps;
#X obj 37 172 outlet;
#X floatatom 37 48 5 0 0 0 - - - 0;
#X obj 37 72 t f;
#X obj 34 119 expr 1000/($f1/$f2);
#X floatatom 183 120 5 0 0 0 - - - 0;
#X obj 36 146 t f;
#X obj 164 95 * 4;
#X connect 0 0 3 0;
#X connect 1 0 8 0;
#X connect 3 0 4 0;
#X connect 4 0 5 0;
#X connect 5 0 7 0;
#X connect 7 0 2 0;
#X connect 8 0 5 1;
#X connect 8 0 6 0;
#X restore 268 -47 pd \$0-bpmcalculator;
#X msg 268 -22 millsperbeat \$1;
#X msg 268 -69 84;
#X msg 449 -38 set_isexporting 0;
#X obj 30 -35 t b b b b b;
#X obj 589 -29 s \$0-total_sepsteps;
#X msg 588 -54 8;
#X obj 100 122 cnv 19 877 320 empty empty empty 20 12 0 12 #404040 #404040 0;
#X obj 941 67 r \$0-toallqueues;
#X floatatom 605 -14 5 1 16 1 Pattern - - 0;
#X obj 605 -14 cnv 15 38 18 \$0-display-selseq-send \$0-display-selseq-recv 2 5 8 0 14 #131255 #00faff 0;
#X obj 388 -23 tgl 19 0 empty empty Export\ Song 25 10 0 12 #131255 #00faff #000000 0 1;
#X obj 620 451 r \$0-sel-toseq;
#X obj 100 122 ce_queuehandler;
#X obj 108 551 s \$0-sel-toseq;
#X obj 230 550 s \$0-cmd-toseq;
#X obj 102 481 route selection;
#X obj 218 513 t a;
#X floatatom 133 516 5 0 0 0 - - - 0;
#X obj 814 63 s \$0-toallqueues;
#X msg 814 37 set_selected \$1;
#X obj 119 11 route triggerstep set_totalsteps millsperbeat set_isplaying set_isexporting set_selseq, f 111;
#X connect 0 0 46 0;
#X connect 3 0 2 0;
#X connect 4 0 1 0;
#X connect 6 0 5 0;
#X connect 8 0 7 0;
#X connect 12 0 11 0;
#X connect 15 0 16 0;
#X connect 18 0 17 0;
#X connect 20 0 19 0;
#X connect 21 0 29 0;
#X connect 22 0 36 0;
#X connect 23 0 24 0;
#X connect 24 0 22 0;
#X connect 25 0 26 0;
#X connect 26 0 46 0;
#X connect 27 0 25 0;
#X connect 28 0 46 0;
#X connect 29 0 23 0;
#X connect 29 1 36 0;
#X connect 29 2 27 0;
#X connect 29 3 28 0;
#X connect 29 4 31 0;
#X connect 31 0 30 0;
#X connect 33 0 38 1;
#X connect 36 0 20 0;
#X connect 37 0 10 0;
#X connect 38 0 41 0;
#X connect 41 0 39 0;
#X connect 41 0 43 0;
#X connect 41 1 42 0;
#X connect 42 0 40 0;
#X connect 45 0 44 0;
#X connect 46 0 4 0;
#X connect 46 1 3 0;
#X connect 46 2 6 0;
#X connect 46 3 15 0;
#X connect 46 4 18 0;
#X connect 46 5 45 0;
#X coords 0 -1 1 1 877 343 2 100 100;
#X restore 100 521 pd \$0-sequencequeue;
#X obj 695 69 s \$0-step-fromsequencer;
#X obj 65 52 r \$0-step-fromsequencer;
#X obj 100 874 s \$0-from-queue;
#X obj 478 -29 r \$0-from-queue;
#X msg 598 23 symbol restepper-all;
#X obj 580 47 s;
#X obj 478 70 s \$0-sel-fromqueue;
#X obj 54 0 r \$0-sel-fromqueue;
#X obj 478 22 route selection;
#X obj 48 498 outlet;
#X obj 887 876 s \$0-sel-fromqueue;
#X text 487 872 877 645;
#X obj 101 100 ce_resampler;
#X obj -21 526 s \$0-msgtosmpler;
#X obj 99 75 r \$0-msgtosmpler;
#X obj 478 -4 t a a b;
#X obj 355 69 s \$0-msgtosmpler;
#X obj 51 26 t a a;
#X msg 263 52 selection \$1;
#N canvas 63 34 376 501 \$0-patternplaylist 0;
#X obj 100 100 cnv 19 200 347 empty empty empty 3 12 0 12 #e0e0e0 #404040 0;
#X obj 100 101 cnv 19 200 20 empty empty Song\ Playlist 3 12 0 12 #7c7c7c #ffffff 0;
#X obj 103 125 cnv 19 35 20 empty empty Play 4 12 0 12 #404040 #ffffff 0;
#X obj 280 125 cnv 19 20 20 \$0-nav-up-send \$0-nav-up-recv X 6 10 0 12 #7c7c7c #000000 0;
#X obj 280 427 cnv 19 20 20 \$0-nav-down-send \$0-nav-down-recv X 6 10 0 12 #7c7c7c #000000 0;
#X obj 281 148 vsl 19 275 127 0 0 0 empty empty empty 0 -9 0 12 #131255 #00faff #000000 0 1;
#X obj 103 147 cnv 19 130 20 empty empty 000-Pattern 3 12 0 12 #606060 #000000 0;
#X obj 235 147 cnv 19 20 20 empty empty >> 3 10 0 12 #606060 #000000 0;
#X obj 258 147 cnv 19 20 20 empty empty X 6 10 0 12 #551312 #ffffff 0;
#X obj 103 170 cnv 19 130 20 empty empty 000-Pattern 3 12 0 12 #606060 #000000 0;
#X obj 235 170 cnv 19 20 20 empty empty >> 3 10 0 12 #606060 #000000 0;
#X obj 258 170 cnv 19 20 20 empty empty X 6 10 0 12 #551312 #ffffff 0;
#X obj 141 125 cnv 19 35 20 empty empty Stop 4 12 0 12 #404040 #ffffff 0;
#X obj 194 426 cnv 19 65 20 empty empty ExportAs 4 12 0 12 #606060 #ffffff 0;
#X obj 103 426 cnv 19 40 20 empty empty AIFF 4 12 0 12 #404040 #ffffff 0;
#X obj 145 426 cnv 19 40 20 empty empty WAVE 4 12 0 12 #404040 #ffffff 0;
#X obj 103 193 cnv 19 130 20 empty empty 000-Pattern 3 12 0 12 #606060 #000000 0;
#X obj 235 193 cnv 19 20 20 empty empty >> 3 10 0 12 #606060 #000000 0;
#X obj 258 193 cnv 19 20 20 empty empty X 6 10 0 12 #551312 #ffffff 0;
#X obj 103 216 cnv 19 130 20 empty empty 000-Pattern 3 12 0 12 #606060 #000000 0;
#X obj 235 216 cnv 19 20 20 empty empty >> 3 10 0 12 #606060 #000000 0;
#X obj 258 216 cnv 19 20 20 empty empty X 6 10 0 12 #551312 #ffffff 0;
#X obj 103 239 cnv 19 130 20 empty empty 000-Pattern 3 12 0 12 #606060 #000000 0;
#X obj 235 239 cnv 19 20 20 empty empty >> 3 10 0 12 #606060 #000000 0;
#X obj 258 239 cnv 19 20 20 empty empty X 6 10 0 12 #551312 #ffffff 0;
#X obj 103 262 cnv 19 130 20 empty empty 000-Pattern 3 12 0 12 #606060 #000000 0;
#X obj 235 262 cnv 19 20 20 empty empty >> 3 10 0 12 #606060 #000000 0;
#X obj 258 262 cnv 19 20 20 empty empty X 6 10 0 12 #551312 #ffffff 0;
#X obj 103 285 cnv 19 130 20 empty empty 000-Pattern 3 12 0 12 #606060 #000000 0;
#X obj 235 285 cnv 19 20 20 empty empty >> 3 10 0 12 #606060 #000000 0;
#X obj 258 285 cnv 19 20 20 empty empty X 6 10 0 12 #551312 #ffffff 0;
#X obj 103 308 cnv 19 130 20 empty empty 000-Pattern 3 12 0 12 #606060 #000000 0;
#X obj 235 308 cnv 19 20 20 empty empty >> 3 10 0 12 #606060 #000000 0;
#X obj 258 308 cnv 19 20 20 empty empty X 6 10 0 12 #551312 #ffffff 0;
#X obj 103 331 cnv 19 130 20 empty empty 000-Pattern 3 12 0 12 #606060 #000000 0;
#X obj 235 331 cnv 19 20 20 empty empty >> 3 10 0 12 #606060 #000000 0;
#X obj 258 331 cnv 19 20 20 empty empty X 6 10 0 12 #551312 #ffffff 0;
#X obj 103 354 cnv 19 130 20 empty empty 000-Pattern 3 12 0 12 #606060 #000000 0;
#X obj 235 354 cnv 19 20 20 empty empty >> 3 10 0 12 #606060 #000000 0;
#X obj 258 354 cnv 19 20 20 empty empty X 6 10 0 12 #551312 #ffffff 0;
#X obj 103 400 cnv 19 175 20 empty empty Song\ Length:\ 2:00mins 3 12 0 12 #606060 #000000 0;
#X obj 103 377 cnv 19 175 20 empty empty 1of127\ Patterns 3 12 0 12 #606060 #000000 0;
#X obj 236 125 cnv 19 42 20 empty empty Clear 4 12 0 12 #404040 #ffffff 0;
#X coords 0 -1 1 1 200 347 2 100 100;
#X restore 979 521 pd \$0-patternplaylist;
#N canvas 948 89 450 490 \$0-patternplaylist 0;
#X obj 100 100 cnv 19 200 347 empty empty empty 3 12 0 12 #e0e0e0 #404040 0;
#X obj 100 101 cnv 19 200 20 empty empty Pattern\ Manager 3 12 0 12 #606060 #ffffff 0;
#X obj 103 125 cnv 19 175 20 empty empty Create\ New 50 12 0 12 #404040 #ffffff 0;
#X obj 235 75 cnv 19 20 20 empty empty >> 3 10 0 12 #606060 #000000 0;
#X obj 258 75 cnv 19 20 20 empty empty X 6 10 0 12 #551312 #ffffff 0;
#X obj 280 125 cnv 19 20 20 \$0-nav-up-send \$0-nav-up-recv X 6 10 0 12 #7c7c7c #000000 0;
#X obj 280 427 cnv 19 20 20 \$0-nav-down-send \$0-nav-down-recv X 6 10 0 12 #7c7c7c #000000 0;
#X obj 281 148 vsl 19 275 127 0 0 0 empty empty empty 0 -9 0 12 #131255 #00faff #000000 0 1;
#X obj 103 147 cnv 19 130 20 empty empty 000-Pattern 3 12 0 12 #606060 #000000 0;
#X obj 235 147 cnv 19 20 20 empty empty >> 3 10 0 12 #606060 #000000 0;
#X obj 258 147 cnv 19 20 20 empty empty X 6 10 0 12 #551312 #ffffff 0;
#X obj 103 170 cnv 19 130 20 empty empty 000-Pattern 3 12 0 12 #606060 #000000 0;
#X obj 235 170 cnv 19 20 20 empty empty >> 3 10 0 12 #606060 #000000 0;
#X obj 258 170 cnv 19 20 20 empty empty X 6 10 0 12 #551312 #ffffff 0;
#X obj 194 476 cnv 19 65 20 empty empty ExportAs 4 12 0 12 #606060 #ffffff 0;
#X obj 103 426 cnv 19 40 20 empty empty Wait 4 12 0 12 #404040 #ffffff 0;
#X obj 145 476 cnv 19 40 20 empty empty WAVE 4 12 0 12 #404040 #ffffff 0;
#X obj 103 193 cnv 19 130 20 empty empty 000-Pattern 3 12 0 12 #606060 #000000 0;
#X obj 235 193 cnv 19 20 20 empty empty >> 3 10 0 12 #606060 #000000 0;
#X obj 258 193 cnv 19 20 20 empty empty X 6 10 0 12 #551312 #ffffff 0;
#X obj 103 216 cnv 19 130 20 empty empty 000-Pattern 3 12 0 12 #606060 #000000 0;
#X obj 235 216 cnv 19 20 20 empty empty >> 3 10 0 12 #606060 #000000 0;
#X obj 258 216 cnv 19 20 20 empty empty X 6 10 0 12 #551312 #ffffff 0;
#X obj 103 239 cnv 19 130 20 empty empty 000-Pattern 3 12 0 12 #606060 #000000 0;
#X obj 235 239 cnv 19 20 20 empty empty >> 3 10 0 12 #606060 #000000 0;
#X obj 258 239 cnv 19 20 20 empty empty X 6 10 0 12 #551312 #ffffff 0;
#X obj 103 262 cnv 19 130 20 empty empty 000-Pattern 3 12 0 12 #606060 #000000 0;
#X obj 235 262 cnv 19 20 20 empty empty >> 3 10 0 12 #606060 #000000 0;
#X obj 258 262 cnv 19 20 20 empty empty X 6 10 0 12 #551312 #ffffff 0;
#X obj 103 285 cnv 19 130 20 empty empty 000-Pattern 3 12 0 12 #606060 #000000 0;
#X obj 235 285 cnv 19 20 20 empty empty >> 3 10 0 12 #606060 #000000 0;
#X obj 258 285 cnv 19 20 20 empty empty X 6 10 0 12 #551312 #ffffff 0;
#X obj 103 308 cnv 19 130 20 empty empty 000-Pattern 3 12 0 12 #606060 #000000 0;
#X obj 235 308 cnv 19 20 20 empty empty >> 3 10 0 12 #606060 #000000 0;
#X obj 258 308 cnv 19 20 20 empty empty X 6 10 0 12 #551312 #ffffff 0;
#X obj 103 331 cnv 19 130 20 empty empty 000-Pattern 3 12 0 12 #606060 #000000 0;
#X obj 235 331 cnv 19 20 20 empty empty >> 3 10 0 12 #606060 #000000 0;
#X obj 258 331 cnv 19 20 20 empty empty X 6 10 0 12 #551312 #ffffff 0;
#X obj 103 354 cnv 19 130 20 empty empty 000-Pattern 3 12 0 12 #606060 #000000 0;
#X obj 235 354 cnv 19 20 20 empty empty >> 3 10 0 12 #606060 #000000 0;
#X obj 258 354 cnv 19 20 20 empty empty X 6 10 0 12 #551312 #ffffff 0;
#X obj 103 450 cnv 19 175 20 empty empty Song\ Length:\ 2:00mins 3 12 0 12 #606060 #000000 0;
#X obj 103 377 cnv 19 175 20 empty empty 1of127\ Patterns 3 12 0 12 #606060 #000000 0;
#X obj 146 426 cnv 19 40 20 empty empty Now 4 12 0 12 #404040 #ffffff 0;
#X coords 0 -1 1 1 200 347 2 100 100;
#X restore 979 173 pd \$0-patternplaylist;
#X connect 0 0 11 0;
#X connect 0 0 15 0;
#X connect 0 1 2 0;
#X connect 0 2 17 0;
#X connect 1 0 4 0;
#X connect 1 1 12 0;
#X connect 3 0 1 0;
#X connect 5 0 17 0;
#X connect 6 0 7 1;
#X connect 9 0 19 0;
#X connect 10 0 8 0;
#X connect 10 1 7 0;
#X connect 16 0 14 0;
#X connect 17 0 18 0;
#X connect 17 1 10 0;
#X connect 17 2 6 0;
#X connect 19 0 0 0;
#X connect 19 1 20 0;
#X connect 20 0 14 0;
#X coords 0 -1 1 1 1280 768 2 100 100;
#X restore 10 10 pd \$0-studio-display;
#X obj 68 779 declare -path clearessentials;
#X obj 279 779 namecanvas \$0-ce_this-midistudio;
#X obj 511 779 declare -lib clearessentials;
#X connect 1 0 0 0;
#X coords 0 -1 1 1 877 645 2 10 10;
