#N canvas 703 125 939 395 12;
#X declare -lib clearessentials;
#N canvas 52 52 740 734 \$0-routemiditofrequencies 0;
#X obj 57 31 inlet;
#N canvas 78 78 674 508 \$0-routeto-ten 0;
#X obj 59 55 route 0 1 2 3 4 5 6 7 8 9 10;
#X msg 25 626 16.35;
#X obj 25 651 s \$0-tofreq-out;
#X obj 39 605 s \$0-tofreq-out;
#X msg 40 576 17.32;
#X obj 53 554 s \$0-tofreq-out;
#X obj 70 501 s \$0-tofreq-out;
#X obj 94 451 s \$0-tofreq-out;
#X msg 55 524 18.35;
#X msg 71 472 19.45;
#X msg 95 422 20.6;
#X obj 114 397 s \$0-tofreq-out;
#X obj 139 342 s \$0-tofreq-out;
#X msg 115 368 21.83;
#X msg 140 313 23.12;
#X obj 162 283 s \$0-tofreq-out;
#X obj 187 228 s \$0-tofreq-out;
#X msg 163 254 24.5;
#X msg 188 199 25.96;
#X obj 208 167 s \$0-tofreq-out;
#X obj 233 112 s \$0-tofreq-out;
#X msg 209 138 27.5;
#X msg 234 83 29.14;
#X obj 61 17 inlet;
#X obj 334 75 outlet;
#X connect 0 0 1 0;
#X connect 0 1 4 0;
#X connect 0 2 8 0;
#X connect 0 3 9 0;
#X connect 0 4 10 0;
#X connect 0 5 13 0;
#X connect 0 6 14 0;
#X connect 0 7 17 0;
#X connect 0 8 18 0;
#X connect 0 9 21 0;
#X connect 0 10 22 0;
#X connect 0 11 24 0;
#X connect 1 0 2 0;
#X connect 4 0 3 0;
#X connect 8 0 5 0;
#X connect 9 0 6 0;
#X connect 10 0 7 0;
#X connect 13 0 11 0;
#X connect 14 0 12 0;
#X connect 17 0 15 0;
#X connect 18 0 16 0;
#X connect 21 0 19 0;
#X connect 22 0 20 0;
#X connect 23 0 0 0;
#X restore 57 58 pd \$0-routeto-ten;
#N canvas 78 78 450 699 \$0-routeto-twenty 0;
#X obj 64 613 s \$0-tofreq-out;
#X obj 78 567 s \$0-tofreq-out;
#X obj 92 516 s \$0-tofreq-out;
#X obj 109 463 s \$0-tofreq-out;
#X obj 133 413 s \$0-tofreq-out;
#X obj 153 359 s \$0-tofreq-out;
#X obj 180 302 s \$0-tofreq-out;
#X obj 213 242 s \$0-tofreq-out;
#X obj 249 183 s \$0-tofreq-out;
#X obj 272 126 s \$0-tofreq-out;
#X obj 61 17 inlet;
#X obj 309 77 outlet;
#X obj 59 55 route 11 12 13 14 15 16 17 18 19 20;
#X msg 65 589 30.87;
#X msg 79 538 32.7;
#X msg 94 486 34.65;
#X msg 110 434 36.71;
#X msg 134 384 38.89;
#X msg 154 330 41.2;
#X msg 181 273 43.65;
#X msg 214 213 46.25;
#X msg 250 154 49;
#X msg 273 97 51.91;
#X connect 10 0 12 0;
#X connect 12 0 13 0;
#X connect 12 1 14 0;
#X connect 12 2 15 0;
#X connect 12 3 16 0;
#X connect 12 4 17 0;
#X connect 12 5 18 0;
#X connect 12 6 19 0;
#X connect 12 7 20 0;
#X connect 12 8 21 0;
#X connect 12 9 22 0;
#X connect 12 10 11 0;
#X connect 13 0 0 0;
#X connect 14 0 1 0;
#X connect 15 0 2 0;
#X connect 16 0 3 0;
#X connect 17 0 4 0;
#X connect 18 0 5 0;
#X connect 19 0 6 0;
#X connect 20 0 7 0;
#X connect 21 0 8 0;
#X connect 22 0 9 0;
#X restore 58 85 pd \$0-routeto-twenty;
#N canvas 78 78 450 300 \$0-routeto-thirty 0;
#X obj 70 601 s \$0-tofreq-out;
#X obj 84 555 s \$0-tofreq-out;
#X obj 98 504 s \$0-tofreq-out;
#X obj 115 451 s \$0-tofreq-out;
#X obj 139 401 s \$0-tofreq-out;
#X obj 159 347 s \$0-tofreq-out;
#X obj 184 292 s \$0-tofreq-out;
#X obj 207 233 s \$0-tofreq-out;
#X obj 232 178 s \$0-tofreq-out;
#X obj 269 128 s \$0-tofreq-out;
#X obj 61 17 inlet;
#X obj 334 75 outlet;
#X obj 59 55 route 21 22 23 24 25 26 27 28 29 30;
#X msg 70 576 55;
#X msg 85 526 58.27;
#X msg 100 474 61.74;
#X msg 116 422 65.41;
#X msg 140 372 69.3;
#X msg 160 318 73.42;
#X msg 185 263 77.78;
#X msg 208 204 82.41;
#X msg 233 149 87.31;
#X msg 270 99 92.5;
#X connect 10 0 12 0;
#X connect 12 0 13 0;
#X connect 12 1 14 0;
#X connect 12 2 15 0;
#X connect 12 3 16 0;
#X connect 12 4 17 0;
#X connect 12 5 18 0;
#X connect 12 6 19 0;
#X connect 12 7 20 0;
#X connect 12 8 21 0;
#X connect 12 9 22 0;
#X connect 12 10 11 0;
#X connect 13 0 0 0;
#X connect 14 0 1 0;
#X connect 15 0 2 0;
#X connect 16 0 3 0;
#X connect 17 0 4 0;
#X connect 18 0 5 0;
#X connect 19 0 6 0;
#X connect 20 0 7 0;
#X connect 21 0 8 0;
#X connect 22 0 9 0;
#X restore 60 115 pd \$0-routeto-thirty;
#N canvas 78 78 450 300 \$0-routeto-forty 0;
#X obj 70 601 s \$0-tofreq-out;
#X obj 84 555 s \$0-tofreq-out;
#X obj 98 504 s \$0-tofreq-out;
#X obj 115 451 s \$0-tofreq-out;
#X obj 139 401 s \$0-tofreq-out;
#X obj 159 347 s \$0-tofreq-out;
#X obj 184 292 s \$0-tofreq-out;
#X obj 207 233 s \$0-tofreq-out;
#X obj 232 178 s \$0-tofreq-out;
#X obj 269 128 s \$0-tofreq-out;
#X obj 61 17 inlet;
#X obj 334 75 outlet;
#X obj 59 55 route 31 32 33 34 35 36 37 38 39 40;
#X msg 70 576 98;
#X msg 85 526 103.83;
#X msg 100 474 110;
#X msg 116 422 116.54;
#X msg 140 372 123.47;
#X msg 160 318 130.81;
#X msg 185 263 138.59;
#X msg 208 204 146.83;
#X msg 233 149 155.56;
#X msg 270 99 164.81;
#X connect 10 0 12 0;
#X connect 12 0 13 0;
#X connect 12 1 14 0;
#X connect 12 2 15 0;
#X connect 12 3 16 0;
#X connect 12 4 17 0;
#X connect 12 5 18 0;
#X connect 12 6 19 0;
#X connect 12 7 20 0;
#X connect 12 8 21 0;
#X connect 12 9 22 0;
#X connect 12 10 11 0;
#X connect 13 0 0 0;
#X connect 14 0 1 0;
#X connect 15 0 2 0;
#X connect 16 0 3 0;
#X connect 17 0 4 0;
#X connect 18 0 5 0;
#X connect 19 0 6 0;
#X connect 20 0 7 0;
#X connect 21 0 8 0;
#X connect 22 0 9 0;
#X restore 64 143 pd \$0-routeto-forty;
#N canvas 78 78 450 300 \$0-routeto-fifthy 0;
#X obj 70 601 s \$0-tofreq-out;
#X obj 84 555 s \$0-tofreq-out;
#X obj 98 504 s \$0-tofreq-out;
#X obj 115 451 s \$0-tofreq-out;
#X obj 139 401 s \$0-tofreq-out;
#X obj 159 347 s \$0-tofreq-out;
#X obj 184 292 s \$0-tofreq-out;
#X obj 207 233 s \$0-tofreq-out;
#X obj 232 178 s \$0-tofreq-out;
#X obj 269 128 s \$0-tofreq-out;
#X obj 61 17 inlet;
#X obj 334 75 outlet;
#X obj 59 55 route 41 42 43 44 45 46 47 48 49 50;
#X msg 70 576 176.61;
#X msg 85 526 185;
#X msg 100 474 196;
#X msg 116 422 207.65;
#X msg 140 372 220;
#X msg 160 318 233.08;
#X msg 185 263 246.94;
#X msg 208 204 261.63;
#X msg 233 149 277.18;
#X msg 270 99 293.66;
#X connect 10 0 12 0;
#X connect 12 0 13 0;
#X connect 12 1 14 0;
#X connect 12 2 15 0;
#X connect 12 3 16 0;
#X connect 12 4 17 0;
#X connect 12 5 18 0;
#X connect 12 6 19 0;
#X connect 12 7 20 0;
#X connect 12 8 21 0;
#X connect 12 9 22 0;
#X connect 12 10 11 0;
#X connect 13 0 0 0;
#X connect 14 0 1 0;
#X connect 15 0 2 0;
#X connect 16 0 3 0;
#X connect 17 0 4 0;
#X connect 18 0 5 0;
#X connect 19 0 6 0;
#X connect 20 0 7 0;
#X connect 21 0 8 0;
#X connect 22 0 9 0;
#X restore 60 177 pd \$0-routeto-fifthy;
#N canvas 78 78 450 300 \$0-routeto-sixty 0;
#X obj 70 601 s \$0-tofreq-out;
#X obj 84 555 s \$0-tofreq-out;
#X obj 98 504 s \$0-tofreq-out;
#X obj 115 451 s \$0-tofreq-out;
#X obj 139 401 s \$0-tofreq-out;
#X obj 159 347 s \$0-tofreq-out;
#X obj 184 292 s \$0-tofreq-out;
#X obj 207 233 s \$0-tofreq-out;
#X obj 232 178 s \$0-tofreq-out;
#X obj 269 128 s \$0-tofreq-out;
#X obj 61 17 inlet;
#X obj 334 75 outlet;
#X obj 59 55 route 51 52 53 54 55 56 57 58 59 60;
#X msg 70 576 311.13;
#X msg 85 526 329.63;
#X msg 100 474 349.23;
#X msg 116 422 369.99;
#X msg 140 372 392;
#X msg 160 318 415.3;
#X msg 185 263 440;
#X msg 208 204 466.16;
#X msg 232 149 493.88;
#X msg 270 99 523.25;
#X connect 10 0 12 0;
#X connect 12 0 13 0;
#X connect 12 1 14 0;
#X connect 12 2 15 0;
#X connect 12 3 16 0;
#X connect 12 4 17 0;
#X connect 12 5 18 0;
#X connect 12 6 19 0;
#X connect 12 7 20 0;
#X connect 12 8 21 0;
#X connect 12 9 22 0;
#X connect 12 10 11 0;
#X connect 13 0 0 0;
#X connect 14 0 1 0;
#X connect 15 0 2 0;
#X connect 16 0 3 0;
#X connect 17 0 4 0;
#X connect 18 0 5 0;
#X connect 19 0 6 0;
#X connect 20 0 7 0;
#X connect 21 0 8 0;
#X connect 22 0 9 0;
#X restore 64 204 pd \$0-routeto-sixty;
#N canvas 78 78 450 300 \$0-routeto-seventy 0;
#X obj 70 601 s \$0-tofreq-out;
#X obj 84 555 s \$0-tofreq-out;
#X obj 98 504 s \$0-tofreq-out;
#X obj 115 451 s \$0-tofreq-out;
#X obj 139 401 s \$0-tofreq-out;
#X obj 159 347 s \$0-tofreq-out;
#X obj 184 292 s \$0-tofreq-out;
#X obj 207 233 s \$0-tofreq-out;
#X obj 232 178 s \$0-tofreq-out;
#X obj 269 128 s \$0-tofreq-out;
#X obj 61 17 inlet;
#X obj 334 75 outlet;
#X msg 70 576 311.13;
#X msg 85 526 329.63;
#X msg 100 474 349.23;
#X msg 116 422 369.99;
#X msg 140 372 392;
#X msg 160 318 415.3;
#X msg 185 263 440;
#X msg 208 204 466.16;
#X msg 232 149 493.88;
#X msg 270 99 523.25;
#X obj 59 55 route 61 62 63 64 65 66 67 68 69 70;
#X connect 10 0 22 0;
#X connect 12 0 0 0;
#X connect 13 0 1 0;
#X connect 14 0 2 0;
#X connect 15 0 3 0;
#X connect 16 0 4 0;
#X connect 17 0 5 0;
#X connect 18 0 6 0;
#X connect 19 0 7 0;
#X connect 20 0 8 0;
#X connect 21 0 9 0;
#X connect 22 0 12 0;
#X connect 22 1 13 0;
#X connect 22 2 14 0;
#X connect 22 3 15 0;
#X connect 22 4 16 0;
#X connect 22 5 17 0;
#X connect 22 6 18 0;
#X connect 22 7 19 0;
#X connect 22 8 20 0;
#X connect 22 9 21 0;
#X connect 22 10 11 0;
#X restore 68 234 pd \$0-routeto-seventy;
#N canvas 78 78 450 300 \$0-routeto-eighty 0;
#X obj 70 601 s \$0-tofreq-out;
#X obj 84 555 s \$0-tofreq-out;
#X obj 98 504 s \$0-tofreq-out;
#X obj 115 451 s \$0-tofreq-out;
#X obj 139 401 s \$0-tofreq-out;
#X obj 159 347 s \$0-tofreq-out;
#X obj 184 292 s \$0-tofreq-out;
#X obj 207 233 s \$0-tofreq-out;
#X obj 232 178 s \$0-tofreq-out;
#X obj 269 128 s \$0-tofreq-out;
#X obj 61 17 inlet;
#X obj 334 75 outlet;
#X obj 59 55 route 71 72 73 74 75 76 77 78 79 80;
#X msg 70 577 554.37;
#X msg 85 526 587.33;
#X msg 100 474 622.25;
#X msg 116 422 659.25;
#X msg 140 372 698.46;
#X msg 160 318 739.99;
#X msg 185 263 783.99;
#X msg 208 204 830.61;
#X msg 232 149 880;
#X msg 270 99 932.33;
#X connect 10 0 12 0;
#X connect 12 0 13 0;
#X connect 12 1 14 0;
#X connect 12 2 15 0;
#X connect 12 3 16 0;
#X connect 12 4 17 0;
#X connect 12 5 18 0;
#X connect 12 6 19 0;
#X connect 12 7 20 0;
#X connect 12 8 21 0;
#X connect 12 9 22 0;
#X connect 12 10 11 0;
#X connect 13 0 0 0;
#X connect 14 0 1 0;
#X connect 15 0 2 0;
#X connect 16 0 3 0;
#X connect 17 0 4 0;
#X connect 18 0 5 0;
#X connect 19 0 6 0;
#X connect 20 0 7 0;
#X connect 21 0 8 0;
#X connect 22 0 9 0;
#X restore 67 262 pd \$0-routeto-eighty;
#N canvas 78 78 450 300 \$0-routeto-ninety 0;
#X obj 70 601 s \$0-tofreq-out;
#X obj 84 555 s \$0-tofreq-out;
#X obj 98 504 s \$0-tofreq-out;
#X obj 115 451 s \$0-tofreq-out;
#X obj 139 401 s \$0-tofreq-out;
#X obj 159 347 s \$0-tofreq-out;
#X obj 184 292 s \$0-tofreq-out;
#X obj 207 233 s \$0-tofreq-out;
#X obj 232 178 s \$0-tofreq-out;
#X obj 269 128 s \$0-tofreq-out;
#X obj 61 17 inlet;
#X obj 334 75 outlet;
#X obj 59 55 route 81 82 83 84 85 86 87 88 89 90;
#X msg 70 576 987.77;
#X msg 85 526 1046.5;
#X msg 100 474 1108.73;
#X msg 116 422 1174.66;
#X msg 140 372 1244.51;
#X msg 160 318 1318.51;
#X msg 185 263 1396.91;
#X msg 208 204 1479.98;
#X msg 232 149 1567.98;
#X msg 270 99 1661.21;
#X connect 10 0 12 0;
#X connect 12 0 13 0;
#X connect 12 1 14 0;
#X connect 12 2 15 0;
#X connect 12 3 16 0;
#X connect 12 4 17 0;
#X connect 12 5 18 0;
#X connect 12 6 19 0;
#X connect 12 7 20 0;
#X connect 12 8 21 0;
#X connect 12 9 22 0;
#X connect 12 10 11 0;
#X connect 13 0 0 0;
#X connect 14 0 1 0;
#X connect 15 0 2 0;
#X connect 16 0 3 0;
#X connect 17 0 4 0;
#X connect 18 0 5 0;
#X connect 19 0 6 0;
#X connect 20 0 7 0;
#X connect 21 0 8 0;
#X connect 22 0 9 0;
#X restore 66 292 pd \$0-routeto-ninety;
#N canvas 78 78 450 300 \$0-routeto-hundred 0;
#X obj 70 601 s \$0-tofreq-out;
#X obj 84 555 s \$0-tofreq-out;
#X obj 98 504 s \$0-tofreq-out;
#X obj 115 451 s \$0-tofreq-out;
#X obj 139 401 s \$0-tofreq-out;
#X obj 159 347 s \$0-tofreq-out;
#X obj 184 292 s \$0-tofreq-out;
#X obj 207 233 s \$0-tofreq-out;
#X obj 232 178 s \$0-tofreq-out;
#X obj 269 128 s \$0-tofreq-out;
#X obj 61 17 inlet;
#X obj 334 75 outlet;
#X obj 59 55 route 91 92 93 94 95 96 97 98 99 100;
#X msg 70 576 1760;
#X msg 85 526 1864.66;
#X msg 116 422 2093;
#X msg 100 474 1975.53;
#X msg 140 372 2217.46;
#X msg 160 318 2349.32;
#X msg 185 263 2489.02;
#X msg 208 204 2637.02;
#X msg 232 149 2793.83;
#X msg 270 99 2959.96;
#X connect 10 0 12 0;
#X connect 12 0 13 0;
#X connect 12 1 14 0;
#X connect 12 2 16 0;
#X connect 12 3 15 0;
#X connect 12 4 17 0;
#X connect 12 5 18 0;
#X connect 12 6 19 0;
#X connect 12 7 20 0;
#X connect 12 8 21 0;
#X connect 12 9 22 0;
#X connect 12 10 11 0;
#X connect 13 0 0 0;
#X connect 14 0 1 0;
#X connect 15 0 3 0;
#X connect 16 0 2 0;
#X connect 17 0 4 0;
#X connect 18 0 5 0;
#X connect 19 0 6 0;
#X connect 20 0 7 0;
#X connect 21 0 8 0;
#X connect 22 0 9 0;
#X restore 66 317 pd \$0-routeto-hundred;
#N canvas 78 78 450 300 \$0-routeto-hundredten 0;
#X obj 70 601 s \$0-tofreq-out;
#X obj 84 555 s \$0-tofreq-out;
#X obj 98 504 s \$0-tofreq-out;
#X obj 115 451 s \$0-tofreq-out;
#X obj 139 401 s \$0-tofreq-out;
#X obj 159 347 s \$0-tofreq-out;
#X obj 184 292 s \$0-tofreq-out;
#X obj 207 233 s \$0-tofreq-out;
#X obj 232 178 s \$0-tofreq-out;
#X obj 269 128 s \$0-tofreq-out;
#X obj 61 17 inlet;
#X obj 363 80 outlet;
#X msg 70 576 3135.96;
#X msg 85 526 3322.44;
#X msg 100 474 3520;
#X msg 116 422 3729.31;
#X msg 140 372 3951.07;
#X msg 185 263 4436.92;
#X msg 208 204 4698.63;
#X msg 232 149 4978.03;
#X msg 289 103 5274.04;
#X msg 160 318 4186.01;
#X obj 59 55 route 101 102 103 104 105 106 107 108 109 110;
#X connect 10 0 22 0;
#X connect 12 0 0 0;
#X connect 13 0 1 0;
#X connect 14 0 2 0;
#X connect 15 0 3 0;
#X connect 16 0 4 0;
#X connect 17 0 6 0;
#X connect 18 0 7 0;
#X connect 19 0 8 0;
#X connect 20 0 9 0;
#X connect 21 0 5 0;
#X connect 22 0 12 0;
#X connect 22 1 13 0;
#X connect 22 2 14 0;
#X connect 22 3 15 0;
#X connect 22 4 16 0;
#X connect 22 5 21 0;
#X connect 22 6 17 0;
#X connect 22 7 18 0;
#X connect 22 8 19 0;
#X connect 22 9 20 0;
#X connect 22 10 11 0;
#X restore 64 342 pd \$0-routeto-hundredten;
#N canvas 78 78 566 641 \$0-routeto-hundredtwenty 0;
#X obj 89 440 s \$0-tofreq-out;
#X obj 103 394 s \$0-tofreq-out;
#X obj 117 343 s \$0-tofreq-out;
#X obj 134 290 s \$0-tofreq-out;
#X obj 158 240 s \$0-tofreq-out;
#X obj 178 186 s \$0-tofreq-out;
#X obj 219 129 s \$0-tofreq-out;
#X obj 61 17 inlet;
#X msg 89 415 5587.65;
#X msg 103 365 5919.91;
#X msg 119 313 6271.93;
#X msg 135 261 6644.88;
#X msg 159 211 7040;
#X msg 179 157 7458.62;
#X msg 220 100 7902.13;
#X obj 61 53 route 111 112 113 114 115 116 117;
#X obj 343 142 list trim;
#X obj 343 167 print Warning;
#X msg 341 118 list Unknown frequency value. \$1;
#X connect 7 0 15 0;
#X connect 8 0 0 0;
#X connect 9 0 1 0;
#X connect 10 0 2 0;
#X connect 11 0 3 0;
#X connect 12 0 4 0;
#X connect 13 0 5 0;
#X connect 14 0 6 0;
#X connect 15 0 8 0;
#X connect 15 1 9 0;
#X connect 15 2 10 0;
#X connect 15 3 11 0;
#X connect 15 4 12 0;
#X connect 15 5 13 0;
#X connect 15 6 14 0;
#X connect 15 7 18 0;
#X connect 16 0 17 0;
#X connect 18 0 16 0;
#X restore 67 372 pd \$0-routeto-hundredtwenty;
#X connect 0 0 1 0;
#X connect 1 0 2 0;
#X connect 2 0 3 0;
#X connect 3 0 4 0;
#X connect 4 0 5 0;
#X connect 5 0 6 0;
#X connect 6 0 7 0;
#X connect 7 0 8 0;
#X connect 8 0 9 0;
#X connect 9 0 10 0;
#X connect 10 0 11 0;
#X connect 11 0 12 0;
#X restore 646 174 pd \$0-routemiditofrequencies;
#X floatatom 646 151 5 0 117 0 - - - 0;
#X obj 646 77 - 21;
#X obj 646 125 + 19;
#X obj 309 71 s \$0-detect-threshold;
#X obj 312 52 hsl 128 15 0.1 1.5 0 0 empty empty empty -2 -8 0 10 #fcfcfc
#000000 #000000 0 1;
#X obj 643 30 inlet midinote;
#X obj 503 28 inlet freq;
#X obj 646 100 t f f;
#N canvas 604 114 784 548 \$0-routelabel 0;
#X obj 251 62 inlet;
#X msg 76 406 A;
#X msg 130 406 A#/Bb;
#X msg 180 406 B;
#X msg 239 393 C;
#X msg 280 392 C#/Db;
#X msg 347 396 D;
#X msg 388 395 D#/Eb;
#X msg 450 396 E;
#X msg 509 398 F;
#X msg 568 403 F#Gb;
#X msg 620 395 G;
#X msg 673 395 G#/Ab;
#X obj 278 313 route 0 1 2 3 4 5 6 7 8 9 10 11;
#X obj 388 467 s \$0-notesymbol;
#X floatatom 277 257 4 0 0 0 - - - 0;
#X floatatom 313 252 4 0 0 0 - - - 0;
#X floatatom 306 166 4 0 0 0 - - - 0;
#X obj 313 224 div;
#X obj 276 228 mod;
#X floatatom 257 95 4 0 88 0 - - - 0;
#X obj 313 284 s \$0-thisoct;
#X obj 256 118 t f f b;
#X msg 305 143 12;
#X obj 67 360 t b b;
#X obj 115 360 t b b;
#X obj 168 361 t b b;
#X obj 213 361 t b b;
#X obj 263 360 t b b;
#X obj 316 360 t b b;
#X obj 362 360 t b b;
#X obj 419 361 t b b;
#X obj 484 363 t b b;
#X obj 540 367 t b b;
#X obj 599 368 t b b;
#X obj 650 367 t b b;
#X obj 300 188 t b f b f;
#X obj 234 469 s \$0-buildfreqstring;
#X connect 0 0 20 0;
#X connect 1 0 14 0;
#X connect 2 0 14 0;
#X connect 3 0 14 0;
#X connect 4 0 14 0;
#X connect 5 0 14 0;
#X connect 6 0 14 0;
#X connect 7 0 14 0;
#X connect 8 0 14 0;
#X connect 9 0 14 0;
#X connect 10 0 14 0;
#X connect 11 0 14 0;
#X connect 12 0 14 0;
#X connect 13 0 24 0;
#X connect 13 1 25 0;
#X connect 13 2 26 0;
#X connect 13 3 27 0;
#X connect 13 4 28 0;
#X connect 13 5 29 0;
#X connect 13 6 30 0;
#X connect 13 7 31 0;
#X connect 13 8 32 0;
#X connect 13 9 33 0;
#X connect 13 10 34 0;
#X connect 13 11 35 0;
#X connect 15 0 13 0;
#X connect 16 0 21 0;
#X connect 17 0 36 0;
#X connect 18 0 16 0;
#X connect 19 0 15 0;
#X connect 20 0 22 0;
#X connect 22 0 19 0;
#X connect 22 1 18 0;
#X connect 22 2 23 0;
#X connect 23 0 17 0;
#X connect 24 0 37 0;
#X connect 24 1 1 0;
#X connect 25 0 37 0;
#X connect 25 1 2 0;
#X connect 26 0 37 0;
#X connect 26 1 3 0;
#X connect 27 0 37 0;
#X connect 27 1 4 0;
#X connect 28 0 37 0;
#X connect 28 1 5 0;
#X connect 29 0 37 0;
#X connect 29 1 6 0;
#X connect 30 0 37 0;
#X connect 30 1 7 0;
#X connect 31 0 37 0;
#X connect 31 1 8 0;
#X connect 32 0 37 0;
#X connect 32 1 9 0;
#X connect 33 0 37 0;
#X connect 33 1 10 0;
#X connect 34 0 37 0;
#X connect 34 1 11 0;
#X connect 35 0 37 0;
#X connect 35 1 12 0;
#X connect 36 1 19 1;
#X connect 36 2 18 0;
#X connect 36 3 18 1;
#X restore 679 201 pd \$0-routelabel;
#N canvas 539 73 819 797 \$0-infreqtolabel 0;
#X obj 578 37 inlet;
#N canvas 156 156 450 300 \$0-infreqrange 0;
#X floatatom 39 146 5 0 0 0 - - - 0;
#X floatatom 280 138 5 0 0 0 - - - 0;
#X floatatom 39 67 5 0 0 0 - - - 0;
#X obj 280 163 sel 0;
#X obj 39 94 expr $f1 \; if ($f1 <=$f3 && $f1 >=$f2 \, $f1 \, 0);
#X obj 39 25 inlet;
#X obj 142 25 inlet lower bound;
#X obj 246 55 inlet upper bound;
#X obj 316 212 outlet;
#X obj 313 188 t b;
#X connect 1 0 3 0;
#X connect 2 0 4 0;
#X connect 3 1 9 0;
#X connect 4 0 0 0;
#X connect 4 1 1 0;
#X connect 5 0 2 0;
#X connect 6 0 4 1;
#X connect 7 0 4 2;
#X connect 9 0 8 0;
#X restore 277 375 pd \$0-infreqrange;
#X floatatom 339 320 5 0 0 0 - - - 0;
#X floatatom 397 319 5 0 0 0 - - - 0;
#X floatatom 577 64 5 0 7903 0 incomming\ frequency - - 0;
#X obj 297 435 f;
#X floatatom 297 458 5 0 0 0 found\ tuning\ note - - 0;
#X obj 339 296 - 0.5;
#X obj 397 295 + 0.5;
#X obj 389 264 r \$0-detect-threshold;
#N canvas 52 52 740 734 \$0-routeinfrequencies 0;
#X obj 57 31 inlet;
#N canvas 78 78 469 561 \$0-routeto-ten 0;
#X obj 59 55 route 0 1 2 3 4 5 6 7 8 9 10;
#X msg 25 626 16.35;
#X obj 25 651 s \$0-toinfreq;
#X obj 39 605 s \$0-toinfreq;
#X msg 40 576 17.32;
#X obj 53 554 s \$0-toinfreq;
#X obj 70 501 s \$0-toinfreq;
#X obj 94 451 s \$0-toinfreq;
#X msg 55 524 18.35;
#X msg 71 472 19.45;
#X msg 95 422 20.6;
#X obj 114 397 s \$0-toinfreq;
#X obj 139 342 s \$0-toinfreq;
#X msg 115 368 21.83;
#X msg 140 313 23.12;
#X obj 162 283 s \$0-toinfreq;
#X obj 187 228 s \$0-toinfreq;
#X msg 163 254 24.5;
#X msg 188 199 25.96;
#X obj 208 167 s \$0-toinfreq;
#X obj 233 112 s \$0-toinfreq;
#X msg 209 138 27.5;
#X msg 234 83 29.14;
#X obj 61 17 inlet;
#X obj 334 75 outlet;
#X connect 0 0 1 0;
#X connect 0 1 4 0;
#X connect 0 2 8 0;
#X connect 0 3 9 0;
#X connect 0 4 10 0;
#X connect 0 5 13 0;
#X connect 0 6 14 0;
#X connect 0 7 17 0;
#X connect 0 8 18 0;
#X connect 0 9 21 0;
#X connect 0 10 22 0;
#X connect 0 11 24 0;
#X connect 1 0 2 0;
#X connect 4 0 3 0;
#X connect 8 0 5 0;
#X connect 9 0 6 0;
#X connect 10 0 7 0;
#X connect 13 0 11 0;
#X connect 14 0 12 0;
#X connect 17 0 15 0;
#X connect 18 0 16 0;
#X connect 21 0 19 0;
#X connect 22 0 20 0;
#X connect 23 0 0 0;
#X restore 55 58 pd \$0-routeto-ten;
#N canvas 78 78 450 699 \$0-routeto-twenty 0;
#X obj 64 613 s \$0-toinfreq;
#X obj 78 567 s \$0-toinfreq;
#X obj 92 516 s \$0-toinfreq;
#X obj 109 463 s \$0-toinfreq;
#X obj 133 413 s \$0-toinfreq;
#X obj 153 359 s \$0-toinfreq;
#X obj 180 302 s \$0-toinfreq;
#X obj 213 242 s \$0-toinfreq;
#X obj 249 183 s \$0-toinfreq;
#X obj 272 126 s \$0-toinfreq;
#X obj 61 17 inlet;
#X obj 309 77 outlet;
#X obj 59 55 route 11 12 13 14 15 16 17 18 19 20;
#X msg 65 589 30.87;
#X msg 79 538 32.7;
#X msg 94 486 34.65;
#X msg 110 434 36.71;
#X msg 134 384 38.89;
#X msg 154 330 41.2;
#X msg 181 273 43.65;
#X msg 214 213 46.25;
#X msg 250 154 49;
#X msg 273 97 51.91;
#X connect 10 0 12 0;
#X connect 12 0 13 0;
#X connect 12 1 14 0;
#X connect 12 2 15 0;
#X connect 12 3 16 0;
#X connect 12 4 17 0;
#X connect 12 5 18 0;
#X connect 12 6 19 0;
#X connect 12 7 20 0;
#X connect 12 8 21 0;
#X connect 12 9 22 0;
#X connect 12 10 11 0;
#X connect 13 0 0 0;
#X connect 14 0 1 0;
#X connect 15 0 2 0;
#X connect 16 0 3 0;
#X connect 17 0 4 0;
#X connect 18 0 5 0;
#X connect 19 0 6 0;
#X connect 20 0 7 0;
#X connect 21 0 8 0;
#X connect 22 0 9 0;
#X restore 58 85 pd \$0-routeto-twenty;
#N canvas 78 78 450 300 \$0-routeto-thirty 0;
#X obj 70 601 s \$0-toinfreq;
#X obj 84 555 s \$0-toinfreq;
#X obj 98 504 s \$0-toinfreq;
#X obj 115 451 s \$0-toinfreq;
#X obj 139 401 s \$0-toinfreq;
#X obj 159 347 s \$0-toinfreq;
#X obj 184 292 s \$0-toinfreq;
#X obj 207 233 s \$0-toinfreq;
#X obj 232 178 s \$0-toinfreq;
#X obj 269 128 s \$0-toinfreq;
#X obj 61 17 inlet;
#X obj 334 75 outlet;
#X obj 59 55 route 21 22 23 24 25 26 27 28 29 30;
#X msg 70 576 55;
#X msg 85 526 58.27;
#X msg 100 474 61.74;
#X msg 116 422 65.41;
#X msg 140 372 69.3;
#X msg 160 318 73.42;
#X msg 185 263 77.78;
#X msg 208 204 82.41;
#X msg 233 149 87.31;
#X msg 270 99 92.5;
#X connect 10 0 12 0;
#X connect 12 0 13 0;
#X connect 12 1 14 0;
#X connect 12 2 15 0;
#X connect 12 3 16 0;
#X connect 12 4 17 0;
#X connect 12 5 18 0;
#X connect 12 6 19 0;
#X connect 12 7 20 0;
#X connect 12 8 21 0;
#X connect 12 9 22 0;
#X connect 12 10 11 0;
#X connect 13 0 0 0;
#X connect 14 0 1 0;
#X connect 15 0 2 0;
#X connect 16 0 3 0;
#X connect 17 0 4 0;
#X connect 18 0 5 0;
#X connect 19 0 6 0;
#X connect 20 0 7 0;
#X connect 21 0 8 0;
#X connect 22 0 9 0;
#X restore 60 115 pd \$0-routeto-thirty;
#N canvas 78 78 450 300 \$0-routeto-forty 0;
#X obj 70 601 s \$0-toinfreq;
#X obj 84 555 s \$0-toinfreq;
#X obj 98 504 s \$0-toinfreq;
#X obj 115 451 s \$0-toinfreq;
#X obj 139 401 s \$0-toinfreq;
#X obj 159 347 s \$0-toinfreq;
#X obj 184 292 s \$0-toinfreq;
#X obj 207 233 s \$0-toinfreq;
#X obj 232 178 s \$0-toinfreq;
#X obj 269 128 s \$0-toinfreq;
#X obj 61 17 inlet;
#X obj 334 75 outlet;
#X obj 59 55 route 31 32 33 34 35 36 37 38 39 40;
#X msg 70 576 98;
#X msg 85 526 103.83;
#X msg 100 474 110;
#X msg 116 422 116.54;
#X msg 140 372 123.47;
#X msg 160 318 130.81;
#X msg 185 263 138.59;
#X msg 208 204 146.83;
#X msg 233 149 155.56;
#X msg 270 99 164.81;
#X connect 10 0 12 0;
#X connect 12 0 13 0;
#X connect 12 1 14 0;
#X connect 12 2 15 0;
#X connect 12 3 16 0;
#X connect 12 4 17 0;
#X connect 12 5 18 0;
#X connect 12 6 19 0;
#X connect 12 7 20 0;
#X connect 12 8 21 0;
#X connect 12 9 22 0;
#X connect 12 10 11 0;
#X connect 13 0 0 0;
#X connect 14 0 1 0;
#X connect 15 0 2 0;
#X connect 16 0 3 0;
#X connect 17 0 4 0;
#X connect 18 0 5 0;
#X connect 19 0 6 0;
#X connect 20 0 7 0;
#X connect 21 0 8 0;
#X connect 22 0 9 0;
#X restore 64 143 pd \$0-routeto-forty;
#N canvas 78 78 450 300 \$0-routeto-fifthy 0;
#X obj 70 601 s \$0-toinfreq;
#X obj 84 555 s \$0-toinfreq;
#X obj 98 504 s \$0-toinfreq;
#X obj 115 451 s \$0-toinfreq;
#X obj 139 401 s \$0-toinfreq;
#X obj 159 347 s \$0-toinfreq;
#X obj 184 292 s \$0-toinfreq;
#X obj 207 233 s \$0-toinfreq;
#X obj 232 178 s \$0-toinfreq;
#X obj 269 128 s \$0-toinfreq;
#X obj 61 17 inlet;
#X obj 334 75 outlet;
#X obj 59 55 route 41 42 43 44 45 46 47 48 49 50;
#X msg 70 576 176.61;
#X msg 85 526 185;
#X msg 100 474 196;
#X msg 116 422 207.65;
#X msg 140 372 220;
#X msg 160 318 233.08;
#X msg 185 263 246.94;
#X msg 208 204 261.63;
#X msg 233 149 277.18;
#X msg 270 99 293.66;
#X connect 10 0 12 0;
#X connect 12 0 13 0;
#X connect 12 1 14 0;
#X connect 12 2 15 0;
#X connect 12 3 16 0;
#X connect 12 4 17 0;
#X connect 12 5 18 0;
#X connect 12 6 19 0;
#X connect 12 7 20 0;
#X connect 12 8 21 0;
#X connect 12 9 22 0;
#X connect 12 10 11 0;
#X connect 13 0 0 0;
#X connect 14 0 1 0;
#X connect 15 0 2 0;
#X connect 16 0 3 0;
#X connect 17 0 4 0;
#X connect 18 0 5 0;
#X connect 19 0 6 0;
#X connect 20 0 7 0;
#X connect 21 0 8 0;
#X connect 22 0 9 0;
#X restore 60 177 pd \$0-routeto-fifthy;
#N canvas 78 78 450 300 \$0-routeto-sixty 0;
#X obj 70 601 s \$0-toinfreq;
#X obj 84 555 s \$0-toinfreq;
#X obj 98 504 s \$0-toinfreq;
#X obj 115 451 s \$0-toinfreq;
#X obj 139 401 s \$0-toinfreq;
#X obj 159 347 s \$0-toinfreq;
#X obj 184 292 s \$0-toinfreq;
#X obj 207 233 s \$0-toinfreq;
#X obj 232 178 s \$0-toinfreq;
#X obj 269 128 s \$0-toinfreq;
#X obj 61 17 inlet;
#X obj 334 75 outlet;
#X obj 59 55 route 51 52 53 54 55 56 57 58 59 60;
#X msg 70 576 311.13;
#X msg 85 526 329.63;
#X msg 100 474 349.23;
#X msg 116 422 369.99;
#X msg 140 372 392;
#X msg 160 318 415.3;
#X msg 185 263 440;
#X msg 208 204 466.16;
#X msg 232 149 493.88;
#X msg 270 99 523.25;
#X connect 10 0 12 0;
#X connect 12 0 13 0;
#X connect 12 1 14 0;
#X connect 12 2 15 0;
#X connect 12 3 16 0;
#X connect 12 4 17 0;
#X connect 12 5 18 0;
#X connect 12 6 19 0;
#X connect 12 7 20 0;
#X connect 12 8 21 0;
#X connect 12 9 22 0;
#X connect 12 10 11 0;
#X connect 13 0 0 0;
#X connect 14 0 1 0;
#X connect 15 0 2 0;
#X connect 16 0 3 0;
#X connect 17 0 4 0;
#X connect 18 0 5 0;
#X connect 19 0 6 0;
#X connect 20 0 7 0;
#X connect 21 0 8 0;
#X connect 22 0 9 0;
#X restore 64 204 pd \$0-routeto-sixty;
#N canvas 78 78 450 300 \$0-routeto-seventy 0;
#X obj 70 601 s \$0-toinfreq;
#X obj 84 555 s \$0-toinfreq;
#X obj 98 504 s \$0-toinfreq;
#X obj 115 451 s \$0-toinfreq;
#X obj 139 401 s \$0-toinfreq;
#X obj 159 347 s \$0-toinfreq;
#X obj 184 292 s \$0-toinfreq;
#X obj 207 233 s \$0-toinfreq;
#X obj 232 178 s \$0-toinfreq;
#X obj 269 128 s \$0-toinfreq;
#X obj 61 17 inlet;
#X obj 334 75 outlet;
#X msg 70 576 311.13;
#X msg 85 526 329.63;
#X msg 100 474 349.23;
#X msg 116 422 369.99;
#X msg 140 372 392;
#X msg 160 318 415.3;
#X msg 185 263 440;
#X msg 208 204 466.16;
#X msg 232 149 493.88;
#X msg 270 99 523.25;
#X obj 59 55 route 61 62 63 64 65 66 67 68 69 70;
#X connect 10 0 22 0;
#X connect 12 0 0 0;
#X connect 13 0 1 0;
#X connect 14 0 2 0;
#X connect 15 0 3 0;
#X connect 16 0 4 0;
#X connect 17 0 5 0;
#X connect 18 0 6 0;
#X connect 19 0 7 0;
#X connect 20 0 8 0;
#X connect 21 0 9 0;
#X connect 22 0 12 0;
#X connect 22 1 13 0;
#X connect 22 2 14 0;
#X connect 22 3 15 0;
#X connect 22 4 16 0;
#X connect 22 5 17 0;
#X connect 22 6 18 0;
#X connect 22 7 19 0;
#X connect 22 8 20 0;
#X connect 22 9 21 0;
#X connect 22 10 11 0;
#X restore 68 234 pd \$0-routeto-seventy;
#N canvas 78 78 450 300 \$0-routeto-eighty 0;
#X obj 70 601 s \$0-toinfreq;
#X obj 84 555 s \$0-toinfreq;
#X obj 98 504 s \$0-toinfreq;
#X obj 115 451 s \$0-toinfreq;
#X obj 139 401 s \$0-toinfreq;
#X obj 159 347 s \$0-toinfreq;
#X obj 184 292 s \$0-toinfreq;
#X obj 207 233 s \$0-toinfreq;
#X obj 232 178 s \$0-toinfreq;
#X obj 269 128 s \$0-toinfreq;
#X obj 61 17 inlet;
#X obj 334 75 outlet;
#X obj 59 55 route 71 72 73 74 75 76 77 78 79 80;
#X msg 70 577 554.37;
#X msg 85 526 587.33;
#X msg 100 474 622.25;
#X msg 116 422 659.25;
#X msg 140 372 698.46;
#X msg 160 318 739.99;
#X msg 185 263 783.99;
#X msg 208 204 830.61;
#X msg 232 149 880;
#X msg 270 99 932.33;
#X connect 10 0 12 0;
#X connect 12 0 13 0;
#X connect 12 1 14 0;
#X connect 12 2 15 0;
#X connect 12 3 16 0;
#X connect 12 4 17 0;
#X connect 12 5 18 0;
#X connect 12 6 19 0;
#X connect 12 7 20 0;
#X connect 12 8 21 0;
#X connect 12 9 22 0;
#X connect 12 10 11 0;
#X connect 13 0 0 0;
#X connect 14 0 1 0;
#X connect 15 0 2 0;
#X connect 16 0 3 0;
#X connect 17 0 4 0;
#X connect 18 0 5 0;
#X connect 19 0 6 0;
#X connect 20 0 7 0;
#X connect 21 0 8 0;
#X connect 22 0 9 0;
#X restore 67 262 pd \$0-routeto-eighty;
#N canvas 78 78 450 300 \$0-routeto-ninety 0;
#X obj 70 601 s \$0-toinfreq;
#X obj 84 555 s \$0-toinfreq;
#X obj 98 504 s \$0-toinfreq;
#X obj 115 451 s \$0-toinfreq;
#X obj 139 401 s \$0-toinfreq;
#X obj 159 347 s \$0-toinfreq;
#X obj 184 292 s \$0-toinfreq;
#X obj 207 233 s \$0-toinfreq;
#X obj 232 178 s \$0-toinfreq;
#X obj 269 128 s \$0-toinfreq;
#X obj 61 17 inlet;
#X obj 334 75 outlet;
#X obj 59 55 route 81 82 83 84 85 86 87 88 89 90;
#X msg 70 576 987.77;
#X msg 85 526 1046.5;
#X msg 100 474 1108.73;
#X msg 116 422 1174.66;
#X msg 140 372 1244.51;
#X msg 160 318 1318.51;
#X msg 185 263 1396.91;
#X msg 208 204 1479.98;
#X msg 232 149 1567.98;
#X msg 270 99 1661.21;
#X connect 10 0 12 0;
#X connect 12 0 13 0;
#X connect 12 1 14 0;
#X connect 12 2 15 0;
#X connect 12 3 16 0;
#X connect 12 4 17 0;
#X connect 12 5 18 0;
#X connect 12 6 19 0;
#X connect 12 7 20 0;
#X connect 12 8 21 0;
#X connect 12 9 22 0;
#X connect 12 10 11 0;
#X connect 13 0 0 0;
#X connect 14 0 1 0;
#X connect 15 0 2 0;
#X connect 16 0 3 0;
#X connect 17 0 4 0;
#X connect 18 0 5 0;
#X connect 19 0 6 0;
#X connect 20 0 7 0;
#X connect 21 0 8 0;
#X connect 22 0 9 0;
#X restore 66 292 pd \$0-routeto-ninety;
#N canvas 78 78 450 300 \$0-routeto-hundred 0;
#X obj 70 601 s \$0-toinfreq;
#X obj 84 555 s \$0-toinfreq;
#X obj 98 504 s \$0-toinfreq;
#X obj 115 451 s \$0-toinfreq;
#X obj 139 401 s \$0-toinfreq;
#X obj 159 347 s \$0-toinfreq;
#X obj 184 292 s \$0-toinfreq;
#X obj 207 233 s \$0-toinfreq;
#X obj 232 178 s \$0-toinfreq;
#X obj 269 128 s \$0-toinfreq;
#X obj 61 17 inlet;
#X obj 334 75 outlet;
#X obj 59 55 route 91 92 93 94 95 96 97 98 99 100;
#X msg 70 576 1760;
#X msg 85 526 1864.66;
#X msg 116 422 2093;
#X msg 100 474 1975.53;
#X msg 140 372 2217.46;
#X msg 160 318 2349.32;
#X msg 185 263 2489.02;
#X msg 208 204 2637.02;
#X msg 232 149 2793.83;
#X msg 270 99 2959.96;
#X connect 10 0 12 0;
#X connect 12 0 13 0;
#X connect 12 1 14 0;
#X connect 12 2 16 0;
#X connect 12 3 15 0;
#X connect 12 4 17 0;
#X connect 12 5 18 0;
#X connect 12 6 19 0;
#X connect 12 7 20 0;
#X connect 12 8 21 0;
#X connect 12 9 22 0;
#X connect 12 10 11 0;
#X connect 13 0 0 0;
#X connect 14 0 1 0;
#X connect 15 0 3 0;
#X connect 16 0 2 0;
#X connect 17 0 4 0;
#X connect 18 0 5 0;
#X connect 19 0 6 0;
#X connect 20 0 7 0;
#X connect 21 0 8 0;
#X connect 22 0 9 0;
#X restore 66 317 pd \$0-routeto-hundred;
#N canvas 78 78 450 300 \$0-routeto-hundredten 0;
#X obj 70 601 s \$0-toinfreq;
#X obj 84 555 s \$0-toinfreq;
#X obj 98 504 s \$0-toinfreq;
#X obj 115 451 s \$0-toinfreq;
#X obj 139 401 s \$0-toinfreq;
#X obj 159 347 s \$0-toinfreq;
#X obj 184 292 s \$0-toinfreq;
#X obj 207 233 s \$0-toinfreq;
#X obj 232 178 s \$0-toinfreq;
#X obj 269 128 s \$0-toinfreq;
#X obj 61 17 inlet;
#X obj 363 80 outlet;
#X msg 70 576 3135.96;
#X msg 85 526 3322.44;
#X msg 100 474 3520;
#X msg 116 422 3729.31;
#X msg 140 372 3951.07;
#X msg 185 263 4436.92;
#X msg 208 204 4698.63;
#X msg 232 149 4978.03;
#X msg 289 103 5274.04;
#X msg 160 318 4186.01;
#X obj 59 55 route 101 102 103 104 105 106 107 108 109 110;
#X connect 10 0 22 0;
#X connect 12 0 0 0;
#X connect 13 0 1 0;
#X connect 14 0 2 0;
#X connect 15 0 3 0;
#X connect 16 0 4 0;
#X connect 17 0 6 0;
#X connect 18 0 7 0;
#X connect 19 0 8 0;
#X connect 20 0 9 0;
#X connect 21 0 5 0;
#X connect 22 0 12 0;
#X connect 22 1 13 0;
#X connect 22 2 14 0;
#X connect 22 3 15 0;
#X connect 22 4 16 0;
#X connect 22 5 21 0;
#X connect 22 6 17 0;
#X connect 22 7 18 0;
#X connect 22 8 19 0;
#X connect 22 9 20 0;
#X connect 22 10 11 0;
#X restore 64 342 pd \$0-routeto-hundredten;
#N canvas 78 78 566 641 \$0-routeto-hundredtwenty 0;
#X obj 89 440 s \$0-toinfreq;
#X obj 103 394 s \$0-toinfreq;
#X obj 117 343 s \$0-toinfreq;
#X obj 134 290 s \$0-toinfreq;
#X obj 158 240 s \$0-toinfreq;
#X obj 178 186 s \$0-toinfreq;
#X obj 219 129 s \$0-toinfreq;
#X obj 61 17 inlet;
#X msg 89 415 5587.65;
#X msg 103 365 5919.91;
#X msg 119 313 6271.93;
#X msg 135 261 6644.88;
#X msg 159 211 7040;
#X msg 179 157 7458.62;
#X msg 220 100 7902.13;
#X obj 61 53 route 111 112 113 114 115 116 117;
#X obj 343 142 list trim;
#X obj 343 167 print Warning;
#X msg 341 118 list Unknown frequency value. \$1;
#X connect 7 0 15 0;
#X connect 8 0 0 0;
#X connect 9 0 1 0;
#X connect 10 0 2 0;
#X connect 11 0 3 0;
#X connect 12 0 4 0;
#X connect 13 0 5 0;
#X connect 14 0 6 0;
#X connect 15 0 8 0;
#X connect 15 1 9 0;
#X connect 15 2 10 0;
#X connect 15 3 11 0;
#X connect 15 4 12 0;
#X connect 15 5 13 0;
#X connect 15 6 14 0;
#X connect 15 7 18 0;
#X connect 16 0 17 0;
#X connect 18 0 16 0;
#X restore 67 372 pd \$0-routeto-hundredtwenty;
#X connect 0 0 1 0;
#X connect 1 0 2 0;
#X connect 2 0 3 0;
#X connect 3 0 4 0;
#X connect 4 0 5 0;
#X connect 5 0 6 0;
#X connect 6 0 7 0;
#X connect 7 0 8 0;
#X connect 8 0 9 0;
#X connect 9 0 10 0;
#X connect 10 0 11 0;
#X connect 11 0 12 0;
#X restore 481 375 pd \$0-routeinfrequencies;
#X obj 277 201 r \$0-toinfreq;
#X floatatom 277 223 5 0 0 0 - - - 0;
#X obj 277 246 t f f;
#X obj 277 271 t b f f f;
#X obj 259 333 f;
#X msg 483 110 0;
#X obj 577 92 t f b f b b;
#N canvas 614 319 450 420 \$0-countoff 0;
#N canvas 319 200 403 300 \$0-loaddefaultsettings 0;
#X obj 85 60 loadbang;
#X msg 88 102 set_size 15;
#X obj 88 196 outlet;
#X msg 150 207 use_timeout 0;
#X msg 149 237 set_timeout 10000;
#X msg 142 170 set_continuous 1;
#X msg 112 136 set_wait 0.2;
#X connect 0 0 1 0;
#X connect 0 0 6 0;
#X connect 0 0 5 0;
#X connect 0 0 4 0;
#X connect 0 0 3 0;
#X connect 1 0 2 0;
#X connect 3 0 2 0;
#X connect 4 0 2 0;
#X connect 5 0 2 0;
#X connect 6 0 2 0;
#X restore 66 65 pd \$0-loaddefaultsettings;
#X obj 70 130 ce_susbng 0;
#X obj 87 154 sel 0 1 2 3;
#X obj 81 87 tgl 15 0 empty empty empty 17 7 0 10 #fcfcfc #000000 #000000
0 1;
#X msg 83 107 set_state \$1;
#X obj 105 227 until;
#X obj 105 255 f;
#X obj 143 255 + 1;
#X obj 176 251 sel 0;
#X msg 105 202 1;
#X obj 188 307 t b;
#X msg 188 331 1;
#X obj 105 179 t b;
#X obj 41 31 inlet;
#X obj 162 27 inlet;
#X obj 107 330 outlet;
#X obj 70 306;
#X obj 162 282 mod 118;
#X connect 0 0 1 0;
#X connect 1 1 2 0;
#X connect 2 1 12 0;
#X connect 3 0 4 0;
#X connect 4 0 1 0;
#X connect 5 0 6 0;
#X connect 6 0 7 0;
#X connect 6 0 15 0;
#X connect 7 0 17 0;
#X connect 8 0 5 1;
#X connect 8 0 10 0;
#X connect 9 0 5 0;
#X connect 10 0 11 0;
#X connect 11 0 3 0;
#X connect 12 0 9 0;
#X connect 13 0 3 0;
#X connect 14 0 1 0;
#X connect 17 0 6 1;
#X connect 17 0 8 0;
#X restore 482 135 pd \$0-countoff;
#X obj 585 234 / 12;
#X obj 567 259 f;
#X obj 570 284 int;
#X obj 296 481 s \$0-foundtuningfreq;
#X msg 568 691 A;
#X msg 622 691 A#/Bb;
#X msg 672 691 B;
#X msg 77 677 C;
#X msg 118 676 C#/Db;
#X msg 185 680 D;
#X msg 226 679 D#/Eb;
#X msg 288 680 E;
#X msg 347 682 F;
#X msg 406 687 F#Gb;
#X msg 458 679 G;
#X msg 511 679 G#/Ab;
#X obj 272 568 route 0 1 2 3 4 5 6 7 8 9 10 11;
#X obj 382 753 s \$0-notesymbol;
#X obj 559 645 t b b;
#X obj 607 645 t b b;
#X obj 660 646 t b b;
#X obj 51 645 t b b;
#X obj 101 644 t b b;
#X obj 154 644 t b b;
#X obj 200 644 t b b;
#X obj 257 645 t b b;
#X obj 322 647 t b b;
#X obj 378 651 t b b;
#X obj 437 652 t b b;
#X obj 488 651 t b b;
#X obj 176 755 s \$0-buildfreqstring;
#X obj 274 517 f;
#X obj 483 161 t f f f f;
#X floatatom 569 309 5 0 0 0 - - - 0;
#X obj 274 543 % 12;
#X obj 569 334 s \$0-foundinoct;
#X floatatom 609 263 5 0 0 0 - - - 0;
#X obj 660 133 outlet;
#X floatatom 584 189 5 0 0 0 - - - 0;
#X obj 693 299 f;
#X floatatom 695 322 5 0 0 0 - - - 0;
#X obj 696 374 s \$0-fromfreq;
#X obj 274 407 t b b b b;
#X obj 698 349 + 12;
#X obj 508 468 r \$0-tofreq-out;
#X obj 511 494 +;
#X obj 530 445 r \$0-bytuning;
#X obj 510 526 s \$0-finalfreq;
#X obj 483 420 r \$0-foundtuningfreq;
#X connect 0 0 4 0;
#X connect 1 0 61 0;
#X connect 2 0 1 1;
#X connect 3 0 1 2;
#X connect 4 0 17 0;
#X connect 5 0 6 0;
#X connect 6 0 22 0;
#X connect 7 0 2 0;
#X connect 8 0 3 0;
#X connect 9 0 8 1;
#X connect 9 0 7 1;
#X connect 11 0 12 0;
#X connect 12 0 13 0;
#X connect 13 0 14 0;
#X connect 14 0 15 0;
#X connect 14 1 5 1;
#X connect 14 2 7 0;
#X connect 14 3 8 0;
#X connect 15 0 1 0;
#X connect 16 0 18 0;
#X connect 17 0 18 1;
#X connect 17 1 16 0;
#X connect 17 2 15 1;
#X connect 17 4 56 0;
#X connect 18 0 51 0;
#X connect 19 0 20 1;
#X connect 19 0 55 0;
#X connect 20 0 21 0;
#X connect 21 0 52 0;
#X connect 23 0 36 0;
#X connect 24 0 36 0;
#X connect 25 0 36 0;
#X connect 26 0 36 0;
#X connect 27 0 36 0;
#X connect 28 0 36 0;
#X connect 29 0 36 0;
#X connect 30 0 36 0;
#X connect 31 0 36 0;
#X connect 32 0 36 0;
#X connect 33 0 36 0;
#X connect 34 0 36 0;
#X connect 35 0 40 0;
#X connect 35 1 41 0;
#X connect 35 2 42 0;
#X connect 35 3 43 0;
#X connect 35 4 44 0;
#X connect 35 5 45 0;
#X connect 35 6 46 0;
#X connect 35 7 47 0;
#X connect 35 8 48 0;
#X connect 35 9 37 0;
#X connect 35 10 38 0;
#X connect 35 11 39 0;
#X connect 37 0 49 0;
#X connect 37 1 23 0;
#X connect 38 0 49 0;
#X connect 38 1 24 0;
#X connect 39 0 49 0;
#X connect 39 1 25 0;
#X connect 40 0 49 0;
#X connect 40 1 26 0;
#X connect 41 0 49 0;
#X connect 41 1 27 0;
#X connect 42 0 49 0;
#X connect 42 1 28 0;
#X connect 43 0 49 0;
#X connect 43 1 29 0;
#X connect 44 0 49 0;
#X connect 44 1 30 0;
#X connect 45 0 49 0;
#X connect 45 1 31 0;
#X connect 46 0 49 0;
#X connect 46 1 32 0;
#X connect 47 0 49 0;
#X connect 47 1 33 0;
#X connect 48 0 49 0;
#X connect 48 1 34 0;
#X connect 50 0 53 0;
#X connect 51 0 10 0;
#X connect 51 1 50 1;
#X connect 51 2 19 0;
#X connect 51 3 57 0;
#X connect 52 0 54 0;
#X connect 53 0 35 0;
#X connect 57 0 58 1;
#X connect 58 0 59 0;
#X connect 59 0 62 0;
#X connect 61 0 50 0;
#X connect 61 1 5 0;
#X connect 61 2 20 0;
#X connect 61 3 58 0;
#X connect 62 0 60 0;
#X connect 63 0 64 0;
#X connect 64 0 66 0;
#X connect 65 0 64 1;
#X connect 67 0 64 0;
#X restore 499 133 pd \$0-infreqtolabel;
#X obj 453 226 outlet;
#X obj 18 95 loadbang;
#X obj 22 121 t b b;
#X obj 499 105 t f f;
#X obj 61 22 inlet freq;
#X obj 645 55 t f b f;
#X obj 285 27 inlet;
#X obj 502 54 t b f;
#X obj 500 77 f;
#X msg 53 150 0.1;
#X obj 216 25 inlet;
#X obj 216 81 f;
#X obj 215 55 t b f;
#X obj 216 108 s \$0-customtune;
#X obj 522 281 outlet;
#X obj 521 232 r \$0-tuninglabel;
#X msg 22 157 5;
#X obj 522 257 s2l;
#X obj 781 25 inlet pitch;
#N canvas 431 145 450 347 \$0-pitchtofreq 0;
#X obj 333 74 r \$0-tuninglabel;
#X obj 333 98 s2l;
#X obj 254 143 expr $f2/$f1;
#X obj 254 167 int;
#X obj 117 292 outlet;
#X obj 118 97 inlet;
#X floatatom 253 192 9 0 0 0 - - - 0;
#X floatatom 174 156 10 0 0 0 - - - 0;
#X obj 335 121 * 1000;
#X obj 254 116 / 100;
#X floatatom 251 248 7 0 0 0 - - - 0;
#X obj 251 216 / 1e+06;
#X connect 0 0 1 0;
#X connect 1 0 8 0;
#X connect 2 0 3 0;
#X connect 3 0 6 0;
#X connect 5 0 9 0;
#X connect 6 0 11 0;
#X connect 8 0 2 1;
#X connect 9 0 2 0;
#X connect 9 0 7 0;
#X connect 10 0 4 0;
#X connect 11 0 10 0;
#X restore 779 50 pd \$0-pitchtofreq;
#N canvas 327 85 595 465 \$0-buildoutstring 0;
#X obj 222 210 r \$0-notesymbol;
#X obj 213 100 r \$0-thisoct;
#X obj 172 248 f;
#X floatatom 173 273 5 0 0 0 Octave - - 0;
#X obj 222 235 l2s;
#X obj 255 269 r \$0-tuninglabel;
#X obj 284 292 r \$0-finalfreq;
#X obj 178 46 r \$0-buildfreqstring;
#X obj 177 93 t b;
#X obj 172 297 t f;
#X obj 214 71 r \$0-foundinoct;
#X obj 170 171 spigot 0;
#X obj 228 152 tgl 15 0 empty empty empty 17 7 0 10 #fcfcfc #000000
#000000 0 1;
#X msg 227 125 0;
#X msg 263 125 1;
#X obj 170 198 t b b;
#X obj 172 223 del;
#X obj 442 74 r \$0-tuninglabel;
#X obj 442 98 s2l;
#X obj 442 121 * 100;
#X obj 361 169 expr $f2/$f1;
#X obj 361 194 / 1000;
#X obj 391 43 r \$0-tofreq-out;
#X obj 250 241 r \$0-fromfreq;
#X obj 172 323 pack f s f s f f;
#X msg 173 367 \$2\$1 \$3 \$4 \$5 \$6;
#X obj 169 396 outlet;
#X obj 52 46 inlet;
#X obj 113 46 inlet;
#X obj 346 44 inlet;
#X obj 525 41 inlet;
#X connect 0 0 4 0;
#X connect 1 0 2 1;
#X connect 2 0 3 0;
#X connect 3 0 9 0;
#X connect 4 0 24 1;
#X connect 5 0 24 3;
#X connect 6 0 24 4;
#X connect 7 0 8 0;
#X connect 8 0 11 0;
#X connect 9 0 24 0;
#X connect 10 0 2 1;
#X connect 11 0 15 0;
#X connect 12 0 11 1;
#X connect 13 0 12 0;
#X connect 14 0 12 0;
#X connect 15 0 16 0;
#X connect 15 1 13 0;
#X connect 16 0 2 0;
#X connect 17 0 18 0;
#X connect 18 0 19 0;
#X connect 19 0 20 1;
#X connect 20 0 21 0;
#X connect 21 0 24 5;
#X connect 22 0 20 0;
#X connect 23 0 24 2;
#X connect 24 0 25 0;
#X connect 25 0 26 0;
#X connect 27 0 14 0;
#X connect 28 0 14 0;
#X connect 29 0 20 0;
#X connect 30 0 24 2;
#X restore 454 197 pd \$0-buildoutstring;
#X obj 21 201 s \$0-defaulttuneing;
#X obj 54 176 s \$0-defaultthreshold;
#X obj 329 27 r \$0-defaultthreshold;
#N canvas 26 26 450 299 \$0-adjusttuneing 0;
#X obj 61 36 inlet;
#X msg 212 180 432;
#X msg 250 180 434;
#X msg 286 180 436;
#X msg 354 180 440;
#X msg 388 179 442;
#X msg 422 179 444;
#X msg 455 179 446;
#X obj 179 130 t b;
#X obj 215 130 t b;
#X obj 251 130 t b;
#X obj 284 131 t b;
#X obj 319 131 t b;
#X obj 353 130 t b;
#X obj 387 129 t b;
#X obj 420 129 t b;
#X msg 319 180 438;
#X obj 89 207 *;
#X obj 80 152 t f b;
#X obj 89 232 s \$0-bytuning;
#X obj 80 98 - 4;
#X obj 80 125 % 8;
#X msg 105 181 2, f 4;
#X obj 285 232 s \$0-tuninglabel;
#X obj 285 207 l2s;
#X obj 163 88 sel 0 1 2 3 4 5 6 7 8;
#X obj 153 182 f;
#X obj 172 155 r \$0-customtune;
#X obj 147 131 t b;
#X obj 62 68 t f f;
#X obj 164 60 r \$0-defaulttuneing;
#X connect 0 0 29 0;
#X connect 1 0 24 0;
#X connect 2 0 24 0;
#X connect 3 0 24 0;
#X connect 4 0 24 0;
#X connect 5 0 24 0;
#X connect 6 0 24 0;
#X connect 7 0 24 0;
#X connect 8 0 1 0;
#X connect 9 0 2 0;
#X connect 10 0 3 0;
#X connect 11 0 16 0;
#X connect 12 0 4 0;
#X connect 13 0 5 0;
#X connect 14 0 6 0;
#X connect 15 0 7 0;
#X connect 16 0 24 0;
#X connect 17 0 19 0;
#X connect 18 0 17 0;
#X connect 18 1 22 0;
#X connect 20 0 21 0;
#X connect 21 0 18 0;
#X connect 22 0 17 1;
#X connect 24 0 23 0;
#X connect 25 0 28 0;
#X connect 25 1 8 0;
#X connect 25 2 9 0;
#X connect 25 3 10 0;
#X connect 25 4 11 0;
#X connect 25 5 12 0;
#X connect 25 6 13 0;
#X connect 25 7 14 0;
#X connect 25 8 15 0;
#X connect 26 0 24 0;
#X connect 27 0 26 1;
#X connect 28 0 26 0;
#X connect 29 0 25 0;
#X connect 29 1 20 0;
#X connect 30 0 25 0;
#X restore 61 47 pd \$0-adjusttuneing;
#X floatatom 570 62 5 0 0 0 - - - 0;
#X obj 784 87;
#X floatatom 828 82 5 0 0 0 - - - 0;
#N canvas 154 605 450 300 META 0;
#X restore 34 283 pd META;
#X obj 162 0 declare -lib clearessentials;
#X connect 1 0 0 0;
#X connect 2 0 8 0;
#X connect 3 0 1 0;
#X connect 5 0 4 0;
#X connect 6 0 16 0;
#X connect 7 0 18 0;
#X connect 8 0 3 0;
#X connect 8 1 9 0;
#X connect 10 0 31 1;
#X connect 12 0 13 0;
#X connect 13 0 27 0;
#X connect 13 1 20 0;
#X connect 14 0 10 0;
#X connect 14 1 31 2;
#X connect 15 0 35 0;
#X connect 16 0 2 0;
#X connect 16 1 31 0;
#X connect 16 2 31 3;
#X connect 17 0 5 0;
#X connect 18 0 19 0;
#X connect 18 1 19 1;
#X connect 19 0 14 0;
#X connect 19 0 36 0;
#X connect 20 0 33 0;
#X connect 21 0 23 0;
#X connect 22 0 24 0;
#X connect 23 0 22 0;
#X connect 23 1 22 1;
#X connect 26 0 28 0;
#X connect 27 0 32 0;
#X connect 28 0 25 0;
#X connect 29 0 30 0;
#X connect 30 0 14 0;
#X connect 30 0 38 0;
#X connect 31 0 11 0;
#X connect 34 0 5 0;
