#N canvas 441 77 1033 828 12;
#X obj 655 326 print;
#X msg 134 488 set_srange 0 1 11;
#X msg 132 585 set_fontsize 0 12;
#X msg 130 655 set_color 0 7 9 25;
#X msg 131 608 set_label 0 empty;
#X msg 136 199 initiate;
#X msg 133 346 resize_display;
#X msg 134 247 writesliders;
#X msg 135 223 clear;
#X msg 135 464 set_iname multislider;
#X msg 133 513 set_defaultminrange 0;
#X msg 132 538 set_defaultmaxrange 1;
#X msg 134 561 set_startloc 100 100;
#X msg 130 632 set_defaultlabel empty;
#X msg 136 441 set_totalsliders 8;
#X msg 607 108 set_showuniqueid 1;
#X msg 135 415 set_nextdirection left;
#X text 26 67 Aka Scr1ptAl1as;
#X text 28 106 Pd 0.52.2;
#X obj 28 152 reportissue;
#X obj 28 132 aboutexternal;
#X text 112 201 0;
#X text 33 201 Inlet(s);
#X text 26 771 Outlet(s);
#X text 27 46 Written By: Reg Finley;
#X text 116 760 0~ - uniqueid index value;
#X text 116 781 0 - index value;
#X text 98 772 or;
#X text 26 27 ce_multislider v1.0;
#X text 26 85 2022/10/07 10:49 PM;
#X text 201 17 ce_multislider is used to create groups of vanilla vslider's
and hslider objects.;
#X msg 607 137 set_showuniqueid 0;
#N canvas 547 306 546 415 \$0-setuptemplate 0;
#X obj 111 334 outlet;
#X msg 79 164 initiate;
#X obj 130 189 bng 15 250 50 0 empty empty empty 17 7 0 10 #fcfcfc
#000000 #000000;
#X msg 131 234 writesliders;
#X obj 131 209 t b b b b;
#N canvas 250 312 855 593 \$0-initslider 0;
#X obj 88 60 inlet;
#X obj 68 535 outlet;
#X msg 140 430 clear;
#N canvas 52 52 450 300 \$0-setvflags 0;
#X obj 179 258 outlet;
#X obj 178 57 inlet;
#X msg 186 135 set_type -v;
#X obj 178 81 t b b b;
#X obj 271 72 inlet;
#X obj 202 172 f;
#X msg 199 200 set_padding \$1;
#X msg 211 107 set_vslidersize 39 63;
#X connect 1 0 3 0;
#X connect 2 0 0 0;
#X connect 3 0 7 0;
#X connect 3 1 2 0;
#X connect 3 2 5 0;
#X connect 4 0 5 1;
#X connect 5 0 6 0;
#X connect 6 0 0 0;
#X connect 7 0 0 0;
#X restore 333 421 pd \$0-setvflags;
#X msg 131 455 initiate;
#N canvas 52 52 450 300 \$0-sethflags 0;
#X obj 180 241 outlet;
#X obj 178 57 inlet;
#X msg 186 135 set_type -h;
#X obj 176 81 t b b b;
#X msg 178 104 set_hslidersize 128 20;
#X obj 233 164 inlet;
#X obj 199 190 f;
#X msg 198 215 set_padding \$1;
#X connect 1 0 3 0;
#X connect 2 0 0 0;
#X connect 3 0 4 0;
#X connect 3 1 2 0;
#X connect 3 2 6 0;
#X connect 4 0 0 0;
#X connect 5 0 6 1;
#X connect 6 0 7 0;
#X connect 7 0 0 0;
#X restore 262 396 pd \$0-sethflags;
#X msg 68 508 resize_display;
#X msg 280 131 set_iname multislider;
#X msg 78 481 set_nextdirection left;
#X msg 478 171 set_defaultminrange 0;
#X msg 477 196 set_defaultmaxrange 1;
#X msg 477 146 set_startloc 100 100;
#X msg 476 220 set_fontsize 10;
#X msg 477 245 set_defaultlabel empty;
#X obj 288 245 route 0 1;
#X obj 289 216 inlet;
#X obj 264 300 f;
#X msg 283 272 0;
#X msg 318 273 1;
#X obj 263 332 route 0 1;
#X obj 404 226 inlet;
#X obj 408 250 t f f;
#X obj 675 125 inlet;
#X msg 676 197 set_showuniqueid \$1;
#X obj 676 174 f;
#X obj 676 148 t b f;
#X obj 87 86 t b b b b b b b b b b b b b b b;
#X msg 283 154 set_totalsliders 8;
#X connect 0 0 26 0;
#X connect 2 0 1 0;
#X connect 3 0 1 0;
#X connect 4 0 1 0;
#X connect 5 0 1 0;
#X connect 6 0 1 0;
#X connect 7 0 1 0;
#X connect 8 0 1 0;
#X connect 9 0 1 0;
#X connect 10 0 1 0;
#X connect 11 0 1 0;
#X connect 12 0 1 0;
#X connect 13 0 1 0;
#X connect 14 0 17 0;
#X connect 14 1 18 0;
#X connect 15 0 14 0;
#X connect 16 0 19 0;
#X connect 17 0 16 1;
#X connect 18 0 16 1;
#X connect 19 0 5 0;
#X connect 19 1 3 0;
#X connect 19 2 5 0;
#X connect 20 0 21 0;
#X connect 21 0 5 1;
#X connect 21 1 3 1;
#X connect 22 0 25 0;
#X connect 23 0 1 0;
#X connect 24 0 23 0;
#X connect 25 0 24 0;
#X connect 25 1 24 1;
#X connect 26 0 6 0;
#X connect 26 1 8 0;
#X connect 26 2 16 0;
#X connect 26 3 4 0;
#X connect 26 4 2 0;
#X connect 26 5 27 0;
#X connect 26 7 7 0;
#X connect 26 8 10 0;
#X connect 26 9 9 0;
#X connect 26 10 11 0;
#X connect 26 11 12 0;
#X connect 26 12 13 0;
#X connect 26 13 24 0;
#X connect 27 0 1 0;
#X restore 186 265 pd \$0-initslider;
#X obj 234 241 tgl 15 0 empty empty empty 17 7 0 10 #fcfcfc #000000
#000000 0 1;
#X floatatom 330 234 5 0 0 0 padding - - 0;
#X msg 329 211 0;
#X obj 387 237 tgl 15 0 empty empty show_unique_id 17 7 0 10 #fcfcfc
#000000 #000000 0 1;
#X msg 386 214 0;
#X msg 232 215 1;
#X obj 387 185 del;
#X obj 58 107 inlet;
#X obj 60 132 t b b b b b b;
#X connect 1 0 0 0;
#X connect 2 0 4 0;
#X connect 3 0 0 0;
#X connect 4 0 3 0;
#X connect 4 2 5 0;
#X connect 4 3 5 0;
#X connect 5 0 0 0;
#X connect 6 0 5 1;
#X connect 7 0 5 2;
#X connect 8 0 7 0;
#X connect 9 0 5 3;
#X connect 10 0 9 0;
#X connect 11 0 6 0;
#X connect 12 0 10 0;
#X connect 12 0 11 0;
#X connect 13 0 14 0;
#X connect 14 0 2 0;
#X connect 14 1 1 0;
#X connect 14 2 8 0;
#X connect 14 3 12 0;
#X connect 14 4 10 0;
#X connect 14 5 11 0;
#X restore 655 224 pd \$0-setuptemplate;
#X obj 655 176 loadbang;
#X obj 655 201 t b;
#X msg 133 393 set_instanceID 1454;
#X msg 134 369 set_type -h;
#X msg 230 368 set_type -v;
#X msg 131 322 set_padding 3;
#X msg 132 299 set_vslidersize 39 63;
#X msg 133 273 set_hslidersize 63 39;
#X text 289 274 width/height;
#X text 288 299 width/height;
#X text 208 198 Applies settings witout drawing ce_multislider;
#X text 228 238 Draws ce_multislider normally after clear and initate
messages are sent;
#X text 238 345 If size dimensions change use this to resize the patch
;
#X text 334 107 Enable and append unique id to outlet;
#X text 387 138 Disable unique id from outlet;
#X obj 655 249 ce_multislider 99;
#N canvas 156 156 450 300 \$0-tutbtn 0;
#X obj 100 100 watchtutorial;
#N canvas 78 78 731 300 \$0-loadtutorial-link 0;
#X obj 48 162 outlet;
#X obj 47 84 loadbang;
#X msg 47 132 symbol https://www.youtube.com/channel/UCfmCjMoyl6K0pntwaSy0-kg
, f 65;
#X obj 46 109 bng 15 250 50 0 empty empty empty 17 7 0 10 #fcfcfc #000000
#000000;
#X connect 1 0 3 0;
#X connect 2 0 0 0;
#X connect 3 0 2 0;
#X restore 100 74 pd \$0-loadtutorial-link;
#X connect 1 0 0 0;
#X coords 0 -1 1 1 75 13 2 100 100;
#X restore 28 177 pd \$0-tutbtn;
#X text 115 801 1 - set_datafields;
#X obj 963 332 print;
#X msg 130 727 load_multitoggle;
#X msg 129 702 get_allstates;
#X msg 130 678 get_datadump;
#X text 201 56 Note* Currently not working with ce_presetmanager;
#X connect 15 0 48 0;
#X connect 31 0 48 0;
#X connect 32 0 48 0;
#X connect 33 0 34 0;
#X connect 34 0 32 0;
#X connect 48 0 0 0;
#X connect 48 1 51 0;
