#N canvas 824 79 1014 478 12;
#X declare -path clearessentials;
#X floatatom 450 210 8 0 0 0 Frequency - - 0;
#X obj 392 276 print;
#X obj 392 103 hradio 15 1 0 9 empty empty Tuning 0 -8 0 10 #fcfcfc
#000000 #000000 0;
#X floatatom 587 210 5 0 118 0 Midi\ note - - 0;
#X text 525 101 << from 0 to 7 tuning values 432 434 436 438 440 442
444 446;
#X msg 450 185 440;
#X text 299 185 Known frequency "A4";
#X text 483 185 Midi note "A4";
#X text 547 121 tuning by default is set to 440;
#X text 104 388 note label | tuning | frequency | pitch;
#X text 50 74 Aka Scr1ptAl1as;
#X text 52 113 Pd 0.52.2;
#X obj 52 159 reportissue;
#X obj 52 139 aboutexternal;
#X text 52 53 Written By: Reg Finley;
#X text 48 389 Outlet;
#X text 45 228 Inlet;
#X text 97 228 0 - float - tuning selection;
#X text 97 287 3 - Midi In;
#X obj 437 156 hsl 128 15 0.1 1.5 0 0 empty empty detection\\\ threshold\\\ 0.1\\\ to\\\ 1.5
-2 -8 0 10 #fcfcfc #000000 #000000 0 1;
#X text 50 92 2023/3/19 3:56 AM;
#X text 97 247 1 - Freq detection threshold;
#X text 97 267 2 - Freq In;
#X msg 588 187 69;
#N canvas 1297 564 450 300 \$0-soundfilerexample 0;
#X obj 78 131 soundfiler;
#N canvas 0 50 450 250 (subpatch) 0;
#X array array1 20082 float 2;
#X coords 0 1 20082 -1 100 50 1 0 0;
#X restore 302 22 graph;
#X msg 76 103 read -resize \$1/metrotick.wav array1;
#X obj 63 76 dir, f 5;
#X msg 64 52 dir;
#X connect 2 0 0 0;
#X connect 3 1 2 0;
#X connect 4 0 3 0;
#X restore 662 186 pd \$0-soundfilerexample;
#X floatatom 365 167 5 0 0 0 - - - 0;
#X floatatom 490 303 5 0 118 0 Tuning\ value - - 0;
#X floatatom 329 120 5 0 0 0 - - - 0;
#X obj 392 244 ce_midifreak;
#X text 50 34 ce_midifreak v1.0;
#X text 233 14 ce_midifreak will take a frequency or midi note and
print out details as a list.;
#X obj 27 5 declare -path clearessentials;
#X obj 52 181 watchtutorial;
#X connect 0 0 28 3;
#X connect 2 0 28 0;
#X connect 3 0 28 4;
#X connect 5 0 0 0;
#X connect 19 0 25 0;
#X connect 19 0 28 2;
#X connect 23 0 3 0;
#X connect 27 0 28 1;
#X connect 28 0 1 0;
#X connect 28 1 26 0;
