#N canvas 707 78 797 797 12;
#X text 26 67 Aka Scr1ptAl1as;
#X text 28 106 Pd 0.52.2;
#X obj 28 152 reportissue;
#X obj 28 132 aboutexternal;
#X text 28 46 Written By: Reg Finley;
#N canvas 156 156 450 300 \$0-tutbtn 0;
#X obj 100 100 watchtutorial;
#N canvas 78 78 731 300 \$0-loadtutorial-link 0;
#X obj 48 162 outlet;
#X obj 47 84 loadbang;
#X msg 47 132 symbol https://www.youtube.com/channel/UCfmCjMoyl6K0pntwaSy0-kg
, f 65;
#X obj 46 109 bng 15 250 50 0 empty empty empty 17 7 0 10 #fcfcfc #000000
#000000;
#X connect 1 0 3 0;
#X connect 2 0 0 0;
#X connect 3 0 2 0;
#X restore 100 74 pd \$0-loadtutorial-link;
#X connect 1 0 0 0;
#X coords 0 -1 1 1 75 13 2 100 100;
#X restore 28 177 pd \$0-tutbtn;
#X obj 403 78 loadbang;
#X obj 401 102 \$0;
#N canvas 1138 277 771 406 \$0-initdefaultsettings 0;
#X obj 44 4 inlet;
#X obj 280 419 outlet;
#X msg 135 343 set_type -h;
#X obj 140 84 s \$0-instanceID-multitoggle;
#X msg 203 165 set_iname multitoggle;
#X msg 229 140 set_fontsize 12;
#X msg 44 131 create_toggles;
#X msg 106 397 set_direction left;
#X msg 438 156 set_labelcolor \$1 21;
#X msg 420 180 set_bordercolor \$1 58;
#X obj 398 63 until;
#X obj 398 91 f;
#X obj 436 91 + 1;
#X obj 481 90 sel 0;
#X obj 436 117 mod 10;
#X obj 400 35 f;
#X obj 418 7 r \$0-total-multitoggles;
#X obj 470 59 r \$0-total-multitoggles;
#X obj 95 104 t b b b b b b b b b b b b;
#X msg 502 235 set_label \$1 empty;
#X obj 381 134 t f f f f f;
#X msg 511 266 set_value \$1 0;
#X msg 565 206 set_forecolor 0 34;
#X obj 348 22 bng 15 250 50 0 empty empty empty 17 7 0 10 #fcfcfc #000000
#000000;
#X msg 117 374 set_padding 2;
#X msg 189 192 set_size 15;
#X obj 95 55 t b b f;
#X msg 146 314 set_totaltoggles \$1;
#X obj 185 274 f;
#X msg 403 205 set_forecolor \$1 17;
#X msg 329 273 set_startloc 105 100;
#X msg 374 315 set_objectcolor \$1 10;
#X obj 369 234 \$1;
#X obj 192 39 \$0;
#X obj 177 6 bng 15 250 50 0 empty empty empty 17 7 0 10 #fcfcfc #000000
#000000;
#X obj 44 28 t b b f f;
#X msg 203 246 16;
#X obj 222 269 s \$0-total-multitoggles;
#X obj 15 225;
#X msg 40 291 resize_display;
#X connect 0 0 35 0;
#X connect 2 0 1 0;
#X connect 4 0 1 0;
#X connect 5 0 1 0;
#X connect 6 0 1 0;
#X connect 7 0 1 0;
#X connect 8 0 1 0;
#X connect 9 0 1 0;
#X connect 10 0 11 0;
#X connect 11 0 12 0;
#X connect 11 0 20 0;
#X connect 12 0 14 0;
#X connect 13 0 10 1;
#X connect 14 0 11 1;
#X connect 14 0 13 0;
#X connect 15 0 10 0;
#X connect 16 0 15 1;
#X connect 17 0 14 1;
#X connect 18 0 7 0;
#X connect 18 1 24 0;
#X connect 18 2 2 0;
#X connect 18 3 28 0;
#X connect 18 6 25 0;
#X connect 18 7 4 0;
#X connect 18 8 5 0;
#X connect 18 9 30 0;
#X connect 18 10 32 0;
#X connect 19 0 1 0;
#X connect 20 0 29 0;
#X connect 20 1 9 0;
#X connect 20 2 8 0;
#X connect 20 3 19 0;
#X connect 20 4 21 0;
#X connect 21 0 1 0;
#X connect 22 0 1 0;
#X connect 23 0 15 0;
#X connect 24 0 1 0;
#X connect 25 0 1 0;
#X connect 26 0 18 0;
#X connect 26 1 36 0;
#X connect 27 0 1 0;
#X connect 28 0 27 0;
#X connect 29 0 1 0;
#X connect 30 0 1 0;
#X connect 31 0 1 0;
#X connect 32 0 31 0;
#X connect 33 0 35 0;
#X connect 34 0 33 0;
#X connect 35 0 23 0;
#X connect 35 1 6 0;
#X connect 35 2 26 0;
#X connect 35 3 3 0;
#X connect 36 0 28 1;
#X connect 36 0 37 0;
#X connect 39 0 1 0;
#X restore 402 125 pd \$0-initdefaultsettings;
#X obj 401 178 print;
#X text 26 27 ce_multitoggle v1.0;
#X text 26 85 2022/12/30 11:28 PM;
#X text 201 17 ce_multitoggle is used to create groups of vanilla toggle
objects.;
#X msg 132 536 set_fontsize 0 12;
#X msg 130 606 set_color 0 7 9 25;
#X msg 131 559 set_label 0 empty;
#X msg 136 199 initiate;
#X msg 133 346 resize_display;
#X msg 135 223 clear;
#X msg 134 512 set_startloc 100 100;
#X msg 130 583 set_defaultlabel empty;
#X msg 135 415 set_nextdirection left;
#X text 112 201 0;
#X text 33 201 Inlet(s);
#X text 26 741 Outlet(s);
#X text 116 730 0~ - uniqueid index value;
#X text 116 751 0 - index value;
#X text 98 742 or;
#X msg 133 393 set_instanceID 1454;
#X msg 134 369 set_type -h;
#X msg 230 368 set_type -v;
#X msg 131 322 set_padding 3;
#X text 289 274 width/height;
#X text 288 299 width/height;
#X text 208 198 Applies settings witout drawing ce_multitoggle;
#X text 228 238 Draws ce_multitoggle normally after clear and initate
messages are sent;
#X msg 137 463 set_iname multitoggle;
#X msg 133 273 set_htoggleize 15 15;
#X msg 132 299 set_vtogglesize 15 15;
#X msg 136 441 set_totaltoggles 8;
#X obj 398 150 ce_multitoggle 0;
#X msg 134 247 writetoggles;
#X msg 134 488 set_toggle 0 1 11;
#X msg 130 629 set_showuniqueid 0;
#X msg 131 702 load_multitoggle;
#X msg 130 677 get_allstates;
#X msg 131 653 get_datadump;
#X text 204 48 Note* Currently not working with ce_presetmanager;
#X connect 6 0 7 0;
#X connect 7 0 8 0;
#X connect 40 0 9 0;
