#N struct 1114-bang float c float bc float x float y symbol text;
#N struct 1115-bang float c float bc float x float y symbol text;
#N struct 1116-bang float c float bc float x float y symbol text;
#N struct 1117-bang float c float bc float x float y symbol text;
#N struct 1118-bang float c float bc float x float y symbol text;
#N struct 1119-bang float c float bc float x float y symbol text;
#N struct 1120-bang float c float bc float x float y symbol text;
#N struct 1121-bang float c float bc float x float y symbol text;
#N struct 1122-bang float c float bc float x float y symbol text;
#N struct 1123-bang float c float bc float x float y symbol text;
#N canvas 556 213 1146 529 12;
#X declare -lib clearessentials;
#X floatatom 377 235 10 0 999999 0 - - - 0;
#N canvas 86 103 915 453 \$0-digitlistener 0;
#X obj 185 225 r \$0-numdigit0;
#X obj 175 204 r \$0-numdigit9;
#X obj 139 141 r \$0-numdigit6;
#X obj 99 76 r \$0-numdigit3;
#X obj 82 55 r \$0-numdigit2;
#X obj 123 118 r \$0-numdigit5;
#X obj 162 183 r \$0-numdigit8;
#X obj 149 162 r \$0-numdigit7;
#X obj 111 98 r \$0-numdigit4;
#X obj 67 25 r \$0-numdigit1;
#X msg 70 125 1;
#X msg 86 145 2;
#X msg 105 169 3;
#X msg 119 188 4;
#X msg 139 214 5;
#X msg 154 236 6;
#X msg 163 257 7;
#X msg 172 277 8;
#X msg 181 298 9;
#X obj 334 499 outlet;
#X obj 191 348 t f;
#X floatatom 435 93 5 0 0 0 - - - 0;
#X floatatom 337 301 5 0 0 0 - - - 0;
#X obj 410 205 tgl 15 0 empty empty empty 17 7 0 10 #fcfcfc #000000
#000000 0 1;
#X obj 337 277 spigot;
#X text 364 148 enter;
#X obj 337 370 * 10;
#X obj 336 395 + 1, f 4;
#X obj 337 346 f;
#X obj 410 225 sel 0 1;
#X msg 544 343 0;
#X msg 478 370 1;
#X msg 410 249 0;
#X obj 384 112 t f f;
#X obj 460 308 t b b b;
#X obj 337 322 t b f f;
#X msg 190 321 0;
#X obj 538 414 outlet;
#X obj 410 178 t b b;
#X obj 491 94 r \$0-entrylistener;
#X msg 492 118 10;
#X obj 412 275 del;
#X msg 463 477 0;
#X obj 424 430 r \$0-deletecmd;
#X msg 424 477 1;
#X obj 424 454 t b b b;
#X obj 317 418 f;
#X obj 562 238 inlet;
#X obj 492 191 r \$0-clearlistener;
#X obj 491 216 t b b b;
#X obj 396 504 outlet;
#X obj 601 292 inlet;
#X obj 301 109 loadbang;
#X msg 303 138 1;
#X obj 410 154 sel 10 46;
#X obj 316 441 t f;
#X obj 619 408 outlet;
#X listbox 743 168 20 0 0 0 - - - 0;
#X obj 697 143 keyname;
#X obj 741 217 route Control_R;
#X obj 733 318 spigot 0;
#X obj 784 252 tgl 15 0 empty empty empty 17 7 0 10 #fcfcfc #000000
#000000 0 1;
#X msg 743 193 \$1;
#X obj 800 345 tgl 15 0 empty empty empty 17 7 0 10 #fcfcfc #000000
#000000 0 1;
#X obj 742 259 t b b;
#X obj 748 368 spigot 0;
#X obj 526 30 key;
#X obj 770 403 s \$0-clickstatus;
#X msg 837 349;
#X connect 0 0 36 0;
#X connect 1 0 18 0;
#X connect 2 0 15 0;
#X connect 3 0 12 0;
#X connect 4 0 11 0;
#X connect 5 0 14 0;
#X connect 6 0 17 0;
#X connect 7 0 16 0;
#X connect 8 0 13 0;
#X connect 9 0 10 0;
#X connect 10 0 20 0;
#X connect 11 0 20 0;
#X connect 12 0 20 0;
#X connect 13 0 20 0;
#X connect 14 0 20 0;
#X connect 15 0 20 0;
#X connect 16 0 20 0;
#X connect 17 0 20 0;
#X connect 18 0 20 0;
#X connect 20 0 24 0;
#X connect 22 0 35 0;
#X connect 23 0 29 0;
#X connect 24 0 22 0;
#X connect 26 0 27 0;
#X connect 27 0 28 1;
#X connect 27 0 46 1;
#X connect 27 0 19 0;
#X connect 28 0 26 0;
#X connect 29 0 32 0;
#X connect 29 1 34 0;
#X connect 30 0 28 1;
#X connect 30 0 19 0;
#X connect 31 0 37 0;
#X connect 31 0 24 1;
#X connect 32 0 24 1;
#X connect 32 0 41 0;
#X connect 33 1 54 0;
#X connect 34 0 46 0;
#X connect 34 1 31 0;
#X connect 34 2 30 0;
#X connect 35 0 28 0;
#X connect 35 1 27 1;
#X connect 36 0 20 0;
#X connect 38 0 23 0;
#X connect 39 0 40 0;
#X connect 40 0 33 0;
#X connect 41 0 40 0;
#X connect 42 0 28 1;
#X connect 42 0 27 1;
#X connect 42 0 22 0;
#X connect 43 0 45 0;
#X connect 45 0 44 0;
#X connect 45 2 42 0;
#X connect 46 0 55 0;
#X connect 47 0 34 0;
#X connect 48 0 49 0;
#X connect 49 0 56 0;
#X connect 49 1 30 0;
#X connect 52 0 53 0;
#X connect 53 0 23 0;
#X connect 54 0 38 0;
#X connect 54 1 49 0;
#X connect 55 0 50 0;
#X connect 57 0 62 0;
#X connect 58 1 57 0;
#X connect 59 0 64 0;
#X connect 60 0 63 0;
#X connect 61 0 60 1;
#X connect 62 0 59 0;
#X connect 63 0 65 1;
#X connect 63 0 67 0;
#X connect 64 0 60 0;
#X connect 64 1 61 0;
#X connect 65 0 33 0;
#X connect 66 0 21 0;
#X connect 66 0 65 0;
#X restore 377 210 pd \$0-digitlistener;
#X obj 377 164 bng 15 250 50 0 empty empty Enter 17 7 0 10 #fcfcfc
#000000 #000000;
#X obj 377 185 s \$0-entrylistener;
#X obj 524 162 bng 15 250 50 0 empty empty Clear 17 7 0 10 #fcfcfc
#000000 #000000;
#X obj 523 183 s \$0-clearlistener;
#X floatatom 470 242 5 0 0 0 - - - 0;
#X obj 100 100 cnv 15 117 63 empty empty empty 20 12 0 14 #606060 #404040
0;
#N canvas 826 360 562 300 \$0-num1BTN 0;
#X obj 149 49 loadbang;
#X obj 84 144 outlet;
#X obj 106 46 inlet;
#X msg 103 76 symbol (1);
#X obj 160 209 s \$0-numdigit1;
#X obj 100 100 ce_btn 1 2 22 15;
#X connect 0 0 3 0;
#X connect 2 0 3 0;
#X connect 3 0 5 0;
#X connect 5 0 1 0;
#X connect 5 0 4 0;
#X coords 0 -1 1 1 22 15 2 100 100;
#X restore 104 117 pd \$0-num1BTN;
#N canvas 697 227 450 317 \$0-num2Btn 0;
#X obj 149 48 loadbang;
#X obj 84 144 outlet;
#X obj 97 49 inlet;
#X msg 103 75 symbol (2);
#X obj 140 149 s \$0-numdigit2;
#X obj 100 100 ce_btn 1 2 22 15;
#X connect 0 0 3 0;
#X connect 2 0 3 0;
#X connect 3 0 5 0;
#X connect 5 0 1 0;
#X connect 5 0 4 0;
#X coords 0 -1 1 1 22 15 2 100 100;
#X restore 130 117 pd \$0-num2Btn;
#N canvas 514 233 450 317 \$0-num3Btn 0;
#X obj 163 49 loadbang;
#X obj 84 144 outlet;
#X obj 113 49 inlet;
#X msg 103 76 symbol (3);
#X obj 142 144 s \$0-numdigit3;
#X obj 100 100 ce_btn 1 2 22 15;
#X connect 0 0 3 0;
#X connect 2 0 3 0;
#X connect 3 0 5 0;
#X connect 5 0 1 0;
#X connect 5 0 4 0;
#X coords 0 -1 1 1 22 15 2 100 100;
#X restore 156 117 pd \$0-num3Btn;
#N canvas 316 330 562 300 \$0-num4BTN 0;
#X obj 156 35 loadbang;
#X obj 84 144 outlet;
#X obj 104 44 inlet;
#X msg 102 67 symbol (4);
#X obj 128 193 s \$0-numdigit4;
#X obj 100 100 ce_btn 1 2 22 15;
#X connect 0 0 3 0;
#X connect 2 0 3 0;
#X connect 3 0 5 0;
#X connect 5 0 1 0;
#X connect 5 0 4 0;
#X coords 0 -1 1 1 22 15 2 100 100;
#X restore 104 132 pd \$0-num4BTN;
#N canvas 395 238 450 317 \$0-num6Btn 0;
#X obj 154 50 loadbang;
#X obj 84 144 outlet;
#X obj 99 49 inlet;
#X msg 102 76 symbol (6);
#X obj 143 183 s \$0-numdigit6;
#X obj 100 100 ce_btn 1 2 22 15;
#X connect 0 0 3 0;
#X connect 2 0 3 0;
#X connect 3 0 5 0;
#X connect 5 0 1 0;
#X connect 5 0 4 0;
#X coords 0 -1 1 1 22 15 2 100 100;
#X restore 156 132 pd \$0-num6Btn;
#N canvas 433 148 450 351 \$0-num5Btn 0;
#X obj 154 46 loadbang;
#X obj 84 144 outlet;
#X obj 103 49 inlet;
#X msg 103 73 symbol (5);
#X obj 157 189 s \$0-numdigit5;
#X obj 100 100 ce_btn 1 2 22 15;
#X connect 0 0 3 0;
#X connect 2 0 3 0;
#X connect 3 0 5 0;
#X connect 5 0 1 0;
#X connect 5 0 4 0;
#X coords 0 -1 1 1 22 15 2 100 100;
#X restore 130 132 pd \$0-num5Btn;
#N canvas 339 305 562 300 \$0-num7BTN 0;
#X obj 157 51 loadbang;
#X obj 84 144 outlet;
#X obj 107 48 inlet;
#X msg 99 78 symbol (7);
#X obj 138 144 s \$0-numdigit7;
#X obj 100 100 ce_btn 1 2 22 15;
#X connect 0 0 3 0;
#X connect 2 0 3 0;
#X connect 3 0 5 0;
#X connect 5 0 1 0;
#X connect 5 0 4 0;
#X coords 0 -1 1 1 22 15 2 100 100;
#X restore 104 147 pd \$0-num7BTN;
#N canvas 435 310 450 317 \$0-num8Btn 0;
#X obj 149 51 loadbang;
#X obj 84 144 outlet;
#X obj 105 49 inlet;
#X msg 101 74 symbol (8);
#X obj 146 187 s \$0-numdigit8;
#X obj 100 100 ce_btn 1 2 22 15;
#X connect 0 0 3 0;
#X connect 2 0 3 0;
#X connect 3 0 5 0;
#X connect 5 0 1 0;
#X connect 5 0 4 0;
#X coords 0 -1 1 1 22 15 2 100 100;
#X restore 130 147 pd \$0-num8Btn;
#N canvas 701 234 450 317 \$0-num9Btn 0;
#X obj 162 49 loadbang;
#X obj 84 144 outlet;
#X obj 113 49 inlet;
#X msg 113 76 symbol (9);
#X obj 137 143 s \$0-numdigit9;
#X obj 100 100 ce_btn 1 2 22 15;
#X connect 0 0 3 0;
#X connect 2 0 3 0;
#X connect 3 0 5 0;
#X connect 5 0 1 0;
#X connect 5 0 4 0;
#X coords 0 -1 1 1 22 15 2 100 100;
#X restore 156 147 pd \$0-num9Btn;
#N canvas 468 270 450 317 \$0-num0Btn 0;
#X obj 152 41 loadbang;
#X obj 84 144 outlet;
#X obj 99 34 inlet;
#X msg 105 69 symbol (0);
#X obj 136 147 s \$0-numdigit0;
#X obj 100 100 ce_btn 1 2 22 15;
#X connect 0 0 3 0;
#X connect 2 0 3 0;
#X connect 3 0 5 0;
#X connect 5 0 1 0;
#X connect 5 0 4 0;
#X coords 0 -1 1 1 22 15 2 100 100;
#X restore 187 147 pd \$0-num0Btn;
#X obj 384 259 outlet;
#X obj 486 321 outlet;
#X obj 374 282 s \$0-numdisplay;
#X obj 523 138 r \$0-processreset;
#N canvas 55 107 1163 716 \$0-entrybtn 0;
#X obj 268 59 tgl 15 0 empty empty empty 17 7 0 10 #fcfcfc #000000
#000000 0 1;
#X obj 268 185 spigot 0;
#X obj 268 119 change;
#X floatatom 268 164 5 0 0 0 - - - 0;
#X obj 268 97 == 0;
#X obj 282 142 == 0;
#X floatatom 479 137 5 0 0 0 - - - 0;
#X obj 479 116 == 0;
#X obj 479 156 change;
#X floatatom 479 201 5 0 0 0 - - - 0;
#X obj 479 180 == 1;
#X obj 479 220 spigot 0;
#X obj 91 23 inlet;
#X obj 104 102 bng 11 250 50 0 empty empty empty 17 7 0 10 #fcfcfc
#000000 #000000;
#X obj 830 36 loadbang;
#X obj 352 370 tgl 10 0 exprtloopern-send exprtloopern-recv B 2 5 0
10 #b8b8b8 #000000 #000000 0 1;
#X msg 424 76 1;
#X obj 116 101 bng 11 250 50 0 empty empty empty 17 7 0 10 #fcfcfc
#000000 #000000;
#X msg 559 438 8;
#X msg 382 339 1;
#X msg 324 332 1;
#X obj 100 100 cnv 12 28 13 \$0-enterswitch-send \$0-enterswitch-recv
Enter 2 8 0 9 #b8b8b8 #000000 0;
#X msg 261 415 8;
#X msg 832 88 \$1;
#X floatatom 816 111 5 0 0 0 - - - 0;
#X obj 776 531 symbol;
#X obj 819 215 t b s;
#X msg 815 238 bang;
#X obj 618 678 s;
#X obj 363 409 t b b;
#X obj 876 434 f;
#X obj 895 309 t b f;
#X obj 483 295 t f b b b;
#X obj 215 436 pack f f f;
#X obj 513 459 pack f f f;
#X obj 268 205 t b b b b b;
#X obj 831 63 \$0;
#X obj 905 78 \$1;
#X obj 489 271 f;
#X obj 484 250 bng 15 250 50 0 empty empty empty 17 7 0 10 #fcfcfc
#000000 #000000;
#X obj 815 130 t b f f f;
#X obj 474 51 del 10;
#X obj 473 75 bng 15 250 50 0 empty empty empty 17 7 0 10 #fcfcfc #000000
#000000;
#X floatatom 905 99 5 0 0 0 - - - 0;
#X obj 126 50 t b b;
#X obj 86 74 del 100;
#X msg 216 408 2;
#X msg 510 433 2;
#X msg 815 188 symbol \$1-processenter;
#X msg 216 458 \; \$3-enterswitch-recv label_pos \$1 \$2;
#X msg 491 335 \; \$1-enterswitch-recv label Enter \;;
#X msg 510 483 \; \$3-enterswitch-recv label_pos \$1 \$2;
#X msg 875 464 \; \$1-enterswitch-recv label Enter;
#X connect 0 0 1 1;
#X connect 0 0 4 0;
#X connect 0 0 7 0;
#X connect 0 0 11 1;
#X connect 1 0 35 0;
#X connect 2 0 5 0;
#X connect 3 0 1 0;
#X connect 4 0 2 0;
#X connect 5 0 3 0;
#X connect 6 0 8 0;
#X connect 7 0 6 0;
#X connect 8 0 10 0;
#X connect 9 0 11 0;
#X connect 10 0 9 0;
#X connect 11 0 39 0;
#X connect 12 0 44 0;
#X connect 13 0 0 0;
#X connect 14 0 36 0;
#X connect 15 0 29 0;
#X connect 16 0 0 0;
#X connect 17 0 0 0;
#X connect 18 0 34 1;
#X connect 19 0 15 0;
#X connect 20 0 15 0;
#X connect 22 0 33 1;
#X connect 23 0 24 0;
#X connect 24 0 37 1;
#X connect 24 0 40 0;
#X connect 25 0 28 1;
#X connect 26 0 27 0;
#X connect 26 1 25 1;
#X connect 27 0 25 0;
#X connect 29 0 28 0;
#X connect 29 1 27 0;
#X connect 30 0 52 0;
#X connect 30 0 33 2;
#X connect 30 0 34 2;
#X connect 31 0 30 0;
#X connect 31 1 30 1;
#X connect 32 0 50 0;
#X connect 32 1 19 0;
#X connect 32 2 47 0;
#X connect 32 3 18 0;
#X connect 33 0 49 0;
#X connect 34 0 51 0;
#X connect 35 1 20 0;
#X connect 35 2 46 0;
#X connect 35 3 22 0;
#X connect 35 4 30 0;
#X connect 36 0 23 0;
#X connect 37 0 43 0;
#X connect 38 0 32 0;
#X connect 39 0 38 0;
#X connect 40 0 41 0;
#X connect 40 1 48 0;
#X connect 40 2 31 0;
#X connect 40 3 38 1;
#X connect 41 0 42 0;
#X connect 42 0 16 0;
#X connect 44 0 45 0;
#X connect 44 1 13 0;
#X connect 45 0 13 0;
#X connect 46 0 33 0;
#X connect 47 0 34 0;
#X connect 48 0 26 0;
#X coords 0 -1 1 1 28 13 2 100 100;
#X restore 184 118 pd \$0-entrybtn;
#N canvas 55 107 1163 716 \$0-resetbtn 0;
#X obj 268 59 tgl 15 0 empty empty empty 17 7 0 10 #fcfcfc #000000
#000000 0 1;
#X obj 268 185 spigot 0;
#X obj 268 119 change;
#X floatatom 268 164 5 0 0 0 - - - 0;
#X obj 268 97 == 0;
#X obj 282 142 == 0;
#X floatatom 479 137 5 0 0 0 - - - 0;
#X obj 479 116 == 0;
#X obj 479 156 change;
#X floatatom 479 201 5 0 0 0 - - - 0;
#X obj 479 180 == 1;
#X obj 479 220 spigot 0;
#X obj 91 23 inlet;
#X obj 104 102 bng 11 250 50 0 empty empty empty 17 7 0 10 #fcfcfc
#000000 #000000;
#X obj 830 36 loadbang;
#X obj 352 370 tgl 10 0 exprtloopern-send exprtloopern-recv B 2 5 0
10 #b8b8b8 #000000 #000000 0 1;
#X msg 424 76 1;
#X obj 116 101 bng 11 250 50 0 empty empty empty 17 7 0 10 #fcfcfc
#000000 #000000;
#X msg 559 438 8;
#X msg 382 339 1;
#X msg 324 332 1;
#X obj 100 100 cnv 12 28 13 \$0-resetswitch-send \$0-resetswitch-recv
Reset 2 8 0 9 #b8b8b8 #000000 0;
#X msg 261 415 8;
#X msg 832 88 \$1;
#X floatatom 816 111 5 0 0 0 - - - 0;
#X obj 776 531 symbol;
#X obj 819 215 t b s;
#X msg 815 238 bang;
#X obj 618 678 s;
#X obj 363 409 t b b;
#X obj 876 434 f;
#X obj 895 309 t b f;
#X obj 483 295 t f b b b;
#X obj 215 436 pack f f f;
#X obj 513 459 pack f f f;
#X obj 268 205 t b b b b b;
#X obj 831 63 \$0;
#X obj 905 78 \$1;
#X obj 489 271 f;
#X obj 484 250 bng 15 250 50 0 empty empty empty 17 7 0 10 #fcfcfc
#000000 #000000;
#X obj 815 130 t b f f f;
#X obj 474 51 del 10;
#X obj 473 75 bng 15 250 50 0 empty empty empty 17 7 0 10 #fcfcfc #000000
#000000;
#X floatatom 905 99 5 0 0 0 - - - 0;
#X obj 126 50 t b b;
#X obj 86 74 del 100;
#X msg 216 408 2;
#X msg 510 433 2;
#X msg 216 458 \; \$3-resetswitch-recv label_pos \$1 \$2;
#X msg 513 482 \; \$3-resetswitch-recv label_pos \$1 \$2;
#X msg 875 464 \; \$1-resetswitch-recv label Reset \;;
#X msg 489 336 \; \$1-resetswitch-recv label Reset \;;
#X msg 815 188 symbol \$1-processreset;
#X connect 0 0 1 1;
#X connect 0 0 4 0;
#X connect 0 0 7 0;
#X connect 0 0 11 1;
#X connect 1 0 35 0;
#X connect 2 0 5 0;
#X connect 3 0 1 0;
#X connect 4 0 2 0;
#X connect 5 0 3 0;
#X connect 6 0 8 0;
#X connect 7 0 6 0;
#X connect 8 0 10 0;
#X connect 9 0 11 0;
#X connect 10 0 9 0;
#X connect 11 0 39 0;
#X connect 12 0 44 0;
#X connect 13 0 0 0;
#X connect 14 0 36 0;
#X connect 15 0 29 0;
#X connect 16 0 0 0;
#X connect 17 0 0 0;
#X connect 18 0 34 1;
#X connect 19 0 15 0;
#X connect 20 0 15 0;
#X connect 22 0 33 1;
#X connect 23 0 24 0;
#X connect 24 0 37 1;
#X connect 24 0 40 0;
#X connect 25 0 28 1;
#X connect 26 0 27 0;
#X connect 26 1 25 1;
#X connect 27 0 25 0;
#X connect 29 0 28 0;
#X connect 29 1 27 0;
#X connect 30 0 50 0;
#X connect 30 0 33 2;
#X connect 30 0 34 2;
#X connect 31 0 30 0;
#X connect 31 1 30 1;
#X connect 32 0 51 0;
#X connect 32 1 19 0;
#X connect 32 2 47 0;
#X connect 32 3 18 0;
#X connect 33 0 48 0;
#X connect 34 0 49 0;
#X connect 35 1 20 0;
#X connect 35 2 46 0;
#X connect 35 3 22 0;
#X connect 35 4 30 0;
#X connect 36 0 23 0;
#X connect 37 0 43 0;
#X connect 38 0 32 0;
#X connect 39 0 38 0;
#X connect 40 0 41 0;
#X connect 40 1 52 0;
#X connect 40 2 31 0;
#X connect 40 3 38 1;
#X connect 41 0 42 0;
#X connect 42 0 16 0;
#X connect 44 0 45 0;
#X connect 44 1 13 0;
#X connect 45 0 13 0;
#X connect 46 0 33 0;
#X connect 47 0 34 0;
#X connect 52 0 26 0;
#X coords 0 -1 1 1 28 13 2 100 100;
#X restore 184 132 pd \$0-resetbtn;
#X obj 377 138 r \$0-processenter;
#X obj 106 101 cnv 15 105 15 \$0-numberdisplay-send \$0-numberdisplay-recv
0 3 8 0 14 #001488 #ffffff 0;
#X obj 491 298 s \$0-numentry;
#N canvas -10 201 545 399 \$0-updateDisplay 0;
#X obj 196 67 loadbang;
#X obj 195 90 \$0;
#X obj 180 209 s;
#X obj 198 183 symbol;
#X obj 200 134 t b s;
#X msg 198 158 bang;
#X msg 120 181 label \$1;
#X obj 120 158 l2s;
#X msg 195 112 symbol \$1-numberdisplay-recv;
#X obj 35 105 r \$0-numdisplay;
#X obj 50 80 r \$0-numentry;
#X obj 50 141 t b f;
#X obj 306 152 inlet;
#X msg 55 205 color 26 10;
#X msg 71 240 color 21 10;
#X obj 358 158 inlet;
#X obj 416 156 inlet;
#X obj 435 188 vsl 15 128 0 1000 0 0 empty empty empty 0 -9 0 10 #fcfcfc
#000000 #000000 0 1;
#X msg 347 352 color \$1 10;
#X floatatom 439 351 5 0 0 0 - - - 0;
#X obj 437 327 int;
#X msg 172 236 color 58 10;
#X obj 359 211 t b;
#X connect 0 0 1 0;
#X connect 1 0 8 0;
#X connect 3 0 2 1;
#X connect 4 0 5 0;
#X connect 4 1 3 1;
#X connect 5 0 3 0;
#X connect 6 0 2 0;
#X connect 7 0 6 0;
#X connect 8 0 4 0;
#X connect 9 0 11 0;
#X connect 10 0 7 0;
#X connect 10 0 11 0;
#X connect 11 0 13 0;
#X connect 11 1 7 0;
#X connect 12 0 14 0;
#X connect 13 0 2 0;
#X connect 14 0 2 0;
#X connect 15 0 13 0;
#X connect 16 0 22 0;
#X connect 17 0 18 0;
#X connect 17 0 20 0;
#X connect 20 0 19 0;
#X connect 21 0 2 0;
#X connect 22 0 21 0;
#X restore 644 159 pd \$0-updateDisplay;
#X obj 568 260 outlet;
#X obj 484 42 inlet;
#X obj 533 106 bng 15 250 50 0 empty empty reset 17 7 0 10 #fcfcfc
#000000 #000000;
#X obj 729 118 t b;
#X obj 601 92 bng 15 250 50 0 empty empty empty 17 7 0 10 #fcfcfc #000000
#000000;
#X obj 649 98 bng 15 250 50 0 empty empty empty 17 7 0 10 #fcfcfc #000000
#000000;
#X obj 627 261 outlet;
#X text 21 69 enter;
#X obj 40 92 key;
#X obj 89 264 sel 48 49 50 51 52 53 54 55 56 57;
#X obj 550 223 t b;
#X obj 470 263 t f b;
#X obj 541 277 del;
#X obj 197 233 tgl 15 0 empty empty empty 17 7 0 10 #fcfcfc #000000
#000000 0 1;
#X obj 128 229 spigot 0;
#X obj 196 211 r \$0-clickstatus;
#X obj 31 119 keyup;
#X obj 40 193 pack f f;
#X msg 43 235 \$2;
#X obj 483 67 route float reset disable enable bng_num;
#X obj 94 61 t b;
#X obj 124 59 t b;
#X obj 154 59 t b;
#X obj 184 59 t b;
#X obj 215 59 t b;
#X obj 245 60 t b;
#X obj 274 59 t b;
#X obj 303 59 t b;
#X obj 331 58 t b;
#X obj 361 59 t b;
#X obj 396 93 t b;
#X msg 387 15 bng_num entry;
#X obj 430 81 print;
#X obj 101 27 route 0 1 2 3 4 5 6 7 8 9;
#X obj 17 5 declare -lib clearessentials;
#X connect 0 0 18 0;
#X connect 0 0 20 0;
#X connect 0 0 31 0;
#X connect 1 0 0 0;
#X connect 1 1 6 0;
#X connect 1 2 28 0;
#X connect 1 2 27 0;
#X connect 1 3 38 0;
#X connect 2 0 3 0;
#X connect 4 0 5 0;
#X connect 4 0 34 0;
#X connect 6 0 39 0;
#X connect 21 0 4 0;
#X connect 24 0 2 0;
#X connect 29 0 47 0;
#X connect 30 0 23 0;
#X connect 31 0 27 1;
#X connect 32 0 27 0;
#X connect 33 0 27 1;
#X connect 36 0 45 1;
#X connect 37 0 17 0;
#X connect 37 1 8 0;
#X connect 37 2 9 0;
#X connect 37 3 10 0;
#X connect 37 4 11 0;
#X connect 37 5 13 0;
#X connect 37 6 12 0;
#X connect 37 7 14 0;
#X connect 37 8 15 0;
#X connect 37 9 16 0;
#X connect 38 0 32 0;
#X connect 39 0 26 0;
#X connect 39 0 19 0;
#X connect 39 1 40 0;
#X connect 40 0 27 2;
#X connect 41 0 42 1;
#X connect 42 0 37 0;
#X connect 43 0 41 0;
#X connect 44 0 45 0;
#X connect 45 0 46 0;
#X connect 46 0 42 0;
#X connect 47 0 1 1;
#X connect 47 1 30 0;
#X connect 47 2 32 0;
#X connect 47 3 33 0;
#X connect 47 4 61 0;
#X connect 48 0 17 0;
#X connect 49 0 8 0;
#X connect 50 0 9 0;
#X connect 51 0 10 0;
#X connect 52 0 11 0;
#X connect 53 0 13 0;
#X connect 54 0 12 0;
#X connect 55 0 14 0;
#X connect 56 0 15 0;
#X connect 57 0 16 0;
#X connect 58 0 22 0;
#X connect 59 0 47 0;
#X connect 61 0 48 0;
#X connect 61 1 49 0;
#X connect 61 2 50 0;
#X connect 61 3 51 0;
#X connect 61 4 52 0;
#X connect 61 5 53 0;
#X connect 61 6 54 0;
#X connect 61 7 55 0;
#X connect 61 8 56 0;
#X connect 61 9 57 0;
#X connect 61 10 58 0;
#X coords 0 -1 1 1 117 63 2 100 100;
