#N canvas 703 187 819 522 12;
#X obj 1733 276 tgl 15 0 empty empty empty 17 7 0 10 #fcfcfc #000000
#000000 0 1;
#X obj 1712 293 *~;
#X obj 1712 314 *~;
#X floatatom 1749 324 5 0 9 0 - - - 0;
#N canvas 0 0 542 988 \$0-noisePolyVoice 0;
#X obj 231 478 noise~;
#X obj 274 533 *~;
#X obj 231 502 *~ 0.2;
#X obj 287 459 line;
#X text 266 156 attack;
#X text 324 434 decay;
#X obj 287 295 delay 1000;
#X obj 290 483 hsl 80 12 0 1 0 0 empty empty empty -2 -8 0 10 #fcfcfc
#000000 #000000 0 1;
#X msg 268 174 1 \$1;
#X obj 318 228 t f f;
#X obj 288 337 f;
#X obj 288 314 bng 15 250 50 0 empty empty empty 17 7 0 10 #fcfcfc
#000000 #000000;
#X obj 267 253 t a b b;
#X floatatom 359 250 5 0 0 0 - - - 0;
#X obj 359 268 * 1000;
#X floatatom 329 391 5 0 0 0 - - - 0;
#X obj 286 274 bng 15 250 50 0 empty empty empty 17 7 0 10 #fcfcfc
#000000 #000000;
#X obj 288 410 pack 0 f;
#X msg 289 387 0;
#X msg 288 434 0 \$2;
#X obj 289 358 t b;
#X msg 309 173 1 1000;
#X obj 260 123 f;
#X obj 254 103 bng 15 250 50 0 empty empty empty 17 7 0 10 #fcfcfc
#000000 #000000;
#X floatatom 258 142 5 0 0 0 - - - 0;
#X text 354 173 test noise;
#X obj 164 49 inlet;
#X obj 225 628 outlet~;
#X obj 277 84 r \$0-attacknoise;
#X obj 317 206 r \$0-decaynoise;
#X connect 0 0 2 0;
#X connect 1 0 27 0;
#X connect 2 0 1 0;
#X connect 3 0 7 0;
#X connect 6 0 11 0;
#X connect 7 0 1 1;
#X connect 8 0 12 0;
#X connect 9 0 10 1;
#X connect 9 1 13 0;
#X connect 10 0 20 0;
#X connect 11 0 10 0;
#X connect 12 0 3 0;
#X connect 12 1 16 0;
#X connect 13 0 14 0;
#X connect 14 0 15 0;
#X connect 14 0 6 1;
#X connect 15 0 17 1;
#X connect 16 0 6 0;
#X connect 17 0 19 0;
#X connect 18 0 17 0;
#X connect 19 0 3 0;
#X connect 20 0 18 0;
#X connect 21 0 12 0;
#X connect 22 0 24 0;
#X connect 23 0 22 0;
#X connect 24 0 8 0;
#X connect 26 0 23 0;
#X connect 28 0 22 1;
#X connect 29 0 9 0;
#X restore 1715 231 pd \$0-noisePolyVoice \$1;
#X obj 1217 76 inlet;
#X obj 1057 478 outlet~;
#X floatatom 190 240 5 0 0 0 - - - 0;
#X obj 190 265 t f;
#X obj 228 267 symbol;
#X obj 234 221 t b s;
#X msg 230 244 bang;
#X obj 214 292 s;
#X obj 230 172 t f;
#X floatatom 359 263 5 0 0 0 - - - 0;
#X obj 359 288 t f;
#X obj 397 290 symbol;
#X obj 403 244 t b s;
#X msg 399 267 bang;
#X obj 383 315 s;
#X obj 399 195 t f;
#X floatatom 508 259 5 0 0 0 - - - 0;
#X obj 508 284 t f;
#X obj 546 286 symbol;
#X obj 552 240 t b s;
#X msg 548 263 bang;
#X obj 532 311 s;
#X obj 548 191 t f;
#X obj 100 100 cnv 15 100 85 empty empty empty 20 12 0 14 #606060 #fcfcfc
0;
#X obj 100 106 cnv 10 35 10 empty empty Noise 3 5 0 10 #606060 #fcfcfc
0;
#X obj 112 144 hsl 75 10 0 1000 0 0 \$0-noiselvl-send \$0-noiselvl-recv
Attack:2.0 1 5 0 10 #404040 #dcdcdc #fcfcfc 0 1;
#X obj 113 129 hsl 75 10 0 1 0 0 \$0-noiseattack-send \$0-noiseattack-recv
Decay:2.0 1 5 0 10 #404040 #dcdcdc #fcfcfc 0 1;
#X obj 112 159 hsl 75 10 0 1 0 0 \$0-noisevol-send \$0-noisevol-recv
Volume:2.0 1 5 0 10 #404040 #dcdcdc #fcfcfc 0 1;
#X obj 230 66 loadbang;
#X msg 230 141 \$1;
#X obj 293 104 t b b b;
#X msg 335 146 1;
#X msg 314 125 1000;
#X msg 423 139 0.5;
#N canvas 52 52 864 786 \$0-includeNoise-Toggle 0;
#X obj 102 102 tgl 12 0 empty empty empty 17 7 0 10 #606060 #000000
#dcdcdc 0 1;
#X obj 100 100 cnv 16 16 16 empty empty empty 20 12 0 14 #202020 #404040
0;
#X obj 103 103 cnv 10 10 10 \$0-includenoisetoggle-send \$0-includenoisetoggle-recv
empty 20 12 0 14 #fcfcfc #404040 0;
#X obj 171 442 f;
#X obj 171 420 t b f;
#X obj 100 206 spigot 0;
#X obj 145 162 tgl 15 0 empty empty empty 17 7 0 10 #fcfcfc #000000
#000000 0 1;
#X obj 145 139 change;
#X obj 145 116 == 0;
#X obj 216 372 tgl 15 0 empty empty empty 17 7 0 10 #fcfcfc #000000
#000000 0 1;
#X obj 171 345 change;
#X obj 171 395 spigot 0;
#X obj 171 322 == 0;
#X obj 171 366 t b f;
#X obj 171 462 t b b;
#X obj 100 251 f;
#X obj 100 229 t b f;
#X obj 100 271 t b b;
#X obj 145 184 t f f;
#X obj 56 129 tgl 15 0 empty empty empty 17 7 0 10 #fcfcfc #000000
#000000 0 1;
#X obj 55 150 t f b f;
#X obj 192 17 inlet;
#X obj 294 66 loadbang;
#X msg 144 94 0;
#X obj 376 108 \$1;
#X msg 377 133 \$1;
#X floatatom 361 156 5 0 0 0 - - - 0;
#X obj 364 260 t b s;
#X msg 360 283 bang;
#X obj 362 197 t f f;
#X obj 68 695 symbol;
#X obj 67 654 t b s;
#X msg 63 677 bang;
#X obj 51 716 s;
#X symbolatom 149 688 40 0 0 0 - - - 0;
#X obj 474 609 s;
#X obj 340 592 s;
#X msg 676 579 color 16;
#X obj 436 513 symbol;
#X msg 344 518 bang;
#X msg 394 519 \$1;
#X obj 345 539 f;
#X msg 343 560 color \$1;
#X obj 642 336 == 16;
#X obj 644 366 change;
#X obj 646 387 == 0;
#X obj 647 412 t b;
#X obj 651 439 bng 15 250 50 0 empty empty empty 17 7 0 10 #fcfcfc
#000000 #000000;
#X obj 650 473 tgl 15 0 empty empty empty 17 7 0 10 #fcfcfc #000000
#000000 0 1;
#X obj 603 494 spigot 0;
#X obj 742 405 change;
#X obj 745 451 t b;
#X obj 749 478 bng 15 250 50 0 empty empty empty 17 7 0 10 #fcfcfc
#000000 #000000;
#X obj 748 512 tgl 15 0 empty empty empty 17 7 0 10 #fcfcfc #000000
#000000 0 1;
#X obj 701 533 spigot 0;
#X obj 744 426 == 1;
#X obj 740 375 != 16;
#X msg 552 528 color 13;
#X obj 201 44 t b b;
#X obj 376 456 t b b f;
#X obj 289 98 \$0;
#X msg 288 119 \$1;
#X floatatom 284 148 5 0 0 0 - - - 0;
#X msg 362 234 symbol \$1-includenoisetoggle-recv;
#X msg 65 628 symbol \$1-includenoisetoggle;
#X obj 379 434 r NewUiColorColorNum;
#X obj 646 303 r NewUiColorColorNum;
#X obj 744 342 r NewUiColorColorNum;
#X obj 200 70 del;
#X msg 233 70 1;
#X obj 117 400 outlet;
#X connect 0 0 19 0;
#X connect 3 0 14 0;
#X connect 4 0 3 0;
#X connect 4 1 3 1;
#X connect 5 0 16 0;
#X connect 6 0 18 0;
#X connect 7 0 6 0;
#X connect 8 0 7 0;
#X connect 9 0 11 1;
#X connect 10 0 13 0;
#X connect 11 0 4 0;
#X connect 12 0 10 0;
#X connect 13 0 11 0;
#X connect 13 1 9 0;
#X connect 14 0 49 0;
#X connect 14 1 54 0;
#X connect 15 0 17 0;
#X connect 16 0 15 0;
#X connect 16 1 15 1;
#X connect 17 0 39 0;
#X connect 17 1 28 0;
#X connect 18 0 5 1;
#X connect 18 1 12 0;
#X connect 19 0 20 0;
#X connect 19 0 70 0;
#X connect 20 0 33 0;
#X connect 20 1 5 0;
#X connect 20 2 8 0;
#X connect 21 0 19 0;
#X connect 22 0 24 0;
#X connect 22 0 58 0;
#X connect 22 0 60 0;
#X connect 23 0 8 0;
#X connect 23 0 19 0;
#X connect 24 0 25 0;
#X connect 25 0 26 0;
#X connect 27 0 28 0;
#X connect 27 1 38 1;
#X connect 28 0 38 0;
#X connect 29 0 63 0;
#X connect 29 1 64 0;
#X connect 30 0 33 1;
#X connect 31 0 32 0;
#X connect 31 1 30 1;
#X connect 31 1 34 0;
#X connect 32 0 30 0;
#X connect 37 0 35 0;
#X connect 38 0 36 1;
#X connect 38 0 35 1;
#X connect 39 0 41 0;
#X connect 40 0 41 1;
#X connect 41 0 42 0;
#X connect 42 0 36 0;
#X connect 43 0 44 0;
#X connect 44 0 45 0;
#X connect 45 0 46 0;
#X connect 46 0 47 0;
#X connect 47 0 48 0;
#X connect 48 0 49 1;
#X connect 49 0 57 0;
#X connect 50 0 55 0;
#X connect 51 0 52 0;
#X connect 52 0 53 0;
#X connect 53 0 54 1;
#X connect 54 0 37 0;
#X connect 55 0 51 0;
#X connect 56 0 50 0;
#X connect 57 0 35 0;
#X connect 58 0 68 0;
#X connect 58 1 69 0;
#X connect 59 0 11 0;
#X connect 59 1 39 0;
#X connect 59 2 40 0;
#X connect 60 0 61 0;
#X connect 61 0 62 0;
#X connect 62 0 29 0;
#X connect 63 0 27 0;
#X connect 64 0 31 0;
#X connect 65 0 59 0;
#X connect 66 0 43 0;
#X connect 67 0 56 0;
#X connect 68 0 23 0;
#X connect 69 0 8 0;
#X coords 0 -1 1 1 16 16 2 100 100;
#X restore 181 103 pd \$0-includeNoise-Toggle \$1;
#X obj 230 120 \$0;
#X msg 230 195 symbol \$1-attacknoise;
#X msg 400 217 symbol \$1-decaynoise;
#X msg 549 213 symbol \$1-noisevolume;
#X obj 1749 306 r \$0-noisevolume;
#X obj 1733 254 r \$0-includenoisetoggle;
#X obj 1613 156 unpack f f;
#X obj 1680 182 sel 0;
#X obj 1713 209 bng 15 250 50 0 empty empty empty 17 7 0 10 #fcfcfc
#000000 #000000;
#X obj 47 69 ce_colorpicker;
#X obj 1192 475 outlet;
#X obj 1263 185 bng 15 250 50 0 empty empty get_datadump 17 7 0 10
#fcfcfc #000000 #000000;
#X floatatom 1222 369 5 0 0 0 - - - 0;
#X obj 1222 416 f;
#X obj 1222 391 t b f;
#X floatatom 1279 369 5 0 0 0 - - - 0;
#X obj 1279 416 f;
#X obj 1279 391 t b f;
#X floatatom 1339 367 5 0 0 0 - - - 0;
#X obj 1339 414 f;
#X obj 1339 389 t b f;
#X floatatom 1389 364 5 0 0 0 - - - 0;
#X obj 1389 411 f;
#X obj 1389 386 t b f;
#X obj 1196 165 del 200;
#X obj 1219 136 t b b b;
#X obj 978 232 f;
#X obj 1020 235 f;
#X obj 1021 207 t b;
#X obj 1084 267 f;
#X obj 1085 239 t b;
#X obj 1142 300 f;
#X obj 1143 272 t b;
#X obj 1261 233 t b b b b;
#X obj 1199 446 pack s f f f f;
#X msg 1284 311 get_volume;
#X msg 1292 336 get_state;
#X obj 976 196 t b;
#X msg 1259 261 get_decay;
#X msg 1268 288 get_attack;
#X msg 1195 206 symbol ce_noise;
#X obj 1217 103 route get_datadump get_decay get_attack get_volume
get_state inputmidi load_noise, f 68;
#X obj 1683 390 s \$0-presetdata-1;
#X obj 1698 413 s \$0-presetdata-2;
#X obj 1712 437 s \$0-presetdata-3;
#X obj 1724 458 s \$0-presetdata-4;
#X obj 138 -20 r \$0-presetdata-1;
#X obj 154 2 r \$0-presetdata-2;
#X obj 168 27 r \$0-presetdata-3;
#X obj 177 53 r \$0-presetdata-4;
#X obj 1642 360 unpack f f f f;
#X connect 0 0 1 1;
#X connect 1 0 2 0;
#X connect 2 0 6 0;
#X connect 3 0 2 1;
#X connect 4 0 1 0;
#X connect 5 0 81 0;
#X connect 7 0 8 0;
#X connect 8 0 12 0;
#X connect 9 0 12 1;
#X connect 10 0 11 0;
#X connect 10 1 9 1;
#X connect 11 0 9 0;
#X connect 13 0 41 0;
#X connect 14 0 15 0;
#X connect 15 0 19 0;
#X connect 16 0 19 1;
#X connect 17 0 18 0;
#X connect 17 1 16 1;
#X connect 18 0 16 0;
#X connect 20 0 42 0;
#X connect 21 0 22 0;
#X connect 22 0 26 0;
#X connect 23 0 26 1;
#X connect 24 0 25 0;
#X connect 24 1 23 1;
#X connect 25 0 23 0;
#X connect 27 0 43 0;
#X connect 30 0 7 0;
#X connect 30 0 69 1;
#X connect 31 0 14 0;
#X connect 31 0 67 1;
#X connect 32 0 21 0;
#X connect 32 0 71 1;
#X connect 33 0 35 0;
#X connect 33 0 40 0;
#X connect 34 0 13 0;
#X connect 34 0 27 0;
#X connect 34 0 20 0;
#X connect 35 0 38 0;
#X connect 35 1 37 0;
#X connect 35 2 36 0;
#X connect 36 0 31 0;
#X connect 37 0 30 0;
#X connect 38 0 32 0;
#X connect 39 0 66 1;
#X connect 40 0 34 0;
#X connect 41 0 10 0;
#X connect 42 0 17 0;
#X connect 43 0 24 0;
#X connect 44 0 3 0;
#X connect 45 0 0 0;
#X connect 46 1 47 0;
#X connect 47 1 48 0;
#X connect 48 0 4 0;
#X connect 51 0 73 0;
#X connect 52 0 54 0;
#X connect 53 0 74 1;
#X connect 54 0 53 0;
#X connect 54 1 53 1;
#X connect 55 0 57 0;
#X connect 56 0 74 2;
#X connect 57 0 56 0;
#X connect 57 1 56 1;
#X connect 58 0 60 0;
#X connect 59 0 74 3;
#X connect 60 0 59 0;
#X connect 60 1 59 1;
#X connect 61 0 63 0;
#X connect 62 0 74 4;
#X connect 63 0 62 0;
#X connect 63 1 62 1;
#X connect 64 0 80 0;
#X connect 65 0 64 0;
#X connect 65 2 51 0;
#X connect 66 0 52 0;
#X connect 67 0 55 0;
#X connect 68 0 67 0;
#X connect 69 0 58 0;
#X connect 70 0 69 0;
#X connect 71 0 61 0;
#X connect 72 0 71 0;
#X connect 73 0 78 0;
#X connect 73 1 79 0;
#X connect 73 2 75 0;
#X connect 73 3 76 0;
#X connect 74 0 50 0;
#X connect 75 0 81 0;
#X connect 76 0 81 0;
#X connect 77 0 66 0;
#X connect 78 0 81 0;
#X connect 79 0 81 0;
#X connect 80 0 74 0;
#X connect 81 0 65 0;
#X connect 81 1 68 0;
#X connect 81 2 70 0;
#X connect 81 3 72 0;
#X connect 81 4 77 0;
#X connect 81 5 46 0;
#X connect 81 6 90 0;
#X connect 86 0 39 0;
#X connect 87 0 31 0;
#X connect 88 0 30 0;
#X connect 89 0 32 0;
#X connect 90 0 82 0;
#X connect 90 1 83 0;
#X connect 90 2 84 0;
#X connect 90 3 85 0;
#X coords 0 -1 1 1 100 85 2 100 100;
