#N struct 1362-grapharray float x float x-space float color array graph
1362-oscgraph;
#N struct 1362-oscgraph float y;
#N canvas 714 165 484 416 12;
#X declare -lib clearessentials;
#X obj 100 100 cnv 15 210 55 empty empty empty 20 12 0 14 #404040 #404040
0;
#X obj 72 285 notein;
#X obj 99 493 stripnote;
#X obj 554 728 * 44.1;
#X obj 554 750 int;
#X obj 555 679 i;
#X obj 403 308 t a;
#X obj 404 332 unpack f f;
#X obj 494 337 sel 0 1;
#X obj 486 414 tgl 15 0 empty empty empty 17 7 0 10 #fcfcfc #000000
#000000 0 1;
#X obj 149 389 spigot 0;
#X obj 64 432 spigot 0;
#X obj 259 333 spigot 0;
#X obj 396 521 spigot 0;
#X obj 335 715 outlet;
#X msg 547 904 \; \$2-oscarray normalize;
#X obj 142 950 tabwrite~ \$0-oscarray;
#X obj 590 380 t b;
#X obj 605 471 pack f f f f;
#X obj 635 440 f;
#X obj 636 346 sel 0 127;
#X obj 637 374 bng 15 250 50 0 empty empty empty 17 7 0 10 #fcfcfc
#000000 #000000;
#X msg 697 404 0, f 5;
#X obj 571 657 r \$0-setinnerrelease;
#N canvas 26 26 450 300 \$0-writeoscpreview 0;
#X obj 184 237 outlet;
#X msg 155 160 set \$1;
#X msg 116 177 bang;
#X msg 271 147 stop;
#X obj 222 200 bng 15 250 50 0 empty empty empty 17 7 0 10 #fcfcfc
#000000 #000000;
#X msg 225 152 1;
#X obj 262 55 route 0;
#X obj 226 132 bng 15 250 50 0 empty empty empty 17 7 0 10 #fcfcfc
#000000 #000000;
#X msg 121 84 symbol \$1-oscarray;
#X obj 78 103 symbol;
#X msg 75 80 bang;
#X obj 116 55 r \$0-CID;
#X obj 275 79 del 10;
#X obj 272 117 t b b b;
#X obj 198 26 inlet;
#X obj 86 25 inlet;
#X obj 142 25 inlet;
#X obj 282 238 outlet;
#X obj 352 236 outlet;
#X msg 154 135 symbol \$1;
#X obj 218 108 del;
#X floatatom 342 85 5 0 0 0 - - - 0;
#X obj 344 178 bng 15 250 50 0 empty empty empty 17 7 0 10 #fcfcfc
#000000 #000000;
#X obj 74 207 bng 15 250 50 0 empty empty empty 17 7 0 10 #fcfcfc #000000
#000000;
#X obj 366 207 bng 15 250 50 0 empty empty empty 17 7 0 10 #fcfcfc
#000000 #000000;
#X obj 223 177 metro 10;
#X connect 1 0 0 0;
#X connect 2 0 0 0;
#X connect 2 0 23 0;
#X connect 3 0 25 0;
#X connect 4 0 3 0;
#X connect 4 0 0 0;
#X connect 4 0 17 0;
#X connect 5 0 25 0;
#X connect 6 0 12 0;
#X connect 6 1 21 0;
#X connect 6 1 20 0;
#X connect 7 0 5 0;
#X connect 8 0 9 1;
#X connect 9 0 19 0;
#X connect 10 0 9 0;
#X connect 11 0 8 0;
#X connect 12 0 13 0;
#X connect 13 0 3 0;
#X connect 13 1 18 0;
#X connect 13 1 24 0;
#X connect 14 0 6 0;
#X connect 15 0 2 0;
#X connect 16 0 10 0;
#X connect 19 0 1 0;
#X connect 20 0 7 0;
#X connect 21 0 22 0;
#X connect 25 0 4 0;
#X restore 313 679 pd \$0-writeoscpreview;
#X obj 782 657 nbx 5 14 0 999 0 1 \$0-color empty color 0 -8 0 10 #fcfcfc
#000000 #000000 233 256;
#N canvas 82 250 435 136 \$0-oscarraydisplay 0;
#X obj 37 78 plot graph color 2 0 0 x-space;
#X obj 45 31 struct \$0-grapharray float x float x-space float color
array graph \$0-oscgraph;
#X restore 783 705 pd \$0-oscarraydisplay;
#N canvas 709 254 261 169 \$0-oscgraph 0;
#X obj 34 31 struct \$0-oscgraph float y;
#X restore 783 728 pd \$0-oscgraph;
#X obj 554 705 + 1000;
#X obj 783 840 s pd-\$0-oscdisplay;
#N canvas 0 184 981 657 \$0-createosc 0;
#X msg 74 90 clear;
#X text 255 114 <- Clear subpatch;
#X obj 189 205 pointer;
#X text 255 254 <- Get pointer to subpatch;
#X obj 189 159 \$0;
#X text 255 230 <- Create array;
#X text 250 367 <- Set array size;
#X obj 47 67 t f b;
#X obj 47 136 t f b b;
#X obj 47 343 t f f;
#X obj 47 274 t f f;
#X msg 66 205 999;
#X obj 66 412 until;
#X obj 66 435 f;
#X obj 96 435 + 1;
#X msg 105 412 0;
#X obj 66 458 t f f;
#X obj 47 573 f;
#X obj 62 550 r \$0-color;
#X text 255 323 <- Set x-spacing;
#X text 255 597 <- Set color;
#X text 255 530 <- Set y values;
#X floatatom 66 503 10 0 0 0 - - - 0;
#X obj 66 481 tabread4 \$0-oscarray;
#X obj 52 3 r \$0-oscarraysize;
#X obj 66 527 set \$0-oscgraph y;
#X obj 74 113 s pd-\$0-oscdisplay;
#X msg 188 182 traverse pd-\$1-oscdisplay \, bang;
#X obj 66 251 s \$0-oscarrayPointer;
#X obj 222 297 r \$0-oscarrayPointer;
#X obj 233 345 r \$0-oscarrayPointer;
#X obj 324 481 r \$0-oscarrayPointer;
#X obj 181 573 r \$0-oscarrayPointer;
#X obj 66 228 append \$0-grapharray color;
#X obj 75 320 set \$0-grapharray x-space;
#X obj 74 369 setsize \$0-grapharray graph;
#X obj 165 504 element \$0-grapharray graph;
#X obj 46 596 set \$0-grapharray color;
#X floatatom 50 45 5 0 0 0 - - - 0;
#X obj 75 297 expr 2048/$f1;
#X floatatom 166 441 5 0 0 0 - - - 0;
#X msg 166 422 1;
#X obj 277 435 r \$0-oscarrayPointer;
#X obj 47 389 t b f b b;
#X obj 166 462 set \$0-grapharray x;
#X obj 53 24 t f;
#X connect 0 0 26 0;
#X connect 2 0 33 1;
#X connect 4 0 27 0;
#X connect 7 0 8 0;
#X connect 7 1 0 0;
#X connect 8 0 10 0;
#X connect 8 1 11 0;
#X connect 8 2 4 0;
#X connect 9 0 43 0;
#X connect 9 1 35 0;
#X connect 10 0 9 0;
#X connect 10 1 39 0;
#X connect 11 0 33 0;
#X connect 12 0 13 0;
#X connect 13 0 14 0;
#X connect 13 0 16 0;
#X connect 14 0 13 1;
#X connect 15 0 13 1;
#X connect 16 0 23 0;
#X connect 16 1 36 0;
#X connect 17 0 37 0;
#X connect 18 0 17 0;
#X connect 22 0 25 0;
#X connect 23 0 22 0;
#X connect 24 0 45 0;
#X connect 27 0 2 0;
#X connect 29 0 34 1;
#X connect 30 0 35 1;
#X connect 31 0 36 1;
#X connect 32 0 37 1;
#X connect 33 0 28 0;
#X connect 36 0 25 1;
#X connect 38 0 7 0;
#X connect 39 0 34 0;
#X connect 40 0 44 0;
#X connect 41 0 40 0;
#X connect 42 0 44 1;
#X connect 43 0 17 0;
#X connect 43 1 12 0;
#X connect 43 2 15 0;
#X connect 45 0 38 0;
#X restore 783 682 pd \$0-createosc;
#N canvas 558 288 1284 729 \$0-resizeoscgraphic 0;
#X obj 67 172 outlet;
#X obj 66 131 nbx 10 14 1 1e+37 0 1 \$0-oscarraysize empty \$0-envarray_size
0 -8 0 10 #fcfcfc #000000 #000000 2048 256;
#X obj 65 96 f;
#X obj 65 72 t b f;
#X obj 64 43 inlet;
#X msg 55 146 donecanvasdialog 1 0 2 0 -3 \$1 1 200 40 0 0 \, dirty
0;
#X connect 1 0 5 0;
#X connect 2 0 1 0;
#X connect 3 0 2 0;
#X connect 3 1 2 1;
#X connect 4 0 3 0;
#X connect 5 0 0 0;
#X restore 783 817 pd \$0-resizeoscgraphic;
#X obj 784 767 nbx 10 14 1 1e+37 0 1 \$0-oscarraysize empty \$0-oscarray_size
0 -8 0 10 #fcfcfc #000000 #000000 2048 256;
#X obj 559 821 pack f f;
#X obj 612 796 r \$0-CID, f 9;
#X msg 562 863 \; \$2-oscarray resize \$1;
#X obj 759 398 bng 15 250 50 0 empty empty empty 17 7 0 10 #fcfcfc
#000000 #000000;
#X obj 630 498 outlet;
#X obj 767 620 r \$0-loadedRGB-color;
#X msg 553 787 2048;
#X obj 727 485 s \$0-stoppednotebng;
#X obj 69 320 t f;
#X obj 96 322 t f;
#X obj 126 320 t f;
#X obj 153 322 t f;
#X obj 335 597 t f;
#N canvas 213 342 450 300 \$0-metrobangoscarray 0;
#X msg 129 151 stop;
#X obj 83 214 bng 15 250 50 0 empty empty empty 17 7 0 10 #fcfcfc #000000
#000000;
#X msg 98 151 1;
#X obj 130 79 route 0;
#X obj 96 130 bng 15 250 50 0 empty empty empty 17 7 0 10 #fcfcfc #000000
#000000;
#X obj 128 129 t b b b;
#X obj 129 27 inlet;
#X obj 129 53 t f;
#X obj 99 247 outlet;
#X obj 96 176 metro 10;
#X obj 167 218 t b;
#X obj 136 104 del;
#X connect 0 0 9 0;
#X connect 1 0 10 0;
#X connect 2 0 9 0;
#X connect 3 0 11 0;
#X connect 3 1 4 0;
#X connect 4 0 2 0;
#X connect 5 0 0 0;
#X connect 6 0 7 0;
#X connect 7 0 3 0;
#X connect 9 0 1 0;
#X connect 9 0 0 0;
#X connect 10 0 8 0;
#X connect 11 0 5 0;
#X restore 335 619 pd \$0-metrobangoscarray;
#X obj 97 526 t b f f f;
#X obj 112 812 *~ 2;
#X obj 110 835 -~ 1;
#X obj 783 789 t f;
#X obj 806 415 s \$0-triggerlfoON;
#X obj 805 384 s \$0-triggerlfoOFF;
#X obj 41 219 table \$0-oscarray;
#X obj 407 220 inlet;
#X obj 512 218 inlet~;
#X obj 405 279 route inputmidi setmidistate setoscarray;
#X floatatom 70 353 5 0 0 0 - - - 0;
#X obj 121 672 tgl 15 0 empty empty empty 17 7 0 10 #fcfcfc #000000
#000000 0 1;
#X obj 104 694 *~;
#X msg 5 602 1;
#X msg 153 645 0;
#X obj 153 621 r \$0-triggerlfoOFF;
#X obj 5 575 r \$0-triggerlfoON;
#X floatatom 116 348 5 0 0 0 - - - 0;
#X floatatom 164 347 5 0 0 0 - - - 0;
#X msg 666 206 setmidistate 1;
#X msg 658 245 setmidistate 0;
#X obj 495 308 t a;
#X obj 103 107 cnv 15 200 40 empty empty empty 20 12 0 14 #202020 #404040
0;
#N canvas 192 311 869 374 \$0-oscdisplay 0;
#X scalar 1362-grapharray 0 1 233 \; 0 \; 0 \; 0 \; 0 \; 0 \; 0 \;
0 \; 0 \; 0 \; 0 \; 0 \; 0 \; 0 \; 0 \; 0 \; 0 \; 0 \; 0 \; 0 \; 0
\; 0 \; 0 \; 0 \; 0 \; 0 \; 0 \; 0 \; 0 \; 0 \; 0 \; 0 \; 0 \; 0 \;
0 \; 0 \; 0 \; 0 \; 0 \; 0 \; 0 \; 0 \; 0 \; 0 \; 0 \; 0 \; 0 \; 0
\; 0 \; 0 \; 0 \; 0 \; 0 \; 0 \; 0 \; 0 \; 0 \; 0 \; 0 \; 0 \; 0 \;
0 \; 0 \; 0 \; 0 \; 0 \; 0 \; 0 \; 0 \; 0 \; 0 \; 0 \; 0 \; 0 \; 0
\; 0 \; 0 \; 0 \; 0 \; 0 \; 0 \; 0 \; 0 \; 0 \; 0 \; 0 \; 0 \; 0 \;
0 \; 0 \; 0 \; 0 \; 0 \; 0 \; 0 \; 0 \; 0 \; 0 \; 0 \; 0 \; 0 \; 0
\; 0 \; 0 \; 0 \; 0 \; 0 \; 0 \; 0 \; 0 \; 0 \; 0 \; 0 \; 0 \; 0 \;
0 \; 0 \; 0 \; 0 \; 0 \; 0 \; 0 \; 0 \; 0 \; 0 \; 0 \; 0 \; 0 \; 0
\; 0 \; 0 \; 0 \; 0 \; 0 \; 0 \; 0 \; 0 \; 0 \; 0 \; 0 \; 0 \; 0 \;
0 \; 0 \; 0 \; 0 \; 0 \; 0 \; 0 \; 0 \; 0 \; 0 \; 0 \; 0 \; 0 \; 0
\; 0 \; 0 \; 0 \; 0 \; 0 \; 0 \; 0 \; 0 \; 0 \; 0 \; 0 \; 0 \; 0 \;
0 \; 0 \; 0 \; 0 \; 0 \; 0 \; 0 \; 0 \; 0 \; 0 \; 0 \; 0 \; 0 \; 0
\; 0 \; 0 \; 0 \; 0 \; 0 \; 0 \; 0 \; 0 \; 0 \; 0 \; 0 \; 0 \; 0 \;
0 \; 0 \; 0 \; 0 \; 0 \; 0 \; 0 \; 0 \; 0 \; 0 \; 0 \; 0 \; 0 \; 0
\; 0 \; 0 \; 0 \; 0 \; 0 \; 0 \; 0 \; 0 \; 0 \; 0 \; 0 \; 0 \; 0 \;
0 \; 0 \; 0 \; 0 \; 0 \; 0 \; 0 \; 0 \; 0 \; 0 \; 0 \; 0 \; 0 \; 0
\; 0 \; 0 \; 0 \; 0 \; 0 \; 0 \; 0 \; 0 \; 0 \; 0 \; 0 \; 0 \; 0 \;
0 \; 0 \; 0 \; 0 \; 0 \; 0 \; 0 \; 0 \; 0 \; 0 \; 0 \; 0 \; 0 \; 0
\; 0 \; 0 \; 0 \; 0 \; 0 \; 0 \; 0 \; 0 \; 0 \; 0 \; 0 \; 0 \; 0 \;
0 \; 0 \; 0 \; 0 \; 0 \; 0 \; 0 \; 0 \; 0 \; 0 \; 0 \; 0 \; 0 \; 0
\; 0 \; 0 \; 0 \; 0 \; 0 \; 0 \; 0 \; 0 \; 0 \; 0 \; 0 \; 0 \; 0 \;
0 \; 0 \; 0 \; 0 \; 0 \; 0 \; 0 \; 0 \; 0 \; 0 \; 0 \; 0 \; 0 \; 0
\; 0 \; 0 \; 0 \; 0 \; 0 \; 0 \; 0 \; 0 \; 0 \; 0 \; 0 \; 0 \; 0 \;
0 \; 0 \; 0 \; 0 \; 0 \; 0 \; 0 \; 0 \; 0 \; 0 \; 0 \; 0 \; 0 \; 0
\; 0 \; 0 \; 0 \; 0 \; 0 \; 0 \; 0 \; 0 \; 0 \; 0 \; 0 \; 0 \; 0 \;
0 \; 0 \; 0 \; 0 \; 0 \; 0 \; 0 \; 0 \; 0 \; 0 \; 0 \; 0 \; 0 \; 0
\; 0 \; 0 \; 0 \; 0 \; 0 \; 0 \; 0 \; 0 \; 0 \; 0 \; 0 \; 0 \; 0 \;
0 \; 0 \; 0 \; 0 \; 0 \; 0 \; 0 \; 0 \; 0 \; 0 \; 0 \; 0 \; 0 \; 0
\; 0 \; 0 \; 0 \; 0 \; 0 \; 0 \; 0 \; 0 \; 0 \; 0 \; 0 \; 0 \; 0 \;
0 \; 0 \; 0 \; 0 \; 0 \; 0 \; 0 \; 0 \; 0 \; 0 \; 0 \; 0 \; 0 \; 0
\; 0 \; 0 \; 0 \; 0 \; 0 \; 0 \; 0 \; 0 \; 0 \; 0 \; 0 \; 0 \; 0 \;
0 \; 0 \; 0 \; 0 \; 0 \; 0 \; 0 \; 0 \; 0 \; 0 \; 0 \; 0 \; 0 \; 0
\; 0 \; 0 \; 0 \; 0 \; 0 \; 0 \; 0 \; 0 \; 0 \; 0 \; 0 \; 0 \; 0 \;
0 \; 0 \; 0 \; 0 \; 0 \; 0 \; 0 \; 0 \; 0 \; 0 \; 0 \; 0 \; 0 \; 0
\; 0 \; 0 \; 0 \; 0 \; 0 \; 0 \; 0 \; 0 \; 0 \; 0 \; 0 \; 0 \; 0 \;
0 \; 0 \; 0 \; 0 \; 0 \; 0 \; 0 \; 0 \; 0 \; 0 \; 0 \; 0 \; 0 \; 0
\; 0 \; 0 \; 0 \; 0 \; 0 \; 0 \; 0 \; 0 \; 0 \; 0 \; 0 \; 0 \; 0 \;
0 \; 0 \; 0 \; 0 \; 0 \; 0 \; 0 \; 0 \; 0 \; 0 \; 0 \; 0 \; 0 \; 0
\; 0 \; 0 \; 0 \; 0 \; 0 \; 0 \; 0 \; 0 \; 0 \; 0 \; 0 \; 0 \; 0 \;
0 \; 0 \; 0 \; 0 \; 0 \; 0 \; 0 \; 0 \; 0 \; 0 \; 0 \; 0 \; 0 \; 0
\; 0 \; 0 \; 0 \; 0 \; 0 \; 0 \; 0 \; 0 \; 0 \; 0 \; 0 \; 0 \; 0 \;
0 \; 0 \; 0 \; 0 \; 0 \; 0 \; 0 \; 0 \; 0 \; 0 \; 0 \; 0 \; 0 \; 0
\; 0 \; 0 \; 0 \; 0 \; 0 \; 0 \; 0 \; 0 \; 0 \; 0 \; 0 \; 0 \; 0 \;
0 \; 0 \; 0 \; 0 \; 0 \; 0 \; 0 \; 0 \; 0 \; 0 \; 0 \; 0 \; 0 \; 0
\; 0 \; 0 \; 0 \; 0 \; 0 \; 0 \; 0 \; 0 \; 0 \; 0 \; 0 \; 0 \; 0 \;
0 \; 0 \; 0 \; 0 \; 0 \; 0 \; 0 \; 0 \; 0 \; 0 \; 0 \; 0 \; 0 \; 0
\; 0 \; 0 \; 0 \; 0 \; 0 \; 0 \; 0 \; 0 \; 0 \; 0 \; 0 \; 0 \; 0 \;
0 \; 0 \; 0 \; 0 \; 0 \; 0 \; 0 \; 0 \; 0 \; 0 \; 0 \; 0 \; 0 \; 0
\; 0 \; 0 \; 0 \; 0 \; 0 \; 0 \; 0 \; 0 \; 0 \; 0 \; 0 \; 0 \; 0 \;
0 \; 0 \; 0 \; 0 \; 0 \; 0 \; 0 \; 0 \; 0 \; 0 \; 0 \; 0 \; 0 \; 0
\; 0 \; 0 \; 0 \; 0 \; 0 \; 0 \; 0 \; 0 \; 0 \; 0 \; 0 \; 0 \; 0 \;
0 \; 0 \; 0 \; 0 \; 0 \; 0 \; 0 \; 0 \; 0 \; 0 \; 0 \; 0 \; 0 \; 0
\; 0 \; 0 \; 0 \; 0 \; 0 \; 0 \; 0 \; 0 \; 0 \; 0 \; 0 \; 0 \; 0 \;
0 \; 0 \; 0 \; 0 \; 0 \; 0 \; 0 \; 0 \; 0 \; 0 \; 0 \; 0 \; 0 \; 0
\; 0 \; 0 \; 0 \; 0 \; 0 \; 0 \; 0 \; 0 \; 0 \; 0 \; 0 \; 0 \; 0 \;
0 \; 0 \; 0 \; 0 \; 0 \; 0 \; 0 \; 0 \; 0 \; 0 \; 0 \; 0 \; 0 \; 0
\; 0 \; 0 \; 0 \; 0 \; 0 \; 0 \; 0 \; 0 \; 0 \; 0 \; 0 \; 0 \; 0 \;
0 \; 0 \; 0 \; 0 \; 0 \; 0 \; 0 \; 0 \; 0 \; 0 \; 0 \; 0 \; 0 \; 0
\; 0 \; 0 \; 0 \; 0 \; 0 \; 0 \; 0 \; 0 \; 0 \; 0 \; 0 \; 0 \; 0 \;
0 \; 0 \; 0 \; 0 \; 0 \; 0 \; 0 \; 0 \; 0 \; 0 \; 0 \; 0 \; 0 \; 0
\; 0 \; 0 \; 0 \; 0 \; 0 \; 0 \; 0 \; 0 \; 0 \; 0 \; 0 \; 0 \; 0 \;
0 \; 0 \; 0 \; 0 \; 0 \; 0 \; 0 \; 0 \; 0 \; 0 \; 0 \; 0 \; 0 \; 0
\; 0 \; 0 \; 0 \; 0 \; 0 \; 0 \; 0 \; 0 \; 0 \; 0 \; 0 \; 0 \; 0 \;
0 \; 0 \; 0 \; 0 \; 0 \; 0 \; 0 \; 0 \; 0 \; 0 \; 0 \; 0 \; 0 \; 0
\; 0 \; 0 \; 0 \; 0 \; 0 \; 0 \; 0 \; 0 \; 0 \; 0 \; 0 \; 0 \; 0 \;
0 \; 0 \; 0 \; 0 \; 0 \; 0 \; 0 \; 0 \; 0 \; 0 \; 0 \; 0 \; 0 \; 0
\; 0 \; 0 \; 0 \; 0 \; 0 \; 0 \; 0 \; 0 \; 0 \; 0 \; 0 \; 0 \; 0 \;
0 \; 0 \; 0 \; 0 \; 0 \; 0 \; 0 \; 0 \; 0 \; 0 \; 0 \; 0 \; 0 \; 0
\; 0 \; 0 \; 0 \; 0 \; 0 \; 0 \; 0 \; 0 \; 0 \; 0 \; 0 \; 0 \; 0 \;
0 \; 0 \; 0 \; 0 \; 0 \; 0 \; 0 \; 0 \; 0 \; 0 \; 0 \; 0 \; 0 \; 0
\; 0 \; 0 \; 0 \; 0 \; 0 \; 0 \; 0 \; 0 \; 0 \; 0 \; 0 \; 0 \; 0 \;
0 \; 0 \; 0 \; 0 \; 0 \; 0 \; 0 \; 0 \; 0 \; 0 \; 0 \; 0 \; 0 \; 0
\; 0 \; 0 \; 0 \; 0 \; 0 \; 0 \; 0 \; 0 \; 0 \; 0 \; 0 \; 0 \; 0 \;
0 \; 0 \; 0 \; 0 \; 0 \; 0 \; 0 \; 0 \; 0 \; 0 \; 0 \; 0 \; 0 \; 0
\; 0 \; 0 \; 0 \; 0 \; 0 \; 0 \; 0 \; 0 \; 0 \; 0 \; 0 \; 0 \; 0 \;
0 \; 0 \; 0 \; 0 \; 0 \; 0 \; 0 \; 0 \; 0 \; 0 \; 0 \; 0 \; 0 \; 0
\; 0 \; 0 \; 0 \; 0 \; 0 \; 0 \; 0 \; 0 \; 0 \; 0 \; 0 \; 0 \; 0 \;
0 \; 0 \; 0 \; 0 \; 0 \; 0 \; 0 \; 0 \; 0 \; 0 \; 0 \; 0 \; 0 \; 0
\; 0 \; 0 \; 0 \; 0 \; 0 \; 0 \; 0 \; 0 \; 0 \; 0 \; 0 \; 0 \; 0 \;
0 \; 0 \; 0 \; 0 \; 0 \; 0 \; 0 \; 0 \; 0 \; 0 \; 0 \; 0 \; 0 \; 0
\; 0 \; 0 \; 0 \; 0 \; 0 \; 0 \; 0 \; 0 \; 0 \; 0 \; 0 \; 0 \; 0 \;
0 \; 0 \; 0 \; 0 \; 0 \; 0 \; 0 \; 0 \; 0 \; 0 \; 0 \; 0 \; 0 \; 0
\; 0 \; 0 \; 0 \; 0 \; 0 \; 0 \; 0 \; 0 \; 0 \; 0 \; 0 \; 0 \; 0 \;
0 \; 0 \; 0 \; 0 \; 0 \; 0 \; 0 \; 0 \; 0 \; 0 \; 0 \; 0 \; 0 \; 0
\; 0 \; 0 \; 0 \; 0 \; 0 \; 0 \; 0 \; 0 \; 0 \; 0 \; 0 \; 0 \; 0 \;
0 \; 0 \; 0 \; 0 \; 0 \; 0 \; 0 \; 0 \; 0 \; 0 \; 0 \; 0 \; 0 \; 0
\; 0 \; 0 \; 0 \; 0 \; 0 \; 0 \; 0 \; 0 \; 0 \; 0 \; 0 \; 0 \; 0 \;
0 \; 0 \; 0 \; 0 \; 0 \; 0 \; 0 \; 0 \; 0 \; 0 \; 0 \; 0 \; 0 \; 0
\; 0 \; 0 \; 0 \; 0 \; 0 \; 0 \; 0 \; 0 \; 0 \; 0 \; 0 \; 0 \; 0 \;
0 \; 0 \; 0 \; 0 \; 0 \; 0 \; 0 \; 0 \; 0 \; 0 \; 0 \; 0 \; 0 \; 0
\; 0 \; 0 \; 0 \; 0 \; 0 \; 0 \; 0 \; 0 \; 0 \; 0 \; 0 \; 0 \; 0 \;
0 \; 0 \; 0 \; 0 \; 0 \; 0 \; 0 \; 0 \; 0 \; 0 \; 0 \; 0 \; 0 \; 0
\; 0 \; 0 \; 0 \; 0 \; 0 \; 0 \; 0 \; 0 \; 0 \; 0 \; 0 \; 0 \; 0 \;
0 \; 0 \; 0 \; 0 \; 0 \; 0 \; 0 \; 0 \; 0 \; 0 \; 0 \; 0 \; 0 \; 0
\; 0 \; 0 \; 0 \; 0 \; 0 \; 0 \; 0 \; 0 \; 0 \; 0 \; 0 \; 0 \; 0 \;
0 \; 0 \; 0 \; 0 \; 0 \; 0 \; 0 \; 0 \; 0 \; 0 \; 0 \; 0 \; 0 \; 0
\; 0 \; 0 \; 0 \; 0 \; 0 \; 0 \; 0 \; 0 \; 0 \; 0 \; 0 \; 0 \; 0 \;
0 \; 0 \; 0 \; 0 \; 0 \; 0 \; 0 \; 0 \; 0 \; 0 \; 0 \; 0 \; 0 \; 0
\; 0 \; 0 \; 0 \; 0 \; 0 \; 0 \; 0 \; 0 \; 0 \; 0 \; 0 \; 0 \; 0 \;
0 \; 0 \; 0 \; 0 \; 0 \; 0 \; 0 \; 0 \; 0 \; 0 \; 0 \; 0 \; 0 \; 0
\; 0 \; 0 \; 0 \; 0 \; 0 \; 0 \; 0 \; 0 \; 0 \; 0 \; 0 \; 0 \; 0 \;
0 \; 0 \; 0 \; 0 \; 0 \; 0 \; 0 \; 0 \; 0 \; 0 \; 0 \; 0 \; 0 \; 0
\; 0 \; 0 \; 0 \; 0 \; 0 \; 0 \; 0 \; 0 \; 0 \; 0 \; 0 \; 0 \; 0 \;
0 \; 0 \; 0 \; 0 \; 0 \; 0 \; 0 \; 0 \; 0 \; 0 \; 0 \; 0 \; 0 \; 0
\; 0 \; 0 \; 0 \; 0 \; 0 \; 0 \; 0 \; 0 \; 0 \; 0 \; 0 \; 0 \; 0 \;
0 \; 0 \; 0 \; 0 \; 0 \; 0 \; 0 \; 0 \; 0 \; 0 \; 0 \; 0 \; 0 \; 0
\; 0 \; 0 \; 0 \; 0 \; 0 \; 0 \; 0 \; 0 \; 0 \; 0 \; 0 \; 0 \; 0 \;
0 \; 0 \; 0 \; 0 \; 0 \; 0 \; 0 \; 0 \; 0 \; 0 \; 0 \; 0 \; 0 \; 0
\; 0 \; 0 \; 0 \; 0 \; 0 \; 0 \; 0 \; 0 \; 0 \; 0 \; 0 \; 0 \; 0 \;
0 \; 0 \; 0 \; 0 \; 0 \; 0 \; 0 \; 0 \; 0 \; 0 \; 0 \; 0 \; 0 \; 0
\; 0 \; 0 \; 0 \; 0 \; 0 \; 0 \; 0 \; 0 \; 0 \; 0 \; 0 \; 0 \; 0 \;
0 \; 0 \; 0 \; 0 \; 0 \; 0 \; 0 \; 0 \; 0 \; 0 \; 0 \; 0 \; 0 \; 0
\; 0 \; 0 \; 0 \; 0 \; 0 \; 0 \; 0 \; 0 \; 0 \; 0 \; 0 \; 0 \; 0 \;
0 \; 0 \; 0 \; 0 \; 0 \; 0 \; 0 \; 0 \; 0 \; 0 \; 0 \; 0 \; 0 \; 0
\; 0 \; 0 \; 0 \; 0 \; 0 \; 0 \; 0 \; 0 \; 0 \; 0 \; 0 \; 0 \; 0 \;
0 \; 0 \; 0 \; 0 \; 0 \; 0 \; 0 \; 0 \; 0 \; 0 \; 0 \; 0 \; 0 \; 0
\; 0 \; 0 \; 0 \; 0 \; 0 \; 0 \; 0 \; 0 \; 0 \; 0 \; 0 \; 0 \; 0 \;
0 \; 0 \; 0 \; 0 \; 0 \; 0 \; 0 \; 0 \; 0 \; 0 \; 0 \; 0 \; 0 \; 0
\; 0 \; 0 \; 0 \; 0 \; 0 \; 0 \; 0 \; 0 \; 0 \; 0 \; 0 \; 0 \; 0 \;
0 \; 0 \; 0 \; 0 \; 0 \; 0 \; 0 \; 0 \; 0 \; 0 \; 0 \; 0 \; 0 \; 0
\; 0 \; 0 \; 0 \; 0 \; 0 \; 0 \; 0 \; 0 \; 0 \; 0 \; 0 \; 0 \; 0 \;
0 \; 0 \; 0 \; 0 \; 0 \; 0 \; 0 \; 0 \; 0 \; 0 \; 0 \; 0 \; 0 \; 0
\; 0 \; 0 \; 0 \; 0 \; 0 \; 0 \; 0 \; 0 \; 0 \; 0 \; 0 \; 0 \; 0 \;
0 \; 0 \; 0 \; 0 \; 0 \; 0 \; 0 \; 0 \; 0 \; 0 \; 0 \; 0 \; 0 \; 0
\; 0 \; 0 \; 0 \; 0 \; 0 \; 0 \; 0 \; 0 \; 0 \; 0 \; 0 \; 0 \; 0 \;
0 \; 0 \; 0 \; 0 \; 0 \; 0 \; 0 \; 0 \; 0 \; 0 \; 0 \; 0 \; 0 \; 0
\; 0 \; 0 \; 0 \; 0 \; 0 \; 0 \; 0 \; 0 \; 0 \; 0 \; 0 \; 0 \; 0 \;
0 \; 0 \; 0 \; 0 \; 0 \; 0 \; 0 \; 0 \; 0 \; 0 \; 0 \; 0 \; 0 \; 0
\; 0 \; 0 \; 0 \; 0 \; 0 \; 0 \; 0 \; 0 \; 0 \; 0 \; 0 \; 0 \; 0 \;
0 \; 0 \; 0 \; 0 \; 0 \; 0 \; 0 \; 0 \; 0 \; 0 \; 0 \; 0 \; 0 \; 0
\; 0 \; 0 \; 0 \; 0 \; 0 \; 0 \; 0 \; 0 \; 0 \; 0 \; 0 \; 0 \; 0 \;
0 \; 0 \; 0 \; 0 \; 0 \; 0 \; 0 \; 0 \; 0 \; 0 \; 0 \; 0 \; 0 \; 0
\; 0 \; 0 \; 0 \; 0 \; 0 \; 0 \; 0 \; 0 \; 0 \; 0 \; 0 \; 0 \; 0 \;
0 \; 0 \; 0 \; 0 \; 0 \; 0 \; 0 \; 0 \; 0 \; 0 \; 0 \; 0 \; 0 \; 0
\; 0 \; 0 \; 0 \; 0 \; 0 \; 0 \; 0 \; 0 \; 0 \; 0 \; 0 \; 0 \; 0 \;
0 \; 0 \; 0 \; 0 \; 0 \; 0 \; 0 \; 0 \; 0 \; 0 \; 0 \; 0 \; 0 \; 0
\; 0 \; 0 \; 0 \; 0 \; 0 \; 0 \; 0 \; 0 \; 0 \; 0 \; 0 \; 0 \; 0 \;
0 \; 0 \; 0 \; 0 \; 0 \; 0 \; 0 \; 0 \; 0 \; 0 \; 0 \; 0 \; 0 \; 0
\; 0 \; 0 \; 0 \; 0 \; 0 \; 0 \; 0 \; 0 \; 0 \; 0 \; 0 \; 0 \; 0 \;
0 \; 0 \; 0 \; 0 \; 0 \; 0 \; 0 \; 0 \; 0 \; 0 \; 0 \; 0 \; 0 \; 0
\; 0 \; 0 \; 0 \; 0 \; 0 \; 0 \; 0 \; 0 \; 0 \; 0 \; 0 \; 0 \; 0 \;
0 \; 0 \; 0 \; 0 \; 0 \; 0 \; 0 \; 0 \; 0 \; 0 \; 0 \; 0 \; 0 \; 0
\; 0 \; 0 \; 0 \; 0 \; 0 \; 0 \; 0 \; 0 \; 0 \; 0 \; 0 \; 0 \; 0 \;
0 \; 0 \; 0 \; 0 \; 0 \; 0 \; 0 \; 0 \; 0 \; 0 \; 0 \; 0 \; 0 \; 0
\; 0 \; 0 \; 0 \; 0 \; 0 \; 0 \; 0 \; 0 \; 0 \; 0 \; 0 \; 0 \; 0 \;
0 \; 0 \; 0 \; 0 \; 0 \; 0 \; 0 \; 0 \; 0 \; 0 \; 0 \; 0 \; 0 \; 0
\; 0 \; 0 \; 0 \; 0 \; 0 \; 0 \; 0 \; 0 \; 0 \; 0 \; 0 \; 0 \; 0 \;
0 \; 0 \; 0 \; 0 \; 0 \; 0 \; 0 \; 0 \; 0 \; 0 \; 0 \; 0 \; 0 \; 0
\; 0 \; 0 \; 0 \; 0 \; 0 \; 0 \; 0 \; 0 \; 0 \; 0 \; 0 \; 0 \; 0 \;
0 \; 0 \; 0 \; 0 \; 0 \; 0 \; 0 \; 0 \; 0 \; 0 \; 0 \; 0 \; 0 \; 0
\; 0 \; 0 \; 0 \; \;;
#X coords 0 -3 2048 1 200 40 2 0 0;
#X restore 105 108 pd \$0-oscdisplay;
#X obj 603 527 loadbang;
#X obj 603 576 s \$0-CID, f 9;
#X obj 602 552 \$0;
#X obj 213 921 outlet~;
#X obj 335 643 t b b b;
#X obj 1070 754 outlet;
#X obj 307 750 bng 15 250 50 0 empty empty empty 17 7 0 10 #fcfcfc
#000000 #000000;
#X obj 111 784 *~ 0.2;
#X obj 207 765 unsig~;
#X obj 213 787 t b;
#X msg 687 713 2048;
#X obj 1155 192 inlet;
#X obj 337 807 sel 0;
#X obj 340 834 pack f f;
#X obj 343 780 spigot 0;
#X obj 422 884 r \$0-triggerlfoON;
#X obj 520 615 r \$0-stoppednotebng;
#X obj 339 888 line 0 100;
#X msg 340 859 1 \, 0 \$2 100;
#X obj 815 317 spigot 0;
#X obj 875 292 tgl 15 0 empty empty empty 17 7 0 10 #fcfcfc #000000
#000000 0 1;
#X obj 824 245 t b b;
#X obj 413 811 r \$0-stoppednotebng;
#X obj 92 50 declare -lib clearessentials;
#X connect 1 0 41 0;
#X connect 1 0 42 0;
#X connect 1 1 43 0;
#X connect 1 1 44 0;
#X connect 2 0 47 0;
#X connect 3 0 4 0;
#X connect 4 0 39 0;
#X connect 5 0 28 0;
#X connect 6 0 7 0;
#X connect 7 0 2 0;
#X connect 7 0 11 0;
#X connect 7 1 2 1;
#X connect 7 1 20 0;
#X connect 7 1 45 0;
#X connect 8 0 9 0;
#X connect 8 1 9 0;
#X connect 9 0 10 1;
#X connect 9 0 11 1;
#X connect 9 0 12 1;
#X connect 9 0 13 1;
#X connect 9 0 85 1;
#X connect 9 0 85 0;
#X connect 10 0 2 1;
#X connect 10 0 18 2;
#X connect 10 0 20 0;
#X connect 11 0 2 0;
#X connect 12 0 13 0;
#X connect 13 0 24 2;
#X connect 13 0 45 0;
#X connect 17 0 24 1;
#X connect 18 0 37 0;
#X connect 19 0 18 0;
#X connect 20 0 21 0;
#X connect 20 0 22 0;
#X connect 20 1 36 0;
#X connect 20 2 36 0;
#X connect 21 0 76 0;
#X connect 21 0 92 0;
#X connect 21 0 19 0;
#X connect 22 0 18 2;
#X connect 23 0 5 1;
#X connect 24 0 14 0;
#X connect 24 1 39 0;
#X connect 24 2 5 0;
#X connect 24 2 81 0;
#X connect 28 0 3 0;
#X connect 31 0 29 0;
#X connect 32 0 50 0;
#X connect 33 0 35 0;
#X connect 33 0 15 0;
#X connect 34 0 33 1;
#X connect 36 0 51 0;
#X connect 38 0 25 0;
#X connect 39 0 33 0;
#X connect 39 0 32 0;
#X connect 41 0 57 0;
#X connect 43 0 64 0;
#X connect 44 0 65 0;
#X connect 45 0 46 0;
#X connect 46 0 75 0;
#X connect 47 0 24 0;
#X connect 48 0 49 0;
#X connect 49 0 74 0;
#X connect 49 0 16 0;
#X connect 50 0 31 0;
#X connect 54 0 56 0;
#X connect 55 0 78 0;
#X connect 56 0 6 0;
#X connect 56 1 68 0;
#X connect 56 2 17 0;
#X connect 57 0 11 0;
#X connect 57 0 19 1;
#X connect 58 0 59 1;
#X connect 59 0 79 0;
#X connect 60 0 58 0;
#X connect 61 0 58 0;
#X connect 62 0 61 0;
#X connect 63 0 60 0;
#X connect 64 0 12 0;
#X connect 65 0 10 0;
#X connect 66 0 56 0;
#X connect 67 0 56 0;
#X connect 68 0 8 0;
#X connect 71 0 73 0;
#X connect 73 0 72 0;
#X connect 75 0 14 0;
#X connect 75 1 77 0;
#X connect 77 0 16 0;
#X connect 78 0 48 0;
#X connect 79 0 80 0;
#X connect 81 0 32 0;
#X connect 82 0 84 1;
#X connect 83 0 84 0;
#X connect 84 0 89 0;
#X connect 85 0 83 0;
#X connect 89 0 88 0;
#X connect 90 0 40 0;
#X connect 91 0 90 1;
#X connect 92 0 90 0;
#X connect 92 1 91 0;
#X coords 0 -1 1 1 210 55 2 100 100;
