#N struct 3820-grapharray float x float x-space float color array graph
3820-oscgraph;
#N struct 3820-oscgraph float y;
#N canvas 82 112 1920 997 12;
#X obj 100 100 cnv 15 210 55 empty empty empty 20 12 0 14 #404040 #404040
0;
#X obj 72 285 notein;
#X obj 99 493 stripnote;
#X obj 554 728 * 44.1;
#X obj 554 750 int;
#X obj 555 679 i;
#X obj 403 308 t a;
#X obj 404 332 unpack f f;
#X obj 494 337 sel 0 1;
#X obj 486 414 tgl 15 0 empty empty empty 17 7 0 10 #fcfcfc #000000
#000000 0 1;
#X obj 149 389 spigot 0;
#X obj 64 432 spigot 0;
#X obj 259 333 spigot 0;
#X obj 396 521 spigot 0;
#X obj 335 715 outlet;
#X msg 547 904 \; \$2-oscarray normalize;
#X obj 142 950 tabwrite~ \$0-oscarray;
#X obj 590 380 t b;
#X obj 605 471 pack f f f f;
#X obj 635 440 f;
#X obj 636 346 sel 0 127;
#X obj 637 374 bng 15 250 50 0 empty empty empty 17 7 0 10 #fcfcfc
#000000 #000000;
#X msg 697 404 0, f 5;
#X obj 571 657 r \$0-setinnerrelease;
#N canvas 26 26 450 300 \$0-writeoscpreview 0;
#X obj 184 237 outlet;
#X msg 155 160 set \$1;
#X msg 116 177 bang;
#X msg 271 147 stop;
#X obj 222 200 bng 15 250 50 0 empty empty empty 17 7 0 10 #fcfcfc
#000000 #000000;
#X msg 225 152 1;
#X obj 262 55 route 0;
#X obj 226 132 bng 15 250 50 0 empty empty empty 17 7 0 10 #fcfcfc
#000000 #000000;
#X msg 121 84 symbol \$1-oscarray;
#X obj 78 103 symbol;
#X msg 75 80 bang;
#X obj 116 55 r \$0-CID;
#X obj 275 79 del 10;
#X obj 272 117 t b b b;
#X obj 198 26 inlet;
#X obj 86 25 inlet;
#X obj 142 25 inlet;
#X obj 282 238 outlet;
#X obj 352 236 outlet;
#X msg 154 135 symbol \$1;
#X obj 218 108 del;
#X floatatom 342 85 5 0 0 0 - - - 0;
#X obj 344 178 bng 15 250 50 0 empty empty empty 17 7 0 10 #fcfcfc
#000000 #000000;
#X obj 74 207 bng 15 250 50 0 empty empty empty 17 7 0 10 #fcfcfc #000000
#000000;
#X obj 366 207 bng 15 250 50 0 empty empty empty 17 7 0 10 #fcfcfc
#000000 #000000;
#X obj 223 177 metro 10;
#X connect 1 0 0 0;
#X connect 2 0 0 0;
#X connect 2 0 23 0;
#X connect 3 0 25 0;
#X connect 4 0 3 0;
#X connect 4 0 0 0;
#X connect 4 0 17 0;
#X connect 5 0 25 0;
#X connect 6 0 12 0;
#X connect 6 1 21 0;
#X connect 6 1 20 0;
#X connect 7 0 5 0;
#X connect 8 0 9 1;
#X connect 9 0 19 0;
#X connect 10 0 9 0;
#X connect 11 0 8 0;
#X connect 12 0 13 0;
#X connect 13 0 3 0;
#X connect 13 1 18 0;
#X connect 13 1 24 0;
#X connect 14 0 6 0;
#X connect 15 0 2 0;
#X connect 16 0 10 0;
#X connect 19 0 1 0;
#X connect 20 0 7 0;
#X connect 21 0 22 0;
#X connect 25 0 4 0;
#X restore 313 679 pd \$0-writeoscpreview;
#X obj 782 657 nbx 5 14 0 999 0 1 \$0-color empty color 0 -8 0 10 #fcfcfc
#000000 #000000 233 256;
#N canvas 82 250 435 136 \$0-oscarraydisplay 0;
#X obj 37 78 plot graph color 2 0 0 x-space;
#X obj 45 31 struct \$0-grapharray float x float x-space float color
array graph \$0-oscgraph;
#X restore 783 705 pd \$0-oscarraydisplay;
#N canvas 709 254 261 169 \$0-oscgraph 0;
#X obj 34 31 struct \$0-oscgraph float y;
#X restore 783 728 pd \$0-oscgraph;
#X obj 554 705 + 1000;
#X obj 783 840 s pd-\$0-oscdisplay;
#N canvas 0 184 981 657 \$0-createosc 0;
#X msg 74 90 clear;
#X text 255 114 <- Clear subpatch;
#X obj 189 205 pointer;
#X text 255 254 <- Get pointer to subpatch;
#X obj 189 159 \$0;
#X text 255 230 <- Create array;
#X text 250 367 <- Set array size;
#X obj 47 67 t f b;
#X obj 47 136 t f b b;
#X obj 47 343 t f f;
#X obj 47 274 t f f;
#X msg 66 205 999;
#X obj 66 412 until;
#X obj 66 435 f;
#X obj 96 435 + 1;
#X msg 105 412 0;
#X obj 66 458 t f f;
#X obj 47 573 f;
#X obj 62 550 r \$0-color;
#X text 255 323 <- Set x-spacing;
#X text 255 597 <- Set color;
#X text 255 530 <- Set y values;
#X floatatom 66 503 10 0 0 0 - - - 0;
#X obj 66 481 tabread4 \$0-oscarray;
#X obj 52 3 r \$0-oscarraysize;
#X obj 66 527 set \$0-oscgraph y;
#X obj 74 113 s pd-\$0-oscdisplay;
#X msg 188 182 traverse pd-\$1-oscdisplay \, bang;
#X obj 66 251 s \$0-oscarrayPointer;
#X obj 222 297 r \$0-oscarrayPointer;
#X obj 233 345 r \$0-oscarrayPointer;
#X obj 324 481 r \$0-oscarrayPointer;
#X obj 181 573 r \$0-oscarrayPointer;
#X obj 66 228 append \$0-grapharray color;
#X obj 75 320 set \$0-grapharray x-space;
#X obj 74 369 setsize \$0-grapharray graph;
#X obj 165 504 element \$0-grapharray graph;
#X obj 46 596 set \$0-grapharray color;
#X floatatom 50 45 5 0 0 0 - - - 0;
#X obj 75 297 expr 2048/$f1;
#X floatatom 166 441 5 0 0 0 - - - 0;
#X msg 166 422 1;
#X obj 277 435 r \$0-oscarrayPointer;
#X obj 47 389 t b f b b;
#X obj 166 462 set \$0-grapharray x;
#X obj 53 24 t f;
#X connect 0 0 26 0;
#X connect 2 0 33 1;
#X connect 4 0 27 0;
#X connect 7 0 8 0;
#X connect 7 1 0 0;
#X connect 8 0 10 0;
#X connect 8 1 11 0;
#X connect 8 2 4 0;
#X connect 9 0 43 0;
#X connect 9 1 35 0;
#X connect 10 0 9 0;
#X connect 10 1 39 0;
#X connect 11 0 33 0;
#X connect 12 0 13 0;
#X connect 13 0 14 0;
#X connect 13 0 16 0;
#X connect 14 0 13 1;
#X connect 15 0 13 1;
#X connect 16 0 23 0;
#X connect 16 1 36 0;
#X connect 17 0 37 0;
#X connect 18 0 17 0;
#X connect 22 0 25 0;
#X connect 23 0 22 0;
#X connect 24 0 45 0;
#X connect 27 0 2 0;
#X connect 29 0 34 1;
#X connect 30 0 35 1;
#X connect 31 0 36 1;
#X connect 32 0 37 1;
#X connect 33 0 28 0;
#X connect 36 0 25 1;
#X connect 38 0 7 0;
#X connect 39 0 34 0;
#X connect 40 0 44 0;
#X connect 41 0 40 0;
#X connect 42 0 44 1;
#X connect 43 0 17 0;
#X connect 43 1 12 0;
#X connect 43 2 15 0;
#X connect 45 0 38 0;
#X restore 783 682 pd \$0-createosc;
#N canvas 558 288 1284 729 \$0-resizeoscgraphic 0;
#X obj 67 172 outlet;
#X obj 66 131 nbx 10 14 1 1e+37 0 1 \$0-oscarraysize empty \$0-envarray_size
0 -8 0 10 #fcfcfc #000000 #000000 2048 256;
#X obj 65 96 f;
#X obj 65 72 t b f;
#X obj 64 43 inlet;
#X msg 55 146 donecanvasdialog 1 0 2 0 -3 \$1 1 200 40 0 0 \, dirty
0;
#X connect 1 0 5 0;
#X connect 2 0 1 0;
#X connect 3 0 2 0;
#X connect 3 1 2 1;
#X connect 4 0 3 0;
#X connect 5 0 0 0;
#X restore 783 817 pd \$0-resizeoscgraphic;
#X obj 784 767 nbx 10 14 1 1e+37 0 1 \$0-oscarraysize empty \$0-oscarray_size
0 -8 0 10 #fcfcfc #000000 #000000 2048 256;
#X obj 559 821 pack f f;
#X obj 612 796 r \$0-CID, f 9;
#X msg 562 863 \; \$2-oscarray resize \$1;
#X obj 759 398 bng 15 250 50 0 empty empty empty 17 7 0 10 #fcfcfc
#000000 #000000;
#X obj 630 498 outlet;
#X obj 767 620 r \$0-loadedRGB-color;
#X msg 553 787 2048;
#X obj 727 485 s \$0-stoppednotebng;
#X obj 69 320 t f;
#X obj 96 322 t f;
#X obj 126 320 t f;
#X obj 153 322 t f;
#X obj 335 597 t f;
#N canvas 213 342 450 300 \$0-metrobangoscarray 0;
#X msg 129 151 stop;
#X obj 83 214 bng 15 250 50 0 empty empty empty 17 7 0 10 #fcfcfc #000000
#000000;
#X msg 98 151 1;
#X obj 130 79 route 0;
#X obj 96 130 bng 15 250 50 0 empty empty empty 17 7 0 10 #fcfcfc #000000
#000000;
#X obj 128 129 t b b b;
#X obj 129 27 inlet;
#X obj 129 53 t f;
#X obj 99 247 outlet;
#X obj 96 176 metro 10;
#X obj 167 218 t b;
#X obj 136 104 del;
#X connect 0 0 9 0;
#X connect 1 0 10 0;
#X connect 2 0 9 0;
#X connect 3 0 11 0;
#X connect 3 1 4 0;
#X connect 4 0 2 0;
#X connect 5 0 0 0;
#X connect 6 0 7 0;
#X connect 7 0 3 0;
#X connect 9 0 1 0;
#X connect 9 0 0 0;
#X connect 10 0 8 0;
#X connect 11 0 5 0;
#X restore 335 619 pd \$0-metrobangoscarray;
#X obj 97 526 t b f f f;
#X obj 112 812 *~ 2;
#X obj 110 835 -~ 1;
#X obj 783 789 t f;
#X obj 806 415 s \$0-triggerlfoON;
#X obj 805 384 s \$0-triggerlfoOFF;
#X obj 41 219 table \$0-oscarray;
#X obj 407 220 inlet;
#X obj 512 218 inlet~;
#X obj 405 279 route inputmidi setmidistate setoscarray;
#X floatatom 70 353 5 0 0 0 - - - 0;
#X obj 121 672 tgl 15 0 empty empty empty 17 7 0 10 #fcfcfc #000000
#000000 0 1;
#X obj 104 694 *~;
#X msg 5 602 1;
#X msg 153 645 0;
#X obj 153 621 r \$0-triggerlfoOFF;
#X obj 5 575 r \$0-triggerlfoON;
#X floatatom 116 348 5 0 0 0 - - - 0;
#X floatatom 164 347 5 0 0 0 - - - 0;
#X msg 666 206 setmidistate 1;
#X msg 658 245 setmidistate 0;
#X obj 495 308 t a;
#X obj 103 107 cnv 15 200 40 empty empty empty 20 12 0 14 #202020 #404040
0;
#N canvas 192 311 869 374 \$0-oscdisplay 0;
#X scalar 3820-grapharray 0 1 233 \; -0.484285 \; -0.484285 \; -0.237275
\; -0.200216 \; -0.295929 \; -0.547087 \; -0.518978 \; -0.497639 \;
-0.576769 \; -0.594708 \; -0.52851 \; -0.518167 \; -0.257298 \; -0.180345
\; -0.344241 \; -0.529551 \; -0.257352 \; -0.241237 \; -0.18036 \;
-0.147878 \; -0.157011 \; -0.157339 \; -0.235011 \; -0.247346 \; -0.254973
\; -0.242299 \; -0.256062 \; -0.228226 \; -0.27002 \; -0.254409 \;
-0.235039 \; -0.238879 \; -0.268189 \; -0.23835 \; -0.256423 \; -0.209378
\; -0.453035 \; -0.538012 \; -0.520298 \; -0.366733 \; -0.194476 \;
-0.253487 \; -0.228414 \; -0.253579 \; -0.272938 \; -0.242434 \; -0.200556
\; -0.151226 \; -0.166758 \; -0.157592 \; -0.389525 \; -0.352273 \;
-0.396349 \; -0.39323 \; -0.397017 \; -0.390683 \; -0.345675 \; -0.439705
\; -0.345215 \; -0.250381 \; -0.254701 \; -0.356022 \; -0.438554 \;
-0.3459 \; -0.388648 \; -0.392306 \; -0.353019 \; -0.346833 \; -0.369659
\; -0.399556 \; -0.399165 \; -0.357544 \; -0.360001 \; -0.426074 \;
-0.160317 \; -0.171052 \; -0.273609 \; -0.386961 \; -0.496661 \; -0.595333
\; -0.341415 \; -0.149193 \; -0.163134 \; -0.149352 \; -0.171996 \;
-0.150039 \; -0.418841 \; -0.313459 \; -0.588027 \; -0.596655 \; -0.596697
\; -0.59077 \; -0.319153 \; -0.358892 \; -0.434243 \; -0.280057 \;
-0.360905 \; -0.352976 \; -0.305526 \; -0.601772 \; -0.594444 \; -0.500106
\; -0.48084 \; -0.525487 \; -0.572165 \; -0.305606 \; -0.203635 \;
-0.211608 \; -0.197403 \; -0.521481 \; -0.557714 \; -0.576866 \; -0.594439
\; -0.528297 \; -0.399906 \; -0.320156 \; -0.307254 \; -0.329981 \;
-0.344918 \; -0.329228 \; -0.305978 \; -0.41076 \; -0.567124 \; -0.59913
\; -0.598602 \; -0.58679 \; -0.591359 \; -0.602602 \; -0.589352 \;
-0.487493 \; -0.324714 \; -0.307568 \; -0.30524 \; -0.393374 \; -0.581678
\; -0.595434 \; -0.593836 \; -0.53247 \; -0.478565 \; -0.506222 \;
-0.510192 \; -0.498597 \; -0.555063 \; -0.404142 \; -0.19257 \; -0.250374
\; -0.233063 \; -0.22462 \; -0.224208 \; -0.240094 \; -0.219601 \;
-0.357356 \; -0.533907 \; -0.504624 \; -0.522667 \; -0.522671 \; -0.496345
\; -0.545902 \; -0.401683 \; -0.208324 \; -0.201014 \; -0.391204 \;
-0.508938 \; -0.49464 \; -0.519659 \; -0.595737 \; -0.596367 \; -0.505869
\; -0.509 \; -0.257499 \; -0.153531 \; -0.560382 \; -0.477184 \; -0.254228
\; -0.184675 \; -0.160281 \; -0.142521 \; -0.166382 \; -0.149057 \;
-0.254576 \; -0.223833 \; -0.253448 \; -0.239732 \; -0.253048 \; -0.225266
\; -0.27313 \; -0.243215 \; -0.230767 \; -0.241508 \; -0.272991 \;
-0.222986 \; -0.233672 \; -0.266011 \; -0.500131 \; -0.543486 \; -0.498032
\; -0.296079 \; -0.197553 \; -0.25302 \; -0.223233 \; -0.263976 \;
-0.263865 \; -0.230881 \; -0.174444 \; -0.161226 \; -0.146042 \; -0.177187
\; -0.440779 \; -0.341914 \; -0.40539 \; -0.389742 \; -0.403546 \;
-0.369796 \; -0.36992 \; -0.434593 \; -0.305928 \; -0.239842 \; -0.271487
\; -0.396223 \; -0.419015 \; -0.342023 \; -0.402773 \; -0.379469 \;
-0.347099 \; -0.350533 \; -0.379233 \; -0.404573 \; -0.390709 \; -0.3453
\; -0.392435 \; -0.35159 \; -0.14268 \; -0.14657 \; -0.225345 \; -0.526398
\; -0.573487 \; -0.464055 \; -0.442065 \; -0.146292 \; -0.145635 \;
-0.143648 \; -0.17283 \; -0.173985 \; -0.340708 \; -0.359931 \; -0.602329
\; -0.597013 \; -0.605321 \; -0.571287 \; -0.326456 \; -0.347061 \;
-0.386501 \; -0.272719 \; -0.421091 \; -0.358909 \; -0.422709 \; -0.585296
\; -0.558275 \; -0.490234 \; -0.489683 \; -0.568393 \; -0.606445 \;
-0.401704 \; -0.139961 \; -0.267059 \; -0.424206 \; -0.475745 \; -0.603096
\; -0.600894 \; -0.58989 \; -0.49396 \; -0.369641 \; -0.309141 \; -0.310985
\; -0.33586 \; -0.343337 \; -0.318543 \; -0.31545 \; -0.467863 \; -0.587967
\; -0.606384 \; -0.598805 \; -0.590331 \; -0.599881 \; -0.605779 \;
-0.58129 \; -0.431856 \; -0.308067 \; -0.307498 \; -0.308214 \; -0.461919
\; -0.598964 \; -0.581209 \; -0.602662 \; -0.517946 \; -0.474652 \;
-0.522197 \; -0.501248 \; -0.51753 \; -0.549006 \; -0.317779 \; -0.194255
\; -0.252342 \; -0.22357 \; -0.222667 \; -0.220941 \; -0.249298 \;
-0.189102 \; -0.482545 \; -0.505673 \; -0.518436 \; -0.525133 \; -0.523124
\; -0.494327 \; -0.557629 \; -0.315731 \; -0.194651 \; -0.215215 \;
-0.500859 \; -0.496114 \; -0.474929 \; -0.545871 \; -0.604364 \; -0.584719
\; -0.476285 \; -0.449748 \; -0.226576 \; -0.439308 \; -0.59148 \;
-0.495563 \; -0.23526 \; -0.141697 \; -0.142533 \; -0.138801 \; -0.17216
\; -0.181207 \; -0.271007 \; -0.227831 \; -0.244686 \; -0.24208 \;
-0.241099 \; -0.237912 \; -0.265172 \; -0.23454 \; -0.228688 \; -0.247334
\; -0.265102 \; -0.231537 \; -0.196713 \; -0.347733 \; -0.52891 \;
-0.543706 \; -0.458475 \; -0.231983 \; -0.218343 \; -0.240241 \; -0.227881
\; -0.269614 \; -0.2519 \; -0.2178 \; -0.149122 \; -0.170568 \; -0.137441
\; -0.239828 \; -0.421305 \; -0.361631 \; -0.403716 \; -0.390451 \;
-0.406024 \; -0.34817 \; -0.406752 \; -0.406257 \; -0.273671 \; -0.236715
\; -0.298282 \; -0.429451 \; -0.385292 \; -0.356464 \; -0.405855 \;
-0.366587 \; -0.344149 \; -0.356651 \; -0.388992 \; -0.406189 \; -0.378463
\; -0.340174 \; -0.430073 \; -0.241317 \; -0.144319 \; -0.205633 \;
-0.250037 \; -0.526138 \; -0.580899 \; -0.325882 \; -0.258665 \; -0.167805
\; -0.13936 \; -0.141883 \; -0.14694 \; -0.307773 \; -0.40087 \; -0.509953
\; -0.610493 \; -0.600478 \; -0.609749 \; -0.494739 \; -0.398792 \;
-0.406325 \; -0.327889 \; -0.288651 \; -0.441104 \; -0.406137 \; -0.573976
\; -0.580645 \; -0.52897 \; -0.485388 \; -0.504991 \; -0.60786 \; -0.585416
\; -0.378893 \; -0.169036 \; -0.220515 \; -0.535243 \; -0.503156 \;
-0.58928 \; -0.611049 \; -0.577494 \; -0.45616 \; -0.344173 \; -0.303225
\; -0.316856 \; -0.34034 \; -0.338728 \; -0.307949 \; -0.341942 \;
-0.522398 \; -0.600821 \; -0.611353 \; -0.59905 \; -0.595524 \; -0.6085
\; -0.606629 \; -0.560015 \; -0.377566 \; -0.302604 \; -0.305206 \;
-0.32565 \; -0.531382 \; -1 \; -0.946045 \; -0.956286 \; -0.828823
\; -0.794151 \; -0.864968 \; -0.813448 \; -0.887356 \; -0.841235 \;
-0.393488 \; -0.351647 \; -0.398443 \; -0.357423 \; -0.360377 \; -0.362104
\; -0.407817 \; -0.33356 \; -0.90934 \; -0.812563 \; -0.863005 \; -0.864536
\; -0.848755 \; -0.834756 \; -0.859073 \; -0.40939 \; -0.309923 \;
-0.420519 \; -0.918761 \; -0.858611 \; -0.808202 \; -0.945694 \; -0.996096
\; -0.908123 \; -0.844116 \; -0.329661 \; -0.233463 \; -0.645431 \;
-0.985182 \; -0.806877 \; -0.422216 \; -0.272592 \; -0.222497 \; -0.230168
\; -0.256692 \; -0.35446 \; -0.418892 \; -0.3988 \; -0.388218 \; -0.405458
\; -0.369568 \; -0.421412 \; -0.415025 \; -0.37551 \; -0.376898 \;
-0.421654 \; -0.39826 \; -0.407885 \; -0.307352 \; -0.698361 \; -0.889395
\; -0.876813 \; -0.654609 \; -0.316052 \; -0.394768 \; -0.370456 \;
-0.394499 \; -0.442401 \; -0.39485 \; -0.33109 \; -0.227765 \; -0.271113
\; -0.23424 \; -0.56253 \; -0.606127 \; -0.635721 \; -0.650548 \; -0.647003
\; -0.65334 \; -0.557405 \; -0.7144 \; -0.597446 \; -0.413098 \; -0.398962
\; -0.549507 \; -0.72615 \; -0.579987 \; -0.621185 \; -0.653065 \;
-0.583301 \; -0.564496 \; -0.597959 \; -0.650885 \; -0.660336 \; -0.59608
\; -0.571911 \; -0.723682 \; -0.274126 \; -0.280256 \; -0.41031 \;
-0.346447 \; -0.779715 \; -0.997173 \; -0.620349 \; -0.24634 \; -0.269992
\; -0.231744 \; -0.256088 \; -0.225318 \; -0.725172 \; -0.58039 \;
-0.956417 \; -0.993726 \; -0.986205 \; -0.987219 \; -0.594704 \; -0.6316
\; -0.725761 \; -0.47157 \; -0.543936 \; -0.629542 \; -0.539387 \;
-0.990517 \; -0.991848 \; -0.836989 \; -0.791262 \; -0.851652 \; -0.945377
\; -0.607487 \; -0.55581 \; -0.259047 \; -0.400269 \; -0.839199 \;
-0.879829 \; -0.942405 \; -0.989252 \; -0.898738 \; -0.683681 \; -0.533311
\; -0.498067 \; -0.532705 \; -0.562934 \; -0.544247 \; -0.497367 \;
-0.63271 \; -0.91603 \; -0.987764 \; -0.99277 \; -0.971471 \; -0.974765
\; -0.995777 \; -0.979761 \; -0.844523 \; -0.551705 \; -0.499529 \;
-0.49807 \; -0.600307 \; -0.940512 \; -0.992866 \; -0.96546 \; -0.898226
\; -0.798709 \; -0.819647 \; -0.849385 \; -0.813396 \; -0.91006 \;
-0.727689 \; -0.323564 \; -0.394301 \; -0.384779 \; -0.362296 \; -0.363401
\; -0.379841 \; -0.380295 \; -0.484505 \; -0.90331 \; -0.820624 \;
-0.860771 \; -0.860732 \; -0.825483 \; -0.877396 \; -0.729885 \; -0.352881
\; -0.318917 \; -0.557198 \; -0.874629 \; -0.842433 \; -0.840673 \;
-0.972983 \; -0.986826 \; -0.85206 \; -0.814468 \; -0.362899 \; -0.230218
\; -0.608459 \; -0.810465 \; -0.330655 \; -0.350376 \; -0.273087 \;
-0.228628 \; -0.255979 \; -0.233776 \; -0.395349 \; -0.374825 \; -0.414357
\; -0.388873 \; -0.414418 \; -0.362813 \; -0.444186 \; -0.402446 \;
-0.376255 \; -0.388602 \; -0.441779 \; -0.368321 \; -0.402749 \; -0.379054
\; -0.78973 \; -0.89208 \; -0.840416 \; -0.539536 \; -0.310905 \; -0.414656
\; -0.363551 \; -0.421832 \; -0.437388 \; -0.383707 \; -0.302216 \;
-0.248861 \; -0.24883 \; -0.263864 \; -0.697731 \; -0.559672 \; -0.66033
\; -0.640807 \; -0.656824 \; -0.62362 \; -0.582486 \; -0.722664 \;
-0.529835 \; -0.396986 \; -0.427394 \; -0.617914 \; -0.706987 \; -0.558408
\; -0.651222 \; -0.632193 \; -0.572185 \; -0.57036 \; -0.613586 \;
-0.659871 \; -0.647828 \; -0.574016 \; -0.614564 \; -0.647245 \; -0.242373
\; -0.242773 \; -0.421544 \; -0.901102 \; -0.864798 \; -0.933604 \;
-0.649093 \; -0.231282 \; -0.247263 \; -0.237361 \; -0.285998 \; -0.254105
\; -0.596304 \; -0.51043 \; -0.978975 \; -0.979081 \; -0.986989 \;
-0.959325 \; -0.500077 \; -0.559321 \; -0.677362 \; -0.447369 \; -0.644663
\; -0.558946 \; -0.557579 \; -0.980979 \; -0.947613 \; -0.810475 \;
-0.794185 \; -0.891705 \; -0.974159 \; -0.609851 \; -0.248876 \; -0.393509
\; -0.400386 \; -0.815172 \; -0.963127 \; -0.966722 \; -0.970696 \;
-0.83703 \; -0.628316 \; -0.514076 \; -0.506095 \; -0.545872 \; -0.564328
\; -0.530608 \; -0.5065 \; -0.720717 \; -0.948007 \; -0.986792 \; -0.979584
\; -0.962619 \; -0.974407 \; -0.988818 \; -0.958928 \; -0.75142 \;
-0.515323 \; -0.504694 \; -0.501147 \; -0.699984 \; -0.967691 \; -0.961663
\; -0.983587 \; -0.856647 \; -0.776793 \; -0.842941 \; -0.826265 \;
-0.829571 \; -0.907013 \; -0.588903 \; -0.3138 \; -0.416248 \; -0.374889
\; -0.36856 \; -0.366369 \; -0.403702 \; -0.332253 \; -0.696408 \;
-0.845973 \; -0.836837 \; -0.855609 \; -0.854702 \; -0.806445 \; -0.90809
\; -0.582549 \; -0.330791 \; -0.340901 \; -0.735837 \; -0.807809 \;
-0.782961 \; -0.868102 \; -0.979577 \; -0.96578 \; -0.799714 \; -0.909001
\; -0.432361 \; -0.426128 \; -0.983997 \; -0.855503 \; -0.373539 \;
-0.251953 \; -0.250827 \; -0.235979 \; -0.286009 \; -0.27169 \; -0.438197
\; -0.369411 \; -0.411843 \; -0.397688 \; -0.409711 \; -0.381415 \;
-0.445392 \; -0.394584 \; -0.380178 \; -0.40386 \; -0.447053 \; -0.37279
\; -0.355217 \; -0.505647 \; -0.842339 \; -0.885924 \; -0.782344 \;
-0.430889 \; -0.345188 \; -0.409598 \; -0.373031 \; -0.442199 \; -0.426472
\; -0.37304 \; -0.270605 \; -0.281949 \; -0.237475 \; -0.339294 \;
-0.71523 \; -0.573896 \; -0.662959 \; -0.637469 \; -0.663265 \; -0.586667
\; -0.636044 \; -0.689598 \; -0.475356 \; -0.39432 \; -0.46922 \; -0.678275
\; -0.65768 \; -0.57075 \; -0.663278 \; -0.610358 \; -0.56669 \; -0.579832
\; -0.629117 \; -0.663397 \; -0.629705 \; -0.560602 \; -0.674478 \;
-0.485841 \; -0.238551 \; -0.293447 \; -0.39086 \; -0.806785 \; -0.978807
\; -0.527534 \; -0.613702 \; -0.2703 \; -0.243276 \; -0.243782 \; -0.274986
\; -0.37705 \; -0.600584 \; -0.717944 \; -0.982649 \; -0.968211 \;
-0.984047 \; -0.87737 \; -0.602934 \; -0.612657 \; -0.582424 \; -0.460526
\; -0.717861 \; -0.6423 \; -0.840272 \; -0.930304 \; -0.875307 \; -0.791152
\; -0.806933 \; -0.962999 \; -0.972707 \; -0.565013 \; -0.268828 \;
-0.429643 \; -0.899189 \; -0.784225 \; -0.970148 \; -0.981845 \; -0.944758
\; -0.770839 \; -0.583773 \; -0.504596 \; -0.517866 \; -0.556565 \;
-0.56116 \; -0.516281 \; -0.538543 \; -0.806542 \; -0.960608 \; -0.982528
\; -0.966006 \; -0.956445 \; -0.974625 \; -0.97768 \; -0.923958 \;
-0.657441 \; -0.50301 \; -0.506796 \; -0.519843 \; -0.809415 \; -0.975357
\; -0.929892 \; -0.959991 \; -0.828749 \; -0.775856 \; -0.851626 \;
-0.806602 \; -0.856686 \; -0.863812 \; -0.457419 \; -0.346211 \; -0.416417
\; -0.372217 \; -0.373964 \; -0.372437 \; -0.420672 \; -0.322086 \;
-0.855838 \; -0.805929 \; -0.846211 \; -0.850737 \; -0.842623 \; -0.80896
\; -0.882045 \; -0.462873 \; -0.327055 \; -0.391571 \; -0.875365 \;
-0.825067 \; -0.780239 \; -0.906578 \; -0.975408 \; -0.919165 \; -0.784907
\; -0.37855 \; -0.291237 \; -0.575128 \; -0.943161 \; -0.885056 \;
-0.450017 \; -0.269954 \; -0.245142 \; -0.246276 \; -0.290281 \; -0.344635
\; -0.446693 \; -0.398145 \; -0.404362 \; -0.411629 \; -0.392939 \;
-0.416861 \; -0.433837 \; -0.390828 \; -0.38716 \; -0.423228 \; -0.427422
\; -0.407022 \; -0.320789 \; -0.638439 \; -0.866863 \; -0.871213 \;
-0.699418 \; -0.354281 \; -0.390668 \; -0.392779 \; -0.395265 \; -0.45203
\; -0.41396 \; -0.35839 \; -0.251705 \; -0.296446 \; -0.248586 \; -0.485083
\; -0.644405 \; -0.615803 \; -0.653605 \; -0.641108 \; -0.658596 \;
-0.562191 \; -0.690479 \; -0.630151 \; -0.437726 \; -0.403653 \; -0.523789
\; -0.714258 \; -0.602521 \; -0.603532 \; -0.657628 \; -0.592 \; -0.566144
\; -0.592164 \; -0.642903 \; -0.660764 \; -0.607882 \; -0.564274 \;
-0.717427 \; -0.3355 \; -0.282971 \; -0.389118 \; -0.342795 \; -0.806715
\; -0.941201 \; -0.656949 \; -0.306797 \; -0.297862 \; -0.251519 \;
-0.263103 \; -0.247562 \; -0.656044 \; -0.648998 \; -0.90006 \; -0.975954
\; -0.963236 \; -0.972056 \; -0.693606 \; -0.659982 \; -0.704711 \;
-0.504482 \; -0.510949 \; -0.681533 \; -0.618323 \; -0.956688 \; -0.95517
\; -0.835985 \; -0.781592 \; -0.826265 \; -0.953377 \; -0.81427 \;
-0.718193 \; -0.255236 \; -0.405513 \; -0.799457 \; -0.837703 \; -0.925451
\; -0.973053 \; -0.904856 \; -0.707202 \; -0.550378 \; -0.503377 \;
-0.53125 \; -0.563863 \; -0.553536 \; -0.506046 \; -0.596101 \; -0.87382
\; -0.963854 \; -0.974084 \; -0.95382 \; -0.9528 \; -0.973332 \; -0.963955
\; -0.866062 \; -0.581806 \; -0.504143 \; -0.505793 \; -0.566568 \;
-0.894348 \; -0.975086 \; -0.931767 \; -0.905644 \; -0.800531 \; -0.794507
\; -0.843044 \; -0.798841 \; -0.883214 \; -0.775807 \; -0.365706 \;
-0.390491 \; -0.405096 \; -0.375375 \; -0.377714 \; -0.385346 \; -0.411323
\; -0.412195 \; -0.898611 \; -0.801577 \; -0.846743 \; -0.846859 \;
-0.822857 \; -0.840287 \; -0.785628 \; -0.38942 \; -0.332233 \; -0.492066
\; -0.890027 \; -0.845876 \; -0.813372 \; -0.94069 \; -0.968024 \;
-0.859316 \; -0.842785 \; -0.423766 \; -0.299151 \; -0.547256 \; -0.855995
\; -0.400583 \; -0.396674 \; -0.301385 \; -0.249696 \; -0.265283 \;
-0.263814 \; -0.391184 \; -0.407587 \; -0.422413 \; -0.401573 \; -0.424048
\; -0.378867 \; -0.447078 \; -0.420721 \; -0.390345 \; -0.397005 \;
-0.444299 \; -0.394576 \; -0.424593 \; -0.352672 \; -0.74243 \; -0.874403
\; -0.844501 \; -0.596352 \; -0.32628 \; -0.421389 \; -0.380435 \;
-0.421985 \; -0.451545 \; -0.402834 \; -0.33558 \; -0.259302 \; -0.282315
\; -0.26992 \; -0.642844 \; -0.576199 \; -0.649067 \; -0.642717 \;
-0.649523 \; -0.637849 \; -0.568699 \; -0.717106 \; -0.56423 \; -0.416051
\; -0.424729 \; -0.586891 \; -0.714029 \; -0.567234 \; -0.637003 \;
-0.640707 \; -0.578956 \; -0.569863 \; -0.606359 \; -0.653353 \; -0.651856
\; -0.585693 \; -0.592207 \; -0.691746 \; -0.274114 \; -0.290245 \;
-0.455234 \; -0.66219 \; -0.809923 \; -0.95956 \; -0.562484 \; -0.257652
\; -0.279353 \; -0.258932 \; -0.29576 \; -0.2611 \; -0.676601 \; -0.513886
\; -0.95008 \; -0.962194 \; -0.962816 \; -0.952317 \; -0.522386 \;
-0.585556 \; -0.705141 \; -0.46408 \; -0.596163 \; -0.576384 \; -0.505521
\; -0.969707 \; -0.956408 \; -0.809261 \; -0.780197 \; -0.851555 \;
-0.924754 \; -0.507362 \; -0.33362 \; -0.363729 \; -0.332031 \; -0.842066
\; -0.903708 \; -0.931026 \; -0.95658 \; -0.851325 \; -0.650844 \;
-0.527665 \; -0.508626 \; -0.544355 \; -0.56722 \; -0.542129 \; -0.506765
\; -0.673502 \; -0.915112 \; -0.963646 \; -0.962238 \; -0.943916 \;
-0.951297 \; -0.968461 \; -0.94719 \; -0.785535 \; -0.534392 \; -0.509388
\; -0.505681 \; -0.646757 \; -0.936617 \; -0.955585 \; -0.955121 \;
-0.857196 \; -0.774133 \; -0.818917 \; -0.823124 \; -0.806676 \; -0.893517
\; -0.653711 \; -0.330735 \; -0.421703 \; -0.393623 \; -0.381246 \;
-0.380523 \; -0.406063 \; -0.371353 \; -0.595517 \; -0.857726 \; -0.81544
\; -0.842422 \; -0.842349 \; -0.801009 \; -0.879709 \; -0.649363 \;
-0.355633 \; -0.346117 \; -0.646462 \; -0.818053 \; -0.796221 \; -0.838475
\; -0.955015 \; -0.954841 \; -0.813928 \; -0.827709 \; -0.439494 \;
-0.276635 \; -0.912395 \; -0.776141 \; -0.428532 \; -0.316448 \; -0.282593
\; -0.256589 \; -0.294367 \; -0.268111 \; -0.430706 \; -0.381473 \;
-0.427125 \; -0.406577 \; -0.426538 \; -0.384864 \; -0.457689 \; -0.411457
\; -0.392872 \; -0.409863 \; -0.457832 \; -0.38113 \; -0.395371 \;
-0.452189 \; -0.807949 \; -0.871987 \; -0.800218 \; -0.488816 \; -0.343837
\; -0.427149 \; -0.382227 \; -0.445053 \; -0.443656 \; -0.393286 \;
-0.306186 \; -0.288746 \; -0.263762 \; -0.314871 \; -0.715176 \; -0.564197
\; -0.66055 \; -0.636437 \; -0.657898 \; -0.604617 \; -0.608527 \;
-0.703568 \; -0.506602 \; -0.408017 \; -0.458059 \; -0.648845 \; -0.679064
\; -0.56439 \; -0.656817 \; -0.619983 \; -0.571407 \; -0.577239 \;
-0.621127 \; -0.659157 \; -0.637204 \; -0.568389 \; -0.643006 \; -0.571851
\; -0.261123 \; -0.269591 \; -0.384976 \; -0.834996 \; -0.921715 \;
-0.728677 \; -0.714576 \; -0.269217 \; -0.26642 \; -0.263869 \; -0.307427
\; -0.314315 \; -0.562686 \; -0.600352 \; -0.958099 \; -0.949383 \;
-0.962192 \; -0.907603 \; -0.545362 \; -0.574195 \; -0.627496 \; -0.460117
\; -0.686741 \; -0.593732 \; -0.698521 \; -0.928897 \; -0.887455 \;
-0.787021 \; -0.787443 \; -0.908632 \; -0.962437 \; -0.649342 \; -0.260342
\; -0.454369 \; -0.712792 \; -0.764409 \; -0.957395 \; -0.954426 \;
-0.936144 \; -0.790204 \; -0.604191 \; -0.514694 \; -0.518344 \; -0.55568
\; -0.566363 \; -0.5287 \; -0.525941 \; -0.75683 \; -0.933962 \; -0.960844
\; -0.949014 \; -0.936529 \; -0.951019 \; -0.959306 \; -0.921606 \;
-0.695352 \; -0.51335 \; -0.513083 \; -0.514822 \; -0.748495 \; -0.949241
\; -0.920978 \; -0.953343 \; -0.826543 \; -0.762863 \; -0.834227 \;
-0.801733 \; -0.827904 \; -0.871996 \; -0.5233 \; -0.34574 \; -0.431069
\; -0.388124 \; -0.387156 \; -0.384659 \; -0.427446 \; -0.336581 \;
-0.780675 \; -0.806919 \; -0.827877 \; -0.837214 \; -0.833884 \; -0.791565
\; -0.884541 \; -0.521067 \; -0.345839 \; -0.378587 \; -0.806732 \;
-0.794745 \; -0.762329 \; -0.869209 \; -0.954185 \; -0.923248 \; -0.763192
\; -0.696781 \; -0.38979 \; -0.713923 \; -0.929011 \; -0.790762 \;
-0.412498 \; -0.26968 \; -0.269678 \; -0.264848 \; -0.314084 \; -0.330411
\; -0.460586 \; -0.397645 \; -0.421065 \; -0.418148 \; -0.415478 \;
-0.412983 \; -0.451336 \; -0.406492 \; -0.398335 \; -0.4264 \; -0.45107
\; -0.403882 \; -0.349647 \; -0.579178 \; -0.841748 \; -0.861941 \;
-0.733594 \; -0.400285 \; -0.385229 \; -0.414941 \; -0.398413 \; -0.459344
\; -0.432431 \; -0.382265 \; -0.281166 \; -0.314152 \; -0.265434 \;
-0.421383 \; -0.678954 \; -0.596091 \; -0.655725 \; -0.636792 \; -0.659303
\; -0.573603 \; -0.66276 \; -0.657368 \; -0.463959 \; -0.411732 \;
-0.503784 \; -0.695169 \; -0.626775 \; -0.588183 \; -0.658875 \; -0.600916
\; -0.568819 \; -0.587627 \; -0.63497 \; -0.659437 \; -0.618139 \;
-0.56322 \; -0.696204 \; -0.412585 \; -0.279196 \; -0.370661 \; -0.429464
\; -0.835447 \; -0.911203 \; -0.552375 \; -0.43096 \; -0.313203 \;
-0.271035 \; -0.275207 \; -0.28064 \; -0.528332 \; -0.654182 \; -0.817721
\; -0.956214 \; -0.941642 \; -0.954748 \; -0.780417 \; -0.650979 \;
-0.663399 \; -0.542367 \; -0.490582 \; -0.708406 \; -0.658234 \; -0.906906
\; -0.913536 \; -0.835716 \; -0.773607 \; -0.803146 \; -0.950921 \;
-0.913695 \; -0.631263 \; -0.314187 \; -0.388765 \; -0.838624 \; -0.8016
\; -0.921895 \; -0.954926 \; -0.905112 \; -0.72869 \; -0.568044 \;
-0.510184 \; -0.530485 \; -0.56417 \; -0.561256 \; -0.516727 \; -0.56854
\; -0.829276 \; -0.939739 \; -0.954382 \; -0.936411 \; -0.931593 \;
-0.950307 \; -0.947025 \; -0.878042 \; -0.614568 \; -0.509777 \; -0.513438
\; -0.544783 \; -0.84228 \; -0.952536 \; -0.90518 \; -0.911742 \; -0.800974
\; -0.772431 \; -0.83335 \; -0.788174 \; -0.854302 \; -0.809202 \;
-0.41683 \; -0.38571 \; -0.424407 \; -0.389091 \; -0.391698 \; -0.393579
\; -0.432741 \; -0.371693 \; -0.873957 \; -0.787421 \; -0.831741 \;
-0.832912 \; -0.818441 \; -0.808271 \; -0.82435 \; -0.431578 \; -0.347621
\; -0.448268 \; -0.881042 \; -0.828851 \; -0.785127 \; -0.905483 \;
-0.94792 \; -0.868702 \; -0.818623 \; -0.373758 \; -0.284994 \; -0.650009
\; -0.932334 \; -0.754976 \; -0.442652 \; -0.316122 \; -0.271144 \;
-0.278423 \; -0.299704 \; -0.388274 \; -0.441184 \; -0.426295 \; -0.415923
\; -0.431645 \; -0.399125 \; -0.44634 \; -0.438981 \; -0.404914 \;
-0.406546 \; -0.446185 \; -0.423475 \; -0.434045 \; -0.346578 \; -0.691678
\; -0.85497 \; -0.842605 \; -0.645052 \; -0.351819 \; -0.42307 \; -0.40004
\; -0.422677 \; -0.463488 \; -0.421461 \; -0.365203 \; -0.276024 \;
-0.313033 \; -0.282224 \; -0.575143 \; -0.603955 \; -0.634026 \; -0.645199
\; -0.642888 \; -0.64725 \; -0.564411 \; -0.702592 \; -0.596521 \;
-0.43705 \; -0.426394 \; -0.559794 \; -0.711765 \; -0.582479 \; -0.621318
\; -0.647149 \; -0.586293 \; -0.570517 \; -0.600207 \; -0.646352 \;
-0.65384 \; -0.597097 \; -0.577974 \; -0.708627 \; -0.314062 \; -0.322155
\; -0.438722 \; -0.39376 \; -0.759768 \; -0.949259 \; -0.61157 \; -0.290755
\; -0.311974 \; -0.279691 \; -0.302059 \; -0.274423 \; -0.711423 \;
-0.577763 \; -0.914875 \; -0.945132 \; -0.939107 \; -0.939225 \; -0.58953
\; -0.625622 \; -0.711348 \; -0.487528 \; -0.555864 \; -0.622613 \;
-0.542848 \; -0.9434 \; -0.944123 \; -0.807546 \; -0.768573 \; -0.82237
\; -0.901845 \; -0.592188 \; -0.542179 \; -0.309624 \; -0.421902 \;
-0.813805 \; -0.84869 \; -0.90104 \; -0.940996 \; -0.860387 \; -0.67231
\; -0.542235 \; -0.512554 \; -0.543143 \; -0.569171 \; -0.552246 \;
-0.511751 \; -0.63314 \; -0.879261 \; -0.94029 \; -0.944191 \; -0.925654
\; -0.928865 \; -0.947085 \; -0.932617 \; -0.811854 \; -0.557339 \;
-0.513862 \; -0.512351 \; -0.60493 \; -0.900617 \; -0.943908 \; -0.921769
\; -0.860035 \; -0.773959 \; -0.794336 \; -0.818495 \; -0.788183 \;
-0.87275 \; -0.708055 \; -0.358555 \; -0.423004 \; -0.412957 \; -0.394028
\; -0.394866 \; -0.409963 \; -0.407862 \; -0.50806 \; -0.864595 \;
-0.794733 \; -0.829027 \; -0.828994 \; -0.797478 \; -0.845372 \; -0.709339
\; -0.384287 \; -0.356491 \; -0.570313 \; -0.838115 \; -0.810962 \;
-0.812576 \; -0.92772 \; -0.938739 \; -0.819849 \; -0.786281 \; -0.394125
\; -0.277576 \; -0.636242 \; -0.779865 \; -0.374714 \; -0.380324 \;
-0.315121 \; -0.277464 \; -0.30227 \; -0.281799 \; -0.424347 \; -0.403752
\; -0.439535 \; -0.417323 \; -0.439532 \; -0.394612 \; -0.465835 \;
-0.428612 \; -0.406222 \; -0.417417 \; -0.463893 \; -0.398633 \; -0.428035
\; -0.412638 \; -0.76966 \; -0.856287 \; -0.809527 \; -0.544326 \;
-0.349859 \; -0.439893 \; -0.395148 \; -0.446876 \; -0.459202 \; -0.412301
\; -0.340367 \; -0.296229 \; -0.29419 \; -0.309821 \; -0.689667 \;
-0.565804 \; -0.654539 \; -0.636801 \; -0.651378 \; -0.620702 \; -0.587791
\; -0.707923 \; -0.53791 \; -0.423993 \; -0.452178 \; -0.619581 \;
-0.693363 \; -0.565058 \; -0.646936 \; -0.628697 \; -0.576881 \; -0.575886
\; -0.613894 \; -0.653912 \; -0.642584 \; -0.578078 \; -0.616218 \;
-0.637773 \; -0.28901 \; -0.288476 \; -0.441614 \; -0.869383 \; -0.836479
\; -0.884291 \; -0.653764 \; -0.28025 \; -0.293272 \; -0.285349 \;
-0.328113 \; -0.301576 \; -0.592717 \; -0.527133 \; -0.932241 \; -0.931523
\; -0.93892 \; -0.913135 \; -0.515469 \; -0.565473 \; -0.665674 \;
-0.468206 \; -0.644156 \; -0.566462 \; -0.572998 \; -0.931817 \; -0.901578
\; -0.784068 \; -0.77105 \; -0.858114 \; -0.92968 \; -0.619812 \; -0.293621
\; -0.424927 \; -0.445795 \; -0.784904 \; -0.920378 \; -0.922157 \;
-0.923802 \; -0.805625 \; -0.624274 \; -0.526041 \; -0.519994 \; -0.55473
\; -0.57033 \; -0.54043 \; -0.520719 \; -0.710034 \; -0.905512 \; -0.938464
\; -0.931755 \; -0.9172 \; -0.927755 \; -0.939949 \; -0.913256 \; -0.72978
\; -0.526842 \; -0.518555 \; -0.515661 \; -0.692707 \; -0.92233 \;
-0.915156 \; -0.935663 \; -0.823896 \; -0.755047 \; -0.813766 \; -0.797738
\; -0.802347 \; -0.868113 \; -0.586525 \; -0.352754 \; -0.441733 \;
-0.405121 \; -0.400069 \; -0.398084 \; -0.431337 \; -0.366702 \; -0.693022
\; -0.813637 \; -0.808283 \; -0.823913 \; -0.822998 \; -0.780887 \;
-0.870077 \; -0.581084 \; -0.366607 \; -0.377052 \; -0.726357 \; -0.781514
\; -0.759388 \; -0.836198 \; -0.931999 \; -0.918783 \; -0.773039 \;
-0.868412 \; -0.4511 \; -0.476557 \; -0.93704 \; -0.823779 \; -0.40185
\; -0.296352 \; -0.296899 \; -0.284814 \; -0.328906 \; -0.318233 \;
-0.461878 \; -0.401406 \; -0.43738 \; -0.425791 \; -0.435336 \; -0.412315
\; -0.466589 \; -0.422435 \; -0.410312 \; -0.431374 \; -0.468054 \;
-0.404636 \; -0.386439 \; -0.52448 \; -0.813757 \; -0.849965 \; -0.757535
\; -0.450693 \; -0.381374 \; -0.435226 \; -0.404573 \; -0.464696 \;
-0.449982 \; -0.403502 \; -0.313756 \; -0.325721 \; -0.286044 \; -0.378851
\; -0.700172 \; -0.5801 \; -0.656052 \; -0.634096 \; -0.656596 \; -0.588597
\; -0.635057 \; -0.677563 \; -0.49131 \; -0.422652 \; -0.489507 \;
-0.671457 \; -0.649529 \; -0.577006 \; -0.656606 \; -0.609721 \; -0.572393
\; -0.584345 \; -0.627363 \; -0.656642 \; -0.626553 \; -0.566981 \;
-0.668467 \; -0.495606 \; -0.287697 \; -0.339483 \; -0.423568 \; -0.783872
\; -0.929237 \; -0.530032 \; -0.599672 \; -0.316665 \; -0.291416 \;
-0.292081 \; -0.317584 \; -0.416419 \; -0.606801 \; -0.713243 \; -0.934198
\; -0.921397 \; -0.935177 \; -0.837623 \; -0.608726 \; -0.616356 \;
-0.582738 \; -0.481409 \; -0.704941 \; -0.641484 \; -0.819038 \; -0.888012
\; -0.838817 \; -0.767154 \; -0.782045 \; -0.91907 \; -0.92395 \; -0.568052
\; -0.317481 \; -0.44875 \; -0.864877 \; -0.76366 \; -0.921586 \; -0.933428
\; -0.899956 \; -0.747531 \; -0.585936 \; -0.518375 \; -0.530576 \;
-0.564069 \; -0.567519 \; -0.528228 \; -0.549769 \; -0.783919 \; -0.91513
\; -0.933702 \; -0.919089 \; -0.911081 \; -0.927049 \; -0.92923 \;
-0.881299 \; -0.648157 \; -0.517073 \; -0.520501 \; -0.533008 \; -0.787261
\; -0.927804 \; -0.88749 \; -0.912578 \; -0.799247 \; -0.75469 \; -0.820087
\; -0.78045 \; -0.82559 \; -0.828192 \; -0.473319 \; -0.382636 \; -0.441706
\; -0.403638 \; -0.405297 \; -0.404144 \; -0.445941 \; -0.361396 \;
-0.827475 \; -0.779617 \; -0.815518 \; -0.819126 \; -0.811627 \; -0.783674
\; -0.844059 \; -0.47881 \; -0.364495 \; -0.423207 \; -0.8437 \; -0.798586
\; -0.759072 \; -0.869245 \; -0.927275 \; -0.927275 \; \;;
#X coords 0 -3 2048 1 200 40 2 0 0;
#X restore 105 108 pd \$0-oscdisplay;
#X obj 603 527 loadbang;
#X obj 603 576 s \$0-CID, f 9;
#X obj 602 552 \$0;
#X obj 213 921 outlet~;
#X obj 335 643 t b b b;
#X obj 1070 754 outlet;
#X obj 307 750 bng 15 250 50 0 empty empty empty 17 7 0 10 #fcfcfc
#000000 #000000;
#X obj 111 784 *~ 0.2;
#X obj 207 765 unsig~;
#X obj 213 787 t b;
#X msg 687 713 2048;
#X obj 1155 192 inlet;
#X obj 337 807 sel 0;
#X obj 340 834 pack f f;
#X obj 343 780 spigot 0;
#X obj 422 884 r \$0-triggerlfoON;
#X obj 520 615 r \$0-stoppednotebng;
#X obj 339 888 line 0 100;
#X msg 340 859 1 \, 0 \$2 100;
#X obj 815 317 spigot 0;
#X obj 875 292 tgl 15 0 empty empty empty 17 7 0 10 #fcfcfc #000000
#000000 0 1;
#X obj 824 245 t b b;
#X obj 413 811 r \$0-stoppednotebng;
#X connect 1 0 41 0;
#X connect 1 0 42 0;
#X connect 1 1 43 0;
#X connect 1 1 44 0;
#X connect 2 0 47 0;
#X connect 3 0 4 0;
#X connect 4 0 39 0;
#X connect 5 0 28 0;
#X connect 6 0 7 0;
#X connect 7 0 2 0;
#X connect 7 0 11 0;
#X connect 7 1 2 1;
#X connect 7 1 20 0;
#X connect 7 1 45 0;
#X connect 8 0 9 0;
#X connect 8 1 9 0;
#X connect 9 0 10 1;
#X connect 9 0 11 1;
#X connect 9 0 12 1;
#X connect 9 0 13 1;
#X connect 9 0 85 1;
#X connect 9 0 85 0;
#X connect 10 0 2 1;
#X connect 10 0 18 2;
#X connect 10 0 20 0;
#X connect 11 0 2 0;
#X connect 12 0 13 0;
#X connect 13 0 24 2;
#X connect 13 0 45 0;
#X connect 17 0 24 1;
#X connect 18 0 37 0;
#X connect 19 0 18 0;
#X connect 20 0 21 0;
#X connect 20 0 22 0;
#X connect 20 1 36 0;
#X connect 20 2 36 0;
#X connect 21 0 76 0;
#X connect 21 0 92 0;
#X connect 21 0 19 0;
#X connect 22 0 18 2;
#X connect 23 0 5 1;
#X connect 24 0 14 0;
#X connect 24 1 39 0;
#X connect 24 2 5 0;
#X connect 24 2 81 0;
#X connect 28 0 3 0;
#X connect 31 0 29 0;
#X connect 32 0 50 0;
#X connect 33 0 35 0;
#X connect 33 0 15 0;
#X connect 34 0 33 1;
#X connect 36 0 51 0;
#X connect 38 0 25 0;
#X connect 39 0 33 0;
#X connect 39 0 32 0;
#X connect 41 0 57 0;
#X connect 43 0 64 0;
#X connect 44 0 65 0;
#X connect 45 0 46 0;
#X connect 46 0 75 0;
#X connect 47 0 24 0;
#X connect 48 0 49 0;
#X connect 49 0 74 0;
#X connect 49 0 16 0;
#X connect 50 0 31 0;
#X connect 54 0 56 0;
#X connect 55 0 78 0;
#X connect 56 0 6 0;
#X connect 56 1 68 0;
#X connect 56 2 17 0;
#X connect 57 0 11 0;
#X connect 57 0 19 1;
#X connect 58 0 59 1;
#X connect 59 0 79 0;
#X connect 60 0 58 0;
#X connect 61 0 58 0;
#X connect 62 0 61 0;
#X connect 63 0 60 0;
#X connect 64 0 12 0;
#X connect 65 0 10 0;
#X connect 66 0 56 0;
#X connect 67 0 56 0;
#X connect 68 0 8 0;
#X connect 71 0 73 0;
#X connect 73 0 72 0;
#X connect 75 0 14 0;
#X connect 75 1 77 0;
#X connect 77 0 16 0;
#X connect 78 0 48 0;
#X connect 79 0 80 0;
#X connect 81 0 32 0;
#X connect 82 0 84 1;
#X connect 83 0 84 0;
#X connect 84 0 89 0;
#X connect 85 0 83 0;
#X connect 89 0 88 0;
#X connect 90 0 40 0;
#X connect 91 0 90 1;
#X connect 92 0 90 0;
#X connect 92 1 91 0;
#X coords 0 -1 1 1 210 55 2 100 100;
