#N canvas 156 156 1054 543 12;
#X declare -path clearessentials;
#X msg 205 371 bang;
#X msg 306 92 set_comparison 0;
#X msg 311 136 set_comparison 1;
#X msg 314 186 set_comparison 2;
#X msg 318 231 set_comparison 3;
#X floatatom 334 459 5 0 0 0 - - - 0;
#X text 306 70 Less than;
#X text 309 114 Greater than;
#X text 318 162 Equale to;
#X text 320 211 Multiple of;
#X text 25 65 Written By: Reg Finley;
#X text 24 86 Aka Scr1ptAl1as;
#X text 24 46 Probability Check v1.0;
#X text 24 104 2022/05/11 9:45PM;
#X text 226 8 Probability check is a smal tool the check if the slider
falls within the random bang range depending on the set comparison
type.;
#X obj 446 389 hsl 100 15 0 100 0 0 empty empty empty -2 -8 0 10 #fcfcfc
#000000 #000000 0 1;
#X floatatom 443 409 8 0 0 1 Percentage - - 0;
#X text 628 14 Note* The comparison value which is the slider in this
example must be set from 0 to 100;
#X obj 273 92 <;
#X obj 626 199 &;
#X obj 630 241 |;
#X obj 616 108 &&;
#X obj 620 156 ||;
#X obj 276 136 >;
#X obj 290 272 >=;
#X obj 281 187 ==;
#X obj 292 315 <=;
#X obj 638 343 <<;
#X obj 633 299 >>;
#X obj 297 355 !=;
#X text 323 253 Greater or equal;
#X obj 285 233 %;
#X msg 324 273 set_comparison 4;
#X msg 330 317 set_comparison 5;
#X msg 334 355 set_comparison 6;
#X msg 487 110 set_comparison 7;
#X msg 491 156 set_comparison 8;
#X msg 495 198 set_comparison 9;
#X text 327 296 Less or equal;
#X text 332 337 Not equal;
#X text 483 89 And act ad true;
#X msg 496 241 set_comparison 10;
#X msg 503 299 set_comparison 11;
#X msg 507 345 set_comparison 12;
#X text 493 135 Or if one equals none 0;
#X text 496 177 And;
#X text 494 221 Or;
#X text 499 267 Right bit shift;
#X text 509 324 Left Bit shift;
#X floatatom 448 461 5 0 0 0 - - - 0;
#X msg 205 346 generate;
#X msg 206 397 randomize;
#X obj 28 152 reportissue;
#X obj 28 132 aboutexternal;
#X obj 14 6 declare -path clearessentials;
#X obj 28 173 watchtutorial;
#X obj 334 432 ce_probabilitycheck;
#X connect 0 0 56 0;
#X connect 1 0 56 0;
#X connect 2 0 56 0;
#X connect 3 0 56 0;
#X connect 4 0 56 0;
#X connect 15 0 16 0;
#X connect 16 0 56 1;
#X connect 32 0 56 0;
#X connect 33 0 56 0;
#X connect 34 0 56 0;
#X connect 35 0 56 0;
#X connect 36 0 56 0;
#X connect 37 0 56 0;
#X connect 41 0 56 0;
#X connect 42 0 56 0;
#X connect 43 0 56 0;
#X connect 50 0 56 0;
#X connect 51 0 56 0;
#X connect 56 0 5 0;
#X connect 56 1 49 0;
