#N canvas 602 115 929 525 12;
#X declare -path clearessentials;
#X text 26 67 Aka Scr1ptAl1as;
#X text 28 106 Pd 0.52.2;
#X obj 28 152 reportissue;
#X obj 28 132 aboutexternal;
#X text 96 234 0;
#X text 17 234 Inlet(s);
#X text 10 430 Outlet(s);
#X text 27 46 Written By: Reg Finley;
#X obj 402 174 ce_patchmanager;
#X text 228 7 The core preset directory stems from the externals directory
of this patch clear essentials.;
#X text 26 27 ce_patchmanager v1.0;
#X text 115 232 set_datafields;
#N canvas 39 407 753 453 custompatchexample 0;
#N canvas 234 234 864 786 \$0-includeReverb-Toggle 0;
#X obj 102 102 tgl 12 0 empty empty empty 17 7 0 10 #ffffff #000000
#dcdcdc 0 1;
#X obj 70 100 cnv 16 16 16 empty empty empty 20 12 0 14 #202020 #404040
0;
#X obj 73 103 cnv 10 10 10 \$0-includereverbtoggle-send \$0-includereverbtoggle-recv
empty 20 12 0 14 #fcfcfc #404040 0;
#X obj 171 442 f;
#X obj 171 420 t b f;
#X obj 100 206 spigot 0;
#X obj 145 162 tgl 15 0 empty empty empty 17 7 0 10 #fcfcfc #000000
#000000 0 1;
#X obj 145 139 change;
#X obj 145 116 == 0;
#X obj 216 372 tgl 15 0 empty empty empty 17 7 0 10 #fcfcfc #000000
#000000 0 1;
#X obj 171 345 change;
#X obj 171 395 spigot 0;
#X obj 171 322 == 0;
#X obj 171 366 t b f;
#X obj 171 462 t b b;
#X obj 100 251 f;
#X obj 100 229 t b f;
#X obj 100 271 t b b;
#X obj 145 184 t f f;
#X obj 56 129 tgl 15 0 empty empty empty 17 7 0 10 #fcfcfc #000000
#000000 0 1;
#X obj 55 150 t f b f;
#X obj 192 17 inlet;
#X obj 294 66 loadbang;
#X msg 142 83 0;
#X obj 376 108 \$1;
#X msg 377 133 \$1;
#X floatatom 361 156 5 0 0 0 - - - 0;
#X obj 364 260 t b s;
#X msg 360 283 bang;
#X obj 362 197 t f f;
#X obj 68 695 symbol;
#X obj 67 654 t b s;
#X msg 63 677 bang;
#X obj 51 716 s;
#X symbolatom 149 688 40 0 0 0 - - - 0;
#X obj 474 609 s;
#X obj 340 592 s;
#X msg 676 579 color 16;
#X obj 436 513 symbol;
#X msg 344 518 bang;
#X msg 394 519 \$1;
#X obj 345 539 f;
#X msg 343 560 color \$1;
#X obj 642 336 == 16;
#X obj 644 366 change;
#X obj 646 387 == 0;
#X obj 647 412 t b;
#X obj 651 439 bng 15 250 50 0 empty empty empty 17 7 0 10 #fcfcfc
#000000 #000000;
#X obj 650 473 tgl 15 0 empty empty empty 17 7 0 10 #fcfcfc #000000
#000000 0 1;
#X obj 603 494 spigot 0;
#X obj 742 405 change;
#X obj 745 451 t b;
#X obj 749 478 bng 15 250 50 0 empty empty empty 17 7 0 10 #fcfcfc
#000000 #000000;
#X obj 748 512 tgl 15 0 empty empty empty 17 7 0 10 #fcfcfc #000000
#000000 0 1;
#X obj 701 533 spigot 0;
#X obj 744 426 == 1;
#X obj 740 375 != 16;
#X msg 552 528 color 13;
#X obj 205 45 t b b;
#X obj 376 456 t b b f;
#X obj 289 98 \$0;
#X msg 288 119 \$1;
#X floatatom 284 148 5 0 0 0 - - - 0;
#X msg 361 233 symbol \$1-includereverbtoggle-recv;
#X msg 65 628 symbol \$1-includereverbtoggle;
#X obj 379 434 r NewUiColorColorNum;
#X obj 646 303 r NewUiColorColorNum;
#X obj 744 342 r NewUiColorColorNum;
#X msg 235 73 1;
#X obj 276 15 bng 15 250 50 0 empty empty empty 17 7 0 10 #fcfcfc #000000
#000000;
#X obj 171 69 del 100;
#X obj 32 191 outlet;
#X connect 0 0 19 0;
#X connect 3 0 14 0;
#X connect 4 0 3 0;
#X connect 4 1 3 1;
#X connect 5 0 16 0;
#X connect 6 0 18 0;
#X connect 7 0 6 0;
#X connect 8 0 7 0;
#X connect 9 0 11 1;
#X connect 10 0 13 0;
#X connect 11 0 4 0;
#X connect 12 0 10 0;
#X connect 13 0 11 0;
#X connect 13 1 9 0;
#X connect 14 0 49 0;
#X connect 14 1 54 0;
#X connect 15 0 17 0;
#X connect 16 0 15 0;
#X connect 16 1 15 1;
#X connect 17 0 39 0;
#X connect 17 1 28 0;
#X connect 18 0 5 1;
#X connect 18 1 12 0;
#X connect 19 0 20 0;
#X connect 19 0 71 0;
#X connect 20 0 33 0;
#X connect 20 1 5 0;
#X connect 20 2 8 0;
#X connect 21 0 19 0;
#X connect 22 0 24 0;
#X connect 22 0 58 0;
#X connect 22 0 60 0;
#X connect 23 0 8 0;
#X connect 23 0 0 0;
#X connect 24 0 25 0;
#X connect 25 0 26 0;
#X connect 27 0 28 0;
#X connect 27 1 38 1;
#X connect 28 0 38 0;
#X connect 29 0 63 0;
#X connect 29 1 64 0;
#X connect 30 0 33 1;
#X connect 31 0 32 0;
#X connect 31 1 30 1;
#X connect 31 1 34 0;
#X connect 32 0 30 0;
#X connect 37 0 35 0;
#X connect 38 0 36 1;
#X connect 38 0 35 1;
#X connect 39 0 41 0;
#X connect 40 0 41 1;
#X connect 41 0 42 0;
#X connect 42 0 36 0;
#X connect 43 0 44 0;
#X connect 44 0 45 0;
#X connect 45 0 46 0;
#X connect 46 0 47 0;
#X connect 47 0 48 0;
#X connect 48 0 49 1;
#X connect 49 0 57 0;
#X connect 50 0 55 0;
#X connect 51 0 52 0;
#X connect 52 0 53 0;
#X connect 53 0 54 1;
#X connect 54 0 37 0;
#X connect 55 0 51 0;
#X connect 56 0 50 0;
#X connect 57 0 35 0;
#X connect 58 0 70 0;
#X connect 58 1 68 0;
#X connect 59 0 11 0;
#X connect 59 1 39 0;
#X connect 59 2 40 0;
#X connect 60 0 61 0;
#X connect 61 0 62 0;
#X connect 62 0 29 0;
#X connect 63 0 27 0;
#X connect 64 0 31 0;
#X connect 65 0 59 0;
#X connect 66 0 43 0;
#X connect 67 0 56 0;
#X connect 68 0 8 0;
#X connect 68 0 0 0;
#X connect 69 0 58 0;
#X connect 70 0 23 0;
#X coords 0 -1 1 1 16 16 2 100 100;
#X restore 132 110 pd \$0-includeReverb-Toggle;
#X obj 119 134 vsl 10 40 0 1 0 0 empty empty empty 0 -9 0 10 #404040
#00f8fc #000000 0 1;
#X obj 200 108 inlet;
#X obj 244 430 outlet;
#X obj 390 213 bng 15 250 50 0 empty empty get_datadump 17 7 0 10 #fcfcfc
#000000 #000000;
#X floatatom 267 319 5 0 0 0 - - - 0;
#X obj 267 366 f;
#X obj 267 341 t b f;
#X floatatom 324 319 5 0 0 0 - - - 0;
#X obj 324 366 f;
#X obj 324 341 t b f;
#X obj 195 196 del 200;
#X obj 207 169 t b b b;
#X obj 267 294 f;
#X obj 268 266 t b;
#X obj 324 293 f;
#X obj 325 265 t b;
#X msg 423 287 get_state;
#X obj 244 396 pack s f f;
#X obj 390 233 t b b;
#X obj 560 208 s \$0-presetdata-1;
#X obj 625 186 s \$0-presetdata-2;
#X obj 118 71 r \$0-presetdata-1;
#X obj 136 44 r \$0-presetdata-2;
#X obj 560 160 unpack f f;
#X obj 206 136 route get_datadump get_slidervalue get_state load_example
, f 68;
#X msg 390 261 get_slidervalue;
#X msg 134 360 symbol ce_example;
#X connect 0 0 15 1;
#X connect 1 0 13 1;
#X connect 2 0 25 0;
#X connect 4 0 19 0;
#X connect 5 0 7 0;
#X connect 6 0 18 1;
#X connect 7 0 6 0;
#X connect 7 1 6 1;
#X connect 8 0 10 0;
#X connect 9 0 18 2;
#X connect 10 0 9 0;
#X connect 10 1 9 1;
#X connect 11 0 27 0;
#X connect 12 0 11 0;
#X connect 12 2 4 0;
#X connect 13 0 5 0;
#X connect 14 0 13 0;
#X connect 15 0 8 0;
#X connect 16 0 15 0;
#X connect 17 0 25 0;
#X connect 18 0 3 0;
#X connect 19 0 26 0;
#X connect 19 1 17 0;
#X connect 22 0 1 0;
#X connect 23 0 0 0;
#X connect 24 0 20 0;
#X connect 24 1 21 0;
#X connect 25 0 12 0;
#X connect 25 1 14 0;
#X connect 25 2 16 0;
#X connect 25 3 24 0;
#X connect 26 0 25 0;
#X connect 27 0 18 0;
#X coords 0 -1 1 1 60 85 2 100 100;
#X restore 359 306 pd custompatchexample;
#X msg 359 395 set_datafields \$1;
#X obj 359 282 t a;
#X text 233 54 ce_patchmanger takes has one inlet when get_datadump
is sent to the patch manager all connected externals will be packaged
and sent to a set_datafields message for the patch manager to process.
;
#X text 93 429 0~ - get_datadump \, load_preset;
#X text 421 340 Example custom patch;
#X text 26 85 2022/08/29 11:12AM;
#X obj 14 6 declare -path clearessentials;
#X obj 28 174 watchtutorial;
#X connect 8 0 14 0;
#X connect 12 0 13 0;
#X connect 13 0 8 0;
#X connect 14 0 12 0;
