#N canvas 351 66 1039 856 12;
#X floatatom 480 174 5 0 0 0 - - - 0;
#X obj 282 66 hsl 128 15 0 1.28857 0 0 empty empty pitch\\\ adjustment
-2 -8 0 10 #fcfcfc #000000 #000000 0 1;
#X msg 513 211 range 0 \$1;
#X floatatom 464 211 5 0 0 0 - - - 0;
#X obj 463 234 /;
#X floatatom 463 257 5 0 0 0 - - - 0;
#X floatatom 459 519 5 0 0 1 this\ needs\ to\ be\ only\ one\ octave
- - 0;
#X floatatom 460 567 5 0 0 0 - - - 0;
#X obj 459 542 * 1000;
#X floatatom 460 643 5 0 0 1 index\ of\ the\ key - - 0;
#X obj 460 618 % 12;
#X obj 460 593 int;
#X obj 100 100 cnv 15 55 15 \$0-keylbl-send \$0-keylbl-recv Key:Eb
3 7 0 14 #606060 #00faff 0;
#N canvas 704 268 435 592 calcsampleKey 0;
#X floatatom 86 56 6 0 0 0 - - - 0;
#X obj 84 114 t f f f f f f f f f f f f;
#X obj 83 30 inlet;
#N canvas 118 541 261 212 DisplayKeyNoteC 0;
#X obj 46 2 inlet;
#X obj 45 43 == 1;
#X floatatom 45 69 5 0 0 0 - - - 0;
#X obj 45 91 change;
#X obj 45 119 == 1;
#X floatatom 46 141 5 0 0 0 - - - 0;
#X obj 42 161 t b;
#X obj 42 213 outlet;
#X msg 42 187 symbol C;
#X connect 0 0 1 0;
#X connect 1 0 2 0;
#X connect 2 0 3 0;
#X connect 3 0 4 0;
#X connect 4 0 5 0;
#X connect 5 0 6 0;
#X connect 6 0 8 0;
#X connect 8 0 7 0;
#X restore 71 141 pd DisplayKeyNoteC;
#N canvas 364 658 301 305 DisplayKeyNoteCShp 0;
#X obj 46 2 inlet;
#X floatatom 45 69 5 0 0 0 - - - 0;
#X obj 45 91 change;
#X floatatom 46 141 5 0 0 0 - - - 0;
#X obj 45 160 t b;
#X obj 46 210 outlet;
#X obj 45 43 == 2;
#X obj 45 119 == 0;
#X msg 46 183 symbol C#;
#X connect 0 0 6 0;
#X connect 1 0 2 0;
#X connect 2 0 7 0;
#X connect 3 0 4 0;
#X connect 4 0 8 0;
#X connect 6 0 1 0;
#X connect 7 0 3 0;
#X connect 8 0 5 0;
#X restore 88 163 pd DisplayKeyNoteCShp;
#N canvas 684 710 290 252 DisplayKeyNoteD 0;
#X obj 46 2 inlet;
#X floatatom 45 69 5 0 0 0 - - - 0;
#X obj 45 91 change;
#X obj 45 119 == 1;
#X floatatom 46 141 5 0 0 0 - - - 0;
#X obj 42 161 t b;
#X obj 31 244 outlet;
#X obj 45 43 == 3;
#X msg 38 196 symbol D;
#X connect 0 0 7 0;
#X connect 1 0 2 0;
#X connect 2 0 3 0;
#X connect 3 0 4 0;
#X connect 4 0 5 0;
#X connect 5 0 8 0;
#X connect 7 0 1 0;
#X connect 8 0 6 0;
#X restore 106 186 pd DisplayKeyNoteD;
#N canvas 679 190 410 392 DisplayKeyNoteDShp 0;
#X obj 46 2 inlet;
#X floatatom 45 55 5 0 0 0 - - - 0;
#X obj 45 77 change;
#X floatatom 46 127 5 0 0 0 - - - 0;
#X obj 63 337 outlet;
#X obj 45 105 == 0;
#X obj 46 29 == 4;
#X msg 150 272 symbol D#;
#X obj 62 242 spigot 0;
#X obj 220 31 r \$0-shaprorflat;
#X msg 63 272 symbol Eb;
#X obj 217 124 tgl 15 0 empty empty empty 17 7 0 10 #fcfcfc #000000
#000000 0 1;
#X obj 217 169 change;
#X obj 150 244 spigot 0;
#X obj 220 219 tgl 15 0 empty empty empty 17 7 0 10 #fcfcfc #000000
#000000 0 1;
#X obj 46 145 t b b;
#X obj 218 148 == 0;
#X obj 219 192 == 1;
#X connect 0 0 6 0;
#X connect 1 0 2 0;
#X connect 2 0 5 0;
#X connect 3 0 15 0;
#X connect 5 0 3 0;
#X connect 6 0 1 0;
#X connect 7 0 4 0;
#X connect 8 0 10 0;
#X connect 9 0 11 0;
#X connect 10 0 4 0;
#X connect 11 0 8 1;
#X connect 11 0 16 0;
#X connect 12 0 17 0;
#X connect 13 0 7 0;
#X connect 14 0 13 1;
#X connect 15 0 8 0;
#X connect 15 1 13 0;
#X connect 16 0 12 0;
#X connect 17 0 14 0;
#X restore 122 206 pd DisplayKeyNoteDShp;
#N canvas 126 553 258 243 DisplayKeyNoteE 0;
#X obj 46 2 inlet;
#X floatatom 45 69 5 0 0 0 - - - 0;
#X obj 45 91 change;
#X obj 45 119 == 1;
#X floatatom 46 141 5 0 0 0 - - - 0;
#X obj 42 161 t b;
#X obj 31 244 outlet;
#X obj 45 43 == 5;
#X msg 38 196 symbol E;
#X connect 0 0 7 0;
#X connect 1 0 2 0;
#X connect 2 0 3 0;
#X connect 3 0 4 0;
#X connect 4 0 5 0;
#X connect 5 0 8 0;
#X connect 7 0 1 0;
#X connect 8 0 6 0;
#X restore 135 229 pd DisplayKeyNoteE;
#N canvas 130 130 450 300 DisplayKeypNoteF 0;
#X obj 46 2 inlet;
#X floatatom 45 69 5 0 0 0 - - - 0;
#X obj 45 91 change;
#X obj 45 119 == 1;
#X floatatom 46 141 5 0 0 0 - - - 0;
#X obj 42 161 t b;
#X obj 31 244 outlet;
#X obj 45 43 == 6;
#X msg 38 196 symbol F;
#X connect 0 0 7 0;
#X connect 1 0 2 0;
#X connect 2 0 3 0;
#X connect 3 0 4 0;
#X connect 4 0 5 0;
#X connect 5 0 8 0;
#X connect 7 0 1 0;
#X connect 8 0 6 0;
#X restore 143 249 pd DisplayKeypNoteF;
#N canvas -6 268 450 422 DisplayKeyNoteFShp 0;
#X obj 46 2 inlet;
#X floatatom 45 69 5 0 0 0 - - - 0;
#X obj 45 91 change;
#X floatatom 46 141 5 0 0 0 - - - 0;
#X obj 43 295 outlet;
#X obj 45 119 == 0;
#X obj 45 43 == 7;
#X msg 136 255 symbol F#;
#X obj 45 224 spigot 0;
#X obj 155 85 r \$0-shaprorflat;
#X obj 158 113 tgl 15 0 empty empty empty 17 7 0 10 #fcfcfc #000000
#000000 0 1;
#X obj 203 153 change;
#X obj 136 228 spigot 0;
#X obj 206 203 tgl 15 0 empty empty empty 17 7 0 10 #fcfcfc #000000
#000000 0 1;
#X obj 45 160 t b b;
#X msg 45 252 symbol Gb;
#X obj 204 132 == 0;
#X obj 205 176 == 1;
#X connect 0 0 6 0;
#X connect 1 0 2 0;
#X connect 2 0 5 0;
#X connect 3 0 14 0;
#X connect 5 0 3 0;
#X connect 6 0 1 0;
#X connect 7 0 4 0;
#X connect 8 0 15 0;
#X connect 9 0 10 0;
#X connect 10 0 8 1;
#X connect 10 0 16 0;
#X connect 11 0 17 0;
#X connect 12 0 7 0;
#X connect 13 0 12 1;
#X connect 14 0 8 0;
#X connect 14 1 12 0;
#X connect 15 0 4 0;
#X connect 16 0 11 0;
#X connect 17 0 13 0;
#X restore 153 270 pd DisplayKeyNoteFShp;
#N canvas 208 208 450 300 DisplayKeyNoteG 0;
#X obj 46 2 inlet;
#X floatatom 45 69 5 0 0 0 - - - 0;
#X obj 45 91 change;
#X obj 45 119 == 1;
#X floatatom 46 141 5 0 0 0 - - - 0;
#X obj 42 161 t b;
#X obj 31 244 outlet;
#X obj 45 43 == 8;
#X msg 38 196 symbol G;
#X connect 0 0 7 0;
#X connect 1 0 2 0;
#X connect 2 0 3 0;
#X connect 3 0 4 0;
#X connect 4 0 5 0;
#X connect 5 0 8 0;
#X connect 7 0 1 0;
#X connect 8 0 6 0;
#X restore 163 295 pd DisplayKeyNoteG;
#N canvas 248 292 450 300 DisplayKeyNoteGShp 0;
#X obj 46 2 inlet;
#X floatatom 45 69 5 0 0 0 - - - 0;
#X obj 45 91 change;
#X floatatom 46 141 5 0 0 0 - - - 0;
#X obj 53 341 outlet;
#X obj 45 119 == 0;
#X obj 45 43 == 9;
#X msg 110 308 symbol G#;
#X obj 63 194 spigot 0;
#X obj 130 141 r \$0-shaprorflat;
#X obj 133 169 tgl 15 0 empty empty empty 17 7 0 10 #fcfcfc #000000
#000000 0 1;
#X obj 178 209 change;
#X obj 111 284 spigot 0;
#X obj 181 259 tgl 15 0 empty empty empty 17 7 0 10 #fcfcfc #000000
#000000 0 1;
#X obj 45 160 t b b;
#X msg 65 221 symbol Ab;
#X obj 179 188 == 0;
#X obj 180 232 == 1;
#X connect 0 0 6 0;
#X connect 1 0 2 0;
#X connect 2 0 5 0;
#X connect 3 0 14 0;
#X connect 5 0 3 0;
#X connect 6 0 1 0;
#X connect 7 0 4 0;
#X connect 8 0 15 0;
#X connect 9 0 10 0;
#X connect 10 0 8 1;
#X connect 10 0 16 0;
#X connect 11 0 17 0;
#X connect 12 0 7 0;
#X connect 13 0 12 1;
#X connect 14 0 8 0;
#X connect 14 1 12 0;
#X connect 15 0 4 0;
#X connect 16 0 11 0;
#X connect 17 0 13 0;
#X restore 177 315 pd DisplayKeyNoteGShp;
#N canvas 234 234 450 300 DisplayKeyNoteA 0;
#X obj 46 2 inlet;
#X floatatom 45 69 5 0 0 0 - - - 0;
#X obj 45 91 change;
#X obj 45 119 == 1;
#X floatatom 46 141 5 0 0 0 - - - 0;
#X obj 42 161 t b;
#X obj 31 244 outlet;
#X obj 45 43 == 10;
#X msg 38 196 symbol A;
#X connect 0 0 7 0;
#X connect 1 0 2 0;
#X connect 2 0 3 0;
#X connect 3 0 4 0;
#X connect 4 0 5 0;
#X connect 5 0 8 0;
#X connect 7 0 1 0;
#X connect 8 0 6 0;
#X restore 185 339 pd DisplayKeyNoteA;
#N canvas 92 564 309 343 DisplayKeyNoteAShp 0;
#X obj 46 2 inlet;
#X floatatom 45 69 5 0 0 0 - - - 0;
#X obj 45 91 change;
#X floatatom 46 141 5 0 0 0 - - - 0;
#X obj 36 221 outlet;
#X obj 45 119 == 0;
#X obj 45 43 == 11;
#X msg 201 298 symbol A#;
#X obj 130 156 spigot 0;
#X obj 197 103 r \$0-shaprorflat;
#X obj 200 131 tgl 15 0 empty empty empty 17 7 0 10 #fcfcfc #000000
#000000 0 1;
#X obj 245 171 change;
#X obj 178 246 spigot 0;
#X obj 248 221 tgl 15 0 empty empty empty 17 7 0 10 #fcfcfc #000000
#000000 0 1;
#X obj 45 160 t b b;
#X msg 124 188 symbol Bb;
#X obj 246 150 == 0;
#X obj 247 194 == 1;
#X connect 0 0 6 0;
#X connect 1 0 2 0;
#X connect 2 0 5 0;
#X connect 3 0 14 0;
#X connect 5 0 3 0;
#X connect 6 0 1 0;
#X connect 7 0 4 0;
#X connect 8 0 15 0;
#X connect 9 0 10 0;
#X connect 10 0 8 1;
#X connect 10 0 16 0;
#X connect 11 0 17 0;
#X connect 12 0 7 0;
#X connect 13 0 12 1;
#X connect 14 0 8 0;
#X connect 14 1 12 0;
#X connect 15 0 4 0;
#X connect 16 0 11 0;
#X connect 17 0 13 0;
#X restore 206 360 pd DisplayKeyNoteAShp;
#N canvas 117 518 286 300 DisplayKeyNoteB 0;
#X obj 46 2 inlet;
#X floatatom 45 69 5 0 0 0 - - - 0;
#X obj 45 91 change;
#X obj 45 119 == 1;
#X floatatom 46 141 5 0 0 0 - - - 0;
#X obj 42 161 t b;
#X obj 31 244 outlet;
#X obj 45 43 == 12;
#X msg 38 196 symbol B;
#X connect 0 0 7 0;
#X connect 1 0 2 0;
#X connect 2 0 3 0;
#X connect 3 0 4 0;
#X connect 4 0 5 0;
#X connect 5 0 8 0;
#X connect 7 0 1 0;
#X connect 8 0 6 0;
#X restore 221 381 pd DisplayKeyNoteB;
#X obj 73 456 s;
#X obj 217 408 r \$0-filedisplaID;
#X msg 214 435 symbol \$1-keylbl-recv;
#X obj 162 496 outlet;
#X msg 73 426 label Key:\$1;
#X connect 0 0 1 0;
#X connect 1 0 3 0;
#X connect 1 1 4 0;
#X connect 1 2 5 0;
#X connect 1 3 6 0;
#X connect 1 4 7 0;
#X connect 1 5 8 0;
#X connect 1 6 9 0;
#X connect 1 7 10 0;
#X connect 1 8 11 0;
#X connect 1 9 12 0;
#X connect 1 10 13 0;
#X connect 1 11 14 0;
#X connect 2 0 0 0;
#X connect 3 0 19 0;
#X connect 3 0 18 0;
#X connect 4 0 19 0;
#X connect 4 0 18 0;
#X connect 5 0 19 0;
#X connect 5 0 18 0;
#X connect 6 0 19 0;
#X connect 6 0 18 0;
#X connect 7 0 19 0;
#X connect 7 0 18 0;
#X connect 8 0 19 0;
#X connect 8 0 18 0;
#X connect 9 0 19 0;
#X connect 9 0 18 0;
#X connect 10 0 19 0;
#X connect 10 0 18 0;
#X connect 11 0 19 0;
#X connect 11 0 18 0;
#X connect 12 0 19 0;
#X connect 12 0 18 0;
#X connect 13 0 19 0;
#X connect 13 0 18 0;
#X connect 14 0 19 0;
#X connect 14 0 18 0;
#X connect 16 0 17 0;
#X connect 17 0 15 1;
#X connect 19 0 15 0;
#X restore 458 671 pd calcsampleKey;
#X text 515 569 This should represent the pitch as a bigger float;
#X obj 638 606 / 12;
#X floatatom 640 631 5 0 0 0 - - - 0;
#X obj 640 654 int;
#X floatatom 640 681 5 0 0 1 this\ should\ represent\ this\ current\ octave
- - 0;
#X obj 460 492 * 0.1;
#X obj 464 306 vsl 15 128 0.2389 36.36 0 0 empty empty empty 0 -9 0
10 #fcfcfc #000000 #000000 0 1;
#X obj 464 445 / 36.36;
#X floatatom 463 470 5 0 0 0 - - - 0;
#X obj 463 280 * 36.36;
#X obj 475 63 inlet;
#X obj 279 29 inlet;
#X obj 430 63 inlet;
#X obj 318 784 outlet;
#X obj 156 100 cnv 15 55 15 \$0-octlbl-send \$0-octlbl-recv Oct:8 3
7 0 14 #606060 #00faff 0;
#X obj 592 68 inlet;
#X obj 40 152 loadbang;
#X obj 38 179 \$0;
#X obj 37 204 s \$0-filedisplaID;
#X obj 743 705 r \$0-filedisplaID;
#X obj 704 787 s;
#X obj 638 710 l2s;
#X msg 638 733 label Oct:\$1;
#X msg 740 732 symbol \$1-octlbl-recv;
#X text 410 352 36.36;
#X text 403 401 0.2389;
#X text 327 326 Period (ms) range;
#X text 431 376 to;
#X obj 593 93 t b f;
#X obj 474 89 t b f;
#X obj 476 119 f;
#X obj 459 783 outlet;
#X obj 598 779 outlet;
#X obj 477 149 expr $f2 / $f1;
#X obj 702 120 sel 0 1;
#X obj 702 94 inlet;
#X obj 704 157 tgl 15 0 empty empty empty 17 7 0 10 #fcfcfc #000000
#000000 0 1;
#X obj 704 175 s \$0-shaprorflat;
#X obj 845 72 loadbang;
#X obj 849 95 bng 15 250 50 0 empty empty empty 17 7 0 10 #fcfcfc #000000
#000000;
#X msg 857 152 1;
#X obj 847 115 t b b;
#X msg 819 132 0;
#X obj 129 377 * 0.083;
#X msg 132 337 12;
#X floatatom 129 401 9 0 0 0 - - - 0;
#X obj 130 423 * 12;
#X floatatom 131 450 7 0 0 0 - - - 0;
#X obj 179 349 hsl 128 15 0 1.28857 0 0 empty empty empty -2 -8 0 10
#fcfcfc #000000 #000000 0 1;
#X obj 126 480 int;
#X floatatom 129 514 5 0 0 0 - - - 0;
#X connect 0 0 2 0;
#X connect 0 0 4 1;
#X connect 1 0 62 0;
#X connect 1 0 3 0;
#X connect 2 0 1 0;
#X connect 2 0 27 0;
#X connect 2 0 62 0;
#X connect 3 0 4 0;
#X connect 4 0 5 0;
#X connect 5 0 23 0;
#X connect 6 0 8 0;
#X connect 7 0 11 0;
#X connect 7 0 15 0;
#X connect 8 0 7 0;
#X connect 9 0 13 0;
#X connect 10 0 9 0;
#X connect 11 0 10 0;
#X connect 13 0 45 0;
#X connect 15 0 16 0;
#X connect 16 0 17 0;
#X connect 17 0 18 0;
#X connect 18 0 35 0;
#X connect 18 0 46 0;
#X connect 19 0 6 0;
#X connect 20 0 21 0;
#X connect 21 0 22 0;
#X connect 22 0 19 0;
#X connect 23 0 20 0;
#X connect 24 0 43 0;
#X connect 25 0 1 0;
#X connect 26 0 0 0;
#X connect 29 0 42 0;
#X connect 30 0 31 0;
#X connect 31 0 32 0;
#X connect 33 0 37 0;
#X connect 35 0 36 0;
#X connect 36 0 34 0;
#X connect 37 0 34 1;
#X connect 42 0 44 0;
#X connect 42 1 47 0;
#X connect 43 0 44 0;
#X connect 43 1 44 1;
#X connect 44 0 47 1;
#X connect 47 0 0 0;
#X connect 48 0 50 0;
#X connect 48 1 50 0;
#X connect 49 0 48 0;
#X connect 50 0 51 0;
#X connect 52 0 53 0;
#X connect 53 0 55 0;
#X connect 54 0 48 0;
#X connect 55 0 56 0;
#X connect 55 1 54 0;
#X connect 56 0 48 0;
#X connect 57 0 59 0;
#X connect 58 0 57 0;
#X connect 59 0 60 0;
#X connect 60 0 61 0;
#X connect 61 0 63 0;
#X connect 62 0 57 0;
#X connect 63 0 64 0;
#X coords 0 -1 1 1 111 15 2 100 100;
