#N canvas 176 148 1920 997 12;
#X floatatom 182 277 5 0 0 0 - - - 0;
#X obj 182 302 t f;
#X obj 220 304 symbol;
#X obj 226 258 t b s;
#X msg 222 281 bang;
#X obj 206 329 s;
#X obj 222 209 t f;
#X obj 100 100 cnv 15 65 85 empty empty empty 20 12 0 14 #606060 #fcfcfc
0;
#X obj 100 106 cnv 10 35 10 empty empty Reverb 3 5 0 10 #606060 #fcfcfc
0;
#X obj 222 100 loadbang;
#X msg 222 175 \$1;
#X msg 332 197 1;
#X msg 306 159 1000;
#X msg 282 179 0.5;
#X obj 222 154 \$0;
#X obj 107 162 cnv 10 20 10 empty empty Dry 3 5 0 10 #606060 #fcfcfc
0;
#X obj 107 128 cnv 10 20 10 empty empty Wet 3 5 0 10 #606060 #fcfcfc
0;
#X msg 223 231 symbol \$1-reverbvalue-recv;
#X obj 134 76 r \$0-loaded-reverbvalue;
#X obj 145 51 r \$0-loaded-reverbtoggle;
#N canvas 234 234 864 786 \$0-includeReverb-Toggle 0;
#X obj 102 102 tgl 12 0 empty empty empty 17 7 0 10 #606060 #000000
#dcdcdc 0 1;
#X obj 100 100 cnv 16 16 16 empty empty empty 20 12 0 14 #202020 #404040
0;
#X obj 103 103 cnv 10 10 10 \$0-includereverbtoggle-send \$0-includereverbtoggle-recv
empty 20 12 0 14 #14e814 #404040 0;
#X obj 171 442 f;
#X obj 171 420 t b f;
#X obj 100 206 spigot 0;
#X obj 145 162 tgl 15 0 empty empty empty 17 7 0 10 #fcfcfc #000000
#000000 0 1;
#X obj 145 139 change;
#X obj 145 116 == 0;
#X obj 216 372 tgl 15 0 empty empty empty 17 7 0 10 #fcfcfc #000000
#000000 0 1;
#X obj 171 345 change;
#X obj 171 395 spigot 0;
#X obj 171 322 == 0;
#X obj 171 366 t b f;
#X obj 171 462 t b b;
#X obj 100 251 f;
#X obj 100 229 t b f;
#X obj 100 271 t b b;
#X obj 145 184 t f f;
#X obj 56 129 tgl 15 0 empty empty empty 17 7 0 10 #fcfcfc #000000
#000000 0 1;
#X obj 55 150 t f b f;
#X obj 192 17 inlet;
#X obj 294 66 loadbang;
#X msg 142 83 0;
#X obj 376 108 \$1;
#X msg 377 133 \$1;
#X floatatom 361 156 5 0 0 0 - - - 0;
#X obj 364 260 t b s;
#X msg 360 283 bang;
#X obj 362 197 t f f;
#X obj 68 695 symbol;
#X obj 67 654 t b s;
#X msg 63 677 bang;
#X obj 51 716 s;
#X symbolatom 149 688 40 0 0 0 - - - 0;
#X obj 474 609 s;
#X obj 340 592 s;
#X msg 676 579 color 16;
#X obj 436 513 symbol;
#X msg 344 518 bang;
#X msg 394 519 \$1;
#X obj 345 539 f;
#X msg 343 560 color \$1;
#X obj 642 336 == 16;
#X obj 644 366 change;
#X obj 646 387 == 0;
#X obj 647 412 t b;
#X obj 651 439 bng 15 250 50 0 empty empty empty 17 7 0 10 #fcfcfc
#000000 #000000;
#X obj 650 473 tgl 15 0 empty empty empty 17 7 0 10 #fcfcfc #000000
#000000 0 1;
#X obj 603 494 spigot 0;
#X obj 742 405 change;
#X obj 745 451 t b;
#X obj 749 478 bng 15 250 50 0 empty empty empty 17 7 0 10 #fcfcfc
#000000 #000000;
#X obj 748 512 tgl 15 0 empty empty empty 17 7 0 10 #fcfcfc #000000
#000000 0 1;
#X obj 701 533 spigot 0;
#X obj 744 426 == 1;
#X obj 740 375 != 16;
#X msg 552 528 color 13;
#X obj 205 45 t b b;
#X obj 376 456 t b b f;
#X obj 289 98 \$0;
#X msg 288 119 \$1;
#X floatatom 284 148 5 0 0 0 - - - 0;
#X msg 361 233 symbol \$1-includereverbtoggle-recv;
#X msg 65 628 symbol \$1-includereverbtoggle;
#X obj 379 434 r NewUiColorColorNum;
#X obj 646 303 r NewUiColorColorNum;
#X obj 744 342 r NewUiColorColorNum;
#X msg 235 73 1;
#X obj 276 15 bng 15 250 50 0 empty empty empty 17 7 0 10 #fcfcfc #000000
#000000;
#X obj 171 69 del 100;
#X obj 32 191 outlet;
#X connect 0 0 19 0;
#X connect 3 0 14 0;
#X connect 4 0 3 0;
#X connect 4 1 3 1;
#X connect 5 0 16 0;
#X connect 6 0 18 0;
#X connect 7 0 6 0;
#X connect 8 0 7 0;
#X connect 9 0 11 1;
#X connect 10 0 13 0;
#X connect 11 0 4 0;
#X connect 12 0 10 0;
#X connect 13 0 11 0;
#X connect 13 1 9 0;
#X connect 14 0 49 0;
#X connect 14 1 54 0;
#X connect 15 0 17 0;
#X connect 16 0 15 0;
#X connect 16 1 15 1;
#X connect 17 0 39 0;
#X connect 17 1 28 0;
#X connect 18 0 5 1;
#X connect 18 1 12 0;
#X connect 19 0 20 0;
#X connect 19 0 71 0;
#X connect 20 0 33 0;
#X connect 20 1 5 0;
#X connect 20 2 8 0;
#X connect 21 0 19 0;
#X connect 22 0 24 0;
#X connect 22 0 58 0;
#X connect 22 0 60 0;
#X connect 23 0 8 0;
#X connect 23 0 0 0;
#X connect 24 0 25 0;
#X connect 25 0 26 0;
#X connect 27 0 28 0;
#X connect 27 1 38 1;
#X connect 28 0 38 0;
#X connect 29 0 63 0;
#X connect 29 1 64 0;
#X connect 30 0 33 1;
#X connect 31 0 32 0;
#X connect 31 1 30 1;
#X connect 31 1 34 0;
#X connect 32 0 30 0;
#X connect 37 0 35 0;
#X connect 38 0 36 1;
#X connect 38 0 35 1;
#X connect 39 0 41 0;
#X connect 40 0 41 1;
#X connect 41 0 42 0;
#X connect 42 0 36 0;
#X connect 43 0 44 0;
#X connect 44 0 45 0;
#X connect 45 0 46 0;
#X connect 46 0 47 0;
#X connect 47 0 48 0;
#X connect 48 0 49 1;
#X connect 49 0 57 0;
#X connect 50 0 55 0;
#X connect 51 0 52 0;
#X connect 52 0 53 0;
#X connect 53 0 54 1;
#X connect 54 0 37 0;
#X connect 55 0 51 0;
#X connect 56 0 50 0;
#X connect 57 0 35 0;
#X connect 58 0 70 0;
#X connect 58 1 68 0;
#X connect 59 0 11 0;
#X connect 59 1 39 0;
#X connect 59 2 40 0;
#X connect 60 0 61 0;
#X connect 61 0 62 0;
#X connect 62 0 29 0;
#X connect 63 0 27 0;
#X connect 64 0 31 0;
#X connect 65 0 59 0;
#X connect 66 0 43 0;
#X connect 67 0 56 0;
#X connect 68 0 8 0;
#X connect 68 0 0 0;
#X connect 69 0 58 0;
#X connect 70 0 23 0;
#X coords 0 -1 1 1 16 16 2 100 100;
#X restore 145 103 pd \$0-includeReverb-Toggle;
#X obj 135 130 vsl 10 40 0 1 0 0 empty empty empty 0 -9 0 10 #404040
#00f8fc #000000 0 1;
#X obj 399 150 inlet~;
#X obj 574 157 inlet~;
#X obj 451 185 freeverb~/freeverb~;
#X msg 451 132 wet \$1;
#X msg 499 132 dry \$1;
#N canvas 1 80 450 300 inv 0;
#X obj 154 69 inlet;
#X obj 154 179 outlet;
#X msg 154 124 1;
#X obj 154 97 t b f;
#X obj 154 151 -;
#X connect 0 0 3 0;
#X connect 2 0 4 0;
#X connect 3 0 2 0;
#X connect 3 1 4 1;
#X connect 4 0 1 0;
#X restore 499 105 pd inv;
#X obj 507 239 tgl 15 0 empty empty empty 17 7 0 10 #fcfcfc #000000
#000000 0 1;
#X obj 452 267 *~;
#X obj 563 270 *~;
#X obj 510 215 r \$0-includereverbtoggle;
#X obj 451 76 r \$0-reverbvalue-recv;
#X obj 452 297 outlet~;
#X obj 566 302 outlet~;
#X obj 32 28 ce_colorpicker;
#X obj 720 312 spigot 0;
#X obj 669 277 change;
#X obj 670 331 tgl 15 0 empty empty empty 17 7 0 10 #fcfcfc #000000
#000000 0 1;
#X obj 652 394 *~;
#X obj 652 424 outlet~;
#X obj 669 302 == 0;
#X obj 748 406 *~;
#X obj 748 436 outlet~;
#X obj 24 213 s NewUiColorColorNum;
#X msg 364 198 0;
#X obj 285 138 t b b b b;
#X obj 354 166 del 10;
#X obj 1212 75 inlet;
#X obj 1193 481 outlet;
#X obj 1263 185 bng 15 250 50 0 empty empty get_datadump 17 7 0 10
#fcfcfc #000000 #000000;
#X floatatom 1222 369 5 0 0 0 - - - 0;
#X obj 1222 416 f;
#X obj 1222 391 t b f;
#X floatatom 1279 369 5 0 0 0 - - - 0;
#X obj 1279 416 f;
#X obj 1279 391 t b f;
#X obj 1196 165 del 200;
#X obj 1219 136 t b b b;
#X obj 1220 342 f;
#X obj 1221 314 t b;
#X obj 1259 341 f;
#X obj 1260 313 t b;
#X msg 1276 288 get_state;
#X obj 1199 446 pack s f f;
#X msg 1195 206 symbol ce_reverb;
#X msg 1259 261 get_wetdry;
#X obj 1261 233 t b b;
#X obj 1218 103 route get_datadump get_wetdry get_state load_reverb
, f 68;
#X obj 1606 171 s \$0-presetdata-1;
#X obj 1621 194 s \$0-presetdata-2;
#X obj 174 6 r \$0-presetdata-1;
#X obj 137 -30 r \$0-presetdata-2;
#X obj 1565 141 unpack f f;
#X connect 0 0 1 0;
#X connect 1 0 5 0;
#X connect 2 0 5 1;
#X connect 3 0 4 0;
#X connect 3 1 2 1;
#X connect 4 0 2 0;
#X connect 6 0 17 0;
#X connect 9 0 14 0;
#X connect 9 0 46 0;
#X connect 10 0 6 0;
#X connect 11 0 28 0;
#X connect 13 0 21 0;
#X connect 14 0 10 0;
#X connect 17 0 3 0;
#X connect 18 0 21 0;
#X connect 19 0 20 0;
#X connect 20 0 61 1;
#X connect 21 0 0 0;
#X connect 21 0 59 1;
#X connect 22 0 24 0;
#X connect 22 0 42 0;
#X connect 22 0 39 0;
#X connect 24 0 29 0;
#X connect 24 1 30 0;
#X connect 25 0 24 0;
#X connect 26 0 24 0;
#X connect 27 0 26 0;
#X connect 28 0 29 1;
#X connect 28 0 30 1;
#X connect 28 0 37 0;
#X connect 29 0 33 0;
#X connect 30 0 34 0;
#X connect 31 0 28 0;
#X connect 32 0 27 0;
#X connect 32 0 25 0;
#X connect 35 0 44 0;
#X connect 37 0 41 0;
#X connect 38 0 39 1;
#X connect 38 0 42 1;
#X connect 39 0 40 0;
#X connect 41 0 38 0;
#X connect 42 0 43 0;
#X connect 45 0 28 0;
#X connect 46 0 13 0;
#X connect 46 1 12 0;
#X connect 46 2 47 0;
#X connect 46 3 11 0;
#X connect 47 0 45 0;
#X connect 48 0 68 0;
#X connect 50 0 67 0;
#X connect 51 0 53 0;
#X connect 52 0 64 1;
#X connect 53 0 52 0;
#X connect 53 1 52 1;
#X connect 54 0 56 0;
#X connect 55 0 64 2;
#X connect 56 0 55 0;
#X connect 56 1 55 1;
#X connect 57 0 65 0;
#X connect 58 0 57 0;
#X connect 58 2 50 0;
#X connect 59 0 51 0;
#X connect 60 0 59 0;
#X connect 61 0 54 0;
#X connect 62 0 61 0;
#X connect 63 0 68 0;
#X connect 64 0 49 0;
#X connect 65 0 64 0;
#X connect 66 0 68 0;
#X connect 67 0 66 0;
#X connect 67 1 63 0;
#X connect 68 0 58 0;
#X connect 68 1 60 0;
#X connect 68 2 62 0;
#X connect 68 3 73 0;
#X connect 71 0 21 0;
#X connect 72 0 20 0;
#X connect 73 0 69 0;
#X connect 73 1 70 0;
#X coords 0 -1 1 1 65 85 2 100 100;
