#N canvas 533 126 1083 450 12;
#X declare -path clearessentials;
#X declare -lib clearessentials;
#N canvas 241 168 1440 817 \$0-sequencenode-display 0;
#X obj 100 100 cnv 19 877 175 empty empty empty 18 12 0 12 #e0e0e0 #404040 0;
#X obj 100 165 cnv 19 877 235 empty empty empty 20 12 0 12 #202020 #404040 0;
#N canvas 311 392 1009 412 \$0-node-display 0;
#X obj 101 76 r \$0-to-node-0;
#X obj 215 77 r \$0-to-node-1;
#X obj 328 76 r \$0-to-node-2;
#X obj 439 75 r \$0-to-node-3;
#X obj 555 76 r \$0-to-node-4;
#X obj 667 74 r \$0-to-node-5;
#X obj 781 75 r \$0-to-node-6;
#X obj 890 71 r \$0-to-node-7;
#X obj 101 100 ce_stepcntrl 0;
#X obj 211 100 ce_stepcntrl 1;
#X obj 322 100 ce_stepcntrl 2;
#X obj 433 100 ce_stepcntrl 3;
#X obj 544 100 ce_stepcntrl 4;
#X obj 655 100 ce_stepcntrl 5;
#X obj 766 100 ce_stepcntrl 6;
#X obj 877 100 ce_stepcntrl 7;
#X obj 460 344 s \$0-modify-seq;
#X connect 0 0 8 0;
#X connect 1 0 9 0;
#X connect 2 0 10 0;
#X connect 3 0 11 0;
#X connect 4 0 12 0;
#X connect 5 0 13 0;
#X connect 6 0 14 0;
#X connect 7 0 15 0;
#X connect 8 0 16 0;
#X connect 9 0 16 0;
#X connect 10 0 16 0;
#X connect 11 0 16 0;
#X connect 12 0 16 0;
#X connect 13 0 16 0;
#X connect 14 0 16 0;
#X connect 15 0 16 0;
#X coords 0 -1 1 1 877 235 2 100 100;
#X restore 100 165 pd \$0-node-display;
#X obj 45 -92 loadbang;
#X obj 237 144 tgl 15 0 \$0-ce-metropreview-send \$0-ce-metropreview-recv Metronome\ hihat 17 7 0 10 #131255 #00faff #404040 0 1;
#N canvas 0 0 1440 817 \$0-restep-sequencer 0;
#N canvas 319 200 403 300 \$0-loaddefaultsettings 0;
#X obj 98 65 loadbang;
#X msg 78 109 set_size 15;
#X obj 86 255 outlet;
#X msg 92 136 set_wait 500;
#X msg 143 191 use_timeout 0;
#X msg 141 220 set_timeout 10000;
#X msg 109 162 set_continuous 1;
#X connect 0 0 1 0;
#X connect 0 0 3 0;
#X connect 0 0 6 0;
#X connect 0 0 5 0;
#X connect 0 0 4 0;
#X connect 1 0 2 0;
#X connect 3 0 2 0;
#X connect 4 0 2 0;
#X connect 5 0 2 0;
#X connect 6 0 2 0;
#X restore 143 176 pd \$0-loaddefaultsettings;
#X obj 143 200 ce_susbng 0;
#X obj 151 224 sel 0 1 2 3;
#X obj 366 175 tgl 15 0 empty empty empty 17 7 0 10 #fcfcfc #000000 #000000 0 1;
#X msg 363 233 set_state \$1;
#X msg 239 223 set_wait \$1;
#X obj 102 390 until;
#X obj 102 418 f;
#X obj 140 418 + 1;
#X obj 185 417 sel 0;
#X msg 103 362 1;
#X floatatom 103 466 5 0 0 0 - - - 0;
#X msg 251 283 0;
#X msg 172 387 0;
#X obj 140 444 mod 8;
#X obj 188 444 r \$0-total_sepsteps;
#X obj 167 256 t b;
#X msg 374 150 0;
#X obj 370 104 loadbang;
#X obj 370 125 t b;
#X obj 254 255 t b b;
#X obj 145 322 t b b b;
#X obj 112 566 pack f \$0;
#X obj 73 600 s;
#X msg 34 534 triggerstep \$1;
#X msg 112 589 symbol restepper-all;
#X msg 764 281 0;
#X obj 763 257 t b b;
#X obj 764 328 s;
#X msg 764 305 remallfields \$1;
#X msg 808 277 symbol \$1-restepper-seq;
#X floatatom 808 256 5 0 0 0 - - - 0;
#X obj 747 227 t b b b;
#N canvas 76 407 390 300 \$0-toallnodes-selseq 0;
#X obj 80 36 inlet;
#X obj 80 85 s \$0-to-node-0;
#X obj 84 113 s \$0-to-node-1;
#X obj 97 138 s \$0-to-node-2;
#X obj 107 163 s \$0-to-node-3;
#X obj 118 185 s \$0-to-node-4;
#X obj 129 206 s \$0-to-node-5;
#X obj 142 227 s \$0-to-node-6;
#X obj 147 251 s \$0-to-node-7;
#X obj 82 60 t a a a a a a a a;
#X connect 0 0 9 0;
#X connect 9 0 1 0;
#X connect 9 1 2 0;
#X connect 9 2 3 0;
#X connect 9 3 4 0;
#X connect 9 4 5 0;
#X connect 9 5 6 0;
#X connect 9 6 7 0;
#X connect 9 7 8 0;
#X restore 608 462 pd \$0-toallnodes-selseq;
#X obj 919 462 r \$0-total_sepsteps;
#X msg 916 509 set_totalsteps \$1;
#X msg 548 357 set_selseq \$1;
#X obj 937 579 s;
#X msg 954 555 symbol restepper-all;
#X obj 363 455 s;
#X msg 382 430 symbol \$1-restepper-seq;
#X obj 345 327 r \$0-modify-seq;
#N canvas 180 164 450 361 \$0-bpmcalculator 0;
#X obj 36 25 inlet;
#X obj 165 70 r \$0-total_sepsteps;
#X obj 37 172 outlet;
#X floatatom 37 48 5 0 0 0 - - - 0;
#X obj 37 72 t f;
#X obj 34 119 expr 1000/($f1/$f2);
#X floatatom 183 120 5 0 0 0 - - - 0;
#X obj 36 146 t f;
#X obj 164 95 * 4;
#X connect 0 0 3 0;
#X connect 1 0 8 0;
#X connect 3 0 4 0;
#X connect 4 0 5 0;
#X connect 5 0 7 0;
#X connect 7 0 2 0;
#X connect 8 0 5 1;
#X connect 8 0 6 0;
#X restore 508 155 pd \$0-bpmcalculator;
#X msg 508 180 millsperbeat \$1;
#X obj 508 84 t f b;
#X msg 540 107 8;
#X obj 540 131 s \$0-total_sepsteps;
#X obj 837 178 r \$0-total_sepsteps;
#X obj 821 203 f;
#X msg 820 227 set_totalsteps \$1;
#X obj 128 44 f;
#X obj 128 68 s \$0-totalpatterns;
#X obj 126 19 t b f;
#X obj 34 249 s \$0-assignbmp;
#X obj 69 -72 inlet;
#X msg 360 572 symbol restepper-all;
#X obj 341 596 s;
#X obj 326 492 pack f f;
#X msg 327 520 metro_statechange \$2 \$1;
#X obj 327 545 t a b;
#X msg 554 576 symbol restepper-all;
#X obj 535 600 s;
#X obj 520 496 pack f f;
#X obj 521 549 t a b;
#X msg 521 524 midi_off \$2 \$1;
#X obj 938 401 s \$0-modify-seq;
#X msg 936 376 set_midich \$2 \$1;
#X obj 936 350 pack f f;
#X msg 839 434 set_mouttype \$1;
#X obj 345 355 t a a;
#X obj 383 405 t f;
#X obj 422 376 print test;
#X msg 382 381 \$1;
#X floatatom 443 403 5 0 0 0 - - - 0;
#X obj 838 461 t a b;
#X msg 303 -4 symbol restepper-all;
#X obj 286 31 s;
#X msg 233 2 stop_seq;
#X obj 12 224 t b b b;
#X msg 11 301 set_div 13;
#X msg 747 351 clear_seq;
#X obj 220 617 tgl 19 0 empty empty empty 0 -10 0 12 #fcfcfc #000000 #000000 0 1;
#X obj 220 738 s;
#X msg 238 714 symbol \$1-restepper-seq;
#X floatatom 238 693 5 0 0 0 - - - 0;
#X obj 220 642 pack f f;
#X msg 220 667 set_metropreview \$2 \$1;
#X obj 223 326 bng 19 250 50 0 empty empty empty 0 -10 0 12 #fcfcfc #000000 #000000;
#X obj 261 333 bng 19 250 50 0 empty empty empty 0 -10 0 12 #fcfcfc #000000 #000000;
#X obj 364 200 t f f;
#X floatatom 464 651 5 0 0 0 - - - 0;
#X obj 1044 822 s \$0-display-mout-recv;
#X msg 1044 796 label \$1;
#X obj 1042 714 spigot 0;
#X obj 1095 690 tgl 19 0 empty empty empty 0 -10 0 12 #fcfcfc #000000 #000000 0 1;
#X obj 1128 710 spigot 0;
#X obj 1180 685 tgl 19 0 empty empty empty 0 -10 0 12 #fcfcfc #000000 #000000 0 1;
#X msg 1131 625 0;
#X msg 1098 622 1;
#X obj 1100 596 t b b;
#X obj 1130 541 hradio 19 1 0 3 empty empty midi\ out\ type 0 -10 0 12 #fcfcfc #000000 #000000 0;
#X msg 1210 623 0;
#X msg 1174 624 1;
#X obj 1173 598 t b b;
#X obj 1029 643 t a a a;
#X obj 1042 686 t b;
#X obj 1128 687 t b;
#X obj 836 403 t a a a;
#X msg 1042 767 symbol Index|Midi|Note|Velocity;
#X msg 1127 736 symbol Index|Midi|Channel|Note|Velocity;
#X msg 1117 279 0;
#X obj 1116 255 t b b;
#X obj 1117 326 s;
#X msg 1117 303 remallfields \$1;
#X msg 1185 277 symbol \$1-restepper-seq;
#X floatatom 1185 256 5 0 0 0 - - - 0;
#X obj 1100 225 t b b b;
#X obj 1190 176 r \$0-total_sepsteps;
#X obj 1174 201 f;
#X msg 1173 225 set_totalsteps \$1;
#X obj 1098 95 until;
#X obj 1098 133 f;
#X obj 1136 126 + 1;
#X obj 1193 124 sel 0;
#X obj 1098 177 t b f;
#X obj 1098 69 f;
#X obj 1079 38 t b;
#X obj 1114 41 r \$0-totalpatterns;
#X obj 1179 90 r \$0-totalpatterns;
#X obj 1136 152 mod 16;
#X msg 127 -5 32;
#X obj 70 656 pack f \$0;
#X obj 103 491 t f f f f f;
#X obj 52 729 s;
#X msg 70 679 symbol \$2-out-toqueue;
#X obj 918 532 t a b b;
#X obj 914 485 t a b;
#X obj 6 604 t a b;
#X obj 685 421 s \$0-selected-seq;
#X obj 554 334 t f f f f f f;
#X msg 371 51 set_isplaying \$1;
#X msg 368 26 1;
#X msg 402 25 0;
#X obj 320 -58 t b b b b;
#X obj 368 75 s \$0-out-toqueue;
#X obj 513 28 r \$0-ce-bpm-send;
#X obj 934 301 r \$0-ce-midich-send;
#X obj 630 650 r \$0-ce-metropreview-send;
#X obj 936 327 t f;
#X obj 557 309 r \$0-current-selseq;
#X obj 744 154 r \$0-issueclear;
#X obj 1080 13 r \$0-issueclearpattern;
#X obj 769 380 r \$0-display-mout-send;
#X msg 120 151 start;
#X msg 321 -83 stop;
#X obj 120 127 r \$0-bngstart;
#X obj 322 -109 r \$0-bngstop;
#X msg 57 277 0;
#X floatatom 578 68 5 0 0 0 - - - 0;
#X msg 75 93 selection 0;
#X obj 33 383 outlet;
#X obj 71 -48 t b b b;
#X obj 1130 564 sel 0 1 2;
#X msg 1294 625 0;
#X msg 1258 626 1;
#X obj 1257 600 t b b;
#X obj 1267 684 spigot 0;
#X obj 1319 659 tgl 19 0 empty empty empty 0 -10 0 12 #fcfcfc #000000 #000000 0 1;
#X obj 1267 661 t b;
#X msg 1266 710 symbol All;
#X obj 476 -40 s \$0-stopsmpler;
#X obj 240 -39 t b b b b;
#X msg 339 147 1;
#X obj 227 138 bng 19 250 50 0 empty empty empty 0 -10 0 12 #fcfcfc #000000 #000000;
#X connect 0 0 1 0;
#X connect 1 0 87 0;
#X connect 1 1 2 0;
#X connect 2 1 16 0;
#X connect 2 2 20 0;
#X connect 2 3 88 0;
#X connect 3 0 89 0;
#X connect 4 0 1 0;
#X connect 5 0 1 0;
#X connect 6 0 7 0;
#X connect 7 0 8 0;
#X connect 7 0 11 0;
#X connect 8 0 14 0;
#X connect 9 0 6 1;
#X connect 10 0 6 0;
#X connect 11 0 132 0;
#X connect 12 0 3 0;
#X connect 13 0 7 1;
#X connect 14 0 7 1;
#X connect 14 0 9 0;
#X connect 15 0 14 1;
#X connect 16 0 10 0;
#X connect 17 0 3 0;
#X connect 18 0 19 0;
#X connect 19 0 17 0;
#X connect 20 0 12 0;
#X connect 20 1 62 0;
#X connect 21 0 1 0;
#X connect 21 1 13 0;
#X connect 21 2 141 0;
#X connect 22 0 25 0;
#X connect 24 0 133 0;
#X connect 25 0 23 1;
#X connect 26 0 29 0;
#X connect 27 0 26 0;
#X connect 29 0 28 0;
#X connect 30 0 28 1;
#X connect 31 0 30 0;
#X connect 32 0 80 0;
#X connect 32 1 27 0;
#X connect 32 2 48 0;
#X connect 34 0 136 0;
#X connect 35 0 133 0;
#X connect 35 0 135 0;
#X connect 36 0 33 0;
#X connect 36 0 160 0;
#X connect 38 0 37 1;
#X connect 40 0 39 1;
#X connect 41 0 69 0;
#X connect 42 0 43 0;
#X connect 42 0 5 0;
#X connect 43 0 33 0;
#X connect 43 0 137 0;
#X connect 44 0 42 0;
#X connect 44 1 45 0;
#X connect 45 0 46 0;
#X connect 47 0 48 1;
#X connect 48 0 49 0;
#X connect 49 0 28 0;
#X connect 50 0 51 0;
#X connect 52 0 50 0;
#X connect 52 1 50 1;
#X connect 54 0 161 0;
#X connect 55 0 56 1;
#X connect 57 0 58 0;
#X connect 58 0 59 0;
#X connect 59 0 56 0;
#X connect 59 1 55 0;
#X connect 60 0 61 1;
#X connect 62 0 64 0;
#X connect 63 0 61 0;
#X connect 63 1 60 0;
#X connect 64 0 63 0;
#X connect 66 0 65 0;
#X connect 67 0 66 0;
#X connect 68 0 74 0;
#X connect 69 0 39 0;
#X connect 69 1 72 0;
#X connect 70 0 40 0;
#X connect 70 0 73 0;
#X connect 72 0 70 0;
#X connect 74 0 37 0;
#X connect 74 1 38 0;
#X connect 75 0 76 1;
#X connect 77 0 76 0;
#X connect 78 0 79 0;
#X connect 78 1 53 0;
#X connect 78 2 157 0;
#X connect 79 0 33 0;
#X connect 80 0 33 0;
#X connect 81 0 85 0;
#X connect 83 0 82 1;
#X connect 84 0 83 0;
#X connect 85 0 86 0;
#X connect 86 0 82 0;
#X connect 89 0 4 0;
#X connect 89 1 57 0;
#X connect 92 0 91 0;
#X connect 93 0 108 0;
#X connect 94 0 93 1;
#X connect 95 0 109 0;
#X connect 96 0 95 1;
#X connect 97 0 96 0;
#X connect 97 0 167 0;
#X connect 98 0 94 0;
#X connect 99 0 98 0;
#X connect 99 1 97 0;
#X connect 100 0 162 0;
#X connect 101 0 94 0;
#X connect 101 0 167 0;
#X connect 102 0 96 0;
#X connect 103 0 102 0;
#X connect 103 1 101 0;
#X connect 104 0 105 0;
#X connect 104 1 106 0;
#X connect 104 2 168 0;
#X connect 105 0 93 0;
#X connect 106 0 95 0;
#X connect 107 0 68 0;
#X connect 107 1 104 0;
#X connect 107 2 100 0;
#X connect 108 0 92 0;
#X connect 109 0 92 0;
#X connect 110 0 113 0;
#X connect 111 0 110 0;
#X connect 113 0 112 0;
#X connect 114 0 112 1;
#X connect 115 0 114 0;
#X connect 116 1 111 0;
#X connect 116 2 118 0;
#X connect 117 0 118 1;
#X connect 118 0 119 0;
#X connect 119 0 112 0;
#X connect 120 0 121 0;
#X connect 121 0 122 0;
#X connect 121 0 124 0;
#X connect 122 0 129 0;
#X connect 123 0 120 1;
#X connect 124 0 116 0;
#X connect 124 1 115 0;
#X connect 125 0 120 0;
#X connect 126 0 125 0;
#X connect 127 0 125 1;
#X connect 128 0 129 1;
#X connect 129 0 121 1;
#X connect 129 0 123 0;
#X connect 130 0 52 0;
#X connect 131 0 134 0;
#X connect 132 0 24 0;
#X connect 132 1 22 0;
#X connect 132 2 57 1;
#X connect 132 3 62 1;
#X connect 134 0 133 1;
#X connect 135 0 37 0;
#X connect 135 1 38 0;
#X connect 136 0 35 0;
#X connect 136 1 131 0;
#X connect 137 0 133 0;
#X connect 137 1 131 0;
#X connect 139 0 36 0;
#X connect 139 1 31 0;
#X connect 139 2 84 0;
#X connect 139 3 67 1;
#X connect 139 3 90 0;
#X connect 139 4 85 1;
#X connect 139 5 138 0;
#X connect 140 0 144 0;
#X connect 141 0 140 0;
#X connect 142 0 140 0;
#X connect 143 0 171 0;
#X connect 143 1 172 0;
#X connect 143 2 17 0;
#X connect 143 3 142 0;
#X connect 145 0 44 0;
#X connect 145 0 158 0;
#X connect 146 0 148 0;
#X connect 147 0 81 0;
#X connect 148 0 67 0;
#X connect 149 0 139 0;
#X connect 150 0 32 0;
#X connect 151 0 126 0;
#X connect 152 0 107 0;
#X connect 153 0 21 0;
#X connect 154 0 143 0;
#X connect 155 0 153 0;
#X connect 155 0 173 0;
#X connect 156 0 154 0;
#X connect 157 0 139 0;
#X connect 159 0 160 0;
#X connect 161 0 78 0;
#X connect 161 1 159 0;
#X connect 161 2 130 0;
#X connect 162 0 99 0;
#X connect 162 1 103 0;
#X connect 162 2 165 0;
#X connect 163 0 96 0;
#X connect 163 0 94 0;
#X connect 164 0 167 0;
#X connect 165 0 164 0;
#X connect 165 1 163 0;
#X connect 166 0 169 0;
#X connect 167 0 166 1;
#X connect 168 0 166 0;
#X connect 169 0 92 0;
#X connect 171 1 77 0;
#X connect 171 2 75 0;
#X connect 171 3 170 0;
#X connect 172 0 3 0;
#X restore 47 5 pd \$0-restep-sequencer;
#X floatatom 259 109 5 10 300 1 BPM \$0-ce-bpm-recv \$0-ce-bpm-send 0;
#X floatatom 324 109 5 1 16 1 Midi\ Ch \$0-ce-midich-recv \$0-ce-midich-send 0;
#X obj 552 141 hradio 19 1 0 3 \$0-display-mout-send \$0-display-mout-recv Index|Midi|Channel|Note|Velocity 60 10 0 12 #131255 #00faff #000000 0;
#X obj 465 141 cnv 19 30 19 empty empty Midi\ out\ type 3 10 0 10 #e0e0e0 #000000 0;
#X msg 332 -62 vis 1 1;
#X msg 342 -40 vis 2 1;
#X obj 636 -21 outlet;
#N canvas 128 128 450 300 \$0-startseq 0;
#X obj 100 101 bng 19 250 50 0 empty empty empty 0 -10 0 12 #fcfcfc #000000 #000000;
#X obj 120 101 bng 19 250 50 0 empty empty empty 0 -10 0 12 #fcfcfc #000000 #000000;
#X obj 140 101 bng 19 250 50 0 empty empty empty 0 -10 0 12 #fcfcfc #000000 #000000;
#X obj 100 100 cnv 19 60 20 empty empty Start 14 10 0 12 #7c7c7c #000000 0;
#X obj 111 154 s \$0-bngstart;
#X obj 110 129 t b;
#X connect 0 0 5 0;
#X connect 1 0 5 0;
#X connect 2 0 5 0;
#X connect 5 0 4 0;
#X coords 0 -1 1 1 60 20 2 100 100;
#X restore 104 141 pd \$0-startseq;
#N canvas 128 128 450 300 \$0-stopseq 0;
#X obj 100 101 bng 19 250 50 0 empty empty empty 0 -10 0 12 #fcfcfc #000000 #000000;
#X obj 120 101 bng 19 250 50 0 empty empty empty 0 -10 0 12 #fcfcfc #000000 #000000;
#X obj 140 101 bng 19 250 50 0 empty empty empty 0 -10 0 12 #fcfcfc #000000 #000000;
#X obj 100 100 cnv 19 60 20 empty empty Stop 14 10 0 12 #7c7c7c #000000 0;
#X obj 123 128 t b;
#X obj 122 153 s \$0-bngstop;
#X connect 0 0 4 0;
#X connect 1 0 4 0;
#X connect 2 0 4 0;
#X connect 4 0 5 0;
#X coords 0 -1 1 1 60 20 2 100 100;
#X restore 171 141 pd \$0-stopseq;
#N canvas 128 128 332 290 \$0-clearseqbtn 0;
#X obj 100 101 bng 19 250 50 0 empty empty empty 0 -10 0 12 #fcfcfc #000000 #000000;
#X obj 120 101 bng 19 250 50 0 empty empty empty 0 -10 0 12 #fcfcfc #000000 #000000;
#X obj 140 101 bng 19 250 50 0 empty empty empty 0 -10 0 12 #fcfcfc #000000 #000000;
#X obj 100 100 cnv 19 60 20 empty empty Clear 13 10 0 12 #7c7c7c #000000 0;
#X obj 118 131 t b;
#X obj 119 153 ce_dblclick;
#X obj 118 201 s \$0-issueclear;
#X obj 119 179 t b;
#X connect 0 0 4 0;
#X connect 1 0 4 0;
#X connect 2 0 4 0;
#X connect 4 0 5 0;
#X connect 5 0 7 0;
#X connect 7 0 6 0;
#X coords 0 -1 1 1 60 20 2 100 100;
#X restore 527 107 pd \$0-clearseqbtn;
#X obj 258 109 cnv 15 38 18 \$0-display-bpm-send \$0-display-bpm-recv 87 5 8 0 14 #131255 #00faff 0;
#X obj 104 109 cnv 18 22 18 \$0-display-selseq-send \$0-display-selseq-recv 0 3 8 0 14 #202020 #00faff 0;
#X obj 323 109 cnv 15 38 18 \$0-display-midich-send \$0-display-midich-recv 1 5 8 0 14 #131255 #00faff 0;
#X obj 415 108 cnv 19 30 19 empty empty Double\ click\ to 3 10 0 12 #e0e0e0 #404040 0;
#X obj 589 108 cnv 19 30 19 empty empty Sequence 3 10 0 12 #e0e0e0 #404040 0;
#N canvas 128 128 332 242 \$0-clearseqbtn 0;
#X obj 100 101 bng 19 250 50 0 empty empty empty 0 -10 0 12 #fcfcfc #000000 #000000;
#X obj 120 101 bng 19 250 50 0 empty empty empty 0 -10 0 12 #fcfcfc #000000 #000000;
#X obj 140 101 bng 19 250 50 0 empty empty empty 0 -10 0 12 #fcfcfc #000000 #000000;
#X obj 100 100 cnv 19 60 20 empty empty Clear 13 10 0 12 #7c7c7c #000000 0;
#X obj 118 131 t b;
#X obj 119 153 ce_dblclick;
#X obj 119 179 t b;
#X obj 118 201 s \$0-issueclearpattern;
#X connect 0 0 4 0;
#X connect 1 0 4 0;
#X connect 2 0 4 0;
#X connect 4 0 5 0;
#X connect 5 0 6 0;
#X connect 6 0 7 0;
#X coords 0 -1 1 1 60 20 2 100 100;
#X restore 877 -25 pd \$0-clearseqbtn;
#X obj 878 -44 cnv 19 30 19 empty empty Pattern 3 10 0 12 #e0e0e0 #404040 0;
#X obj 84 -24 s \$0-total_patterns;
#X msg 84 -49 32;
#X obj 343 -17 clone ce_restepper_clone 32;
#X obj 692 -72 outlet;
#X obj 538 -72 r \$0-out-toqueue;
#X obj 349 136 knob 25 0 126 0 0 empty empty #dfdfdf #7c7c7c black 0 0 0 0 1 320 0 0;
#X obj 378 142 cnv 15 38 18 \$0-display-metrovol-send \$0-display-metrovol-recv 0.6 5 8 0 14 #131255 #00faff 0;
#X obj 418 141 cnv 19 30 19 empty empty Volume 3 10 0 10 #e0e0e0 #404040 0;
#X obj 119 -48 s \$0-bngdefaultsettings;
#X obj 93 66 s \$0-switchmetro;
#X obj 78 42 s \$0-sequencebpm;
#X obj 652 48 t f;
#X obj 652 71 s \$0-output-miditype;
#X obj 45 -69 t b b b;
#X obj 130 109 cnv 19 30 19 empty empty Selected\ Sequence 3 10 0 12 #e0e0e0 #404040 0;
#N canvas 128 128 332 242 \$0-applyrename 0;
#X obj 100 101 bng 19 250 50 0 empty empty empty 0 -10 0 12 #fcfcfc #000000 #000000;
#X obj 120 101 bng 19 250 50 0 empty empty empty 0 -10 0 12 #fcfcfc #000000 #000000;
#X obj 140 101 bng 19 250 50 0 empty empty empty 0 -10 0 12 #fcfcfc #000000 #000000;
#X obj 100 100 cnv 19 60 20 empty empty Apply 13 10 0 12 #7c7c7c #000000 0;
#X obj 118 131 t b;
#X obj 119 157 s \$0-issuerename;
#X connect 0 0 4 0;
#X connect 1 0 4 0;
#X connect 2 0 4 0;
#X connect 4 0 5 0;
#X coords 0 -1 1 1 60 20 2 100 100;
#X restore 871 -77 pd \$0-applyrename;
#X obj 823 105 cnv 17 30 18 empty empty Sequence\ activity 3 8 0 10 #e0e0e0 #404040 0;
#X obj 936 104 hradio 18 1 0 2 \$0-s-activity-send \$0-s-activity-recv empty 0 -10 0 12 #131255 #00faff #ffffff 0;
#N canvas 461 227 498 625 \$0-persequence-activity 1;
#X obj 68 21 inlet;
#X obj 101 194 outlet;
#X obj 69 217 s \$0-done-getrequest;
#X obj 98 135 s \$0-recentactivity;
#X obj 69 46 t a a a a, f 13;
#N canvas 206 29 880 689 \$0-sort-activity 0;
#X obj 221 18 inlet;
#X obj 221 45 list length;
#X msg 599 127 0;
#X obj 146 284 tgl 19 0 empty empty empty 0 -10 0 12 #fcfcfc #000000 #000000 0 1;
#X obj 217 284 tgl 19 0 empty empty empty 0 -10 0 12 #fcfcfc #000000 #000000 0 1;
#X obj 45 381 spigot 0;
#X obj 206 356 spigot 0;
#X msg 206 407 \$5;
#X obj 43 431 sel 0;
#X obj 206 383 t a;
#X msg 46 406 \$4;
#X obj 205 432 sel 0;
#X obj 75 457 t b;
#X obj 328 408 tgl 19 0 empty empty empty 0 -10 0 12 #fcfcfc #000000 #000000 0 1;
#X obj 279 432 spigot 0;
#X msg 317 229 1;
#X msg 390 227 1;
#X obj 603 212 tgl 19 0 empty empty empty 0 -10 0 12 #fcfcfc #000000 #000000 0 1;
#X obj 554 236 spigot 0;
#N canvas 402 450 500 260 \$0-populate-onselect 0;
#X obj 177 52 inlet;
#X obj 249 102 s \$0-prep-poplist;
#X obj 223 126 s \$0-compilepreplist;
#N canvas 324 97 628 700 \$0-populate-node 0;
#X obj 149 22 inlet;
#X obj 220 93 list append;
#X obj 294 71 t b;
#X obj 220 117 l2s;
#X obj 164 171 symbol;
#X msg 164 147 bang;
#X obj 220 142 t s;
#X obj 164 197 s2l;
#X obj 138 472 symbol;
#X obj 138 449 t b f;
#X obj 130 523 list trim;
#X obj 294 49 r \$0-prep-poplist;
#X obj 220 26 r \$0-compilepreplist;
#X msg 20 421 wait_rdy 1;
#X obj 19 377 r \$0-done-getrequest;
#X obj 19 399 t b;
#X msg 211 599 symbol \$2-to-node-\$1;
#X obj 134 639 s;
#X floatatom 283 528 5 0 0 0 - - - 0;
#X floatatom 333 526 5 0 0 0 - - - 0;
#X floatatom 381 526 5 0 0 0 - - - 0;
#X floatatom 428 527 5 0 0 0 - - - 0;
#X floatatom 472 526 5 0 0 0 - - - 0;
#X floatatom 514 526 5 0 0 0 - - - 0;
#X obj 268 552 \$0;
#X obj 211 530 t f f b;
#X obj 215 575 pack f f;
#X obj 137 423 f;
#X obj 149 46 t b a;
#X msg 166 246 \$3;
#X obj 166 271 sel 0 1 2 3 4 5 6 7;
#X obj 159 311 t b;
#X obj 188 312 t b;
#X obj 223 315 t b;
#X obj 251 313 t b;
#X obj 286 311 t b;
#X obj 315 312 t b;
#X obj 350 315 t b;
#X obj 378 313 t b;
#X obj 165 221 t a a;
#X floatatom 113 276 5 0 0 0 - - - 0;
#X floatatom 410 569 5 0 0 0 - - - 0;
#X floatatom 457 570 5 0 0 0 - - - 0;
#X floatatom 501 569 5 0 0 0 - - - 0;
#X floatatom 543 569 5 0 0 0 - - - 0;
#X obj 225 430 unpack f s f f f f f f f f f f f f f f f;
#X obj 138 496 pack s f f f f f f f f f f f f f f f;
#X connect 0 0 28 0;
#X connect 1 0 3 0;
#X connect 2 0 1 1;
#X connect 3 0 6 0;
#X connect 4 0 7 0;
#X connect 5 0 4 0;
#X connect 6 0 4 1;
#X connect 7 0 39 0;
#X connect 8 0 46 0;
#X connect 9 0 8 0;
#X connect 10 0 17 0;
#X connect 11 0 2 0;
#X connect 12 0 1 0;
#X connect 13 0 17 0;
#X connect 14 0 15 0;
#X connect 15 0 13 0;
#X connect 16 0 17 1;
#X connect 24 0 26 1;
#X connect 25 0 46 1;
#X connect 25 1 26 0;
#X connect 25 2 24 0;
#X connect 26 0 16 0;
#X connect 27 0 9 0;
#X connect 28 0 5 0;
#X connect 29 0 30 0;
#X connect 29 0 40 0;
#X connect 30 0 31 0;
#X connect 30 1 32 0;
#X connect 30 2 33 0;
#X connect 30 3 34 0;
#X connect 30 4 35 0;
#X connect 30 5 36 0;
#X connect 30 6 37 0;
#X connect 30 7 38 0;
#X connect 31 0 27 0;
#X connect 32 0 27 0;
#X connect 33 0 27 0;
#X connect 34 0 27 0;
#X connect 35 0 27 0;
#X connect 36 0 27 0;
#X connect 37 0 27 0;
#X connect 38 0 27 0;
#X connect 39 0 29 0;
#X connect 39 1 45 0;
#X connect 45 1 8 1;
#X connect 45 2 25 0;
#X connect 45 3 18 0;
#X connect 45 3 46 2;
#X connect 45 4 19 0;
#X connect 45 4 46 3;
#X connect 45 5 20 0;
#X connect 45 5 46 4;
#X connect 45 6 21 0;
#X connect 45 6 46 5;
#X connect 45 7 22 0;
#X connect 45 7 46 6;
#X connect 45 8 23 0;
#X connect 45 8 46 7;
#X connect 45 9 46 8;
#X connect 45 10 46 9;
#X connect 45 11 46 10;
#X connect 45 12 46 11;
#X connect 45 13 44 0;
#X connect 45 13 46 12;
#X connect 45 14 46 13;
#X connect 45 15 46 14;
#X connect 45 16 46 15;
#X connect 46 0 10 0;
#X restore 205 153 pd \$0-populate-node;
#X obj 176 75 t b b a b;
#X connect 0 0 4 0;
#X connect 4 1 3 0;
#X connect 4 2 2 0;
#X connect 4 3 1 0;
#X restore 555 410 pd \$0-populate-onselect;
#X obj 636 289 r \$0-current-selseq;
#X obj 604 315 ==;
#X msg 595 288 \$1;
#X obj 603 340 tgl 19 0 empty empty empty 0 -10 0 12 #fcfcfc #000000 #000000 0 1;
#X obj 554 366 spigot 0;
#X msg 390 177 0;
#X obj 390 201 t b f f f;
#X obj 390 154 t b;
#X msg 314 181 0;
#X obj 314 205 t b f f f;
#X obj 314 158 t b;
#X msg 238 227 1;
#X msg 235 179 0;
#X obj 235 203 t b f f f;
#X obj 235 156 t b;
#X msg 135 240 1;
#X msg 132 192 0;
#X obj 132 214 t b f f f;
#X obj 132 169 t b;
#X obj 221 70 t f;
#X obj 378 574 s \$0-got-seqdata-metro;
#X obj 402 549 s \$0-got-seqdata-vel;
#X obj 455 521 s \$0-got-seqdata-solo;
#X obj 463 497 s \$0-got-seqdata-mute;
#X obj 404 521 + 0.1;
#X floatatom 645 633 5 0 0 0 - - - 0;
#X floatatom 642 586 5 0 0 0 - - - 0;
#X floatatom 644 539 5 0 0 0 - - - 0;
#X floatatom 247 502 5 0 0 0 - - - 0;
#X floatatom 292 502 5 0 0 0 - - - 0;
#X floatatom 344 502 5 0 0 0 - - - 0;
#X obj 313 602 s \$0-got-seqdata-mch;
#X obj 645 609 s \$0-got-seqdata-effectstate;
#X obj 644 564 s \$0-got-seqdata-effectmix;
#X obj 642 515 s \$0-got-seqdata-toeffectbus;
#X obj 269 629 s \$0-got-seqdata-mnote;
#X floatatom 205 505 5 0 0 0 - - - 0;
#X floatatom 157 505 5 0 0 0 - - - 0;
#X obj 262 599 t f;
#X obj 308 576 t f;
#X obj 365 531 t f;
#X floatatom 349 551 5 0 0 0 - - - 0;
#X obj 554 260 t a a;
#X obj 237 458 t b;
#X obj 554 389 t a;
#X obj 621 173 r \$0-recentactivity;
#X obj 204 321 r \$0-recentactivity;
#X obj 280 374 r \$0-recentactivity;
#X obj 45 357 r \$0-recentactivity;
#X obj 34 503 s \$0-goodactout;
#X obj 278 461 unpack f f f f f f f f f f f f f;
#X obj 652 482 s \$0-got-seqdata-threshold;
#X obj 221 94 sel 4 5 13 16;
#X floatatom 404 434 5 0 0 0 - - - 0;
#X floatatom 448 437 5 0 0 0 - - - 0;
#X floatatom 491 436 5 0 0 0 - - - 0;
#X connect 0 0 1 0;
#X connect 1 0 39 0;
#X connect 2 0 4 0;
#X connect 2 0 3 0;
#X connect 2 0 13 0;
#X connect 2 0 17 0;
#X connect 3 0 5 1;
#X connect 4 0 6 1;
#X connect 5 0 10 0;
#X connect 6 0 9 0;
#X connect 7 0 11 0;
#X connect 8 1 12 0;
#X connect 9 0 7 0;
#X connect 10 0 8 0;
#X connect 11 1 63 0;
#X connect 12 0 69 0;
#X connect 13 0 14 1;
#X connect 14 0 70 0;
#X connect 15 0 13 0;
#X connect 16 0 17 0;
#X connect 17 0 18 1;
#X connect 18 0 62 0;
#X connect 20 0 21 1;
#X connect 21 0 23 0;
#X connect 22 0 21 0;
#X connect 23 0 24 1;
#X connect 24 0 64 0;
#X connect 25 0 26 0;
#X connect 26 0 16 0;
#X connect 26 1 3 0;
#X connect 26 2 4 0;
#X connect 26 3 13 0;
#X connect 27 0 25 0;
#X connect 28 0 29 0;
#X connect 29 0 15 0;
#X connect 29 1 3 0;
#X connect 29 2 4 0;
#X connect 29 3 17 0;
#X connect 30 0 28 0;
#X connect 31 0 4 0;
#X connect 32 0 33 0;
#X connect 33 0 31 0;
#X connect 33 1 3 0;
#X connect 33 2 13 0;
#X connect 33 3 17 0;
#X connect 34 0 32 0;
#X connect 35 0 3 0;
#X connect 36 0 37 0;
#X connect 37 0 35 0;
#X connect 37 1 4 0;
#X connect 37 2 13 0;
#X connect 37 3 17 0;
#X connect 38 0 36 0;
#X connect 39 0 72 0;
#X connect 44 0 41 0;
#X connect 58 0 55 0;
#X connect 59 0 51 0;
#X connect 60 0 40 0;
#X connect 62 0 24 0;
#X connect 62 1 22 0;
#X connect 63 0 69 0;
#X connect 64 0 19 0;
#X connect 65 0 18 0;
#X connect 66 0 6 0;
#X connect 67 0 14 0;
#X connect 68 0 5 0;
#X connect 70 0 57 0;
#X connect 70 1 56 0;
#X connect 70 2 48 0;
#X connect 70 3 49 0;
#X connect 70 3 58 0;
#X connect 70 4 50 0;
#X connect 70 4 59 0;
#X connect 70 5 60 0;
#X connect 70 5 61 0;
#X connect 70 6 44 0;
#X connect 70 7 42 0;
#X connect 70 7 73 0;
#X connect 70 8 43 0;
#X connect 70 8 74 0;
#X connect 70 9 45 0;
#X connect 70 9 52 0;
#X connect 70 9 75 0;
#X connect 70 10 46 0;
#X connect 70 10 53 0;
#X connect 70 11 47 0;
#X connect 70 11 54 0;
#X connect 70 12 71 0;
#X connect 72 0 38 0;
#X connect 72 1 34 0;
#X connect 72 2 30 0;
#X connect 72 3 27 0;
#X connect 72 4 2 0;
#X restore 127 111 pd \$0-sort-activity;
#N canvas 554 436 450 328 \$0-doactivityswitch 0;
#X obj 196 22 inlet;
#X obj 230 77 r \$0-current-selseq;
#X obj 198 103 ==;
#X msg 197 78 \$1;
#X obj 148 227 tgl 19 0 empty empty empty 0 -10 0 12 #fcfcfc #000000 #000000 0 1;
#N canvas 52 52 450 300 \$0-activityswitch 0;
#X obj 95 97 until;
#X obj 95 135 f;
#X obj 133 128 + 1;
#X obj 188 124 sel 0;
#X msg 93 73 1;
#X obj 100 11 inlet;
#X obj 93 193 outlet;
#X obj 100 47 t b;
#X obj 93 167 t f;
#X obj 133 153 mod 2;
#X connect 0 0 1 0;
#X connect 1 0 2 0;
#X connect 1 0 8 0;
#X connect 2 0 9 0;
#X connect 3 0 0 1;
#X connect 4 0 0 0;
#X connect 5 0 7 0;
#X connect 7 0 4 0;
#X connect 8 0 6 0;
#X connect 9 0 1 1;
#X connect 9 0 3 0;
#X restore 148 201 pd \$0-activityswitch;
#X obj 148 178 t b;
#X obj 197 128 tgl 19 0 empty empty empty 0 -10 0 12 #fcfcfc #000000 #000000 0 1;
#X obj 148 154 spigot 0;
#X obj 148 250 s \$0-s-activity-recv;
#X obj 148 55 r \$0-goodactout;
#X connect 0 0 3 0;
#X connect 1 0 2 1;
#X connect 2 0 7 0;
#X connect 3 0 2 0;
#X connect 4 0 9 0;
#X connect 5 0 4 0;
#X connect 6 0 5 0;
#X connect 7 0 8 1;
#X connect 8 0 6 0;
#X connect 10 0 8 0;
#X restore 157 74 pd \$0-doactivityswitch;
#X obj 289 351 tgl 19 0 empty empty empty 0 -10 0 12 #fcfcfc #000000 #000000 0 1;
#X obj 292 327 r \$0-ce-printtoconsole-send;
#X obj 226 352 spigot 0;
#X obj 210 528 print;
#X msg 258 397 \$2;
#X obj 226 375 t a a;
#X obj 258 419 route populate_step;
#X obj 203 488 spigot 0;
#X obj 257 465 tgl 19 0 empty empty empty 0 -10 0 12 #fcfcfc #000000 #000000 0 1;
#X msg 258 442 0;
#X msg 388 442 1;
#X obj 247 207 list length;
#X obj 250 256 t b;
#X obj 203 180 t a a a;
#X obj 289 256 t b;
#X msg 289 279 1;
#X msg 250 279 0;
#X obj 282 303 tgl 19 0 empty empty empty 0 -10 0 12 #fcfcfc #000000 #000000 0 1;
#X obj 226 327 spigot 0;
#X obj 68 160 t b a a;
#X obj 250 232 sel 13;
#X connect 0 0 4 0;
#X connect 4 0 26 0;
#X connect 4 1 3 0;
#X connect 4 2 5 0;
#X connect 4 3 6 0;
#X connect 7 0 9 1;
#X connect 8 0 7 0;
#X connect 9 0 12 0;
#X connect 11 0 13 0;
#X connect 12 0 14 0;
#X connect 12 1 11 0;
#X connect 13 0 16 0;
#X connect 13 1 17 0;
#X connect 14 0 10 0;
#X connect 15 0 14 1;
#X connect 16 0 15 0;
#X connect 17 0 15 0;
#X connect 18 0 27 0;
#X connect 19 0 23 0;
#X connect 20 1 25 0;
#X connect 20 2 18 0;
#X connect 21 0 22 0;
#X connect 22 0 24 0;
#X connect 23 0 24 0;
#X connect 24 0 25 1;
#X connect 25 0 9 0;
#X connect 26 0 2 0;
#X connect 26 1 1 0;
#X connect 26 2 20 0;
#X connect 27 0 19 0;
#X connect 27 1 21 0;
#X restore 445 -46 pd \$0-persequence-activity;
#X obj 410 -44 t a;
#X obj 659 -72 t a;
#X obj 237 74 r \$0-got-seqdata-metro;
#X obj 952 -76 r \$0-got-seqdata-toeffectbus;
#X obj 965 -27 r \$0-got-seqdata-effectmix;
#X obj 973 34 r \$0-got-seqdata-effectstate;
#X floatatom 974 61 5 0 0 0 - - - 0;
#X floatatom 966 3 5 0 0 0 - - - 0;
#X floatatom 952 -50 5 0 0 0 - - - 0;
#N canvas 149 188 450 269 \$0-adjustmetrovolume 0;
#X obj 73 23 inlet;
#X obj 72 48 ce_veltodb;
#X obj 144 157 s;
#X msg 173 134 symbol \$1-restepper-seq;
#X obj 181 34 r \$0-selected-seq;
#X obj 129 85 pack f f;
#X obj 182 59 t f f;
#X obj 106 176 l2s;
#X msg 106 200 label \$1;
#X obj 71 81 t f f;
#X msg 130 110 set_metrovol \$2 \$1;
#X obj 107 228 s \$0-display-metrovol-recv;
#X connect 0 0 1 0;
#X connect 1 0 9 0;
#X connect 3 0 2 1;
#X connect 4 0 6 0;
#X connect 5 0 10 0;
#X connect 6 0 5 1;
#X connect 6 1 3 0;
#X connect 7 0 8 0;
#X connect 8 0 11 0;
#X connect 9 0 7 0;
#X connect 9 1 5 0;
#X connect 10 0 2 0;
#X restore 430 75 pd \$0-adjustmetrovolume;
#N canvas 361 159 450 300 \$0-assigndefaultmetrovolume 0;
#X obj 105 217 outlet;
#X obj 95 104 r \$0-bngdefaultsettings;
#X msg 144 159 size 25;
#X msg 208 154 range 0 126;
#X msg 93 161 78.12;
#X obj 94 128 t b b b;
#X connect 1 0 5 0;
#X connect 2 0 0 0;
#X connect 3 0 0 0;
#X connect 4 0 0 0;
#X connect 5 0 4 0;
#X connect 5 1 2 0;
#X connect 5 2 3 0;
#X restore 422 51 pd \$0-assigndefaultmetrovolume;
#N canvas 361 159 450 300 \$0-assigndefaultouttype 0;
#X obj 157 166 outlet;
#X msg 155 140 0;
#X obj 156 117 t b;
#X obj 157 90 r \$0-bngdefaultsettings;
#X connect 1 0 0 0;
#X connect 2 0 1 0;
#X connect 3 0 2 0;
#X restore 643 26 pd \$0-assigndefaultouttype;
#N canvas 343 283 450 264 \$0-displayed-midich 0;
#X obj 214 90 l2s;
#X msg 214 114 label \$1;
#X obj 215 139 s \$0-display-midich-recv;
#X floatatom 213 69 5 0 0 0 - - - 0;
#X obj 213 45 r \$0-ce-midich-send;
#X obj 61 113 r \$0-got-seqdata-mch;
#X obj 62 137 s \$0-ce-midich-send;
#X connect 0 0 1 0;
#X connect 1 0 2 0;
#X connect 3 0 0 0;
#X connect 4 0 3 0;
#X connect 5 0 6 0;
#X restore 235 29 pd \$0-displayed-midich;
#N canvas 336 278 450 300 \$0-displayed-bpm 0;
#X msg 90 74 84;
#X obj 88 24 r \$0-assignbmp;
#X obj 129 129 f;
#X obj 89 96 t b b f b;
#X obj 130 152 s \$0-ce-bpm-send;
#X obj 88 52 t b;
#X obj 277 149 s \$0-display-bpm-recv;
#X obj 278 99 l2s;
#X msg 277 125 label \$1;
#X floatatom 279 75 5 0 0 0 - - - 0;
#X obj 280 49 r \$0-ce-bpm-send;
#X obj 61 274 s;
#X msg 90 254 symbol restepper-all;
#X obj 52 231 t a b;
#X msg 52 208 set_bpm \$1;
#X obj 52 184 r \$0-ce-bpm-send;
#X connect 0 0 3 0;
#X connect 1 0 5 0;
#X connect 2 0 4 0;
#X connect 3 1 2 0;
#X connect 3 2 2 1;
#X connect 5 0 0 0;
#X connect 7 0 8 0;
#X connect 8 0 6 0;
#X connect 9 0 7 0;
#X connect 10 0 9 0;
#X connect 12 0 11 1;
#X connect 13 0 11 0;
#X connect 13 1 12 0;
#X connect 14 0 13 0;
#X connect 15 0 14 0;
#X restore 237 52 pd \$0-displayed-bpm;
#N canvas 465 169 565 335 \$0-seqselection-handler 0;
#X obj 57 226 s \$0-display-selseq-recv;
#X obj 59 178 l2s;
#X msg 55 202 label \$1;
#X obj 99 70 r \$0-sel-fromqueue;
#X obj 185 119 s \$0-queue-velchange;
#X obj 143 152 s \$0-change-atsequence;
#X obj 57 44 r \$0-bngdefaultsettings;
#X obj 56 67 t b;
#X obj 115 178 s \$0-current-selseq;
#X obj 99 95 route float set_seqvel;
#X obj 340 14 r \$0-current-selseq;
#X obj 356 109 s;
#X msg 377 83 symbol \$1-restepper-seq;
#X msg 339 61 get_seqdata \$1;
#X msg 57 94 0;
#X obj 343 38 t f f;
#X obj 37 130 bng 19 250 50 0 empty empty empty 0 -10 0 12 #fcfcfc #000000 #000000;
#X msg 153 256 wait_rdy 0;
#N canvas 247 125 1107 300 \$0-noderdystatus 0;
#X obj 38 29 inlet;
#X obj 110 109 s \$0-to-node-0;
#X obj 224 109 s \$0-to-node-1;
#X obj 335 109 s \$0-to-node-2;
#X obj 451 109 s \$0-to-node-3;
#X obj 567 109 s \$0-to-node-4;
#X obj 679 109 s \$0-to-node-5;
#X obj 793 110 s \$0-to-node-6;
#X obj 902 109 s \$0-to-node-7;
#X obj 110 63 t a a a a a a a a;
#X connect 0 0 9 0;
#X connect 9 0 1 0;
#X connect 9 1 2 0;
#X connect 9 2 3 0;
#X connect 9 3 4 0;
#X connect 9 4 5 0;
#X connect 9 5 6 0;
#X connect 9 6 7 0;
#X connect 9 7 8 0;
#X restore 153 281 pd \$0-noderdystatus;
#X obj 99 126 t f f f b;
#X connect 1 0 2 0;
#X connect 2 0 0 0;
#X connect 3 0 9 0;
#X connect 6 0 7 0;
#X connect 7 0 14 0;
#X connect 9 0 19 0;
#X connect 9 1 4 0;
#X connect 10 0 15 0;
#X connect 12 0 11 1;
#X connect 13 0 11 0;
#X connect 14 0 1 0;
#X connect 14 0 16 0;
#X connect 15 0 13 0;
#X connect 15 1 12 0;
#X connect 17 0 18 0;
#X connect 19 0 1 0;
#X connect 19 1 8 0;
#X connect 19 2 5 0;
#X connect 19 3 17 0;
#X restore 424 29 pd \$0-seqselection-handler;
#X obj 763 -64 outlet;
#X obj 957 142 tgl 15 0 \$0-ce-printtoconsole-send \$0-ce-printtoconsole-recv Print\ to\ console -100 7 0 10 #131255 #00faff #404040 0 1;
#X obj 812 -187 r \$0-stopsmpler;
#X msg 812 -161 stop_smpls;
#X obj 765 -156 bng 19 250 50 0 empty empty empty 0 -10 0 12 #fcfcfc #000000 #000000;
#X connect 3 0 36 0;
#X connect 4 0 32 0;
#X connect 5 0 57 0;
#X connect 8 0 34 0;
#X connect 10 0 25 0;
#X connect 11 0 25 0;
#X connect 24 0 23 0;
#X connect 25 0 42 0;
#X connect 27 0 43 0;
#X connect 28 0 51 0;
#X connect 34 0 35 0;
#X connect 36 0 5 0;
#X connect 36 1 24 0;
#X connect 36 2 31 0;
#X connect 41 0 12 0;
#X connect 42 0 41 0;
#X connect 43 0 26 0;
#X connect 44 0 4 0;
#X connect 45 0 50 0;
#X connect 46 0 49 0;
#X connect 47 0 48 0;
#X connect 52 0 28 0;
#X connect 53 0 8 0;
#X connect 59 0 60 0;
#X connect 59 0 61 0;
#X connect 60 0 12 0;
#X coords 0 -1 1 1 877 300 2 100 100;
#X restore 100 100 pd \$0-sequencenode-display;
#X obj 102 407 outlet;
#X obj 102 45 declare -path clearessentials;
#X obj 533 407 outlet;
#X obj 526 5 inlet;
#X obj 525 56 s \$0-sel-fromqueue;
#X obj 101 71 namecanvas \$0-ce_this-restepper;
#X obj 789 43 s \$0-toallqueues;
#X obj 525 29 t a;
#X msg 789 16 set_seqtitle 0 Sequence;
#X obj 981 406 outlet;
#X obj 104 19 declare -lib clearessentials;
#X connect 0 0 1 0;
#X connect 0 1 3 0;
#X connect 0 2 10 0;
#X connect 4 0 8 0;
#X connect 8 0 5 0;
#X connect 9 0 7 0;
#X coords 0 -1 1 1 877 300 2 100 100;
