#N struct 1709-bang float c float bc float w float z float x float y symbol text;
#N struct 1711-bang float c float bc float w float z float x float y symbol text;
#N struct 1713-bang float c float bc float w float z float x float y symbol text;
#N struct 1715-bang float c float bc float w float z float x float y symbol text;
#N struct 1717-bang float c float bc float w float z float x float y symbol text;
#N struct 1719-bang float c float bc float w float z float x float y symbol text;
#N struct 1721-bang float c float bc float w float z float x float y symbol text;
#N struct 1723-bang float c float bc float w float z float x float y symbol text;
#N struct 1725-bang float c float bc float w float z float x float y symbol text;
#N struct 1727-bang float c float bc float w float z float x float y symbol text;
#N struct 1729-bang float c float bc float w float z float x float y symbol text;
#N struct 1731-bang float c float bc float w float z float x float y symbol text;
#N struct 1733-bang float c float bc float w float z float x float y symbol text;
#N struct 1737-bang float c float bc float w float z float x float y symbol text;
#N struct 1810-bang float c float bc float w float z float x float y symbol text;
#N struct 1812-bang float c float bc float w float z float x float y symbol text;
#N struct 1814-bang float c float bc float w float z float x float y symbol text;
#N struct 1816-bang float c float bc float w float z float x float y symbol text;
#N struct 1818-bang float c float bc float w float z float x float y symbol text;
#N struct 1820-bang float c float bc float w float z float x float y symbol text;
#N canvas 428 36 1125 742 12;
#X obj 100 100 cnv 19 877 120 empty empty empty 20 12 0 12 #9f9f9f #404040 0;
#X obj 105 105 cnv 19 867 110 empty empty empty 20 12 0 12 #dfdfdf #404040 0;
#X obj -62 143 ce_numberpad;
#N canvas 755 520 562 300 \$0-triggerplayBTN 0;
#X obj 101 42 inlet;
#X msg 227 73 symbol Play(P);
#X obj 163 16 loadbang;
#X obj 163 38 t b b;
#X msg 158 74 1 2.5;
#X obj 98 132 s \$0-play-loadedsmpl;
#X obj 100 100 ce_btn 1 2.5 50 20;
#X connect 0 0 6 0;
#X connect 1 0 6 1;
#X connect 2 0 3 0;
#X connect 3 0 1 0;
#X connect 3 1 4 0;
#X connect 4 0 6 2;
#X connect 6 0 5 0;
#X coords 0 -1 1 1 50 20 2 100 100;
#X restore 218 121 pd \$0-triggerplayBTN;
#N canvas 755 520 562 300 \$0-triggerRecBTN 0;
#X obj 98 167 outlet;
#X obj 92 42 inlet;
#X msg 224 92 symbol Rec(R);
#X obj 157 20 loadbang;
#X obj 157 42 t b b;
#X msg 158 74 1.5 2.5;
#X obj 100 100 ce_btn 1 2.5 50 20;
#X connect 1 0 6 0;
#X connect 2 0 6 1;
#X connect 3 0 4 0;
#X connect 4 0 2 0;
#X connect 4 1 5 0;
#X connect 5 0 6 2;
#X connect 6 0 0 0;
#X coords 0 -1 1 1 50 20 2 100 100;
#X restore 325 121 pd \$0-triggerRecBTN;
#N canvas 755 520 562 300 \$0-triggereditBTN 0;
#X obj 100 127 outlet;
#X obj 100 77 inlet;
#X msg 233 89 symbol Edit;
#X obj 167 16 loadbang;
#X obj 167 38 t b b;
#X obj 100 100 ce_btn 2.3 2.5 50 20;
#X msg 158 74 2.3 2.3;
#X connect 1 0 5 0;
#X connect 2 0 5 1;
#X connect 3 0 4 0;
#X connect 4 0 2 0;
#X connect 4 1 6 0;
#X connect 5 0 0 0;
#X connect 6 0 5 2;
#X coords 0 -1 1 1 50 20 2 100 100;
#X restore 481 614 pd \$0-triggereditBTN;
#X obj 108 105 knob 35 0 127 0 0 empty empty #dfdfdf #7c7c7c black 0 0 0 0 0 320 0 0;
#X msg 39 87 arc 0;
#X obj 627 105 cnv 19 90 19 \$0-startdisplay-smp-send \$0-startdisplay-smp-recv S:54337.9 3 10 0 12 #7c7c7c #000000 0;
#X obj 718 105 cnv 19 90 19 \$0-enddisplay-smp-send \$0-enddisplay-smp-recv E:36619 3 10 0 12 #bbbbbb #000000 0;
#N canvas 547 306 546 415 \$0-setuptemplate 0;
#X obj 111 334 outlet;
#X msg 79 164 initiate;
#X obj 130 189 bng 15 250 50 0 empty empty empty 17 7 0 10 #fcfcfc #000000 #000000;
#X msg 131 234 writesliders;
#X obj 131 209 t b b b b;
#N canvas 250 312 855 593 \$0-initslider 0;
#X obj 88 60 inlet;
#X obj 68 535 outlet;
#X msg 140 430 clear;
#N canvas 52 52 450 300 \$0-setvflags 0;
#X obj 179 258 outlet;
#X obj 178 57 inlet;
#X msg 186 135 set_type -v;
#X obj 178 81 t b b b;
#X obj 271 72 inlet;
#X obj 202 172 f;
#X msg 199 200 set_padding \$1;
#X msg 210 106 set_vslidersize 45 65;
#X connect 1 0 3 0;
#X connect 2 0 0 0;
#X connect 3 0 7 0;
#X connect 3 1 2 0;
#X connect 3 2 5 0;
#X connect 4 0 5 1;
#X connect 5 0 6 0;
#X connect 6 0 0 0;
#X connect 7 0 0 0;
#X restore 333 421 pd \$0-setvflags;
#X msg 131 455 initiate;
#N canvas 52 52 450 300 \$0-sethflags 0;
#X obj 180 241 outlet;
#X obj 178 57 inlet;
#X msg 186 135 set_type -h;
#X obj 176 81 t b b b;
#X msg 178 104 set_hslidersize 128 20;
#X obj 233 164 inlet;
#X obj 199 190 f;
#X msg 198 215 set_padding \$1;
#X connect 1 0 3 0;
#X connect 2 0 0 0;
#X connect 3 0 4 0;
#X connect 3 1 2 0;
#X connect 3 2 6 0;
#X connect 4 0 0 0;
#X connect 5 0 6 1;
#X connect 6 0 7 0;
#X connect 7 0 0 0;
#X restore 262 396 pd \$0-sethflags;
#X msg 68 508 resize_display;
#X msg 280 131 set_iname multislider;
#X msg 78 481 set_nextdirection left;
#X msg 478 171 set_defaultminrange 0;
#X msg 477 196 set_defaultmaxrange 1;
#X msg 477 146 set_startloc 100 100;
#X msg 476 220 set_fontsize 10;
#X msg 477 245 set_defaultlabel empty;
#X obj 288 245 route 0 1;
#X obj 289 216 inlet;
#X obj 264 300 f;
#X msg 283 272 0;
#X msg 318 273 1;
#X obj 263 332 route 0 1;
#X obj 404 226 inlet;
#X obj 408 250 t f f;
#X obj 675 125 inlet;
#X msg 676 197 set_showuniqueid \$1;
#X obj 676 174 f;
#X obj 676 148 t b f;
#X obj 87 86 t b b b b b b b b b b b b b b b;
#X msg 283 154 set_totalsliders 4;
#X connect 0 0 26 0;
#X connect 2 0 1 0;
#X connect 3 0 1 0;
#X connect 4 0 1 0;
#X connect 5 0 1 0;
#X connect 6 0 1 0;
#X connect 7 0 1 0;
#X connect 8 0 1 0;
#X connect 9 0 1 0;
#X connect 10 0 1 0;
#X connect 11 0 1 0;
#X connect 12 0 1 0;
#X connect 13 0 1 0;
#X connect 14 0 17 0;
#X connect 14 1 18 0;
#X connect 15 0 14 0;
#X connect 16 0 19 0;
#X connect 17 0 16 1;
#X connect 18 0 16 1;
#X connect 19 0 5 0;
#X connect 19 1 3 0;
#X connect 19 2 5 0;
#X connect 20 0 21 0;
#X connect 21 0 5 1;
#X connect 21 1 3 1;
#X connect 22 0 25 0;
#X connect 23 0 1 0;
#X connect 24 0 23 0;
#X connect 25 0 24 0;
#X connect 25 1 24 1;
#X connect 26 0 6 0;
#X connect 26 1 8 0;
#X connect 26 2 16 0;
#X connect 26 3 4 0;
#X connect 26 4 2 0;
#X connect 26 5 27 0;
#X connect 26 7 7 0;
#X connect 26 8 10 0;
#X connect 26 9 9 0;
#X connect 26 10 11 0;
#X connect 26 11 12 0;
#X connect 26 12 13 0;
#X connect 26 13 24 0;
#X connect 27 0 1 0;
#X restore 186 265 pd \$0-initslider;
#X obj 234 241 tgl 15 0 empty empty empty 17 7 0 10 #fcfcfc #000000 #000000 0 1;
#X floatatom 330 234 5 0 0 0 padding - - 0;
#X msg 329 211 0;
#X obj 387 237 tgl 15 0 empty empty show_unique_id 17 7 0 10 #fcfcfc #000000 #000000 0 1;
#X msg 386 214 0;
#X msg 232 215 1;
#X obj 387 185 del;
#X obj 58 107 inlet;
#X obj 60 132 t b b b b b b;
#X connect 1 0 0 0;
#X connect 2 0 4 0;
#X connect 3 0 0 0;
#X connect 4 0 3 0;
#X connect 4 2 5 0;
#X connect 4 3 5 0;
#X connect 5 0 0 0;
#X connect 6 0 5 1;
#X connect 7 0 5 2;
#X connect 8 0 7 0;
#X connect 9 0 5 3;
#X connect 10 0 9 0;
#X connect 11 0 6 0;
#X connect 12 0 10 0;
#X connect 12 0 11 0;
#X connect 13 0 14 0;
#X connect 14 0 2 0;
#X connect 14 1 1 0;
#X connect 14 2 8 0;
#X connect 14 3 12 0;
#X connect 14 4 10 0;
#X connect 14 5 11 0;
#X restore 618 74 pd \$0-setuptemplate;
#X obj 628 145 ce_multislider 0;
#X obj 627 125 cnv 19 40 19 empty empty Corse 3 10 0 12 #606060 #000000 0;
#X obj 672 125 cnv 19 40 19 empty empty Fine 3 10 0 12 #9f9f9f #000000 0;
#X obj 718 125 cnv 19 40 19 empty empty Corse 3 10 0 12 #606060 #000000 0;
#X obj 762 125 cnv 19 40 19 empty empty Fine 3 10 0 12 #9f9f9f #000000 0;
#X obj 591 150 cnv 14 30 19 empty empty Rec 3 8 0 10 #dfdfdf #000000 0;
#X obj 541 293 cnv 19 65 19 empty empty Program 3 10 0 12 #606060 #000000 0;
#N canvas 755 520 562 300 \$0-triggereditprgmBTN 0;
#X obj 98 167 outlet;
#X obj 92 42 inlet;
#X obj 165 14 loadbang;
#X obj 165 36 t b b;
#X msg 215 78 symbol Edit;
#X msg 159 74 3 2.5;
#X obj 100 100 ce_btn 3 2.5 65 20;
#X connect 1 0 6 0;
#X connect 2 0 3 0;
#X connect 3 0 4 0;
#X connect 3 1 5 0;
#X connect 4 0 6 1;
#X connect 5 0 6 2;
#X connect 6 0 0 0;
#X coords 0 -1 1 1 65 20 2 100 100;
#X restore 541 336 pd \$0-triggereditprgmBTN;
#X obj 509 512 cnv 19 226 19 empty empty Sample 3 10 0 12 #606060 #000000 0;
#X obj 593 165 knob 30 0 1 0 0 empty empty #dfdfdf #7c7c7c black 0 0 0 0 1 320 0 0;
#X obj 499 150 cnv 14 50 19 empty empty Monitor 3 8 0 10 #dfdfdf #000000 0;
#X obj 503 165 knob 30 0 1 0 0 empty empty #dfdfdf #7c7c7c black 0 0 0 0 1 320 0 0;
#X msg 492 72 arc 1;
#X obj 593 196 cnv 19 30 19 \$0-rec-display-send \$0-rec-display-recv 0 3 10 0 12 #131255 #00faff 0;
#X obj 503 196 cnv 19 30 19 \$0-mon-display-send \$0-mon-display-recv 0.7 3 10 0 12 #131255 #00faff 0;
#X obj 548 150 cnv 14 47 19 empty empty Output 3 8 0 10 #dfdfdf #000000 0;
#X obj 551 165 knob 30 0 1 0 0 empty empty #dfdfdf #7c7c7c black 0 0 0 0 1 320 0 0;
#X obj 551 196 cnv 19 30 19 \$0-out-display-send \$0-out-display-recv 0 3 10 0 12 #131255 #00faff 0;
#N canvas 64 64 450 300 \$0-smp-adsr 0;
#X obj 100 100 cnv 15 117 85 empty empty empty 20 12 0 14 #7c7c7c #404040 0;
#X obj 109 123 hsl 100 12 1 -11 0 0 \$0-effectattack-send \$0-effectattack-recv Attack:10.8384 3 6 0 10 #dfdfdf #00faff #000000 0 1;
#X obj 109 138 hsl 100 12 10 -11 0 0 \$0-effectdecay-send \$0-effectdecay-recv Decay:48.6263 3 6 0 10 #dfdfdf #00faff #000000 0 1;
#X obj 109 153 hsl 100 12 0 1 0 0 \$0-effectsustain-send \$0-effectsustain-recv Sustain:0.79798 3 6 0 10 #dfdfdf #00faff #000000 0 1;
#X obj 109 169 hsl 100 12 10 -44 0 0 \$0-effectrelease-send \$0-effectrelease-recv Release:324.182 3 6 0 10 #dfdfdf #00faff #000000 0 1;
#X obj 100 100 cnv 15 117 20 empty empty ADSR 43 10 0 14 #404040 #ffffff 0;
#X coords 0 -1 1 1 117 85 2 100 100;
#X restore 853 118 pd \$0-smp-adsr;
#X msg 482 47 size 30;
#N canvas 501 395 744 391 \$0-\$1-sampler 0;
#X obj 532 274 hsl 100 12 0.01 1 1 0 empty empty NoiseFilter 3 6 0 10 #dfdfdf #00faff #000000 0 1;
#X obj 477 177 hsl 100 12 0.01 1 0 0 empty empty Threshold 3 6 0 10 #dfdfdf #00faff #000000 0 1;
#X obj 456 224 hsl 100 12 0 1 0 0 empty empty Input\ Vol 3 6 0 10 #dfdfdf #00faff #000000 0 1;
#X obj 587 221 tgl 15 0 empty empty adctomidi\ status 17 7 0 10 #fcfcfc #000000 #000000 0 1;
#X msg 454 246 setmicinput \$1;
#X msg 474 196 setthreshold \$1;
#X msg 529 292 setnoisefilter \$1;
#X obj 520 329 t a;
#X msg 588 242 settoggle \$1;
#X obj 602 381 print get_result;
#X obj 517 429 print note;
#X obj 603 326 adc~;
#X obj 559 405 print note_and_message;
#X obj 520 356 ce_adctomidi;
#X floatatom 281 449 8 0 0 0 Frequency - - 0;
#X obj 223 322 hradio 15 1 0 9 empty empty Tuning 0 -8 0 10 #fcfcfc #000000 #000000 0;
#X floatatom 416 475 5 0 118 0 Midi\ note - - 0;
#X msg 281 424 440;
#X text 130 424 Known frequency "A4";
#X text 314 424 Midi note "A4";
#X obj 268 375 hsl 128 15 0.1 1.5 0 0 empty empty detection\ threshold\ 0.1\ to\ 1.5 -2 -8 0 10 #fcfcfc #000000 #000000 0 1;
#X msg 417 452 69;
#X floatatom 270 400 5 0 0 0 - - - 0;
#X floatatom 318 510 5 0 118 0 Tuning\ value - - 0;
#X floatatom 239 342 5 0 0 0 - - - 0;
#X obj 223 483 ce_midifreak;
#X msg 259 554 \$3;
#X obj 223 528 t a a;
#X floatatom 258 577 5 0 0 0 - - - 0;
#X floatatom 225 599 5 0 0 0 - - - 0;
#X msg 225 552 \$1;
#X msg 20 37 0;
#X obj 20 14 loadbang;
#X obj 172 32 clone ce_smpengineclone 64;
#X msg 41 192 symbol \$1-tosmpengine;
#X obj 23 225 s;
#X obj 39 166 r \$0-atengineindex;
#X obj 24 131 r \$0-cmdtoengine;
#X obj 20 59 s \$0-defaultvalues;
#N canvas 188 9 810 688 \$0-sortengineoutput 0;
#X obj 144 500 s \$0-adjustqueue-sliders;
#X obj 244 235 list length;
#X obj 123 284 sel 1;
#X obj 244 258 s \$0-arglength;
#X obj 123 238 r \$0-arglength;
#X obj 249 209 t a a a;
#X obj 165 358 list store;
#X obj 204 310 t a b;
#X obj 123 307 t b;
#X obj 165 333 symbol;
#X msg 204 287 symbol \$2;
#X obj 333 27 inlet;
#X msg 295 282 \$3;
#X obj 295 305 t a b;
#X obj 151 642 s \$0-smp-size;
#X obj 123 260 == 3;
#X obj 473 452 t b;
#X obj 473 498 s \$0-notifyuser;
#X msg 473 475 failed-smp-load;
#X obj 550 254 list length;
#X obj 429 303 sel 1;
#X obj 550 277 s \$0-arglength;
#X obj 429 257 r \$0-arglength;
#X obj 555 228 t a a a;
#X obj 471 377 list store;
#X obj 510 329 t a b;
#X obj 429 326 t b;
#X msg 472 400 \$1;
#X obj 471 352 symbol;
#X msg 510 306 symbol \$2;
#X obj 429 279 == 2;
#X obj 472 424 route smp_failed;
#X obj 580 449 print not-routed-2args;
#X obj 269 471 print not-routed-3args;
#X obj 151 616 f;
#X msg 140 420 \$1;
#X msg 183 547 \$2;
#X floatatom 224 620 7 0 0 0 - - - 0;
#X obj 141 444 route smp_loaded;
#X obj 538 355 t b;
#X msg 291 531 0;
#X obj 178 396 t a a b;
#X obj 230 575 spigot 0;
#X msg 259 531 1;
#X obj 143 475 t b b b;
#X obj 282 553 tgl 19 0 empty empty empty 0 -10 0 12 #fcfcfc #000000 #000000 0 1;
#X obj 393 75 list length;
#X obj 393 98 s \$0-chklength;
#X obj 333 51 t a a a a;
#X obj 176 69 sel 1;
#X obj 176 23 r \$0-chklength;
#X obj 176 94 t b;
#X msg 178 119 1;
#X msg 214 116 0;
#X obj 209 92 t b;
#X obj 200 151 tgl 19 0 empty empty empty 0 -10 0 12 #fcfcfc #000000 #000000 0 1;
#X obj 148 175 spigot 0;
#X obj 176 45 == 3;
#X obj 582 95 sel 1;
#X obj 582 49 r \$0-chklength;
#X obj 582 120 t b;
#X msg 584 145 1;
#X msg 620 142 0;
#X obj 615 118 t b;
#X obj 606 177 tgl 19 0 empty empty empty 0 -10 0 12 #fcfcfc #000000 #000000 0 1;
#X obj 554 201 spigot 0;
#X obj 582 71 == 2;
#X obj 145 588 t b;
#N canvas -137 154 1920 997 \$0-sortedseqchange 0;
#X obj 839 89 list length;
#X obj 704 134 sel 1;
#X obj 839 112 s \$0-arglength;
#X obj 720 55 r \$0-arglength;
#X obj 732 253 list store;
#X obj 809 196 t a b;
#X obj 704 159 t b;
#X obj 770 219 symbol;
#X msg 1311 -18 \$3;
#X msg 732 298 \$1;
#X obj 733 322 route got_data_request;
#X obj 48 603 s \$0-working-smp-loc;
#X obj 48 578 symbol;
#X msg 48 555 bang;
#X msg 1297 7 \$4;
#X msg 1290 32 \$5;
#X msg 1276 55 \$6;
#X msg 1260 79 \$7;
#X msg 1248 103 \$8;
#X msg 1240 127 \$9;
#X msg 1226 148 \$10;
#X msg 1218 172 \$11;
#X msg 1204 197 \$12;
#X msg 1190 220 \$13;
#X obj 214 580 f;
#X obj 206 552 t b;
#X obj 732 274 t a a a;
#X obj 214 604 print loop;
#X obj 300 581 f;
#X obj 292 553 t b;
#X obj 300 605 print wherefrom;
#X obj 882 -85 sel 1;
#X obj 882 -131 r \$0-chklength;
#X obj 882 -60 t b;
#X msg 884 -35 1;
#X msg 920 -38 0;
#X obj 915 -62 t b;
#X obj 906 -3 tgl 19 0 empty empty empty 0 -10 0 12 #fcfcfc #000000 #000000 0 1;
#X obj 838 35 spigot 0;
#X obj 420 580 f;
#X obj 412 552 t b;
#X obj 506 581 f;
#X obj 498 553 t b;
#X obj 420 604 print mon;
#X obj 506 605 print rec;
#X obj 585 580 f;
#X obj 577 552 t b;
#X obj 585 604 print out;
#X obj 661 579 f;
#X obj 653 551 t b;
#X obj 761 579 f;
#X obj 753 551 t b;
#X obj 886 579 f;
#X obj 878 551 t b;
#X obj 996 578 f;
#X obj 988 550 t b;
#X obj 1114 579 f;
#X obj 1106 551 t b;
#X obj 661 603 print smpsize;
#X obj 761 603 print corse-strt;
#X obj 996 602 print corse-end;
#X obj 1114 602 print fine-end;
#X obj 884 602 print fine-strt;
#X obj 724 186 once;
#X obj 751 138 r \$0-getdataonce;
#X obj 751 161 t b;
#X floatatom 1273 127 4 0 0 0 - - - 0;
#X msg 809 173 symbol \$2;
#X obj 1113 -90 t a a a a a a a a a a a b;
#X msg 1176 244 \$14;
#X obj 1222 580 f;
#X obj 1214 552 t b;
#X obj 1222 603 print pitch;
#X floatatom 1163 269 5 0 0 0 - - - 0;
#X floatatom 1235 241 5 0 0 0 - - - 0;
#X obj 838 59 t b a a a;
#X obj 704 87 f;
#X obj 795 86 del 5;
#X obj 795 107 t b;
#X obj 733 349 del;
#X floatatom 1256 200 5 0 0 0 - - - 0;
#X msg 87 553 symbol \$3;
#X obj 1309 580 f;
#X obj 1301 552 t b;
#X obj 1309 603 print midich;
#X obj 882 -109 == 16;
#X obj 704 110 == 16;
#X floatatom 1155 317 5 0 0 0 - - - 0;
#X floatatom 1120 366 5 0 0 0 - - - 0;
#X msg 1168 292 \$15;
#X msg 1132 335 \$16;
#X obj 1024 6 t a a a a a;
#X obj 1406 579 f;
#X obj 1398 551 t b;
#X obj 1406 602 print midinote;
#X obj 733 372 t b b b b b b b b b b b b b b b;
#X obj 896 322 print not-routed-16args;
#X obj 820 -17 inlet;
#X obj 182 1042 s \$0-slot-display-recv;
#X obj 62 721 file splitname;
#X obj 62 698 r \$0-working-smp-loc;
#X obj 62 744 unpack s s;
#X obj 129 795 ce_limitto;
#X obj 129 769 t a b;
#X msg 191 771 18;
#X msg 502 154 \$1;
#X obj 821 8 t a a;
#X floatatom 501 178 5 0 0 0 - - - 0;
#X obj 129 821 pack s f;
#X msg 165 997 label \$2-\$1;
#X obj 233 746 r \$0-working-smp-loc;
#X obj 234 795 s2l;
#X obj 234 819 list length;
#X floatatom 263 844 5 0 0 0 - - - 0;
#X msg 252 772 symbol;
#X obj 234 843 > 0;
#X obj 234 866 tgl 19 0 empty empty empty 0 -10 0 12 #fcfcfc #000000 #000000 0 1;
#X obj 181 890 spigot 0;
#X obj 277 896 == 0;
#X obj 277 919 tgl 19 0 empty empty empty 0 -10 0 12 #fcfcfc #000000 #000000 0 1;
#X obj 256 970 spigot 0;
#X msg 256 1018 label \$1;
#X obj 128 846 t a a;
#X msg 128 869 \$2;
#X obj 124 929 f;
#X obj 126 892 t b f;
#X obj 189 734 bng 19 250 50 0 empty empty empty 0 -10 0 12 #fcfcfc #000000 #000000;
#X obj 277 942 t b f;
#X obj 463 210 t f f;
#X msg 256 994 symbol \$1-empty;
#X obj 198 631 s \$0-working-loop;
#X obj 299 654 s \$0-working-wherefrom;
#X obj 420 678 s \$0-working-mon;
#X obj 471 650 s \$0-working-rec;
#X obj 572 673 s \$0-working-out;
#X obj 618 695 s \$0-working-smpsize;
#X obj 726 657 s \$0-working-corse-start;
#X obj 780 690 s \$0-working-fine-start;
#X obj 937 658 s \$0-working-corse-end;
#X obj 991 691 s \$0-working-fine-end;
#X obj 1140 649 s \$0-working-pitch;
#X obj 1196 688 s \$0-working-midich;
#X obj 1283 659 s \$0-working-midinote;
#X obj 378 1043 s \$0-working-smpsize;
#X msg 380 1019 0;
#X obj 332 1020 t a b;
#X connect 0 0 2 0;
#X connect 1 0 6 0;
#X connect 3 0 76 1;
#X connect 4 0 26 0;
#X connect 5 0 7 1;
#X connect 6 0 63 0;
#X connect 7 0 4 0;
#X connect 9 0 10 0;
#X connect 10 0 79 0;
#X connect 10 1 96 0;
#X connect 12 0 11 0;
#X connect 13 0 12 0;
#X connect 14 0 24 1;
#X connect 15 0 28 1;
#X connect 16 0 39 1;
#X connect 17 0 41 1;
#X connect 18 0 66 0;
#X connect 18 0 45 1;
#X connect 19 0 48 1;
#X connect 20 0 50 1;
#X connect 21 0 52 1;
#X connect 22 0 80 0;
#X connect 22 0 54 1;
#X connect 23 0 74 0;
#X connect 23 0 56 1;
#X connect 24 0 27 0;
#X connect 24 0 130 0;
#X connect 25 0 24 0;
#X connect 26 0 9 0;
#X connect 28 0 30 0;
#X connect 28 0 131 0;
#X connect 29 0 28 0;
#X connect 31 0 33 0;
#X connect 31 1 36 0;
#X connect 32 0 85 0;
#X connect 33 0 34 0;
#X connect 34 0 37 0;
#X connect 35 0 37 0;
#X connect 36 0 35 0;
#X connect 37 0 38 1;
#X connect 38 0 75 0;
#X connect 39 0 43 0;
#X connect 39 0 132 0;
#X connect 40 0 39 0;
#X connect 41 0 44 0;
#X connect 41 0 133 0;
#X connect 42 0 41 0;
#X connect 45 0 47 0;
#X connect 45 0 134 0;
#X connect 46 0 45 0;
#X connect 48 0 58 0;
#X connect 48 0 135 0;
#X connect 49 0 48 0;
#X connect 50 0 59 0;
#X connect 50 0 136 0;
#X connect 51 0 50 0;
#X connect 52 0 62 0;
#X connect 52 0 137 0;
#X connect 53 0 52 0;
#X connect 54 0 60 0;
#X connect 54 0 138 0;
#X connect 55 0 54 0;
#X connect 56 0 61 0;
#X connect 56 0 139 0;
#X connect 57 0 56 0;
#X connect 63 0 7 0;
#X connect 64 0 65 0;
#X connect 65 0 63 1;
#X connect 67 0 5 0;
#X connect 68 0 91 0;
#X connect 68 1 21 0;
#X connect 68 2 20 0;
#X connect 68 3 19 0;
#X connect 68 4 18 0;
#X connect 68 5 17 0;
#X connect 68 6 16 0;
#X connect 68 7 15 0;
#X connect 68 8 14 0;
#X connect 68 9 8 0;
#X connect 68 10 81 0;
#X connect 68 11 4 1;
#X connect 69 0 73 0;
#X connect 69 0 70 1;
#X connect 70 0 72 0;
#X connect 70 0 140 0;
#X connect 71 0 70 0;
#X connect 75 0 77 0;
#X connect 75 1 0 0;
#X connect 75 2 67 0;
#X connect 75 3 68 0;
#X connect 76 0 86 0;
#X connect 77 0 78 0;
#X connect 78 0 76 0;
#X connect 79 0 95 0;
#X connect 81 0 12 1;
#X connect 82 0 84 0;
#X connect 82 0 141 0;
#X connect 83 0 82 0;
#X connect 85 0 31 0;
#X connect 86 0 1 0;
#X connect 89 0 87 0;
#X connect 89 0 82 1;
#X connect 90 0 88 0;
#X connect 90 0 92 1;
#X connect 91 0 90 0;
#X connect 91 1 89 0;
#X connect 91 2 69 0;
#X connect 91 3 23 0;
#X connect 91 4 22 0;
#X connect 92 0 94 0;
#X connect 92 0 142 0;
#X connect 93 0 92 0;
#X connect 95 1 13 0;
#X connect 95 2 25 0;
#X connect 95 3 29 0;
#X connect 95 4 40 0;
#X connect 95 5 42 0;
#X connect 95 6 46 0;
#X connect 95 7 49 0;
#X connect 95 8 51 0;
#X connect 95 9 53 0;
#X connect 95 10 55 0;
#X connect 95 11 57 0;
#X connect 95 12 71 0;
#X connect 95 13 83 0;
#X connect 95 14 93 0;
#X connect 97 0 106 0;
#X connect 99 0 101 0;
#X connect 99 1 126 0;
#X connect 100 0 99 0;
#X connect 101 1 103 0;
#X connect 102 0 108 0;
#X connect 103 0 102 0;
#X connect 103 1 104 0;
#X connect 104 0 102 1;
#X connect 105 0 107 0;
#X connect 105 0 128 0;
#X connect 106 0 38 0;
#X connect 106 1 105 0;
#X connect 108 0 122 0;
#X connect 109 0 98 0;
#X connect 110 0 114 0;
#X connect 110 0 111 0;
#X connect 111 0 112 0;
#X connect 112 0 113 0;
#X connect 112 0 115 0;
#X connect 114 0 111 1;
#X connect 115 0 116 0;
#X connect 116 0 117 1;
#X connect 116 0 118 0;
#X connect 117 0 109 0;
#X connect 118 0 119 0;
#X connect 119 0 127 0;
#X connect 120 0 129 0;
#X connect 121 0 98 0;
#X connect 122 0 123 0;
#X connect 122 1 117 0;
#X connect 123 0 125 0;
#X connect 124 0 120 0;
#X connect 125 0 124 0;
#X connect 125 1 124 1;
#X connect 127 0 124 0;
#X connect 127 1 120 1;
#X connect 128 0 124 1;
#X connect 128 1 108 1;
#X connect 129 0 145 0;
#X connect 144 0 143 0;
#X connect 145 0 121 0;
#X connect 145 1 144 0;
#X restore 374 123 pd \$0-sortedseqchange;
#X connect 1 0 3 0;
#X connect 2 0 8 0;
#X connect 4 0 15 0;
#X connect 5 0 1 0;
#X connect 5 1 10 0;
#X connect 5 2 12 0;
#X connect 6 0 41 0;
#X connect 7 0 9 1;
#X connect 8 0 9 0;
#X connect 9 0 6 0;
#X connect 10 0 7 0;
#X connect 11 0 48 0;
#X connect 12 0 13 0;
#X connect 13 0 6 1;
#X connect 13 1 6 1;
#X connect 15 0 2 0;
#X connect 16 0 18 0;
#X connect 18 0 17 0;
#X connect 19 0 21 0;
#X connect 20 0 26 0;
#X connect 22 0 30 0;
#X connect 23 0 19 0;
#X connect 23 1 29 0;
#X connect 23 2 39 0;
#X connect 24 0 27 0;
#X connect 25 0 28 1;
#X connect 26 0 28 0;
#X connect 27 0 31 0;
#X connect 28 0 24 0;
#X connect 29 0 25 0;
#X connect 30 0 20 0;
#X connect 31 0 16 0;
#X connect 31 1 32 0;
#X connect 34 0 14 0;
#X connect 34 0 37 0;
#X connect 35 0 38 0;
#X connect 36 0 34 1;
#X connect 38 0 44 0;
#X connect 38 1 33 0;
#X connect 39 0 24 1;
#X connect 40 0 45 0;
#X connect 41 0 35 0;
#X connect 41 1 36 0;
#X connect 41 2 40 0;
#X connect 43 0 45 0;
#X connect 44 0 0 0;
#X connect 44 1 67 0;
#X connect 44 2 43 0;
#X connect 45 0 42 1;
#X connect 46 0 47 0;
#X connect 48 0 56 0;
#X connect 48 1 65 0;
#X connect 48 2 68 0;
#X connect 48 3 46 0;
#X connect 49 0 51 0;
#X connect 49 1 54 0;
#X connect 50 0 57 0;
#X connect 51 0 52 0;
#X connect 52 0 55 0;
#X connect 53 0 55 0;
#X connect 54 0 53 0;
#X connect 55 0 56 1;
#X connect 56 0 5 0;
#X connect 57 0 49 0;
#X connect 58 0 60 0;
#X connect 58 1 63 0;
#X connect 59 0 66 0;
#X connect 60 0 61 0;
#X connect 61 0 64 0;
#X connect 62 0 64 0;
#X connect 63 0 62 0;
#X connect 64 0 65 1;
#X connect 65 0 23 0;
#X connect 66 0 58 0;
#X connect 67 0 34 0;
#X restore 172 58 pd \$0-sortengineoutput;
#N canvas 301 235 1309 676 \$0-GUI-handlers 0;
#X obj 51 -49 openpanel;
#X obj 56 160 pack s f;
#X obj 55 89 t s b;
#X obj 819 144 tgl 19 0 empty empty empty 0 -10 0 12 #fcfcfc #000000 #000000 0 1;
#X obj 1080 149 tgl 19 0 empty empty empty 0 -10 0 12 #fcfcfc #000000 #000000 0 1;
#X obj 51 -96 r \$0-smp-loadfromdir;
#X msg 56 241 set_smploc \$2 \$1;
#X obj 109 113 f;
#X obj 109 137 t f f;
#X obj 141 160 s \$0-atengineindex;
#X obj 56 264 s \$0-cmdtoengine;
#X obj 551 512 s \$0-cmdtoengine;
#X obj 636 465 s \$0-atengineindex;
#X msg 551 488 set_monvol \$2 \$1;
#X obj 604 441 t f f;
#X obj 551 465 pack f f;
#X obj 551 393 r \$0-smp-monitor;
#X obj 808 401 s \$0-cmdtoengine;
#X obj 893 354 s \$0-atengineindex;
#X obj 602 419 r \$0-tosmp-index;
#X obj 127 90 r \$0-tosmp-index;
#X obj 911 307 r \$0-tosmp-index;
#X obj 1080 221 s \$0-cmdtoengine;
#X obj 1165 174 s \$0-atengineindex;
#X obj 1133 150 t f f;
#X obj 1080 174 pack f f;
#X obj 1133 125 r \$0-tosmp-index;
#X msg 1080 197 set_loop \$2 \$1;
#X obj 833 217 s \$0-cmdtoengine;
#X obj 918 170 s \$0-atengineindex;
#X obj 886 146 t f f;
#X obj 833 170 pack f f;
#X obj 886 121 r \$0-tosmp-index;
#X msg 833 193 set_startat \$2 \$1;
#X obj 317 154 s \$0-cmdtoengine;
#X obj 402 107 s \$0-atengineindex;
#X obj 370 83 t f f;
#X obj 317 107 pack f f;
#X obj 370 58 r \$0-tosmp-index;
#X msg 317 130 stop_smp \$2 \$1;
#X obj 292 291 r \$0-play-loadedsmpl;
#X obj 289 413 s \$0-cmdtoengine;
#X obj 374 366 s \$0-atengineindex;
#X obj 342 342 t f f;
#X obj 289 366 pack f f;
#X obj 342 317 r \$0-tosmp-index;
#X msg 289 389 play_smp \$2 \$1;
#X obj 294 340 t b;
#X obj 317 81 t b;
#X obj 317 33 r \$0-stop-loadedsmpl;
#X obj 820 93 r \$0-playatqueue;
#X obj 1081 99 r \$0-loopsmpstate;
#X obj 52 400 s \$0-cmdtoengine;
#X obj 137 353 s \$0-atengineindex;
#X obj 105 329 t f f;
#X obj 52 353 pack f f;
#X obj 103 307 r \$0-tosmp-index;
#X obj 52 285 r \$0-rec-volume;
#X msg 52 376 set_recvol \$2 \$1;
#X obj 570 141 s \$0-cmdtoengine;
#X obj 655 94 s \$0-atengineindex;
#X obj 623 70 t f f;
#X obj 570 94 pack f f;
#X obj 621 48 r \$0-tosmp-index;
#X msg 570 117 set_outvol \$2 \$1;
#X obj 570 26 r \$0-out-volume;
#X obj 811 283 r \$0-startendqueue-data;
#X obj 891 329 f;
#X msg 808 377 set_queues \$1 \$2 \$3 \$4;
#X obj 819 119 t f;
#X obj 1081 125 t f;
#X obj 826 25 r \$0-defaultvalues;
#X obj 826 52 t f f f f;
#X obj 84 573 s \$0-rec-display-recv;
#X msg 84 524 symbol \$1;
#X obj 84 500 l2s, f 4;
#X obj 52 327 t f f;
#X msg 84 548 label \$1;
#X msg 576 635 symbol \$1;
#X obj 576 611 l2s, f 4;
#X msg 576 659 label \$1;
#X obj 551 439 t f f;
#X msg 602 262 symbol \$1;
#X obj 602 238 l2s, f 4;
#X msg 602 286 label \$1;
#X obj 570 68 t f f;
#X obj 602 311 s \$0-out-display-recv;
#X obj 576 684 s \$0-mon-display-recv;
#X obj 84 452 int;
#X floatatom 133 477 11 0 0 0 - - - 0;
#X obj 84 476 * 0.1;
#X obj 84 428 * 10;
#X obj 576 563 int;
#X floatatom 625 588 11 0 0 0 - - - 0;
#X obj 576 587 * 0.1;
#X obj 576 539 * 10;
#X obj 602 188 int;
#X floatatom 651 213 11 0 0 0 - - - 0;
#X obj 602 212 * 0.1;
#X obj 602 164 * 10;
#X obj 810 308 t a b a;
#N canvas 813 69 1043 704 \$0-\$1-display-startend 0;
#X obj 169 131 inlet;
#X obj 178 289 list append;
#X obj 169 225 f;
#X obj 178 312 t a a a b;
#X obj 302 434 list append;
#X obj 178 363 sel 0 1 2 3;
#X obj 178 394 f;
#X obj 220 392 f;
#X obj 269 361 t f f f f;
#X obj 260 395 f;
#X obj 302 393 f;
#X obj 169 201 sel 0;
#X obj 212 200 t f;
#X obj 302 458 t a a a b;
#X obj 298 526 sel 0 1 2 3;
#X obj 298 578 f;
#X obj 340 576 f;
#X obj 391 521 t f f f f;
#X obj 380 579 f;
#X obj 422 576 f;
#X floatatom 810 131 5 0 0 0 - - - 0;
#X obj 497 92 t b f;
#X obj 833 107 t b f;
#X obj 466 166 sel 1;
#X obj 466 190 t b;
#X obj 505 191 t b;
#X obj 504 215 f;
#X obj 466 118 t f f f;
#X obj 466 93 +;
#X obj 466 142 > 1;
#X msg 466 215 1;
#X obj 831 80 / 4;
#X obj 498 69 / 4;
#X obj 794 102 +;
#X obj 789 206 sel 1;
#X obj 783 232 t b;
#X obj 822 233 t b;
#X obj 821 257 f;
#X obj 794 151 t f f f;
#X obj 793 177 > 1;
#X msg 783 257 1;
#X obj 850 381 vsl 19 50 0 151201 0 0 empty empty empty 0 -9 0 12 #fcfcfc #000000 #000000 0 1;
#X obj 819 309 *;
#X msg 850 355 range 0 \$1;
#X obj 850 332 t f f;
#X obj 558 366 vsl 19 50 0 151201 0 0 empty empty empty 0 -9 0 12 #fcfcfc #000000 #000000 0 1;
#X msg 558 341 range 0 \$1;
#X obj 558 317 t f f;
#X obj 465 244 t f f;
#X obj 529 296 *;
#X msg 81 101 \$1;
#X obj 85 136 sel 0;
#X msg 170 178 \$2;
#X msg 212 179 \$2;
#X obj 33 233 spigot 0;
#X obj 86 209 tgl 19 0 empty empty empty 0 -10 0 12 #fcfcfc #000000 #000000 0 1;
#X msg 86 186 1;
#X msg 117 184 0;
#X obj 81 76 t a b a;
#X obj 170 154 t a a a b a;
#X obj 85 159 t b;
#X obj 117 159 t b;
#X msg 377 402 \$3;
#X msg 298 498 \$1;
#X msg 385 486 \$2;
#X msg 178 337 \$2;
#X msg 256 180 \$3 \$4;
#X msg 212 337 \$2;
#X floatatom 478 562 5 0 0 0 - - - 0;
#X obj 298 631 s \$0-corse-start-display;
#X obj 558 424 s \$0-start-tosamples;
#X obj 850 439 s \$0-end-tosamples;
#X obj 340 659 s \$0-fine-start-display;
#X obj 475 632 s \$0-fine-end-display;
#X obj 413 607 s \$0-corse-end-display;
#X obj 850 309 r \$0-smp-size;
#X obj 547 270 r \$0-smp-size;
#X obj 850 281 r \$0-smp-size;
#X obj 828 56 r \$0-fine-end-display;
#X obj 498 46 r \$0-fine-start-display;
#X obj 466 22 r \$0-corse-start-display;
#X obj 796 32 r \$0-corse-end-display;
#X obj 558 294 r \$0-smp-size;
#X floatatom 728 327 5 0 0 0 - - - 0;
#X obj 115 101 r \$0-tosmp-index;
#X floatatom 529 241 5 0 0 0 - - - 0;
#X obj 787 283 t f f;
#X floatatom 552 474 5 0 0 0 - - - 0;
#X floatatom 841 481 5 0 0 0 - - - 0;
#X connect 0 0 59 0;
#X connect 1 0 3 0;
#X connect 2 0 54 0;
#X connect 3 0 65 0;
#X connect 3 1 67 0;
#X connect 3 2 62 0;
#X connect 3 3 4 1;
#X connect 4 0 13 0;
#X connect 5 0 6 0;
#X connect 5 1 7 0;
#X connect 5 2 9 0;
#X connect 5 3 10 0;
#X connect 6 0 4 0;
#X connect 7 0 4 0;
#X connect 8 0 6 1;
#X connect 8 1 7 1;
#X connect 8 2 9 1;
#X connect 8 3 10 1;
#X connect 9 0 4 0;
#X connect 10 0 4 0;
#X connect 11 0 2 0;
#X connect 12 0 2 1;
#X connect 13 0 63 0;
#X connect 13 1 64 0;
#X connect 14 0 15 0;
#X connect 14 1 16 0;
#X connect 14 2 18 0;
#X connect 14 3 19 0;
#X connect 15 0 69 0;
#X connect 16 0 72 0;
#X connect 17 0 15 1;
#X connect 17 1 16 1;
#X connect 17 2 18 1;
#X connect 17 3 19 1;
#X connect 18 0 74 0;
#X connect 19 0 68 0;
#X connect 19 0 73 0;
#X connect 21 0 28 0;
#X connect 21 1 28 1;
#X connect 22 0 33 0;
#X connect 22 1 33 1;
#X connect 23 0 24 0;
#X connect 23 1 25 0;
#X connect 24 0 30 0;
#X connect 25 0 26 0;
#X connect 26 0 48 0;
#X connect 27 0 29 0;
#X connect 27 2 26 1;
#X connect 28 0 27 0;
#X connect 29 0 23 0;
#X connect 30 0 48 0;
#X connect 31 0 22 0;
#X connect 32 0 21 0;
#X connect 33 0 20 0;
#X connect 33 0 38 0;
#X connect 34 0 35 0;
#X connect 34 1 36 0;
#X connect 35 0 40 0;
#X connect 36 0 37 0;
#X connect 37 0 86 0;
#X connect 38 0 39 0;
#X connect 38 2 37 1;
#X connect 39 0 34 0;
#X connect 40 0 86 0;
#X connect 41 0 71 0;
#X connect 41 0 88 0;
#X connect 42 0 41 0;
#X connect 43 0 41 0;
#X connect 44 0 43 0;
#X connect 45 0 70 0;
#X connect 45 0 87 0;
#X connect 46 0 45 0;
#X connect 47 0 46 0;
#X connect 48 0 49 0;
#X connect 48 1 85 0;
#X connect 49 0 45 0;
#X connect 50 0 51 0;
#X connect 51 0 60 0;
#X connect 51 1 61 0;
#X connect 52 0 11 0;
#X connect 53 0 12 0;
#X connect 54 0 1 0;
#X connect 55 0 54 1;
#X connect 56 0 55 0;
#X connect 57 0 55 0;
#X connect 58 0 50 0;
#X connect 59 0 52 0;
#X connect 59 1 53 0;
#X connect 59 2 66 0;
#X connect 59 3 1 1;
#X connect 59 4 58 0;
#X connect 60 0 56 0;
#X connect 61 0 57 0;
#X connect 62 0 4 1;
#X connect 63 0 14 0;
#X connect 64 0 17 0;
#X connect 65 0 5 0;
#X connect 66 0 1 1;
#X connect 67 0 8 0;
#X connect 75 0 44 0;
#X connect 76 0 49 1;
#X connect 77 0 42 1;
#X connect 78 0 31 0;
#X connect 79 0 32 0;
#X connect 80 0 28 0;
#X connect 81 0 33 0;
#X connect 82 0 47 0;
#X connect 84 0 51 1;
#X connect 86 0 42 0;
#X connect 86 1 83 0;
#X restore 859 427 pd \$0-\$1-display-startend;
#X obj 1065 505 r \$0-end-tosamples;
#X obj 845 517 r \$0-start-tosamples;
#X msg 845 562 symbol \$1;
#X obj 845 538 l2s, f 4;
#X msg 1066 552 symbol \$1;
#X obj 1066 528 l2s, f 4;
#X obj 1066 601 s \$0-enddisplay-smp-recv;
#X obj 845 611 s \$0-startdisplay-smp-recv;
#X msg 845 586 label S:\$1;
#X msg 1066 576 label E:\$1;
#X obj 56 192 t a a;
#X obj 98 219 s \$0-working-smp-loc;
#X obj 146 -28 file isfile;
#X obj 55 63 symbol;
#X msg 55 38 bang;
#X obj 50 -72 t b;
#X obj 51 -25 t s s;
#X obj 146 1 sel 1;
#X obj 144 29 t b;
#X msg 102 199 symbol \$1;
#X connect 0 0 118 0;
#X connect 1 0 112 0;
#X connect 2 0 1 0;
#X connect 2 1 7 0;
#X connect 3 0 31 0;
#X connect 4 0 25 0;
#X connect 5 0 117 0;
#X connect 6 0 10 0;
#X connect 7 0 8 0;
#X connect 8 0 1 1;
#X connect 8 1 9 0;
#X connect 13 0 11 0;
#X connect 14 0 15 1;
#X connect 14 1 12 0;
#X connect 15 0 13 0;
#X connect 16 0 81 0;
#X connect 19 0 14 0;
#X connect 20 0 7 1;
#X connect 21 0 67 1;
#X connect 24 0 25 1;
#X connect 24 1 23 0;
#X connect 25 0 27 0;
#X connect 26 0 24 0;
#X connect 27 0 22 0;
#X connect 30 0 31 1;
#X connect 30 1 29 0;
#X connect 31 0 33 0;
#X connect 32 0 30 0;
#X connect 33 0 28 0;
#X connect 36 0 37 1;
#X connect 36 1 35 0;
#X connect 37 0 39 0;
#X connect 38 0 36 0;
#X connect 39 0 34 0;
#X connect 40 0 47 0;
#X connect 43 0 44 1;
#X connect 43 1 42 0;
#X connect 44 0 46 0;
#X connect 45 0 43 0;
#X connect 46 0 41 0;
#X connect 47 0 44 0;
#X connect 48 0 37 0;
#X connect 49 0 48 0;
#X connect 50 0 69 0;
#X connect 51 0 70 0;
#X connect 54 0 55 1;
#X connect 54 1 53 0;
#X connect 55 0 58 0;
#X connect 56 0 54 0;
#X connect 57 0 76 0;
#X connect 58 0 52 0;
#X connect 61 0 62 1;
#X connect 61 1 60 0;
#X connect 62 0 64 0;
#X connect 63 0 61 0;
#X connect 64 0 59 0;
#X connect 65 0 85 0;
#X connect 66 0 100 0;
#X connect 67 0 18 0;
#X connect 68 0 17 0;
#X connect 69 0 3 0;
#X connect 70 0 4 0;
#X connect 71 0 72 0;
#X connect 72 0 3 0;
#X connect 72 1 30 0;
#X connect 72 2 4 0;
#X connect 72 3 24 0;
#X connect 74 0 77 0;
#X connect 75 0 74 0;
#X connect 76 0 55 0;
#X connect 76 1 91 0;
#X connect 77 0 73 0;
#X connect 78 0 80 0;
#X connect 79 0 78 0;
#X connect 80 0 87 0;
#X connect 81 0 15 0;
#X connect 81 1 95 0;
#X connect 82 0 84 0;
#X connect 83 0 82 0;
#X connect 84 0 86 0;
#X connect 85 0 62 0;
#X connect 85 1 99 0;
#X connect 88 0 90 0;
#X connect 90 0 89 0;
#X connect 90 0 75 0;
#X connect 91 0 88 0;
#X connect 92 0 94 0;
#X connect 94 0 93 0;
#X connect 94 0 79 0;
#X connect 95 0 92 0;
#X connect 96 0 98 0;
#X connect 98 0 97 0;
#X connect 98 0 83 0;
#X connect 99 0 96 0;
#X connect 100 0 68 0;
#X connect 100 1 67 0;
#X connect 100 2 101 0;
#X connect 102 0 107 0;
#X connect 103 0 105 0;
#X connect 104 0 110 0;
#X connect 105 0 104 0;
#X connect 106 0 111 0;
#X connect 107 0 106 0;
#X connect 110 0 109 0;
#X connect 111 0 108 0;
#X connect 112 0 6 0;
#X connect 112 1 121 0;
#X connect 114 0 119 0;
#X connect 115 0 2 0;
#X connect 116 0 115 0;
#X connect 117 0 0 0;
#X connect 118 0 114 0;
#X connect 118 1 115 1;
#X connect 119 0 120 0;
#X connect 120 0 116 0;
#X connect 121 0 113 0;
#X restore 21 93 pd \$0-GUI-handlers;
#X msg 221 210 get_smpdata \$1;
#X obj 223 186 f;
#X floatatom 116 256 5 0 0 0 - - - 0;
#X msg 223 138 bang;
#X msg 171 9 vis 1 1;
#X obj 254 186 s \$0-getdataonce;
#X obj 224 161 t b b;
#X obj 223 92 r \$0-finish_select;
#X obj 223 114 t b;
#X connect 0 0 6 0;
#X connect 1 0 5 0;
#X connect 2 0 4 0;
#X connect 3 0 8 0;
#X connect 4 0 7 0;
#X connect 5 0 7 0;
#X connect 6 0 7 0;
#X connect 7 0 13 0;
#X connect 8 0 7 0;
#X connect 11 0 13 1;
#X connect 11 1 13 1;
#X connect 13 0 25 4;
#X connect 13 1 12 0;
#X connect 13 2 9 0;
#X connect 14 0 25 3;
#X connect 15 0 25 0;
#X connect 16 0 25 4;
#X connect 17 0 14 0;
#X connect 20 0 22 0;
#X connect 20 0 25 2;
#X connect 21 0 16 0;
#X connect 24 0 25 1;
#X connect 25 0 27 0;
#X connect 25 1 23 0;
#X connect 26 0 28 0;
#X connect 27 0 30 0;
#X connect 27 1 26 0;
#X connect 30 0 29 0;
#X connect 31 0 38 0;
#X connect 32 0 31 0;
#X connect 33 0 39 0;
#X connect 34 0 35 1;
#X connect 36 0 34 0;
#X connect 36 0 42 1;
#X connect 36 0 43 0;
#X connect 37 0 35 0;
#X connect 41 0 35 0;
#X connect 42 0 41 0;
#X connect 44 0 47 0;
#X connect 45 0 33 0;
#X connect 47 0 42 0;
#X connect 47 1 46 0;
#X connect 48 0 49 0;
#X connect 49 0 44 0;
#X restore 102 45 pd \$0-\$1-sampler;
#X obj 627 372 s \$0-startendqueue-data;
#X obj 626 253 s \$0-smp-monitor;
#X msg 271 20 0.5;
#X obj 271 -30 loadbang;
#X msg 887 66 set_value 0 2 1;
#X obj 827 -30 t b b b b;
#X msg 827 -5 set_value 0 0 0;
#X msg 869 44 set_value 0 3 1;
#X msg 846 17 set_value 0 1 0;
#X obj 652 22 s \$0-playatqueue;
#X obj 618 48 s \$0-loopsmpstate;
#X obj 618 24 tgl 19 0 empty empty empty 0 -10 0 12 #fcfcfc #000000 #000000 0 1;
#X obj 652 -2 tgl 19 0 empty empty empty 0 -10 0 12 #fcfcfc #000000 #000000 0 1;
#N canvas 755 520 562 300 \$0-triggerRecWhenBTN 0;
#X obj 98 167 outlet;
#X obj 101 42 inlet;
#X msg 225 74 symbol Queue;
#X obj 174 147 outlet;
#X obj 163 19 loadbang;
#X obj 161 41 t b b;
#X msg 158 74 2.3 2.5;
#X obj 170 198 s \$0-playatqueue;
#X obj 100 100 ce_btn 2.3 2.5 50 20;
#X obj 258 117 inlet;
#X connect 1 0 8 0;
#X connect 2 0 8 1;
#X connect 4 0 5 0;
#X connect 5 0 2 0;
#X connect 5 1 6 0;
#X connect 6 0 8 2;
#X connect 8 0 0 0;
#X connect 8 1 3 0;
#X connect 8 1 7 0;
#X connect 9 0 8 3;
#X coords 0 -1 1 1 50 20 2 100 100;
#X restore 232 144 pd \$0-triggerRecWhenBTN;
#N canvas 498 571 562 300 \$0-triggerloop 0;
#X obj 100 77 inlet;
#X obj 105 128 outlet;
#X msg 213 67 symbol Loop;
#X obj 159 11 loadbang;
#X obj 159 33 t b b;
#X obj 157 129 s \$0-loopsmpstate;
#X obj 100 100 ce_btn 2.3 2.5 50 20;
#X msg 252 47 2.3 2.3;
#X obj 186 101 inlet;
#X connect 0 0 6 0;
#X connect 2 0 6 1;
#X connect 3 0 4 0;
#X connect 4 0 2 0;
#X connect 4 1 7 0;
#X connect 6 0 1 0;
#X connect 6 1 5 0;
#X connect 7 0 6 2;
#X connect 8 0 6 3;
#X coords 0 -1 1 1 50 20 2 100 100;
#X restore 178 144 pd \$0-triggerloop;
#N canvas 539 512 419 300 \$0-triggerstop 0;
#X obj 101 42 inlet;
#X msg 182 94 symbol Stop(S);
#X obj 164 18 loadbang;
#X obj 166 42 t b b;
#X msg 158 74 1 2.5;
#X obj 100 135 s \$0-stop-loadedsmpl;
#X obj 100 100 ce_btn 1 2.5 50 20;
#X connect 0 0 6 0;
#X connect 1 0 6 1;
#X connect 2 0 3 0;
#X connect 3 0 1 0;
#X connect 3 1 4 0;
#X connect 4 0 6 2;
#X connect 6 0 5 0;
#X coords 0 -1 1 1 50 20 2 100 100;
#X restore 271 121 pd \$0-triggerstop;
#X obj 405 228 cnv 19 50 19 empty empty Where? 3 10 0 12 #404040 #000000 0;
#X obj 351 228 cnv 19 50 19 empty empty Until 3 10 0 12 #404040 #000000 0;
#X obj 627 230 s \$0-out-volume;
#X obj 494 234 s \$0-rec-volume;
#X msg 303 21 0.7;
#X msg 336 21 0.8;
#X obj 627 349 pack f f f f;
#X obj 647 300 r \$0-tosmp-index;
#X obj 627 323 f;
#X obj 627 277 t b a a a;
#X msg 727 325 \$3;
#X msg 694 326 \$2;
#X msg 659 325 \$1;
#X obj 821 -58 r \$0-adjustqueue-sliders;
#X obj 679 -2 s \$0-tosmp-index;
#X msg 618 -48 0;
#N canvas 755 520 562 300 \$0-importsmpBTN 0;
#X obj 160 12 loadbang;
#X obj 76 45 inlet;
#X msg 225 74 symbol Import;
#X obj 160 34 t b b;
#X msg 158 74 2.3 2.5;
#X obj 117 134 s \$0-smp-loadfromdir;
#X obj 100 100 ce_btn 2.3 2.5 65 20;
#X obj 258 16 r \$0-adjustqueue-sliders;
#X obj 251 42 t b;
#X connect 0 0 3 0;
#X connect 1 0 6 0;
#X connect 2 0 6 1;
#X connect 3 0 2 0;
#X connect 3 1 4 0;
#X connect 4 0 6 2;
#X connect 6 0 5 0;
#X connect 7 0 8 0;
#X connect 8 0 2 0;
#X coords 0 -1 1 1 65 20 2 100 100;
#X restore 149 121 pd \$0-importsmpBTN;
#N canvas 755 520 562 300 \$0-browseprgmsBTN 0;
#X obj 102 132 outlet;
#X obj 104 73 inlet;
#X obj 160 15 loadbang;
#X obj 160 37 t b b;
#X obj 100 100 ce_btn 2.3 2.5 65 20;
#X msg 162 73 symbol Browse;
#X msg 285 80 2.3 2.3;
#X connect 1 0 4 0;
#X connect 2 0 3 0;
#X connect 3 0 5 0;
#X connect 3 1 6 0;
#X connect 4 0 0 0;
#X connect 5 0 4 1;
#X connect 6 0 4 2;
#X coords 0 -1 1 1 65 20 2 100 100;
#X restore 541 314 pd \$0-browseprgmsBTN;
#N canvas 755 520 562 300 \$0-editmidiBTN 0;
#X obj 98 167 outlet;
#X obj 92 42 inlet;
#X obj 167 10 loadbang;
#X obj 167 32 t b b;
#X msg 218 74 symbol Edit\ MIDI;
#X obj 100 100 ce_btn 0.8 2.5 65 20;
#X msg 234 42 1 2.3;
#X connect 1 0 5 0;
#X connect 2 0 3 0;
#X connect 3 0 4 0;
#X connect 3 1 6 0;
#X connect 4 0 5 1;
#X connect 5 0 0 0;
#X connect 6 0 5 2;
#X coords 0 -1 1 1 65 20 2 100 100;
#X restore 481 638 pd \$0-editmidiBTN;
#X obj 101 68 namecanvas \$0-this_resampler;
#X obj 33 -34 inlet;
#N canvas 236 236 1427 592 \$0-routesequencermsg 0;
#X obj 37 -31 inlet;
#X obj 267 4 list length;
#X obj 97 183 t b b;
#X obj 280 138 t b b;
#X obj 616 40 t b;
#X msg 616 65 0;
#X msg 312 164 0;
#X msg 278 162 1;
#X msg 130 210 0;
#X msg 96 208 1;
#X obj 96 234 tgl 19 0 empty empty empty 0 -10 0 12 #fcfcfc #000000 #000000 0 1;
#X obj 278 210 tgl 19 0 empty empty empty 0 -10 0 12 #fcfcfc #000000 #000000 0 1;
#X obj 43 262 spigot 0;
#X obj 227 234 spigot 0;
#X msg 41 330 \$2;
#X obj 511 77 t b b;
#X msg 543 103 0;
#X msg 509 101 1;
#X obj 487 219 tgl 19 0 empty empty empty 0 -10 0 12 #fcfcfc #000000 #000000 0 1;
#X obj 434 244 spigot 0;
#X obj 42 352 route midi;
#X obj 457 316 route prefreq_data;
#X msg 457 294 \$2;
#X msg 176 462 symbol \$1-tosmpengine;
#X obj 158 488 s;
#X msg 177 438 \$1;
#X msg 482 364 symbol \$1-tosmpengine;
#X obj 464 390 s;
#X msg 483 340 \$1;
#X obj 434 269 t a a a;
#X obj 42 428 list append;
#X msg 79 394 \$3;
#X msg 111 391 \$4;
#X obj 41 303 t a a a a b a;
#X obj 42 376 t b;
#X obj 41 403 f;
#X msg 42 455 triggermidi \$1 \$2;
#X msg 703 311 stop_smp;
#X obj 740 125 t b b;
#X msg 772 151 0;
#X msg 738 149 1;
#X obj 757 184 tgl 19 0 empty empty empty 0 -10 0 12 #fcfcfc #000000 #000000 0 1;
#X obj 703 208 spigot 0;
#X obj 707 363 s;
#X obj 703 286 t b b;
#X msg 725 337 symbol toallsmpengine;
#X obj 703 234 t a;
#X obj 703 261 route stop_smpls;
#X obj 975 132 t b b;
#X msg 1013 154 0;
#X msg 974 156 1;
#X obj 974 186 tgl 19 0 empty empty empty 0 -10 0 12 #fcfcfc #000000 #000000 0 1;
#X obj 922 211 spigot 0;
#X msg 954 255 \$1;
#X obj 922 233 t a a;
#X obj 922 329 f;
#X obj 37 1 t a a a a;
#X obj 922 306 t b;
#X obj 962 381 s \$0-tosmp-index;
#X obj 244 32 sel 4 5 10 1 2 16;
#X obj 673 24 bng 19 250 50 0 empty empty empty 0 -10 0 12 #fcfcfc #000000 #000000;
#X floatatom 967 355 5 0 0 0 - - - 0;
#X obj 921 355 t b f;
#X obj 920 413 s \$0-finish_select;
#X obj 921 280 route selection;
#X obj 225 308 route midi;
#X msg 376 432 symbol \$1-tosmpengine;
#X obj 358 458 s;
#X msg 377 408 \$1;
#X obj 225 384 list append;
#X msg 264 350 \$3;
#X obj 227 259 t a a a a a b a;
#X msg 225 409 triggermidi \$1 \$2 \$3;
#X obj 225 333 t b;
#X obj 225 360 f;
#X msg 225 284 \$2;
#X msg 312 384 \$4 \$5;
#X obj 615 91 s \$0-invalidroutemsg;
#X obj 1000 186 r \$0-invalidroutemsg;
#X obj 782 183 r \$0-invalidroutemsg;
#X obj 517 221 r \$0-invalidroutemsg;
#X obj 346 179 r \$0-invalidroutemsg;
#X obj 410 14 print length;
#X obj 1210 141 t b b;
#X msg 1242 167 0;
#X msg 1208 165 1;
#X obj 1227 200 tgl 19 0 empty empty empty 0 -10 0 12 #fcfcfc #000000 #000000 0 1;
#X obj 1173 224 spigot 0;
#X obj 1252 199 r \$0-invalidroutemsg;
#X obj 1169 264 print;
#X floatatom 365 -8 5 0 0 0 - - - 0;
#X obj 142 147 r \$0-invalidroutemsg;
#X connect 0 0 56 0;
#X connect 1 0 59 0;
#X connect 1 0 90 0;
#X connect 2 0 9 0;
#X connect 2 1 8 0;
#X connect 3 0 7 0;
#X connect 3 1 6 0;
#X connect 4 0 5 0;
#X connect 5 0 77 0;
#X connect 6 0 10 0;
#X connect 6 0 18 0;
#X connect 6 0 41 0;
#X connect 6 0 51 0;
#X connect 6 0 86 0;
#X connect 7 0 11 0;
#X connect 8 0 11 0;
#X connect 8 0 18 0;
#X connect 8 0 41 0;
#X connect 8 0 51 0;
#X connect 8 0 86 0;
#X connect 9 0 10 0;
#X connect 10 0 12 1;
#X connect 11 0 13 1;
#X connect 12 0 33 0;
#X connect 13 0 71 0;
#X connect 14 0 20 0;
#X connect 15 0 17 0;
#X connect 15 1 16 0;
#X connect 16 0 11 0;
#X connect 16 0 10 0;
#X connect 16 0 41 0;
#X connect 16 0 51 0;
#X connect 16 0 86 0;
#X connect 17 0 18 0;
#X connect 18 0 19 1;
#X connect 19 0 29 0;
#X connect 20 0 34 0;
#X connect 22 0 21 0;
#X connect 23 0 24 1;
#X connect 25 0 23 0;
#X connect 26 0 27 1;
#X connect 28 0 26 0;
#X connect 29 1 22 0;
#X connect 29 2 28 0;
#X connect 30 0 36 0;
#X connect 31 0 35 1;
#X connect 32 0 30 1;
#X connect 33 0 14 0;
#X connect 33 2 31 0;
#X connect 33 3 32 0;
#X connect 33 4 30 1;
#X connect 33 5 25 0;
#X connect 34 0 35 0;
#X connect 35 0 30 0;
#X connect 36 0 24 0;
#X connect 37 0 43 0;
#X connect 38 0 40 0;
#X connect 38 1 39 0;
#X connect 39 0 18 0;
#X connect 39 0 11 0;
#X connect 39 0 10 0;
#X connect 39 0 51 0;
#X connect 39 0 86 0;
#X connect 40 0 41 0;
#X connect 41 0 42 1;
#X connect 42 0 46 0;
#X connect 44 0 37 0;
#X connect 44 1 45 0;
#X connect 45 0 43 1;
#X connect 46 0 47 0;
#X connect 47 0 44 0;
#X connect 48 0 50 0;
#X connect 48 1 49 0;
#X connect 49 0 41 0;
#X connect 49 0 18 0;
#X connect 49 0 11 0;
#X connect 49 0 10 0;
#X connect 49 0 86 0;
#X connect 50 0 51 0;
#X connect 51 0 52 1;
#X connect 52 0 54 0;
#X connect 53 0 55 1;
#X connect 54 0 64 0;
#X connect 54 1 53 0;
#X connect 55 0 61 0;
#X connect 55 0 62 0;
#X connect 56 1 12 0;
#X connect 56 1 13 0;
#X connect 56 1 19 0;
#X connect 56 1 42 0;
#X connect 56 1 52 0;
#X connect 56 1 87 0;
#X connect 56 2 1 0;
#X connect 57 0 55 0;
#X connect 59 0 2 0;
#X connect 59 1 3 0;
#X connect 59 2 15 0;
#X connect 59 3 38 0;
#X connect 59 4 48 0;
#X connect 59 5 60 0;
#X connect 59 5 83 0;
#X connect 59 6 4 0;
#X connect 62 0 63 0;
#X connect 62 1 58 0;
#X connect 64 0 57 0;
#X connect 65 0 73 0;
#X connect 66 0 67 1;
#X connect 68 0 66 0;
#X connect 69 0 72 0;
#X connect 70 0 74 1;
#X connect 71 0 75 0;
#X connect 71 2 70 0;
#X connect 71 4 76 0;
#X connect 71 5 69 1;
#X connect 71 6 68 0;
#X connect 72 0 67 0;
#X connect 73 0 74 0;
#X connect 74 0 69 0;
#X connect 75 0 65 0;
#X connect 76 0 69 1;
#X connect 78 0 51 0;
#X connect 79 0 41 0;
#X connect 80 0 18 0;
#X connect 81 0 11 0;
#X connect 83 0 85 0;
#X connect 83 1 84 0;
#X connect 84 0 51 0;
#X connect 84 0 41 0;
#X connect 84 0 18 0;
#X connect 84 0 11 0;
#X connect 84 0 10 0;
#X connect 85 0 86 0;
#X connect 86 0 87 1;
#X connect 88 0 86 0;
#X connect 91 0 10 0;
#X restore 33 -8 pd \$0-routesequencermsg;
#X msg 76 522 symbol \$1-tosmpengine;
#X obj 58 555 s;
#X obj 76 496 r \$0-atengineindex;
#X obj 35 17 r \$0-tosmp-index;
#X floatatom 33 41 5 0 0 0 - - - 0;
#X obj 108 150 cnv 14 30 14 empty empty Ch 3 8 0 10 #dfdfdf #000000 0;
#X obj 107 164 knob 30 1 32 0 1 empty empty #dfdfdf #7c7c7c black 0 0 0 0 1 320 0 0;
#X obj 107 195 cnv 19 30 19 \$0-mch-display-send \$0-mch-display-recv 1 3 10 0 12 #131255 #00faff 0;
#X obj 140 150 cnv 14 30 19 empty empty Note 3 8 0 10 #dfdfdf #404040 0;
#X obj 141 164 knob 30 21 110 0 21 empty empty #dfdfdf #7c7c7c black 0 0 9 0 0 320 0 0;
#X obj 141 195 cnv 19 75 19 \$0-note-display-send \$0-note-display-recv 69-A4 3 10 0 12 #131255 #00faff 0;
#X obj 253 463 ce_midifreak;
#X obj 261 198 hradio 12 1 0 9 empty empty Tuning -40 6 0 10 #131255 #00faff #000000 0;
#X obj 399 474 hsl 90 15 0.1 1.5 0 0 empty empty Threshold\ 0.1\ to\ 1.5 -2 -8 0 10 #131255 #00faff #000000 0 1;
#X floatatom 315 493 5 0 0 0 - - - 0;
#X msg 378 415 0.890905;
#X msg 377 370 1;
#X floatatom 355 493 5 0 0 0 - - - 0;
#X msg 377 393 0.529731;
#X obj 347 440 t f;
#X obj 317 440 int;
#X obj 372 199 cnv 10 25 10 \$0-tune-display-send \$0-tune-display-recv 440 2 5 0 10 #dfdfdf #0400ff 0;
#X obj 322 561 s \$0-tune-display-recv;
#X obj 322 516 l2s;
#X msg 322 538 label \$1;
#X obj 149 106 cnv 10 30 10 \$0-m-display-send \$0-m-display-recv Sample: 2 5 0 10 #dfdfdf #404040 0;
#X obj 107 142 cnv 10 30 10 \$0-m-display-send \$0-m-display-recv Listen 2 5 0 10 #dfdfdf #000000 0;
#X obj 317 324 t f f;
#X msg 374 22 69;
#X msg 253 560 label \$1;
#X obj 253 584 s \$0-note-display-recv;
#X obj 253 535 l2s;
#X floatatom 396 493 5 0 0 0 - - - 0;
#X msg 389 441 0.1;
#X msg 253 512 \$3-\$2\$1;
#X obj 253 487 t a a;
#X obj 195 106 cnv 10 155 11 \$0-slot-display-send \$0-slot-display-recv 2-MTR_140_GRINDERBD.. 3 5 0 10 #131255 #00faff 0;
#X obj 544 410 s \$0-tune-display-recv;
#X obj 544 365 l2s;
#X msg 544 387 label \$1;
#X obj 34 253 r \$0-apply-midinote;
#X obj 34 276 t f;
#X floatatom 67 277 5 0 0 0 - - - 0;
#X obj 352 347 s \$0-apply-midinote;
#X obj 58 401 t f;
#X floatatom 91 402 5 0 0 0 - - - 0;
#X obj 58 378 r \$0-apply-midilistench;
#X obj 111 423 r \$0-tosmp-index;
#X obj 58 452 pack f f;
#X msg 58 474 set_midich \$2 \$1;
#X obj 87 299 r \$0-tosmp-index;
#X obj 34 328 pack f f;
#X msg 34 352 set_midinote \$2 \$1;
#X obj 258 252 s \$0-apply-midilistench;
#X obj 258 225 t f;
#X obj 58 428 int;
#X obj 317 302 int;
#X obj 618 -26 t f f f b;
#X msg 407 21 5;
#X msg 439 20 1;
#X obj 273 -6 t b b b b b b b b b b;
#X obj 456 264 r \$0-working-loop;
#X obj 373 293 r \$0-working-wherefrom;
#X obj 485 11 r \$0-working-mon;
#X obj 458 -51 r \$0-working-rec;
#X obj 485 -20 r \$0-working-out;
#X obj 825 234 r \$0-working-corse-start;
#X obj 848 289 r \$0-working-fine-start;
#X obj 886 379 r \$0-working-corse-end;
#X obj 870 333 r \$0-working-fine-end;
#X obj 987 93 r \$0-working-pitch;
#X obj 214 -79 r \$0-working-midich;
#X obj 238 -54 r \$0-working-midinote;
#X obj 809 125 cnv 19 40 19 empty empty Pitch 3 10 0 12 #9f9f9f #000000 0;
#X obj 810 147 vsl 39 66 0.01 1 0 0 \$0-pitchnote-send \$0-pitchnote-recv 0-symbol0 3 55 0 10 #202020 #00faff #ffffff 0 1;
#X msg 15 583 label \$1;
#X obj 16 559 l2s;
#X obj 15 607 s \$0-mch-display-recv;
#X msg 824 259 set_value 0 0 \$1;
#X msg 849 312 set_value 0 1 \$1;
#X msg 871 359 set_value 0 3 \$1;
#X msg 884 405 set_value 0 2 \$1;
#X obj 836 453 r \$0-tosmp-index;
#X obj 783 482 pack f f;
#X msg 782 526 set_pitch \$2 \$1;
#X obj 692 588 ce_midifreak;
#X obj 864 591 hsl 90 15 0.1 1.5 0 0 empty empty Threshold\ 0.1\ to\ 1.5 -2 -8 0 10 #131255 #00faff #000000 0 1;
#X floatatom 779 617 5 0 0 0 - - - 0;
#X floatatom 819 617 5 0 0 0 - - - 0;
#X obj 761 685 s \$0-tune-display-recv;
#X obj 761 640 l2s;
#X msg 761 662 label \$1;
#X msg 692 684 label \$1;
#X obj 692 659 l2s;
#X floatatom 860 617 5 0 0 0 - - - 0;
#X msg 692 636 \$3-\$2\$1;
#X obj 692 611 t a a;
#X obj 772 449 t f f;
#X obj 692 708 s \$0-pitchnote-recv;
#X msg 745 558 69;
#X obj 236 622 print;
#X floatatom 801 416 11 0 0 0 - - - 0;
#N canvas 107 511 474 356 \$0-smpdisplay-visual 0;
#X obj 38 161 r \$0-working-smp-loc;
#X obj 44 323 print;
#X obj 38 207 file isfile;
#X obj 38 301 symbol;
#X obj 38 183 t a a;
#X obj 38 253 t b;
#X obj 38 230 sel 1;
#X obj 112 303 s \$0-resetwaveform;
#X obj 112 279 t b;
#X obj 190 161 table \$0-displayarray;
#X obj 38 441 soundfiler;
#X obj 91 366 \$0;
#X obj 38 345 t a b;
#X obj 38 390 pack s f;
#X msg 38 416 read -resize \$1 \$2-displayarray;
#X connect 0 0 4 0;
#X connect 2 0 6 0;
#X connect 2 1 8 0;
#X connect 3 0 1 0;
#X connect 3 0 12 0;
#X connect 4 0 2 0;
#X connect 4 1 3 1;
#X connect 5 0 3 0;
#X connect 6 0 5 0;
#X connect 6 1 8 0;
#X connect 8 0 7 0;
#X connect 11 0 13 1;
#X connect 12 0 13 0;
#X connect 12 1 11 0;
#X connect 13 0 14 0;
#X connect 14 0 10 0;
#X coords 0 -1 1 1 200 45 2 100 100;
#X restore 424 106 pd \$0-smpdisplay-visual;
#X msg 39 112 size 35;
#X connect 7 0 6 0;
#X connect 10 0 11 0;
#X connect 11 0 57 0;
#X connect 20 0 51 0;
#X connect 22 0 33 0;
#X connect 23 0 20 0;
#X connect 23 0 22 0;
#X connect 27 0 50 0;
#X connect 30 0 20 0;
#X connect 30 0 22 0;
#X connect 30 0 27 0;
#X connect 34 0 22 0;
#X connect 35 0 130 0;
#X connect 36 0 11 0;
#X connect 37 0 38 0;
#X connect 37 1 40 0;
#X connect 37 2 39 0;
#X connect 37 3 36 0;
#X connect 38 0 11 0;
#X connect 39 0 11 0;
#X connect 40 0 11 0;
#X connect 43 0 42 0;
#X connect 44 0 41 0;
#X connect 52 0 20 0;
#X connect 53 0 27 0;
#X connect 54 0 32 0;
#X connect 55 0 56 1;
#X connect 56 0 54 0;
#X connect 57 0 56 0;
#X connect 57 1 60 0;
#X connect 57 2 59 0;
#X connect 57 3 58 0;
#X connect 58 0 54 3;
#X connect 59 0 54 2;
#X connect 60 0 54 1;
#X connect 61 0 37 0;
#X connect 63 0 127 0;
#X connect 68 0 69 0;
#X connect 70 0 71 1;
#X connect 72 0 70 0;
#X connect 73 0 74 0;
#X connect 76 0 124 0;
#X connect 79 0 126 0;
#X connect 81 0 105 0;
#X connect 81 1 84 0;
#X connect 81 1 93 0;
#X connect 81 2 87 0;
#X connect 82 0 155 0;
#X connect 82 0 81 0;
#X connect 83 0 102 0;
#X connect 83 0 155 2;
#X connect 83 0 81 2;
#X connect 85 0 89 0;
#X connect 86 0 89 0;
#X connect 88 0 89 0;
#X connect 89 0 81 5;
#X connect 90 0 81 4;
#X connect 93 0 94 0;
#X connect 94 0 92 0;
#X connect 97 0 90 0;
#X connect 97 1 113 0;
#X connect 98 0 79 0;
#X connect 99 0 100 0;
#X connect 101 0 99 0;
#X connect 103 0 83 0;
#X connect 104 0 101 0;
#X connect 105 0 104 0;
#X connect 105 1 170 0;
#X connect 108 0 109 0;
#X connect 109 0 107 0;
#X connect 110 0 111 0;
#X connect 111 0 112 0;
#X connect 111 0 121 0;
#X connect 114 0 115 0;
#X connect 114 0 125 0;
#X connect 116 0 114 0;
#X connect 117 0 118 1;
#X connect 118 0 119 0;
#X connect 119 0 71 0;
#X connect 120 0 121 1;
#X connect 121 0 122 0;
#X connect 122 0 71 0;
#X connect 124 0 123 0;
#X connect 125 0 118 0;
#X connect 125 0 146 0;
#X connect 126 0 97 0;
#X connect 127 0 43 0;
#X connect 127 1 44 0;
#X connect 127 2 62 0;
#X connect 127 3 37 0;
#X connect 128 0 82 0;
#X connect 129 0 76 0;
#X connect 130 0 34 0;
#X connect 130 1 52 0;
#X connect 130 2 53 0;
#X connect 130 3 98 0;
#X connect 130 4 10 0;
#X connect 130 5 44 0;
#X connect 130 5 43 0;
#X connect 130 6 103 0;
#X connect 130 7 128 0;
#X connect 130 8 129 0;
#X connect 130 9 63 0;
#X connect 131 0 46 1;
#X connect 132 0 45 1;
#X connect 133 0 22 0;
#X connect 134 0 20 0;
#X connect 135 0 27 0;
#X connect 136 0 148 0;
#X connect 137 0 149 0;
#X connect 138 0 151 0;
#X connect 139 0 150 0;
#X connect 140 0 144 0;
#X connect 141 0 76 0;
#X connect 142 0 79 0;
#X connect 144 0 167 0;
#X connect 144 0 171 0;
#X connect 145 0 147 0;
#X connect 146 0 145 0;
#X connect 148 0 11 0;
#X connect 149 0 11 0;
#X connect 150 0 11 0;
#X connect 151 0 11 0;
#X connect 152 0 153 1;
#X connect 153 0 154 0;
#X connect 154 0 71 0;
#X connect 155 0 166 0;
#X connect 155 1 157 0;
#X connect 155 2 158 0;
#X connect 156 0 155 2;
#X connect 156 0 164 0;
#X connect 160 0 161 0;
#X connect 161 0 159 0;
#X connect 162 0 168 0;
#X connect 163 0 162 0;
#X connect 165 0 163 0;
#X connect 166 0 165 0;
#X connect 167 0 153 0;
#X connect 167 1 155 5;
#X connect 169 0 155 4;
#X connect 173 0 6 0;
#X coords 0 -1 1 1 877 120 2 100 100;
