#N canvas 723 138 917 534 12;
#X floatatom 545 312 5 0 0 0 - - - 0;
#X floatatom 319 101 5 0 0 0 - - - 0;
#X obj 322 81 hsl 128 15 0 127 0 0 empty empty empty -2 -8 0 10 #fcfcfc
#000000 #000000 0 1;
#X floatatom 714 101 5 0 0 0 - - - 0;
#X obj 717 82 hsl 128 15 0 127 0 0 empty empty empty -2 -8 0 10 #fcfcfc
#000000 #000000 0 1;
#X floatatom 721 330 5 0 0 0 - - - 0;
#X obj 153 136 loadbang;
#X obj 721 227 \$0;
#X msg 720 250 symbol \$1-this_is_a_test;
#X obj 714 125 s \$0-this_is_a_test;
#X floatatom 629 460 5 0 0 0 - - - 0;
#X floatatom 509 458 5 0 0 0 - - - 0;
#X obj 543 183 bng 15 250 50 0 empty empty Test\\\ Click\\\ Here 17
7 0 10 #fcfcfc #000000 #000000;
#X obj 708 168 bng 15 250 50 0 empty empty Test\\\ Click\\\ Here 17
7 0 10 #fcfcfc #000000 #000000;
#X text 26 67 Aka Scr1ptAl1as;
#X text 28 106 Pd 0.52.2;
#X obj 28 152 reportissue;
#X obj 28 132 aboutexternal;
#X text 94 239 0;
#X text 15 239 Inlet(s);
#X text 15 360 Outlet(s);
#X text 27 46 Written By: Reg Finley;
#X text 26 85 2022/12/14 5:29 PM;
#X text 129 239 symbol;
#X text 97 389 Outlet will depend on data sent;
#X text 90 409 In this help file we are using a float;
#X text 98 359 0 - read result when a value has changed;
#X floatatom 500 74 5 0 0 0 - - - 0;
#X obj 503 54 hsl 128 15 0 127 0 0 empty empty empty -2 -8 0 10 #fcfcfc
#000000 #000000 0 1;
#X obj 500 165 s;
#X obj 501 97 t f b;
#X obj 319 124 s test123;
#X msg 543 238 123;
#X msg 537 123 123;
#X obj 534 147 l2s;
#X msg 320 237 symbol test123;
#X floatatom 320 315 5 0 0 0 - - - 0;
#X obj 320 181 bng 15 250 50 0 empty empty Test\\\ Click\\\ Here 17
7 0 10 #fcfcfc #000000 #000000;
#X obj 328 263 s \$0-symboltest;
#X obj 476 404 r \$0-symboltest;
#X obj 486 381 r \$0-floattest;
#X obj 629 384 r \$0-floattest;
#X obj 558 261 s \$0-floattest;
#X obj 638 407 r \$0-uniquetest;
#X obj 730 274 s \$0-uniquetest;
#X obj 152 159 t b;
#X obj 152 181 s \$0-bangonload;
#X obj 331 212 r \$0-bangonload;
#X obj 730 202 r \$0-bangonload;
#X obj 556 211 r \$0-bangonload;
#X obj 319 290 ce_recvobj;
#X obj 545 288 ce_recvobj;
#X obj 721 304 ce_recvobj;
#X obj 509 432 ce_recvobj;
#X obj 629 434 ce_recvobj;
#X text 26 27 ce_recvobj v1.0;
#X text 201 17 [ce_recvobj] creates a recieve object dynamicly based
on a symbol or float.;
#X connect 1 0 31 0;
#X connect 2 0 1 0;
#X connect 3 0 9 0;
#X connect 4 0 3 0;
#X connect 6 0 45 0;
#X connect 7 0 8 0;
#X connect 8 0 44 0;
#X connect 8 0 52 0;
#X connect 12 0 32 0;
#X connect 13 0 7 0;
#X connect 27 0 30 0;
#X connect 28 0 27 0;
#X connect 30 0 29 0;
#X connect 30 1 33 0;
#X connect 32 0 42 0;
#X connect 32 0 51 0;
#X connect 33 0 34 0;
#X connect 34 0 29 1;
#X connect 35 0 38 0;
#X connect 35 0 50 0;
#X connect 37 0 35 0;
#X connect 39 0 53 0;
#X connect 40 0 53 0;
#X connect 41 0 54 0;
#X connect 43 0 54 0;
#X connect 45 0 46 0;
#X connect 47 0 35 0;
#X connect 48 0 7 0;
#X connect 49 0 32 0;
#X connect 50 0 36 0;
#X connect 51 0 0 0;
#X connect 52 0 5 0;
#X connect 53 0 11 0;
#X connect 54 0 10 0;
