#N canvas 895 288 697 419 12;
#N canvas 520 123 1041 460 \$0-vynldisplay 1;
#X obj 100 100 cnv 15 200 15 empty empty RTF\\\ -\\\ Rec\\\ Tha\\\ Filter
10 7 0 14 #606060 #ffffff 0;
#X obj 100 116 cnv 15 200 150 empty empty empty 20 12 0 14 #e0e0e0
#404040 0;
#X obj 182 169 cnv 15 45 15 empty empty Speed 3 7 0 14 #e0e0e0 #000000
0;
#X obj 181 150 cnv 15 45 15 empty empty Size 3 7 0 14 #e0e0e0 #000000
0;
#X obj 104 191 cnv 15 25 15 empty empty Rec 3 7 0 14 #e0e0e0 #000000
0;
#X obj 104 212 cnv 15 40 15 empty empty Tha 3 7 0 14 #e0e0e0 #000000
0;
#X obj 103 231 cnv 15 40 15 empty empty Filter 3 7 0 14 #e0e0e0 #000000
0;
#N canvas 224 15 1920 997 \$0-vynleffect-inner 0;
#X obj 1091 149 *~;
#X obj 481 70 hsl 128 15 0.045 0.06 0 0 \$0-noisegain-send \$0-noisegain-recv
Intensity -2 -8 0 10 #fcfcfc #000000 #000000 0 1;
#X obj 801 179 ce_filters;
#X obj 541 97 hsl 128 15 0.02 1.2 0 0 empty empty PopDensity -2 -8
0 10 #fcfcfc #000000 #000000 0 1;
#X obj 1255 675 *~;
#X floatatom 1272 649 5 0 0 0 - - - 0;
#X obj 1167 66 bng 15 250 50 0 empty empty stop 17 7 0 10 #fcfcfc #000000
#000000;
#X obj 1238 64 bng 15 250 50 0 empty empty start 17 7 0 10 #fcfcfc
#000000 #000000;
#X msg 1152 227 0;
#X obj 771 456 ce_filters 2;
#X obj 1042 679 *~;
#X obj 1061 653 spigot 0;
#X text 655 253 pop;
#X obj 189 121 hsl 70 12 0.01 1 0 0 empty empty Mix\\\ Level 3 6 0
10 #dfdfdf #00faff #000000 0 1;
#X obj 720 391 hsl 70 12 0.01 1 0 0 empty empty Mix\\\ Level 3 6 0
10 #dfdfdf #00faff #000000 0 1;
#X msg 716 133 setmix \$1;
#X msg 717 406 setmix \$1;
#X obj 1034 898 *~;
#X obj 1053 872 spigot 0;
#X obj 724 691 ce_filters 3;
#X obj 657 589 hsl 70 12 0.01 1 0 0 empty empty Mix\\\ Level 3 6 0
10 #dfdfdf #00faff #000000 0 1;
#X msg 648 607 setmix \$1;
#X text 665 514 crackle;
#X obj 635 642 hsl 70 12 100 10000 0 0 empty empty Band 3 6 0 10 #dfdfdf
#00faff #000000 0 1;
#X msg 637 667 setband \$1;
#X msg 1375 364 inputmidi 1 127;
#X msg 1389 398 inputmidi 1 0;
#X obj 639 363 * 1000;
#X floatatom 640 412 5 0 0 0 - - - 0;
#X obj 639 388 * 0.5;
#X obj 645 433 * 10;
#X obj 644 456 int;
#X floatatom 646 477 5 0 0 0 - - - 0;
#X obj 632 508 + 1000;
#X obj 631 533 outlet;
#X obj 152 62 inlet;
#X obj 220 59 inlet;
#X obj 264 63 inlet;
#X obj 332 60 inlet;
#X obj 367 30 inlet;
#X obj 435 27 inlet;
#X obj 479 31 inlet;
#X obj 547 28 inlet;
#X obj 604 30 inlet;
#X msg 892 662 set_bitcrush \$1;
#X obj 586 334 ce_lfopresets 99;
#X msg 1432 448 start;
#X msg 1391 463 stop;
#X obj 1432 424 t b b b;
#X obj 1391 441 t b;
#X obj 672 62 inlet;
#X obj 722 59 inlet;
#X msg 1399 339 set_tickvol 0;
#X msg 554 272 setosctype 2;
#X obj 796 69 inlet;
#X msg 581 298 settoggle \$1;
#N canvas -1314 251 629 615 \$0-randomizepop 0;
#X obj 60 26 inlet;
#X floatatom 120 214 5 0 0 0 - - - 0;
#X obj 117 243 outlet;
#X obj 251 133 inlet;
#X obj 118 25 inlet;
#X obj 179 19 inlet;
#X obj 127 126 bng 15 250 50 0 empty empty empty 17 7 0 10 #fcfcfc
#000000 #000000;
#X floatatom 235 68 4 0 0 0 - - - 0;
#X msg 128 63 bang;
#X obj 127 95 metro 500 1 msec;
#X obj 127 146 random 300;
#X msg 86 65 stop;
#X obj 194 117 * 5000;
#N canvas 168 222 645 522 \$0-randomizepop 0;
#X obj 106 34 inlet;
#X obj 107 150 timer;
#X obj 106 94 f;
#X obj 106 70 t b f b b;
#X msg 141 97 bang;
#X obj 107 226 spigot 0;
#X obj 160 206 tgl 15 0 empty empty empty 17 7 0 10 #fcfcfc #000000
#000000 0 1;
#X msg 141 127 bang;
#X obj 107 197 t b f;
#X floatatom 171 172 5 0 0 0 - - - 0;
#X obj 107 174 <=;
#X obj 105 273 sel 0 1;
#X msg 142 327 0;
#X obj 178 324 f;
#X obj 176 301 bng 15 250 50 0 empty empty empty 17 7 0 10 #fcfcfc
#000000 #000000;
#X floatatom 143 353 5 0 0 0 - - - 0;
#X obj 106 300 t b b;
#X floatatom 200 295 5 0 0 0 - - - 0;
#X obj 106 250 tgl 15 0 empty empty empty 17 7 0 10 #fcfcfc #000000
#000000 0 1;
#X obj 140 382 outlet;
#X obj 253 128 inlet;
#X connect 0 0 3 0;
#X connect 1 0 9 0;
#X connect 1 0 10 0;
#X connect 2 0 10 1;
#X connect 3 0 2 0;
#X connect 3 1 2 1;
#X connect 3 2 4 0;
#X connect 3 3 7 0;
#X connect 4 0 1 0;
#X connect 5 0 18 0;
#X connect 6 0 5 1;
#X connect 7 0 1 1;
#X connect 8 0 5 0;
#X connect 8 1 6 0;
#X connect 10 0 8 0;
#X connect 11 0 16 0;
#X connect 11 1 14 0;
#X connect 12 0 15 0;
#X connect 13 0 15 0;
#X connect 14 0 13 0;
#X connect 15 0 19 0;
#X connect 16 1 12 0;
#X connect 17 0 13 1;
#X connect 18 0 11 0;
#X connect 20 0 17 0;
#X restore 123 173 pd \$0-randomizepop;
#X connect 0 0 11 0;
#X connect 1 0 2 0;
#X connect 3 0 13 1;
#X connect 4 0 8 0;
#X connect 5 0 12 0;
#X connect 6 0 10 0;
#X connect 7 0 9 1;
#X connect 8 0 9 0;
#X connect 9 0 6 0;
#X connect 10 0 7 0;
#X connect 10 0 13 0;
#X connect 11 0 9 0;
#X connect 12 0 10 1;
#X connect 13 0 1 0;
#X restore 1271 624 pd \$0-randomizepop;
#N canvas -587 357 450 300 \$0-adjustintensity 0;
#X obj 54 58 inlet;
#X floatatom 96 178 10 0 0.9 0 - - - 0;
#X obj 97 155 f;
#X obj 96 93 t b b f;
#X obj 97 132 spigot 0;
#X obj 158 116 tgl 15 0 empty empty empty 17 7 0 10 #fcfcfc #000000
#000000 0 1;
#X msg 156 94 0;
#X msg 192 93 1;
#X obj 118 56 inlet;
#X obj 173 56 inlet;
#X obj 239 56 inlet;
#X obj 174 197 outlet;
#X obj 97 202 outlet, f 7;
#X connect 0 0 2 0;
#X connect 1 0 12 0;
#X connect 2 0 1 0;
#X connect 3 1 4 0;
#X connect 3 2 2 1;
#X connect 4 0 2 0;
#X connect 5 0 4 1;
#X connect 5 0 11 0;
#X connect 6 0 5 0;
#X connect 7 0 5 0;
#X connect 8 0 3 0;
#X connect 9 0 6 0;
#X connect 10 0 7 0;
#X restore 1187 139 pd \$0-adjustintensity;
#X obj 1281 172 t f f;
#N canvas 137 190 698 723 $-calcatmospheartime 0;
#X obj 61 45 inlet;
#X msg 485 433 78;
#X msg 439 435 45;
#X msg 393 434 33, f 4;
#X obj 309 783 del;
#X obj 305 750 bng 15 250 50 0 empty empty empty 17 7 0 10 #fcfcfc
#000000 #000000;
#X obj 310 810 bng 15 250 50 0 empty empty empty 17 7 0 10 #fcfcfc
#000000 #000000;
#X obj 278 855 timer;
#X msg 271 828 bang;
#X msg 310 831 bang;
#X floatatom 276 880 5 0 0 0 rotationper(msecs) - - 0;
#X obj 306 725 t b f b;
#X msg 367 410 12;
#X msg 324 413 10;
#X msg 282 414 7;
#X obj 276 902 int;
#X floatatom 276 927 5 0 0 0 - - - 0;
#X obj 276 530 *;
#X floatatom 437 592 5 0 0 0 bpm - - 0;
#X floatatom 436 520 5 0 0 0 rpm - - 0;
#X obj 437 568 int;
#X obj 147 88 ce_humanmetro;
#X obj 432 617 t f;
#X msg 432 645 set_bpm \$1;
#X obj 135 323 bng 15 250 50 0 empty empty empty 17 7 0 10 #fcfcfc
#000000 #000000;
#X obj 157 326 s \$0-hmbar;
#X obj 175 352 s \$0-hmstep;
#X obj 192 376 s \$0-hmtick;
#X floatatom 154 843 5 0 0 0 - - - 0;
#X floatatom 174 872 5 0 0 0 - - - 0;
#X obj 153 754 r \$0-hmbar;
#X obj 171 780 r \$0-hmstep;
#X obj 188 804 r \$0-hmtick;
#X floatatom 195 903 5 0 0 0 - - - 0;
#X floatatom 277 560 5 0 0 0 - - - 0;
#X obj 254 501 f;
#X obj 318 586 /;
#X floatatom 317 610 5 0 0 0 - - - 0;
#X floatatom 310 657 6 0 0 0 - - - 0;
#X obj 311 633 * 100;
#X floatatom 309 704 5 0 0 0 - - - 0;
#X obj 307 678 * 0.16;
#X obj 438 544 * 2;
#X obj 195 299 tgl 15 0 empty empty empty 17 7 0 10 #fcfcfc #000000
#000000 0 1;
#X floatatom 272 982 5 0 0 0 - - - 0;
#N canvas 208 208 450 300 \$0-issuedsamplerate 0;
#X obj 149 50 inlet;
#X obj 39 258 outlet;
#X obj 98 154 tgl 15 0 empty empty empty 17 7 0 10 #fcfcfc #000000
#000000 0 1;
#X obj 222 148 tgl 15 0 empty empty empty 17 7 0 10 #fcfcfc #000000
#000000 0 1;
#X obj 367 151 tgl 15 0 empty empty empty 17 7 0 10 #fcfcfc #000000
#000000 0 1;
#X obj 367 126 r at98k;
#X obj 221 122 r at441k;
#X obj 101 127 r at48k;
#X obj 44 174 spigot 0;
#X obj 172 170 spigot 0;
#X obj 318 175 spigot 0;
#X obj 173 201 expr 44100 / $f1;
#X obj 316 205 expr 48000 / $f1;
#X obj 45 201 expr 98000 / $f1;
#X obj 149 82 t f f f;
#X connect 0 0 14 0;
#X connect 2 0 8 1;
#X connect 3 0 9 1;
#X connect 4 0 10 1;
#X connect 5 0 4 0;
#X connect 6 0 3 0;
#X connect 7 0 2 0;
#X connect 8 0 13 0;
#X connect 9 0 11 0;
#X connect 10 0 12 0;
#X connect 11 0 1 0;
#X connect 12 0 1 0;
#X connect 13 0 1 0;
#X connect 14 0 8 0;
#X connect 14 1 10 0;
#X connect 14 2 9 0;
#X restore 272 951 pd \$0-issuedsamplerate;
#X obj 273 1008 / 1000;
#X msg 195 1031 setspeed \$1;
#X obj 192 943 t b;
#X obj 195 999 f;
#X obj 437 497 f;
#X obj 436 471 t b f;
#X obj 292 474 f;
#X obj 291 448 t b f;
#X obj 191 970 del 100;
#X obj 331 258 inlet;
#X obj 385 257 inlet;
#X obj 436 259 inlet;
#X obj 490 258 inlet;
#X obj 196 1063 outlet;
#X connect 0 0 21 0;
#X connect 1 0 51 0;
#X connect 2 0 51 0;
#X connect 3 0 51 0;
#X connect 4 0 6 0;
#X connect 5 0 4 0;
#X connect 6 0 9 0;
#X connect 7 0 10 0;
#X connect 8 0 7 0;
#X connect 9 0 7 1;
#X connect 10 0 15 0;
#X connect 11 0 5 0;
#X connect 11 1 4 1;
#X connect 11 2 8 0;
#X connect 12 0 53 0;
#X connect 13 0 53 0;
#X connect 14 0 53 0;
#X connect 15 0 16 0;
#X connect 16 0 45 0;
#X connect 17 0 34 0;
#X connect 18 0 22 0;
#X connect 18 0 36 1;
#X connect 19 0 42 0;
#X connect 20 0 18 0;
#X connect 21 0 24 0;
#X connect 21 1 25 0;
#X connect 21 2 26 0;
#X connect 21 3 27 0;
#X connect 21 4 43 0;
#X connect 22 0 23 0;
#X connect 22 0 35 1;
#X connect 23 0 21 0;
#X connect 24 0 35 0;
#X connect 28 0 48 0;
#X connect 30 0 28 0;
#X connect 31 0 29 0;
#X connect 32 0 33 0;
#X connect 34 0 36 0;
#X connect 35 0 17 0;
#X connect 36 0 37 0;
#X connect 37 0 39 0;
#X connect 38 0 41 0;
#X connect 39 0 38 0;
#X connect 40 0 11 0;
#X connect 41 0 40 0;
#X connect 42 0 20 0;
#X connect 44 0 46 0;
#X connect 45 0 44 0;
#X connect 46 0 49 1;
#X connect 47 0 59 0;
#X connect 48 0 54 0;
#X connect 49 0 47 0;
#X connect 50 0 19 0;
#X connect 51 0 50 0;
#X connect 51 1 50 1;
#X connect 52 0 17 1;
#X connect 53 0 52 0;
#X connect 53 1 52 1;
#X connect 54 0 49 0;
#X connect 55 0 53 0;
#X connect 56 0 51 0;
#X connect 57 0 52 0;
#X connect 58 0 50 0;
#X restore 1407 523 pd $-calcatmospheartime;
#X obj 1237 887 outlet~;
#X obj 1087 115 inlet~;
#X obj 1395 107 inlet;
#X obj 1439 107 inlet;
#X obj 1502 105 inlet;
#X obj 1311 86 t b b;
#X obj 929 87 loadbang;
#X obj 927 124 t b b;
#X connect 0 0 2 1;
#X connect 0 0 9 1;
#X connect 0 0 19 1;
#X connect 1 0 57 1;
#X connect 2 0 4 0;
#X connect 2 9 56 3;
#X connect 3 0 56 2;
#X connect 4 0 60 0;
#X connect 5 0 4 1;
#X connect 6 0 8 0;
#X connect 6 0 26 0;
#X connect 6 0 56 0;
#X connect 6 0 57 2;
#X connect 7 0 25 0;
#X connect 7 0 56 1;
#X connect 7 0 57 3;
#X connect 7 0 57 0;
#X connect 8 0 0 1;
#X connect 9 0 10 0;
#X connect 9 9 11 0;
#X connect 10 0 60 0;
#X connect 11 0 10 1;
#X connect 13 0 15 0;
#X connect 14 0 16 0;
#X connect 15 0 2 0;
#X connect 16 0 9 0;
#X connect 17 0 60 0;
#X connect 18 0 17 1;
#X connect 19 0 17 0;
#X connect 19 9 18 0;
#X connect 20 0 21 0;
#X connect 21 0 19 0;
#X connect 23 0 24 0;
#X connect 24 0 19 0;
#X connect 25 0 2 0;
#X connect 25 0 45 0;
#X connect 25 0 9 0;
#X connect 25 0 19 0;
#X connect 25 0 48 0;
#X connect 26 0 2 0;
#X connect 26 0 45 0;
#X connect 26 0 9 0;
#X connect 26 0 19 0;
#X connect 26 0 49 0;
#X connect 27 0 29 0;
#X connect 28 0 30 0;
#X connect 29 0 28 0;
#X connect 30 0 31 0;
#X connect 31 0 32 0;
#X connect 32 0 33 0;
#X connect 33 0 34 0;
#X connect 35 0 13 0;
#X connect 36 0 14 0;
#X connect 37 0 20 0;
#X connect 38 0 23 0;
#X connect 39 0 6 0;
#X connect 40 0 7 0;
#X connect 41 0 1 0;
#X connect 42 0 3 0;
#X connect 43 0 44 0;
#X connect 44 0 19 0;
#X connect 45 2 27 0;
#X connect 46 0 59 0;
#X connect 47 0 59 0;
#X connect 48 0 46 0;
#X connect 48 1 59 3;
#X connect 48 2 59 4;
#X connect 49 0 47 0;
#X connect 50 0 59 2;
#X connect 51 0 59 1;
#X connect 52 0 59 0;
#X connect 53 0 45 0;
#X connect 54 0 55 0;
#X connect 55 0 45 0;
#X connect 56 0 5 0;
#X connect 57 0 0 1;
#X connect 57 1 58 0;
#X connect 58 0 11 1;
#X connect 58 1 18 1;
#X connect 59 0 45 0;
#X connect 61 0 0 0;
#X connect 62 0 2 0;
#X connect 63 0 9 0;
#X connect 64 0 19 0;
#X connect 65 0 53 0;
#X connect 65 1 52 0;
#X connect 66 0 67 0;
#X connect 66 0 65 0;
#X restore 8 358 pd \$0-vynleffect-inner;
#X obj 146 192 hsl 70 12 0.01 1 0 0 empty empty Mix\\\ Level 3 6 0
10 #dfdfdf #00faff #000000 0 1;
#X obj 145 213 hsl 70 12 0.01 1 0 0 empty empty Mix\\\ Level 3 6 0
10 #dfdfdf #00faff #000000 0 1;
#X obj 162 232 hsl 70 12 0.01 1 0 0 empty empty Mix\\\ Level 3 6 0
10 #dfdfdf #00faff #000000 0 1;
#X obj 106 249 hsl 70 12 100 10000 0 0 empty empty Band 3 6 0 10 #dfdfdf
#00faff #000000 0 1;
#X obj 224 248 hsl 70 12 3 8 0 0 \$0-crushslider-send \$0-crushslider-recv
Crush 3 6 0 10 #dfdfdf #00faff #000000 0 1;
#X obj 224 213 hsl 70 12 0.045 0.06 0 0 empty empty Intensity 3 6 0
10 #dfdfdf #00faff #000000 0 1;
#X obj 226 192 hsl 70 12 0.02 1.2 0 0 empty empty Density 3 6 0 10
#dfdfdf #00faff #000000 0 1;
#N canvas 536 180 450 300 \$0-vynlsize 0;
#X msg 224 179 12;
#X msg 181 182 10;
#X msg 136 180 7;
#X text 166 173 size;
#X obj 135 100 sel 0 1 2;
#X obj 140 144 t b;
#X obj 173 143 t b;
#X obj 204 145 t b;
#X obj 138 246 outlet;
#X obj 108 54 inlet;
#X connect 0 0 8 0;
#X connect 1 0 8 0;
#X connect 2 0 8 0;
#X connect 4 0 5 0;
#X connect 4 1 6 0;
#X connect 4 2 7 0;
#X connect 4 3 5 0;
#X connect 5 0 2 0;
#X connect 6 0 1 0;
#X connect 7 0 0 0;
#X connect 9 0 4 0;
#X restore 320 303 pd \$0-vynlsize;
#X f 15;
#X obj 106 149 hradio 15 1 0 3 empty empty empty 0 -8 0 10 #606060
#00faff #000000 0;
#N canvas 472 256 450 300 \$0-vynlspeed 0;
#X obj 135 100 sel 0 1 2;
#X obj 140 144 t b;
#X obj 173 143 t b;
#X obj 204 145 t b;
#X obj 138 246 outlet;
#X obj 137 69 inlet;
#X msg 225 187 78;
#X msg 179 189 45;
#X msg 133 188 33, f 4;
#X connect 0 0 1 0;
#X connect 0 1 2 0;
#X connect 0 2 3 0;
#X connect 0 3 1 0;
#X connect 1 0 8 0;
#X connect 2 0 7 0;
#X connect 3 0 6 0;
#X connect 5 0 0 0;
#X connect 6 0 4 0;
#X connect 7 0 4 0;
#X connect 8 0 4 0;
#X restore 184 303 pd \$0-vynlspeed;
#X obj 106 168 hradio 15 1 0 3 empty empty empty 0 -8 0 10 #606060
#00faff #000000 0;
#X obj 154 149 cnv 15 25 15 \$0-sizeheader-send \$0-sizeheader-recv
12 3 7 0 14 #131255 #ffffff 0;
#X obj 154 169 cnv 15 25 15 \$0-speedheader-send \$0-speedheader-recv
78 3 7 0 14 #131255 #ffffff 0;
#N canvas 447 440 442 463 \$0-samplerateselector 0;
#X obj 100 100 cnv 15 100 30 empty empty empty 20 12 0 14 #e0e0e0 #404040
0;
#N canvas 619 187 717 588 \$0-hz441btn 0;
#X obj 100 100 tgl 20 0 empty empty empty 17 7 0 10 #fcfcfc #000000
#000000 0 1;
#X obj 40 184 outlet;
#X obj 293 10 loadbang;
#X obj 267 177 bng 15 250 50 0 empty empty empty 17 7 0 10 #fcfcfc
#000000 #000000;
#X obj 235 154 t b b;
#X obj 235 195 del 200;
#X obj 209 253 tgl 15 0 empty empty empty 17 7 0 10 #fcfcfc #000000
#000000 0 1;
#X obj 156 272 spigot 0;
#X obj 262 332 == 1;
#X obj 261 359 change;
#X obj 260 388 == 0;
#X obj 260 410 tgl 15 0 empty empty empty 17 7 0 10 #fcfcfc #000000
#000000 0 1;
#X obj 207 429 spigot 0;
#X obj 292 34 t b b b b b;
#X msg 307 81 0;
#X obj 414 16 bng 15 250 50 0 empty empty empty 17 7 0 10 #fcfcfc #000000
#000000;
#X obj 308 57 del;
#X obj 157 335 s;
#X obj 227 280 r \$0-filedisplaID;
#X msg 156 298 color 16;
#X msg 227 304 symbol \$1-hz441btn-recv;
#X obj 207 492 s;
#X obj 277 437 r \$0-filedisplaID;
#X msg 277 461 symbol \$1-hz441btn-recv;
#X obj 369 269 s;
#X obj 425 212 r \$0-filedisplaID;
#X msg 425 236 symbol \$1-hz441btn-recv;
#X msg 206 455 color 2;
#X msg 358 237 color 17;
#X obj 120 100 tgl 20 0 empty empty empty 17 7 0 10 #fcfcfc #000000
#000000 0 1;
#X obj 100 100 cnv 20 40 20 \$0-hz441btn-send \$0-hz441btn-recv 441k
4 10 0 14 #14e814 #ffffff 0;
#X msg 369 173 label \$1;
#X obj 370 150 l2s;
#X msg 369 127 44.1;
#X obj 111 126 s \$0-hz441state;
#X obj 209 230 r \$0-hz441state;
#X obj 235 133 r \$0-hz441state;
#X obj 90 59 inlet;
#X floatatom 349 504 5 0 0 0 - - - 0;
#X connect 0 0 1 0;
#X connect 0 0 34 0;
#X connect 0 0 29 0;
#X connect 2 0 13 0;
#X connect 3 0 28 0;
#X connect 4 0 5 0;
#X connect 4 1 3 0;
#X connect 5 0 7 0;
#X connect 5 0 12 0;
#X connect 6 0 7 1;
#X connect 6 0 8 0;
#X connect 7 0 19 0;
#X connect 8 0 9 0;
#X connect 9 0 10 0;
#X connect 10 0 11 0;
#X connect 11 0 12 1;
#X connect 12 0 27 0;
#X connect 13 0 33 0;
#X connect 13 1 16 0;
#X connect 13 2 0 0;
#X connect 13 3 29 0;
#X connect 14 0 29 0;
#X connect 14 0 0 0;
#X connect 15 0 13 0;
#X connect 16 0 14 0;
#X connect 18 0 20 0;
#X connect 19 0 17 0;
#X connect 20 0 17 1;
#X connect 22 0 23 0;
#X connect 22 0 38 0;
#X connect 23 0 21 1;
#X connect 25 0 26 0;
#X connect 26 0 24 1;
#X connect 27 0 21 0;
#X connect 28 0 24 0;
#X connect 29 0 34 0;
#X connect 31 0 24 0;
#X connect 32 0 31 0;
#X connect 33 0 32 0;
#X connect 35 0 6 0;
#X connect 36 0 4 0;
#X connect 37 0 0 0;
#X coords 0 -1 1 1 40 20 2 100 100;
#X restore 104 105 pd \$0-hz441btn;
#X floatatom 94 182 5 0 0 0 - - - 0;
#X obj 93 156 r \$0-hz441state;
#N canvas 882 182 717 588 \$0-hz48btn 0;
#X obj 100 100 tgl 20 0 empty empty empty 17 7 0 10 #fcfcfc #000000
#000000 0 1;
#X obj 40 184 outlet;
#X obj 293 10 loadbang;
#X obj 267 177 bng 15 250 50 0 empty empty empty 17 7 0 10 #fcfcfc
#000000 #000000;
#X obj 235 154 t b b;
#X obj 235 195 del 200;
#X obj 209 253 tgl 15 0 empty empty empty 17 7 0 10 #fcfcfc #000000
#000000 0 1;
#X obj 156 272 spigot 0;
#X obj 262 332 == 1;
#X obj 261 359 change;
#X obj 260 388 == 0;
#X obj 260 410 tgl 15 0 empty empty empty 17 7 0 10 #fcfcfc #000000
#000000 0 1;
#X obj 207 429 spigot 0;
#X obj 292 34 t b b b b b;
#X msg 307 81 0;
#X obj 414 16 bng 15 250 50 0 empty empty empty 17 7 0 10 #fcfcfc #000000
#000000;
#X obj 308 57 del;
#X obj 157 335 s;
#X obj 227 280 r \$0-filedisplaID;
#X msg 156 298 color 16;
#X obj 207 492 s;
#X obj 277 437 r \$0-filedisplaID;
#X obj 369 269 s;
#X obj 425 212 r \$0-filedisplaID;
#X msg 206 455 color 2;
#X msg 358 237 color 17;
#X obj 100 100 cnv 20 20 20 \$0-hz48btn-send \$0-hz48btn-recv 48 2
10 0 14 #404040 #ffffff 0;
#X msg 369 173 label \$1;
#X obj 370 150 l2s;
#X msg 369 127 48;
#X msg 425 236 symbol \$1-hz48btn-recv;
#X msg 227 304 symbol \$1-hz48btn-recv;
#X obj 209 230 r \$0-hz48state;
#X obj 233 133 r \$0-hz48state;
#X obj 111 126 s \$0-hz48state;
#X msg 277 461 symbol \$1-hz48btn-recv;
#X obj 90 59 inlet;
#X connect 0 0 1 0;
#X connect 0 0 34 0;
#X connect 2 0 13 0;
#X connect 3 0 25 0;
#X connect 4 0 5 0;
#X connect 4 1 3 0;
#X connect 5 0 7 0;
#X connect 5 0 12 0;
#X connect 6 0 7 1;
#X connect 6 0 8 0;
#X connect 7 0 19 0;
#X connect 8 0 9 0;
#X connect 9 0 10 0;
#X connect 10 0 11 0;
#X connect 11 0 12 1;
#X connect 12 0 24 0;
#X connect 13 0 29 0;
#X connect 13 1 16 0;
#X connect 13 2 0 0;
#X connect 14 0 0 0;
#X connect 15 0 13 0;
#X connect 16 0 14 0;
#X connect 18 0 31 0;
#X connect 19 0 17 0;
#X connect 21 0 35 0;
#X connect 23 0 30 0;
#X connect 24 0 20 0;
#X connect 25 0 22 0;
#X connect 27 0 22 0;
#X connect 28 0 27 0;
#X connect 29 0 28 0;
#X connect 30 0 22 1;
#X connect 31 0 17 1;
#X connect 32 0 6 0;
#X connect 33 0 4 0;
#X connect 35 0 20 1;
#X connect 36 0 0 0;
#X coords 0 -1 1 1 20 20 2 100 100;
#X restore 149 105 pd \$0-hz48btn;
#X floatatom 205 181 5 0 0 0 - - - 0;
#X obj 206 157 r \$0-hz48state;
#N canvas 763 177 717 588 \$0-hz98btn 0;
#X obj 100 100 tgl 20 0 empty empty empty 17 7 0 10 #fcfcfc #000000
#000000 0 1;
#X obj 40 184 outlet;
#X obj 293 10 loadbang;
#X obj 267 177 bng 15 250 50 0 empty empty empty 17 7 0 10 #fcfcfc
#000000 #000000;
#X obj 235 154 t b b;
#X obj 235 195 del 200;
#X obj 209 253 tgl 15 0 empty empty empty 17 7 0 10 #fcfcfc #000000
#000000 0 1;
#X obj 156 272 spigot 0;
#X obj 262 332 == 1;
#X obj 261 359 change;
#X obj 260 388 == 0;
#X obj 260 410 tgl 15 0 empty empty empty 17 7 0 10 #fcfcfc #000000
#000000 0 1;
#X obj 207 429 spigot 0;
#X obj 292 34 t b b b b b;
#X msg 307 81 0;
#X obj 414 16 bng 15 250 50 0 empty empty empty 17 7 0 10 #fcfcfc #000000
#000000;
#X obj 308 57 del;
#X obj 157 335 s;
#X obj 227 280 r \$0-filedisplaID;
#X msg 156 298 color 16;
#X obj 207 492 s;
#X obj 277 437 r \$0-filedisplaID;
#X obj 369 269 s;
#X obj 425 212 r \$0-filedisplaID;
#X msg 206 455 color 2;
#X msg 358 237 color 17;
#X obj 100 100 cnv 20 20 20 \$0-hz98btn-send \$0-hz98btn-recv 98 2
10 0 14 #404040 #ffffff 0;
#X msg 369 173 label \$1;
#X obj 370 150 l2s;
#X msg 369 127 98;
#X obj 111 126 s \$0-hz98state;
#X obj 233 133 r \$0-hz98state;
#X obj 209 230 r \$0-hz98state;
#X msg 425 236 symbol \$1-hz98btn-recv;
#X msg 227 304 symbol \$1-hz98btn-recv;
#X msg 277 461 symbol \$1-hz98btn-recv;
#X obj 90 59 inlet;
#X connect 0 0 1 0;
#X connect 0 0 30 0;
#X connect 2 0 13 0;
#X connect 3 0 25 0;
#X connect 4 0 5 0;
#X connect 4 1 3 0;
#X connect 5 0 7 0;
#X connect 5 0 12 0;
#X connect 6 0 7 1;
#X connect 6 0 8 0;
#X connect 7 0 19 0;
#X connect 8 0 9 0;
#X connect 9 0 10 0;
#X connect 10 0 11 0;
#X connect 11 0 12 1;
#X connect 12 0 24 0;
#X connect 13 0 29 0;
#X connect 13 1 16 0;
#X connect 13 2 0 0;
#X connect 14 0 0 0;
#X connect 15 0 13 0;
#X connect 16 0 14 0;
#X connect 18 0 34 0;
#X connect 19 0 17 0;
#X connect 21 0 35 0;
#X connect 23 0 33 0;
#X connect 24 0 20 0;
#X connect 25 0 22 0;
#X connect 27 0 22 0;
#X connect 28 0 27 0;
#X connect 29 0 28 0;
#X connect 31 0 4 0;
#X connect 32 0 6 0;
#X connect 33 0 22 1;
#X connect 34 0 17 1;
#X connect 35 0 20 1;
#X connect 36 0 0 0;
#X coords 0 -1 1 1 20 20 2 100 100;
#X restore 174 105 pd \$0-hz98btn;
#X floatatom 314 180 5 0 0 0 - - - 0;
#X obj 312 156 r \$0-hz98state;
#X obj 84 227 sel 1;
#X obj 201 213 sel 1;
#X obj 313 213 sel 1;
#X msg 87 278 0;
#X obj 86 253 t b;
#X msg 200 265 0;
#X obj 199 240 t b;
#X msg 314 269 0;
#X obj 313 244 t b;
#X obj 236 343 s at48k;
#X obj 124 363 s at441k;
#X obj 351 351 s at98k;
#X msg 123 335 1;
#X msg 237 321 1;
#X msg 351 326 1;
#X msg 173 332 0;
#X obj 80 309 t f f b b;
#X msg 247 366 0;
#X obj 193 296 t f f b b;
#X msg 363 373 0;
#X obj 307 300 t f f b b;
#X msg 92 59 1;
#X obj 228 30 inlet;
#X obj 119 13 t b b;
#X obj 92 36 del;
#X connect 2 0 10 0;
#X connect 3 0 2 0;
#X connect 5 0 11 0;
#X connect 6 0 5 0;
#X connect 8 0 12 0;
#X connect 9 0 8 0;
#X connect 10 0 14 0;
#X connect 11 0 16 0;
#X connect 12 0 18 0;
#X connect 13 0 26 0;
#X connect 14 0 13 0;
#X connect 15 0 28 0;
#X connect 16 0 15 0;
#X connect 17 0 30 0;
#X connect 18 0 17 0;
#X connect 22 0 20 0;
#X connect 23 0 19 0;
#X connect 24 0 21 0;
#X connect 25 0 19 0;
#X connect 25 0 21 0;
#X connect 26 0 7 0;
#X connect 26 1 4 0;
#X connect 26 2 22 0;
#X connect 26 3 25 0;
#X connect 27 0 20 0;
#X connect 27 0 21 0;
#X connect 28 0 7 0;
#X connect 28 1 1 0;
#X connect 28 2 23 0;
#X connect 28 3 27 0;
#X connect 29 0 19 0;
#X connect 29 0 20 0;
#X connect 30 0 1 0;
#X connect 30 1 4 0;
#X connect 30 2 24 0;
#X connect 30 3 29 0;
#X connect 31 0 1 0;
#X connect 31 0 20 0;
#X connect 32 0 33 0;
#X connect 33 0 34 0;
#X connect 33 1 1 0;
#X connect 34 0 31 0;
#X coords 0 -1 1 1 100 30 2 100 100;
#X restore 198 117 pd \$0-samplerateselector;
#X obj 182 247 tgl 15 0 empty empty LFO 17 7 0 10 #7c7c7c #00faff #000000
0 1;
#X obj 344 56 inlet;
#X obj 344 117 t b;
#X obj 394 122 t b;
#X obj 197 357 inlet~;
#X obj 174 386 outlet~;
#N canvas 331 143 545 400 \$0-setdefaults 0;
#X msg 157 82 setpan 50;
#X obj 65 295 outlet;
#X msg 158 106 setres 1.67826;
#X obj 114 10 inlet;
#X obj 233 14 bng 15 250 50 0 empty empty empty 17 7 0 10 #fcfcfc #000000
#000000;
#X msg 159 233 sethipass 1160.3;
#X msg 160 154 setcutoff 3044.17;
#X msg 159 181 setband 5362.37;
#X msg 161 260 setwidth 1.3913;
#X msg 161 209 setdrive 8.56522;
#X obj 373 328 outlet;
#X msg 370 255 0.784783;
#X obj 165 39 t b b b b b b b b b b;
#X msg 163 287 set_crushtoggle 1;
#X msg 166 313 set_bitcrush 1;
#X obj 356 285 t f f;
#X connect 0 0 1 0;
#X connect 2 0 1 0;
#X connect 3 0 4 0;
#X connect 4 0 12 0;
#X connect 5 0 1 0;
#X connect 6 0 1 0;
#X connect 7 0 1 0;
#X connect 8 0 1 0;
#X connect 9 0 1 0;
#X connect 11 0 15 0;
#X connect 12 0 0 0;
#X connect 12 1 2 0;
#X connect 12 2 11 0;
#X connect 12 3 6 0;
#X connect 12 4 7 0;
#X connect 12 5 9 0;
#X connect 12 6 5 0;
#X connect 12 7 8 0;
#X connect 12 8 13 0;
#X connect 12 9 14 0;
#X connect 13 0 1 0;
#X connect 14 0 1 0;
#X connect 15 0 10 0;
#X connect 15 1 10 0;
#X restore 537 152 pd \$0-setdefaults;
#N canvas 513 230 400 532 \$0-setfuzzdefaults 0;
#X msg 96 68 setpan 50;
#X obj 71 301 outlet;
#X obj 114 10 inlet;
#X obj 233 14 bng 15 250 50 0 empty empty empty 17 7 0 10 #fcfcfc #000000
#000000;
#X msg 97 92 setres 1.96522;
#X msg 101 117 setmix 0.411739;
#X msg 100 218 sethipass 4894.71;
#X msg 99 140 setcutoff 7235.06;
#X msg 99 194 setdrive 7.70435;
#X msg 100 246 setwidth 0.243478;
#X msg 98 167 setband 6087;
#X obj 260 378 outlet;
#X msg 214 298 0.411739;
#X msg 83 359 set_crushtoggle 1;
#X msg 127 273 set_bitcrush 1;
#X obj 165 39 t b b b b b b b b b b b;
#X obj 231 326 t f f;
#X connect 0 0 1 0;
#X connect 2 0 3 0;
#X connect 3 0 15 0;
#X connect 4 0 1 0;
#X connect 5 0 1 0;
#X connect 6 0 1 0;
#X connect 7 0 1 0;
#X connect 8 0 1 0;
#X connect 9 0 1 0;
#X connect 10 0 1 0;
#X connect 12 0 16 0;
#X connect 13 0 1 0;
#X connect 14 0 1 0;
#X connect 15 0 0 0;
#X connect 15 1 4 0;
#X connect 15 2 5 0;
#X connect 15 3 7 0;
#X connect 15 3 12 0;
#X connect 15 4 10 0;
#X connect 15 5 8 0;
#X connect 15 6 6 0;
#X connect 15 7 9 0;
#X connect 15 8 14 0;
#X connect 15 9 13 0;
#X connect 16 0 11 0;
#X connect 16 1 11 0;
#X restore 545 211 pd \$0-setfuzzdefaults;
#N canvas 136 116 631 543 \$0-setsnapdefaults 0;
#X msg 96 68 setpan 50;
#X obj 71 301 outlet;
#X obj 114 10 inlet;
#X obj 233 14 bng 15 250 50 0 empty empty empty 17 7 0 10 #fcfcfc #000000
#000000;
#X msg 107 273 set_bitcrush 9.45455;
#X msg 100 246 setwidth 0.36687;
#X msg 99 194 setdrive 3.54348;
#X msg 97 92 setres 0.1;
#X msg 99 140 setcutoff 435.739;
#X msg 99 219 sethipass 1;
#X msg 101 117 setmix 0.526522;
#X obj 248 381 outlet;
#X obj 353 379 outlet;
#X msg 98 167 setband 100;
#X msg 336 302 100;
#X msg 91 330 set_crushtoggle 1;
#X obj 165 39 t b b b b b b b b b b b;
#X msg 238 298 0.34;
#X obj 252 329 t f f;
#X obj 333 325 t f f;
#X connect 0 0 1 0;
#X connect 2 0 3 0;
#X connect 3 0 16 0;
#X connect 4 0 1 0;
#X connect 5 0 1 0;
#X connect 6 0 1 0;
#X connect 7 0 1 0;
#X connect 8 0 1 0;
#X connect 9 0 1 0;
#X connect 10 0 1 0;
#X connect 13 0 1 0;
#X connect 14 0 19 0;
#X connect 15 0 1 0;
#X connect 16 0 0 0;
#X connect 16 1 7 0;
#X connect 16 2 10 0;
#X connect 16 2 17 0;
#X connect 16 3 8 0;
#X connect 16 4 13 0;
#X connect 16 4 14 0;
#X connect 16 5 6 0;
#X connect 16 6 9 0;
#X connect 16 7 5 0;
#X connect 16 8 4 0;
#X connect 16 9 15 0;
#X connect 17 0 18 0;
#X connect 18 0 11 0;
#X connect 18 1 11 0;
#X connect 19 0 12 0;
#X connect 19 1 12 0;
#X restore 550 260 pd \$0-setsnapdefaults;
#X obj 537 129 t b;
#X obj 545 186 t b;
#X obj 548 236 t b;
#X msg 441 367 0.447402;
#X obj 443 322 t b b b;
#X msg 458 391 0.0491478;
#X obj 558 322 t f;
#X floatatom 556 299 5 0 0 0 - - - 0;
#X obj 597 338 t b;
#X msg 471 347 5.89855;
#X obj 62 22 loadbang;
#X obj 58 47 \$0;
#X obj 58 70 s \$0-filedisplaID;
#X obj 344 82 route bang stop set_fuzzdefaults set_popdefaults set_atmosdefaults
set_intdendefaults set_lfotoggle set_defaultsr set_defaultspeedsize
, f 74;
#X obj 563 367 t b b;
#X msg 573 402 2;
#X msg 549 426 0;
#N canvas 488 197 450 300 $-initdefaults 0;
#X obj 70 32 loadbang;
#X msg 69 60 set_fuzzdefaults \, set_popdefaults \, set_atmosdefaults
\, set_intdendefaults \, set_lfotoggle 0 \, set_defaultsr \, set_defaultspeedsize
, f 74;
#X obj 62 110 outlet;
#X connect 0 0 1 0;
#X connect 1 0 2 0;
#X restore 400 56 pd $-initdefaults;
#N canvas 150 302 700 341 \$0-updatespeedsize 0;
#X msg 349 183 symbol \$1-sizeheader-recv;
#X msg 103 188 symbol \$1-speedheader-recv;
#X obj 84 99 l2s;
#X obj 329 99 l2s;
#X obj 84 215 s;
#X obj 329 212 s;
#X obj 366 154 r \$0-filedisplaID;
#X obj 124 162 r \$0-filedisplaID;
#X obj 326 61 inlet;
#X obj 83 63 inlet;
#X msg 85 127 label \$1;
#X msg 330 123 label \$1;
#X connect 0 0 5 1;
#X connect 1 0 4 1;
#X connect 2 0 10 0;
#X connect 3 0 11 0;
#X connect 6 0 0 0;
#X connect 7 0 1 0;
#X connect 8 0 3 0;
#X connect 9 0 2 0;
#X connect 10 0 4 0;
#X connect 11 0 5 0;
#X restore 182 326 pd \$0-updatespeedsize;
#N canvas 219 338 662 393 \$0-StopBtn 0;
#X obj 150 265 outlet;
#X obj 293 10 loadbang;
#X obj 184 191 bng 15 250 50 0 empty empty empty 17 7 0 10 #fcfcfc
#000000 #000000;
#X obj 154 170 t b b;
#X obj 154 211 del 200;
#X obj 292 34 t b b b b b;
#X obj 414 16 bng 15 250 50 0 empty empty empty 17 7 0 10 #fcfcfc #000000
#000000;
#X obj 157 335 s;
#X obj 227 280 r \$0-filedisplaID;
#X obj 369 269 s;
#X obj 425 212 r \$0-filedisplaID;
#X msg 358 237 color 17;
#X msg 369 173 label \$1;
#X obj 100 75 inlet;
#X obj 101 100 bng 20 250 50 0 empty empty empty 17 7 0 10 #fcfcfc
#000000 #000000;
#X obj 120 100 bng 20 250 50 0 empty empty empty 17 7 0 10 #fcfcfc
#000000 #000000;
#X obj 100 100 cnv 20 40 20 \$0-stopbtn-send \$0-stopbtn-recv Stop
7 10 0 10 #404040 #ffffff 0;
#X obj 154 236 t b b;
#X msg 156 298 color 2;
#X msg 369 151 symbol Stop;
#X msg 423 234 symbol \$1-stopbtn-recv;
#X msg 227 305 symbol \$1-stopbtn-recv;
#X connect 1 0 5 0;
#X connect 2 0 11 0;
#X connect 3 0 4 0;
#X connect 3 1 2 0;
#X connect 4 0 17 0;
#X connect 5 0 19 0;
#X connect 6 0 5 0;
#X connect 8 0 21 0;
#X connect 10 0 20 0;
#X connect 11 0 9 0;
#X connect 12 0 9 0;
#X connect 13 0 14 0;
#X connect 14 0 3 0;
#X connect 15 0 3 0;
#X connect 17 0 0 0;
#X connect 17 1 18 0;
#X connect 18 0 7 0;
#X connect 19 0 12 0;
#X connect 20 0 9 1;
#X connect 21 0 7 1;
#X coords 0 -1 1 1 40 20 2 100 100;
#X restore 152 122 pd \$0-StopBtn;
#N canvas 642 187 721 415 \$0-StartBtn 1;
#X obj 150 265 outlet;
#X obj 293 10 loadbang;
#X obj 184 191 bng 15 250 50 0 empty empty empty 17 7 0 10 #fcfcfc
#000000 #000000;
#X obj 154 170 t b b;
#X obj 154 211 del 200;
#X obj 292 34 t b b b b b;
#X obj 414 16 bng 15 250 50 0 empty empty empty 17 7 0 10 #fcfcfc #000000
#000000;
#X obj 157 335 s;
#X obj 227 280 r \$0-filedisplaID;
#X obj 369 269 s;
#X obj 425 212 r \$0-filedisplaID;
#X msg 358 237 color 17;
#X msg 369 173 label \$1;
#X obj 100 75 inlet;
#X obj 101 100 bng 20 250 50 0 empty empty empty 17 7 0 10 #fcfcfc
#000000 #000000;
#X obj 120 100 bng 20 250 50 0 empty empty empty 17 7 0 10 #fcfcfc
#000000 #000000;
#X obj 100 100 cnv 20 40 20 \$0-startbtn-send \$0-startbtn-recv Start
5 10 0 10 #404040 #ffffff 0;
#X obj 154 236 t b b;
#X msg 156 298 color 2;
#X msg 369 151 symbol Start;
#X msg 424 235 symbol \$1-startbtn-recv;
#X msg 227 305 symbol \$1-startbtn-recv;
#X connect 1 0 5 0;
#X connect 2 0 11 0;
#X connect 3 0 4 0;
#X connect 3 1 2 0;
#X connect 4 0 17 0;
#X connect 5 0 19 0;
#X connect 6 0 5 0;
#X connect 8 0 21 0;
#X connect 10 0 20 0;
#X connect 11 0 9 0;
#X connect 12 0 9 0;
#X connect 13 0 14 0;
#X connect 14 0 3 0;
#X connect 15 0 3 0;
#X connect 17 0 0 0;
#X connect 17 1 18 0;
#X connect 18 0 7 0;
#X connect 19 0 12 0;
#X connect 20 0 9 1;
#X connect 21 0 7 1;
#X coords 0 -1 1 1 40 20 2 100 100;
#X restore 105 122 pd \$0-StartBtn;
#X text 713 261 << Adjust atmosphear defaults here;
#X text 703 212 << Adjust fuzz defaults here;
#X text 663 153 << Adjust pop defaults here;
#X connect 7 0 11 0;
#X connect 7 1 27 0;
#X connect 8 0 7 0;
#X connect 9 0 7 1;
#X connect 10 0 7 2;
#X connect 11 0 7 3;
#X connect 12 0 7 8;
#X connect 13 0 7 6;
#X connect 14 0 7 7;
#X connect 15 0 7 10;
#X connect 15 0 49 1;
#X connect 16 0 15 0;
#X connect 17 0 7 9;
#X connect 17 0 49 0;
#X connect 18 0 17 0;
#X connect 22 0 7 11;
#X connect 23 0 44 0;
#X connect 24 0 51 0;
#X connect 25 0 50 0;
#X connect 26 0 7 12;
#X connect 28 0 7 13;
#X connect 28 1 8 0;
#X connect 29 0 7 14;
#X connect 29 1 9 0;
#X connect 30 0 7 15;
#X connect 30 1 10 0;
#X connect 30 2 11 0;
#X connect 31 0 28 0;
#X connect 32 0 29 0;
#X connect 33 0 30 0;
#X connect 34 0 14 0;
#X connect 35 0 34 0;
#X connect 35 1 40 0;
#X connect 35 2 36 0;
#X connect 36 0 13 0;
#X connect 37 0 22 0;
#X connect 38 0 37 0;
#X connect 39 0 21 0;
#X connect 40 0 12 0;
#X connect 41 0 42 0;
#X connect 42 0 43 0;
#X connect 44 0 24 0;
#X connect 44 1 25 0;
#X connect 44 2 31 0;
#X connect 44 3 32 0;
#X connect 44 4 33 0;
#X connect 44 5 35 0;
#X connect 44 6 38 0;
#X connect 44 7 39 0;
#X connect 44 8 45 0;
#X connect 45 0 47 0;
#X connect 45 1 46 0;
#X connect 46 0 16 0;
#X connect 47 0 18 0;
#X connect 48 0 44 0;
#X connect 50 0 7 4;
#X connect 51 0 7 5;
#X coords 0 -1 1 1 200 165 2 100 100;
#X restore 100 100 pd \$0-vynldisplay;
#X obj 98 74 inlet;
#X obj 291 76 inlet~;
#X obj 101 273 outlet~;
#X text 313 164 <<<< Right click and open to adjust default settings
;
#X connect 0 0 3 0;
#X connect 1 0 0 1;
#X connect 2 0 0 0;
#X coords 0 -1 1 1 200 165 2 100 100;
