#N canvas 523 158 384 676 12;
#X declare -lib clearessentials;
#N canvas 796 277 392 377 \$0-createreadcatch 0;
#X obj 116 62 inlet;
#X msg 212 116 \; pd-\$1-readcatch clear;
#N canvas 363 318 634 315 \$0-makereadcatch 0;
#X msg 49 82 0;
#X msg 95 81 50;
#X msg 130 79 50;
#X obj 47 24 inlet;
#X obj 48 51 t b b b s;
#X obj 430 56 tgl 15 0 empty empty empty 17 7 0 10 #fcfcfc #000000
#000000 0 1;
#X obj 378 86 spigot 0;
#X obj 391 211 spigot 0;
#X obj 431 112 == 0;
#X obj 432 137 change;
#X obj 434 162 == 1;
#X obj 440 190 tgl 15 0 empty empty empty 17 7 0 10 #fcfcfc #000000
#000000 0 1;
#X obj 429 24 r \$0-unique-id;
#X obj 47 133 pack f f f s;
#X msg 49 168 \; pd-\$4-readcatch obj \$2 \$3 catch~ \$4;
#X connect 0 0 13 0;
#X connect 1 0 13 1;
#X connect 2 0 13 2;
#X connect 3 0 4 0;
#X connect 4 0 0 0;
#X connect 4 1 1 0;
#X connect 4 2 2 0;
#X connect 4 3 13 3;
#X connect 5 0 6 1;
#X connect 5 0 8 0;
#X connect 8 0 9 0;
#X connect 9 0 10 0;
#X connect 10 0 11 0;
#X connect 11 0 7 1;
#X connect 12 0 5 0;
#X connect 13 0 14 0;
#X restore 172 165 pd \$0-makereadcatch;
#X obj 172 141 t s;
#N canvas 538 155 448 323 \$0-makeoutlet 0;
#X msg 49 82 0;
#X obj 47 24 inlet;
#X obj 48 51 t b b b s;
#X msg 131 81 150;
#X msg 95 81 50;
#X obj 49 136 pack f f f s;
#X msg 49 160 \; pd-\$4-readcatch obj \$2 \$3 outlet~;
#X connect 0 0 5 0;
#X connect 1 0 2 0;
#X connect 2 0 0 0;
#X connect 2 1 4 0;
#X connect 2 2 3 0;
#X connect 2 3 5 3;
#X connect 3 0 5 2;
#X connect 4 0 5 1;
#X connect 5 0 6 0;
#X restore 143 209 pd \$0-makeoutlet;
#N canvas 1201 145 372 387 \$0-connectreadcatch 0;
#X obj 37 28 inlet;
#X msg 41 99 0;
#X obj 41 153 pack f s;
#X obj 40 68 t b s;
#X msg 39 180 \; pd-\$2-readcatch connect 0 0 1 0;
#X connect 0 0 3 0;
#X connect 1 0 2 0;
#X connect 2 0 4 0;
#X connect 3 0 1 0;
#X connect 3 1 2 1;
#X restore 116 232 pd \$0-connectreadcatch;
#X obj 119 87 t s s s s;
#X obj 141 181 t s;
#X connect 0 0 6 0;
#X connect 3 0 2 0;
#X connect 6 0 5 0;
#X connect 6 1 7 0;
#X connect 6 2 3 0;
#X connect 6 3 1 0;
#X connect 7 0 4 0;
#X restore 164 545 pd \$0-createreadcatch;
#X obj 144 224 s \$0-readdisplaID;
#X obj 165 523 symbol;
#X msg 164 499 bang;
#X obj 164 475 t b s;
#X obj 79 15 inlet;
#X msg 164 451 symbol \$1;
#X obj 190 181 tgl 15 0 empty empty empty 17 7 0 10 #fcfcfc #000000
#000000 0 1;
#X obj 190 201 s \$0-unique-id;
#X msg 190 157 0;
#X obj 144 107 \$1;
#N canvas 607 47 365 294 \$0-readcanvasname 0;
#X obj 42 30 inlet;
#N canvas 78 78 565 338 \$0-createcanvasname 0;
#X msg 49 82 0;
#X msg 95 81 50;
#X msg 130 79 50;
#X obj 74 108 r \$0-readdisplaID;
#X obj 48 51 t b b b s;
#X obj 49 136 pack f f f f s f;
#X obj 46 25 inlet;
#X msg 48 224 \; pd-\$6-objreader obj \$3 \$4 namecanvas \$6-ce_readcatch
;
#X obj 155 21 r \$0-canvasnameid;
#X floatatom 215 45 5 0 0 0 - - - 0;
#X connect 0 0 5 0;
#X connect 1 0 5 2;
#X connect 2 0 5 3;
#X connect 3 0 5 1;
#X connect 4 0 0 0;
#X connect 4 1 1 0;
#X connect 4 2 2 0;
#X connect 4 3 5 4;
#X connect 5 0 7 0;
#X connect 6 0 4 0;
#X connect 8 0 5 5;
#X connect 8 0 9 0;
#X restore 138 107 pd \$0-createcanvasname;
#N canvas 601 312 521 300 \$0-clearcanvasname 0;
#X obj 73 84 inlet;
#X obj 72 118 f;
#X obj 126 88 r \$0-canvasnameid;
#X msg 72 141 \; pd-\$1-objreader clear;
#X floatatom 133 111 5 0 0 0 - - - 0;
#X connect 0 0 1 0;
#X connect 1 0 3 0;
#X connect 2 0 1 1;
#X connect 2 0 4 0;
#X restore 163 80 pd \$0-clearcanvasname;
#N canvas 708 466 605 365 \$0-createreadholder 0;
#X msg 49 82 0;
#X obj 48 51 t b b b s;
#X obj 46 25 inlet;
#X obj 148 82 r \$0-canvasnameid;
#X obj 379 20 loadbang;
#X obj 378 67 \$0;
#X obj 378 43 t b;
#X floatatom 378 91 5 0 0 0 - - - 0;
#X obj 378 174 s;
#X msg 419 146 symbol \$1-canvasnameid;
#X obj 378 118 t f f;
#X msg 79 84 50;
#X msg 114 82 75;
#X obj 47 115 pack f f f s f;
#X msg 48 143 \; pd-\$5-objreader obj \$2 \$3 pd \$4-readcatch;
#X obj 33 279 symbol;
#X msg 31 255 bang;
#X msg 47 309 \; pd-\$1-readcatch menuclose 1;
#X obj 31 231 t b s;
#X msg 30 184 \$4;
#X obj 31 209 l2s;
#X connect 0 0 13 0;
#X connect 1 0 0 0;
#X connect 1 1 11 0;
#X connect 1 2 12 0;
#X connect 1 3 13 3;
#X connect 2 0 1 0;
#X connect 3 0 13 4;
#X connect 4 0 6 0;
#X connect 5 0 7 0;
#X connect 6 0 5 0;
#X connect 7 0 10 0;
#X connect 9 0 8 1;
#X connect 10 0 8 0;
#X connect 10 1 9 0;
#X connect 11 0 13 1;
#X connect 12 0 13 2;
#X connect 13 0 14 0;
#X connect 13 0 19 0;
#X connect 15 0 17 0;
#X connect 16 0 15 0;
#X connect 18 0 16 0;
#X connect 18 1 15 1;
#X connect 19 0 20 0;
#X connect 20 0 18 0;
#X restore 116 133 pd \$0-createreadholder;
#N canvas 156 337 450 300 \$0-objreader 0;
#X obj 50 50 namecanvas 1007-ce_readcatch;
#N canvas 0 50 450 300 1003-this_is_a_test-readcatch 0;
#X obj 50 50 catch~ 1003-this_is_a_test;
#X obj 50 150 outlet~;
#X connect 0 0 1 0;
#X restore 50 75 pd 1003-this_is_a_test-readcatch;
#X obj 50 100 outlet~;
#X connect 1 0 2 0;
#X restore 45 205 pd \$0-objreader;
#X obj 44 54 t s s b b;
#N canvas 432 177 605 365 \$0-createreadoutlet 0;
#X msg 49 82 0;
#X obj 74 108 r \$0-readdisplaID;
#X obj 48 51 t b b b s;
#X obj 48 137 pack f f f f s f;
#X obj 46 25 inlet;
#X obj 155 21 r \$0-canvasnameid;
#X obj 355 17 loadbang;
#X obj 354 64 \$0;
#X obj 354 40 t b;
#X floatatom 354 88 5 0 0 0 - - - 0;
#X obj 354 171 s;
#X msg 395 143 symbol \$1-canvasnameid;
#X obj 354 115 t f f;
#X msg 436 88 1368;
#X msg 95 81 50;
#X msg 130 79 100;
#X floatatom 192 59 5 0 0 0 - - - 0;
#X msg 50 164 \; pd-\$6-objreader obj \$3 \$4 outlet~;
#X connect 0 0 3 0;
#X connect 1 0 3 1;
#X connect 2 0 0 0;
#X connect 2 1 14 0;
#X connect 2 2 15 0;
#X connect 2 3 3 4;
#X connect 3 0 17 0;
#X connect 4 0 2 0;
#X connect 5 0 3 5;
#X connect 5 0 16 0;
#X connect 6 0 8 0;
#X connect 7 0 9 0;
#X connect 8 0 7 0;
#X connect 9 0 12 0;
#X connect 11 0 10 1;
#X connect 12 0 10 0;
#X connect 12 1 11 0;
#X connect 13 0 12 0;
#X connect 14 0 3 2;
#X connect 15 0 3 3;
#X restore 91 156 pd \$0-createreadoutlet;
#X obj 45 242 outlet~;
#X connect 0 0 5 0;
#X connect 4 0 7 0;
#X connect 5 0 6 0;
#X connect 5 1 3 0;
#X connect 5 2 1 0;
#X connect 5 3 2 0;
#X restore 187 398 pd \$0-readcanvasname;
#X obj 112 250 s \$0-uid;
#X obj 112 226 \$0;
#N canvas 1081 662 450 300 \$0-finishlasconnect 0;
#X obj 19 13 inlet;
#X obj 37 37 r \$0-uid;
#X obj 20 69 f;
#X msg 18 93 \; pd-\$1-objreader connect 1 0 2 0;
#X msg 29 162 \; pd-\$1-readcanvasname connect 4 0 7 0;
#X connect 0 0 2 0;
#X connect 1 0 2 1;
#X connect 2 0 3 0;
#X connect 2 0 4 0;
#X restore 141 591 pd \$0-finishlasconnect;
#X obj 141 374 t b s s;
#X obj 141 568 del;
#X floatatom 80 325 5 0 0 0 - - - 0;
#X obj 80 348 l2s;
#X obj 80 300 route float symbol;
#X obj 203 325 print null;
#X obj 103 272 s \$0-canvasnameid;
#X obj 144 132 t f f b;
#X obj 145 55 bng 15 50 10 0 empty empty empty 17 7 0 10 #fcfcfc #000000
#000000;
#X obj 80 39 t a b;
#X obj 188 423 outlet~;
#X obj 112 81 t b b;
#X symbolatom 141 351 10 0 0 0 - - - 0;
#X obj 144 15 declare -lib clearessentials;
#X connect 2 0 0 0;
#X connect 3 0 2 0;
#X connect 4 0 3 0;
#X connect 4 1 2 1;
#X connect 5 0 24 0;
#X connect 6 0 4 0;
#X connect 7 0 8 0;
#X connect 9 0 7 0;
#X connect 10 0 22 0;
#X connect 11 0 25 0;
#X connect 13 0 12 0;
#X connect 13 0 21 0;
#X connect 15 0 16 0;
#X connect 15 1 6 0;
#X connect 15 2 11 0;
#X connect 16 0 14 0;
#X connect 17 0 18 0;
#X connect 18 0 15 0;
#X connect 19 0 17 0;
#X connect 19 1 27 0;
#X connect 19 2 20 0;
#X connect 22 0 1 0;
#X connect 22 2 9 0;
#X connect 23 0 26 0;
#X connect 24 0 19 0;
#X connect 24 1 26 0;
#X connect 26 0 13 0;
#X connect 26 1 10 0;
#X connect 27 0 15 0;
