#N canvas 248 136 1353 560 12;
#X declare -lib clearessentials;
#X msg 253 472 set \$1;
#X obj 81 226 sel 1 2 3 4 5 6 7 8 9 10 11 12 13 14 15 16 17 18 19 20
21 22 23 24 25 26 27 28 29 30 31 32, f 120;
#X obj 72 258 bng 15 250 50 0 empty empty empty 17 7 0 10 #fcfcfc #000000
#000000;
#X msg 72 279 1;
#X obj 108 260 bng 15 250 50 0 empty empty empty 17 7 0 10 #fcfcfc
#000000 #000000;
#X obj 143 260 bng 15 250 50 0 empty empty empty 17 7 0 10 #fcfcfc
#000000 #000000;
#X obj 179 262 bng 15 250 50 0 empty empty empty 17 7 0 10 #fcfcfc
#000000 #000000;
#X obj 214 260 bng 15 250 50 0 empty empty empty 17 7 0 10 #fcfcfc
#000000 #000000;
#X obj 250 262 bng 15 250 50 0 empty empty empty 17 7 0 10 #fcfcfc
#000000 #000000;
#X obj 285 262 bng 15 250 50 0 empty empty empty 17 7 0 10 #fcfcfc
#000000 #000000;
#X obj 321 264 bng 15 250 50 0 empty empty empty 17 7 0 10 #fcfcfc
#000000 #000000;
#X obj 322 312 bng 15 250 50 0 empty empty empty 17 7 0 10 #fcfcfc
#000000 #000000;
#X obj 358 314 bng 15 250 50 0 empty empty empty 17 7 0 10 #fcfcfc
#000000 #000000;
#X obj 393 314 bng 15 250 50 0 empty empty empty 17 7 0 10 #fcfcfc
#000000 #000000;
#X obj 429 316 bng 15 250 50 0 empty empty empty 17 7 0 10 #fcfcfc
#000000 #000000;
#X obj 464 314 bng 15 250 50 0 empty empty empty 17 7 0 10 #fcfcfc
#000000 #000000;
#X obj 500 316 bng 15 250 50 0 empty empty empty 17 7 0 10 #fcfcfc
#000000 #000000;
#X obj 535 316 bng 15 250 50 0 empty empty empty 17 7 0 10 #fcfcfc
#000000 #000000;
#X obj 571 318 bng 15 250 50 0 empty empty empty 17 7 0 10 #fcfcfc
#000000 #000000;
#X msg 108 281 2;
#X msg 143 281 3;
#X msg 179 283 4;
#X msg 214 281 5;
#X msg 250 283 6;
#X msg 285 283 7;
#X msg 321 285 8;
#X msg 322 333 9;
#X msg 358 335 10;
#X msg 393 335 11;
#X msg 429 337 12;
#X msg 464 335 13;
#X msg 500 337 14;
#X msg 535 337 15;
#X msg 571 339 16;
#X obj 573 364 bng 15 250 50 0 empty empty empty 17 7 0 10 #fcfcfc
#000000 #000000;
#X obj 609 366 bng 15 250 50 0 empty empty empty 17 7 0 10 #fcfcfc
#000000 #000000;
#X obj 644 366 bng 15 250 50 0 empty empty empty 17 7 0 10 #fcfcfc
#000000 #000000;
#X obj 680 368 bng 15 250 50 0 empty empty empty 17 7 0 10 #fcfcfc
#000000 #000000;
#X obj 715 366 bng 15 250 50 0 empty empty empty 17 7 0 10 #fcfcfc
#000000 #000000;
#X obj 751 368 bng 15 250 50 0 empty empty empty 17 7 0 10 #fcfcfc
#000000 #000000;
#X obj 786 368 bng 15 250 50 0 empty empty empty 17 7 0 10 #fcfcfc
#000000 #000000;
#X obj 822 370 bng 15 250 50 0 empty empty empty 17 7 0 10 #fcfcfc
#000000 #000000;
#X msg 573 385 17;
#X msg 609 387 18;
#X msg 643 386 19;
#X msg 680 389 20;
#X msg 715 387 21;
#X msg 751 389 22;
#X msg 786 389 23;
#X msg 822 391 24;
#X obj 757 418 bng 15 250 50 0 empty empty empty 17 7 0 10 #fcfcfc
#000000 #000000;
#X obj 793 420 bng 15 250 50 0 empty empty empty 17 7 0 10 #fcfcfc
#000000 #000000;
#X obj 828 420 bng 15 250 50 0 empty empty empty 17 7 0 10 #fcfcfc
#000000 #000000;
#X obj 864 422 bng 15 250 50 0 empty empty empty 17 7 0 10 #fcfcfc
#000000 #000000;
#X obj 899 420 bng 15 250 50 0 empty empty empty 17 7 0 10 #fcfcfc
#000000 #000000;
#X obj 935 422 bng 15 250 50 0 empty empty empty 17 7 0 10 #fcfcfc
#000000 #000000;
#X obj 970 422 bng 15 250 50 0 empty empty empty 17 7 0 10 #fcfcfc
#000000 #000000;
#X obj 1006 424 bng 15 250 50 0 empty empty empty 17 7 0 10 #fcfcfc
#000000 #000000;
#X msg 757 439 25;
#X msg 793 441 26;
#X msg 827 440 27;
#X msg 864 443 28;
#X msg 899 441 29;
#X msg 935 443 30;
#X msg 970 443 31;
#X msg 1006 445 32;
#X obj 253 503 outlet;
#X obj 82 33 inlet;
#X obj 333 82 outlet;
#X text 290 155 To add more channels modify this sel object. Nexxt
add the new matching message below. Connect this to the [set \$1< message.
Last make sure the error message is connected to the last outlet of
the [sel] object.;
#N canvas 78 78 609 300 \$0-routecmds-no-need-to-edit-this 0;
#X obj 55 27 inlet;
#X floatatom 74 170 5 0 0 0 - - - 0;
#X obj 36 170 bng 15 250 50 0 empty empty set 17 7 0 10 #fcfcfc #000000
#000000;
#X obj 52 195 f;
#X obj 78 123 f;
#X obj 180 171 f;
#X obj 173 92 t b;
#X obj 419 92 route float;
#X floatatom 418 116 5 0 0 0 - - - 0;
#X obj 77 148 t f f;
#X obj 188 144 bng 15 250 50 0 empty empty empty 17 7 0 10 #fcfcfc
#000000 #000000;
#X obj 76 90 t b b f;
#X obj 77 66 route adjust_channel get_channel set_channel bang;
#X obj 262 122 t b b;
#X obj 494 115 print Error: Cannot assign channel value ->;
#X obj 51 249 outlet;
#X obj 174 231 outlet;
#X connect 0 0 12 0;
#X connect 1 0 3 1;
#X connect 2 0 3 0;
#X connect 3 0 15 0;
#X connect 4 0 9 0;
#X connect 5 0 16 0;
#X connect 6 0 10 0;
#X connect 7 0 8 0;
#X connect 7 1 14 0;
#X connect 8 0 11 0;
#X connect 9 0 1 0;
#X connect 9 1 5 1;
#X connect 10 0 5 0;
#X connect 11 1 4 0;
#X connect 11 2 4 1;
#X connect 12 0 11 0;
#X connect 12 1 6 0;
#X connect 12 2 13 0;
#X connect 12 3 13 0;
#X connect 12 4 7 0;
#X connect 13 0 2 0;
#X connect 13 1 10 0;
#X restore 82 59 pd \$0-routecmds-no-need-to-edit-this;
#X obj 151 18 declare -lib clearessentials;
#X obj 962 277 print Warning: Channel value must be > 0 and < 32 for
sequence >;
#X obj 563 81 inlet;
#X obj 960 249 f;
#X obj 957 224 t b;
#X connect 0 0 66 0;
#X connect 1 0 2 0;
#X connect 1 1 4 0;
#X connect 1 2 5 0;
#X connect 1 3 6 0;
#X connect 1 4 7 0;
#X connect 1 5 8 0;
#X connect 1 6 9 0;
#X connect 1 7 10 0;
#X connect 1 8 11 0;
#X connect 1 9 12 0;
#X connect 1 10 13 0;
#X connect 1 11 14 0;
#X connect 1 12 15 0;
#X connect 1 13 16 0;
#X connect 1 14 17 0;
#X connect 1 15 18 0;
#X connect 1 16 34 0;
#X connect 1 17 35 0;
#X connect 1 18 36 0;
#X connect 1 19 37 0;
#X connect 1 20 38 0;
#X connect 1 21 39 0;
#X connect 1 22 40 0;
#X connect 1 23 41 0;
#X connect 1 24 50 0;
#X connect 1 25 51 0;
#X connect 1 26 52 0;
#X connect 1 27 53 0;
#X connect 1 28 54 0;
#X connect 1 29 55 0;
#X connect 1 30 56 0;
#X connect 1 31 57 0;
#X connect 1 32 75 0;
#X connect 2 0 3 0;
#X connect 3 0 0 0;
#X connect 4 0 19 0;
#X connect 5 0 20 0;
#X connect 6 0 21 0;
#X connect 7 0 22 0;
#X connect 8 0 23 0;
#X connect 9 0 24 0;
#X connect 10 0 25 0;
#X connect 11 0 26 0;
#X connect 12 0 27 0;
#X connect 13 0 28 0;
#X connect 14 0 29 0;
#X connect 15 0 30 0;
#X connect 16 0 31 0;
#X connect 17 0 32 0;
#X connect 18 0 33 0;
#X connect 19 0 0 0;
#X connect 20 0 0 0;
#X connect 21 0 0 0;
#X connect 22 0 0 0;
#X connect 23 0 0 0;
#X connect 24 0 0 0;
#X connect 25 0 0 0;
#X connect 26 0 0 0;
#X connect 27 0 0 0;
#X connect 28 0 0 0;
#X connect 29 0 0 0;
#X connect 30 0 0 0;
#X connect 31 0 0 0;
#X connect 32 0 0 0;
#X connect 33 0 0 0;
#X connect 34 0 42 0;
#X connect 35 0 43 0;
#X connect 36 0 44 0;
#X connect 37 0 45 0;
#X connect 38 0 46 0;
#X connect 39 0 47 0;
#X connect 40 0 48 0;
#X connect 41 0 49 0;
#X connect 42 0 0 0;
#X connect 43 0 0 0;
#X connect 44 0 0 0;
#X connect 45 0 0 0;
#X connect 46 0 0 0;
#X connect 47 0 0 0;
#X connect 48 0 0 0;
#X connect 49 0 0 0;
#X connect 50 0 58 0;
#X connect 51 0 59 0;
#X connect 52 0 60 0;
#X connect 53 0 61 0;
#X connect 54 0 62 0;
#X connect 55 0 63 0;
#X connect 56 0 64 0;
#X connect 57 0 65 0;
#X connect 58 0 0 0;
#X connect 59 0 0 0;
#X connect 60 0 0 0;
#X connect 61 0 0 0;
#X connect 62 0 0 0;
#X connect 63 0 0 0;
#X connect 64 0 0 0;
#X connect 65 0 0 0;
#X connect 67 0 70 0;
#X connect 70 0 1 0;
#X connect 70 1 68 0;
#X connect 73 0 74 1;
#X connect 74 0 72 0;
#X connect 75 0 74 0;
