#N canvas 447 19 1440 817 12;
#X declare -lib clearessentials;
#X obj 562 438 ce_timediv;
#X floatatom 562 465 5 0 0 0 - - - 0;
#X obj 394 355 hradio 10 1 0 13 empty empty empty 0 -8 0 10 #fcfcfc #000000 #000000 0;
#X msg 563 412 \$1;
#X obj 357 122 inlet;
#X obj 510 82 outlet;
#X obj 423 195 t b f;
#X obj 423 219 f;
#X obj 423 241 t f;
#X obj 100 173 cnv 15 100 16 \$0-\$1-timediv-display-send \$0-\$1-timediv-display-recv TimeDiv:x380.952 3 8 0 10 #e0e0e0 #404040 0;
#X obj 100 190 cnv 17 100 18 empty empty Midi\ Note 3 8 0 10 #7c7c7c #dfdfdf 0;
#X obj 100 209 cnv 17 100 18 empty empty Midi\ Freq\ OSC 20 9 0 10 #606060 #dfdfdf 0;
#X obj 78 32 loadbang;
#X floatatom 162 190 5 0 117 0 - - - 0;
#X obj 100 266 cnv 17 100 18 empty empty empty 20 12 0 14 #9f9f9f #404040 0;
#X floatatom 162 266 5 12 119 0 - - - 0;
#X floatatom 101 266 5 12 119 0 - - - 0;
#X obj 100 247 cnv 17 100 18 empty empty From\ \ \ To 3 8 0 14 #404040 #bbbbbb 0;
#X obj 497 192 t b f;
#X obj 499 218 f;
#X obj 500 240 t f;
#X obj 573 190 t b f;
#X obj 575 216 f;
#X obj 572 242 t f;
#X obj 643 186 t b f;
#X obj 645 212 f;
#X obj 646 236 t f;
#X floatatom 629 462 5 0 0 0 - - - 0;
#X obj 161 190 cnv 15 38 18 \$0-out-midinote-send \$0-out-midinote-recv 69 5 8 0 14 #131255 #00faff 0;
#X obj 100 266 cnv 15 38 18 \$0-out-fromnote-send \$0-out-fromnote-recv 73 5 8 0 14 #131255 #00faff 0;
#X floatatom 302 715 8 0 0 0 Frequency - - 0;
#X obj 250 744 ce_midifreak;
#X obj 300 685 mtof;
#X obj 162 266 cnv 15 38 18 \$0-out-tonote-send \$0-out-tonote-recv 75 5 8 0 14 #131255 #00faff 0;
#X floatatom 477 755 8 0 0 0 Frequency - - 0;
#X obj 435 734 hsl 128 15 0.1 1.5 0 0 empty empty detection\ threshold\ 0.1\ to\ 1.5 -2 -8 0 10 #fcfcfc #000000 #000000 0 1;
#X obj 423 781 ce_midifreak;
#X obj 477 687 mtof;
#X obj 100 281 cnv 17 100 38 empty empty Tuning 3 8 0 14 #404040 #bbbbbb 0;
#X obj 104 306 hradio 9 1 0 9 empty empty empty 0 -8 0 10 #131255 #00faff #ffffff 0;
#X floatatom 304 794 5 0 118 0 - - - 0;
#X obj 161 285 cnv 15 38 18 \$0-out-tuning-send \$0-out-tuning-recv 444 5 8 0 14 #131255 #00faff 0;
#X obj 716 187 t b f;
#X obj 718 213 f;
#X obj 719 236 t f;
#X obj 286 83 namecanvas \$0-stepdiv-holder;
#X obj 286 56 declare -lib clearessentials;
#X obj 100 100 cnv 15 100 72 empty empty empty 20 12 0 12 #606060 #404040 0;
#X obj 148 102 knob 48 0 13 0 0 empty empty #808080 #0000C0 #00FFFF 0 0 14 0 1 320 0 0;
#X obj 102 154 cnv 17 40 18 \$0-out-vel-send \$0-out-vel-recv 0.7 10 8 0 10 #131255 #00faff 0;
#X obj 110 102 cnv 15 20 16 empty empty Vel 3 8 0 10 #606060 #dfdfdf 0;
#X obj 105 118 knob 33 0.1 0.9 0 0.1 empty empty #606060 #0000C0 #00FFFF 0 0 9 0 1 320 0 0;
#X obj 162 153 tgl 19 0 empty empty empty 0 -10 0 12 #fcfcfc #000000 #000000 0 1;
#X obj 162 153 cnv 18 19 19 \$0-mutestate-send \$0-mutestate-recv M 5 10 0 12 #404040 #000000 0;
#X obj 1019 550 t b f;
#X obj 1019 576 f;
#X obj 1019 600 t f;
#X obj 100 228 ce_mfopresets;
#X obj 1019 493 t a;
#X msg 1019 518 inputmidi \$1 \$2;
#X obj 1018 417 t b f;
#X obj 1018 443 f;
#N canvas 184 238 450 300 \$0-\$1-mute-display 0;
#X obj 52 18 inlet;
#X msg 47 238 color 23 53 75;
#X obj 113 274 s;
#X obj 164 216 \$0;
#X msg 161 240 symbol \$1-mutestate-recv;
#X msg 35 212 color 32 52 52;
#X obj 53 137 sel 0 1;
#X obj 101 171 t b b;
#X obj 56 173 t b b;
#X obj 57 54 t f f;
#N canvas 132 519 450 304 \$0-send-out-mute 0;
#X obj 107 12 inlet;
#X floatatom 206 66 5 0 0 0 - - - 0;
#X obj 139 68 \$1;
#X obj 104 103 pack f f f;
#X floatatom 46 80 5 0 0 0 - - - 0;
#X obj 193 25 r \$0-\$1-at-selseq;
#X obj 104 158 s \$0-\$1-tocntrl-out;
#X msg 105 134 set_mute \$3 \$2 \$1;
#X obj 177 64 f;
#X obj 108 38 t f b b;
#X connect 0 0 9 0;
#X connect 2 0 3 1;
#X connect 3 0 7 0;
#X connect 5 0 1 0;
#X connect 5 0 8 1;
#X connect 7 0 6 0;
#X connect 8 0 3 2;
#X connect 9 0 3 0;
#X connect 9 0 4 0;
#X connect 9 1 2 0;
#X connect 9 2 8 0;
#X restore 132 92 pd \$0-send-out-mute;
#N canvas 104 104 450 300 \$0-waituntilchanged 0;
#X obj 39 35 inlet;
#X obj 39 157 outlet;
#X obj 39 111 spigot 0;
#X obj 92 88 tgl 19 0 empty empty empty 0 -10 0 12 #fcfcfc #000000 #000000 0 1;
#X obj 92 66 r \$0-\$1-waitforsequence-change;
#X obj 39 70 t a;
#X obj 39 134 t a;
#X connect 0 0 5 0;
#X connect 2 0 6 0;
#X connect 3 0 2 1;
#X connect 4 0 3 0;
#X connect 5 0 2 0;
#X connect 6 0 1 0;
#X restore 132 67 pd \$0-waituntilchanged;
#X floatatom 118 32 5 0 0 0 - - - 0;
#N canvas 104 104 450 300 \$0-waituntilchanged 0;
#X obj 39 35 inlet;
#X obj 39 157 outlet;
#X obj 39 111 spigot 0;
#X obj 92 88 tgl 19 0 empty empty empty 0 -10 0 12 #fcfcfc #000000 #000000 0 1;
#X obj 92 66 r \$0-\$1-waitforsequence-change;
#X obj 39 70 t a;
#X obj 39 134 t a;
#X connect 0 0 5 0;
#X connect 2 0 6 0;
#X connect 3 0 2 1;
#X connect 4 0 3 0;
#X connect 5 0 2 0;
#X connect 6 0 1 0;
#X restore 62 113 pd \$0-waituntilchanged;
#X connect 0 0 9 0;
#X connect 1 0 2 0;
#X connect 3 0 4 0;
#X connect 4 0 2 1;
#X connect 5 0 2 0;
#X connect 6 0 8 0;
#X connect 6 1 7 0;
#X connect 7 0 5 0;
#X connect 7 1 3 0;
#X connect 8 0 1 0;
#X connect 8 1 3 0;
#X connect 9 0 12 0;
#X connect 9 0 13 0;
#X connect 9 0 6 0;
#X connect 9 1 11 0;
#X connect 11 0 10 0;
#X restore 61 430 pd \$0-\$1-mute-display;
#N canvas 366 190 450 300 \$0-\$1-tuning-display 0;
#X obj 52 18 inlet;
#X obj 117 105 \$0;
#X obj 60 221 s;
#X msg 61 198 label \$1;
#X obj 59 175 l2s;
#X msg 59 152 list \$1;
#X obj 59 128 l2s;
#X msg 116 128 symbol \$1-out-tuning-recv;
#X obj 56 64 t f b f;
#N canvas 295 277 450 300 \$0-send-out-tuning 0;
#X obj 104 103 pack f \$1 f;
#X obj 95 53 inlet;
#X obj 96 79 t f;
#X msg 105 134 set_tuning \$3 \$1 \$2;
#X obj 177 78 r \$0-\$1-at-selseq;
#X obj 104 158 s \$0-\$1-tocntrl-out;
#X connect 0 0 3 0;
#X connect 1 0 2 0;
#X connect 2 0 0 0;
#X connect 3 0 5 0;
#X connect 4 0 0 2;
#X restore 147 230 pd \$0-send-out-tuning;
#X obj 246 77 inlet;
#N canvas 104 104 450 300 \$0-waituntilchanged 0;
#X obj 39 35 inlet;
#X obj 39 157 outlet;
#X obj 39 111 spigot 0;
#X obj 92 88 tgl 19 0 empty empty empty 0 -10 0 12 #fcfcfc #000000 #000000 0 1;
#X obj 92 66 r \$0-\$1-waitforsequence-change;
#X obj 39 70 t a;
#X obj 39 134 t a;
#X connect 0 0 5 0;
#X connect 2 0 6 0;
#X connect 3 0 2 1;
#X connect 4 0 3 0;
#X connect 5 0 2 0;
#X connect 6 0 1 0;
#X restore 207 168 pd \$0-waituntilchanged;
#X connect 0 0 8 0;
#X connect 1 0 7 0;
#X connect 3 0 2 0;
#X connect 4 0 3 0;
#X connect 5 0 4 0;
#X connect 6 0 5 0;
#X connect 7 0 2 1;
#X connect 8 0 6 0;
#X connect 8 1 1 0;
#X connect 10 0 11 0;
#X connect 11 0 9 0;
#X restore 50 547 pd \$0-\$1-tuning-display;
#N canvas 154 158 450 300 \$0-\$1-midinote-display 0;
#X obj 52 18 inlet;
#X obj 118 64 \$0;
#X obj 45 183 s;
#X msg 46 160 label \$1;
#X obj 44 137 l2s;
#X msg 44 114 list \$1;
#X obj 44 90 l2s;
#X msg 101 90 symbol \$1-out-midinote-recv;
#N canvas 295 277 450 300 \$0-send-out-midinote 0;
#X obj 92 25 inlet;
#X obj 126 77 \$1;
#X obj 91 52 t f b;
#X obj 97 107 pack f f f;
#X msg 97 132 set_midinote \$2 \$3 \$1;
#X obj 163 78 r \$0-\$1-at-selseq;
#X obj 97 157 s \$0-\$1-tocntrl-out;
#X connect 0 0 2 0;
#X connect 1 0 3 1;
#X connect 2 0 3 0;
#X connect 2 1 1 0;
#X connect 3 0 4 0;
#X connect 4 0 6 0;
#X connect 5 0 3 2;
#X restore 129 153 pd \$0-send-out-midinote;
#N canvas 104 104 450 300 \$0-waituntilchanged 0;
#X obj 39 35 inlet;
#X obj 39 157 outlet;
#X obj 39 111 spigot 0;
#X obj 92 88 tgl 19 0 empty empty empty 0 -10 0 12 #fcfcfc #000000 #000000 0 1;
#X obj 39 70 t a;
#X obj 39 134 t a;
#X obj 93 66 r \$0-\$1-waitforsequence-change;
#X connect 0 0 4 0;
#X connect 2 0 5 0;
#X connect 3 0 2 1;
#X connect 4 0 2 0;
#X connect 5 0 1 0;
#X connect 6 0 3 0;
#X restore 126 127 pd \$0-waituntilchanged;
#X obj 45 51 t a b a;
#X connect 0 0 10 0;
#X connect 1 0 7 0;
#X connect 3 0 2 0;
#X connect 4 0 3 0;
#X connect 5 0 4 0;
#X connect 6 0 5 0;
#X connect 7 0 2 1;
#X connect 9 0 8 0;
#X connect 10 0 6 0;
#X connect 10 1 1 0;
#X connect 10 2 9 0;
#X restore 252 474 pd \$0-\$1-midinote-display;
#N canvas 506 223 450 300 \$0-\$1-timediv-display 0;
#X obj 52 18 inlet;
#X obj 91 228 s;
#X obj 84 121 l2s;
#X obj 52 55 t s s b;
#X msg 92 205 label \$1;
#X obj 90 182 l2s;
#X msg 90 159 list TimeDiv:\$1;
#X obj 124 114 pack f \$0;
#X obj 124 90 \$1;
#X msg 118 136 symbol \$2-\$1-timediv-display-recv;
#X connect 0 0 3 0;
#X connect 2 0 6 0;
#X connect 3 1 2 0;
#X connect 3 2 8 0;
#X connect 4 0 1 0;
#X connect 5 0 4 0;
#X connect 6 0 5 0;
#X connect 7 0 9 0;
#X connect 8 0 7 0;
#X connect 9 0 1 1;
#X restore 607 489 pd \$0-\$1-timediv-display;
#N canvas 429 320 450 300 \$0-\$1-fromnote-display 0;
#X obj 52 18 inlet;
#X obj 110 69 \$0;
#X obj 53 185 s;
#X msg 54 162 label \$1;
#X obj 52 139 l2s;
#X msg 52 116 list \$1;
#X obj 52 92 l2s;
#N canvas 295 277 450 300 \$0-send-out-fromnote 0;
#X obj 104 103 pack f \$1 f;
#X obj 95 53 inlet;
#X obj 96 79 t f;
#X msg 105 134 set_frommidi \$3 \$1 \$2;
#X obj 177 78 r \$0-\$1-at-selseq;
#X obj 104 158 s \$0-\$1-tocntrl-out;
#X connect 0 0 3 0;
#X connect 1 0 2 0;
#X connect 2 0 0 0;
#X connect 3 0 5 0;
#X connect 4 0 0 2;
#X restore 144 212 pd \$0-send-out-fromnote;
#X obj 53 53 t f b f;
#X msg 109 92 symbol \$1-out-fromnote-recv;
#N canvas 104 104 450 300 \$0-waituntilchanged 0;
#X obj 39 35 inlet;
#X obj 39 157 outlet;
#X obj 39 111 spigot 0;
#X obj 92 88 tgl 19 0 empty empty empty 0 -10 0 12 #fcfcfc #000000 #000000 0 1;
#X obj 92 66 r \$0-\$1-waitforsequence-change;
#X obj 39 70 t a;
#X obj 39 134 t a;
#X connect 0 0 5 0;
#X connect 2 0 6 0;
#X connect 3 0 2 1;
#X connect 4 0 3 0;
#X connect 5 0 2 0;
#X connect 6 0 1 0;
#X restore 136 132 pd \$0-waituntilchanged;
#X connect 0 0 8 0;
#X connect 1 0 9 0;
#X connect 3 0 2 0;
#X connect 4 0 3 0;
#X connect 5 0 4 0;
#X connect 6 0 5 0;
#X connect 8 0 6 0;
#X connect 8 1 1 0;
#X connect 8 2 10 0;
#X connect 9 0 2 1;
#X connect 10 0 7 0;
#X restore 16 641 pd \$0-\$1-fromnote-display;
#N canvas 506 223 450 300 \$0-\$1-tonote-display 0;
#X obj 52 18 inlet;
#X obj 110 69 \$0;
#X obj 53 185 s;
#X msg 54 162 label \$1;
#X obj 52 139 l2s;
#X msg 52 116 list \$1;
#X obj 52 92 l2s;
#X msg 108 92 symbol \$1-out-tonote-recv;
#X obj 53 53 t f b f;
#N canvas 295 277 450 300 \$0-send-out-tonote 0;
#X obj 104 103 pack f \$1 f;
#X obj 95 53 inlet;
#X obj 96 79 t f;
#X msg 104 134 set_tomidi \$3 \$1 \$2;
#X obj 177 78 r \$0-\$1-at-selseq;
#X obj 104 158 s \$0-\$1-tocntrl-out;
#X connect 0 0 3 0;
#X connect 1 0 2 0;
#X connect 2 0 0 0;
#X connect 3 0 5 0;
#X connect 4 0 0 2;
#X restore 133 167 pd \$0-send-out-tonote;
#N canvas 104 104 450 300 \$0-waituntilchanged 0;
#X obj 39 35 inlet;
#X obj 39 157 outlet;
#X obj 39 111 spigot 0;
#X obj 92 88 tgl 19 0 empty empty empty 0 -10 0 12 #fcfcfc #000000 #000000 0 1;
#X obj 92 66 r \$0-\$1-waitforsequence-change;
#X obj 39 70 t a;
#X obj 39 134 t a;
#X connect 0 0 5 0;
#X connect 2 0 6 0;
#X connect 3 0 2 1;
#X connect 4 0 3 0;
#X connect 5 0 2 0;
#X connect 6 0 1 0;
#X restore 136 132 pd \$0-waituntilchanged;
#X connect 0 0 8 0;
#X connect 1 0 7 0;
#X connect 3 0 2 0;
#X connect 4 0 3 0;
#X connect 5 0 4 0;
#X connect 6 0 5 0;
#X connect 7 0 2 1;
#X connect 8 0 6 0;
#X connect 8 1 1 0;
#X connect 8 2 10 0;
#X connect 10 0 9 0;
#X restore 15 616 pd \$0-\$1-tonote-display;
#N canvas 376 232 450 425 \$0-\$1-velocity-display 0;
#X obj 52 18 inlet;
#X obj 113 199 \$0;
#X obj 49 295 s;
#X msg 50 272 label \$1;
#X obj 48 249 l2s;
#X msg 50 221 list \$1;
#X obj 51 197 l2s;
#X msg 112 222 symbol \$1-out-vel-recv;
#X obj 50 172 t f b f;
#X floatatom 53 102 5 0 0 0 - - - 0;
#X obj 53 77 int;
#X floatatom 52 147 11 0 0 0 - - - 0;
#X obj 52 123 * 0.1;
#X obj 52 50 * 10;
#X obj 128 253 * 127;
#X obj 165 326 s \$0-\$1-midi-velocity;
#N canvas 295 277 450 300 \$0-send-out-velocity 0;
#X obj 89 26 inlet;
#X msg 104 134 set_vel \$3 \$1 \$2;
#X obj 156 28 t b b;
#X obj 90 52 t f b;
#X obj 141 67 \$1;
#X obj 104 103 pack f f f;
#X obj 187 65 r \$0-\$1-at-selseq;
#X obj 104 158 s \$0-\$1-tocntrl-out;
#X connect 0 0 3 0;
#X connect 1 0 7 0;
#X connect 3 0 5 0;
#X connect 3 1 4 0;
#X connect 4 0 5 1;
#X connect 5 0 1 0;
#X connect 6 0 5 2;
#X restore 131 348 pd \$0-send-out-velocity;
#N canvas 104 104 450 300 \$0-waituntilchanged 0;
#X obj 39 35 inlet;
#X obj 39 157 outlet;
#X obj 39 111 spigot 0;
#X obj 92 88 tgl 19 0 empty empty empty 0 -10 0 12 #fcfcfc #000000 #000000 0 1;
#X obj 92 66 r \$0-\$1-waitforsequence-change;
#X obj 39 70 t a;
#X obj 39 134 t a;
#X connect 0 0 5 0;
#X connect 2 0 6 0;
#X connect 3 0 2 1;
#X connect 4 0 3 0;
#X connect 5 0 2 0;
#X connect 6 0 1 0;
#X restore 132 275 pd \$0-waituntilchanged;
#X obj 129 302 t f f;
#X connect 0 0 13 0;
#X connect 1 0 7 0;
#X connect 3 0 2 0;
#X connect 4 0 3 0;
#X connect 5 0 4 0;
#X connect 6 0 5 0;
#X connect 7 0 2 1;
#X connect 8 0 6 0;
#X connect 8 1 1 0;
#X connect 8 2 14 0;
#X connect 9 0 12 0;
#X connect 10 0 9 0;
#X connect 11 0 8 0;
#X connect 12 0 11 0;
#X connect 13 0 10 0;
#X connect 14 0 17 0;
#X connect 17 0 18 0;
#X connect 18 0 16 0;
#X connect 18 1 15 0;
#X restore 40 521 pd \$0-\$1-velocity-display;
#N canvas 544 169 450 360 \$0-\$1-calctimediv 0;
#X obj 86 13 inlet;
#X floatatom 170 265 5 0 0 0 - - - 0;
#X obj 86 46 int;
#X obj 87 96 - 13;
#X obj 86 170 sel -0;
#X msg 86 218 0;
#X obj 131 196 t a;
#X obj 86 195 t b;
#X obj 86 73 t f;
#X obj 86 120 * -1;
#X obj 131 221 * 1;
#X obj 106 276 outlet;
#X obj 104 250 t f;
#X obj 86 143 t f;
#X connect 0 0 2 0;
#X connect 2 0 8 0;
#X connect 3 0 9 0;
#X connect 4 0 7 0;
#X connect 4 1 6 0;
#X connect 5 0 12 0;
#X connect 6 0 10 0;
#X connect 7 0 5 0;
#X connect 8 0 3 0;
#X connect 9 0 13 0;
#X connect 10 0 12 0;
#X connect 12 0 11 0;
#X connect 12 0 1 0;
#X connect 13 0 4 0;
#X restore 393 327 pd \$0-\$1-calctimediv;
#X obj -62 17 r \$0-\$1-defaultmute;
#X obj -75 327 r \$0-\$1-default-tuning;
#X obj -83 291 r \$0-\$1-default-fromnote;
#X obj -106 264 r \$0-\$1-default-tonote;
#X obj -93 162 r \$0-\$1-default-midinote;
#N canvas 288 67 631 817 \$0-assigndefaultsettings 0;
#X obj 53 46 t b;
#X obj 44 19 inlet;
#X msg 69 195 500;
#X msg 80 263 69;
#X msg 109 374 74;
#X msg 119 430 5;
#X msg 153 318 range 0 13;
#X msg 53 169 13;
#X msg 184 548 outline 0;
#X msg 173 520 ticks 14;
#X msg 138 476 arc 1;
#X msg 250 653 bgcolor \$1;
#X msg 281 760 arccolor \$1;
#X msg 264 678 list #00FFFF;
#X msg 263 704 fgcolor \$1;
#X msg 202 574 jump 0;
#X msg 245 627 list #808080;
#X msg 280 734 list #0000C0;
#X msg 391 688 range 0.1 0.9;
#X msg 369 607 ticks 9;
#X msg 403 741 bgcolor \$1;
#X msg 389 664 size 33;
#X msg 213 602 size 48;
#X msg 403 717 list #606060;
#X msg 382 633 arc 1;
#X obj 120 452 s \$0-\$1-default-tuning;
#X obj 108 400 s \$0-\$1-default-tonote;
#X obj 83 288 s \$0-\$1-default-fromnote;
#X obj 71 221 s \$0-\$1-default-mills;
#X obj 93 348 s \$0-\$1-default-midinote;
#X msg 96 323 69;
#X obj 386 340 s \$0-\$1-default-tunethresh;
#X msg 386 316 0.1;
#X msg 440 364 set_osctype 0;
#X msg 428 390 set_startvalue 0;
#X msg 414 443 set_toggle 0;
#X msg 418 415 set_speed 0.05;
#X obj 450 523 s \$0-\$1-to-osctoggle;
#X msg 449 498 0;
#X msg 298 786 0.7;
#X obj 473 570 s \$0-\$1-defaultmute;
#X obj 415 470 s \$0-\$1-tomfocntrl;
#X obj 419 766 s \$0-\$1-tovelknob;
#X obj 88 783 s \$0-\$1-todivknob;
#X msg 472 546 1;
#X obj 53 127 t b b b b b b b b b b b b b b b b b b b b b b b b b b b b b b;
#X obj 140 498 t a b;
#X connect 0 0 45 0;
#X connect 1 0 0 0;
#X connect 2 0 28 0;
#X connect 3 0 27 0;
#X connect 4 0 26 0;
#X connect 5 0 25 0;
#X connect 6 0 43 0;
#X connect 7 0 43 0;
#X connect 8 0 42 0;
#X connect 8 0 43 0;
#X connect 9 0 43 0;
#X connect 10 0 46 0;
#X connect 11 0 43 0;
#X connect 12 0 42 0;
#X connect 12 0 43 0;
#X connect 13 0 14 0;
#X connect 14 0 42 0;
#X connect 14 0 43 0;
#X connect 15 0 43 0;
#X connect 16 0 11 0;
#X connect 17 0 12 0;
#X connect 18 0 42 0;
#X connect 19 0 42 0;
#X connect 20 0 42 0;
#X connect 21 0 42 0;
#X connect 22 0 43 0;
#X connect 23 0 20 0;
#X connect 24 0 42 0;
#X connect 30 0 29 0;
#X connect 32 0 31 0;
#X connect 33 0 41 0;
#X connect 34 0 41 0;
#X connect 35 0 41 0;
#X connect 36 0 41 0;
#X connect 38 0 37 0;
#X connect 39 0 42 0;
#X connect 44 0 40 0;
#X connect 45 0 7 0;
#X connect 45 1 2 0;
#X connect 45 2 30 0;
#X connect 45 3 3 0;
#X connect 45 4 4 0;
#X connect 45 5 5 0;
#X connect 45 7 6 0;
#X connect 45 8 10 0;
#X connect 45 9 8 0;
#X connect 45 10 15 0;
#X connect 45 11 22 0;
#X connect 45 12 16 0;
#X connect 45 13 13 0;
#X connect 45 14 17 0;
#X connect 45 16 39 0;
#X connect 45 17 19 0;
#X connect 45 18 24 0;
#X connect 45 20 21 0;
#X connect 45 21 18 0;
#X connect 45 22 23 0;
#X connect 45 23 32 0;
#X connect 45 24 35 0;
#X connect 45 25 36 0;
#X connect 45 26 34 0;
#X connect 45 27 33 0;
#X connect 45 28 38 0;
#X connect 45 29 44 0;
#X connect 46 0 43 0;
#X connect 46 1 9 0;
#X restore 77 56 pd \$0-assigndefaultsettings;
#N canvas 135 485 450 300 \$0-send-out-timediv 0;
#X msg 104 134 set_div \$3 \$1 \$2;
#X obj 104 103 pack f \$1 f;
#X obj 107 20 inlet;
#X obj 96 79 t f;
#N canvas 104 104 450 300 \$0-waituntilchanged 0;
#X obj 39 35 inlet;
#X obj 39 157 outlet;
#X obj 39 111 spigot 0;
#X obj 92 88 tgl 19 0 empty empty empty 0 -10 0 12 #fcfcfc #000000 #000000 0 1;
#X obj 92 66 r \$0-\$1-waitforsequence-change;
#X obj 39 70 t a;
#X obj 39 134 t a;
#X connect 0 0 5 0;
#X connect 2 0 6 0;
#X connect 3 0 2 1;
#X connect 4 0 3 0;
#X connect 5 0 2 0;
#X connect 6 0 1 0;
#X restore 103 51 pd \$0-waituntilchanged;
#X obj 177 78 r \$0-\$1-at-selseq;
#X obj 104 158 s \$0-\$1-tocntrl-out;
#X connect 0 0 6 0;
#X connect 1 0 0 0;
#X connect 2 0 4 0;
#X connect 3 0 1 0;
#X connect 4 0 3 0;
#X connect 5 0 1 2;
#X restore 393 396 pd \$0-send-out-timediv;
#N canvas 295 277 450 300 \$0-send-out-customtune 0;
#X obj 104 103 pack f \$1 f;
#X obj 94 15 inlet;
#X obj 96 79 t f;
#X msg 105 134 set_customtune \$3 \$1 \$2;
#N canvas 104 104 450 300 \$0-waituntilchanged 0;
#X obj 39 35 inlet;
#X obj 39 157 outlet;
#X obj 39 111 spigot 0;
#X obj 92 88 tgl 19 0 empty empty empty 0 -10 0 12 #fcfcfc #000000 #000000 0 1;
#X obj 92 66 r \$0-\$1-waitforsequence-change;
#X obj 39 70 t a;
#X obj 39 134 t a;
#X connect 0 0 5 0;
#X connect 2 0 6 0;
#X connect 3 0 2 1;
#X connect 4 0 3 0;
#X connect 5 0 2 0;
#X connect 6 0 1 0;
#X restore 97 49 pd \$0-waituntilchanged;
#X obj 177 78 r \$0-\$1-at-selseq;
#X obj 105 158 s \$0-\$1-tocntrl-out;
#X connect 0 0 3 0;
#X connect 1 0 4 0;
#X connect 2 0 0 0;
#X connect 3 0 6 0;
#X connect 4 0 2 0;
#X connect 5 0 0 2;
#X restore 16 666 pd \$0-send-out-customtune;
#X floatatom 476 665 5 0 0 0 to\ midi - - 0;
#X floatatom 299 662 5 0 0 0 from\ midi - - 0;
#N canvas 135 485 450 300 \$0-send-out-mills 0;
#X obj 104 103 pack f \$1 f;
#X obj 89 30 inlet;
#X obj 96 79 t f;
#X msg 102 133 set_mills \$3 \$2 \$1;
#N canvas 104 104 450 300 \$0-waituntilchanged 0;
#X obj 39 35 inlet;
#X obj 39 157 outlet;
#X obj 39 111 spigot 0;
#X obj 92 88 tgl 19 0 empty empty empty 0 -10 0 12 #fcfcfc #000000 #000000 0 1;
#X obj 92 66 r \$0-\$1-waitforsequence-change;
#X obj 39 70 t a;
#X obj 39 134 t a;
#X connect 0 0 5 0;
#X connect 2 0 6 0;
#X connect 3 0 2 1;
#X connect 4 0 3 0;
#X connect 5 0 2 0;
#X connect 6 0 1 0;
#X restore 95 54 pd \$0-waituntilchanged;
#X obj 177 78 r \$0-\$1-at-selseq;
#X obj 104 158 s \$0-\$1-tocntrl-out;
#X connect 0 0 3 0;
#X connect 1 0 4 0;
#X connect 2 0 0 0;
#X connect 3 0 6 0;
#X connect 4 0 2 0;
#X connect 5 0 0 2;
#X restore 563 514 pd \$0-send-out-mills;
#X obj 1017 344 t b f;
#X obj 1017 368 f;
#N canvas 154 158 450 300 \$0-\$1-mthresh-display 0;
#X obj 102 60 inlet;
#X obj 98 83 t f b f, f 8;
#N canvas 269 461 450 300 \$0-send-out-mthresh 0;
#X obj 104 103 pack f \$1 f;
#X obj 95 53 inlet;
#X msg 105 134 set_threshold \$3 \$1 \$2;
#X obj 177 78 r \$0-\$1-at-selseq;
#X obj 104 158 s \$0-\$1-tocntrl-out;
#X obj 98 196 s \$0-\$1-fromtothreshold;
#X obj 96 79 t f f;
#X connect 0 0 2 0;
#X connect 1 0 6 0;
#X connect 2 0 4 0;
#X connect 3 0 0 2;
#X connect 6 0 0 0;
#X connect 6 1 5 0;
#X restore 151 146 pd \$0-send-out-mthresh;
#N canvas 104 104 450 300 \$0-waituntilchanged 0;
#X obj 39 35 inlet;
#X obj 39 157 outlet;
#X obj 39 111 spigot 0;
#X obj 92 88 tgl 19 0 empty empty empty 0 -10 0 12 #fcfcfc #000000 #000000 0 1;
#X obj 92 66 r \$0-\$1-waitforsequence-change;
#X obj 39 70 t a;
#X obj 39 134 t a;
#X connect 0 0 5 0;
#X connect 2 0 6 0;
#X connect 3 0 2 1;
#X connect 4 0 3 0;
#X connect 5 0 2 0;
#X connect 6 0 1 0;
#X restore 151 113 pd \$0-waituntilchanged;
#X connect 0 0 1 0;
#X connect 1 2 3 0;
#X connect 3 0 2 0;
#X restore 16 691 pd \$0-\$1-mthresh-display;
#X obj 347 424 f;
#X obj 348 450 t f;
#X obj 358 215 del 10;
#X obj 564 388 f;
#X obj 358 187 t b f f;
#X obj 395 369 t f f f b;
#X msg 874 87 set_startvalue \$1;
#X msg 1012 89 set_osctype \$1;
#X msg 1013 40 set_speed \$1;
#X msg 874 61 set_value \$1;
#X msg 873 34 set_toggle \$1;
#N canvas 293 6 610 710 \$0-mfotogglehandler 0;
#X obj 102 102 tgl 12 0 empty empty empty 17 7 0 10 #606060 #000000 #dcdcdc 0 1;
#X obj 100 100 cnv 16 16 16 empty empty empty 20 12 0 14 #202020 #404040 0;
#X obj 103 103 cnv 10 10 10 \$0-mfotoggle-send \$0-mfotoggle-recv empty 20 12 0 14 #28f4f4 #404040 0;
#X obj 163 670 s;
#X obj 171 442 f;
#X obj 171 420 t b f;
#X obj 100 206 spigot 0;
#X obj 145 162 tgl 15 0 empty empty empty 17 7 0 10 #fcfcfc #000000 #000000 0 1;
#X obj 145 139 change;
#X obj 145 116 == 0;
#X obj 216 372 tgl 15 0 empty empty empty 17 7 0 10 #fcfcfc #000000 #000000 0 1;
#X obj 171 345 change;
#X obj 171 395 spigot 0;
#X obj 171 322 == 0;
#X obj 171 366 t b f;
#X obj 171 462 t b b;
#X obj 73 424 s;
#X obj 100 251 f;
#X obj 100 229 t b f;
#X obj 100 271 t b b;
#X msg 169 551 color 16;
#X obj 145 184 t f f;
#X obj 56 129 tgl 15 0 empty empty empty 17 7 0 10 #fcfcfc #000000 #000000 0 1;
#X obj 55 150 t f b f;
#X obj 51 39 inlet;
#X obj 256 22 loadbang;
#X msg 144 94 0;
#X msg 27 464 color \$1;
#X floatatom 25 438 5 0 0 0 - - - 0;
#X obj 181 640 symbol;
#X obj 258 175 t b s;
#X msg 203 507 bang;
#X msg 218 260 bang;
#X msg 259 261 \$1;
#X obj 219 281 f;
#X msg 53 365 color \$1;
#X obj 297 407 == 16;
#X obj 297 430 change;
#X obj 297 452 == 0;
#X obj 297 475 t b;
#X obj 297 499 bng 15 250 50 0 empty empty empty 17 7 0 10 #fcfcfc #000000 #000000;
#X obj 297 518 tgl 15 0 empty empty empty 17 7 0 10 #fcfcfc #000000 #000000 0 1;
#X obj 245 539 spigot 0;
#X obj 398 481 change;
#X obj 398 528 t b;
#X obj 398 554 bng 15 250 50 0 empty empty empty 17 7 0 10 #fcfcfc #000000 #000000;
#X obj 398 575 tgl 15 0 empty empty empty 17 7 0 10 #fcfcfc #000000 #000000 0 1;
#X obj 351 596 spigot 0;
#X obj 398 503 == 1;
#X obj 398 458 != 16;
#X msg 245 563 color 13;
#X obj 141 75 t b b;
#X obj 194 232 t b b f;
#X obj 297 382 r \$0-NewUiColorColorNum;
#X obj 398 434 r \$0-NewUiColorColorNum;
#X obj 256 47 \$0;
#X msg 256 73 \$1;
#X floatatom 256 97 5 0 0 0 - - - 0;
#X obj 62 626 outlet;
#X obj 193 211 r \$0-NewUiColorColorNum;
#X obj 303 51 t b;
#X obj 302 100 s \$0-NewUiColorColorNum;
#X msg 303 76 17;
#X obj 257 123 t f;
#X msg 256 149 symbol \$1-mfotoggle-recv;
#X connect 0 0 22 0;
#X connect 4 0 15 0;
#X connect 5 0 4 0;
#X connect 5 1 4 1;
#X connect 6 0 18 0;
#X connect 7 0 21 0;
#X connect 8 0 7 0;
#X connect 9 0 8 0;
#X connect 10 0 12 1;
#X connect 11 0 14 0;
#X connect 12 0 5 0;
#X connect 13 0 11 0;
#X connect 14 0 12 0;
#X connect 14 1 10 0;
#X connect 15 0 20 0;
#X connect 15 0 42 0;
#X connect 15 1 31 0;
#X connect 17 0 19 0;
#X connect 18 0 17 0;
#X connect 18 1 17 1;
#X connect 19 0 32 0;
#X connect 19 1 31 0;
#X connect 20 0 47 0;
#X connect 21 0 6 1;
#X connect 21 1 13 0;
#X connect 22 0 23 0;
#X connect 23 0 58 0;
#X connect 23 1 6 0;
#X connect 23 2 9 0;
#X connect 24 0 22 0;
#X connect 25 0 51 0;
#X connect 25 0 55 0;
#X connect 25 0 60 0;
#X connect 26 0 9 0;
#X connect 26 0 22 0;
#X connect 27 0 16 0;
#X connect 28 0 27 0;
#X connect 29 0 16 1;
#X connect 29 0 3 1;
#X connect 30 0 31 0;
#X connect 30 1 29 1;
#X connect 31 0 29 0;
#X connect 32 0 34 0;
#X connect 33 0 34 1;
#X connect 34 0 35 0;
#X connect 35 0 16 0;
#X connect 36 0 37 0;
#X connect 37 0 38 0;
#X connect 38 0 39 0;
#X connect 39 0 40 0;
#X connect 40 0 41 0;
#X connect 41 0 42 1;
#X connect 42 0 50 0;
#X connect 43 0 48 0;
#X connect 44 0 45 0;
#X connect 45 0 46 0;
#X connect 46 0 47 1;
#X connect 47 0 3 0;
#X connect 48 0 44 0;
#X connect 49 0 43 0;
#X connect 50 0 3 0;
#X connect 51 0 26 0;
#X connect 51 1 26 0;
#X connect 52 0 12 0;
#X connect 52 1 32 0;
#X connect 52 2 33 0;
#X connect 53 0 36 0;
#X connect 54 0 49 0;
#X connect 55 0 56 0;
#X connect 56 0 57 0;
#X connect 57 0 63 0;
#X connect 59 0 52 0;
#X connect 60 0 62 0;
#X connect 62 0 61 0;
#X connect 63 0 64 0;
#X connect 64 0 30 0;
#X coords 0 -1 1 1 16 16 2 100 100;
#X restore 102 210 pd \$0-mfotogglehandler;
#X obj 1045 732 tgl 19 0 empty empty empty 0 -10 0 12 #fcfcfc #000000 #000000 0 1;
#X floatatom 1113 735 5 0 0 0 - - - 0;
#X floatatom 1179 733 5 0 0 0 - - - 0;
#X floatatom 1251 732 5 0 0 0 - - - 0;
#X obj 1016 269 t b f;
#X obj 1016 294 f;
#X obj 1016 318 s \$0-\$1-oscspeed;
#X obj 1012 18 r \$0-\$1-oscspeed;
#X obj 873 12 r \$0-\$1-osctoggle;
#X obj 1016 193 t b f;
#X obj 1016 218 f;
#X obj 1016 242 s \$0-\$1-osctype;
#X obj 1013 65 r \$0-\$1-osctype;
#X obj 210 207 r \$0-\$1-to-osctoggle;
#X obj 1017 392 s \$0-\$1-to-osctoggle;
#X obj 383 589 s \$0-\$1-osctoggle;
#N canvas 295 277 450 300 \$0-send-out-osctoggle 0;
#X obj 104 103 pack f \$1 f;
#X obj 95 53 inlet;
#X obj 96 79 t f;
#X msg 106 134 set_mfostate \$3 \$1 \$2;
#X obj 177 78 r \$0-\$1-at-selseq;
#X obj 104 158 s \$0-\$1-tocntrl-out;
#X connect 0 0 3 0;
#X connect 1 0 2 0;
#X connect 2 0 0 0;
#X connect 3 0 5 0;
#X connect 4 0 0 2;
#X restore 1087 866 pd \$0-send-out-osctoggle;
#N canvas 295 277 450 300 \$0-send-out-osctype 0;
#X obj 104 103 pack f \$1 f;
#X obj 95 53 inlet;
#X obj 96 79 t f;
#X msg 106 134 set_mfoosc \$3 \$1 \$2;
#X obj 178 78 r \$0-\$1-at-selseq;
#X obj 104 158 s \$0-\$1-tocntrl-out;
#X connect 0 0 3 0;
#X connect 1 0 2 0;
#X connect 2 0 0 0;
#X connect 3 0 5 0;
#X connect 4 0 0 2;
#X restore 1104 842 pd \$0-send-out-osctype;
#N canvas 295 277 450 300 \$0-send-out-speed 0;
#X obj 104 103 pack f \$1 f;
#X obj 95 53 inlet;
#X obj 96 79 t f;
#X msg 106 134 set_mfospeed \$3 \$1 \$2;
#X obj 177 77 r \$0-\$1-at-selseq;
#X obj 104 158 s \$0-\$1-tocntrl-out;
#X connect 0 0 3 0;
#X connect 1 0 2 0;
#X connect 2 0 0 0;
#X connect 3 0 5 0;
#X connect 4 0 0 2;
#X restore 1129 817 pd \$0-send-out-speed;
#N canvas 295 277 450 300 \$0-send-out-oscvalue 0;
#X obj 104 103 pack f \$1 f;
#X obj 95 53 inlet;
#X obj 96 79 t f;
#X msg 106 134 set_mfovalue \$3 \$1 \$2;
#X obj 177 78 r \$0-\$1-at-selseq;
#X obj 105 157 s \$0-\$1-tocntrl-out;
#X connect 0 0 3 0;
#X connect 1 0 2 0;
#X connect 2 0 0 0;
#X connect 3 0 5 0;
#X connect 4 0 0 2;
#X restore 1165 793 pd \$0-send-out-oscvalue;
#X obj 1045 708 route activestatus osctype speed value startvalue;
#N canvas 81 331 450 300 \$0-send-out-oscstartvalue 0;
#X obj 104 103 pack f \$1 f;
#X obj 95 53 inlet;
#X obj 96 79 t f;
#X msg 106 134 set_mfostartvalue \$3 \$1 \$2;
#X obj 177 78 r \$0-\$1-at-selseq;
#X obj 104 158 s \$0-\$1-tocntrl-out;
#X connect 0 0 3 0;
#X connect 1 0 2 0;
#X connect 2 0 0 0;
#X connect 3 0 5 0;
#X connect 4 0 0 2;
#X restore 1195 768 pd \$0-send-out-oscstartvalue;
#X floatatom 1318 732 5 0 0 0 - - - 0;
#X obj 1045 756 t f;
#X obj 383 541 s \$0-\$1-from-mfo;
#X obj 1045 684 r \$0-\$1-from-mfo;
#X obj 387 301 int;
#N canvas 628 90 670 509 \$0-applydefaultafterclear 0;
#X obj 51 54 inlet;
#X msg 158 308 13;
#X obj 83 384 s \$0-\$1-defaultmute;
#X obj 41 409 s \$0-\$1-default-midinote;
#X msg 117 328 0.7;
#X msg 41 382 69;
#X obj 198 304 s \$0-\$1-to-osctoggle;
#X msg 198 279 0;
#X msg 274 168 set_osctype 0;
#X msg 262 194 set_startvalue 0;
#X msg 248 247 set_toggle 0;
#X obj 288 142 s \$0-\$1-default-tuning;
#X obj 370 74 s \$0-\$1-default-fromnote;
#X obj 333 106 s \$0-\$1-default-tonote;
#X msg 291 115 5;
#X msg 252 219 set_speed 0.05;
#X obj 431 207 s \$0-\$1-default-tunethresh;
#X msg 431 183 0.1;
#X obj 50 81 t b b b b b b b b b b b b b;
#X obj 118 360 s \$0-\$1-tovelknob;
#X obj 155 333 s \$0-\$1-todivknob;
#X obj 249 274 s \$0-\$1-tomfocntrl;
#X msg 369 50 70;
#X msg 333 83 75;
#X msg 82 359 0;
#X connect 0 0 18 0;
#X connect 1 0 20 0;
#X connect 4 0 19 0;
#X connect 5 0 3 0;
#X connect 7 0 6 0;
#X connect 8 0 21 0;
#X connect 9 0 21 0;
#X connect 10 0 21 0;
#X connect 14 0 11 0;
#X connect 15 0 21 0;
#X connect 17 0 16 0;
#X connect 18 0 5 0;
#X connect 18 1 24 0;
#X connect 18 2 4 0;
#X connect 18 3 1 0;
#X connect 18 4 7 0;
#X connect 18 5 10 0;
#X connect 18 6 15 0;
#X connect 18 7 9 0;
#X connect 18 8 8 0;
#X connect 18 9 14 0;
#X connect 18 10 23 0;
#X connect 18 11 22 0;
#X connect 18 12 17 0;
#X connect 22 0 12 0;
#X connect 23 0 13 0;
#X connect 24 0 2 0;
#X restore 782 230 pd \$0-applydefaultafterclear;
#X obj -90 187 r \$0-\$1-default-tunethresh;
#X obj 1117 196 t b a;
#N canvas 104 104 450 300 \$0-waituntilchanged 0;
#X obj 39 35 inlet;
#X obj 39 157 outlet;
#X obj 39 111 spigot 0;
#X obj 92 88 tgl 19 0 empty empty empty 0 -10 0 12 #fcfcfc #000000 #000000 0 1;
#X obj 92 66 r \$0-\$1-waitforsequence-change;
#X obj 39 70 t a;
#X obj 39 134 t a;
#X connect 0 0 5 0;
#X connect 2 0 6 0;
#X connect 3 0 2 1;
#X connect 4 0 3 0;
#X connect 5 0 2 0;
#X connect 6 0 1 0;
#X restore 389 277 pd \$0-waituntilchanged;
#N canvas 104 104 450 300 \$0-waituntilchanged 0;
#X obj 39 35 inlet;
#X obj 39 157 outlet;
#X obj 39 111 spigot 0;
#X obj 92 88 tgl 19 0 empty empty empty 0 -10 0 12 #fcfcfc #000000 #000000 0 1;
#X obj 92 66 r \$0-\$1-waitforsequence-change;
#X obj 39 70 t a;
#X obj 39 134 t a;
#X connect 0 0 5 0;
#X connect 2 0 6 0;
#X connect 3 0 2 1;
#X connect 4 0 3 0;
#X connect 5 0 2 0;
#X connect 6 0 1 0;
#X restore 383 565 pd \$0-waituntilchanged;
#N canvas 104 104 450 300 \$0-waituntilchanged 0;
#X obj 39 35 inlet;
#X obj 39 157 outlet;
#X obj 39 111 spigot 0;
#X obj 92 88 tgl 19 0 empty empty empty 0 -10 0 12 #fcfcfc #000000 #000000 0 1;
#X obj 92 66 r \$0-\$1-waitforsequence-change;
#X obj 39 70 t a;
#X obj 39 134 t a;
#X connect 0 0 5 0;
#X connect 2 0 6 0;
#X connect 3 0 2 1;
#X connect 4 0 3 0;
#X connect 5 0 2 0;
#X connect 6 0 1 0;
#X restore 383 517 pd \$0-waituntilchanged;
#X obj 1169 105 t b f;
#X obj 1169 130 f;
#N canvas 94 402 685 420 \$0-\$1-calctimediv 0;
#X obj 211 12 inlet;
#X floatatom 115 72 5 0 0 0 - - - 0;
#X obj 211 35 int;
#X obj 81 98 - 13;
#X obj 82 192 sel -0;
#X obj 126 215 t a;
#X obj 82 220 t b;
#X floatatom 82 267 5 0 0 0 - - - 0;
#X obj 81 74 t f;
#X obj 81 145 * -1;
#X obj 126 240 * 1;
#X obj 306 374 outlet;
#X obj 82 168 t f;
#X obj 129 263 t f;
#X msg 82 242 13;
#X obj 81 121 t f;
#X obj 222 73 sel 0 1 2 3 4 5 6 7 8 9 10 11 12 13;
#X msg 231 123 13;
#X msg 244 147 12;
#X msg 259 169 11;
#X msg 268 187 10;
#X msg 287 218 9;
#X msg 286 245 8;
#X msg 296 276 7;
#X msg 298 302 6;
#X msg 306 326 5;
#X msg 347 315 4;
#X msg 384 313 3;
#X msg 421 304 2;
#X msg 455 305 1;
#X msg 492 309 0;
#X connect 0 0 2 0;
#X connect 2 0 8 0;
#X connect 2 0 1 0;
#X connect 3 0 15 0;
#X connect 4 0 6 0;
#X connect 4 1 5 0;
#X connect 5 0 10 0;
#X connect 6 0 14 0;
#X connect 7 0 11 0;
#X connect 8 0 3 0;
#X connect 9 0 12 0;
#X connect 10 0 13 0;
#X connect 12 0 4 0;
#X connect 13 0 7 0;
#X connect 14 0 7 0;
#X connect 15 0 9 0;
#X connect 16 0 17 0;
#X connect 16 1 18 0;
#X connect 16 2 19 0;
#X connect 16 3 20 0;
#X connect 16 4 21 0;
#X connect 16 5 22 0;
#X connect 16 6 23 0;
#X connect 16 7 24 0;
#X connect 16 8 25 0;
#X connect 16 9 26 0;
#X connect 16 10 27 0;
#X connect 16 11 28 0;
#X connect 16 12 29 0;
#X connect 16 13 30 0;
#X connect 17 0 11 0;
#X connect 18 0 11 0;
#X connect 19 0 11 0;
#X connect 20 0 11 0;
#X connect 21 0 11 0;
#X connect 22 0 11 0;
#X connect 23 0 11 0;
#X connect 24 0 11 0;
#X connect 25 0 11 0;
#X connect 26 0 11 0;
#X connect 27 0 11 0;
#X connect 28 0 11 0;
#X connect 29 0 11 0;
#X connect 30 0 11 0;
#X restore 1262 340 pd \$0-\$1-calctimediv;
#X obj 1230 316 t b f;
#X obj 1230 338 f;
#X obj 1341 269 / 126;
#X obj 216 31 t b a;
#X floatatom 1252 285 5 0 0 0 - - - 0;
#X obj 1169 156 s \$0-\$1-waitforsequence-change;
#X obj -77 104 r \$0-\$1-tomfocntrl;
#X obj 922 118 s \$0-\$1-tomfocntrl;
#X obj 1019 624 s \$0-\$1-tovelknob;
#X obj 57 75 r \$0-\$1-tovelknob;
#X obj 1261 364 s \$0-\$1-todivknob;
#X obj 253 2 r \$0-\$1-todivknob;
#X obj 1019 467 s \$0-\$1-at-selseq;
#X obj 510 56 r \$0-\$1-tocntrl-out;
#X obj 1341 292 s \$0-\$1-tovelknob;
#X obj 1480 417 s \$0-\$1-osctype;
#X obj 1516 360 s \$0-\$1-oscspeed;
#X obj 823 287 t b f;
#X obj 825 313 f;
#X obj 826 335 t f;
#X obj 1307 468 s \$0-\$1-to-osctoggle;
#X floatatom 1425 379 5 0 0 0 - - - 0;
#X floatatom 562 765 5 0 0 0 - - - 0;
#X floatatom 1477 263 5 0 0 0 - - - 0;
#X floatatom 1318 249 5 0 0 0 - - - 0;
#X obj 100 320 cnv 14 100 15 empty empty Threshold 3 6 0 10 #404040 #bbbbbb 0;
#X obj 164 321 hsl 30 10 0.1 1.5 0 0 empty empty empty -2 -8 0 10 #131255 #00faff #ffffff 0 1;
#X obj 812 467 t b f;
#X obj 812 492 f;
#X obj 812 516 s \$0-\$1-mutestep;
#X obj 228 114 r \$0-\$1-mutestep;
#X obj 317 145 route millsperbeat set_div set_midinote set_frommidi set_tomidi set_tuning set_vel midi set_selseq set_mfostate set_oscspeed set_osctype clear_seq populate_step wait_rdy set_threshold set_mute, f 103;
#X msg -53 134 set_osctype 0;
#X floatatom 1155 79 5 0 0 0 - - - 0;
#X obj -63 41 t f;
#X floatatom 848 541 5 0 0 0 - - - 0;
#X floatatom 242 168 5 0 0 0 - - - 0;
#X floatatom 645 301 5 0 0 0 - - - 0;
#X obj 792 395 sel 0 1;
#X obj 790 424 t b;
#X obj 823 425 t b;
#X floatatom 288 360 5 0 0 0 - - - 0;
#X obj 782 549 bng 19 250 50 0 empty empty empty 0 -10 0 12 #fcfcfc #000000 #000000;
#X obj 418 -11 unpack f f f f f f f f f f f f f f;
#X obj 120 469 + 1;
#X connect 0 0 1 0;
#X connect 0 1 65 0;
#X connect 0 2 27 0;
#X connect 1 0 80 0;
#X connect 2 0 89 0;
#X connect 3 0 0 0;
#X connect 4 0 163 0;
#X connect 6 0 7 0;
#X connect 6 1 7 1;
#X connect 7 0 8 0;
#X connect 8 0 69 0;
#X connect 12 0 75 0;
#X connect 13 0 64 0;
#X connect 15 0 67 0;
#X connect 16 0 66 0;
#X connect 18 0 19 0;
#X connect 18 1 19 1;
#X connect 19 0 20 0;
#X connect 20 0 13 0;
#X connect 21 0 22 0;
#X connect 21 1 22 1;
#X connect 22 0 23 0;
#X connect 23 0 16 0;
#X connect 24 0 25 0;
#X connect 24 1 25 1;
#X connect 25 0 26 0;
#X connect 26 0 15 0;
#X connect 30 0 31 3;
#X connect 31 1 40 0;
#X connect 32 0 30 0;
#X connect 34 0 36 3;
#X connect 35 0 154 0;
#X connect 35 0 36 2;
#X connect 37 0 34 0;
#X connect 39 0 176 0;
#X connect 40 0 63 0;
#X connect 40 0 77 0;
#X connect 42 0 43 0;
#X connect 42 1 43 1;
#X connect 43 0 44 0;
#X connect 44 0 39 0;
#X connect 48 0 126 0;
#X connect 51 0 68 0;
#X connect 52 0 62 0;
#X connect 52 0 173 0;
#X connect 54 0 55 0;
#X connect 54 1 55 1;
#X connect 55 0 56 0;
#X connect 56 0 140 0;
#X connect 57 4 128 0;
#X connect 58 0 59 0;
#X connect 60 0 61 0;
#X connect 60 1 61 1;
#X connect 61 0 144 0;
#X connect 69 0 2 0;
#X connect 70 0 166 0;
#X connect 71 0 39 0;
#X connect 72 0 16 0;
#X connect 73 0 15 0;
#X connect 74 0 13 0;
#X connect 78 0 37 0;
#X connect 79 0 32 0;
#X connect 81 0 82 0;
#X connect 81 1 82 1;
#X connect 82 0 110 0;
#X connect 84 0 85 0;
#X connect 85 0 69 0;
#X connect 86 0 84 0;
#X connect 87 0 3 0;
#X connect 88 0 86 0;
#X connect 88 2 87 1;
#X connect 89 0 76 0;
#X connect 89 1 0 1;
#X connect 89 2 84 1;
#X connect 89 3 87 0;
#X connect 90 0 139 0;
#X connect 91 0 139 0;
#X connect 92 0 139 0;
#X connect 93 0 139 0;
#X connect 94 0 139 0;
#X connect 95 0 127 0;
#X connect 96 0 119 0;
#X connect 97 0 113 0;
#X connect 98 0 114 0;
#X connect 99 0 115 0;
#X connect 100 0 101 0;
#X connect 100 1 101 1;
#X connect 101 0 102 0;
#X connect 103 0 92 0;
#X connect 104 0 94 0;
#X connect 105 0 106 0;
#X connect 105 1 106 1;
#X connect 106 0 107 0;
#X connect 108 0 91 0;
#X connect 108 0 165 0;
#X connect 109 0 95 0;
#X connect 116 0 96 0;
#X connect 116 1 97 0;
#X connect 116 2 98 0;
#X connect 116 3 99 0;
#X connect 116 4 118 0;
#X connect 118 0 117 0;
#X connect 119 0 112 0;
#X connect 121 0 116 0;
#X connect 122 0 69 0;
#X connect 124 0 158 0;
#X connect 125 1 175 0;
#X connect 126 0 122 0;
#X connect 127 0 111 0;
#X connect 128 0 120 0;
#X connect 129 0 130 0;
#X connect 129 1 130 1;
#X connect 130 0 137 0;
#X connect 131 0 142 0;
#X connect 132 0 133 0;
#X connect 132 1 131 0;
#X connect 134 0 146 0;
#X connect 135 0 48 0;
#X connect 135 1 48 0;
#X connect 138 0 57 0;
#X connect 141 0 51 0;
#X connect 143 0 135 0;
#X connect 145 0 5 0;
#X connect 149 0 150 0;
#X connect 149 1 150 1;
#X connect 150 0 151 0;
#X connect 151 0 158 0;
#X connect 158 0 35 0;
#X connect 158 0 83 0;
#X connect 158 0 31 2;
#X connect 159 0 160 0;
#X connect 159 0 174 0;
#X connect 159 1 160 1;
#X connect 159 1 167 0;
#X connect 160 0 161 0;
#X connect 162 0 52 0;
#X connect 162 0 168 0;
#X connect 163 0 88 0;
#X connect 163 1 6 0;
#X connect 163 2 18 0;
#X connect 163 3 21 0;
#X connect 163 4 24 0;
#X connect 163 5 42 0;
#X connect 163 6 54 0;
#X connect 163 7 58 0;
#X connect 163 8 60 0;
#X connect 163 9 81 0;
#X connect 163 10 100 0;
#X connect 163 11 105 0;
#X connect 163 12 123 0;
#X connect 163 13 125 0;
#X connect 163 14 129 0;
#X connect 163 15 149 0;
#X connect 163 16 159 0;
#X connect 164 0 57 0;
#X connect 166 0 52 0;
#X connect 170 0 171 0;
#X connect 170 1 172 0;
#X connect 175 1 133 1;
#X connect 175 2 132 0;
#X connect 175 3 13 0;
#X connect 175 3 136 0;
#X connect 175 4 16 0;
#X connect 175 5 15 0;
#X connect 175 6 39 0;
#X connect 175 7 40 0;
#X connect 175 8 156 0;
#X connect 175 9 134 0;
#X connect 175 10 152 0;
#X connect 175 11 147 0;
#X connect 175 11 153 0;
#X connect 175 13 169 0;
#X connect 175 13 148 0;
#X connect 175 13 52 0;
#X connect 176 0 31 0;
#X connect 176 0 36 0;
#X connect 176 0 63 1;
#X coords 0 -1 1 1 100 235 2 100 100;
