#N struct 1709-bang float c float bc float w float z float x float y symbol text;
#N struct 0-g1 float x float y float q;
#N canvas 593 47 1246 904 12;
#X obj 100 100 cnv 19 100 65 empty empty empty 20 12 0 12 #7c7c7c #404040 0;
#X msg 325 98 size 25;
#X msg 315 121 arc 1;
#X msg 247 204 range 0 \$1;
#X msg 272 175 set_maxvel \$1;
#X msg 228 -5 127;
#X msg 294 147 set_maxdb 20;
#X obj 537 561 f;
#X obj 218 613 r \$0-\$1-seq-totalsteps;
#X obj 520 34 inlet;
#X obj 600 381 t b f;
#X obj 600 406 f;
#X obj 600 430 s \$0-\$1-seq-triggerstep;
#X obj 663 281 t b f;
#X obj 663 306 f;
#X obj 665 329 s \$0-\$1-seq-mbb;
#X obj 365 62 s \$0-maxmidivelocity;
#X obj 49 314 r \$0-\$1-steptopos;
#N canvas 108 33 450 499 \$0-steptoposition-handler 0;
#X obj 91 25 r \$0-\$1-seq-triggerstep;
#X obj 92 48 t b f;
#X obj 93 74 f;
#X obj 95 243 line;
#X obj 95 195 pack f f f f;
#X obj 177 146 r \$0-\$1-seq-posres;
#X msg 179 171 50;
#X obj 146 125 r \$0-\$1-seq-mbb;
#X obj 122 162 + 1;
#X obj 92 124 t f f;
#X msg 95 218 \$1 \, \$2 \$3 \$4;
#X obj 95 291 * 127;
#X obj 95 266 / 8;
#X obj 127 263 r \$0-\$1-seq-totalsteps;
#X obj 96 315 / 16;
#X obj 135 318 r \$0-\$1-seq-totalsteps;
#X obj 135 342 * 2;
#X obj 140 292 r \$0-maxmidivelocity;
#X obj 137 96 s \$0-\$1-bngposonstep;
#X obj 92 97 t f b;
#X obj 96 364 s \$0-\$1-steptopos;
#X floatatom 34 227 5 0 0 0 - - - 0;
#X msg 40 414 triggerstep \$1;
#X obj 118 450 s \$0-nextsteptrigger;
#X floatatom 247 366 5 0 0 0 - - - 0;
#X floatatom 220 192 5 0 0 0 - - - 0;
#X connect 0 0 1 0;
#X connect 1 0 2 0;
#X connect 1 1 2 1;
#X connect 2 0 19 0;
#X connect 2 0 21 0;
#X connect 3 0 12 0;
#X connect 4 0 10 0;
#X connect 5 0 6 0;
#X connect 6 0 4 3;
#X connect 7 0 4 2;
#X connect 7 0 25 0;
#X connect 8 0 4 1;
#X connect 9 0 4 0;
#X connect 9 1 8 0;
#X connect 10 0 3 0;
#X connect 11 0 14 0;
#X connect 12 0 11 0;
#X connect 13 0 12 1;
#X connect 14 0 20 0;
#X connect 15 0 16 0;
#X connect 15 0 24 0;
#X connect 16 0 14 1;
#X connect 17 0 11 1;
#X connect 19 0 9 0;
#X connect 19 1 18 0;
#X connect 21 0 22 0;
#X connect 22 0 23 0;
#X restore 599 454 pd \$0-steptoposition-handler;
#X obj 64 615 outlet;
#X obj 65 374 r \$0-toqueue-out;
#X obj 232 526 \$1;
#X obj 234 503 t b;
#X msg 22 147 0.7;
#X floatatom 24 196 5 0 0 0 - - - 0;
#X obj 25 171 * 127;
#N canvas 306 448 450 300 \$0-updatedisplay-solo 0;
#X obj 77 36 inlet;
#X obj 275 273 \$0;
#X obj 255 323 s;
#X obj 235 255 t a b;
#X msg 276 297 symbol \$1-seqsolostate-recv;
#X obj 213 171 sel 0;
#X obj 75 194 s \$0-toqueue-out;
#X obj 128 115 \$1;
#X obj 74 139 pack f f;
#X obj 74 89 t f b f;
#X msg 76 166 set_seqsolo \$2 \$1;
#X msg 212 198 color 58 58 10;
#X msg 235 225 color 13 13 10;
#X connect 0 0 9 0;
#X connect 1 0 4 0;
#X connect 3 0 2 0;
#X connect 3 1 1 0;
#X connect 4 0 2 1;
#X connect 5 0 11 0;
#X connect 5 1 12 0;
#X connect 7 0 8 1;
#X connect 8 0 10 0;
#X connect 9 0 8 0;
#X connect 9 1 7 0;
#X connect 9 2 5 0;
#X connect 10 0 6 0;
#X connect 11 0 3 0;
#X connect 12 0 3 0;
#X restore 217 285 pd \$0-updatedisplay-solo;
#N canvas 128 128 450 300 \$0-updatedisplay-vel 0;
#X obj 55 14 inlet;
#X obj 55 47 ce_veltodb;
#X floatatom 54 70 6 0 0 0 - - - 0;
#X floatatom 121 70 6 0 0 0 - - - 0;
#X msg 53 163 set_seqvel \$2 \$1;
#X obj 53 188 s \$0-toqueue-out;
#X obj 108 116 \$1;
#X obj 54 140 pack f f;
#X obj 225 181 \$0;
#X obj 184 205 s;
#X obj 194 158 t a b;
#X msg 196 132 label \$1;
#X obj 195 106 l2s;
#X obj 54 94 t f b f;
#X msg 222 209 symbol \$1-vel-queuedisplay-recv;
#X connect 0 0 1 0;
#X connect 1 0 2 0;
#X connect 1 1 3 0;
#X connect 2 0 13 0;
#X connect 4 0 5 0;
#X connect 6 0 7 1;
#X connect 7 0 4 0;
#X connect 8 0 14 0;
#X connect 10 0 9 0;
#X connect 10 1 8 0;
#X connect 11 0 10 0;
#X connect 12 0 11 0;
#X connect 13 0 7 0;
#X connect 13 1 6 0;
#X connect 13 2 12 0;
#X connect 14 0 9 1;
#X restore 182 394 pd \$0-updatedisplay-vel;
#N canvas 80 88 523 378 \$0-updatedisplay-mute 0;
#X obj 63 41 inlet;
#X obj 60 177 s \$0-toqueue-out;
#X obj 113 98 \$1;
#X obj 59 122 pack f f;
#X msg 61 149 set_seqmute \$2 \$1;
#X obj 59 72 t f b f;
#X msg 252 272 symbol \$1-seqmutestate-recv;
#X obj 251 248 \$0;
#X obj 231 298 s;
#X obj 220 225 t a b;
#X obj 206 145 sel 0;
#X msg 220 195 color 58 58 10;
#X msg 230 169 color 15 15 32;
#X connect 0 0 5 0;
#X connect 2 0 3 1;
#X connect 3 0 4 0;
#X connect 4 0 1 0;
#X connect 5 0 3 0;
#X connect 5 1 2 0;
#X connect 5 2 10 0;
#X connect 6 0 8 1;
#X connect 7 0 6 0;
#X connect 9 0 8 0;
#X connect 9 1 7 0;
#X connect 10 0 11 0;
#X connect 10 1 12 0;
#X connect 11 0 9 0;
#X connect 12 0 9 0;
#X restore 191 338 pd \$0-updatedisplay-mute;
#N canvas 755 520 562 382 \$0-sequenceselect 0;
#X obj 183 15 loadbang;
#X obj 100 75 inlet;
#X msg 194 78 symbol \$1;
#X obj 258 11 \$1;
#X obj 258 54 l2s;
#X obj 308 242 l2s;
#X obj 359 172 \$1;
#X msg 307 220 list \$2.\$1;
#X obj 308 196 pack s f;
#X obj 308 171 l2s;
#X obj 308 148 t a b;
#X obj 100 100 ce_btn \$1 2 100 20;
#X obj 100 126 t b;
#X msg 308 124 symbol \$1;
#X obj 310 100 r \$0-\$1-inner-seq-title;
#X obj 100 150 s \$0-\$1-bngselection;
#X msg 258 32 list Sequence.\$1;
#X obj 183 37 t b b;
#X msg 310 63 1 2;
#X connect 0 0 17 0;
#X connect 1 0 11 0;
#X connect 2 0 11 1;
#X connect 3 0 16 0;
#X connect 4 0 2 0;
#X connect 5 0 2 0;
#X connect 6 0 8 1;
#X connect 7 0 5 0;
#X connect 8 0 7 0;
#X connect 9 0 8 0;
#X connect 10 0 9 0;
#X connect 10 1 6 0;
#X connect 11 0 12 0;
#X connect 12 0 15 0;
#X connect 13 0 10 0;
#X connect 14 0 13 0;
#X connect 16 0 4 0;
#X connect 17 0 3 0;
#X connect 17 1 18 0;
#X connect 18 0 11 2;
#X coords 0 -1 1 1 100 20 2 100 100;
#X restore 100 100 pd \$0-sequenceselect;
#X obj 575 33 namecanvas \$0-ce_this-seqqueue;
#X obj 226 -59 loadbang;
#N canvas 192 192 450 300 \$0-assignnewtitle-handler 0;
#X obj 66 46 inlet;
#X obj 109 166 ==;
#X obj 142 146 \$1;
#X obj 111 188 tgl 19 0 empty empty empty 0 -10 0 12 #fcfcfc #000000 #000000 0 1;
#X obj 111 69 t a;
#X obj 178 260 spigot 0;
#X obj 183 179 del;
#X obj 181 205 t b;
#X msg 174 123 0;
#X obj 111 121 t f b b;
#X obj 180 288 s \$0-\$1-inner-seq-title;
#X obj 223 225 symbol;
#X msg 231 193 bang;
#X obj 184 156 t b s;
#X obj 110 94 unpack f s;
#X connect 0 0 4 0;
#X connect 1 0 3 0;
#X connect 2 0 1 1;
#X connect 3 0 5 1;
#X connect 4 0 14 0;
#X connect 5 0 10 0;
#X connect 6 0 7 0;
#X connect 7 0 12 0;
#X connect 8 0 3 0;
#X connect 9 0 1 0;
#X connect 9 1 2 0;
#X connect 9 2 8 0;
#X connect 11 0 5 0;
#X connect 12 0 11 0;
#X connect 13 0 6 0;
#X connect 13 1 11 1;
#X connect 14 0 9 0;
#X connect 14 1 13 0;
#X restore 726 223 pd \$0-assignnewtitle-handler;
#X obj 37 345 r \$0-nextsteptrigger;
#X obj 68 472 spigot 0;
#X obj 123 446 tgl 19 0 empty empty empty 0 -10 0 12 #fcfcfc #000000 #000000 0 1;
#X obj 128 403 == 0;
#X obj 100 498 spigot 0;
#X msg 185 493 0;
#X obj 183 445 sel 0;
#X obj 185 469 t b;
#X obj 772 136 t b f;
#X obj 772 164 f;
#X obj 772 190 s \$0-isplaying;
#N canvas 127 210 450 300 \$0-allowedifplaying 0;
#X obj 91 114 spigot 0;
#X obj 149 90 tgl 19 0 empty empty empty 0 -10 0 12 #fcfcfc #000000 #000000 0 1;
#X obj 150 66 r \$0-isplaying;
#X obj 68 40 inlet;
#X obj 82 185 outlet;
#X connect 0 0 4 0;
#X connect 1 0 0 1;
#X connect 2 0 1 0;
#X connect 3 0 0 0;
#X restore 600 358 pd \$0-allowedifplaying;
#X obj 126 425 t f f;
#N canvas 127 210 450 300 \$0-allowedifnotplaying 0;
#X obj 91 114 spigot 0;
#X obj 149 90 tgl 19 0 empty empty empty 0 -10 0 12 #fcfcfc #000000 #000000 0 1;
#X obj 175 28 r \$0-isplaying;
#X obj 68 40 inlet;
#X obj 82 185 outlet;
#X obj 181 59 == 0;
#X obj 178 86 change;
#X obj 177 110 == 1;
#X connect 0 0 4 0;
#X connect 1 0 0 1;
#X connect 2 0 5 0;
#X connect 3 0 0 0;
#X connect 5 0 6 0;
#X connect 6 0 7 0;
#X connect 7 0 1 0;
#X restore 537 512 pd \$0-allowedifnotplaying;
#N canvas 127 210 450 300 \$0-allowedifnotexporting 0;
#X obj 91 114 spigot 0;
#X obj 149 90 tgl 19 0 empty empty empty 0 -10 0 12 #fcfcfc #000000 #000000 0 1;
#X obj 68 40 inlet;
#X obj 82 185 outlet;
#X obj 181 59 == 0;
#X obj 178 86 change;
#X obj 177 110 == 1;
#X obj 175 28 r \$0-isexporting;
#X connect 0 0 3 0;
#X connect 1 0 0 1;
#X connect 2 0 0 0;
#X connect 4 0 5 0;
#X connect 5 0 6 0;
#X connect 6 0 1 0;
#X connect 7 0 4 0;
#X restore 537 483 pd \$0-allowedifnotexporting;
#X obj 850 103 t b f;
#X obj 850 131 f;
#X obj 850 157 s \$0-isexporting;
#N canvas 217 191 450 300 \$0-allowedifnotexporting 0;
#X obj 91 114 spigot 0;
#X obj 149 90 tgl 19 0 empty empty empty 0 -10 0 12 #fcfcfc #000000 #000000 0 1;
#X obj 68 40 inlet;
#X obj 82 185 outlet;
#X obj 181 59 == 0;
#X obj 178 86 change;
#X obj 177 110 == 1;
#X obj 175 28 r \$0-isexporting;
#X connect 0 0 3 0;
#X connect 1 0 0 1;
#X connect 2 0 0 0;
#X connect 4 0 5 0;
#X connect 5 0 6 0;
#X connect 6 0 1 0;
#X connect 7 0 4 0;
#X restore 661 256 pd \$0-allowedifnotexporting;
#N canvas 127 210 450 300 \$0-allowedifnotexporting 0;
#X obj 91 114 spigot 0;
#X obj 149 90 tgl 19 0 empty empty empty 0 -10 0 12 #fcfcfc #000000 #000000 0 1;
#X obj 68 40 inlet;
#X obj 82 185 outlet;
#X obj 181 59 == 0;
#X obj 178 86 change;
#X obj 177 110 == 1;
#X obj 175 28 r \$0-isexporting;
#X connect 0 0 3 0;
#X connect 1 0 0 1;
#X connect 2 0 0 0;
#X connect 4 0 5 0;
#X connect 5 0 6 0;
#X connect 6 0 1 0;
#X connect 7 0 4 0;
#X restore 183 370 pd \$0-allowedifnotexporting;
#N canvas 127 210 450 300 \$0-allowedifnotexporting 0;
#X obj 91 114 spigot 0;
#X obj 149 90 tgl 19 0 empty empty empty 0 -10 0 12 #fcfcfc #000000 #000000 0 1;
#X obj 68 40 inlet;
#X obj 82 185 outlet;
#X obj 181 59 == 0;
#X obj 178 86 change;
#X obj 177 110 == 1;
#X obj 175 28 r \$0-isexporting;
#X connect 0 0 3 0;
#X connect 1 0 0 1;
#X connect 2 0 0 0;
#X connect 4 0 5 0;
#X connect 5 0 6 0;
#X connect 6 0 1 0;
#X connect 7 0 4 0;
#X restore 191 312 pd \$0-allowedifnotexporting;
#N canvas 127 210 450 394 \$0-allowedifnotexporting 0;
#X obj 65 160 spigot 0;
#X obj 123 136 tgl 19 0 empty empty empty 0 -10 0 12 #fcfcfc #000000 #000000 0 1;
#X obj 64 75 inlet;
#X obj 61 220 outlet;
#X obj 155 105 == 0;
#X obj 155 131 change;
#X obj 154 155 == 1;
#X obj 123 54 r \$0-isexporting;
#X obj 123 79 t b f;
#X obj 65 100 t f b, f 6;
#X connect 0 0 3 0;
#X connect 1 0 0 1;
#X connect 2 0 9 0;
#X connect 4 0 5 0;
#X connect 5 0 6 0;
#X connect 6 0 1 0;
#X connect 7 0 8 0;
#X connect 8 1 4 0;
#X connect 9 0 0 0;
#X restore 215 259 pd \$0-allowedifnotexporting;
#N canvas 127 210 450 300 \$0-allowedifnotexporting 0;
#X obj 91 114 spigot 0;
#X obj 149 90 tgl 19 0 empty empty empty 0 -10 0 12 #fcfcfc #000000 #000000 0 1;
#X obj 68 40 inlet;
#X obj 82 185 outlet;
#X obj 181 59 == 0;
#X obj 178 86 change;
#X obj 177 110 == 1;
#X obj 175 28 r \$0-isexporting;
#X connect 0 0 3 0;
#X connect 1 0 0 1;
#X connect 2 0 0 0;
#X connect 4 0 5 0;
#X connect 5 0 6 0;
#X connect 6 0 1 0;
#X connect 7 0 4 0;
#X restore 236 478 pd \$0-allowedifnotexporting;
#X msg 232 581 selection \$1;
#X msg 58 849 set_seqeffect \$2 \$1;
#X obj 58 825 pack f f;
#X obj 110 797 \$1;
#X obj 424 640 pack f f;
#X obj 441 588 t f b;
#X obj 476 612 \$1;
#X msg 424 664 set_seqeffectmix \$2 \$1;
#X obj 426 544 ce_veltodb;
#X floatatom 427 566 6 0 0 0 - - - 0;
#X floatatom 489 569 6 0 0 0 - - - 0;
#X obj 75 773 t f b f;
#N canvas 127 210 450 300 \$0-allowedifnotexporting 0;
#X obj 91 114 spigot 0;
#X obj 149 90 tgl 19 0 empty empty empty 0 -10 0 12 #fcfcfc #000000 #000000 0 1;
#X obj 68 40 inlet;
#X obj 82 185 outlet;
#X obj 181 59 == 0;
#X obj 178 86 change;
#X obj 177 110 == 1;
#X obj 175 28 r \$0-isexporting;
#X connect 0 0 3 0;
#X connect 1 0 0 1;
#X connect 2 0 0 0;
#X connect 4 0 5 0;
#X connect 5 0 6 0;
#X connect 6 0 1 0;
#X connect 7 0 4 0;
#X restore 75 753 pd \$0-allowedifnotexporting;
#N canvas 80 88 523 378 \$0-updatedisplay-effectstate 0;
#X obj 63 41 inlet;
#X obj 60 177 s \$0-toqueue-out;
#X obj 113 98 \$1;
#X obj 59 122 pack f f;
#X obj 59 72 t f b f;
#X obj 251 248 \$0;
#X obj 231 298 s;
#X obj 220 225 t a b;
#X obj 206 145 sel 0;
#X msg 220 195 color 58 58 10;
#X msg 252 272 symbol \$1-seqeffstate-recv;
#X msg 61 149 set_seqeffect \$2 \$1;
#X msg 230 169 color 17 17 32;
#X connect 0 0 4 0;
#X connect 2 0 3 1;
#X connect 3 0 11 0;
#X connect 4 0 3 0;
#X connect 4 1 2 0;
#X connect 4 2 8 0;
#X connect 5 0 10 0;
#X connect 7 0 6 0;
#X connect 7 1 5 0;
#X connect 8 0 9 0;
#X connect 8 1 12 0;
#X connect 9 0 7 0;
#X connect 10 0 6 1;
#X connect 11 0 1 0;
#X connect 12 0 7 0;
#X restore 144 819 pd \$0-updatedisplay-effectstate;
#X obj 100 133 cnv 19 100 37 empty empty empty 20 12 0 12 #bbbbbb #404040 0;
#X obj 101 218 knob 25 0 127 0 0 empty empty #dfdfdf #7c7c7c black 0 0 0 0 1 320 0 0;
#X obj 159 221 cnv 19 19 20 \$0-busl-queuedisplay-send \$0-bus-queuedisplay-recv 8 3 10 0 12 #131255 #00faff 0;
#X obj 132 201 cnv 10 20 10 empty empty Bus 3 5 0 8 #bbbbbb #000000 0;
#X obj 181 221 tgl 19 0 empty empty empty 0 -10 0 12 #fcfcfc #000000 #000000 0 1;
#X obj 181 221 cnv 18 19 19 \$0-seqeffstate-send \$0-seqeffstate-recv E 5 10 0 12 #001488 #e0e0e0 0;
#X obj 129 219 knob 25 0 15 0 0 empty empty #dfdfdf #7c7c7c black 0 0 0 0 1 320 0 0;
#N canvas 127 210 450 300 \$0-allowedifnotexporting 0;
#X obj 91 114 spigot 0;
#X obj 149 90 tgl 19 0 empty empty empty 0 -10 0 12 #fcfcfc #000000 #000000 0 1;
#X obj 68 40 inlet;
#X obj 82 185 outlet;
#X obj 181 59 == 0;
#X obj 178 86 change;
#X obj 177 110 == 1;
#X obj 175 28 r \$0-isexporting;
#X connect 0 0 3 0;
#X connect 1 0 0 1;
#X connect 2 0 0 0;
#X connect 4 0 5 0;
#X connect 5 0 6 0;
#X connect 6 0 1 0;
#X connect 7 0 4 0;
#X restore 380 698 pd \$0-allowedifnotexporting;
#N canvas 93 132 513 362 \$0-updatedisplay-bus 0;
#X obj 45 2 inlet;
#X obj 45 35 ce_veltodb;
#X floatatom 71 80 6 0 0 0 - - - 0;
#X obj 58 247 s \$0-toqueue-out;
#X obj 113 172 \$1;
#X obj 59 196 pack f f;
#X obj 246 205 \$0;
#X obj 221 259 s;
#X obj 215 182 t a b;
#X msg 217 156 label \$1;
#X obj 216 130 l2s;
#X obj 60 156 t f b f;
#X msg 243 233 symbol \$1-bus-queuedisplay-recv;
#X obj 68 106 int;
#X obj 66 132 + 1;
#X msg 58 222 set_seqtoeffbus \$2 \$1;
#X connect 0 0 1 0;
#X connect 1 1 2 0;
#X connect 2 0 13 0;
#X connect 4 0 5 1;
#X connect 5 0 15 0;
#X connect 6 0 12 0;
#X connect 8 0 7 0;
#X connect 8 1 6 0;
#X connect 9 0 8 0;
#X connect 10 0 9 0;
#X connect 11 0 5 0;
#X connect 11 1 4 0;
#X connect 11 2 10 0;
#X connect 12 0 7 1;
#X connect 13 0 14 0;
#X connect 14 0 11 0;
#X connect 15 0 3 0;
#X restore 392 721 pd \$0-updatedisplay-bus;
#X msg 448 176 range 0 \$1;
#X msg 428 101 32;
#X obj 428 125 / 2;
#X msg 429 227 set_maxvel \$1;
#X msg 416 202 set_maxdb \$1;
#X obj 429 149 - 1;
#X msg 446 27 0;
#X msg 482 5 127;
#X obj 482 29 / 2;
#N canvas 160 160 450 400 \$0-default-mutestate 0;
#X obj 67 33 inlet;
#X obj 124 158 t b b;
#X obj 125 203 t b;
#X obj 124 180 del 2;
#X obj 67 81 \$1;
#X obj 67 58 t b;
#X obj 67 104 == 0;
#X obj 67 128 sel 0 1;
#X obj 60 157 t b b;
#X obj 61 202 t b;
#X obj 60 179 del 2;
#X obj 69 299 outlet;
#X msg 60 225 1;
#X msg 124 226 0;
#X connect 0 0 5 0;
#X connect 1 0 3 0;
#X connect 1 1 11 0;
#X connect 2 0 13 0;
#X connect 3 0 2 0;
#X connect 4 0 6 0;
#X connect 5 0 4 0;
#X connect 6 0 7 0;
#X connect 7 0 8 0;
#X connect 7 1 1 0;
#X connect 8 0 10 0;
#X connect 8 1 11 0;
#X connect 9 0 12 0;
#X connect 10 0 9 0;
#X connect 12 0 11 0;
#X connect 13 0 11 0;
#X restore 334 -41 pd \$0-default-mutestate;
#N canvas 160 160 450 400 \$0-default-solostate 0;
#X obj 67 33 inlet;
#X obj 124 158 t b b;
#X obj 125 203 t b;
#X obj 124 180 del 2;
#X obj 67 81 \$1;
#X obj 67 58 t b;
#X obj 67 104 == 0;
#X obj 67 128 sel 0 1;
#X obj 60 157 t b b;
#X obj 61 202 t b;
#X obj 60 179 del 2;
#X msg 60 225 0;
#X obj 69 299 outlet;
#X msg 124 226 0;
#X connect 0 0 5 0;
#X connect 1 0 3 0;
#X connect 1 1 12 0;
#X connect 2 0 13 0;
#X connect 3 0 2 0;
#X connect 4 0 6 0;
#X connect 5 0 4 0;
#X connect 6 0 7 0;
#X connect 7 0 8 0;
#X connect 7 1 1 0;
#X connect 8 0 10 0;
#X connect 8 1 12 0;
#X connect 9 0 11 0;
#X connect 10 0 9 0;
#X connect 11 0 12 0;
#X connect 13 0 12 0;
#X restore 333 -16 pd \$0-default-solostate;
#X obj 228 23 t f f b b b f b b b b b b b b;
#X msg 607 600 symbol \$2-\$1-seq-totalsteps;
#X obj 606 578 pack f \$0;
#X obj 606 555 \$1;
#X obj 588 627 s;
#X obj 537 536 t b f b;
#X obj 226 -33 t b;
#X obj 146 543 t a;
#X floatatom 149 572 5 0 0 0 - - - 0;
#X obj 200 664 * 100;
#X floatatom 200 688 5 0 0 0 - - - 0;
#X obj 200 639 / 8;
#X obj 200 711 t a;
#X obj 86 35 r \$0-\$1-tovolknob;
#X obj 10 252 s \$0-\$1-tovolknob;
#X obj 248 230 s \$0-\$1-tovolknob;
#X obj 101 144 knob 25 0 127 0 0 empty empty #dfdfdf #7c7c7c black 0 0 0 0 1 320 0 0;
#X obj 127 147 cnv 19 30 20 \$0-vel-queuedisplay-send \$0-vel-queuedisplay-recv 0.6 3 10 0 12 #131255 #00faff 0;
#X obj 159 148 tgl 19 0 empty empty empty 0 -10 0 12 #fcfcfc #000000 #000000 0 1;
#X obj 159 148 cnv 18 19 19 \$0-seqmutestate-send \$0-seqmutestate-recv M 5 10 0 12 #e8e828 #404040 0;
#X obj 180 148 tgl 19 0 empty empty empty 0 -10 0 12 #fcfcfc #000000 #000000 0 1;
#X obj 180 148 cnv 18 19 19 \$0-seqsolostate-send \$0-seqsolostate-recv S 5 10 0 12 #001488 #e0e0e0 0;
#X obj 100 133 cnv 10 100 10 empty empty empty 3 5 0 8 #dfdfdf #000000 0;
#X obj 103 133 cnv 10 20 10 empty empty Vol 3 5 0 8 #dfdfdf #000000 0;
#X obj 100 121 cnv 10 100 10 empty empty empty 3 5 0 8 #404040 #000000 0;
#X obj 100 121 ce_cntrlpos \$1;
#X obj 236 451 r \$0-\$1-bngselection;
#X obj 261 691 outlet;
#X msg 672 808 100;
#X msg 636 829 0;
#X obj 808 364 s \$0-isselected;
#X obj 808 311 t b f;
#X obj 808 339 f;
#X obj 701 634 r \$0-isselected;
#X obj 640 739 ==;
#X obj 640 761 sel 0 1;
#X obj 640 784 t b;
#X obj 672 784 t b;
#X obj 233 550 t f f f;
#X floatatom 786 390 5 0 0 0 - - - 0;
#X obj 637 807 del;
#X obj 623 707 f;
#X obj 607 679 t b f;
#X obj 710 688 \$1;
#X obj 700 661 t b b f;
#X floatatom 773 700 5 0 0 0 - - - 0;
#X obj 926 273 t b f;
#X obj 926 297 f;
#X floatatom 977 286 5 0 0 0 - - - 0;
#X obj 964 437 !=;
#X obj 987 411 \$1;
#X obj 956 387 t f b;
#X obj 955 360 r \$0-\$1-issolo;
#X obj 926 322 s \$0-\$1-issolo;
#X obj 964 462 sel 1;
#X obj 1010 518 f;
#X obj 964 486 t b b;
#X obj 1081 351 r \$0-\$1-unsolo;
#X obj 1069 512 f;
#X obj 523 58 route set_totalsteps triggerstep millsperbeat set_seqtitle set_isplaying set_isexporting set_selected set_solo set_unmute, f 75;
#X obj 1112 398 \$1;
#X obj 1081 374 t f b;
#X obj 1089 449 sel 1;
#X obj 1069 488 t b b;
#X obj 1127 513 f;
#X obj 1127 489 t b b;
#X obj 1043 265 t b f;
#X obj 1043 289 f;
#X floatatom 1094 278 5 0 0 0 - - - 0;
#X obj 1043 314 s \$0-\$1-unsolo;
#X obj 828 526 \$1;
#X obj 828 499 sel 0 1;
#X msg 828 550 set_unmute \$1;
#X msg 862 576 set_solo \$1;
#X obj 862 525 \$1;
#X msg 261 667 set_selected \$1;
#X floatatom 1009 444 5 0 0 0 - - - 0;
#X floatatom 1140 430 5 0 0 0 - - - 0;
#X floatatom 1077 570 5 0 0 0 - - - 0;
#X floatatom 1141 562 5 0 0 0 - - - 0;
#X obj 1003 586 t b;
#X floatatom 1154 380 5 0 0 0 - - - 0;
#X obj 1163 456 bng 19 250 50 0 empty empty empty 0 -10 0 12 #fcfcfc #000000 #000000;
#X obj 1055 637 f;
#X obj 1008 548 t f f f;
#X floatatom 1060 677 5 0 0 0 - - - 0;
#X obj 1089 424 ==;
#X obj 967 553 bng 19 250 50 0 empty empty empty 0 -10 0 12 #fcfcfc #000000 #000000;
#X msg 960 513 1;
#X obj 1139 593 bng 19 250 50 0 empty empty empty 0 -10 0 12 #fcfcfc #000000 #000000;
#X obj 1080 594 bng 19 250 50 0 empty empty empty 0 -10 0 12 #fcfcfc #000000 #000000;
#X connect 1 0 105 0;
#X connect 2 0 105 0;
#X connect 3 0 105 0;
#X connect 4 0 27 0;
#X connect 5 0 90 0;
#X connect 6 0 27 0;
#X connect 7 0 94 0;
#X connect 8 0 101 1;
#X connect 9 0 149 0;
#X connect 10 0 11 0;
#X connect 10 1 11 1;
#X connect 11 0 12 0;
#X connect 13 0 14 0;
#X connect 13 1 14 1;
#X connect 14 0 15 0;
#X connect 17 0 37 0;
#X connect 20 0 19 0;
#X connect 21 0 128 0;
#X connect 22 0 21 0;
#X connect 23 0 25 0;
#X connect 24 0 104 0;
#X connect 25 0 24 0;
#X connect 31 0 96 0;
#X connect 33 0 34 0;
#X connect 34 0 19 0;
#X connect 35 0 34 1;
#X connect 35 0 37 1;
#X connect 36 0 45 0;
#X connect 37 0 97 0;
#X connect 38 0 102 0;
#X connect 39 0 40 0;
#X connect 40 0 38 0;
#X connect 41 0 42 0;
#X connect 41 1 42 1;
#X connect 42 0 43 0;
#X connect 44 0 10 0;
#X connect 45 0 35 0;
#X connect 45 1 39 0;
#X connect 46 0 95 0;
#X connect 47 0 46 0;
#X connect 48 0 49 0;
#X connect 48 1 49 1;
#X connect 49 0 50 0;
#X connect 51 0 13 0;
#X connect 52 0 27 0;
#X connect 53 0 28 0;
#X connect 53 0 36 0;
#X connect 54 0 26 0;
#X connect 55 0 22 0;
#X connect 56 0 19 0;
#X connect 57 0 19 0;
#X connect 58 0 57 0;
#X connect 59 0 58 1;
#X connect 60 0 63 0;
#X connect 61 0 60 0;
#X connect 61 1 62 0;
#X connect 62 0 60 1;
#X connect 64 0 65 0;
#X connect 64 1 66 0;
#X connect 65 0 61 0;
#X connect 67 0 58 0;
#X connect 67 1 59 0;
#X connect 67 2 69 0;
#X connect 68 0 67 0;
#X connect 71 0 64 0;
#X connect 74 0 68 0;
#X connect 76 0 77 0;
#X connect 77 0 78 0;
#X connect 79 0 76 0;
#X connect 80 0 81 0;
#X connect 81 0 84 0;
#X connect 82 0 78 0;
#X connect 83 0 78 0;
#X connect 84 0 83 0;
#X connect 84 0 82 0;
#X connect 84 0 79 0;
#X connect 85 0 76 0;
#X connect 85 0 74 0;
#X connect 86 0 87 0;
#X connect 87 0 71 0;
#X connect 88 0 108 0;
#X connect 89 0 110 0;
#X connect 90 0 3 0;
#X connect 90 1 4 0;
#X connect 90 2 6 0;
#X connect 90 3 2 0;
#X connect 90 4 1 0;
#X connect 90 5 16 0;
#X connect 90 6 23 0;
#X connect 90 7 88 0;
#X connect 90 8 89 0;
#X connect 90 9 80 0;
#X connect 90 10 85 0;
#X connect 91 0 94 1;
#X connect 92 0 91 0;
#X connect 93 0 92 0;
#X connect 95 0 7 0;
#X connect 95 1 7 1;
#X connect 95 2 93 0;
#X connect 96 0 5 0;
#X connect 97 0 98 0;
#X connect 98 0 101 0;
#X connect 99 0 100 0;
#X connect 100 0 102 0;
#X connect 101 0 99 0;
#X connect 103 0 106 0;
#X connect 106 0 52 0;
#X connect 108 0 53 0;
#X connect 108 0 145 1;
#X connect 110 0 54 0;
#X connect 110 0 161 0;
#X connect 116 0 55 0;
#X connect 118 0 115 0;
#X connect 119 0 115 0;
#X connect 121 0 122 0;
#X connect 121 1 122 1;
#X connect 122 0 120 0;
#X connect 122 0 129 0;
#X connect 123 0 134 0;
#X connect 124 0 125 0;
#X connect 125 0 126 0;
#X connect 125 1 127 0;
#X connect 126 0 130 0;
#X connect 127 0 118 0;
#X connect 128 0 56 0;
#X connect 128 1 132 0;
#X connect 128 2 165 0;
#X connect 130 0 119 0;
#X connect 131 0 124 0;
#X connect 132 0 131 0;
#X connect 132 1 131 1;
#X connect 133 0 131 1;
#X connect 134 0 131 0;
#X connect 134 1 133 0;
#X connect 134 2 124 1;
#X connect 134 2 135 0;
#X connect 136 0 137 0;
#X connect 136 1 137 1;
#X connect 137 0 138 0;
#X connect 137 0 143 0;
#X connect 139 0 144 0;
#X connect 139 0 166 0;
#X connect 140 0 139 1;
#X connect 141 0 139 0;
#X connect 141 1 140 0;
#X connect 142 0 141 0;
#X connect 144 0 146 0;
#X connect 144 1 170 0;
#X connect 145 0 174 0;
#X connect 146 0 178 0;
#X connect 146 1 145 0;
#X connect 147 0 151 0;
#X connect 147 0 171 0;
#X connect 148 0 168 0;
#X connect 148 0 180 0;
#X connect 149 0 47 0;
#X connect 149 1 44 0;
#X connect 149 2 51 0;
#X connect 149 3 32 0;
#X connect 149 4 41 0;
#X connect 149 5 48 0;
#X connect 149 6 121 0;
#X connect 149 7 136 0;
#X connect 149 8 156 0;
#X connect 150 0 176 1;
#X connect 151 0 176 0;
#X connect 151 1 150 0;
#X connect 152 0 153 0;
#X connect 152 1 155 0;
#X connect 153 0 148 0;
#X connect 154 0 169 0;
#X connect 154 0 108 0;
#X connect 154 0 179 0;
#X connect 155 0 154 0;
#X connect 156 0 157 0;
#X connect 156 1 157 1;
#X connect 157 0 158 0;
#X connect 157 0 159 0;
#X connect 160 0 162 0;
#X connect 161 0 160 0;
#X connect 161 1 164 0;
#X connect 162 0 117 0;
#X connect 163 0 117 0;
#X connect 164 0 163 0;
#X connect 165 0 117 0;
#X connect 167 0 172 0;
#X connect 170 0 173 0;
#X connect 173 0 175 0;
#X connect 174 0 148 1;
#X connect 174 1 154 1;
#X connect 174 2 173 1;
#X connect 176 0 152 0;
#X connect 176 0 167 0;
#X connect 178 0 177 0;
#X connect 178 0 108 0;
#X coords 0 -1 1 1 100 70 2 100 100;
