#N canvas 24 107 1920 997 12;
#X declare -lib clearessentials;
#X obj 108 -376 inlet;
#N canvas 320 41 753 997 \$0-\$1-susbng 0;
#X floatatom 253 139 4 0 0 0 - - - 0;
#X msg 142 139 bang;
#X obj 144 202 bng 20 250 50 0 empty empty empty 17 7 0 10 #fcfcfc
#000000 #000000;
#X obj 144 176 metro 500 1 msec;
#X msg 104 140 stop;
#X obj 274 507 outlet;
#X obj 144 279 until;
#X obj 144 307 f;
#X obj 183 306 + 1;
#X obj 227 306 sel 0;
#X floatatom 130 334 5 0 0 0 - - - 0;
#X msg 144 229 1;
#X obj 130 382 bng 15 250 50 0 empty empty empty 17 7 0 10 #fcfcfc
#000000 #000000;
#X obj 105 552 bng 15 250 50 0 empty empty empty 17 7 0 10 #fcfcfc
#000000 #000000;
#X msg 197 137 0;
#X obj 144 253 spigot 0;
#X obj 333 110 tgl 15 0 empty empty empty 17 7 0 10 #fcfcfc #000000
#000000 0 1;
#X obj 333 38 sel 0 1;
#X msg 332 67 0;
#X msg 365 66 1;
#X obj 76 86 t b;
#X obj 65 630 print Symbols_not_allowed_bad_value_for_inlet_No.1,
f 23;
#X obj 447 33 print Symbols_not_allowed_bad_value_for_inlet_No.2_use_either_0_or_1
, f 19;
#X obj 182 333 mod 2;
#X obj 75 61 route symbol;
#X obj 55 35 inlet;
#X obj 333 10 inlet;
#X obj 516 214 s \$0-sus-state;
#X obj 316 259 s \$0-sus-state;
#X obj 516 189 spigot 0;
#X obj 566 170 tgl 15 0 empty empty empty 17 7 0 10 #fcfcfc #000000
#000000 0 1;
#X obj 565 144 r \$0-iscontinuous;
#X obj 111 602 s \$0-sus-state;
#X msg 112 577 2;
#X msg 213 399 1;
#X obj 186 415 tgl 15 0 empty empty empty 17 7 0 10 #fcfcfc #000000
#000000 0 1;
#X msg 211 424 0;
#X obj 132 433 spigot 0;
#X obj 306 427 tgl 15 0 empty empty empty 17 7 0 10 #fcfcfc #000000
#000000 0 1;
#X msg 330 445 0;
#X obj 257 451 spigot 0;
#X msg 329 417 1;
#X obj 404 548 r \$0-sustimeout;
#X obj 388 493 *;
#X obj 390 599 tgl 15 0 empty empty empty 17 7 0 10 #fcfcfc #000000
#000000 0 1;
#X obj 402 401 until;
#X obj 402 429 f;
#X obj 440 429 + 1;
#X obj 492 414 sel 0;
#X msg 404 377 1;
#X floatatom 387 470 5 0 0 0 - - - 0;
#X floatatom 388 525 5 0 0 0 - - - 0;
#X obj 373 650 spigot 0;
#X obj 390 620 t b f;
#X obj 394 724 s \$0-sus-state;
#X obj 459 329 tgl 15 0 empty empty empty 17 7 0 10 #fcfcfc #000000
#000000 0 1;
#X obj 405 352 spigot 0;
#X obj 459 306 r \$0-usetimeout;
#X msg 394 700 3;
#X obj 373 673 t b b b;
#X obj 189 49 r \$0-stoptimeout;
#X obj 191 74 bng 15 250 50 0 empty empty empty 17 7 0 10 #fcfcfc #000000
#000000;
#X obj 143 102 t b f b b b b b;
#X obj 419 117 r \$0-resetinnerstate;
#X floatatom 417 574 8 0 0 0 - - - 0;
#X obj 440 455 mod 999;
#X msg 317 234 0;
#X obj 388 574 >=;
#X obj 663 204 == 0;
#X obj 661 229 change;
#X obj 662 252 == 1;
#X obj 666 283 tgl 15 0 empty empty empty 17 7 0 10 #fcfcfc #000000
#000000 0 1;
#X obj 618 303 spigot 0;
#X obj 621 355 s \$0-sus-state;
#X msg 621 331 1;
#X obj 159 386 bng 15 250 50 0 empty empty empty 17 7 0 10 #fcfcfc
#000000 #000000;
#X obj 132 466 t b b b;
#X obj 130 358 sel 0;
#X msg 268 481 0;
#X msg 473 157 1;
#X msg 472 389 0;
#X obj 204 459 == 0;
#X obj 202 484 change;
#X obj 203 507 == 1;
#X obj 207 538 tgl 15 0 empty empty empty 17 7 0 10 #fcfcfc #000000
#000000 0 1;
#X obj 154 530 bng 15 250 50 0 empty empty empty 17 7 0 10 #fcfcfc
#000000 #000000;
#X obj 169 497 del;
#X obj 429 701 s \$0-stoptimeout;
#X connect 0 0 3 1;
#X connect 0 0 43 1;
#X connect 1 0 3 0;
#X connect 1 0 72 0;
#X connect 2 0 11 0;
#X connect 2 0 34 0;
#X connect 2 0 56 0;
#X connect 2 0 79 0;
#X connect 3 0 2 0;
#X connect 4 0 3 0;
#X connect 6 0 7 0;
#X connect 7 0 8 0;
#X connect 7 0 10 0;
#X connect 8 0 23 0;
#X connect 9 0 6 1;
#X connect 10 0 77 0;
#X connect 11 0 15 0;
#X connect 12 0 37 0;
#X connect 13 0 4 0;
#X connect 14 0 7 1;
#X connect 14 0 46 1;
#X connect 15 0 6 0;
#X connect 16 0 15 1;
#X connect 17 0 18 0;
#X connect 17 1 19 0;
#X connect 17 2 22 0;
#X connect 18 0 16 0;
#X connect 19 0 16 0;
#X connect 20 0 21 0;
#X connect 20 0 4 0;
#X connect 23 0 7 1;
#X connect 23 0 9 0;
#X connect 24 0 20 0;
#X connect 24 1 62 0;
#X connect 25 0 24 0;
#X connect 26 0 17 0;
#X connect 29 0 27 0;
#X connect 30 0 29 1;
#X connect 30 0 68 0;
#X connect 31 0 30 0;
#X connect 33 0 32 0;
#X connect 34 0 35 0;
#X connect 35 0 37 1;
#X connect 35 0 81 0;
#X connect 36 0 35 0;
#X connect 37 0 76 0;
#X connect 38 0 40 1;
#X connect 39 0 38 0;
#X connect 40 0 39 0;
#X connect 40 0 78 0;
#X connect 41 0 38 0;
#X connect 42 0 64 0;
#X connect 42 0 67 1;
#X connect 43 0 51 0;
#X connect 44 0 53 0;
#X connect 45 0 46 0;
#X connect 46 0 47 0;
#X connect 46 0 50 0;
#X connect 47 0 65 0;
#X connect 48 0 45 1;
#X connect 49 0 45 0;
#X connect 50 0 43 0;
#X connect 51 0 67 0;
#X connect 52 0 59 0;
#X connect 53 0 52 0;
#X connect 53 1 52 1;
#X connect 55 0 56 1;
#X connect 56 0 49 0;
#X connect 57 0 55 0;
#X connect 58 0 54 0;
#X connect 59 1 58 0;
#X connect 59 2 87 0;
#X connect 60 0 61 0;
#X connect 61 0 4 0;
#X connect 62 0 1 0;
#X connect 62 1 0 0;
#X connect 62 3 14 0;
#X connect 62 4 40 0;
#X connect 62 5 41 0;
#X connect 62 6 66 0;
#X connect 65 0 46 1;
#X connect 65 0 48 0;
#X connect 66 0 28 0;
#X connect 67 0 44 0;
#X connect 68 0 69 0;
#X connect 69 0 70 0;
#X connect 70 0 71 0;
#X connect 71 0 72 1;
#X connect 72 0 74 0;
#X connect 74 0 73 0;
#X connect 76 0 13 0;
#X connect 76 1 36 0;
#X connect 76 2 86 0;
#X connect 77 0 12 0;
#X connect 77 1 75 0;
#X connect 78 0 5 0;
#X connect 79 0 29 0;
#X connect 80 0 46 1;
#X connect 81 0 82 0;
#X connect 82 0 83 0;
#X connect 83 0 84 0;
#X connect 85 0 33 0;
#X connect 86 0 85 0;
#X restore 237 -171 pd \$0-\$1-susbng;
#X obj 238 -195 f;
#X obj 100 100 bng 15 250 50 0 empty empty empty 17 7 0 10 #dfdfdf
#000000 #000000;
#X obj 235 -148 outlet;
#X msg 163 -120 coords 0 0 1 1 \$1 \$1 2 100 100;
#X obj 253 -244 t b f;
#X obj 255 -221 f;
#X obj 254 -321 loadbang;
#X msg 253 -267 250;
#X obj 317 -226 t b f;
#X obj 317 -203 f;
#X msg 127 -236 size \$1;
#X obj 128 -268 t f f;
#X obj 163 -212 t b f;
#X obj 163 -146 f;
#X obj 163 -166 bng 15 250 50 0 empty empty empty 17 7 0 10 #fcfcfc
#000000 #000000;
#X obj 163 -189 del;
#X msg 99 -298 15;
#X obj 391 -212 outlet;
#X msg 378 -291 0;
#X obj 379 -268 s \$0-sus-state;
#X obj 391 -240 r \$0-sus-state;
#X obj 346 -315 t b b;
#X obj 479 -325 t b f;
#X obj 483 -299 f;
#X obj 485 -274 s \$0-iscontinuous;
#X obj 219 -26 \$1;
#X floatatom 220 1 5 0 0 0 - - - 0;
#X floatatom 273 0 5 0 0 0 - - - 0;
#X obj 273 -25 \$0;
#X obj 162 -41 s;
#X obj 257 60 s;
#X msg 280 33 symbol \$1-ce_susbngid;
#X obj 182 -92 r \$0-ce_susbngid;
#X msg 182 -68 symbol \$1-ce_susbng;
#X obj 161 -380 namecanvas \$0-ce_susbng;
#X obj 539 -251 t b f;
#X obj 539 -224 f;
#X obj 540 -197 s \$0-sustimeout;
#X obj 144 -350 route set_size set_wait set_state bang set_continuous
set_timeout use_timeout, f 68;
#X obj 624 -285 t b f;
#X obj 624 -258 f;
#X obj 623 -233 s \$0-usetimeout;
#X obj 252 -294 t b b b b;
#X msg 482 -172 10000;
#X obj 351 -378 declare -lib clearessentials;
#X connect 0 0 40 0;
#X connect 1 0 4 0;
#X connect 2 0 1 0;
#X connect 3 0 2 0;
#X connect 5 0 31 0;
#X connect 6 0 7 0;
#X connect 6 1 7 1;
#X connect 7 0 2 1;
#X connect 8 0 27 0;
#X connect 8 0 30 0;
#X connect 8 0 44 0;
#X connect 9 0 6 0;
#X connect 10 0 11 0;
#X connect 10 1 11 1;
#X connect 11 0 1 1;
#X connect 12 0 3 0;
#X connect 13 0 12 0;
#X connect 13 1 14 0;
#X connect 14 0 17 0;
#X connect 14 1 15 1;
#X connect 15 0 5 0;
#X connect 16 0 15 0;
#X connect 17 0 16 0;
#X connect 18 0 13 0;
#X connect 20 0 21 0;
#X connect 22 0 19 0;
#X connect 23 0 3 0;
#X connect 23 1 20 0;
#X connect 24 0 25 0;
#X connect 24 1 25 1;
#X connect 25 0 26 0;
#X connect 27 0 28 0;
#X connect 29 0 33 0;
#X connect 29 0 32 0;
#X connect 30 0 29 0;
#X connect 33 0 32 1;
#X connect 34 0 35 0;
#X connect 35 0 31 1;
#X connect 37 0 38 0;
#X connect 37 1 38 1;
#X connect 38 0 39 0;
#X connect 40 0 5 0;
#X connect 40 0 13 0;
#X connect 40 1 6 0;
#X connect 40 2 10 0;
#X connect 40 3 23 0;
#X connect 40 4 24 0;
#X connect 40 5 37 0;
#X connect 40 6 41 0;
#X connect 40 7 3 0;
#X connect 41 0 42 0;
#X connect 41 1 42 1;
#X connect 42 0 43 0;
#X connect 44 0 9 0;
#X connect 44 1 18 0;
#X connect 44 3 45 0;
#X connect 45 0 37 0;
#X coords 0 0 1 1 15 15 2 100 100;
