#N canvas 694 264 1232 567 12;
#X obj 41 324 dac~ 1 2;
#X obj 25 22 table \$0-\$1-s-array-L;
#X obj 26 49 table \$0-\$1-s-array-R;
#N canvas 609 4 1056 875 \$0-\$1-queue-toDAC 1;
#X obj 58 819 *~ 0.3;
#X obj 61 545 phasor~;
#X obj 62 590 *~;
#X obj 59 789 hip~ 3;
#X obj 114 821 *~ 0.3;
#X obj 114 788 hip~ 3;
#X obj 303 616 vsl 19 200 0 1 0 0 empty empty empty 0 -9 0 12 #fcfcfc #000000 #000000 0 1;
#X obj 43 318 hsl 100 19 0 1 0 0 empty empty empty -2 -10 0 12 #fcfcfc #000000 #000000 0 1;
#X obj 39 259 f;
#X msg 162 285 0;
#X msg 123 490 0;
#X obj 709 58 f;
#X obj 43 226 t b b b;
#X obj 740 104 * 44100;
#X obj 80 418 spigot 0;
#X obj 203 419 tgl 19 0 empty empty empty 0 -10 0 12 #fcfcfc #000000 #000000 0 1;
#X obj 80 394 f;
#X obj 203 469 == 0;
#X obj 203 494 change;
#X obj 203 520 == 1;
#X obj 124 519 spigot 0;
#X obj 176 495 tgl 19 0 empty empty empty 0 -10 0 12 #fcfcfc #000000 #000000 0 1;
#X obj 52 121 t b b b;
#X msg 52 97 bang;
#X obj 78 687 tgl 19 0 empty empty empty 0 -10 0 12 #fcfcfc #000000 #000000 0 1;
#X obj 60 710 *~;
#X msg 75 147 1;
#X obj 196 285 t f f;
#X obj 740 127 t f f;
#X obj 527 150 tgl 19 0 empty empty empty 0 -10 0 12 #fcfcfc #000000 #000000 0 1;
#X obj 528 223 snapshot~;
#X obj 528 297 /;
#X obj 531 344 hsl 162 19 0 1 0 0 empty empty empty -2 -10 0 12 #fcfcfc #000000 #000000 0 1;
#X obj 528 319 t f;
#X obj 528 174 metro 10;
#X floatatom 560 296 8 0 0 0 - - - 0;
#X obj 527 273 f;
#X floatatom 788 128 8 0 0 1 loaded\ sample\ length\ -\ mills - - 0;
#X obj 58 845 outlet~;
#X obj 115 847 outlet~;
#X obj 50 15 r \$0-\$1-play-loadedsmpl;
#X obj 203 396 r \$0-\$1-playfrom-start;
#X obj 105 347 r \$0-\$1-start-tophasor;
#X obj 527 83 r \$0-\$1-smp-stop;
#X obj 80 567 r \$0-\$1-smp-size;
#X obj 113 761 tabread4~ \$0-\$1-s-array-R;
#X obj 59 739 tabread4~ \$0-\$1-s-array-L;
#X obj 556 272 r \$0-\$1-smp-size;
#X obj 117 193 r \$0-\$1-pitch-tophasor;
#N canvas 114 384 663 508 \$0-parse-incommingmidi 1;
#X obj 112 30 r \$0-\$1-in-midi-note;
#X obj 192 121 r \$0-\$1-in-midi-vel;
#X obj 164 79 ==;
#X obj 182 54 r \$0-\$1-listen-midi-note;
#X obj 164 101 tgl 19 0 empty empty empty 0 -10 0 12 #fcfcfc #000000 #000000 0 1;
#X obj 112 124 spigot 0;
#X obj 112 55 t f f;
#X obj 206 264 f;
#X obj 224 216 / 127;
#X obj 224 240 t f;
#X obj 206 364 outlet;
#X obj 112 176 outlet;
#X floatatom 192 78 5 0 0 0 - - - 0;
#X floatatom 66 54 5 0 0 0 - - - 0;
#X obj 192 144 sel 0;
#X obj 192 167 t b;
#X obj 192 192 s \$0-\$1-smp-stop;
#X obj 391 177 ==;
#X obj 391 199 tgl 19 0 empty empty empty 0 -10 0 12 #fcfcfc #000000 #000000 0 1;
#X obj 336 248 spigot 0;
#X floatatom 419 176 5 0 0 0 - - - 0;
#X obj 354 120 r \$0-\$1-in-midi-ch;
#X obj 409 152 r \$0-\$1-listen-midi-ch;
#X obj 336 365 outlet;
#X obj 112 148 t b b b;
#X obj 336 225 f;
#X obj 354 145 t f f;
#X connect 0 0 6 0;
#X connect 0 0 13 0;
#X connect 1 0 14 0;
#X connect 2 0 4 0;
#X connect 3 0 2 1;
#X connect 3 0 12 0;
#X connect 4 0 5 1;
#X connect 5 0 24 0;
#X connect 6 0 5 0;
#X connect 6 1 2 0;
#X connect 7 0 10 0;
#X connect 8 0 9 0;
#X connect 9 0 7 1;
#X connect 14 0 15 0;
#X connect 14 1 8 0;
#X connect 15 0 16 0;
#X connect 17 0 18 0;
#X connect 18 0 19 1;
#X connect 19 0 23 0;
#X connect 21 0 26 0;
#X connect 22 0 17 1;
#X connect 22 0 20 0;
#X connect 24 0 11 0;
#X connect 24 1 7 0;
#X connect 24 2 25 0;
#X connect 25 0 19 0;
#X connect 26 0 25 1;
#X connect 26 1 17 0;
#X restore 63 70 pd \$0-parse-incommingmidi;
#X obj 288 544 r \$0-\$1-smp-monitor;
#X obj 270 590 f;
#X obj 527 105 t b b;
#X obj 162 217 r \$0-\$1-halt-stop;
#X obj 162 240 del;
#X msg 527 128 0;
#X obj 514 584 del;
#X obj 545 586 bng 19 250 50 0 empty empty empty 0 -10 0 12 #fcfcfc #000000 #000000;
#X obj 514 561 t b b f;
#X obj 514 607 bng 19 250 50 0 empty empty empty 0 -10 0 12 #fcfcfc #000000 #000000;
#X obj 740 151 / 1000;
#X floatatom 790 151 5 0 0 1 loaded\ sample\ length\ in\ seconds - - 0;
#X obj 553 410 r \$0-\$1-end-tophasor;
#X obj 509 481 / 44100;
#X floatatom 569 482 8 0 0 0 - - - 0;
#X obj 40 341 t f f;
#X obj 709 10 r \$0-\$1-done-smpload;
#X floatatom 562 532 8 0 0 0 - - - 0;
#X obj 509 534 * 1000;
#X obj 708 80 t f f;
#X obj 740 57 r \$0-\$1-raw-pitch;
#X obj 528 250 t b f f;
#X obj 116 369 r \$0-\$1-start-phasorsnapshot;
#X obj 137 442 r \$0-\$1-end-phasorsnapshot;
#X obj 133 466 t b;
#X obj 619 246 s \$0-\$1-snap-at;
#X obj 511 8 r \$0-\$1-metrophasorstate;
#X obj 76 170 s \$0-\$1-metrophasorstate;
#X obj 239 284 s \$0-\$1-metrophasorstate;
#X obj 543 59 s \$0-\$1-phasesigstate;
#X obj 78 663 r \$0-\$1-phasesigstate;
#X obj 70 616 throw~ \$0-\$1-tophasesnapshot;
#X obj 533 198 catch~ \$0-\$1-tophasesnapshot;
#X obj 733 34 r \$0-\$1-pitch-tophasor;
#X obj 292 120 r \$0-\$1-raw-pitch;
#X obj 292 166 s \$0-\$1-pitch-tophasor;
#X obj 292 143 t f;
#X obj 509 458 f;
#X obj 50 39 t b b b;
#X obj 527 435 t f f;
#X obj 527 388 r \$0-\$1-smp-size;
#X obj 288 566 t f f;
#X obj 558 790 s \$0-\$1-end-phasorsnapshot;
#X obj 524 655 spigot 0;
#X obj 626 596 tgl 19 0 empty empty loop 20 10 0 12 #fcfcfc #000000 #000000 0 1;
#X obj 626 620 == 1;
#X obj 626 643 change;
#X obj 626 667 == 0;
#X obj 573 718 spigot 0;
#X obj 626 694 tgl 19 0 empty empty empty 0 -10 0 12 #fcfcfc #000000 #000000 0 1;
#X obj 626 572 r \$0-\$1-loop-queues;
#X obj 502 631 t b b b;
#X obj 530 842 s \$0-\$1-start-phasorsnapshot;
#X msg 573 742 0;
#X obj 573 765 s \$0-\$1-metrophasorstate;
#X obj 526 678 t b b;
#X obj 780 446 r \$0-\$1-start-tophasor;
#X obj 780 489 t f;
#X obj 509 507 -;
#X floatatom 52 475 5 0 0 0 - - - 0;
#X obj 510 36 t f f b;
#X obj 631 122 t b;
#X obj 113 393 t b b;
#X obj 530 816 spigot 0;
#X msg 134 42 1;
#X msg 471 584 stop;
#X obj 162 262 t b b;
#X floatatom 800 577 8 0 0 0 - - - 0;
#X floatatom 572 435 7 0 0 0 - - - 0;
#X floatatom 790 468 5 0 0 0 - - - 0;
#X floatatom 791 534 7 0 0 0 - - - 0;
#X obj 780 512 * 44100;
#X obj 780 555 / 1000;
#X obj 800 599 r \$0-\$1-end-tophasor;
#X floatatom 791 645 9 0 0 0 - - - 0;
#X floatatom 792 713 11 0 0 0 - - - 0;
#X obj 780 667 / 44100;
#X obj 780 622 *;
#X obj 781 690 * 100;
#X floatatom 791 756 8 0 0 0 - - - 0;
#X obj 781 733 / 10000;
#X obj 781 778 * 2;
#X floatatom 790 801 8 0 0 0 - - - 0;
#X floatatom 235 93 5 0 0 0 - - - 0;
#X connect 0 0 38 0;
#X connect 1 0 2 0;
#X connect 2 0 81 0;
#X connect 2 0 25 0;
#X connect 3 0 0 0;
#X connect 4 0 39 0;
#X connect 5 0 4 0;
#X connect 6 0 4 1;
#X connect 6 0 0 1;
#X connect 7 0 65 0;
#X connect 8 0 7 0;
#X connect 9 0 27 0;
#X connect 9 0 113 1;
#X connect 10 0 20 0;
#X connect 11 0 69 0;
#X connect 12 0 8 0;
#X connect 12 1 10 0;
#X connect 12 2 16 0;
#X connect 13 0 28 0;
#X connect 14 0 1 1;
#X connect 14 0 109 0;
#X connect 15 0 14 1;
#X connect 15 0 17 0;
#X connect 16 0 14 0;
#X connect 17 0 18 0;
#X connect 18 0 19 0;
#X connect 19 0 21 0;
#X connect 20 0 1 1;
#X connect 21 0 20 1;
#X connect 22 0 12 0;
#X connect 22 1 26 0;
#X connect 22 2 87 0;
#X connect 23 0 22 0;
#X connect 24 0 25 1;
#X connect 25 0 45 0;
#X connect 25 0 46 0;
#X connect 26 0 77 0;
#X connect 27 0 7 0;
#X connect 27 1 78 0;
#X connect 28 0 60 0;
#X connect 28 0 37 0;
#X connect 29 0 34 0;
#X connect 30 0 71 0;
#X connect 31 0 33 0;
#X connect 33 0 32 0;
#X connect 34 0 30 0;
#X connect 36 0 31 0;
#X connect 40 0 88 0;
#X connect 41 0 15 0;
#X connect 42 0 16 1;
#X connect 43 0 52 0;
#X connect 44 0 2 1;
#X connect 45 0 5 0;
#X connect 46 0 3 0;
#X connect 47 0 31 1;
#X connect 47 0 35 0;
#X connect 48 0 8 1;
#X connect 48 0 7 0;
#X connect 49 0 23 0;
#X connect 49 1 6 0;
#X connect 49 2 133 0;
#X connect 50 0 91 0;
#X connect 51 0 6 0;
#X connect 52 0 55 0;
#X connect 53 0 54 0;
#X connect 54 0 116 0;
#X connect 55 0 29 0;
#X connect 56 0 59 0;
#X connect 56 0 101 0;
#X connect 58 0 56 0;
#X connect 58 1 57 0;
#X connect 58 2 56 1;
#X connect 60 0 61 0;
#X connect 62 0 89 0;
#X connect 62 0 118 0;
#X connect 63 0 64 0;
#X connect 63 0 108 0;
#X connect 65 0 1 0;
#X connect 66 0 11 0;
#X connect 68 0 58 0;
#X connect 68 0 67 0;
#X connect 69 1 13 0;
#X connect 70 0 11 1;
#X connect 71 0 36 0;
#X connect 71 1 36 1;
#X connect 71 2 75 0;
#X connect 72 0 112 0;
#X connect 73 0 74 0;
#X connect 74 0 10 0;
#X connect 76 0 110 0;
#X connect 80 0 24 0;
#X connect 82 0 30 0;
#X connect 83 0 11 1;
#X connect 84 0 86 0;
#X connect 86 0 85 0;
#X connect 87 0 63 0;
#X connect 88 0 23 0;
#X connect 88 1 51 0;
#X connect 88 2 114 0;
#X connect 89 0 87 1;
#X connect 90 0 89 0;
#X connect 91 0 51 1;
#X connect 91 1 6 0;
#X connect 93 0 105 0;
#X connect 94 0 93 1;
#X connect 94 0 95 0;
#X connect 95 0 96 0;
#X connect 96 0 97 0;
#X connect 97 0 99 0;
#X connect 98 0 103 0;
#X connect 98 0 115 0;
#X connect 99 0 98 1;
#X connect 100 0 94 0;
#X connect 101 1 93 0;
#X connect 101 2 98 0;
#X connect 103 0 104 0;
#X connect 105 0 113 0;
#X connect 105 1 92 0;
#X connect 106 0 107 0;
#X connect 106 0 119 0;
#X connect 107 0 121 0;
#X connect 108 0 68 0;
#X connect 110 0 29 0;
#X connect 110 1 79 0;
#X connect 110 2 111 0;
#X connect 112 0 23 0;
#X connect 112 1 16 0;
#X connect 113 0 102 0;
#X connect 114 0 113 1;
#X connect 115 0 56 0;
#X connect 116 0 9 0;
#X connect 116 1 115 0;
#X connect 121 0 120 0;
#X connect 121 0 122 0;
#X connect 122 0 117 0;
#X connect 122 0 127 0;
#X connect 123 0 127 1;
#X connect 126 0 128 0;
#X connect 127 0 126 0;
#X connect 127 0 124 0;
#X connect 128 0 125 0;
#X connect 128 0 130 0;
#X connect 130 0 129 0;
#X connect 130 0 131 0;
#X connect 131 0 132 0;
#X connect 131 0 108 1;
#X restore 41 299 pd \$0-\$1-queue-toDAC;
#X obj 322 23 inlet;
#X obj 197 23 r \$1-tosmpengine;
#N canvas 93 519 423 272 \$0-\$1-stopsample 0;
#X obj 111 17 inlet;
#X obj 112 47 t b;
#X obj 110 73 s \$0-\$1-halt-stop;
#X obj 65 62 bng 19 250 50 0 empty empty empty 0 -10 0 12 #fcfcfc #000000 #000000;
#X connect 0 0 1 0;
#X connect 0 0 3 0;
#X connect 1 0 2 0;
#X restore 278 126 pd \$0-\$1-stopsample;
#N canvas 48 336 463 623 \$0-\$1-samplelocation 0;
#X obj 119 39 inlet;
#X obj 119 64 unpack f s;
#X obj 119 135 ==;
#X obj 141 112 \$1;
#X obj 66 181 spigot 0;
#X obj 119 159 tgl 19 0 empty empty empty 0 -10 0 12 #fcfcfc #000000 #000000 0 1;
#X obj 89 507 soundfiler;
#X obj 89 531 t f f;
#X obj 89 582 expr 44100 / $f1;
#X msg 89 482 read -resize \$1 \$2-\$3-s-array-L \$2-\$3-s-array-R;
#X obj 121 556 s \$0-\$1-smp-size;
#X obj 120 627 s \$0-\$1-raw-pitch;
#X obj 152 432 \$1;
#X obj 122 433 \$0;
#X obj 89 231 file isfile;
#X obj 89 457 pack s f f;
#X obj 89 346 symbol;
#X msg 89 323 bang;
#X obj 66 204 t b s s;
#X obj 89 255 sel 1;
#X obj 89 300 t b;
#X obj 195 277 print Error:file_cannot_be_found;
#X obj 88 605 t b f;
#X obj 163 299 s \$0-failed-smpload;
#X obj 163 254 t b b;
#X obj 89 278 del;
#X floatatom 129 205 5 0 0 0 - - - 0;
#X obj 198 131 symbol;
#X msg 198 109 bang;
#X obj 198 64 t b s;
#X obj 198 87 del;
#X obj 119 90 t f b b;
#X msg 165 132 0;
#X obj 89 409 t s b b s;
#X obj 211 401 s \$0-\$1-smp-file-loc;
#X obj 237 586 s \$0-\$1-done-smpload;
#X connect 0 0 1 0;
#X connect 1 0 31 0;
#X connect 1 1 29 0;
#X connect 2 0 5 0;
#X connect 3 0 2 1;
#X connect 4 0 18 0;
#X connect 5 0 4 1;
#X connect 6 0 7 0;
#X connect 7 0 8 0;
#X connect 7 1 10 0;
#X connect 8 0 22 0;
#X connect 9 0 6 0;
#X connect 12 0 15 2;
#X connect 13 0 15 1;
#X connect 14 0 19 0;
#X connect 14 0 26 0;
#X connect 14 1 24 0;
#X connect 15 0 9 0;
#X connect 16 0 33 0;
#X connect 17 0 16 0;
#X connect 18 1 14 0;
#X connect 18 2 16 1;
#X connect 19 0 25 0;
#X connect 20 0 17 0;
#X connect 22 0 35 0;
#X connect 22 1 11 0;
#X connect 24 0 23 0;
#X connect 24 1 21 0;
#X connect 25 0 20 0;
#X connect 27 0 4 0;
#X connect 28 0 27 0;
#X connect 29 0 30 0;
#X connect 29 1 27 1;
#X connect 30 0 28 0;
#X connect 31 0 2 0;
#X connect 31 1 3 0;
#X connect 31 2 32 0;
#X connect 32 0 5 0;
#X connect 33 0 15 0;
#X connect 33 1 13 0;
#X connect 33 2 12 0;
#X connect 33 3 34 0;
#X restore 200 97 pd \$0-\$1-samplelocation;
#N canvas 91 161 450 300 \$0-\$1-playsample 0;
#X obj 119 36 inlet;
#X obj 119 135 ==;
#X obj 152 116 \$1;
#X obj 119 159 tgl 19 0 empty empty empty 0 -10 0 12 #fcfcfc #000000 #000000 0 1;
#X obj 119 183 sel 1;
#X obj 119 207 t b;
#X obj 119 64 unpack f;
#X obj 119 231 s \$0-\$1-play-loadedsmpl;
#X msg 202 113 0;
#X obj 119 90 t f b b;
#X connect 0 0 6 0;
#X connect 1 0 3 0;
#X connect 2 0 1 1;
#X connect 3 0 4 0;
#X connect 4 0 5 0;
#X connect 5 0 7 0;
#X connect 6 0 9 0;
#X connect 8 0 3 0;
#X connect 9 0 1 0;
#X connect 9 1 2 0;
#X connect 9 2 8 0;
#X restore 337 156 pd \$0-\$1-playsample;
#N canvas 144 129 450 300 \$0-\$1-looping 0;
#X obj 115 28 inlet;
#X obj 119 135 ==;
#X obj 152 116 \$1;
#X obj 66 181 spigot 0;
#X obj 119 159 tgl 19 0 empty empty empty 0 -10 0 12 #fcfcfc #000000 #000000 0 1;
#X obj 66 205 s \$0-\$1-loop-queues;
#X obj 119 64 unpack f f;
#X obj 247 125 r \$0-done-smpload;
#X obj 247 148 t b;
#X msg 200 179 0;
#X msg 207 103 0;
#X obj 119 90 t f b b;
#X obj 248 172 del;
#X connect 0 0 6 0;
#X connect 1 0 4 0;
#X connect 2 0 1 1;
#X connect 3 0 5 0;
#X connect 4 0 3 1;
#X connect 6 0 11 0;
#X connect 6 1 3 0;
#X connect 7 0 8 0;
#X connect 8 0 12 0;
#X connect 9 0 5 0;
#X connect 10 0 4 0;
#X connect 11 0 1 0;
#X connect 11 1 2 0;
#X connect 11 2 10 0;
#X connect 12 0 9 0;
#X restore 407 186 pd \$0-\$1-looping;
#N canvas 218 316 450 300 \$0-\$1-playfrom 0;
#X obj 115 28 inlet;
#X obj 119 135 ==;
#X obj 152 116 \$1;
#X obj 66 181 spigot 0;
#X obj 119 159 tgl 19 0 empty empty empty 0 -10 0 12 #fcfcfc #000000 #000000 0 1;
#X obj 66 206 s \$0-\$1-playfrom-start;
#X obj 119 64 unpack f f;
#X obj 191 115 r \$0-done-smpload;
#X obj 190 140 t b;
#X msg 194 162 0;
#X obj 137 89 t f b b;
#X msg 205 92 0;
#X connect 0 0 6 0;
#X connect 1 0 4 0;
#X connect 2 0 1 1;
#X connect 3 0 5 0;
#X connect 4 0 3 1;
#X connect 6 0 10 0;
#X connect 6 1 3 0;
#X connect 7 0 8 0;
#X connect 8 0 9 0;
#X connect 9 0 5 0;
#X connect 10 0 1 0;
#X connect 10 1 2 0;
#X connect 10 2 11 0;
#X connect 11 0 4 0;
#X restore 465 220 pd \$0-\$1-playfrom;
#N canvas 218 316 450 300 \$0-\$1-monitorvolume 0;
#X obj 115 28 inlet;
#X obj 119 135 ==;
#X obj 119 90 t f b;
#X obj 152 116 \$1;
#X obj 66 181 spigot 0;
#X obj 119 159 tgl 19 0 empty empty empty 0 -10 0 12 #fcfcfc #000000 #000000 0 1;
#X obj 66 205 s \$0-\$1-smp-monitor;
#X obj 119 64 unpack f f;
#X connect 0 0 7 0;
#X connect 1 0 5 0;
#X connect 2 0 1 0;
#X connect 2 1 3 0;
#X connect 3 0 1 1;
#X connect 4 0 6 0;
#X connect 5 0 4 1;
#X connect 7 0 2 0;
#X connect 7 1 4 0;
#X restore 526 249 pd \$0-\$1-monitorvolume;
#X obj 54 93 adc~ 1;
#X obj 54 117 hip~ 3;
#X obj 23 184 bng 19 250 50 0 empty empty empty 0 -10 0 12 #fcfcfc #000000 #000000;
#X obj 50 218 tabwrite~ \$0-\$1-s-array-L;
#X obj 62 239 tabwrite~ \$0-\$1-s-array-R;
#N canvas 564 249 450 300 \$0-\$1-phasor-pitch 0;
#X obj 115 28 inlet;
#X obj 119 135 ==;
#X obj 119 90 t f b;
#X obj 152 116 \$1;
#X obj 66 184 spigot 0;
#X obj 119 159 tgl 19 0 empty empty empty 0 -10 0 12 #fcfcfc #000000 #000000 0 1;
#X obj 119 64 unpack f f;
#X floatatom 65 250 5 0 0 0 - - - 0;
#X obj 76 212 s \$0-\$1-pitch-tophasor;
#X connect 0 0 6 0;
#X connect 1 0 5 0;
#X connect 2 0 1 0;
#X connect 2 1 3 0;
#X connect 3 0 1 1;
#X connect 4 0 7 0;
#X connect 4 0 8 0;
#X connect 5 0 4 1;
#X connect 6 0 2 0;
#X connect 6 1 4 0;
#X restore 652 309 pd \$0-\$1-phasor-pitch;
#N canvas 218 316 450 300 \$0-\$1-recvolume 0;
#X obj 115 28 inlet;
#X obj 119 135 ==;
#X obj 119 90 t f b;
#X obj 152 116 \$1;
#X obj 66 181 spigot 0;
#X obj 119 159 tgl 19 0 empty empty empty 0 -10 0 12 #fcfcfc #000000 #000000 0 1;
#X obj 119 64 unpack f f;
#X obj 66 205 s \$0-\$1-rec-volume;
#X connect 0 0 6 0;
#X connect 1 0 5 0;
#X connect 2 0 1 0;
#X connect 2 1 3 0;
#X connect 3 0 1 1;
#X connect 4 0 7 0;
#X connect 5 0 4 1;
#X connect 6 0 2 0;
#X connect 6 1 4 0;
#X restore 717 338 pd \$0-\$1-recvolume;
#N canvas 218 316 450 300 \$0-\$1-outvolume 0;
#X obj 115 28 inlet;
#X obj 119 135 ==;
#X obj 119 90 t f b;
#X obj 152 116 \$1;
#X obj 66 181 spigot 0;
#X obj 119 159 tgl 19 0 empty empty empty 0 -10 0 12 #fcfcfc #000000 #000000 0 1;
#X obj 119 64 unpack f f;
#X obj 66 205 s \$0-\$1-out-volume;
#X connect 0 0 6 0;
#X connect 1 0 5 0;
#X connect 2 0 1 0;
#X connect 2 1 3 0;
#X connect 3 0 1 1;
#X connect 4 0 7 0;
#X connect 5 0 4 1;
#X connect 6 0 2 0;
#X connect 6 1 4 0;
#X restore 785 365 pd \$0-\$1-outvolume;
#X obj 81 140 r \$0-\$1-rec-volume;
#X obj 63 165 *~;
#X obj 96 165 r \$0-\$1-rec-volume;
#X obj 78 190 *~;
#N canvas 128 37 1001 704 \$0-\$1-phasor-startend 0;
#X obj 166 36 inlet;
#X obj 561 592 s \$0-\$1-start-tosamples;
#X obj 178 289 list append;
#X obj 169 195 f;
#X obj 178 312 t a a a b;
#X obj 302 434 list append;
#X obj 178 363 sel 0 1 2 3;
#X obj 178 394 f;
#X obj 220 392 f;
#X obj 269 361 t f f f f;
#X obj 260 395 f;
#X obj 302 393 f;
#X obj 169 171 sel 0;
#X obj 212 170 t f;
#X obj 302 458 t a a a b;
#X obj 298 526 sel 0 1 2 3;
#X obj 298 578 f;
#X obj 340 576 f;
#X obj 391 521 t f f f f;
#X obj 380 579 f;
#X obj 422 576 f;
#X floatatom 788 135 5 0 0 0 - - - 0;
#X obj 604 180 t b f;
#X obj 822 92 t b f;
#X obj 547 262 sel 1;
#X obj 541 288 t b;
#X obj 580 289 t b;
#X obj 579 313 f;
#X obj 552 207 t f f f;
#X obj 573 181 +;
#X obj 551 233 > 1;
#X msg 541 313 1;
#X obj 627 152 / 4;
#X obj 772 106 +;
#X obj 767 210 sel 1;
#X obj 723 235 t b;
#X obj 800 237 t b;
#X obj 799 261 f;
#X obj 772 155 t f f f;
#X obj 723 287 t f;
#X obj 771 181 > 1;
#X msg 723 260 1;
#X obj 830 399 vsl 19 50 0 604801 0 0 empty empty empty 0 -9 0 12 #fcfcfc #000000 #000000 0 1;
#X obj 815 366 *;
#X msg 860 388 range 0 \$1;
#X obj 860 365 t f f;
#X obj 564 531 vsl 19 50 0 604801 0 0 empty empty empty 0 -9 0 12 #fcfcfc #000000 #000000 0 1;
#X msg 571 504 range 0 \$1;
#X obj 570 479 t f f;
#X obj 547 351 t f f;
#X floatatom 727 313 5 0 0 0 - - - 0;
#X floatatom 788 398 5 0 0 0 - - - 0;
#X floatatom 810 330 5 0 0 0 - - - 0;
#X obj 829 458 s \$0-\$1-end-tophasor;
#X obj 544 379 s \$0-\$1-start-tophasor;
#X obj 298 631 s \$0-\$1-corse-start;
#X obj 340 659 s \$0-\$1-fine-start;
#X obj 413 607 s \$0-\$1-corse-end;
#X obj 456 630 s \$0-\$1-fine-end;
#X obj 811 302 r \$0-\$1-smp-size;
#X obj 565 71 r \$0-\$1-corse-start;
#X obj 625 127 r \$0-\$1-fine-start;
#X obj 767 9 r \$0-\$1-corse-end;
#X obj 817 41 r \$0-\$1-fine-end;
#X obj 569 453 r \$0-\$1-smp-size;
#X obj 860 342 r \$0-\$1-smp-size;
#X obj 539 437 *;
#X obj 555 411 r \$0-\$1-smp-size;
#X msg 86 113 \$1;
#X obj 85 136 sel 0;
#X obj 118 113 \$1;
#X msg 170 148 \$2;
#X msg 212 149 \$2;
#X obj 33 233 spigot 0;
#X obj 86 209 tgl 19 0 empty empty empty 0 -10 0 12 #fcfcfc #000000 #000000 0 1;
#X msg 86 186 1;
#X msg 117 184 0;
#X obj 85 88 t a b a;
#X obj 170 124 t a a a b a;
#X obj 85 159 t b;
#X obj 117 159 t b;
#X msg 377 402 \$3;
#X msg 298 498 \$1;
#X msg 385 486 \$2;
#X msg 178 337 \$2;
#X msg 250 194 \$3 \$4;
#X msg 212 337 \$2;
#X msg 423 89 0;
#X msg 464 89 1;
#X obj 419 67 t b b;
#X floatatom 478 562 5 0 0 0 - - - 0;
#X obj 420 42 r \$0-\$1-done-smpload;
#X floatatom 845 211 5 0 0 0 - - - 0;
#X obj 820 65 / 4;
#X floatatom 500 669 5 0 0 0 - - - 0;
#X connect 0 0 78 0;
#X connect 2 0 4 0;
#X connect 3 0 73 0;
#X connect 4 0 84 0;
#X connect 4 1 86 0;
#X connect 4 2 81 0;
#X connect 4 3 5 1;
#X connect 5 0 14 0;
#X connect 6 0 7 0;
#X connect 6 1 8 0;
#X connect 6 2 10 0;
#X connect 6 3 11 0;
#X connect 7 0 5 0;
#X connect 8 0 5 0;
#X connect 9 0 7 1;
#X connect 9 1 8 1;
#X connect 9 2 10 1;
#X connect 9 3 11 1;
#X connect 10 0 5 0;
#X connect 11 0 5 0;
#X connect 12 0 3 0;
#X connect 13 0 3 1;
#X connect 14 0 82 0;
#X connect 14 1 83 0;
#X connect 15 0 16 0;
#X connect 15 1 17 0;
#X connect 15 2 19 0;
#X connect 15 3 20 0;
#X connect 16 0 55 0;
#X connect 17 0 56 0;
#X connect 18 0 16 1;
#X connect 18 1 17 1;
#X connect 18 2 19 1;
#X connect 18 3 20 1;
#X connect 19 0 57 0;
#X connect 19 0 94 0;
#X connect 20 0 58 0;
#X connect 20 0 90 0;
#X connect 22 0 29 0;
#X connect 22 1 29 1;
#X connect 23 0 33 0;
#X connect 23 1 33 1;
#X connect 24 0 25 0;
#X connect 24 1 26 0;
#X connect 25 0 31 0;
#X connect 26 0 27 0;
#X connect 27 0 49 0;
#X connect 28 0 30 0;
#X connect 28 2 27 1;
#X connect 29 0 28 0;
#X connect 30 0 24 0;
#X connect 31 0 49 0;
#X connect 32 0 22 0;
#X connect 33 0 21 0;
#X connect 33 0 38 0;
#X connect 34 0 35 0;
#X connect 34 1 36 0;
#X connect 35 0 41 0;
#X connect 36 0 37 0;
#X connect 37 0 39 0;
#X connect 38 0 40 0;
#X connect 38 2 37 1;
#X connect 39 0 43 0;
#X connect 39 0 50 0;
#X connect 40 0 34 0;
#X connect 40 0 92 0;
#X connect 41 0 39 0;
#X connect 42 0 53 0;
#X connect 43 0 42 0;
#X connect 43 0 51 0;
#X connect 44 0 42 0;
#X connect 45 0 44 0;
#X connect 46 0 1 0;
#X connect 47 0 46 0;
#X connect 48 0 47 0;
#X connect 49 0 54 0;
#X connect 49 1 66 0;
#X connect 59 0 43 1;
#X connect 59 0 52 0;
#X connect 60 0 29 0;
#X connect 61 0 32 0;
#X connect 62 0 33 0;
#X connect 63 0 93 0;
#X connect 64 0 48 0;
#X connect 65 0 45 0;
#X connect 66 0 46 0;
#X connect 67 0 66 1;
#X connect 68 0 69 0;
#X connect 69 0 79 0;
#X connect 69 1 80 0;
#X connect 70 0 69 1;
#X connect 71 0 12 0;
#X connect 72 0 13 0;
#X connect 73 0 2 0;
#X connect 74 0 73 1;
#X connect 75 0 74 0;
#X connect 76 0 74 0;
#X connect 77 0 68 0;
#X connect 77 1 70 0;
#X connect 78 0 71 0;
#X connect 78 1 72 0;
#X connect 78 2 85 0;
#X connect 78 3 2 1;
#X connect 78 4 77 0;
#X connect 79 0 75 0;
#X connect 80 0 76 0;
#X connect 81 0 5 1;
#X connect 82 0 15 0;
#X connect 83 0 18 0;
#X connect 84 0 6 0;
#X connect 85 0 2 1;
#X connect 86 0 9 0;
#X connect 87 0 32 0;
#X connect 87 0 29 0;
#X connect 88 0 33 0;
#X connect 88 0 93 0;
#X connect 89 0 87 0;
#X connect 89 1 88 0;
#X connect 91 0 89 0;
#X connect 93 0 23 0;
#X restore 586 280 pd \$0-\$1-phasor-startend;
#X obj 301 427 outlet;
#X obj 307 320 t b;
#X obj 426 373 r \$0-failed-smpload;
#X msg 427 399 smp_failed;
#X msg 320 398 smp_loaded \$1;
#X obj 321 376 pack f;
#X obj 324 351 f;
#X obj 340 321 r \$0-\$1-smp-size;
#N canvas 256 153 658 416 \$0-\$1-getdatarequest 0;
#X obj 66 45 inlet;
#X obj 66 114 ==;
#X obj 66 91 t f b;
#X obj 98 113 \$1;
#X obj 66 184 spigot 0;
#X obj 119 162 tgl 19 0 empty empty empty 0 -10 0 12 #fcfcfc #000000 #000000 0 1;
#X msg 67 232 bang;
#X obj 67 255 symbol;
#X obj 67 208 t b;
#X obj 166 139 r \$0-\$1-loop-queues;
#X obj 193 115 r \$0-\$1-playfrom-start;
#X obj 223 89 r \$0-\$1-smp-monitor;
#X obj 245 63 r \$0-\$1-rec-volume;
#X obj 265 35 r \$0-\$1-out-volume;
#X obj 313 208 r \$0-\$1-corse-start;
#X obj 342 181 r \$0-\$1-fine-start;
#X obj 370 154 r \$0-\$1-corse-end;
#X obj 397 128 r \$0-\$1-fine-end;
#X obj 278 233 r \$0-\$1-smp-size;
#X obj 63 348 s \$0-gotData-req;
#X symbolatom 193 345 10 0 0 0 - - - 0;
#X obj 114 223 r \$0-\$1-smp-file-loc;
#X obj 66 68 unpack f;
#X floatatom 254 180 5 0 0 0 - - - 0;
#X obj 66 137 t b f b;
#X floatatom 277 344 8 0 0 0 - - - 0;
#X obj 422 103 r \$0-\$1-pitch-tophasor;
#X floatatom 464 234 5 0 0 0 - - - 0;
#X floatatom 447 263 5 0 0 0 - - - 0;
#X floatatom 428 285 5 0 0 0 - - - 0;
#X floatatom 397 347 5 0 0 0 - - - 0;
#X floatatom 349 346 5 0 0 0 - - - 0;
#X obj 447 79 r \$0-\$1-listen-midi-ch;
#X floatatom 478 208 5 0 0 0 - - - 0;
#X obj 460 53 r \$0-\$1-listen-midi-note;
#X obj 65 293 pack s f f f f f f f f f f f f f, f 42;
#X msg 68 320 got_data_request \$1 \$2 \$3 \$4 \$5 \$6 \$7 \$8 \$9 \$10 \$11 \$12 \$13 \$14, f 67;
#X connect 0 0 22 0;
#X connect 1 0 24 0;
#X connect 2 0 1 0;
#X connect 2 1 3 0;
#X connect 3 0 1 1;
#X connect 4 0 8 0;
#X connect 5 0 4 1;
#X connect 6 0 7 0;
#X connect 7 0 35 0;
#X connect 8 0 6 0;
#X connect 9 0 23 0;
#X connect 9 0 35 1;
#X connect 10 0 35 2;
#X connect 11 0 35 3;
#X connect 12 0 35 4;
#X connect 13 0 35 5;
#X connect 14 0 31 0;
#X connect 14 0 35 7;
#X connect 15 0 30 0;
#X connect 15 0 35 8;
#X connect 16 0 29 0;
#X connect 16 0 35 9;
#X connect 17 0 28 0;
#X connect 17 0 35 10;
#X connect 18 0 25 0;
#X connect 18 0 35 6;
#X connect 21 0 7 1;
#X connect 21 0 20 0;
#X connect 22 0 2 0;
#X connect 24 0 4 0;
#X connect 24 1 5 0;
#X connect 26 0 27 0;
#X connect 26 0 35 11;
#X connect 32 0 33 0;
#X connect 32 0 35 12;
#X connect 34 0 35 13;
#X connect 35 0 36 0;
#X connect 36 0 19 0;
#X restore 844 390 pd \$0-\$1-getdatarequest;
#X obj 195 385 r \$0-gotData-req;
#X obj 195 408 t a;
#X obj 307 296 r \$0-\$1-done-smpload;
#N canvas 556 210 504 442 \$0-\$1-incomming-midinote 0;
#X obj 114 27 inlet;
#X obj 159 343 t f;
#X obj 89 344 t f;
#X obj 162 371 s \$0-\$1-in-midi-vel;
#X obj 89 395 s \$0-\$1-in-midi-note;
#X obj 90 318 unpack f f;
#X floatatom 210 346 5 0 0 0 - - - 0;
#X obj 164 79 list length;
#X obj 164 125 == 2;
#X obj 237 146 == 3;
#X obj 112 152 spigot 0;
#X obj 184 173 spigot 0;
#X obj 164 102 t f f;
#X obj 281 146 tgl 19 0 empty empty empty 0 -10 0 12 #fcfcfc #000000 #000000 0 1;
#X obj 206 134 tgl 19 0 empty empty empty 0 -10 0 12 #fcfcfc #000000 #000000 0 1;
#X obj 117 55 t a a a;
#X obj 278 220 t f;
#X obj 229 243 t f;
#X obj 281 248 s \$0-\$1-in-midi-vel;
#X obj 230 270 s \$0-\$1-in-midi-note;
#X floatatom 329 223 5 0 0 0 - - - 0;
#X obj 185 200 unpack f f f;
#X obj 182 292 t f;
#X floatatom 233 295 5 0 0 0 - - - 0;
#X obj 185 320 s \$0-\$1-in-midi-ch;
#X connect 0 0 15 0;
#X connect 1 0 3 0;
#X connect 1 0 6 0;
#X connect 2 0 4 0;
#X connect 5 0 2 0;
#X connect 5 1 1 0;
#X connect 7 0 12 0;
#X connect 8 0 10 1;
#X connect 8 0 14 0;
#X connect 9 0 11 1;
#X connect 9 0 13 0;
#X connect 10 0 5 0;
#X connect 11 0 21 0;
#X connect 12 0 8 0;
#X connect 12 1 9 0;
#X connect 15 0 10 0;
#X connect 15 1 11 0;
#X connect 15 2 7 0;
#X connect 16 0 18 0;
#X connect 16 0 20 0;
#X connect 17 0 19 0;
#X connect 21 0 22 0;
#X connect 21 1 17 0;
#X connect 21 2 16 0;
#X connect 22 0 23 0;
#X connect 22 0 24 0;
#X restore 900 419 pd \$0-\$1-incomming-midinote;
#N canvas 180 378 357 300 \$0-\$1-listen-midinote 0;
#X obj 115 28 inlet;
#X obj 58 225 s \$0-\$1-listen-midi-note;
#X obj 115 124 ==;
#X obj 148 105 \$1;
#X obj 115 148 tgl 19 0 empty empty empty 0 -10 0 12 #fcfcfc #000000 #000000 0 1;
#X msg 198 102 0;
#X obj 115 79 t f b b;
#X obj 115 53 unpack f f;
#X obj 62 171 spigot 0;
#X obj 62 148 t f;
#X obj 61 199 t f;
#X connect 0 0 7 0;
#X connect 2 0 4 0;
#X connect 3 0 2 1;
#X connect 4 0 8 1;
#X connect 5 0 4 0;
#X connect 6 0 2 0;
#X connect 6 1 3 0;
#X connect 6 2 5 0;
#X connect 7 0 6 0;
#X connect 7 1 9 0;
#X connect 8 0 10 0;
#X connect 9 0 8 0;
#X connect 10 0 1 0;
#X restore 933 450 pd \$0-\$1-listen-midinote;
#X obj 390 20 r toallsmpengine;
#X obj 199 48 route set_smploc stop_smp play_smp set_loop set_startat set_monvol set_queues set_pitch set_recvol set_outvol get_smpdata triggermidi set_midinote set_midich, f 108;
#N canvas 120 412 355 300 \$0-\$1-listen-midich 0;
#X obj 115 28 inlet;
#X obj 66 231 s \$0-\$1-listen-midi-ch;
#X obj 119 135 ==;
#X obj 152 116 \$1;
#X obj 119 159 tgl 19 0 empty empty empty 0 -10 0 12 #fcfcfc #000000 #000000 0 1;
#X msg 202 113 0;
#X obj 119 90 t f b b;
#X obj 119 64 unpack f f;
#X obj 66 182 spigot 0;
#X obj 66 205 t f;
#X obj 66 159 t f;
#X connect 0 0 7 0;
#X connect 2 0 4 0;
#X connect 3 0 2 1;
#X connect 4 0 8 1;
#X connect 5 0 4 0;
#X connect 6 0 2 0;
#X connect 6 1 3 0;
#X connect 6 2 5 0;
#X connect 7 0 6 0;
#X connect 7 1 10 0;
#X connect 8 0 9 0;
#X connect 9 0 1 0;
#X connect 10 0 8 0;
#X restore 966 477 pd \$0-\$1-listen-midich;
#X connect 3 0 0 0;
#X connect 3 1 0 1;
#X connect 5 0 40 0;
#X connect 12 0 13 0;
#X connect 13 0 21 0;
#X connect 13 0 23 0;
#X connect 14 0 15 0;
#X connect 14 0 16 0;
#X connect 20 0 21 1;
#X connect 21 0 15 0;
#X connect 22 0 23 1;
#X connect 23 0 16 0;
#X connect 26 0 31 0;
#X connect 27 0 28 0;
#X connect 28 0 25 0;
#X connect 29 0 25 0;
#X connect 30 0 29 0;
#X connect 31 0 30 0;
#X connect 32 0 31 1;
#X connect 34 0 35 0;
#X connect 35 0 25 0;
#X connect 36 0 26 0;
#X connect 39 0 40 0;
#X connect 40 0 7 0;
#X connect 40 1 6 0;
#X connect 40 2 8 0;
#X connect 40 3 9 0;
#X connect 40 4 10 0;
#X connect 40 5 11 0;
#X connect 40 6 24 0;
#X connect 40 7 17 0;
#X connect 40 8 18 0;
#X connect 40 9 19 0;
#X connect 40 10 33 0;
#X connect 40 11 37 0;
#X connect 40 12 38 0;
#X connect 40 13 41 0;
