#N canvas 361 51 1125 370 12;
#X declare -path clearessentials;
#X msg 461 217 setjoiner symbol;
#X text 27 46 Written By: Reg Finley;
#X text 26 67 Aka Scr1ptAl1as;
#X text 28 106 Pd 0.52.2;
#X text 655 3 Note* Atoms can be passed to recive a number as a symbol.
;
#X text 230 3 [tolowercase] turns symbols that contain capital letters
to all lowercase.;
#X text 26 85 2022/06/13 11:45 PM;
#X text 26 27 tolowercase v1.0;
#X text 229 36 Joiner can be set for a desired result.;
#N canvas 947 480 656 454 \$0-examplepatch 0;
#X obj 45 26 bng 15 250 50 0 empty empty empty 17 7 0 10 #fcfcfc #000000
#000000;
#X obj 20 274 bng 15 250 50 0 empty empty empty 17 7 0 10 #fcfcfc #000000
#000000;
#X msg 52 342 setjoiner symbol;
#X msg 77 92 setjoiner symbol /;
#X msg 45 68 symbol This_Is_A_Symbol_With_Caps;
#X msg 20 317 symbol Notice what happens.;
#X text 17 248 A symbol can not contain spaces;
#X floatatom 272 354 5 0 0 0 - - - 0;
#X obj 45 44 t b b;
#X obj 20 292 t b b;
#X obj 140 141 print X1;
#X msg 272 329 5;
#X floatatom 384 71 5 0 0 0 - - - 0;
#X text 314 334 this is a side effect but still very useful.;
#X text 309 353 Atoms can be converted into symbols quicky;
#X text 450 111 using $ to assign a float;
#X obj 475 229 print X2;
#X obj 345 405 print X3;
#X obj 41 393 print X4;
#X msg 383 46 10;
#X msg 412 180 setjoiner symbol;
#X text 450 131 inside of the symbol;
#X obj 385 94 pack f f;
#X obj 437 44 loadbang;
#X obj 436 68 \$0;
#X msg 400 154 symbol \$2-\$1-TeSt-ReCv;
#X obj 387 120 t b a b;
#X obj 66 116 ce_tolowercase;
#X obj 41 367 ce_tolowercase;
#X obj 271 378 ce_tolowercase;
#X obj 401 204 ce_tolowercase;
#X connect 0 0 8 0;
#X connect 1 0 9 0;
#X connect 2 0 28 0;
#X connect 3 0 27 0;
#X connect 4 0 27 0;
#X connect 5 0 28 0;
#X connect 7 0 29 0;
#X connect 8 0 4 0;
#X connect 8 1 3 0;
#X connect 9 0 5 0;
#X connect 9 1 2 0;
#X connect 11 0 7 0;
#X connect 12 0 22 0;
#X connect 19 0 12 0;
#X connect 20 0 30 0;
#X connect 22 0 26 0;
#X connect 23 0 24 0;
#X connect 24 0 22 1;
#X connect 25 0 30 0;
#X connect 26 1 25 0;
#X connect 26 2 20 0;
#X connect 27 1 10 0;
#X connect 28 0 18 0;
#X connect 29 1 17 0;
#X connect 30 1 16 0;
#X restore 29 211 pd \$0-examplepatch;
#X msg 435 192 setsymbol HELLO-testing1!2@34-TESTing123;
#X obj 28 152 reportissue;
#X obj 28 132 aboutexternal;
#X obj 450 268 print example_list;
#X obj 592 266 print example;
#X text 656 27 One more thing $ dollar signs will be replaced and sent
to outlet but may throw a error if not connected to a [pack] or a [list]
with the proper $ dollar sign identifier.;
#X obj 450 242 ce_tolowercase;
#X obj 14 6 declare -path clearessentials;
#X obj 28 172 watchtutorial;
#X connect 0 0 16 0;
#X connect 10 0 16 0;
#X connect 16 0 13 0;
#X connect 16 1 14 0;
