#N canvas 1044 83 783 339 12;
#X declare -path clearessentials;
#X obj 238 146 ce_timediv;
#X text 36 56 Written By: Reg Finley;
#X text 35 77 Aka Scr1ptAl1as;
#X obj 36 158 reportissue;
#X obj 37 142 aboutexternal;
#X text 10 260 Outlet(s);
#X obj 27 5 declare -path clearessentials;
#X obj 38 177 watchtutorial;
#X text 233 56 13 time divisions in total as described below.;
#X text 233 81 1 | 1.25 | 1.5 | 1.75 | 2 | 2.25 | 2.5 | 2.75 | 3 | 4 | 8 | 16 | 32, f 68;
#X obj 304 122 hradio 19 1 0 13 empty empty empty 0 -10 0 12 #fcfcfc #000000 #000000 0;
#X text 235 5 [ce_timediv] ia a smal tool that provides a tick rate in mills based on the given float. Once mills is set then time divistion can be adjusted using a radio object.];
#X msg 236 122 380;
#X symbolatom 277 171 10 0 0 1 <<\ Displayed\ time\ division\ as\ symbol - - 0;
#X floatatom 232 172 5 0 0 0 - - - 0;
#X text 35 37 ce_timediv v1.0;
#X text 35 93 2022/07/27 1:32 PM;
#X text 37 116 Pd 0.54.0;
#X text 94 280 1 - symbol;
#X text 94 259 0 - float;
#X text 94 209 0 - float;
#X text 10 210 Inlet(s);
#X text 94 230 1 - float max values 0-12;
#X connect 0 0 14 0;
#X connect 0 1 13 0;
#X connect 10 0 0 1;
#X connect 12 0 0 0;
