#N canvas 565 54 1224 640 12;
#X obj 249 310 bng 15 250 50 0 empty empty A 17 7 0 10 #fcfcfc #000000
#000000;
#X obj 280 308 bng 15 250 50 0 empty empty B 17 7 0 10 #fcfcfc #000000
#000000;
#X obj 311 309 bng 15 250 50 0 empty empty C 17 7 0 10 #fcfcfc #000000
#000000;
#X obj 342 307 bng 15 250 50 0 empty empty D 17 7 0 10 #fcfcfc #000000
#000000;
#X obj 371 310 bng 15 250 50 0 empty empty E 17 7 0 10 #fcfcfc #000000
#000000;
#X obj 402 308 bng 15 250 50 0 empty empty F 17 7 0 10 #fcfcfc #000000
#000000;
#X obj 433 309 bng 15 250 50 0 empty empty G 17 7 0 10 #fcfcfc #000000
#000000;
#X obj 464 307 bng 15 250 50 0 empty empty H 17 7 0 10 #fcfcfc #000000
#000000;
#X obj 492 311 bng 15 250 50 0 empty empty I 17 7 0 10 #fcfcfc #000000
#000000;
#X obj 523 309 bng 15 250 50 0 empty empty J 17 7 0 10 #fcfcfc #000000
#000000;
#X obj 554 310 bng 15 250 50 0 empty empty K 17 7 0 10 #fcfcfc #000000
#000000;
#X obj 585 308 bng 15 250 50 0 empty empty L 17 7 0 10 #fcfcfc #000000
#000000;
#X obj 614 311 bng 15 250 50 0 empty empty M 17 7 0 10 #fcfcfc #000000
#000000;
#X obj 645 309 bng 15 250 50 0 empty empty N 17 7 0 10 #fcfcfc #000000
#000000;
#X obj 676 310 bng 15 250 50 0 empty empty O 17 7 0 10 #fcfcfc #000000
#000000;
#X obj 707 308 bng 15 250 50 0 empty empty P 17 7 0 10 #fcfcfc #000000
#000000;
#X obj 741 308 bng 15 250 50 0 empty empty Q 17 7 0 10 #fcfcfc #000000
#000000;
#X obj 772 306 bng 15 250 50 0 empty empty R 17 7 0 10 #fcfcfc #000000
#000000;
#X obj 803 307 bng 15 250 50 0 empty empty S 17 7 0 10 #fcfcfc #000000
#000000;
#X obj 834 305 bng 15 250 50 0 empty empty T 17 7 0 10 #fcfcfc #000000
#000000;
#X obj 863 308 bng 15 250 50 0 empty empty U 17 7 0 10 #fcfcfc #000000
#000000;
#X obj 894 306 bng 15 250 50 0 empty empty V 17 7 0 10 #fcfcfc #000000
#000000;
#X obj 925 307 bng 15 250 50 0 empty empty W 17 7 0 10 #fcfcfc #000000
#000000;
#X obj 956 305 bng 15 250 50 0 empty empty X 17 7 0 10 #fcfcfc #000000
#000000;
#X obj 984 305 bng 15 250 50 0 empty empty Y 17 7 0 10 #fcfcfc #000000
#000000;
#X obj 1015 305 bng 15 250 50 0 empty empty Z 17 7 0 10 #fcfcfc #000000
#000000;
#X obj 230 165 s2l;
#X obj 230 188 list-drip;
#X msg 230 237 \$1;
#X obj 22 252 symbol;
#X msg 22 227 bang;
#X obj 22 201 r \$0-raplacecasebng;
#X obj 61 224 r \$0-raplacecase;
#X msg 71 322 bang;
#N canvas 407 237 416 300 \$0-ifA 0;
#X obj 93 52 inlet;
#X obj 93 128 t b s;
#X obj 93 156 s \$0-raplacecasebng;
#X obj 125 181 s \$0-raplacecase;
#X msg 93 102 symbol a;
#X obj 93 76 t b;
#X connect 0 0 5 0;
#X connect 1 0 2 0;
#X connect 1 1 3 0;
#X connect 4 0 1 0;
#X connect 5 0 4 0;
#X restore 242 391 pd \$0-ifA;
#X obj 242 366 t b;
#N canvas 407 237 416 300 \$0-ifB 0;
#X obj 93 52 inlet;
#X obj 93 128 t b s;
#X obj 93 156 s \$0-raplacecasebng;
#X obj 125 181 s \$0-raplacecase;
#X obj 93 76 t b;
#X msg 93 102 symbol b;
#X connect 0 0 4 0;
#X connect 1 0 2 0;
#X connect 1 1 3 0;
#X connect 4 0 5 0;
#X connect 5 0 1 0;
#X restore 274 367 pd \$0-ifB;
#X obj 276 341 t b;
#X obj 348 367 t b;
#X obj 382 342 t b;
#N canvas 407 237 416 300 \$0-ifC 0;
#X obj 93 52 inlet;
#X obj 93 128 t b s;
#X obj 93 156 s \$0-raplacecasebng;
#X obj 125 181 s \$0-raplacecase;
#X obj 93 76 t b;
#X msg 93 102 symbol c;
#X connect 0 0 4 0;
#X connect 1 0 2 0;
#X connect 1 1 3 0;
#X connect 4 0 5 0;
#X connect 5 0 1 0;
#X restore 349 391 pd \$0-ifC;
#N canvas 407 237 416 300 \$0-ifD 0;
#X obj 93 52 inlet;
#X obj 93 128 t b s;
#X obj 93 156 s \$0-raplacecasebng;
#X obj 125 181 s \$0-raplacecase;
#X obj 93 76 t b;
#X msg 93 102 symbol d;
#X connect 0 0 4 0;
#X connect 1 0 2 0;
#X connect 1 1 3 0;
#X connect 4 0 5 0;
#X connect 5 0 1 0;
#X restore 380 368 pd \$0-ifD;
#X obj 455 366 t b;
#X obj 489 341 t b;
#X obj 561 367 t b;
#X obj 595 342 t b;
#N canvas 407 237 416 300 \$0-ifE 0;
#X obj 93 52 inlet;
#X obj 93 128 t b s;
#X obj 93 156 s \$0-raplacecasebng;
#X obj 125 181 s \$0-raplacecase;
#X obj 93 76 t b;
#X msg 93 102 symbol e;
#X connect 0 0 4 0;
#X connect 1 0 2 0;
#X connect 1 1 3 0;
#X connect 4 0 5 0;
#X connect 5 0 1 0;
#X restore 455 391 pd \$0-ifE;
#N canvas 407 237 416 300 \$0-ifF 0;
#X obj 93 52 inlet;
#X obj 93 128 t b s;
#X obj 93 156 s \$0-raplacecasebng;
#X obj 125 181 s \$0-raplacecase;
#X obj 93 76 t b;
#X msg 93 102 symbol f;
#X connect 0 0 4 0;
#X connect 1 0 2 0;
#X connect 1 1 3 0;
#X connect 4 0 5 0;
#X connect 5 0 1 0;
#X restore 487 367 pd \$0-ifF;
#N canvas 407 237 416 300 \$0-ifG 0;
#X obj 93 52 inlet;
#X obj 93 128 t b s;
#X obj 93 156 s \$0-raplacecasebng;
#X obj 125 181 s \$0-raplacecase;
#X obj 93 76 t b;
#X msg 93 102 symbol g;
#X connect 0 0 4 0;
#X connect 1 0 2 0;
#X connect 1 1 3 0;
#X connect 4 0 5 0;
#X connect 5 0 1 0;
#X restore 562 391 pd \$0-ifG;
#N canvas 407 237 416 300 \$0-ifH 0;
#X obj 93 52 inlet;
#X obj 93 128 t b s;
#X obj 93 156 s \$0-raplacecasebng;
#X obj 125 181 s \$0-raplacecase;
#X obj 93 76 t b;
#X msg 93 102 symbol h;
#X connect 0 0 4 0;
#X connect 1 0 2 0;
#X connect 1 1 3 0;
#X connect 4 0 5 0;
#X connect 5 0 1 0;
#X restore 593 368 pd \$0-ifH;
#X obj 369 454 t b;
#X obj 403 429 t b;
#X obj 475 455 t b;
#X obj 509 430 t b;
#X obj 582 454 t b;
#X obj 616 429 t b;
#X obj 688 455 t b;
#X obj 722 430 t b;
#N canvas 407 237 416 300 \$0-ifI 0;
#X obj 93 52 inlet;
#X obj 93 128 t b s;
#X obj 93 156 s \$0-raplacecasebng;
#X obj 125 181 s \$0-raplacecase;
#X obj 93 76 t b;
#X msg 93 102 symbol i;
#X connect 0 0 4 0;
#X connect 1 0 2 0;
#X connect 1 1 3 0;
#X connect 4 0 5 0;
#X connect 5 0 1 0;
#X restore 369 479 pd \$0-ifI;
#N canvas 407 237 416 300 \$0-ifJ 0;
#X obj 93 52 inlet;
#X obj 93 128 t b s;
#X obj 93 156 s \$0-raplacecasebng;
#X obj 125 181 s \$0-raplacecase;
#X obj 93 76 t b;
#X msg 93 102 symbol j;
#X connect 0 0 4 0;
#X connect 1 0 2 0;
#X connect 1 1 3 0;
#X connect 4 0 5 0;
#X connect 5 0 1 0;
#X restore 401 455 pd \$0-ifJ;
#N canvas 407 237 416 300 \$0-ifK 0;
#X obj 93 52 inlet;
#X obj 93 128 t b s;
#X obj 93 156 s \$0-raplacecasebng;
#X obj 125 181 s \$0-raplacecase;
#X obj 93 76 t b;
#X msg 93 102 symbol k;
#X connect 0 0 4 0;
#X connect 1 0 2 0;
#X connect 1 1 3 0;
#X connect 4 0 5 0;
#X connect 5 0 1 0;
#X restore 476 479 pd \$0-ifK;
#N canvas 407 237 416 300 \$0-ifL 0;
#X obj 93 52 inlet;
#X obj 93 128 t b s;
#X obj 93 156 s \$0-raplacecasebng;
#X obj 125 181 s \$0-raplacecase;
#X obj 93 76 t b;
#X msg 93 102 symbol l;
#X connect 0 0 4 0;
#X connect 1 0 2 0;
#X connect 1 1 3 0;
#X connect 4 0 5 0;
#X connect 5 0 1 0;
#X restore 507 456 pd \$0-ifL;
#N canvas 407 237 416 300 \$0-ifM 0;
#X obj 93 52 inlet;
#X obj 93 128 t b s;
#X obj 93 156 s \$0-raplacecasebng;
#X obj 125 181 s \$0-raplacecase;
#X obj 93 76 t b;
#X msg 94 102 symbol m;
#X connect 0 0 4 0;
#X connect 1 0 2 0;
#X connect 1 1 3 0;
#X connect 4 0 5 0;
#X connect 5 0 1 0;
#X restore 582 479 pd \$0-ifM;
#N canvas 407 237 416 300 \$0-ifN 0;
#X obj 93 52 inlet;
#X obj 93 128 t b s;
#X obj 93 156 s \$0-raplacecasebng;
#X obj 125 181 s \$0-raplacecase;
#X obj 93 76 t b;
#X msg 93 102 symbol n;
#X connect 0 0 4 0;
#X connect 1 0 2 0;
#X connect 1 1 3 0;
#X connect 4 0 5 0;
#X connect 5 0 1 0;
#X restore 614 455 pd \$0-ifN;
#N canvas 407 237 416 300 \$0-ifO 0;
#X obj 93 52 inlet;
#X obj 93 128 t b s;
#X obj 93 156 s \$0-raplacecasebng;
#X obj 125 181 s \$0-raplacecase;
#X obj 93 76 t b;
#X msg 93 102 symbol o;
#X connect 0 0 4 0;
#X connect 1 0 2 0;
#X connect 1 1 3 0;
#X connect 4 0 5 0;
#X connect 5 0 1 0;
#X restore 689 479 pd \$0-ifO;
#N canvas 407 237 416 300 \$0-ifP 0;
#X obj 93 52 inlet;
#X obj 93 128 t b s;
#X obj 93 156 s \$0-raplacecasebng;
#X obj 125 181 s \$0-raplacecase;
#X obj 93 76 t b;
#X msg 93 102 symbol p;
#X connect 0 0 4 0;
#X connect 1 0 2 0;
#X connect 1 1 3 0;
#X connect 4 0 5 0;
#X connect 5 0 1 0;
#X restore 720 456 pd \$0-ifP;
#X obj 419 542 t b;
#X obj 453 517 t b;
#X obj 525 543 t b;
#X obj 559 518 t b;
#X obj 632 542 t b;
#X obj 666 517 t b;
#X obj 738 543 t b;
#X obj 772 518 t b;
#N canvas 407 237 416 300 \$0-ifQ 0;
#X obj 93 52 inlet;
#X obj 93 128 t b s;
#X obj 93 156 s \$0-raplacecasebng;
#X obj 125 181 s \$0-raplacecase;
#X obj 93 76 t b;
#X msg 93 102 symbol q;
#X connect 0 0 4 0;
#X connect 1 0 2 0;
#X connect 1 1 3 0;
#X connect 4 0 5 0;
#X connect 5 0 1 0;
#X restore 419 567 pd \$0-ifQ;
#N canvas 407 237 416 300 \$0-ifR 0;
#X obj 93 52 inlet;
#X obj 93 128 t b s;
#X obj 93 156 s \$0-raplacecasebng;
#X obj 125 181 s \$0-raplacecase;
#X obj 93 76 t b;
#X msg 93 102 symbol r;
#X connect 0 0 4 0;
#X connect 1 0 2 0;
#X connect 1 1 3 0;
#X connect 4 0 5 0;
#X connect 5 0 1 0;
#X restore 451 543 pd \$0-ifR;
#N canvas 407 237 416 300 \$0-ifS 0;
#X obj 93 52 inlet;
#X obj 93 128 t b s;
#X obj 93 156 s \$0-raplacecasebng;
#X obj 125 181 s \$0-raplacecase;
#X obj 93 76 t b;
#X msg 93 102 symbol s;
#X connect 0 0 4 0;
#X connect 1 0 2 0;
#X connect 1 1 3 0;
#X connect 4 0 5 0;
#X connect 5 0 1 0;
#X restore 526 567 pd \$0-ifS;
#N canvas 407 237 416 300 \$0-ifT 0;
#X obj 93 52 inlet;
#X obj 93 128 t b s;
#X obj 93 156 s \$0-raplacecasebng;
#X obj 125 181 s \$0-raplacecase;
#X obj 93 76 t b;
#X msg 93 102 symbol t;
#X connect 0 0 4 0;
#X connect 1 0 2 0;
#X connect 1 1 3 0;
#X connect 4 0 5 0;
#X connect 5 0 1 0;
#X restore 557 544 pd \$0-ifT;
#N canvas 407 237 416 300 \$0-ifU 0;
#X obj 93 52 inlet;
#X obj 93 128 t b s;
#X obj 93 156 s \$0-raplacecasebng;
#X obj 125 181 s \$0-raplacecase;
#X obj 93 76 t b;
#X msg 94 102 symbol u;
#X connect 0 0 4 0;
#X connect 1 0 2 0;
#X connect 1 1 3 0;
#X connect 4 0 5 0;
#X connect 5 0 1 0;
#X restore 632 567 pd \$0-ifU;
#N canvas 407 237 416 300 \$0-ifV 0;
#X obj 93 52 inlet;
#X obj 93 128 t b s;
#X obj 93 156 s \$0-raplacecasebng;
#X obj 125 181 s \$0-raplacecase;
#X obj 93 76 t b;
#X msg 93 102 symbol v;
#X connect 0 0 4 0;
#X connect 1 0 2 0;
#X connect 1 1 3 0;
#X connect 4 0 5 0;
#X connect 5 0 1 0;
#X restore 664 543 pd \$0-ifV;
#N canvas 407 237 416 300 \$0-ifW 0;
#X obj 93 52 inlet;
#X obj 93 128 t b s;
#X obj 93 156 s \$0-raplacecasebng;
#X obj 125 181 s \$0-raplacecase;
#X obj 93 76 t b;
#X msg 93 102 symbol w;
#X connect 0 0 4 0;
#X connect 1 0 2 0;
#X connect 1 1 3 0;
#X connect 4 0 5 0;
#X connect 5 0 1 0;
#X restore 739 567 pd \$0-ifW;
#N canvas 407 237 416 300 \$0-ifX 0;
#X obj 93 52 inlet;
#X obj 93 128 t b s;
#X obj 93 156 s \$0-raplacecasebng;
#X obj 125 181 s \$0-raplacecase;
#X obj 93 76 t b;
#X msg 93 102 symbol x;
#X connect 0 0 4 0;
#X connect 1 0 2 0;
#X connect 1 1 3 0;
#X connect 4 0 5 0;
#X connect 5 0 1 0;
#X restore 770 544 pd \$0-ifX;
#X obj 847 540 t b;
#X obj 881 515 t b;
#N canvas 407 237 416 300 \$0-ifY 0;
#X obj 93 52 inlet;
#X obj 93 128 t b s;
#X obj 93 156 s \$0-raplacecasebng;
#X obj 125 181 s \$0-raplacecase;
#X obj 93 76 t b;
#X msg 93 102 symbol y;
#X connect 0 0 4 0;
#X connect 1 0 2 0;
#X connect 1 1 3 0;
#X connect 4 0 5 0;
#X connect 5 0 1 0;
#X restore 848 564 pd \$0-ifY;
#N canvas 407 237 416 300 \$0-ifZ 0;
#X obj 93 52 inlet;
#X obj 93 128 t b s;
#X obj 93 156 s \$0-raplacecasebng;
#X obj 125 181 s \$0-raplacecase;
#X obj 93 76 t b;
#X msg 93 102 symbol z;
#X connect 0 0 4 0;
#X connect 1 0 2 0;
#X connect 1 1 3 0;
#X connect 4 0 5 0;
#X connect 5 0 1 0;
#X restore 879 541 pd \$0-ifZ;
#X obj 1053 306 bng 15 250 50 0 empty empty a 17 7 0 10 #fcfcfc #000000
#000000;
#X obj 1084 304 bng 15 250 50 0 empty empty b 17 7 0 10 #fcfcfc #000000
#000000;
#X obj 1115 305 bng 15 250 50 0 empty empty c 17 7 0 10 #fcfcfc #000000
#000000;
#X obj 1146 303 bng 15 250 50 0 empty empty d 17 7 0 10 #fcfcfc #000000
#000000;
#X obj 1175 306 bng 15 250 50 0 empty empty e 17 7 0 10 #fcfcfc #000000
#000000;
#X obj 1206 304 bng 15 250 50 0 empty empty f 17 7 0 10 #fcfcfc #000000
#000000;
#X obj 1237 305 bng 15 250 50 0 empty empty g 17 7 0 10 #fcfcfc #000000
#000000;
#X obj 1268 303 bng 15 250 50 0 empty empty h 17 7 0 10 #fcfcfc #000000
#000000;
#X obj 1296 307 bng 15 250 50 0 empty empty i 17 7 0 10 #fcfcfc #000000
#000000;
#X obj 1327 305 bng 15 250 50 0 empty empty j 17 7 0 10 #fcfcfc #000000
#000000;
#X obj 1358 306 bng 15 250 50 0 empty empty k 17 7 0 10 #fcfcfc #000000
#000000;
#X obj 1389 304 bng 15 250 50 0 empty empty l 17 7 0 10 #fcfcfc #000000
#000000;
#X obj 1418 307 bng 15 250 50 0 empty empty m 17 7 0 10 #fcfcfc #000000
#000000;
#X obj 1449 305 bng 15 250 50 0 empty empty n 17 7 0 10 #fcfcfc #000000
#000000;
#X obj 1480 306 bng 15 250 50 0 empty empty o 17 7 0 10 #fcfcfc #000000
#000000;
#X obj 1511 304 bng 15 250 50 0 empty empty p 17 7 0 10 #fcfcfc #000000
#000000;
#X obj 1545 304 bng 15 250 50 0 empty empty q 17 7 0 10 #fcfcfc #000000
#000000;
#X obj 1576 302 bng 15 250 50 0 empty empty r 17 7 0 10 #fcfcfc #000000
#000000;
#X obj 1607 303 bng 15 250 50 0 empty empty s 17 7 0 10 #fcfcfc #000000
#000000;
#X obj 1638 301 bng 15 250 50 0 empty empty t 17 7 0 10 #fcfcfc #000000
#000000;
#X obj 1667 304 bng 15 250 50 0 empty empty u 17 7 0 10 #fcfcfc #000000
#000000;
#X obj 1698 302 bng 15 250 50 0 empty empty v 17 7 0 10 #fcfcfc #000000
#000000;
#X obj 1729 303 bng 15 250 50 0 empty empty w 17 7 0 10 #fcfcfc #000000
#000000;
#X obj 1760 301 bng 15 250 50 0 empty empty x 17 7 0 10 #fcfcfc #000000
#000000;
#X obj 1788 301 bng 15 250 50 0 empty empty y 17 7 0 10 #fcfcfc #000000
#000000;
#X obj 1819 301 bng 15 250 50 0 empty empty z 17 7 0 10 #fcfcfc #000000
#000000;
#X obj 830 376 t b;
#X obj 864 351 t b;
#X obj 936 377 t b;
#X obj 970 352 t b;
#X obj 1043 376 t b;
#X obj 1077 351 t b;
#X obj 1149 377 t b;
#X obj 1183 352 t b;
#X obj 1044 471 t b;
#X obj 1080 446 t b;
#X obj 1152 472 t b;
#X obj 1186 447 t b;
#X obj 1259 471 t b;
#X obj 1293 446 t b;
#X obj 1365 472 t b;
#X obj 1399 447 t b;
#X obj 1154 588 t b;
#X obj 1188 563 t b;
#X obj 1260 589 t b;
#X obj 1294 564 t b;
#X obj 1367 588 t b;
#X obj 1401 563 t b;
#X obj 1473 589 t b;
#X obj 1507 564 t b;
#X obj 1582 586 t b;
#X obj 1616 561 t b;
#N canvas 407 237 416 300 \$0-ifa 0;
#X obj 93 52 inlet;
#X obj 93 128 t b s;
#X obj 93 156 s \$0-raplacecasebng;
#X obj 125 181 s \$0-raplacecase;
#X msg 93 102 symbol a;
#X obj 93 76 t b;
#X connect 0 0 5 0;
#X connect 1 0 2 0;
#X connect 1 1 3 0;
#X connect 4 0 1 0;
#X connect 5 0 4 0;
#X restore 830 401 pd \$0-ifa;
#N canvas 407 237 416 300 \$0-ifb 0;
#X obj 93 52 inlet;
#X obj 93 128 t b s;
#X obj 93 156 s \$0-raplacecasebng;
#X obj 125 181 s \$0-raplacecase;
#X obj 93 76 t b;
#X msg 93 102 symbol b;
#X connect 0 0 4 0;
#X connect 1 0 2 0;
#X connect 1 1 3 0;
#X connect 4 0 5 0;
#X connect 5 0 1 0;
#X restore 862 377 pd \$0-ifb;
#N canvas 407 237 416 300 \$0-ifc 0;
#X obj 93 52 inlet;
#X obj 93 128 t b s;
#X obj 93 156 s \$0-raplacecasebng;
#X obj 125 181 s \$0-raplacecase;
#X obj 93 76 t b;
#X msg 93 102 symbol c;
#X connect 0 0 4 0;
#X connect 1 0 2 0;
#X connect 1 1 3 0;
#X connect 4 0 5 0;
#X connect 5 0 1 0;
#X restore 937 401 pd \$0-ifc;
#N canvas 407 237 416 300 \$0-ifd 0;
#X obj 93 52 inlet;
#X obj 93 128 t b s;
#X obj 93 156 s \$0-raplacecasebng;
#X obj 125 181 s \$0-raplacecase;
#X obj 93 76 t b;
#X msg 93 102 symbol d;
#X connect 0 0 4 0;
#X connect 1 0 2 0;
#X connect 1 1 3 0;
#X connect 4 0 5 0;
#X connect 5 0 1 0;
#X restore 968 378 pd \$0-ifd;
#N canvas 407 237 416 300 \$0-ife 0;
#X obj 93 52 inlet;
#X obj 93 128 t b s;
#X obj 93 156 s \$0-raplacecasebng;
#X obj 125 181 s \$0-raplacecase;
#X obj 93 76 t b;
#X msg 93 102 symbol e;
#X connect 0 0 4 0;
#X connect 1 0 2 0;
#X connect 1 1 3 0;
#X connect 4 0 5 0;
#X connect 5 0 1 0;
#X restore 1043 401 pd \$0-ife;
#N canvas 407 237 416 300 \$0-iff 0;
#X obj 93 52 inlet;
#X obj 93 128 t b s;
#X obj 93 156 s \$0-raplacecasebng;
#X obj 125 181 s \$0-raplacecase;
#X obj 93 76 t b;
#X msg 93 102 symbol f;
#X connect 0 0 4 0;
#X connect 1 0 2 0;
#X connect 1 1 3 0;
#X connect 4 0 5 0;
#X connect 5 0 1 0;
#X restore 1075 377 pd \$0-iff;
#N canvas 407 237 416 300 \$0-ifg 0;
#X obj 93 52 inlet;
#X obj 93 128 t b s;
#X obj 93 156 s \$0-raplacecasebng;
#X obj 125 181 s \$0-raplacecase;
#X obj 93 76 t b;
#X msg 93 102 symbol g;
#X connect 0 0 4 0;
#X connect 1 0 2 0;
#X connect 1 1 3 0;
#X connect 4 0 5 0;
#X connect 5 0 1 0;
#X restore 1150 401 pd \$0-ifg;
#N canvas 407 237 416 300 \$0-ifh 0;
#X obj 93 52 inlet;
#X obj 93 128 t b s;
#X obj 93 156 s \$0-raplacecasebng;
#X obj 125 181 s \$0-raplacecase;
#X obj 93 76 t b;
#X msg 93 102 symbol h;
#X connect 0 0 4 0;
#X connect 1 0 2 0;
#X connect 1 1 3 0;
#X connect 4 0 5 0;
#X connect 5 0 1 0;
#X restore 1181 378 pd \$0-ifh;
#N canvas 407 237 416 300 \$0-ifi 0;
#X obj 93 52 inlet;
#X obj 93 128 t b s;
#X obj 93 156 s \$0-raplacecasebng;
#X obj 125 181 s \$0-raplacecase;
#X obj 93 76 t b;
#X msg 93 102 symbol i;
#X connect 0 0 4 0;
#X connect 1 0 2 0;
#X connect 1 1 3 0;
#X connect 4 0 5 0;
#X connect 5 0 1 0;
#X restore 1046 496 pd \$0-ifi;
#N canvas 407 237 416 300 \$0-ifj 0;
#X obj 93 52 inlet;
#X obj 93 128 t b s;
#X obj 93 156 s \$0-raplacecasebng;
#X obj 125 181 s \$0-raplacecase;
#X obj 93 76 t b;
#X msg 93 102 symbol j;
#X connect 0 0 4 0;
#X connect 1 0 2 0;
#X connect 1 1 3 0;
#X connect 4 0 5 0;
#X connect 5 0 1 0;
#X restore 1078 472 pd \$0-ifj;
#N canvas 407 237 416 300 \$0-ifk 0;
#X obj 93 52 inlet;
#X obj 93 128 t b s;
#X obj 93 156 s \$0-raplacecasebng;
#X obj 125 181 s \$0-raplacecase;
#X obj 93 76 t b;
#X msg 93 102 symbol k;
#X connect 0 0 4 0;
#X connect 1 0 2 0;
#X connect 1 1 3 0;
#X connect 4 0 5 0;
#X connect 5 0 1 0;
#X restore 1153 496 pd \$0-ifk;
#N canvas 407 237 416 300 \$0-ifl 0;
#X obj 93 52 inlet;
#X obj 93 128 t b s;
#X obj 93 156 s \$0-raplacecasebng;
#X obj 125 181 s \$0-raplacecase;
#X obj 93 76 t b;
#X msg 93 102 symbol l;
#X connect 0 0 4 0;
#X connect 1 0 2 0;
#X connect 1 1 3 0;
#X connect 4 0 5 0;
#X connect 5 0 1 0;
#X restore 1184 473 pd \$0-ifl;
#N canvas 407 237 416 300 \$0-ifm 0;
#X obj 93 52 inlet;
#X obj 93 128 t b s;
#X obj 93 156 s \$0-raplacecasebng;
#X obj 125 181 s \$0-raplacecase;
#X obj 93 76 t b;
#X msg 94 102 symbol m;
#X connect 0 0 4 0;
#X connect 1 0 2 0;
#X connect 1 1 3 0;
#X connect 4 0 5 0;
#X connect 5 0 1 0;
#X restore 1259 496 pd \$0-ifm;
#N canvas 407 237 416 300 \$0-ifn 0;
#X obj 93 52 inlet;
#X obj 93 128 t b s;
#X obj 93 156 s \$0-raplacecasebng;
#X obj 125 181 s \$0-raplacecase;
#X obj 93 76 t b;
#X msg 93 102 symbol n;
#X connect 0 0 4 0;
#X connect 1 0 2 0;
#X connect 1 1 3 0;
#X connect 4 0 5 0;
#X connect 5 0 1 0;
#X restore 1291 472 pd \$0-ifn;
#N canvas 407 237 416 300 \$0-ifo 0;
#X obj 93 52 inlet;
#X obj 93 128 t b s;
#X obj 93 156 s \$0-raplacecasebng;
#X obj 125 181 s \$0-raplacecase;
#X obj 93 76 t b;
#X msg 93 102 symbol o;
#X connect 0 0 4 0;
#X connect 1 0 2 0;
#X connect 1 1 3 0;
#X connect 4 0 5 0;
#X connect 5 0 1 0;
#X restore 1366 496 pd \$0-ifo;
#N canvas 407 237 416 300 \$0-ifp 0;
#X obj 93 52 inlet;
#X obj 93 128 t b s;
#X obj 93 156 s \$0-raplacecasebng;
#X obj 125 181 s \$0-raplacecase;
#X obj 93 76 t b;
#X msg 93 102 symbol p;
#X connect 0 0 4 0;
#X connect 1 0 2 0;
#X connect 1 1 3 0;
#X connect 4 0 5 0;
#X connect 5 0 1 0;
#X restore 1397 473 pd \$0-ifp;
#N canvas 407 237 416 300 \$0-ifq 0;
#X obj 93 52 inlet;
#X obj 93 128 t b s;
#X obj 93 156 s \$0-raplacecasebng;
#X obj 125 181 s \$0-raplacecase;
#X obj 93 76 t b;
#X msg 93 102 symbol q;
#X connect 0 0 4 0;
#X connect 1 0 2 0;
#X connect 1 1 3 0;
#X connect 4 0 5 0;
#X connect 5 0 1 0;
#X restore 1154 613 pd \$0-ifq;
#N canvas 407 237 416 300 \$0-ifr 0;
#X obj 93 52 inlet;
#X obj 93 128 t b s;
#X obj 93 156 s \$0-raplacecasebng;
#X obj 125 181 s \$0-raplacecase;
#X obj 93 76 t b;
#X msg 93 102 symbol r;
#X connect 0 0 4 0;
#X connect 1 0 2 0;
#X connect 1 1 3 0;
#X connect 4 0 5 0;
#X connect 5 0 1 0;
#X restore 1186 589 pd \$0-ifr;
#N canvas 407 237 416 300 \$0-ifs 0;
#X obj 93 52 inlet;
#X obj 93 128 t b s;
#X obj 93 156 s \$0-raplacecasebng;
#X obj 125 181 s \$0-raplacecase;
#X obj 93 76 t b;
#X msg 93 102 symbol s;
#X connect 0 0 4 0;
#X connect 1 0 2 0;
#X connect 1 1 3 0;
#X connect 4 0 5 0;
#X connect 5 0 1 0;
#X restore 1261 613 pd \$0-ifs;
#N canvas 407 237 416 300 \$0-ift 0;
#X obj 93 52 inlet;
#X obj 93 128 t b s;
#X obj 93 156 s \$0-raplacecasebng;
#X obj 125 181 s \$0-raplacecase;
#X obj 93 76 t b;
#X msg 93 102 symbol t;
#X connect 0 0 4 0;
#X connect 1 0 2 0;
#X connect 1 1 3 0;
#X connect 4 0 5 0;
#X connect 5 0 1 0;
#X restore 1292 590 pd \$0-ift;
#N canvas 407 237 416 300 \$0-ifu 0;
#X obj 93 52 inlet;
#X obj 93 128 t b s;
#X obj 93 156 s \$0-raplacecasebng;
#X obj 125 181 s \$0-raplacecase;
#X obj 93 76 t b;
#X msg 94 102 symbol u;
#X connect 0 0 4 0;
#X connect 1 0 2 0;
#X connect 1 1 3 0;
#X connect 4 0 5 0;
#X connect 5 0 1 0;
#X restore 1367 613 pd \$0-ifu;
#N canvas 407 237 416 300 \$0-ifv 0;
#X obj 93 52 inlet;
#X obj 93 128 t b s;
#X obj 93 156 s \$0-raplacecasebng;
#X obj 125 181 s \$0-raplacecase;
#X obj 93 76 t b;
#X msg 93 102 symbol v;
#X connect 0 0 4 0;
#X connect 1 0 2 0;
#X connect 1 1 3 0;
#X connect 4 0 5 0;
#X connect 5 0 1 0;
#X restore 1399 589 pd \$0-ifv;
#N canvas 407 237 416 300 \$0-ifw 0;
#X obj 93 52 inlet;
#X obj 93 128 t b s;
#X obj 93 156 s \$0-raplacecasebng;
#X obj 125 181 s \$0-raplacecase;
#X obj 93 76 t b;
#X msg 93 102 symbol w;
#X connect 0 0 4 0;
#X connect 1 0 2 0;
#X connect 1 1 3 0;
#X connect 4 0 5 0;
#X connect 5 0 1 0;
#X restore 1474 613 pd \$0-ifw;
#N canvas 407 237 416 300 \$0-ifx 0;
#X obj 93 52 inlet;
#X obj 93 128 t b s;
#X obj 93 156 s \$0-raplacecasebng;
#X obj 125 181 s \$0-raplacecase;
#X obj 93 76 t b;
#X msg 93 102 symbol x;
#X connect 0 0 4 0;
#X connect 1 0 2 0;
#X connect 1 1 3 0;
#X connect 4 0 5 0;
#X connect 5 0 1 0;
#X restore 1505 590 pd \$0-ifx;
#N canvas 407 237 416 300 \$0-ify 0;
#X obj 93 52 inlet;
#X obj 93 128 t b s;
#X obj 93 156 s \$0-raplacecasebng;
#X obj 125 181 s \$0-raplacecase;
#X obj 93 76 t b;
#X msg 93 102 symbol y;
#X connect 0 0 4 0;
#X connect 1 0 2 0;
#X connect 1 1 3 0;
#X connect 4 0 5 0;
#X connect 5 0 1 0;
#X restore 1583 610 pd \$0-ify;
#N canvas 407 237 416 300 \$0-ifz 0;
#X obj 93 52 inlet;
#X obj 93 128 t b s;
#X obj 93 156 s \$0-raplacecasebng;
#X obj 125 181 s \$0-raplacecase;
#X obj 93 76 t b;
#X msg 93 102 symbol z;
#X connect 0 0 4 0;
#X connect 1 0 2 0;
#X connect 1 1 3 0;
#X connect 4 0 5 0;
#X connect 5 0 1 0;
#X restore 1614 587 pd \$0-ifz;
#X obj 1869 463 t b;
#X obj 1909 437 t b, f 4;
#X obj 1945 414 t b;
#X obj 1981 387 t b;
#X obj 1928 547 t b;
#X obj 1966 524 t b;
#X obj 2004 498 t b;
#X obj 2044 472 t b;
#X obj 2079 447 t b;
#X obj 2111 414 t b;
#N canvas 407 237 416 300 \$0-if! 0;
#X obj 93 52 inlet;
#X obj 93 128 t b s;
#X obj 93 156 s \$0-raplacecasebng;
#X obj 125 181 s \$0-raplacecase;
#X obj 93 76 t b;
#X msg 93 102 symbol !;
#X connect 0 0 4 0;
#X connect 1 0 2 0;
#X connect 1 1 3 0;
#X connect 4 0 5 0;
#X connect 5 0 1 0;
#X restore 1867 489 pd \$0-if!;
#N canvas 407 237 416 300 \$0-if@ 0;
#X obj 93 52 inlet;
#X obj 93 128 t b s;
#X obj 93 156 s \$0-raplacecasebng;
#X obj 125 181 s \$0-raplacecase;
#X obj 93 76 t b;
#X msg 93 102 symbol @;
#X connect 0 0 4 0;
#X connect 1 0 2 0;
#X connect 1 1 3 0;
#X connect 4 0 5 0;
#X connect 5 0 1 0;
#X restore 1908 463 pd \$0-if@;
#N canvas 407 237 416 300 \$0-if# 0;
#X obj 93 52 inlet;
#X obj 93 128 t b s;
#X obj 93 156 s \$0-raplacecasebng;
#X obj 125 181 s \$0-raplacecase;
#X obj 93 76 t b;
#X msg 93 102 symbol #;
#X connect 0 0 4 0;
#X connect 1 0 2 0;
#X connect 1 1 3 0;
#X connect 4 0 5 0;
#X connect 5 0 1 0;
#X restore 1935 438 pd \$0-if#;
#N canvas 407 237 416 300 \$0-if$ 0;
#X obj 93 52 inlet;
#X obj 93 128 t b s;
#X obj 93 156 s \$0-raplacecasebng;
#X obj 125 181 s \$0-raplacecase;
#X obj 93 76 t b;
#X msg 93 102 symbol $;
#X connect 0 0 4 0;
#X connect 1 0 2 0;
#X connect 1 1 3 0;
#X connect 4 0 5 0;
#X connect 5 0 1 0;
#X restore 1995 415 pd \$0-if$;
#N canvas 407 237 416 300 \$0-if% 0;
#X obj 93 52 inlet;
#X obj 93 128 t b s;
#X obj 93 156 s \$0-raplacecasebng;
#X obj 125 181 s \$0-raplacecase;
#X obj 93 76 t b;
#X msg 93 102 symbol %;
#X connect 0 0 4 0;
#X connect 1 0 2 0;
#X connect 1 1 3 0;
#X connect 4 0 5 0;
#X connect 5 0 1 0;
#X restore 1926 573 pd \$0-if%;
#N canvas 407 237 416 300 \$0-if^ 0;
#X obj 93 52 inlet;
#X obj 93 128 t b s;
#X obj 93 156 s \$0-raplacecasebng;
#X obj 125 181 s \$0-raplacecase;
#X obj 93 76 t b;
#X msg 93 102 symbol ^;
#X connect 0 0 4 0;
#X connect 1 0 2 0;
#X connect 1 1 3 0;
#X connect 4 0 5 0;
#X connect 5 0 1 0;
#X restore 1966 547 pd \$0-if^;
#N canvas 407 237 416 300 \$0-if& 0;
#X obj 93 52 inlet;
#X obj 93 128 t b s;
#X obj 93 156 s \$0-raplacecasebng;
#X obj 125 181 s \$0-raplacecase;
#X obj 93 76 t b;
#X msg 93 102 symbol &;
#X connect 0 0 4 0;
#X connect 1 0 2 0;
#X connect 1 1 3 0;
#X connect 4 0 5 0;
#X connect 5 0 1 0;
#X restore 2002 524 pd \$0-if&;
#N canvas 407 237 416 300 \$0-if* 0;
#X obj 93 52 inlet;
#X obj 93 128 t b s;
#X obj 93 156 s \$0-raplacecasebng;
#X obj 125 181 s \$0-raplacecase;
#X obj 93 76 t b;
#X msg 93 102 symbol *;
#X connect 0 0 4 0;
#X connect 1 0 2 0;
#X connect 1 1 3 0;
#X connect 4 0 5 0;
#X connect 5 0 1 0;
#X restore 2042 498 pd \$0-if*;
#N canvas 407 237 416 300 \$0-if( 0;
#X obj 93 52 inlet;
#X obj 93 128 t b s;
#X obj 93 156 s \$0-raplacecasebng;
#X obj 125 181 s \$0-raplacecase;
#X obj 93 76 t b;
#X msg 93 102 symbol (;
#X connect 0 0 4 0;
#X connect 1 0 2 0;
#X connect 1 1 3 0;
#X connect 4 0 5 0;
#X connect 5 0 1 0;
#X restore 2077 473 pd \$0-if(;
#N canvas 407 237 416 300 \$0-if) 0;
#X obj 93 52 inlet;
#X obj 93 128 t b s;
#X obj 93 156 s \$0-raplacecasebng;
#X obj 125 181 s \$0-raplacecase;
#X obj 93 76 t b;
#X msg 93 102 symbol );
#X connect 0 0 4 0;
#X connect 1 0 2 0;
#X connect 1 1 3 0;
#X connect 4 0 5 0;
#X connect 5 0 1 0;
#X restore 2113 442 pd \$0-if);
#X obj 1712 586 t b;
#X obj 1748 558 t b;
#X obj 2153 391 t b;
#X obj 2188 357 t b;
#N canvas 407 237 416 300 \$0-if= 0;
#X obj 93 52 inlet;
#X obj 93 128 t b s;
#X obj 93 156 s \$0-raplacecasebng;
#X obj 125 181 s \$0-raplacecase;
#X obj 93 76 t b;
#X msg 93 102 symbol =;
#X connect 0 0 4 0;
#X connect 1 0 2 0;
#X connect 1 1 3 0;
#X connect 4 0 5 0;
#X connect 5 0 1 0;
#X restore 1746 584 pd \$0-if=;
#N canvas 407 237 416 300 \$0-if_ 0;
#X obj 93 52 inlet;
#X obj 93 128 t b s;
#X obj 93 156 s \$0-raplacecasebng;
#X obj 125 181 s \$0-raplacecase;
#X obj 93 76 t b;
#X msg 93 102 symbol _;
#X connect 0 0 4 0;
#X connect 1 0 2 0;
#X connect 1 1 3 0;
#X connect 4 0 5 0;
#X connect 5 0 1 0;
#X restore 2150 414 pd \$0-if_;
#N canvas 407 237 416 300 \$0-if+ 0;
#X obj 93 52 inlet;
#X obj 93 128 t b s;
#X obj 93 156 s \$0-raplacecasebng;
#X obj 125 181 s \$0-raplacecase;
#X obj 93 76 t b;
#X msg 93 102 symbol +;
#X connect 0 0 4 0;
#X connect 1 0 2 0;
#X connect 1 1 3 0;
#X connect 4 0 5 0;
#X connect 5 0 1 0;
#X restore 2186 383 pd \$0-if+;
#N canvas 407 237 416 300 \$0-if- 0;
#X obj 93 52 inlet;
#X obj 93 128 t b s;
#X obj 93 156 s \$0-raplacecasebng;
#X obj 125 181 s \$0-raplacecase;
#X obj 93 76 t b;
#X msg 93 102 symbol -;
#X connect 0 0 4 0;
#X connect 1 0 2 0;
#X connect 1 1 3 0;
#X connect 4 0 5 0;
#X connect 5 0 1 0;
#X restore 1710 612 pd \$0-if-;
#X obj 1832 494 t b;
#N canvas 407 237 416 300 \$0-if~ 0;
#X obj 93 52 inlet;
#X obj 93 128 t b s;
#X obj 93 156 s \$0-raplacecasebng;
#X obj 125 181 s \$0-raplacecase;
#X obj 93 76 t b;
#X msg 93 102 symbol ~;
#X connect 0 0 4 0;
#X connect 1 0 2 0;
#X connect 1 1 3 0;
#X connect 4 0 5 0;
#X connect 5 0 1 0;
#X restore 1830 520 pd \$0-if~;
#X obj 1795 522 t b;
#N canvas 407 237 416 300 \$0-if` 0;
#X obj 93 52 inlet;
#X obj 93 128 t b s;
#X obj 93 156 s \$0-raplacecasebng;
#X obj 125 181 s \$0-raplacecase;
#X obj 93 76 t b;
#X msg 93 102 symbol `;
#X connect 0 0 4 0;
#X connect 1 0 2 0;
#X connect 1 1 3 0;
#X connect 4 0 5 0;
#X connect 5 0 1 0;
#X restore 1792 548 pd \$0-if`;
#X obj 2120 545 t b;
#X obj 2156 521 t b;
#X obj 2190 495 t b;
#X obj 2223 468 t b;
#X obj 2082 573 t b;
#N canvas 407 237 416 300 \$0-if| 0;
#X obj 93 52 inlet;
#X obj 93 128 t b s;
#X obj 93 156 s \$0-raplacecasebng;
#X obj 125 181 s \$0-raplacecase;
#X obj 93 76 t b;
#X msg 93 102 symbol |;
#X connect 0 0 4 0;
#X connect 1 0 2 0;
#X connect 1 1 3 0;
#X connect 4 0 5 0;
#X connect 5 0 1 0;
#X restore 2079 598 pd \$0-if|;
#N canvas 407 237 416 300 \$0-if: 0;
#X obj 93 52 inlet;
#X obj 93 128 t b s;
#X obj 93 156 s \$0-raplacecasebng;
#X obj 125 181 s \$0-raplacecase;
#X obj 93 76 t b;
#X msg 93 102 symbol :;
#X connect 0 0 4 0;
#X connect 1 0 2 0;
#X connect 1 1 3 0;
#X connect 4 0 5 0;
#X connect 5 0 1 0;
#X restore 2118 571 pd \$0-if:;
#N canvas 407 237 416 300 \$0-if' 0;
#X obj 93 52 inlet;
#X obj 93 128 t b s;
#X obj 93 156 s \$0-raplacecasebng;
#X obj 125 181 s \$0-raplacecase;
#X obj 93 76 t b;
#X msg 93 102 symbol ';
#X connect 0 0 4 0;
#X connect 1 0 2 0;
#X connect 1 1 3 0;
#X connect 4 0 5 0;
#X connect 5 0 1 0;
#X restore 2152 548 pd \$0-if';
#N canvas 407 237 416 300 \$0-if" 0;
#X obj 93 52 inlet;
#X obj 93 128 t b s;
#X obj 93 156 s \$0-raplacecasebng;
#X obj 125 181 s \$0-raplacecase;
#X obj 93 76 t b;
#X msg 93 102 symbol ";
#X connect 0 0 4 0;
#X connect 1 0 2 0;
#X connect 1 1 3 0;
#X connect 4 0 5 0;
#X connect 5 0 1 0;
#X restore 2188 521 pd \$0-if";
#N canvas 407 237 416 300 \$0-if< 0;
#X obj 93 52 inlet;
#X obj 93 128 t b s;
#X obj 93 156 s \$0-raplacecasebng;
#X obj 125 181 s \$0-raplacecase;
#X obj 93 76 t b;
#X msg 93 102 symbol <;
#X connect 0 0 4 0;
#X connect 1 0 2 0;
#X connect 1 1 3 0;
#X connect 4 0 5 0;
#X connect 5 0 1 0;
#X restore 2221 494 pd \$0-if<;
#X obj 2260 442 t b;
#X obj 2295 413 t b;
#X obj 2332 387 t b;
#X obj 2368 363 t b;
#N canvas 407 237 416 300 \$0-if. 0;
#X obj 93 52 inlet;
#X obj 93 128 t b s;
#X obj 93 156 s \$0-raplacecasebng;
#X obj 125 181 s \$0-raplacecase;
#X obj 93 76 t b;
#X msg 93 102 symbol .;
#X connect 0 0 4 0;
#X connect 1 0 2 0;
#X connect 1 1 3 0;
#X connect 4 0 5 0;
#X connect 5 0 1 0;
#X restore 2256 469 pd \$0-if.;
#N canvas 407 237 416 300 \$0-if> 0;
#X obj 93 52 inlet;
#X obj 93 128 t b s;
#X obj 93 156 s \$0-raplacecasebng;
#X obj 125 181 s \$0-raplacecase;
#X obj 93 76 t b;
#X msg 93 102 symbol >;
#X connect 0 0 4 0;
#X connect 1 0 2 0;
#X connect 1 1 3 0;
#X connect 4 0 5 0;
#X connect 5 0 1 0;
#X restore 2293 439 pd \$0-if>;
#N canvas 407 237 416 300 \$0-if/ 0;
#X obj 93 52 inlet;
#X obj 93 128 t b s;
#X obj 93 156 s \$0-raplacecasebng;
#X obj 125 181 s \$0-raplacecase;
#X obj 93 76 t b;
#X msg 93 102 symbol /;
#X connect 0 0 4 0;
#X connect 1 0 2 0;
#X connect 1 1 3 0;
#X connect 4 0 5 0;
#X connect 5 0 1 0;
#X restore 2330 413 pd \$0-if/;
#N canvas 407 237 416 300 \$0-if? 0;
#X obj 93 52 inlet;
#X obj 93 128 t b s;
#X obj 93 156 s \$0-raplacecasebng;
#X obj 125 181 s \$0-raplacecase;
#X obj 93 76 t b;
#X msg 93 102 symbol ?;
#X connect 0 0 4 0;
#X connect 1 0 2 0;
#X connect 1 1 3 0;
#X connect 4 0 5 0;
#X connect 5 0 1 0;
#X restore 2366 390 pd \$0-if?;
#X obj 19 447 outlet;
#N canvas 617 164 450 300 \$0-iffloat 0;
#X floatatom 86 73 5 0 0 0 - - - 0;
#X listbox 87 149 20 0 0 0 - - - 0;
#X obj 87 173 t b s;
#X obj 86 201 s \$0-raplacecasebng;
#X obj 103 226 s \$0-raplacecase;
#X obj 86 123 t s;
#X obj 86 96 l2s;
#X obj 86 19 inlet;
#X obj 88 46 t f;
#X connect 0 0 6 0;
#X connect 1 0 2 0;
#X connect 2 0 3 0;
#X connect 2 1 4 0;
#X connect 5 0 1 0;
#X connect 6 0 5 0;
#X connect 7 0 8 0;
#X connect 8 0 0 0;
#X restore 2418 353 pd \$0-iffloat;
#X obj 2418 329 t f;
#X obj 2438 381 t a;
#N canvas 617 164 450 300 \$0-ifanythingelse 0;
#X listbox 87 149 20 0 0 0 - - - 0;
#X obj 87 173 t b s;
#X obj 86 201 s \$0-raplacecasebng;
#X obj 106 240 s \$0-raplacecase;
#X obj 86 123 t s;
#X obj 86 96 l2s;
#X obj 86 19 inlet;
#X obj 88 46 t a;
#X msg 255 209 symbol;
#X connect 0 0 1 0;
#X connect 1 0 2 0;
#X connect 1 1 8 0;
#X connect 4 0 0 0;
#X connect 5 0 4 0;
#X connect 6 0 7 0;
#X connect 7 0 5 0;
#X connect 8 0 3 0;
#X restore 2438 405 pd \$0-ifanythingelse;
#X obj 87 380 list length;
#X floatatom 88 404 5 0 0 0 - - - 0;
#X obj 72 349 list store;
#X msg 22 276 append \$1;
#X obj 73 430 list trim;
#X msg 139 322 symbol;
#X obj 230 211 t a;
#X obj 73 480 l2s;
#X msg 91 456 symbol;
#X obj 75 509 outlet;
#X obj 207 24 inlet;
#X obj 227 260 route A B C D E F G H I J K L M N O P Q R S T U V W
X Y Z a b c d e f g h i j k l m n o p q r s t u v w x y z - = ` ~ !
@ # $ % ^ & * ( ) _ + | : ' " < . > / ? float symbol, f 320;
#X obj 308 91 l2s;
#X msg 392 117 bang;
#X obj 397 141 symbol;
#X obj 394 93 t b a;
#X obj 439 117 route symbol;
#X msg 522 145 symbol;
#X msg 395 172 symbol \$1;
#X msg 311 165 symbol;
#X obj 208 53 route setsymbol setjoiner;
#X obj 208 118 t b a b b b;
#X obj 155 150 symbol \$1;
#X connect 0 0 35 0;
#X connect 1 0 37 0;
#X connect 2 0 38 0;
#X connect 3 0 39 0;
#X connect 4 0 42 0;
#X connect 5 0 43 0;
#X connect 6 0 44 0;
#X connect 7 0 45 0;
#X connect 8 0 50 0;
#X connect 9 0 51 0;
#X connect 10 0 52 0;
#X connect 11 0 53 0;
#X connect 12 0 54 0;
#X connect 13 0 55 0;
#X connect 14 0 56 0;
#X connect 15 0 57 0;
#X connect 16 0 66 0;
#X connect 17 0 67 0;
#X connect 18 0 68 0;
#X connect 19 0 69 0;
#X connect 20 0 70 0;
#X connect 21 0 71 0;
#X connect 22 0 72 0;
#X connect 23 0 73 0;
#X connect 24 0 82 0;
#X connect 25 0 83 0;
#X connect 26 0 27 0;
#X connect 27 0 225 0;
#X connect 28 0 230 0;
#X connect 29 0 222 0;
#X connect 30 0 29 0;
#X connect 31 0 30 0;
#X connect 32 0 29 1;
#X connect 33 0 221 0;
#X connect 35 0 34 0;
#X connect 37 0 36 0;
#X connect 38 0 40 0;
#X connect 39 0 41 0;
#X connect 42 0 46 0;
#X connect 43 0 47 0;
#X connect 44 0 48 0;
#X connect 45 0 49 0;
#X connect 50 0 58 0;
#X connect 51 0 59 0;
#X connect 52 0 60 0;
#X connect 53 0 61 0;
#X connect 54 0 62 0;
#X connect 55 0 63 0;
#X connect 56 0 64 0;
#X connect 57 0 65 0;
#X connect 66 0 74 0;
#X connect 67 0 75 0;
#X connect 68 0 76 0;
#X connect 69 0 77 0;
#X connect 70 0 78 0;
#X connect 71 0 79 0;
#X connect 72 0 80 0;
#X connect 73 0 81 0;
#X connect 82 0 84 0;
#X connect 83 0 85 0;
#X connect 86 0 112 0;
#X connect 87 0 113 0;
#X connect 88 0 114 0;
#X connect 89 0 115 0;
#X connect 90 0 116 0;
#X connect 91 0 117 0;
#X connect 92 0 118 0;
#X connect 93 0 119 0;
#X connect 94 0 120 0;
#X connect 95 0 121 0;
#X connect 96 0 122 0;
#X connect 97 0 123 0;
#X connect 98 0 124 0;
#X connect 99 0 125 0;
#X connect 100 0 126 0;
#X connect 101 0 127 0;
#X connect 102 0 128 0;
#X connect 103 0 129 0;
#X connect 104 0 130 0;
#X connect 105 0 131 0;
#X connect 106 0 132 0;
#X connect 107 0 133 0;
#X connect 108 0 134 0;
#X connect 109 0 135 0;
#X connect 110 0 136 0;
#X connect 111 0 137 0;
#X connect 112 0 138 0;
#X connect 113 0 139 0;
#X connect 114 0 140 0;
#X connect 115 0 141 0;
#X connect 116 0 142 0;
#X connect 117 0 143 0;
#X connect 118 0 144 0;
#X connect 119 0 145 0;
#X connect 120 0 146 0;
#X connect 121 0 147 0;
#X connect 122 0 148 0;
#X connect 123 0 149 0;
#X connect 124 0 150 0;
#X connect 125 0 151 0;
#X connect 126 0 152 0;
#X connect 127 0 153 0;
#X connect 128 0 154 0;
#X connect 129 0 155 0;
#X connect 130 0 156 0;
#X connect 131 0 157 0;
#X connect 132 0 158 0;
#X connect 133 0 159 0;
#X connect 134 0 160 0;
#X connect 135 0 161 0;
#X connect 136 0 162 0;
#X connect 137 0 163 0;
#X connect 164 0 174 0;
#X connect 165 0 175 0;
#X connect 166 0 176 0;
#X connect 167 0 177 0;
#X connect 168 0 178 0;
#X connect 169 0 179 0;
#X connect 170 0 180 0;
#X connect 171 0 181 0;
#X connect 172 0 182 0;
#X connect 173 0 183 0;
#X connect 184 0 191 0;
#X connect 185 0 188 0;
#X connect 186 0 189 0;
#X connect 187 0 190 0;
#X connect 192 0 193 0;
#X connect 194 0 195 0;
#X connect 196 0 202 0;
#X connect 197 0 203 0;
#X connect 198 0 204 0;
#X connect 199 0 205 0;
#X connect 200 0 201 0;
#X connect 206 0 210 0;
#X connect 207 0 211 0;
#X connect 208 0 212 0;
#X connect 209 0 213 0;
#X connect 216 0 215 0;
#X connect 217 0 218 0;
#X connect 219 0 220 0;
#X connect 221 0 214 0;
#X connect 221 0 219 0;
#X connect 221 0 223 0;
#X connect 222 0 221 0;
#X connect 223 0 226 0;
#X connect 224 0 221 1;
#X connect 225 0 28 0;
#X connect 226 0 228 0;
#X connect 227 0 226 1;
#X connect 229 0 239 0;
#X connect 230 0 0 0;
#X connect 230 1 1 0;
#X connect 230 2 2 0;
#X connect 230 3 3 0;
#X connect 230 4 4 0;
#X connect 230 5 5 0;
#X connect 230 6 6 0;
#X connect 230 7 7 0;
#X connect 230 8 8 0;
#X connect 230 9 9 0;
#X connect 230 10 10 0;
#X connect 230 11 11 0;
#X connect 230 12 12 0;
#X connect 230 13 13 0;
#X connect 230 14 14 0;
#X connect 230 15 15 0;
#X connect 230 16 16 0;
#X connect 230 17 17 0;
#X connect 230 18 18 0;
#X connect 230 19 19 0;
#X connect 230 20 20 0;
#X connect 230 21 21 0;
#X connect 230 22 22 0;
#X connect 230 23 23 0;
#X connect 230 24 24 0;
#X connect 230 25 25 0;
#X connect 230 26 86 0;
#X connect 230 27 87 0;
#X connect 230 28 88 0;
#X connect 230 29 89 0;
#X connect 230 30 90 0;
#X connect 230 31 91 0;
#X connect 230 32 92 0;
#X connect 230 33 93 0;
#X connect 230 34 94 0;
#X connect 230 35 95 0;
#X connect 230 36 96 0;
#X connect 230 37 97 0;
#X connect 230 38 98 0;
#X connect 230 39 99 0;
#X connect 230 40 100 0;
#X connect 230 41 101 0;
#X connect 230 42 102 0;
#X connect 230 43 103 0;
#X connect 230 44 104 0;
#X connect 230 45 105 0;
#X connect 230 46 106 0;
#X connect 230 47 107 0;
#X connect 230 48 108 0;
#X connect 230 49 109 0;
#X connect 230 50 110 0;
#X connect 230 51 111 0;
#X connect 230 52 184 0;
#X connect 230 53 185 0;
#X connect 230 54 194 0;
#X connect 230 55 192 0;
#X connect 230 56 164 0;
#X connect 230 57 165 0;
#X connect 230 58 166 0;
#X connect 230 59 167 0;
#X connect 230 60 168 0;
#X connect 230 61 169 0;
#X connect 230 62 170 0;
#X connect 230 63 171 0;
#X connect 230 64 172 0;
#X connect 230 65 173 0;
#X connect 230 66 186 0;
#X connect 230 67 187 0;
#X connect 230 68 200 0;
#X connect 230 69 196 0;
#X connect 230 70 197 0;
#X connect 230 71 198 0;
#X connect 230 72 199 0;
#X connect 230 73 206 0;
#X connect 230 74 207 0;
#X connect 230 75 208 0;
#X connect 230 76 209 0;
#X connect 230 77 216 0;
#X connect 230 79 217 0;
#X connect 231 0 240 0;
#X connect 232 0 233 0;
#X connect 233 0 237 0;
#X connect 234 0 232 0;
#X connect 234 1 235 0;
#X connect 235 0 233 1;
#X connect 235 1 236 0;
#X connect 236 0 226 1;
#X connect 237 0 226 1;
#X connect 238 0 26 1;
#X connect 239 0 241 0;
#X connect 239 1 234 0;
#X connect 239 2 231 0;
#X connect 240 0 33 0;
#X connect 240 1 26 0;
#X connect 240 2 238 0;
#X connect 240 3 224 0;
#X connect 240 4 232 0;
#X connect 241 0 240 0;
