#N canvas 78 148 981 657 12;
#X floatatom 34 305 5 0 0 0 - - - 0;
#X floatatom 328 317 5 0 0 0 - - - 0;
#X floatatom 636 318 5 0 0 0 - - - 0;
#X floatatom 1171 308 5 0 0 0 - - - 0;
#X floatatom 1321 332 5 0 0 0 - - - 0;
#X obj 119 568 outlet;
#X floatatom 1443 334 5 0 0 0 - - - 0;
#X floatatom 1575 338 5 0 0 0 - - - 0;
#X floatatom 1696 334 5 0 0 0 - - - 0;
#X obj 114 81 s \$0-inmills;
#X obj 34 256 f;
#X obj 53 232 r \$0-inmills;
#X obj 332 48 hradio 15 1 0 13 empty empty empty 0 -8 0 10 #fcfcfc #000000 #000000 0;
#X obj 328 269 f;
#X obj 350 247 r \$0-inmills;
#X obj 635 269 f;
#X obj 654 245 r \$0-inmills;
#X obj 1171 260 f;
#X obj 1190 236 r \$0-inmills;
#X obj 1321 282 f;
#X obj 1340 258 r \$0-inmills;
#X obj 1443 286 f;
#X obj 1462 262 r \$0-inmills;
#X obj 1575 287 f;
#X obj 1594 263 r \$0-inmills;
#X obj 1696 283 f;
#X obj 1715 259 r \$0-inmills;
#X obj 301 132 f;
#X obj 74 58 t b f;
#X obj 34 281 / 1;
#X obj 328 292 / 1.5;
#X obj 636 294 / 2;
#X obj 1171 285 / 3;
#X obj 1321 306 / 4;
#X obj 1443 309 / 8;
#X obj 1575 312 / 16;
#X obj 1696 308 / 32;
#X obj 332 24 inlet;
#X obj 74 33 inlet;
#X obj 547 568 outlet;
#X obj 34 208 t b b;
#X obj 327 216 t b b;
#X obj 635 221 t b b;
#X obj 1171 212 t b b;
#X obj 1322 235 t b b;
#X obj 1443 238 t b b;
#X obj 1575 239 t b b;
#X obj 1696 235 t b b;
#X msg 57 381 symbol x\$1;
#X msg 290 568 symbol x\$1;
#X obj 57 357 f;
#X obj 354 369 f;
#X obj 658 369 f;
#X msg 658 392 symbol x\$1;
#X msg 1181 386 symbol x\$1;
#X msg 1343 407 symbol x\$1;
#X msg 1593 423 symbol x\$1;
#X msg 1726 424 symbol x\$1;
#X obj 1178 364 f;
#X obj 1344 384 f;
#X msg 1457 414 symbol x\$1;
#X obj 1457 392 f;
#X obj 1591 395 f;
#X obj 1728 389 f;
#X obj 47 130 f;
#X obj 17 404 f;
#X obj 315 382 f;
#X obj 623 390 f;
#X obj 1128 414 f;
#X obj 1288 411 f;
#X obj 1426 419 f;
#X obj 1541 466 f;
#X obj 1675 467 f;
#X floatatom 150 307 5 0 0 0 - - - 0;
#X obj 150 258 f;
#X obj 169 234 r \$0-inmills;
#X obj 150 210 t b b;
#X msg 173 383 symbol x\$1;
#X obj 173 359 f;
#X obj 133 406 f;
#X obj 150 283 / 1.25;
#X floatatom 491 311 5 0 0 0 - - - 0;
#X obj 491 262 f;
#X obj 510 238 r \$0-inmills;
#X obj 491 214 t b b;
#X msg 514 387 symbol x\$1;
#X obj 514 363 f;
#X obj 474 369 f;
#X obj 491 287 / 1.75;
#X floatatom 776 306 5 0 0 0 - - - 0;
#X obj 776 257 f;
#X obj 795 233 r \$0-inmills;
#X obj 776 209 t b b;
#X msg 799 382 symbol x\$1;
#X obj 799 358 f;
#X obj 759 405 f;
#X obj 776 282 / 2.25;
#X floatatom 1029 306 5 0 0 0 - - - 0;
#X obj 1029 257 f;
#X obj 1048 233 r \$0-inmills;
#X obj 1029 209 t b b;
#X msg 1052 382 symbol x\$1;
#X obj 1052 358 f;
#X obj 1012 405 f;
#X obj 1029 281 / 2.75;
#X floatatom 903 309 5 0 0 0 - - - 0;
#X obj 903 260 f;
#X obj 922 236 r \$0-inmills;
#X obj 903 212 t b b;
#X msg 926 385 symbol x\$1;
#X obj 926 361 f;
#X obj 886 408 f;
#X obj 903 285 / 2.5;
#X obj 301 155 sel 0 1 2 3 4 5 6 7 8 9 10 11 12, f 108;
#X obj 44 153 sel 0 1 2 3 4 5 6 7 8 9 10 11 12;
#X obj 1188 559 outlet;
#X obj 34 328 t f b f b;
#X msg 97 354 1;
#X msg 206 362 1.25;
#X obj 150 330 t f b f b;
#X msg 548 363 1.75;
#X obj 491 334 t f b f b;
#X obj 329 340 t f b f b;
#X msg 394 365 1.5;
#X obj 635 343 t f b f b;
#X msg 704 367 2;
#X obj 776 329 t f b f b;
#X msg 968 359 2.5;
#X obj 903 332 t f b f b;
#X msg 1095 356 2.75;
#X obj 1029 329 t f b f b;
#X msg 1222 359 3;
#X obj 1157 336 t f b f b;
#X obj 1318 359 t f b f b;
#X msg 1390 380 4;
#X obj 1435 359 t f b f b;
#X msg 1510 390 8;
#X msg 1635 393 16;
#X obj 1570 365 t f b f b;
#X msg 1764 388 32;
#X obj 1689 361 t f b f b;
#X msg 837 359 2.25;
#X obj 156 1 r \$0-\$1-default-mills;
#X obj 333 66 t b f b f;
#X msg 229 77 380;
#X obj 228 26 loadbang;
#X obj 229 52 t b;
#X connect 0 0 116 0;
#X connect 1 0 122 0;
#X connect 2 0 124 0;
#X connect 3 0 132 0;
#X connect 4 0 133 0;
#X connect 6 0 135 0;
#X connect 7 0 138 0;
#X connect 8 0 140 0;
#X connect 10 0 29 0;
#X connect 11 0 10 1;
#X connect 12 0 143 0;
#X connect 13 0 30 0;
#X connect 14 0 13 1;
#X connect 15 0 31 0;
#X connect 16 0 15 1;
#X connect 17 0 32 0;
#X connect 18 0 17 1;
#X connect 19 0 33 0;
#X connect 20 0 19 1;
#X connect 21 0 34 0;
#X connect 22 0 21 1;
#X connect 23 0 35 0;
#X connect 24 0 23 1;
#X connect 25 0 36 0;
#X connect 26 0 25 1;
#X connect 27 0 113 0;
#X connect 28 1 9 0;
#X connect 29 0 0 0;
#X connect 30 0 1 0;
#X connect 31 0 2 0;
#X connect 32 0 3 0;
#X connect 33 0 4 0;
#X connect 34 0 6 0;
#X connect 35 0 7 0;
#X connect 36 0 8 0;
#X connect 37 0 12 0;
#X connect 38 0 28 0;
#X connect 40 0 10 0;
#X connect 41 0 13 0;
#X connect 42 0 15 0;
#X connect 43 0 17 0;
#X connect 44 0 19 0;
#X connect 45 0 21 0;
#X connect 46 0 23 0;
#X connect 47 0 25 0;
#X connect 48 0 39 0;
#X connect 49 0 39 0;
#X connect 50 0 48 0;
#X connect 51 0 49 0;
#X connect 52 0 53 0;
#X connect 53 0 39 0;
#X connect 54 0 39 0;
#X connect 55 0 39 0;
#X connect 56 0 39 0;
#X connect 57 0 39 0;
#X connect 58 0 54 0;
#X connect 59 0 55 0;
#X connect 60 0 39 0;
#X connect 61 0 60 0;
#X connect 62 0 56 0;
#X connect 63 0 57 0;
#X connect 64 0 114 0;
#X connect 65 0 5 0;
#X connect 66 0 5 0;
#X connect 67 0 5 0;
#X connect 68 0 5 0;
#X connect 69 0 5 0;
#X connect 70 0 5 0;
#X connect 71 0 5 0;
#X connect 72 0 5 0;
#X connect 73 0 119 0;
#X connect 74 0 80 0;
#X connect 75 0 74 1;
#X connect 76 0 74 0;
#X connect 77 0 39 0;
#X connect 78 0 77 0;
#X connect 79 0 5 0;
#X connect 80 0 73 0;
#X connect 81 0 121 0;
#X connect 82 0 88 0;
#X connect 83 0 82 1;
#X connect 84 0 82 0;
#X connect 85 0 39 0;
#X connect 86 0 85 0;
#X connect 87 0 5 0;
#X connect 88 0 81 0;
#X connect 89 0 126 0;
#X connect 90 0 96 0;
#X connect 91 0 90 1;
#X connect 92 0 90 0;
#X connect 93 0 39 0;
#X connect 94 0 93 0;
#X connect 95 0 5 0;
#X connect 96 0 89 0;
#X connect 97 0 130 0;
#X connect 98 0 104 0;
#X connect 99 0 98 1;
#X connect 100 0 98 0;
#X connect 101 0 39 0;
#X connect 102 0 101 0;
#X connect 103 0 5 0;
#X connect 104 0 97 0;
#X connect 105 0 128 0;
#X connect 106 0 112 0;
#X connect 107 0 106 1;
#X connect 108 0 106 0;
#X connect 109 0 39 0;
#X connect 110 0 109 0;
#X connect 111 0 5 0;
#X connect 112 0 105 0;
#X connect 113 0 40 0;
#X connect 113 1 76 0;
#X connect 113 2 41 0;
#X connect 113 3 84 0;
#X connect 113 4 42 0;
#X connect 113 5 92 0;
#X connect 113 6 108 0;
#X connect 113 7 100 0;
#X connect 113 8 43 0;
#X connect 113 9 44 0;
#X connect 113 10 45 0;
#X connect 113 11 46 0;
#X connect 113 12 47 0;
#X connect 114 0 65 0;
#X connect 114 1 79 0;
#X connect 114 2 66 0;
#X connect 114 3 87 0;
#X connect 114 4 67 0;
#X connect 114 5 95 0;
#X connect 114 6 111 0;
#X connect 114 7 103 0;
#X connect 114 8 68 0;
#X connect 114 9 69 0;
#X connect 114 10 70 0;
#X connect 114 11 71 0;
#X connect 114 12 72 0;
#X connect 116 0 65 1;
#X connect 116 1 50 0;
#X connect 116 2 50 1;
#X connect 116 3 117 0;
#X connect 117 0 115 0;
#X connect 118 0 115 0;
#X connect 119 0 79 1;
#X connect 119 1 78 0;
#X connect 119 2 78 1;
#X connect 119 3 118 0;
#X connect 120 0 115 0;
#X connect 121 0 87 1;
#X connect 121 1 86 0;
#X connect 121 2 86 1;
#X connect 121 3 120 0;
#X connect 122 0 66 1;
#X connect 122 1 51 0;
#X connect 122 2 51 1;
#X connect 122 3 123 0;
#X connect 123 0 115 0;
#X connect 124 0 67 1;
#X connect 124 1 52 0;
#X connect 124 2 52 1;
#X connect 124 3 125 0;
#X connect 125 0 115 0;
#X connect 126 0 95 1;
#X connect 126 1 94 0;
#X connect 126 2 94 1;
#X connect 126 3 141 0;
#X connect 127 0 115 0;
#X connect 128 0 111 1;
#X connect 128 1 110 0;
#X connect 128 2 110 1;
#X connect 128 3 127 0;
#X connect 129 0 115 0;
#X connect 130 0 103 1;
#X connect 130 1 102 0;
#X connect 130 2 102 1;
#X connect 130 3 129 0;
#X connect 131 0 115 0;
#X connect 132 0 68 1;
#X connect 132 1 58 0;
#X connect 132 2 58 1;
#X connect 132 3 131 0;
#X connect 133 0 69 1;
#X connect 133 1 59 0;
#X connect 133 2 59 1;
#X connect 133 3 134 0;
#X connect 134 0 115 0;
#X connect 135 0 70 1;
#X connect 135 1 61 0;
#X connect 135 2 61 1;
#X connect 135 3 136 0;
#X connect 136 0 115 0;
#X connect 137 0 115 0;
#X connect 138 0 71 1;
#X connect 138 1 62 0;
#X connect 138 2 62 1;
#X connect 138 3 137 0;
#X connect 139 0 115 0;
#X connect 140 0 72 1;
#X connect 140 1 63 0;
#X connect 140 2 63 1;
#X connect 140 3 139 0;
#X connect 141 0 115 0;
#X connect 142 0 9 0;
#X connect 143 0 64 0;
#X connect 143 1 64 1;
#X connect 143 2 27 0;
#X connect 143 3 27 1;
#X connect 144 0 9 0;
#X connect 145 0 146 0;
#X connect 146 0 144 0;
