#N canvas 803 113 679 515 12;
#X declare -lib clearessentials;
#X declare -path clearessentials;
#X obj 466 221 outlet;
#X obj 293 213 outlet;
#X obj 290 69 inlet;
#X obj 458 69 inlet;
#X obj 24 113 sel 0 1 2 3 4 5 6 7 8 9;
#N canvas 1082 341 580 555 \$0-operator-greater 0;
#X obj 262 13 inlet;
#X msg 261 67 1;
#X obj 263 40 t b b;
#X obj 117 235 spigot 0;
#X obj 174 323 spigot 0;
#X obj 227 222 == 0;
#X obj 226 275 == 1;
#X obj 226 246 change;
#X obj 172 182 tgl 19 0 empty empty empty 0 -10 0 12 #fcfcfc #000000 #000000 0 1;
#X obj 227 298 tgl 19 0 empty empty empty 0 -10 0 12 #fcfcfc #000000 #000000 0 1;
#X obj 171 209 t f f;
#X obj 176 350 t b a;
#X obj 113 267 t b a;
#X obj 116 51 r \$0-faucet-value;
#X obj 174 157 >;
#X obj 120 131 t a a a;
#X obj 190 131 r \$0-faucet-comparison;
#X obj 154 407 once;
#X obj 209 376 once;
#X obj 140 509 s \$0-to-faucet-outlet-0;
#X obj 213 432 s \$0-to-faucet-outlet-1;
#X obj 121 107 spigot 0;
#X obj 218 81 tgl 19 0 empty empty empty 0 -10 0 12 #fcfcfc #000000 #000000 0 1;
#X obj 371 68 loadbang;
#X obj 370 95 t b b b;
#X msg 338 66 0;
#X obj 354 15 r \$0-onopchange;
#X obj 348 40 t b;
#X obj 153 436 t a b;
#X obj 209 484 s \$0-optype;
#X msg 210 455 symbol >;
#X obj 212 404 t a b;
#X connect 0 0 2 0;
#X connect 1 0 22 0;
#X connect 2 0 1 0;
#X connect 2 1 30 0;
#X connect 3 0 12 0;
#X connect 4 0 11 0;
#X connect 5 0 7 0;
#X connect 6 0 9 0;
#X connect 7 0 6 0;
#X connect 8 0 10 0;
#X connect 9 0 4 1;
#X connect 10 0 3 1;
#X connect 10 1 5 0;
#X connect 11 0 17 1;
#X connect 11 1 18 0;
#X connect 12 0 18 1;
#X connect 12 1 17 0;
#X connect 13 0 21 0;
#X connect 14 0 8 0;
#X connect 15 0 3 0;
#X connect 15 1 4 0;
#X connect 15 2 14 0;
#X connect 16 0 14 1;
#X connect 17 0 28 0;
#X connect 18 0 31 0;
#X connect 21 0 15 0;
#X connect 22 0 21 1;
#X connect 23 0 24 0;
#X connect 24 2 22 0;
#X connect 25 0 22 0;
#X connect 26 0 27 0;
#X connect 27 0 25 0;
#X connect 28 0 19 0;
#X connect 28 1 30 0;
#X connect 30 0 29 0;
#X connect 31 0 20 0;
#X connect 31 1 30 0;
#X restore 21 144 pd \$0-operator-greater;
#N canvas 868 300 450 474 \$0-operator-greaterorequal 0;
#X obj 260 13 inlet;
#X msg 261 67 1;
#X obj 263 40 t b b;
#X obj 117 235 spigot 0;
#X obj 174 323 spigot 0;
#X obj 227 222 == 0;
#X obj 226 275 == 1;
#X obj 226 246 change;
#X obj 172 182 tgl 19 0 empty empty empty 0 -10 0 12 #fcfcfc #000000 #000000 0 1;
#X obj 227 298 tgl 19 0 empty empty empty 0 -10 0 12 #fcfcfc #000000 #000000 0 1;
#X obj 171 209 t f f;
#X obj 176 350 t b a;
#X obj 113 267 t b a;
#X obj 116 51 r \$0-faucet-value;
#X obj 120 131 t a a a;
#X obj 190 131 r \$0-faucet-comparison;
#X obj 154 407 once;
#X obj 209 376 once;
#X obj 121 107 spigot 0;
#X obj 218 81 tgl 19 0 empty empty empty 0 -10 0 12 #fcfcfc #000000 #000000 0 1;
#X obj 371 90 loadbang;
#X obj 370 117 t b b b;
#X msg 391 142 0;
#X obj 174 157 >=;
#X msg 323 72 0;
#X obj 339 21 r \$0-onopchange;
#X obj 333 46 t b;
#X obj 140 509 s \$0-to-faucet-outlet-0;
#X obj 213 432 s \$0-to-faucet-outlet-1;
#X obj 153 436 t a b;
#X obj 209 484 s \$0-optype;
#X obj 212 404 t a b;
#X msg 210 455 symbol >=;
#X connect 0 0 2 0;
#X connect 1 0 19 0;
#X connect 2 0 1 0;
#X connect 2 1 32 0;
#X connect 3 0 12 0;
#X connect 4 0 11 0;
#X connect 5 0 7 0;
#X connect 6 0 9 0;
#X connect 7 0 6 0;
#X connect 8 0 10 0;
#X connect 9 0 4 1;
#X connect 10 0 3 1;
#X connect 10 1 5 0;
#X connect 11 0 16 1;
#X connect 11 1 17 0;
#X connect 12 0 17 1;
#X connect 12 1 16 0;
#X connect 13 0 18 0;
#X connect 14 0 3 0;
#X connect 14 1 4 0;
#X connect 14 2 23 0;
#X connect 15 0 23 1;
#X connect 16 0 29 0;
#X connect 17 0 31 0;
#X connect 18 0 14 0;
#X connect 19 0 18 1;
#X connect 20 0 21 0;
#X connect 21 1 22 0;
#X connect 21 2 19 0;
#X connect 22 0 19 0;
#X connect 23 0 8 0;
#X connect 24 0 19 0;
#X connect 25 0 26 0;
#X connect 26 0 24 0;
#X connect 29 0 27 0;
#X connect 29 1 32 0;
#X connect 31 0 28 0;
#X connect 31 1 32 0;
#X connect 32 0 30 0;
#X restore 30 167 pd \$0-operator-greaterorequal;
#N canvas 868 300 450 524 \$0-operator-lessorequal 0;
#X obj 215 27 inlet;
#X msg 198 88 1;
#X obj 200 61 t b b;
#X obj 54 256 spigot 0;
#X obj 111 344 spigot 0;
#X obj 164 243 == 0;
#X obj 163 296 == 1;
#X obj 163 267 change;
#X obj 109 203 tgl 19 0 empty empty empty 0 -10 0 12 #fcfcfc #000000 #000000 0 1;
#X obj 164 319 tgl 19 0 empty empty empty 0 -10 0 12 #fcfcfc #000000 #000000 0 1;
#X obj 108 230 t f f;
#X obj 113 371 t b a;
#X obj 50 288 t b a;
#X obj 53 72 r \$0-faucet-value;
#X obj 57 152 t a a a;
#X obj 127 152 r \$0-faucet-comparison;
#X obj 91 428 once;
#X obj 146 397 once;
#X obj 58 128 spigot 0;
#X obj 155 102 tgl 19 0 empty empty empty 0 -10 0 12 #fcfcfc #000000 #000000 0 1;
#X obj 293 75 loadbang;
#X obj 292 102 t b b b;
#X msg 330 130 0;
#X obj 111 178 <=;
#X msg 242 101 0;
#X obj 258 50 r \$0-onopchange;
#X obj 252 75 t b;
#X obj 72 546 s \$0-to-faucet-outlet-0;
#X obj 145 469 s \$0-to-faucet-outlet-1;
#X obj 85 473 t a b;
#X obj 141 521 s \$0-optype;
#X obj 144 441 t a b;
#X msg 142 492 symbol <=;
#X connect 0 0 2 0;
#X connect 1 0 19 0;
#X connect 2 0 1 0;
#X connect 2 1 32 0;
#X connect 3 0 12 0;
#X connect 4 0 11 0;
#X connect 5 0 7 0;
#X connect 6 0 9 0;
#X connect 7 0 6 0;
#X connect 8 0 10 0;
#X connect 9 0 4 1;
#X connect 10 0 3 1;
#X connect 10 1 5 0;
#X connect 11 0 16 1;
#X connect 11 1 17 0;
#X connect 12 0 17 1;
#X connect 12 1 16 0;
#X connect 13 0 18 0;
#X connect 14 0 3 0;
#X connect 14 1 4 0;
#X connect 14 2 23 0;
#X connect 15 0 23 1;
#X connect 16 0 29 0;
#X connect 17 0 31 0;
#X connect 18 0 14 0;
#X connect 19 0 18 1;
#X connect 20 0 21 0;
#X connect 21 1 22 0;
#X connect 21 2 19 0;
#X connect 22 0 19 0;
#X connect 23 0 8 0;
#X connect 24 0 19 0;
#X connect 25 0 26 0;
#X connect 26 0 24 0;
#X connect 29 0 27 0;
#X connect 29 1 32 0;
#X connect 31 0 28 0;
#X connect 31 1 32 0;
#X connect 32 0 30 0;
#X restore 51 214 pd \$0-operator-lessorequal;
#N canvas 1176 378 450 580 \$0-operator-less 0;
#X obj 222 41 inlet;
#X msg 220 98 1;
#X obj 222 71 t b b;
#X obj 76 266 spigot 0;
#X obj 133 354 spigot 0;
#X obj 186 253 == 0;
#X obj 185 306 == 1;
#X obj 185 277 change;
#X obj 131 213 tgl 19 0 empty empty empty 0 -10 0 12 #fcfcfc #000000 #000000 0 1;
#X obj 186 329 tgl 19 0 empty empty empty 0 -10 0 12 #fcfcfc #000000 #000000 0 1;
#X obj 130 240 t f f;
#X obj 135 381 t b a;
#X obj 72 298 t b a;
#X obj 75 82 r \$0-faucet-value;
#X obj 79 162 t a a a;
#X obj 149 162 r \$0-faucet-comparison;
#X obj 113 438 once;
#X obj 168 407 once;
#X obj 80 138 spigot 0;
#X obj 177 112 tgl 19 0 empty empty empty 0 -10 0 12 #fcfcfc #000000 #000000 0 1;
#X obj 326 123 loadbang;
#X obj 325 150 t b b b;
#X msg 348 180 0;
#X obj 133 188 <;
#X msg 287 116 0;
#X obj 303 65 r \$0-onopchange;
#X obj 297 90 t b;
#X obj 96 546 s \$0-to-faucet-outlet-0;
#X obj 169 469 s \$0-to-faucet-outlet-1;
#X obj 109 473 t a b;
#X obj 165 521 s \$0-optype;
#X obj 168 441 t a b;
#X msg 166 492 symbol <;
#X connect 0 0 2 0;
#X connect 1 0 19 0;
#X connect 2 0 1 0;
#X connect 2 1 32 0;
#X connect 3 0 12 0;
#X connect 4 0 11 0;
#X connect 5 0 7 0;
#X connect 6 0 9 0;
#X connect 7 0 6 0;
#X connect 8 0 10 0;
#X connect 9 0 4 1;
#X connect 10 0 3 1;
#X connect 10 1 5 0;
#X connect 11 0 16 1;
#X connect 11 1 17 0;
#X connect 12 0 17 1;
#X connect 12 1 16 0;
#X connect 13 0 18 0;
#X connect 14 0 3 0;
#X connect 14 1 4 0;
#X connect 14 2 23 0;
#X connect 15 0 23 1;
#X connect 16 0 29 0;
#X connect 17 0 31 0;
#X connect 18 0 14 0;
#X connect 19 0 18 1;
#X connect 20 0 21 0;
#X connect 21 1 22 0;
#X connect 21 2 19 0;
#X connect 22 0 19 0;
#X connect 23 0 8 0;
#X connect 24 0 19 0;
#X connect 25 0 26 0;
#X connect 26 0 24 0;
#X connect 29 0 27 0;
#X connect 29 1 32 0;
#X connect 31 0 28 0;
#X connect 31 1 32 0;
#X connect 32 0 30 0;
#X restore 42 191 pd \$0-operator-less;
#N canvas 868 300 450 579 \$0-operator-equal 0;
#X obj 263 11 inlet;
#X msg 261 67 1;
#X obj 263 40 t b b;
#X obj 117 235 spigot 0;
#X obj 174 323 spigot 0;
#X obj 227 222 == 0;
#X obj 226 275 == 1;
#X obj 226 246 change;
#X obj 172 182 tgl 19 0 empty empty empty 0 -10 0 12 #fcfcfc #000000 #000000 0 1;
#X obj 227 298 tgl 19 0 empty empty empty 0 -10 0 12 #fcfcfc #000000 #000000 0 1;
#X obj 171 209 t f f;
#X obj 176 350 t b a;
#X obj 113 267 t b a;
#X obj 116 51 r \$0-faucet-value;
#X obj 120 131 t a a a;
#X obj 190 131 r \$0-faucet-comparison;
#X obj 154 407 once;
#X obj 209 376 once;
#X obj 121 107 spigot 0;
#X obj 218 81 tgl 19 0 empty empty empty 0 -10 0 12 #fcfcfc #000000 #000000 0 1;
#X obj 364 71 loadbang;
#X obj 363 98 t b b b;
#X msg 369 136 0;
#X obj 174 157 ==;
#X msg 317 83 0;
#X obj 333 32 r \$0-onopchange;
#X obj 327 57 t b;
#X obj 140 509 s \$0-to-faucet-outlet-0;
#X obj 213 432 s \$0-to-faucet-outlet-1;
#X obj 153 436 t a b;
#X obj 209 484 s \$0-optype;
#X obj 212 404 t a b;
#X msg 210 455 symbol ==;
#X connect 0 0 2 0;
#X connect 1 0 19 0;
#X connect 2 0 1 0;
#X connect 2 1 32 0;
#X connect 3 0 12 0;
#X connect 4 0 11 0;
#X connect 5 0 7 0;
#X connect 6 0 9 0;
#X connect 7 0 6 0;
#X connect 8 0 10 0;
#X connect 9 0 4 1;
#X connect 10 0 3 1;
#X connect 10 1 5 0;
#X connect 11 0 16 1;
#X connect 11 1 17 0;
#X connect 12 0 17 1;
#X connect 12 1 16 0;
#X connect 13 0 18 0;
#X connect 14 0 3 0;
#X connect 14 1 4 0;
#X connect 14 2 23 0;
#X connect 15 0 23 1;
#X connect 16 0 29 0;
#X connect 17 0 31 0;
#X connect 18 0 14 0;
#X connect 19 0 18 1;
#X connect 20 0 21 0;
#X connect 21 1 22 0;
#X connect 21 2 19 0;
#X connect 22 0 19 0;
#X connect 23 0 8 0;
#X connect 24 0 19 0;
#X connect 25 0 26 0;
#X connect 26 0 24 0;
#X connect 29 0 27 0;
#X connect 29 1 32 0;
#X connect 31 0 28 0;
#X connect 31 1 32 0;
#X connect 32 0 30 0;
#X restore 64 238 pd \$0-operator-equal;
#N canvas 868 300 450 543 \$0-operator-notequal 0;
#X obj 201 55 inlet;
#X msg 201 107 1;
#X obj 203 80 t b b;
#X obj 57 275 spigot 0;
#X obj 114 363 spigot 0;
#X obj 167 262 == 0;
#X obj 166 315 == 1;
#X obj 166 286 change;
#X obj 112 222 tgl 19 0 empty empty empty 0 -10 0 12 #fcfcfc #000000 #000000 0 1;
#X obj 167 338 tgl 19 0 empty empty empty 0 -10 0 12 #fcfcfc #000000 #000000 0 1;
#X obj 111 249 t f f;
#X obj 116 390 t b a;
#X obj 53 307 t b a;
#X obj 19 118 r \$0-faucet-value;
#X obj 60 171 t a a a;
#X obj 130 171 r \$0-faucet-comparison;
#X obj 94 447 once;
#X obj 149 416 once;
#X obj 61 147 spigot 0;
#X obj 158 121 tgl 19 0 empty empty empty 0 -10 0 12 #fcfcfc #000000 #000000 0 1;
#X obj 313 128 loadbang;
#X obj 312 155 t b b b;
#X msg 334 182 0;
#X obj 114 197 !=;
#X msg 277 101 0;
#X obj 293 50 r \$0-onopchange;
#X obj 287 75 t b;
#X obj 84 562 s \$0-to-faucet-outlet-0;
#X obj 157 485 s \$0-to-faucet-outlet-1;
#X obj 97 489 t a b;
#X obj 153 537 s \$0-optype;
#X obj 156 457 t a b;
#X msg 154 508 symbol !=;
#X connect 0 0 2 0;
#X connect 1 0 19 0;
#X connect 2 0 1 0;
#X connect 2 1 32 0;
#X connect 3 0 12 0;
#X connect 4 0 11 0;
#X connect 5 0 7 0;
#X connect 6 0 9 0;
#X connect 7 0 6 0;
#X connect 8 0 10 0;
#X connect 9 0 4 1;
#X connect 10 0 3 1;
#X connect 10 1 5 0;
#X connect 11 0 16 1;
#X connect 11 1 17 0;
#X connect 12 0 17 1;
#X connect 12 1 16 0;
#X connect 13 0 18 0;
#X connect 14 0 3 0;
#X connect 14 1 4 0;
#X connect 14 2 23 0;
#X connect 15 0 23 1;
#X connect 16 0 29 0;
#X connect 17 0 31 0;
#X connect 18 0 14 0;
#X connect 19 0 18 1;
#X connect 20 0 21 0;
#X connect 21 1 22 0;
#X connect 21 2 19 0;
#X connect 22 0 19 0;
#X connect 23 0 8 0;
#X connect 24 0 19 0;
#X connect 25 0 26 0;
#X connect 26 0 24 0;
#X connect 29 0 27 0;
#X connect 29 1 32 0;
#X connect 31 0 28 0;
#X connect 31 1 32 0;
#X connect 32 0 30 0;
#X restore 83 260 pd \$0-operator-notequal;
#N canvas 1356 108 472 675 \$0-operator-and 0;
#X obj 197 42 inlet;
#X msg 202 99 1;
#X obj 204 72 t b b;
#X obj 65 356 spigot 0;
#X obj 127 302 tgl 19 0 empty empty empty 0 -10 0 12 #fcfcfc #000000 #000000 0 1;
#X obj 126 329 t f f;
#X obj 45 84 r \$0-faucet-value;
#X obj 156 149 r \$0-faucet-comparison;
#X obj 65 407 once;
#X obj 45 135 spigot 0;
#X obj 159 113 tgl 19 0 empty empty empty 0 -10 0 12 #fcfcfc #000000 #000000 0 1;
#X obj 301 77 loadbang;
#X obj 303 100 t b b b;
#X msg 313 133 0;
#X obj 115 189 &;
#X msg 242 101 0;
#X obj 258 50 r \$0-onopchange;
#X obj 252 75 t b;
#X obj 90 484 s \$0-optype;
#X msg 90 461 symbol &;
#X obj 187 430 r \$0-faucet-comparison;
#X obj 187 522 &;
#X obj 45 109 t f;
#X obj 162 178 t f;
#X obj 65 382 t a b;
#X obj 187 499 t b f;
#X obj 187 476 f;
#X obj 187 453 t b f;
#X obj 65 432 t a b b;
#X obj 187 617 s \$0-to-faucet-outlet-0;
#X obj 45 160 t a a a;
#X obj 220 594 s \$0-to-faucet-outlet-1;
#X msg 219 570 -1;
#X obj 187 547 t a b;
#X obj 153 217 r \$0-to-faucet-outlet-0;
#X obj 118 244 t f;
#X obj 153 244 t f;
#X obj 127 271 !=;
#X connect 0 0 2 0;
#X connect 1 0 10 0;
#X connect 2 0 1 0;
#X connect 2 1 19 0;
#X connect 3 0 24 0;
#X connect 4 0 5 0;
#X connect 5 0 3 1;
#X connect 6 0 22 0;
#X connect 7 0 23 0;
#X connect 8 0 28 0;
#X connect 9 0 30 0;
#X connect 10 0 9 1;
#X connect 11 0 12 0;
#X connect 12 1 13 0;
#X connect 12 2 10 0;
#X connect 13 0 10 0;
#X connect 14 0 35 0;
#X connect 15 0 10 0;
#X connect 16 0 17 0;
#X connect 17 0 15 0;
#X connect 19 0 18 0;
#X connect 20 0 27 0;
#X connect 21 0 33 0;
#X connect 22 0 9 0;
#X connect 23 0 14 1;
#X connect 24 0 8 0;
#X connect 24 1 8 1;
#X connect 25 0 21 0;
#X connect 25 1 21 1;
#X connect 26 0 25 0;
#X connect 27 0 26 0;
#X connect 27 1 26 1;
#X connect 28 0 21 0;
#X connect 28 1 19 0;
#X connect 28 2 26 0;
#X connect 30 0 3 0;
#X connect 30 2 14 0;
#X connect 32 0 31 0;
#X connect 33 0 29 0;
#X connect 33 1 32 0;
#X connect 34 0 36 0;
#X connect 35 0 37 0;
#X connect 36 0 37 1;
#X connect 37 0 4 0;
#X restore 97 284 pd \$0-operator-and;
#N canvas 860 223 525 704 \$0-operator-or 0;
#X obj 191 25 inlet;
#X msg 196 82 1;
#X obj 198 55 t b b;
#X obj 66 357 spigot 0;
#X obj 128 303 tgl 19 0 empty empty empty 0 -10 0 12 #fcfcfc #000000 #000000 0 1;
#X obj 127 330 t f f;
#X obj 46 85 r \$0-faucet-value;
#X obj 157 150 r \$0-faucet-comparison;
#X obj 66 408 once;
#X obj 46 136 spigot 0;
#X obj 160 114 tgl 19 0 empty empty empty 0 -10 0 12 #fcfcfc #000000 #000000 0 1;
#X obj 302 78 loadbang;
#X obj 304 101 t b b b;
#X msg 314 134 0;
#X msg 243 102 0;
#X obj 259 51 r \$0-onopchange;
#X obj 253 76 t b;
#X obj 91 485 s \$0-optype;
#X obj 188 431 r \$0-faucet-comparison;
#X obj 46 110 t f;
#X obj 163 179 t f;
#X obj 66 383 t a b;
#X obj 188 500 t b f;
#X obj 188 477 f;
#X obj 188 454 t b f;
#X obj 66 433 t a b b;
#X obj 188 618 s \$0-to-faucet-outlet-0;
#X obj 46 161 t a a a;
#X obj 221 595 s \$0-to-faucet-outlet-1;
#X msg 220 571 -1;
#X obj 188 548 t a b;
#X obj 154 218 r \$0-to-faucet-outlet-0;
#X obj 119 245 t f;
#X obj 154 245 t f;
#X obj 128 272 !=;
#X obj 116 191 |;
#X obj 188 523 |;
#X msg 91 462 symbol |;
#X connect 0 0 2 0;
#X connect 1 0 10 0;
#X connect 2 0 1 0;
#X connect 2 1 37 0;
#X connect 3 0 21 0;
#X connect 4 0 5 0;
#X connect 5 0 3 1;
#X connect 6 0 19 0;
#X connect 7 0 20 0;
#X connect 8 0 25 0;
#X connect 9 0 27 0;
#X connect 10 0 9 1;
#X connect 11 0 12 0;
#X connect 12 1 13 0;
#X connect 12 2 10 0;
#X connect 13 0 10 0;
#X connect 14 0 10 0;
#X connect 15 0 16 0;
#X connect 16 0 14 0;
#X connect 18 0 24 0;
#X connect 19 0 9 0;
#X connect 20 0 35 1;
#X connect 21 0 8 0;
#X connect 21 1 8 1;
#X connect 22 0 36 0;
#X connect 22 1 36 1;
#X connect 23 0 22 0;
#X connect 24 0 23 0;
#X connect 24 1 23 1;
#X connect 25 0 36 0;
#X connect 25 1 37 0;
#X connect 25 2 23 0;
#X connect 27 0 3 0;
#X connect 27 2 35 0;
#X connect 29 0 28 0;
#X connect 30 0 26 0;
#X connect 30 1 29 0;
#X connect 31 0 33 0;
#X connect 32 0 34 0;
#X connect 33 0 34 1;
#X connect 34 0 4 0;
#X connect 35 0 32 0;
#X connect 36 0 30 0;
#X connect 37 0 17 0;
#X restore 116 306 pd \$0-operator-or;
#N canvas 1082 172 450 686 \$0-operator-rightshift 1;
#X obj 197 42 inlet;
#X msg 202 99 1;
#X obj 204 72 t b b;
#X obj 65 356 spigot 0;
#X obj 127 302 tgl 19 0 empty empty empty 0 -10 0 12 #fcfcfc #000000 #000000 0 1;
#X obj 126 329 t f f;
#X obj 45 84 r \$0-faucet-value;
#X obj 156 149 r \$0-faucet-comparison;
#X obj 65 407 once;
#X obj 45 135 spigot 0;
#X obj 159 113 tgl 19 0 empty empty empty 0 -10 0 12 #fcfcfc #000000 #000000 0 1;
#X obj 301 77 loadbang;
#X obj 303 100 t b b b;
#X msg 313 133 0;
#X msg 242 101 0;
#X obj 258 50 r \$0-onopchange;
#X obj 252 75 t b;
#X obj 90 484 s \$0-optype;
#X obj 188 412 r \$0-faucet-comparison;
#X obj 45 109 t f;
#X obj 65 382 t a b;
#X obj 188 481 t b f;
#X obj 188 458 f;
#X obj 188 435 t b f;
#X obj 65 432 t a b b;
#X obj 187 617 s \$0-to-faucet-outlet-0;
#X obj 45 160 t a a a;
#X obj 220 594 s \$0-to-faucet-outlet-1;
#X msg 219 570 -1;
#X obj 187 547 t a b;
#X obj 153 217 r \$0-to-faucet-outlet-0;
#X obj 118 244 t f;
#X obj 153 244 t f;
#X obj 127 271 !=;
#X obj 115 217 >>;
#X obj 187 521 >>;
#X msg 90 461 symbol >>;
#X obj 162 178 t b f;
#X connect 0 0 2 0;
#X connect 1 0 10 0;
#X connect 2 0 1 0;
#X connect 2 1 36 0;
#X connect 3 0 20 0;
#X connect 4 0 5 0;
#X connect 5 0 3 1;
#X connect 6 0 19 0;
#X connect 7 0 37 0;
#X connect 8 0 24 0;
#X connect 9 0 26 0;
#X connect 10 0 9 1;
#X connect 11 0 12 0;
#X connect 12 1 13 0;
#X connect 12 2 10 0;
#X connect 13 0 10 0;
#X connect 14 0 10 0;
#X connect 15 0 16 0;
#X connect 16 0 14 0;
#X connect 18 0 23 0;
#X connect 19 0 9 0;
#X connect 20 0 8 0;
#X connect 20 1 8 1;
#X connect 21 0 35 0;
#X connect 21 1 35 1;
#X connect 22 0 21 0;
#X connect 23 0 22 0;
#X connect 23 1 22 1;
#X connect 24 0 35 0;
#X connect 24 1 36 0;
#X connect 24 2 22 0;
#X connect 26 0 3 0;
#X connect 26 2 34 0;
#X connect 28 0 27 0;
#X connect 29 0 25 0;
#X connect 29 1 28 0;
#X connect 30 0 32 0;
#X connect 31 0 33 0;
#X connect 32 0 33 1;
#X connect 33 0 4 0;
#X connect 34 0 31 0;
#X connect 35 0 29 0;
#X connect 36 0 17 0;
#X connect 37 0 34 0;
#X connect 37 1 34 1;
#X restore 128 331 pd \$0-operator-rightshift;
#N canvas 868 300 462 600 \$0-operator-leftshift 0;
#X obj 197 42 inlet;
#X msg 202 99 1;
#X obj 204 72 t b b;
#X obj 65 356 spigot 0;
#X obj 127 302 tgl 19 0 empty empty empty 0 -10 0 12 #fcfcfc #000000 #000000 0 1;
#X obj 126 329 t f f;
#X obj 45 84 r \$0-faucet-value;
#X obj 156 149 r \$0-faucet-comparison;
#X obj 65 407 once;
#X obj 45 135 spigot 0;
#X obj 159 113 tgl 19 0 empty empty empty 0 -10 0 12 #fcfcfc #000000 #000000 0 1;
#X obj 301 77 loadbang;
#X obj 303 100 t b b b;
#X msg 313 133 0;
#X msg 242 101 0;
#X obj 258 50 r \$0-onopchange;
#X obj 252 75 t b;
#X obj 90 484 s \$0-optype;
#X obj 187 430 r \$0-faucet-comparison;
#X obj 45 109 t f;
#X obj 162 178 t f;
#X obj 65 382 t a b;
#X obj 187 499 t b f;
#X obj 187 476 f;
#X obj 187 453 t b f;
#X obj 65 432 t a b b;
#X obj 187 617 s \$0-to-faucet-outlet-0;
#X obj 45 160 t a a a;
#X obj 220 594 s \$0-to-faucet-outlet-1;
#X msg 219 570 -1;
#X obj 187 547 t a b;
#X obj 153 217 r \$0-to-faucet-outlet-0;
#X obj 118 244 t f;
#X obj 153 244 t f;
#X obj 127 271 !=;
#X obj 115 188 <<;
#X obj 187 522 <<;
#X msg 90 461 symbol <<;
#X connect 0 0 2 0;
#X connect 1 0 10 0;
#X connect 2 0 1 0;
#X connect 2 1 37 0;
#X connect 3 0 21 0;
#X connect 4 0 5 0;
#X connect 5 0 3 1;
#X connect 6 0 19 0;
#X connect 7 0 20 0;
#X connect 8 0 25 0;
#X connect 9 0 27 0;
#X connect 10 0 9 1;
#X connect 11 0 12 0;
#X connect 12 1 13 0;
#X connect 12 2 10 0;
#X connect 13 0 10 0;
#X connect 14 0 10 0;
#X connect 15 0 16 0;
#X connect 16 0 14 0;
#X connect 18 0 24 0;
#X connect 19 0 9 0;
#X connect 20 0 35 1;
#X connect 21 0 8 0;
#X connect 21 1 8 1;
#X connect 22 0 36 0;
#X connect 22 1 36 1;
#X connect 23 0 22 0;
#X connect 24 0 23 0;
#X connect 24 1 23 1;
#X connect 25 0 36 0;
#X connect 25 1 37 0;
#X connect 25 2 23 0;
#X connect 27 0 3 0;
#X connect 27 2 35 0;
#X connect 29 0 28 0;
#X connect 30 0 26 0;
#X connect 30 1 29 0;
#X connect 31 0 33 0;
#X connect 32 0 34 0;
#X connect 33 0 34 1;
#X connect 34 0 4 0;
#X connect 35 0 32 0;
#X connect 36 0 30 0;
#X connect 37 0 17 0;
#X restore 147 353 pd \$0-operator-leftshift;
#X obj 291 121 s \$0-faucet-value;
#X obj 464 123 s \$0-faucet-comparison;
#X obj 464 162 r \$0-to-faucet-outlet-1;
#X obj 289 160 r \$0-to-faucet-outlet-0;
#X obj 74 88 s \$0-onopchange;
#X obj 24 90 t f b;
#X obj 31 11 inlet;
#X obj 100 11 declare -lib clearessentials;
#X obj 319 13 declare -path clearessentials;
#X obj 24 55 hradio 19 1 0 10 empty empty Operator\ type 0 -10 0 12 #fcfcfc #000000 #000000 0;
#X obj 112 399 r \$0-optype;
#X obj 110 450 outlet;
#X obj 110 423 t a;
#X obj 291 97 t f;
#X obj 461 97 t f;
#X obj 292 188 t f;
#X obj 469 187 t f;
#X connect 2 0 28 0;
#X connect 3 0 29 0;
#X connect 4 0 5 0;
#X connect 4 1 6 0;
#X connect 4 2 8 0;
#X connect 4 3 7 0;
#X connect 4 4 9 0;
#X connect 4 5 10 0;
#X connect 4 6 11 0;
#X connect 4 7 12 0;
#X connect 4 8 13 0;
#X connect 4 9 14 0;
#X connect 17 0 31 0;
#X connect 18 0 30 0;
#X connect 20 0 4 0;
#X connect 20 1 19 0;
#X connect 21 0 24 0;
#X connect 24 0 20 0;
#X connect 25 0 27 0;
#X connect 27 0 26 0;
#X connect 28 0 15 0;
#X connect 29 0 16 0;
#X connect 30 0 1 0;
#X connect 31 0 0 0;
