#N canvas 743 113 923 659 12;
#X declare -path clearessentials;
#X text 36 56 Written By: Reg Finley;
#X text 35 77 Aka Scr1ptAl1as;
#X obj 36 158 reportissue;
#X obj 37 142 aboutexternal;
#X text 10 260 Outlet(s);
#X obj 27 5 declare -path clearessentials;
#X obj 38 177 watchtutorial;
#X obj 345 80 hradio 19 1 0 10 empty empty empty 0 -10 0 12 #fcfcfc #000000 #000000 0;
#X text 37 116 Pd 0.54.0;
#X text 94 280 1 - symbol;
#X text 94 259 0 - float;
#X text 94 209 0 - float;
#X text 10 210 Inlet(s);
#X text 94 230 1 - float max values 0-12;
#X floatatom 370 102 5 0 0 0 - - - 0;
#X floatatom 411 103 5 0 0 0 - - - 0;
#X floatatom 378 149 5 0 0 0 - - - 0;
#X floatatom 416 149 5 0 0 0 - - - 0;
#X symbolatom 345 198 10 0 0 1 Binary\ Operator\ as\ a\ symbol - - 0;
#X obj 378 171 bng 19 250 50 0 empty empty empty 0 -10 0 12 #fcfcfc #000000 #000000;
#X obj 418 169 bng 19 250 50 0 empty empty empty 0 -10 0 12 #fcfcfc #000000 #000000;
#X text 445 176 These bngs serve no purpose only here for visual queues;
#X obj 439 516 <;
#X obj 607 516 &;
#X obj 645 516 |;
#X obj 362 516 >;
#X obj 402 516 >=;
#X obj 514 516 ==;
#X obj 476 516 <=;
#X floatatom 607 421 5 0 0 0 - - - 0;
#X obj 607 451 t b f;
#X floatatom 727 544 7 0 0 0 - - - 0;
#X obj 727 516 <<;
#X obj 685 516 >>;
#X obj 553 516 !=;
#X floatatom 362 421 5 0 0 0 - - - 0;
#X floatatom 645 544 4 0 0 0 - - - 0;
#X floatatom 607 544 4 0 0 0 - - - 0;
#X floatatom 685 544 4 0 0 0 - - - 0;
#X text 648 419 right input;
#X obj 362 544 tgl 19 0 empty empty empty 17 7 0 10 #dfdfdf #000000 #000000 0 1;
#X obj 439 544 tgl 19 0 empty empty empty 17 7 0 10 #dfdfdf #000000 #000000 0 1;
#X obj 402 544 tgl 19 0 empty empty empty 17 7 0 10 #dfdfdf #000000 #000000 0 1;
#X obj 514 544 tgl 19 0 empty empty empty 17 7 0 10 #dfdfdf #000000 #000000 0 1;
#X obj 476 544 tgl 19 0 empty empty empty 17 7 0 10 #dfdfdf #000000 #000000 0 1;
#X obj 553 544 tgl 19 0 empty empty empty 17 7 0 10 #dfdfdf #000000 #000000 0 1;
#X obj 345 126 ce_trickle;
#X text 245 5 [ce_trickle] ia a way overly coded binary operator.;
#X text 35 37 ce_trickle v1.0;
#X text 456 135 True result will return to the second inlet;
#X text 457 156 False result will return to the third inlet;
#X text 341 234 Bitwise operators will return a value once until a new or different end result is returned.;
#X text 341 264 So if the end result is the same regardless of the input the value will not pass.;
#X text 341 295 The third outlet is not needed for bitwise operators and will return a -1 float.;
#X text 245 21 This patch can be a bit redundant but can serve a purpose when multipule comparrisons need to be checked with minimal code.;
#X text 339 333 ce_trickle provides the same functionality as all of this code below. Note* the end values are not the result of the binary operator but the corresponding values based on the floats provided. With the exception of bitwise operators as described above.;
#X text 35 93 2023/08/06 3:16 PM;
#X connect 7 0 46 0;
#X connect 14 0 46 1;
#X connect 15 0 46 2;
#X connect 16 0 19 0;
#X connect 17 0 20 0;
#X connect 22 0 41 0;
#X connect 23 0 37 0;
#X connect 24 0 36 0;
#X connect 25 0 40 0;
#X connect 26 0 42 0;
#X connect 27 0 43 0;
#X connect 28 0 44 0;
#X connect 29 0 30 0;
#X connect 30 0 25 0;
#X connect 30 0 34 0;
#X connect 30 0 33 0;
#X connect 30 0 32 0;
#X connect 30 0 28 0;
#X connect 30 0 27 0;
#X connect 30 0 26 0;
#X connect 30 0 24 0;
#X connect 30 0 23 0;
#X connect 30 0 22 0;
#X connect 30 1 23 1;
#X connect 30 1 24 1;
#X connect 30 1 32 1;
#X connect 30 1 33 1;
#X connect 30 1 25 1;
#X connect 30 1 26 1;
#X connect 30 1 27 1;
#X connect 30 1 34 1;
#X connect 30 1 28 1;
#X connect 30 1 22 1;
#X connect 32 0 31 0;
#X connect 33 0 38 0;
#X connect 34 0 45 0;
#X connect 35 0 23 0;
#X connect 35 0 24 0;
#X connect 35 0 32 0;
#X connect 35 0 33 0;
#X connect 35 0 25 0;
#X connect 35 0 26 0;
#X connect 35 0 27 0;
#X connect 35 0 28 0;
#X connect 35 0 22 0;
#X connect 35 0 34 0;
#X connect 46 0 18 0;
#X connect 46 1 16 0;
#X connect 46 2 17 0;
