#N canvas 224 224 714 607 12;
#X declare -lib clearessentials;
#X floatatom 86 174 11 0 0 1 midi\ velocity\ 0-127\ value - - 0;
#X floatatom 86 226 11 0 0 0 - - - 0;
#X obj 86 200 * 0.1;
#X obj 87 150 int;
#X floatatom 87 273 10 0 0 0 - - - 0;
#X obj 87 250 / 127;
#X floatatom 66 327 11 0 0 0 As\ 0-1 - - 0;
#X floatatom 172 340 5 0 0 1 - - - 0;
#X floatatom 172 411 9 0 0 1 As\ DB - - 0;
#X obj 172 386 * 0.1;
#X obj 172 316 * 2000;
#X obj 172 362 int;
#X obj 90 45 inlet;
#X obj 67 423 outlet;
#X obj 173 438 outlet;
#X obj 195 14 declare -lib clearessentials;
#X obj 65 374 * 0.1;
#X floatatom 66 399 10 0 0 0 - - - 0;
#X obj 65 349 int;
#X obj 67 303 * 100;
#X obj 163 106 t b f;
#X obj 163 135 f;
#X obj 228 108 t b f;
#X obj 232 137 f;
#X obj 89 78 route float set_maxvel set_maxdb;
#X floatatom 231 304 9 0 0 0 - - - 0;
#X obj 217 264 * 100;
#X obj 193 40 namecanvas \$0-ce_veltodb;
#X connect 0 0 2 0;
#X connect 1 0 5 0;
#X connect 2 0 1 0;
#X connect 3 0 0 0;
#X connect 4 0 10 0;
#X connect 4 0 19 0;
#X connect 5 0 4 0;
#X connect 6 0 18 0;
#X connect 7 0 11 0;
#X connect 8 0 14 0;
#X connect 9 0 8 0;
#X connect 10 0 7 0;
#X connect 11 0 9 0;
#X connect 12 0 24 0;
#X connect 16 0 17 0;
#X connect 17 0 13 0;
#X connect 18 0 16 0;
#X connect 19 0 6 0;
#X connect 20 0 21 0;
#X connect 20 1 21 1;
#X connect 21 0 5 1;
#X connect 22 0 23 0;
#X connect 22 1 23 1;
#X connect 23 0 26 0;
#X connect 24 0 3 0;
#X connect 24 1 20 0;
#X connect 24 2 22 0;
#X connect 26 0 10 1;
#X connect 26 0 25 0;
