#N canvas 213 100 1920 997 12;
#X msg 627 830 clear;
#X msg 675 830 read wtablepresets.txt;
#X obj 677 857 text define -k \$0-wtablepresets;
#A set 0 Square 0 0.333 0 0.2 0 0.142857 0 0.111111 0 0.090909 0 0.0769213
\; 1 Tri 0 -0.111111 0 0.04 -0.020408 0 0.0123457 0 -0.00826446 0 0
0 \; 2 Sine 0 0 0 0 0 0 0 0 0 0 0 0 \; 3 Saw 0.5 0.333 0.25 0.2 0.166667
0.142857 0.125 0.111111 0.1 0.090909 0.0833333 0.0769213 \;;
#X msg 704 802 write wtablepresets.txt;
#X text 1301 594 insert before line 2;
#X obj 1043 616 text insert \$0-wtablepresets 3;
#X obj 381 343 text get \$0-wtablepresets 1;
#X obj 655 210 bng 15 250 50 0 empty empty empty 17 7 0 10 #fcfcfc
#000000 #000000;
#X obj 652 256 +;
#X floatatom 652 303 5 0 0 0 - - - 0;
#X msg 652 230 -1;
#X msg 735 226 1;
#X obj 734 206 bng 15 250 50 0 empty empty empty 17 7 0 10 #fcfcfc
#000000 #000000;
#X msg 654 799 -1;
#X obj 652 278 mod 64;
#X obj 593 754 loadbang;
#X obj 685 256 r \$0-totalpresetcount;
#X obj 594 960 text size \$0-wtablepresets 1;
#X obj 594 840 bng 15 250 50 0 empty empty empty 17 7 0 10 #fcfcfc
#000000 #000000;
#X obj 594 981 s \$0-totalpresetcount;
#X listbox 382 365 20 0 0 0 - - - 0;
#X obj 647 387 text get \$0-wtablepresets;
#X msg 708 359 2, f 2;
#X msg 758 358 12;
#X obj 659 409 unpack f f f f f f f f f f f f;
#X msg 699 433 set 0 \$1 \, get 0;
#X msg 710 455 set 1 \$1 \, get 1;
#X msg 720 479 set 2 \$1 \, get 2;
#X msg 731 501 set 3 \$1 \, get 3;
#X msg 741 525 set 4 \$1 \, get 4;
#X msg 749 545 set 5 \$1 \, get 5;
#X msg 759 569 set 6 \$1 \, get 6;
#X msg 770 591 set 7 \$1 \, get 7;
#X msg 780 615 set 8 \$1 \, get 8;
#X msg 793 639 set 9 \$1 \, get 9;
#X msg 803 663 set 10 \$1 \, get 10;
#X msg 814 685 set 11 \$1 \, get 11;
#X obj 728 164 r \$0-processnextpreset;
#X obj 653 183 r \$0-processprevpreset;
#X obj 411 -2 table \$0-lfotable;
#X obj 737 716 outlet;
#X obj 925 269 savepanel;
#X symbolatom 925 293 75 0 0 0 - - - 0;
#X obj 925 95 inlet;
#X obj 925 316 file splitname;
#X obj 925 341 unpack s s;
#X listbox 992 366 20 0 0 0 - - - 0;
#X obj 925 245 pdcontrol;
#X msg 925 221 dir;
#X obj 1043 542 pack f s f f f f f f f f f f f f;
#X msg 1083 389 get 0 \, get 1 \, get 2 \, get 3 \, get 4 \, get 5
\, get 6 \, get 7 \, get 8 \, get 9 \, get 10 \, get 11, f 85;
#X obj 1094 456 r slider0;
#X obj 1169 458 r slider1;
#X obj 1245 459 r slider2;
#X obj 1320 459 r slider3;
#X obj 1396 461 r slider4;
#X obj 1472 462 r slider5, f 10;
#X obj 1556 362 r slider6;
#X obj 1631 364 r slider7;
#X obj 1707 365 r slider8;
#X obj 1783 365 r slider9;
#X obj 1858 367 r slider10;
#X obj 1934 368 r slider11;
#X obj 1043 517 f;
#X obj 1063 429 r \$0-totalpresetcount;
#X obj 1146 590 r \$0-totalpresetcount;
#X obj 608 911 r \$0-processnextpreset;
#X obj 603 886 r \$0-processprevpreset;
#X obj 993 391 t b b b s b;
#X obj 993 426 del 20;
#X obj 993 448 t b;
#X msg 1043 566 \$1 \$2 \$3 \$4 \$5 \$6 \$7 \$8 \$9 \$10 \$11 \$12
\$13 \$14, f 78;
#X obj 438 470 s;
#X obj 456 388 loadbang;
#X obj 457 412 \$0;
#X msg 456 444 symbol \$1-presettable-recv;
#X msg 382 427 label \$1;
#X obj 382 387 l2s;
#X obj 1062 480 - 1;
#X obj 406 24 inlet;
#X obj 407 111 t a;
#N canvas 721 176 446 419 \$0-packedvalues 0;
#X obj 79 50 inlet;
#X obj 79 102 unpack f f;
#X obj 79 76 t a;
#X floatatom 79 134 5 0 0 0 - - - 0;
#X floatatom 146 128 5 0 0 0 - - - 0;
#X obj 79 187 route float;
#X floatatom 79 213 5 0 0 0 - - - 0;
#X obj 80 261 s \$0-tofield;
#X obj 146 151 s \$0-tovalue;
#N canvas 658 75 960 823 \$0-checkifsetvalue 0;
#X obj 98 218 spigot 0;
#X obj 153 196 tgl 15 0 empty empty empty 17 7 0 10 #fcfcfc #000000
#000000 0 1;
#X obj 153 172 t f;
#X obj 98 244 s slider0;
#X obj 153 25 r \$0-tofield;
#X obj 50 188 r \$0-tovalue;
#X obj 153 49 t f;
#X obj 261 224 spigot 0;
#X obj 316 202 tgl 15 0 empty empty empty 17 7 0 10 #fcfcfc #000000
#000000 0 1;
#X obj 316 178 t f;
#X obj 316 31 r \$0-tofield;
#X obj 213 194 r \$0-tovalue;
#X obj 316 55 t f;
#X obj 441 224 spigot 0;
#X obj 496 202 tgl 15 0 empty empty empty 17 7 0 10 #fcfcfc #000000
#000000 0 1;
#X obj 496 178 t f;
#X obj 496 31 r \$0-tofield;
#X obj 393 194 r \$0-tovalue;
#X obj 496 55 t f;
#X obj 611 224 spigot 0;
#X obj 666 202 tgl 15 0 empty empty empty 17 7 0 10 #fcfcfc #000000
#000000 0 1;
#X obj 666 178 t f;
#X obj 666 31 r \$0-tofield;
#X obj 563 194 r \$0-tovalue;
#X obj 666 55 t f;
#X obj 781 224 spigot 0;
#X obj 836 202 tgl 15 0 empty empty empty 17 7 0 10 #fcfcfc #000000
#000000 0 1;
#X obj 836 178 t f;
#X obj 836 31 r \$0-tofield;
#X obj 733 194 r \$0-tovalue;
#X obj 836 55 t f;
#X obj 93 481 spigot 0;
#X obj 148 459 tgl 15 0 empty empty empty 17 7 0 10 #fcfcfc #000000
#000000 0 1;
#X obj 148 435 t f;
#X obj 148 288 r \$0-tofield;
#X obj 45 451 r \$0-tovalue;
#X obj 148 312 t f;
#X obj 256 487 spigot 0;
#X obj 311 465 tgl 15 0 empty empty empty 17 7 0 10 #fcfcfc #000000
#000000 0 1;
#X obj 311 441 t f;
#X obj 311 294 r \$0-tofield;
#X obj 208 457 r \$0-tovalue;
#X obj 311 318 t f;
#X obj 436 487 spigot 0;
#X obj 491 465 tgl 15 0 empty empty empty 17 7 0 10 #fcfcfc #000000
#000000 0 1;
#X obj 491 441 t f;
#X obj 491 294 r \$0-tofield;
#X obj 388 457 r \$0-tovalue;
#X obj 491 318 t f;
#X obj 606 487 spigot 0;
#X obj 661 465 tgl 15 0 empty empty empty 17 7 0 10 #fcfcfc #000000
#000000 0 1;
#X obj 661 441 t f;
#X obj 661 294 r \$0-tofield;
#X obj 558 457 r \$0-tovalue;
#X obj 661 318 t f;
#X obj 776 487 spigot 0;
#X obj 831 465 tgl 15 0 empty empty empty 17 7 0 10 #fcfcfc #000000
#000000 0 1;
#X obj 831 441 t f;
#X obj 831 294 r \$0-tofield;
#X obj 728 457 r \$0-tovalue;
#X obj 831 318 t f;
#X obj 316 80 == 1;
#X obj 496 80 == 2;
#X obj 666 80 == 3;
#X obj 836 80 == 4;
#X obj 86 757 spigot 0;
#X obj 141 735 tgl 15 0 empty empty empty 17 7 0 10 #fcfcfc #000000
#000000 0 1;
#X obj 141 711 t f;
#X obj 141 564 r \$0-tofield;
#X obj 38 727 r \$0-tovalue;
#X obj 141 588 t f;
#X obj 256 757 spigot 0;
#X obj 311 735 tgl 15 0 empty empty empty 17 7 0 10 #fcfcfc #000000
#000000 0 1;
#X obj 311 711 t f;
#X obj 311 564 r \$0-tofield;
#X obj 208 727 r \$0-tovalue;
#X obj 311 588 t f;
#X obj 256 783 s slider11;
#X obj 86 783 s slider10;
#X obj 776 513 s slider9;
#X obj 606 513 s slider8;
#X obj 436 513 s slider7;
#X obj 256 513 s slider6;
#X obj 93 507 s slider5;
#X obj 781 250 s slider4;
#X obj 611 250 s slider3;
#X obj 441 250 s slider2;
#X obj 261 250 s slider1;
#X obj 153 74 < 1;
#X obj 148 337 == 5;
#X obj 311 343 == 6;
#X obj 491 343 == 7;
#X obj 661 343 == 8;
#X obj 831 343 == 9;
#X obj 141 613 == 10;
#X obj 311 613 == 11;
#X obj 153 99 == 1;
#X obj 311 638 == 1;
#X obj 141 638 == 1;
#X obj 148 362 == 1;
#X obj 311 368 == 1;
#X obj 491 368 == 1;
#X obj 661 368 == 1;
#X obj 831 368 == 1;
#X obj 836 105 == 1;
#X obj 666 105 == 1;
#X obj 496 105 == 1;
#X obj 316 105 == 1;
#X connect 0 0 3 0;
#X connect 1 0 0 1;
#X connect 2 0 1 0;
#X connect 4 0 6 0;
#X connect 5 0 0 0;
#X connect 6 0 88 0;
#X connect 7 0 87 0;
#X connect 8 0 7 1;
#X connect 9 0 8 0;
#X connect 10 0 12 0;
#X connect 11 0 7 0;
#X connect 12 0 61 0;
#X connect 13 0 86 0;
#X connect 14 0 13 1;
#X connect 15 0 14 0;
#X connect 16 0 18 0;
#X connect 17 0 13 0;
#X connect 18 0 62 0;
#X connect 19 0 85 0;
#X connect 20 0 19 1;
#X connect 21 0 20 0;
#X connect 22 0 24 0;
#X connect 23 0 19 0;
#X connect 24 0 63 0;
#X connect 25 0 84 0;
#X connect 26 0 25 1;
#X connect 27 0 26 0;
#X connect 28 0 30 0;
#X connect 29 0 25 0;
#X connect 30 0 64 0;
#X connect 31 0 83 0;
#X connect 32 0 31 1;
#X connect 33 0 32 0;
#X connect 34 0 36 0;
#X connect 35 0 31 0;
#X connect 36 0 89 0;
#X connect 37 0 82 0;
#X connect 38 0 37 1;
#X connect 39 0 38 0;
#X connect 40 0 42 0;
#X connect 41 0 37 0;
#X connect 42 0 90 0;
#X connect 43 0 81 0;
#X connect 44 0 43 1;
#X connect 45 0 44 0;
#X connect 46 0 48 0;
#X connect 47 0 43 0;
#X connect 48 0 91 0;
#X connect 49 0 80 0;
#X connect 50 0 49 1;
#X connect 51 0 50 0;
#X connect 52 0 54 0;
#X connect 53 0 49 0;
#X connect 54 0 92 0;
#X connect 55 0 79 0;
#X connect 56 0 55 1;
#X connect 57 0 56 0;
#X connect 58 0 60 0;
#X connect 59 0 55 0;
#X connect 60 0 93 0;
#X connect 61 0 107 0;
#X connect 62 0 106 0;
#X connect 63 0 105 0;
#X connect 64 0 104 0;
#X connect 65 0 78 0;
#X connect 66 0 65 1;
#X connect 67 0 66 0;
#X connect 68 0 70 0;
#X connect 69 0 65 0;
#X connect 70 0 94 0;
#X connect 71 0 77 0;
#X connect 72 0 71 1;
#X connect 73 0 72 0;
#X connect 74 0 76 0;
#X connect 75 0 71 0;
#X connect 76 0 95 0;
#X connect 88 0 96 0;
#X connect 89 0 99 0;
#X connect 90 0 100 0;
#X connect 91 0 101 0;
#X connect 92 0 102 0;
#X connect 93 0 103 0;
#X connect 94 0 98 0;
#X connect 95 0 97 0;
#X connect 96 0 2 0;
#X connect 97 0 73 0;
#X connect 98 0 67 0;
#X connect 99 0 33 0;
#X connect 100 0 39 0;
#X connect 101 0 45 0;
#X connect 102 0 51 0;
#X connect 103 0 57 0;
#X connect 104 0 27 0;
#X connect 105 0 21 0;
#X connect 106 0 15 0;
#X connect 107 0 9 0;
#X restore 80 288 pd \$0-checkifsetvalue;
#X obj 79 234 t f;
#X obj 79 158 t f;
#X connect 0 0 2 0;
#X connect 1 0 3 0;
#X connect 1 1 4 0;
#X connect 2 0 1 0;
#X connect 3 0 11 0;
#X connect 4 0 8 0;
#X connect 5 0 6 0;
#X connect 6 0 10 0;
#X connect 10 0 7 0;
#X connect 11 0 5 0;
#X restore 407 136 pd \$0-packedvalues;
#X floatatom 1161 495 5 0 0 0 - - - 0;
#X floatatom 1249 495 5 0 0 0 - - - 0;
#X floatatom 1309 503 5 0 0 0 - - - 0;
#X obj 1080 831 s;
#X floatatom 1107 762 5 0 0 0 - - - 0;
#X msg 1107 812 symbol \$1-lfotable;
#X obj 1108 703 loadbang;
#X obj 1110 732 \$0;
#X msg 1048 671 sinesum 2048 1 \$1 \$2 \$3 \$4 \$5 \$6 \$7 \$8 \$9
\$10 \$11 \$12 \, normalize 1 \;, f 81;
#X obj 956 784 outlet;
#X obj 100 100 cnv 15 111 16 empty empty empty 3 8 0 14 #404040 #ffffff
0;
#N canvas 295 119 1111 760 \$0-previousKit 0;
#X obj 268 59 tgl 15 0 empty empty empty 17 7 0 10 #fcfcfc #000000
#000000 0 1;
#X obj 268 185 spigot 0;
#X obj 268 119 change;
#X floatatom 268 164 5 0 0 0 - - - 0;
#X obj 268 97 == 0;
#X obj 282 142 == 0;
#X floatatom 439 203 5 0 0 0 - - - 0;
#X obj 439 182 == 0;
#X obj 439 222 change;
#X floatatom 439 267 5 0 0 0 - - - 0;
#X obj 439 246 == 1;
#X obj 439 286 spigot 0;
#X obj 146 27 inlet;
#X obj 101 102 bng 11 250 50 0 empty empty empty 17 7 0 10 #fcfcfc
#000000 #000000;
#X obj 433 31 loadbang;
#X obj 326 324 tgl 10 0 exprtloopern-send exprtloopern-recv B 2 5 0
10 #b8b8b8 #000000 #000000 0 1;
#X msg 436 162 1;
#X obj 436 141 t b;
#X msg 359 297 1;
#X msg 326 298 1;
#X obj 100 100 cnv 12 13 13 \$0-prevkitswitch-send \$0-prevkitswitch-recv
< 4 7 0 9 #9f9f9f #000000 0;
#X msg 435 78 \$1;
#X floatatom 816 111 5 0 0 0 - - - 0;
#X obj 776 531 symbol;
#X obj 819 215 t b s;
#X msg 815 238 bang;
#X obj 815 130 t f f;
#X obj 618 678 s;
#X obj 326 340 t b b;
#X obj 875 431 f;
#X obj 924 319 t b f;
#X obj 438 350 t f b b b;
#X obj 215 436 pack f f f;
#X obj 513 459 pack f f f;
#X obj 268 205 t b b b b b;
#X obj 434 53 \$0;
#X obj 901 138 \$1;
#X obj 438 326 f;
#X obj 438 306 bng 15 250 50 0 empty empty empty 17 7 0 10 #fcfcfc
#000000 #000000;
#X obj 433 119 del 10, f 7;
#X obj 435 99 t b f;
#X obj 887 357 del 10;
#X obj 884 381 bng 15 250 50 0 empty empty empty 17 7 0 10 #fcfcfc
#000000 #000000;
#X obj 77 60 del 100;
#X msg 213 410 4;
#X msg 511 437 4;
#X msg 243 409 7;
#X msg 559 438 7;
#X msg 436 375 \; \$1-prevkitswitch-recv label < \;;
#X msg 216 458 \; \$3-prevkitswitch-recv label_pos \$1 \$2;
#X msg 513 482 \; \$3-prevkitswitch-recv label_pos \$1 \$2;
#X msg 880 467 \; \$1-prevkitswitch-recv label < \;;
#X obj 144 49 t b b;
#X msg 816 189 symbol \$1-processprevpreset;
#X connect 0 0 1 1;
#X connect 0 0 4 0;
#X connect 0 0 7 0;
#X connect 0 0 11 1;
#X connect 1 0 34 0;
#X connect 2 0 5 0;
#X connect 3 0 1 0;
#X connect 4 0 2 0;
#X connect 5 0 3 0;
#X connect 6 0 8 0;
#X connect 7 0 6 0;
#X connect 8 0 10 0;
#X connect 9 0 11 0;
#X connect 10 0 9 0;
#X connect 11 0 38 0;
#X connect 12 0 52 0;
#X connect 13 0 0 0;
#X connect 14 0 35 0;
#X connect 15 0 28 0;
#X connect 16 0 0 0;
#X connect 17 0 16 0;
#X connect 18 0 15 0;
#X connect 19 0 15 0;
#X connect 21 0 40 0;
#X connect 22 0 26 0;
#X connect 22 0 36 0;
#X connect 22 0 37 1;
#X connect 23 0 27 1;
#X connect 24 0 25 0;
#X connect 24 1 23 1;
#X connect 25 0 23 0;
#X connect 26 0 53 0;
#X connect 26 1 30 0;
#X connect 28 0 27 0;
#X connect 28 1 25 0;
#X connect 29 0 51 0;
#X connect 29 0 32 2;
#X connect 29 0 33 2;
#X connect 30 0 41 0;
#X connect 30 1 29 1;
#X connect 31 0 48 0;
#X connect 31 1 18 0;
#X connect 31 2 45 0;
#X connect 31 3 47 0;
#X connect 32 0 49 0;
#X connect 33 0 50 0;
#X connect 34 1 19 0;
#X connect 34 2 44 0;
#X connect 34 3 46 0;
#X connect 34 4 29 0;
#X connect 35 0 21 0;
#X connect 37 0 31 0;
#X connect 38 0 37 0;
#X connect 39 0 17 0;
#X connect 40 0 39 0;
#X connect 40 1 22 0;
#X connect 41 0 42 0;
#X connect 42 0 29 0;
#X connect 43 0 13 0;
#X connect 44 0 32 0;
#X connect 45 0 33 0;
#X connect 46 0 32 1;
#X connect 47 0 33 1;
#X connect 52 0 43 0;
#X connect 52 1 13 0;
#X connect 53 0 24 0;
#X coords 0 -1 1 1 13 13 2 100 100;
#X restore 100 101 pd \$0-previousKit;
#N canvas 89 78 1090 702 \$0-nextKit 0;
#X obj 268 59 tgl 15 0 empty empty empty 17 7 0 10 #fcfcfc #000000
#000000 0 1;
#X obj 268 185 spigot 0;
#X obj 268 119 change;
#X floatatom 268 164 5 0 0 0 - - - 0;
#X obj 268 97 == 0;
#X obj 282 142 == 0;
#X floatatom 439 203 5 0 0 0 - - - 0;
#X obj 439 182 == 0;
#X obj 439 222 change;
#X floatatom 439 267 5 0 0 0 - - - 0;
#X obj 439 246 == 1;
#X obj 439 286 spigot 0;
#X obj 146 27 inlet;
#X obj 100 102 bng 11 250 50 0 empty empty empty 17 7 0 10 #fcfcfc
#000000 #000000;
#X obj 135 101 bng 11 250 50 0 empty empty empty 17 7 0 10 #fcfcfc
#000000 #000000;
#X obj 433 31 loadbang;
#X obj 326 324 tgl 10 0 exprtloopern-send exprtloopern-recv B 2 5 0
10 #b8b8b8 #000000 #000000 0 1;
#X msg 436 162 1;
#X obj 436 141 t b;
#X obj 123 100 bng 11 250 50 0 empty empty empty 17 7 0 10 #fcfcfc
#000000 #000000;
#X msg 359 297 1;
#X msg 326 298 1;
#X msg 435 78 \$1;
#X floatatom 816 111 5 0 0 0 - - - 0;
#X obj 776 531 symbol;
#X obj 819 215 t b s;
#X msg 815 238 bang;
#X obj 815 130 t f f;
#X obj 618 678 s;
#X obj 326 340 t b b;
#X obj 875 431 f;
#X obj 924 319 t b f;
#X obj 438 350 t f b b b;
#X obj 215 436 pack f f f;
#X obj 513 459 pack f f f;
#X obj 268 205 t b b b b b;
#X obj 434 53 \$0;
#X obj 901 138 \$1;
#X obj 438 326 f;
#X obj 438 306 bng 15 250 50 0 empty empty empty 17 7 0 10 #fcfcfc
#000000 #000000;
#X obj 433 119 del 10, f 7;
#X obj 435 99 t b f;
#X obj 887 357 del 10;
#X obj 884 381 bng 15 250 50 0 empty empty empty 17 7 0 10 #fcfcfc
#000000 #000000;
#X obj 77 60 del 100;
#X msg 213 410 4;
#X msg 511 437 4;
#X msg 243 409 7;
#X msg 559 438 7;
#X obj 100 100 cnv 12 13 13 \$0-nextkitswitch-send \$0-nextkitswitch-recv
> 4 7 0 9 #9f9f9f #000000 0;
#X msg 216 458 \; \$3-nextkitswitch-recv label_pos \$1 \$2;
#X msg 513 482 \; \$3-nextkitswitch-recv label_pos \$1 \$2;
#X msg 436 375 \; \$1-nextkitswitch-recv label > \;;
#X msg 880 466 \; \$1-nextkitswitch-recv label > \;;
#X obj 144 49 t b b;
#X msg 816 189 symbol \$1-processnextpreset;
#X connect 0 0 1 1;
#X connect 0 0 4 0;
#X connect 0 0 7 0;
#X connect 0 0 11 1;
#X connect 1 0 35 0;
#X connect 2 0 5 0;
#X connect 3 0 1 0;
#X connect 4 0 2 0;
#X connect 5 0 3 0;
#X connect 6 0 8 0;
#X connect 7 0 6 0;
#X connect 8 0 10 0;
#X connect 9 0 11 0;
#X connect 10 0 9 0;
#X connect 11 0 39 0;
#X connect 12 0 54 0;
#X connect 13 0 0 0;
#X connect 14 0 0 0;
#X connect 15 0 36 0;
#X connect 16 0 29 0;
#X connect 17 0 0 0;
#X connect 18 0 17 0;
#X connect 19 0 0 0;
#X connect 20 0 16 0;
#X connect 21 0 16 0;
#X connect 22 0 41 0;
#X connect 23 0 27 0;
#X connect 23 0 37 0;
#X connect 23 0 38 1;
#X connect 24 0 28 1;
#X connect 25 0 26 0;
#X connect 25 1 24 1;
#X connect 26 0 24 0;
#X connect 27 0 55 0;
#X connect 27 1 31 0;
#X connect 29 0 28 0;
#X connect 29 1 26 0;
#X connect 30 0 53 0;
#X connect 30 0 33 2;
#X connect 30 0 34 2;
#X connect 31 0 42 0;
#X connect 31 1 30 1;
#X connect 32 0 52 0;
#X connect 32 1 20 0;
#X connect 32 2 46 0;
#X connect 32 3 48 0;
#X connect 33 0 50 0;
#X connect 34 0 51 0;
#X connect 35 1 21 0;
#X connect 35 2 45 0;
#X connect 35 3 47 0;
#X connect 35 4 30 0;
#X connect 36 0 22 0;
#X connect 38 0 32 0;
#X connect 39 0 38 0;
#X connect 40 0 18 0;
#X connect 41 0 40 0;
#X connect 41 1 23 0;
#X connect 42 0 43 0;
#X connect 43 0 30 0;
#X connect 44 0 13 0;
#X connect 45 0 33 0;
#X connect 46 0 34 0;
#X connect 47 0 33 1;
#X connect 48 0 34 1;
#X connect 54 0 44 0;
#X connect 54 1 13 0;
#X connect 55 0 25 0;
#X coords 0 -1 1 1 13 13 2 100 100;
#X restore 197 101 pd \$0-nextKit;
#X obj 115 102 cnv 10 80 11 \$0-presettable-send \$0-presettable-recv
Saw 3 5 0 10 #131255 #ffffff 0;
#X obj 483 161 t b f;
#X obj 483 188 f;
#X obj 559 114 t b f;
#X obj 559 141 f;
#X obj 1280 782 t f;
#X obj 1260 855 s;
#X msg 1283 807 symbol \$1-wtable;
#X obj 1048 731 t a a;
#X obj 1107 787 t f f;
#X obj 1288 235 inlet;
#X obj 601 410 t a a;
#X msg 1445 798 number \$1;
#X floatatom 1445 776 4 1 18 0 - - - 0;
#X obj 1445 753 r \$0-totalpresetcount;
#X obj 1446 821 t a;
#X obj 1446 845 outlet;
#X obj 1547 724 outlet;
#X obj 594 776 t b b b b b b;
#X obj 548 837 t b b b;
#X obj 687 693 del 10;
#X obj 587 695 del 20;
#X obj 636 91 t b f;
#X obj 636 118 f;
#X obj 407 48 route setvalue settoggle setspeed setosctype get_osctype
;
#X obj 718 113 f;
#X obj 715 84 t b;
#X obj 1629 737 outlet;
#X obj 1669 673 t f;
#X obj 759 93 t f;
#X obj 652 332 t f f b b f f, f 14;
#X obj 1738 740 outlet;
#X obj 1687 739 outlet;
#X connect 0 0 2 0;
#X connect 1 0 2 0;
#X connect 3 0 2 0;
#X connect 6 0 20 0;
#X connect 7 0 10 0;
#X connect 7 0 91 0;
#X connect 8 0 14 0;
#X connect 9 0 125 0;
#X connect 10 0 8 0;
#X connect 11 0 8 0;
#X connect 12 0 11 0;
#X connect 12 0 91 0;
#X connect 14 0 8 1;
#X connect 14 0 9 0;
#X connect 15 0 113 0;
#X connect 16 0 14 1;
#X connect 17 0 19 0;
#X connect 18 0 17 0;
#X connect 20 0 77 0;
#X connect 21 0 106 0;
#X connect 22 0 21 1;
#X connect 23 0 21 2;
#X connect 24 0 25 0;
#X connect 24 1 26 0;
#X connect 24 2 27 0;
#X connect 24 3 28 0;
#X connect 24 4 29 0;
#X connect 24 5 30 0;
#X connect 24 6 31 0;
#X connect 24 7 32 0;
#X connect 24 8 33 0;
#X connect 24 9 34 0;
#X connect 24 10 35 0;
#X connect 24 11 36 0;
#X connect 25 0 40 0;
#X connect 26 0 40 0;
#X connect 27 0 40 0;
#X connect 28 0 40 0;
#X connect 29 0 40 0;
#X connect 30 0 40 0;
#X connect 31 0 40 0;
#X connect 32 0 40 0;
#X connect 33 0 40 0;
#X connect 34 0 40 0;
#X connect 35 0 40 0;
#X connect 36 0 40 0;
#X connect 37 0 12 0;
#X connect 38 0 7 0;
#X connect 41 0 42 0;
#X connect 42 0 44 0;
#X connect 43 0 48 0;
#X connect 44 0 45 0;
#X connect 45 1 46 0;
#X connect 46 0 68 0;
#X connect 47 0 41 0;
#X connect 48 0 47 0;
#X connect 49 0 71 0;
#X connect 50 0 40 0;
#X connect 51 0 49 2;
#X connect 52 0 49 3;
#X connect 52 0 82 0;
#X connect 53 0 49 4;
#X connect 53 0 83 0;
#X connect 54 0 49 5;
#X connect 54 0 84 0;
#X connect 55 0 49 6;
#X connect 56 0 49 7;
#X connect 57 0 49 8;
#X connect 58 0 49 9;
#X connect 59 0 49 10;
#X connect 60 0 49 11;
#X connect 61 0 49 12;
#X connect 62 0 49 13;
#X connect 63 0 49 0;
#X connect 64 0 78 0;
#X connect 65 0 5 1;
#X connect 66 0 18 0;
#X connect 67 0 18 0;
#X connect 68 0 69 0;
#X connect 68 1 3 0;
#X connect 68 2 63 0;
#X connect 68 3 49 1;
#X connect 68 4 50 0;
#X connect 69 0 70 0;
#X connect 70 0 1 0;
#X connect 71 0 5 0;
#X connect 73 0 74 0;
#X connect 74 0 75 0;
#X connect 75 0 72 1;
#X connect 76 0 72 0;
#X connect 77 0 76 0;
#X connect 78 0 63 1;
#X connect 79 0 119 0;
#X connect 80 0 81 0;
#X connect 86 0 104 0;
#X connect 87 0 85 1;
#X connect 88 0 89 0;
#X connect 89 0 86 0;
#X connect 90 0 103 0;
#X connect 96 0 97 0;
#X connect 96 1 97 1;
#X connect 97 0 127 0;
#X connect 98 0 99 0;
#X connect 98 1 99 1;
#X connect 99 0 126 0;
#X connect 100 0 102 0;
#X connect 102 0 101 1;
#X connect 103 0 85 0;
#X connect 103 1 101 0;
#X connect 104 0 87 0;
#X connect 105 0 100 0;
#X connect 106 0 24 0;
#X connect 106 1 90 0;
#X connect 107 0 110 0;
#X connect 108 0 107 0;
#X connect 109 0 108 0;
#X connect 110 0 111 0;
#X connect 113 0 114 0;
#X connect 113 1 1 0;
#X connect 113 2 0 0;
#X connect 113 3 13 0;
#X connect 114 0 116 0;
#X connect 114 1 115 0;
#X connect 114 2 18 0;
#X connect 115 0 12 0;
#X connect 116 0 7 0;
#X connect 117 0 118 0;
#X connect 117 1 118 1;
#X connect 118 0 8 0;
#X connect 119 0 80 0;
#X connect 119 1 96 0;
#X connect 119 2 98 0;
#X connect 119 3 117 0;
#X connect 119 4 121 0;
#X connect 121 0 120 0;
#X connect 123 0 122 0;
#X connect 125 0 6 0;
#X connect 125 1 21 0;
#X connect 125 2 22 0;
#X connect 125 3 23 0;
#X connect 125 4 112 0;
#X connect 125 5 120 1;
#X connect 125 5 123 0;
#X coords 0 -1 1 1 111 16 2 100 100;
