#N struct 1044-bang float c float bc float tc float tx float ty symbol text;
#N struct 1045-bang float c float bc float tc float tx float ty symbol text;
#N struct 1046-bang float c float bc float tc float tx float ty symbol text;
#N struct 1047-bang float c float bc float tc float tx float ty symbol text;
#N struct 3221-bang float c float bc float tc float tx float ty symbol text;
#N struct 1048-bang float c float bc float tc float tx float ty symbol text;
#N struct 1049-bang float c float bc float tc float tx float ty symbol text;
#N struct 1050-bang float c float bc float tc float tx float ty symbol text;
#N canvas -1561 50 918 713 12;
#X declare -path clearessentials;
#N canvas 793 3 797 828 \$0-initdefaultsettings 0;
#X obj 115 0 inlet;
#X obj 210 3 inlet;
#X obj 314 5 inlet;
#X obj 407 5 inlet;
#X obj 507 2 inlet;
#X obj 605 6 inlet;
#X obj 708 6 inlet;
#N canvas 402 9 1600 858 \$0-initsetup 0;
#X obj 1075 145 inlet;
#X msg 134 51 5;
#X msg 459 55 15;
#X msg 61 54 200;
#X msg 349 53 82;
#X msg 385 56 30, f 2;
#X msg 316 48 58;
#X msg 275 50 30;
#X msg 674 55 82;
#X msg 637 58 31;
#X msg 600 57 13;
#X msg 831 60 4;
#X msg 712 59 15;
#X msg 237 49 15;
#X msg 168 50 2;
#X msg 496 56 50;
#X obj 1116 43 \$1;
#X obj 1115 69 pack f f;
#X msg 1115 94 set_win detail defaultsettings \$2 \$1;
#X msg 1167 44 1;
#X obj 954 93 t b b;
#X obj 116 132 bng 15 250 50 0 empty empty bng_default_settings 17 7 0 10 #fcfcfc #000000 #000000;
#X msg 536 950 build_window \$2 \$1;
#X obj 536 900 \$1;
#X obj 536 924 pack f f;
#X msg 589 901 1;
#X obj 535 873 t b b;
#X obj 1120 146 inlet;
#X obj 1163 148 inlet;
#X obj 1250 221 f;
#X obj 1211 147 inlet;
#X obj 1277 222 f;
#X obj 1259 144 inlet;
#X obj 1217 223 f;
#X obj 1307 146 inlet;
#X obj 532 974 s \$0-topatchwindow;
#X obj 1117 119 s \$0-topatchwindow;
#X obj 62 914 \$1;
#X obj 63 990 s \$0-topatchwindow;
#X obj 116 916 symbol;
#X obj 61 868 t b b s;
#X msg 116 894 bang;
#X obj 63 939 pack f s;
#X msg 64 966 set_win menu additem \$2 \$1;
#X obj 343 304 tgl 15 0 empty empty Limit\ shown\ menu\ items 17 7 0 10 #fcfcfc #000000 #000000 0 1;
#X obj 1410 151 inlet;
#X obj 1537 345 t b;
#X obj 60 845 l2s;
#X obj 286 925 \$1;
#X obj 340 927 symbol;
#X obj 285 879 t b b s;
#X msg 340 905 bang;
#X obj 286 950 pack f s;
#X obj 284 856 l2s;
#X msg 286 974 set_win menu additemtype \$2 \$1;
#X obj 289 1003 s \$0-topatchwindow;
#X text 368 410 cmd = the menu item will initiate imidiately as a command;
#X text 369 448 wrkarea = this menu item will clear then refresh the work area based on the selected menu item. This should be consider as a scene change. Data for each scene is stored to a list in the case that information is needed when GUI elements are not visible. The next time you have a scene change previously modifed data will be shown for that selected scene or "work area".;
#X text 117 374 Each menu item needs a menu item type otherwise it will act as a command and try to send data as soon as it is pressed.;
#X obj 1029 143 inlet;
#X obj 312 126 bng 15 250 50 0 empty empty build_window 17 7 0 10 #fcfcfc #000000 #000000;
#X text 156 179 Window height;
#X text 292 179 width;
#X obj 672 173 tgl 15 0 empty empty Show_menu 17 7 0 10 #fcfcfc #000000 #000000 0 1;
#X text 106 209 Window header height;
#X text 295 208 fore color;
#X text 375 177 border color;
#X text 504 176 padding;
#X text 417 208 bg color;
#X text 106 242 Work area fore color;
#X text 295 242 bg color;
#X obj 674 196 tgl 15 0 empty empty hide_workarea 17 7 0 10 #fcfcfc #000000 #000000 0 1;
#X text 399 242 item height;
#X text 521 241 width;
#X text 415 271 bg color;
#X obj 260 150 tgl 15 0 empty empty Menu\ nav\ position\ 0=left\ 1=right 17 7 0 10 #fcfcfc #000000 #000000 0 1;
#X text 295 270 fore color;
#X text 169 270 Menu height;
#X obj 674 218 tgl 15 0 empty empty Hide\ status 17 7 0 10 #fcfcfc #000000 #000000 0 1;
#X obj 675 247 tgl 15 0 empty empty Hide\ quit\ button 17 7 0 10 #fcfcfc #000000 #000000 0 1;
#X text 111 328 Quit button bg color;
#X text 297 328 Note* white is force as the fore color for quit button.;
#X text 126 352 Window header text;
#X text 106 303 Max shown menu items;
#X obj 576 120 bng 15 250 50 0 empty empty Clear\ menu\ items 17 7 0 10 #fcfcfc #000000 #000000;
#X floatatom 255 178 5 0 0 0 - - - 0;
#N canvas 33 253 374 300 \$0-adjust-detail-height 0;
#X obj 67 22 inlet;
#X obj 188 37 inlet;
#X obj 105 118 \$1;
#X obj 106 143 pack f f;
#X obj 105 93 t b f;
#X msg 107 168 set_win detail height \$2 \$1;
#X obj 107 192 s \$0-topatchwindow;
#X obj 104 69 f;
#X connect 0 0 7 0;
#X connect 1 0 7 1;
#X connect 2 0 3 0;
#X connect 3 0 5 0;
#X connect 4 0 2 0;
#X connect 4 1 3 1;
#X connect 5 0 6 0;
#X connect 7 0 4 0;
#X restore 902 1058 pd \$0-adjust-detail-height;
#N canvas 33 253 374 300 \$0-adjust-detail-width 0;
#X obj 67 22 inlet;
#X obj 188 37 inlet;
#X obj 105 118 \$1;
#X obj 106 143 pack f f;
#X obj 105 93 t b f;
#X obj 107 192 s \$0-topatchwindow;
#X obj 104 69 f;
#X msg 107 168 set_win detail width \$2 \$1;
#X connect 0 0 6 0;
#X connect 1 0 6 1;
#X connect 2 0 3 0;
#X connect 3 0 7 0;
#X connect 4 0 2 0;
#X connect 4 1 3 1;
#X connect 6 0 4 0;
#X connect 7 0 5 0;
#X restore 921 1031 pd \$0-adjust-detail-width;
#X floatatom 338 179 5 0 0 0 - - - 0;
#N canvas 33 253 374 300 \$0-adjust-detail-padding 0;
#X obj 67 22 inlet;
#X obj 188 37 inlet;
#X obj 105 118 \$1;
#X obj 106 143 pack f f;
#X obj 105 93 t b f;
#X obj 107 192 s \$0-topatchwindow;
#X obj 104 69 f;
#X msg 107 168 set_win detail padding \$2 \$1;
#X connect 0 0 6 0;
#X connect 1 0 6 1;
#X connect 2 0 3 0;
#X connect 3 0 7 0;
#X connect 4 0 2 0;
#X connect 4 1 3 1;
#X connect 6 0 4 0;
#X connect 7 0 5 0;
#X restore 949 997 pd \$0-adjust-detail-padding;
#X floatatom 565 179 5 0 0 0 - - - 0;
#N canvas 33 253 374 300 \$0-adjust-detail-brdrcolor 0;
#X obj 67 22 inlet;
#X obj 188 37 inlet;
#X obj 105 118 \$1;
#X obj 106 143 pack f f;
#X obj 105 93 t b f;
#X obj 107 192 s \$0-topatchwindow;
#X obj 104 69 f;
#X msg 107 168 set_win detail brdr-colr \$2 \$1;
#X connect 0 0 6 0;
#X connect 1 0 6 1;
#X connect 2 0 3 0;
#X connect 3 0 7 0;
#X connect 4 0 2 0;
#X connect 4 1 3 1;
#X connect 6 0 4 0;
#X connect 7 0 5 0;
#X restore 958 971 pd \$0-adjust-detail-brdrcolor;
#X floatatom 467 174 5 0 0 0 - - - 0;
#X floatatom 257 207 5 0 0 0 - - - 0;
#N canvas 33 253 374 300 \$0-adjust-header-height 0;
#X obj 67 22 inlet;
#X obj 188 37 inlet;
#X obj 105 118 \$1;
#X obj 106 143 pack f f;
#X obj 105 93 t b f;
#X obj 107 192 s \$0-topatchwindow;
#X obj 104 69 f;
#X msg 107 168 set_win header height \$2 \$1;
#X connect 0 0 6 0;
#X connect 1 0 6 1;
#X connect 2 0 3 0;
#X connect 3 0 7 0;
#X connect 4 0 2 0;
#X connect 4 1 3 1;
#X connect 6 0 4 0;
#X connect 7 0 5 0;
#X restore 960 943 pd \$0-adjust-header-height;
#N canvas 296 144 374 300 \$0-adjust-showmenu 0;
#X obj 67 22 inlet;
#X obj 188 37 inlet;
#X obj 99 132 \$1;
#X obj 100 157 pack f f;
#X obj 98 107 t b f;
#X msg 101 182 set_win detail showmenu \$2 \$1;
#X obj 98 84 f;
#X obj 104 209 s \$0-topatchwindow;
#X connect 0 0 6 0;
#X connect 1 0 6 1;
#X connect 2 0 3 0;
#X connect 3 0 5 0;
#X connect 4 0 2 0;
#X connect 4 1 3 1;
#X connect 5 0 7 0;
#X connect 6 0 4 0;
#X restore 1312 530 pd \$0-adjust-showmenu;
#N canvas 33 253 374 300 \$0-adjust-header-fore-colr 0;
#X obj 67 22 inlet;
#X obj 188 37 inlet;
#X obj 105 118 \$1;
#X obj 106 143 pack f f;
#X obj 105 93 t b f;
#X obj 107 192 s \$0-topatchwindow;
#X obj 104 69 f;
#X msg 110 168 set_win header fore-colr \$2 \$1;
#X connect 0 0 6 0;
#X connect 1 0 6 1;
#X connect 2 0 3 0;
#X connect 3 0 7 0;
#X connect 4 0 2 0;
#X connect 4 1 3 1;
#X connect 6 0 4 0;
#X connect 7 0 5 0;
#X restore 974 918 pd \$0-adjust-header-fore-colr;
#X floatatom 375 207 5 0 0 0 - - - 0;
#X floatatom 484 205 5 0 0 0 - - - 0;
#N canvas 33 253 374 300 \$0-adjust-header-bg-colr 0;
#X obj 67 22 inlet;
#X obj 188 37 inlet;
#X obj 105 118 \$1;
#X obj 106 143 pack f f;
#X obj 105 93 t b f;
#X obj 107 192 s \$0-topatchwindow;
#X obj 104 69 f;
#X msg 110 168 set_win header bg-colr \$2 \$1;
#X connect 0 0 6 0;
#X connect 1 0 6 1;
#X connect 2 0 3 0;
#X connect 3 0 7 0;
#X connect 4 0 2 0;
#X connect 4 1 3 1;
#X connect 6 0 4 0;
#X connect 7 0 5 0;
#X restore 992 891 pd \$0-adjust-header-bg-colr;
#N canvas 33 253 374 300 \$0-adjust-wrkarea-fore-colr 0;
#X obj 67 22 inlet;
#X obj 188 37 inlet;
#X obj 105 118 \$1;
#X obj 106 143 pack f f;
#X obj 105 93 t b f;
#X obj 107 192 s \$0-topatchwindow;
#X obj 104 69 f;
#X msg 110 168 set_win wrkarea fore-colr \$2 \$1;
#X connect 0 0 6 0;
#X connect 1 0 6 1;
#X connect 2 0 3 0;
#X connect 3 0 7 0;
#X connect 4 0 2 0;
#X connect 4 1 3 1;
#X connect 6 0 4 0;
#X connect 7 0 5 0;
#X restore 1022 862 pd \$0-adjust-wrkarea-fore-colr;
#N canvas 33 253 374 300 \$0-adjust-wrkarea-bg-colr 0;
#X obj 67 22 inlet;
#X obj 188 37 inlet;
#X obj 105 118 \$1;
#X obj 106 143 pack f f;
#X obj 105 93 t b f;
#X obj 107 192 s \$0-topatchwindow;
#X obj 104 69 f;
#X msg 110 168 set_win wrkarea bg-colr \$2 \$1;
#X connect 0 0 6 0;
#X connect 1 0 6 1;
#X connect 2 0 3 0;
#X connect 3 0 7 0;
#X connect 4 0 2 0;
#X connect 4 1 3 1;
#X connect 6 0 4 0;
#X connect 7 0 5 0;
#X restore 1043 834 pd \$0-adjust-wrkarea-bg-colr;
#X floatatom 258 240 5 0 0 0 - - - 0;
#X floatatom 360 240 5 0 0 0 - - - 0;
#N canvas 296 144 374 300 \$0-adjust-showwrkarea 0;
#X obj 67 22 inlet;
#X obj 188 37 inlet;
#X obj 99 132 \$1;
#X obj 100 157 pack f f;
#X obj 98 107 t b f;
#X obj 98 84 f;
#X obj 104 209 s \$0-topatchwindow;
#X msg 101 182 set_win wrkarea showwrkarea \$2 \$1;
#X connect 0 0 5 0;
#X connect 1 0 5 1;
#X connect 2 0 3 0;
#X connect 3 0 7 0;
#X connect 4 0 2 0;
#X connect 4 1 3 1;
#X connect 5 0 4 0;
#X connect 7 0 6 0;
#X restore 1367 496 pd \$0-adjust-showwrkarea;
#X floatatom 484 239 5 0 0 0 - - - 0;
#X msg 416 53 0;
#N canvas 33 253 374 300 \$0-adjust-item-height 0;
#X obj 67 22 inlet;
#X obj 188 37 inlet;
#X obj 105 118 \$1;
#X obj 106 143 pack f f;
#X obj 105 93 t b f;
#X obj 107 192 s \$0-topatchwindow;
#X obj 104 69 f;
#X msg 107 168 set_win item height \$2 \$1;
#X connect 0 0 6 0;
#X connect 1 0 6 1;
#X connect 2 0 3 0;
#X connect 3 0 7 0;
#X connect 4 0 2 0;
#X connect 4 1 3 1;
#X connect 6 0 4 0;
#X connect 7 0 5 0;
#X restore 1070 808 pd \$0-adjust-item-height;
#N canvas 33 253 374 300 \$0-adjust-item-width 0;
#X obj 67 22 inlet;
#X obj 188 37 inlet;
#X obj 105 118 \$1;
#X obj 106 143 pack f f;
#X obj 105 93 t b f;
#X obj 107 192 s \$0-topatchwindow;
#X obj 104 69 f;
#X msg 107 168 set_win item width \$2 \$1;
#X connect 0 0 6 0;
#X connect 1 0 6 1;
#X connect 2 0 3 0;
#X connect 3 0 7 0;
#X connect 4 0 2 0;
#X connect 4 1 3 1;
#X connect 6 0 4 0;
#X connect 7 0 5 0;
#X restore 1086 782 pd \$0-adjust-item-width;
#X floatatom 567 240 5 0 0 0 - - - 0;
#X msg 528 56 0;
#N canvas 33 253 374 300 \$0-adjust-detail-showquit 0;
#X obj 67 22 inlet;
#X obj 188 37 inlet;
#X obj 105 118 \$1;
#X obj 106 143 pack f f;
#X obj 105 93 t b f;
#X obj 107 192 s \$0-topatchwindow;
#X obj 104 69 f;
#X msg 107 168 set_win detail showquit \$2 \$1;
#X connect 0 0 6 0;
#X connect 1 0 6 1;
#X connect 2 0 3 0;
#X connect 3 0 7 0;
#X connect 4 0 2 0;
#X connect 4 1 3 1;
#X connect 6 0 4 0;
#X connect 7 0 5 0;
#X restore 1462 433 pd \$0-adjust-detail-showquit;
#N canvas 33 253 374 300 \$0-adjust-detail-quitcolr 0;
#X obj 67 22 inlet;
#X obj 188 37 inlet;
#X obj 105 118 \$1;
#X obj 106 143 pack f f;
#X obj 105 93 t b f;
#X obj 107 192 s \$0-topatchwindow;
#X obj 104 69 f;
#X msg 107 168 set_win detail quit-colr \$2 \$1;
#X connect 0 0 6 0;
#X connect 1 0 6 1;
#X connect 2 0 3 0;
#X connect 3 0 7 0;
#X connect 4 0 2 0;
#X connect 4 1 3 1;
#X connect 6 0 4 0;
#X connect 7 0 5 0;
#X restore 1110 752 pd \$0-adjust-detail-quitcolr;
#X floatatom 260 327 5 0 0 0 - - - 0;
#X floatatom 484 272 5 0 0 0 - - - 0;
#N canvas 33 253 374 300 \$0-adjust-menu-bgcolor 0;
#X obj 67 22 inlet;
#X obj 188 37 inlet;
#X obj 105 118 \$1;
#X obj 106 143 pack f f;
#X obj 105 93 t b f;
#X obj 107 192 s \$0-topatchwindow;
#X obj 104 69 f;
#X msg 107 168 set_win menu bg-colr \$2 \$1;
#X connect 0 0 6 0;
#X connect 1 0 6 1;
#X connect 2 0 3 0;
#X connect 3 0 7 0;
#X connect 4 0 2 0;
#X connect 4 1 3 1;
#X connect 6 0 4 0;
#X connect 7 0 5 0;
#X restore 1130 723 pd \$0-adjust-menu-bgcolor;
#N canvas 33 253 374 300 \$0-adjust-menu-forecolor 0;
#X obj 67 22 inlet;
#X obj 188 37 inlet;
#X obj 105 118 \$1;
#X obj 106 143 pack f f;
#X obj 105 93 t b f;
#X obj 107 192 s \$0-topatchwindow;
#X obj 104 69 f;
#X msg 107 167 set_win menu fore-colr \$2 \$1;
#X connect 0 0 6 0;
#X connect 1 0 6 1;
#X connect 2 0 3 0;
#X connect 3 0 7 0;
#X connect 4 0 2 0;
#X connect 4 1 3 1;
#X connect 6 0 4 0;
#X connect 7 0 5 0;
#X restore 1146 697 pd \$0-adjust-menu-forecolor;
#X floatatom 378 271 5 0 0 0 - - - 0;
#N canvas 33 253 374 300 \$0-adjust-menu-height 0;
#X obj 67 22 inlet;
#X obj 188 37 inlet;
#X obj 105 118 \$1;
#X obj 106 143 pack f f;
#X obj 105 93 t b f;
#X obj 107 192 s \$0-topatchwindow;
#X obj 104 69 f;
#X msg 107 167 set_win menu height \$2 \$1;
#X connect 0 0 6 0;
#X connect 1 0 6 1;
#X connect 2 0 3 0;
#X connect 3 0 7 0;
#X connect 4 0 2 0;
#X connect 4 1 3 1;
#X connect 6 0 4 0;
#X connect 7 0 5 0;
#X restore 1165 672 pd \$0-adjust-menu-height;
#X floatatom 257 269 5 0 0 0 - - - 0;
#N canvas 33 253 374 300 \$0-adjust-menu-showingitems 0;
#X obj 67 22 inlet;
#X obj 188 37 inlet;
#X obj 105 118 \$1;
#X obj 106 143 pack f f;
#X obj 105 93 t b f;
#X obj 107 192 s \$0-topatchwindow;
#X obj 104 69 f;
#X msg 107 167 set_win menu showingitems \$2 \$1;
#X connect 0 0 6 0;
#X connect 1 0 6 1;
#X connect 2 0 3 0;
#X connect 3 0 7 0;
#X connect 4 0 2 0;
#X connect 4 1 3 1;
#X connect 6 0 4 0;
#X connect 7 0 5 0;
#X restore 1230 591 pd \$0-adjust-menu-showingitems;
#X floatatom 261 301 5 0 0 0 - - - 0;
#X msg 562 52 0;
#X msg 795 66 0;
#X msg 752 65 0;
#N canvas 33 253 374 300 \$0-adjust-menu-navpos 0;
#X obj 67 22 inlet;
#X obj 188 37 inlet;
#X obj 105 118 \$1;
#X obj 106 143 pack f f;
#X obj 105 93 t b f;
#X obj 107 192 s \$0-topatchwindow;
#X obj 104 69 f;
#X msg 107 167 set_win menu navpos \$2 \$1;
#X connect 0 0 6 0;
#X connect 1 0 6 1;
#X connect 2 0 3 0;
#X connect 3 0 7 0;
#X connect 4 0 2 0;
#X connect 4 1 3 1;
#X connect 6 0 4 0;
#X connect 7 0 5 0;
#X restore 1178 647 pd \$0-adjust-menu-navpos;
#N canvas 33 253 578 300 \$0-adjust-headertitle 0;
#X obj 73 17 inlet;
#X obj 183 29 inlet;
#X obj 105 118 \$1;
#X obj 107 192 s \$0-topatchwindow;
#X msg 107 167 set_win header title \$2 \$1;
#X obj 312 194 s;
#X obj 337 141 pack f \$0;
#X obj 337 112 \$1;
#X obj 306 81 t b b;
#X msg 334 168 symbol \$2-headertext;
#X obj 104 69 symbol;
#X obj 106 143 pack f s;
#X obj 87 44 t b b;
#X obj 105 93 t b s s;
#X connect 0 0 12 0;
#X connect 1 0 10 1;
#X connect 2 0 11 0;
#X connect 4 0 3 0;
#X connect 6 0 9 0;
#X connect 7 0 6 0;
#X connect 8 1 7 0;
#X connect 9 0 5 1;
#X connect 10 0 13 0;
#X connect 11 0 4 0;
#X connect 12 0 10 0;
#X connect 12 1 8 0;
#X connect 13 0 2 0;
#X connect 13 1 11 1;
#X connect 13 2 5 0;
#X restore 1203 619 pd \$0-adjust-headertitle;
#X symbolatom 261 352 10 0 0 0 - - - 0;
#N canvas 33 253 374 300 \$0-adjust-menu-allstartitems 0;
#X obj 67 22 inlet;
#X obj 188 37 inlet;
#X obj 105 118 \$1;
#X obj 106 143 pack f f;
#X obj 105 93 t b f;
#X obj 107 192 s \$0-topatchwindow;
#X obj 104 69 f;
#X msg 107 167 set_win menu allitems \$2 \$1;
#X connect 0 0 6 0;
#X connect 1 0 6 1;
#X connect 2 0 3 0;
#X connect 3 0 7 0;
#X connect 4 0 2 0;
#X connect 4 1 3 1;
#X connect 6 0 4 0;
#X connect 7 0 5 0;
#X restore 1253 559 pd \$0-adjust-menu-allstartitems;
#N canvas 135 116 374 300 \$0-adjust-menu-clearitems 0;
#X obj 57 90 \$1;
#X obj 56 116 pack f f;
#X obj 54 172 s \$0-topatchwindow;
#X msg 55 145 set_win menu clearitems \$2 \$1;
#X msg 103 89 1;
#X obj 55 67 t b b;
#X obj 47 34 inlet;
#X connect 0 0 1 0;
#X connect 1 0 3 0;
#X connect 3 0 2 0;
#X connect 4 0 1 1;
#X connect 5 0 0 0;
#X connect 5 1 4 0;
#X connect 6 0 5 0;
#X restore 1521 394 pd \$0-adjust-menu-clearitems;
#N canvas 160 233 374 300 \$0-adjust-menu-limitshown 0;
#X obj 67 22 inlet;
#X obj 188 37 inlet;
#X obj 105 118 \$1;
#X obj 106 143 pack f f;
#X obj 105 93 t b f;
#X obj 107 192 s \$0-topatchwindow;
#X obj 104 69 f;
#X msg 106 167 set_win menu limitshown \$2 \$1;
#X connect 0 0 6 0;
#X connect 1 0 6 1;
#X connect 2 0 3 0;
#X connect 3 0 7 0;
#X connect 4 0 2 0;
#X connect 4 1 3 1;
#X connect 6 0 4 0;
#X connect 7 0 5 0;
#X restore 1536 367 pd \$0-adjust-menu-limitshown;
#X msg 903 58 0;
#N canvas 33 253 374 300 \$0-adjust-detail-showstatus 0;
#X obj 67 22 inlet;
#X obj 188 37 inlet;
#X obj 105 118 \$1;
#X obj 106 143 pack f f;
#X obj 105 93 t b f;
#X obj 107 192 s \$0-topatchwindow;
#X obj 104 69 f;
#X msg 107 168 set_win detail showstatus \$2 \$1;
#X connect 0 0 6 0;
#X connect 1 0 6 1;
#X connect 2 0 3 0;
#X connect 3 0 7 0;
#X connect 4 0 2 0;
#X connect 4 1 3 1;
#X connect 6 0 4 0;
#X connect 7 0 5 0;
#X restore 1415 466 pd \$0-adjust-detail-showstatus;
#X obj 1138 209 f;
#X obj 1312 504 t b f;
#X obj 1366 472 t b f;
#X obj 1414 444 t b f;
#X obj 1462 405 t b f;
#X msg 198 46 1;
#X msg 868 60 4;
#X obj 1390 268 s \$0-bngmenulist;
#X obj 1458 242 s \$0-bngmenutypelist;
#X obj 281 833 r \$0-to-addmenuitemtype;
#X obj 62 818 r \$0-to-addmenuitem;
#X text 173 462 cmd \, drpmenu \, wrkarea;
#X obj 834 250 r \$0-to-newheadertext;
#X obj 1414 628 s \$0-bngnewheadertext;
#X text 106 528 Change window title here;
#N canvas 33 253 374 300 \$0-adjust-status-height 0;
#X obj 67 22 inlet;
#X obj 188 37 inlet;
#X obj 105 118 \$1;
#X obj 106 143 pack f f;
#X obj 105 93 t b f;
#X obj 107 192 s \$0-topatchwindow;
#X obj 104 69 f;
#X msg 105 167 set_win status height \$2 \$1;
#X connect 0 0 6 0;
#X connect 1 0 6 1;
#X connect 2 0 3 0;
#X connect 3 0 7 0;
#X connect 4 0 2 0;
#X connect 4 1 3 1;
#X connect 6 0 4 0;
#X connect 7 0 5 0;
#X restore 1395 745 pd \$0-adjust-status-height;
#N canvas 33 253 374 300 \$0-adjust-status-width 0;
#X obj 67 22 inlet;
#X obj 188 37 inlet;
#X obj 105 118 \$1;
#X obj 106 143 pack f f;
#X obj 105 93 t b f;
#X obj 107 192 s \$0-topatchwindow;
#X obj 104 69 f;
#X msg 105 167 set_win status width \$2 \$1;
#X connect 0 0 6 0;
#X connect 1 0 6 1;
#X connect 2 0 3 0;
#X connect 3 0 7 0;
#X connect 4 0 2 0;
#X connect 4 1 3 1;
#X connect 6 0 4 0;
#X connect 7 0 5 0;
#X restore 1376 782 pd \$0-adjust-status-width;
#X obj 1032 309 t b b b b b b b b b b b b b b b b b b b b b b b b b b b b b b b b, f 73;
#X obj 147 11 t b b b b b b b b b b b b b b b b b b b b b b b b b b b b, f 73;
#X msg 949 57 15;
#X msg 984 55 100;
#X text 342 353 Status width;
#X floatatom 437 351 5 0 0 0 - - - 0;
#X text 479 351 height;
#X floatatom 537 349 5 0 0 0 - - - 0;
#X obj 145 578 f;
#X obj 427 623 f;
#X floatatom 145 604 5 0 0 0 - - - 0;
#X floatatom 427 648 5 0 0 0 - - - 0;
#X obj 146 627 sel 0;
#X obj 427 671 sel 0;
#X obj 314 580 t b b b b;
#X obj 427 695 t b;
#X obj 460 696 t b;
#X obj 130 727 spigot 0;
#X obj 183 707 tgl 15 0 empty empty empty 17 7 0 10 #fcfcfc #000000 #000000 0 1;
#X msg 181 685 1;
#X msg 239 710 0;
#X obj 147 659 t b b;
#X obj 241 655 t b b b;
#X obj 112 759 bng 15 250 50 0 empty empty empty 17 7 0 10 #fcfcfc #000000 #000000;
#X obj 155 770 t b b b;
#X msg 98 53 450;
#X text 368 428 drpmenu = this type will show a list of selectable items;
#X connect 0 0 60 0;
#X connect 1 0 90 0;
#X connect 2 0 105 0;
#X connect 3 0 85 0;
#X connect 4 0 102 0;
#X connect 5 0 103 0;
#X connect 6 0 98 0;
#X connect 7 0 97 0;
#X connect 8 0 117 0;
#X connect 9 0 114 0;
#X connect 10 0 113 0;
#X connect 11 0 121 0;
#X connect 12 0 119 0;
#X connect 13 0 93 0;
#X connect 14 0 92 0;
#X connect 15 0 109 0;
#X connect 16 0 17 0;
#X connect 17 0 18 0;
#X connect 18 0 36 0;
#X connect 19 0 17 1;
#X connect 20 0 16 0;
#X connect 20 1 19 0;
#X connect 21 0 151 0;
#X connect 22 0 35 0;
#X connect 23 0 24 0;
#X connect 24 0 22 0;
#X connect 25 0 24 1;
#X connect 26 0 23 0;
#X connect 26 1 25 0;
#X connect 27 0 133 1;
#X connect 28 0 29 1;
#X connect 29 0 78 0;
#X connect 30 0 31 1;
#X connect 31 0 79 0;
#X connect 32 0 33 1;
#X connect 33 0 71 0;
#X connect 34 0 75 0;
#X connect 37 0 42 0;
#X connect 39 0 42 1;
#X connect 40 0 37 0;
#X connect 40 1 41 0;
#X connect 40 2 39 1;
#X connect 41 0 39 0;
#X connect 42 0 43 0;
#X connect 43 0 38 0;
#X connect 44 0 130 1;
#X connect 45 0 44 0;
#X connect 46 0 130 0;
#X connect 47 0 40 0;
#X connect 48 0 52 0;
#X connect 49 0 52 1;
#X connect 50 0 48 0;
#X connect 50 1 51 0;
#X connect 50 2 49 1;
#X connect 51 0 49 0;
#X connect 52 0 54 0;
#X connect 53 0 50 0;
#X connect 54 0 55 0;
#X connect 59 0 21 0;
#X connect 60 0 164 0;
#X connect 63 0 134 0;
#X connect 71 0 135 0;
#X connect 75 0 125 1;
#X connect 78 0 136 0;
#X connect 79 0 137 0;
#X connect 84 0 129 0;
#X connect 85 0 86 1;
#X connect 85 0 158 1;
#X connect 88 0 87 1;
#X connect 88 0 159 1;
#X connect 90 0 89 1;
#X connect 92 0 91 1;
#X connect 93 0 94 1;
#X connect 97 0 96 1;
#X connect 98 0 99 1;
#X connect 102 0 100 1;
#X connect 103 0 101 1;
#X connect 105 0 107 1;
#X connect 106 0 71 0;
#X connect 109 0 108 1;
#X connect 110 0 31 1;
#X connect 113 0 112 1;
#X connect 114 0 115 1;
#X connect 117 0 116 1;
#X connect 119 0 118 1;
#X connect 121 0 120 1;
#X connect 122 0 33 1;
#X connect 123 0 29 1;
#X connect 124 0 75 0;
#X connect 127 0 126 1;
#X connect 131 0 44 0;
#X connect 133 0 63 0;
#X connect 134 0 95 0;
#X connect 134 1 95 1;
#X connect 135 0 104 0;
#X connect 135 1 104 1;
#X connect 136 0 132 0;
#X connect 136 1 132 1;
#X connect 137 0 111 0;
#X connect 137 1 111 1;
#X connect 138 0 133 1;
#X connect 139 0 128 1;
#X connect 142 0 53 0;
#X connect 143 0 47 0;
#X connect 145 0 127 0;
#X connect 150 3 86 0;
#X connect 150 4 87 0;
#X connect 150 5 89 0;
#X connect 150 6 91 0;
#X connect 150 7 94 0;
#X connect 150 8 96 0;
#X connect 150 9 99 0;
#X connect 150 10 100 0;
#X connect 150 11 101 0;
#X connect 150 12 107 0;
#X connect 150 13 108 0;
#X connect 150 14 112 0;
#X connect 150 15 115 0;
#X connect 150 16 116 0;
#X connect 150 17 118 0;
#X connect 150 18 125 0;
#X connect 150 19 126 0;
#X connect 150 19 146 0;
#X connect 150 20 120 0;
#X connect 150 21 128 0;
#X connect 150 22 133 0;
#X connect 150 23 33 0;
#X connect 150 24 29 0;
#X connect 150 25 31 0;
#X connect 150 26 140 0;
#X connect 150 27 141 0;
#X connect 150 28 84 0;
#X connect 150 29 149 0;
#X connect 150 30 148 0;
#X connect 150 31 46 0;
#X connect 151 0 3 0;
#X connect 151 1 175 0;
#X connect 151 2 1 0;
#X connect 151 3 14 0;
#X connect 151 4 138 0;
#X connect 151 5 13 0;
#X connect 151 6 7 0;
#X connect 151 7 6 0;
#X connect 151 8 4 0;
#X connect 151 9 5 0;
#X connect 151 10 106 0;
#X connect 151 11 2 0;
#X connect 151 12 15 0;
#X connect 151 13 110 0;
#X connect 151 14 122 0;
#X connect 151 15 9 0;
#X connect 151 16 10 0;
#X connect 151 17 8 0;
#X connect 151 18 12 0;
#X connect 151 19 124 0;
#X connect 151 20 123 0;
#X connect 151 21 146 0;
#X connect 151 22 11 0;
#X connect 151 23 139 0;
#X connect 151 24 131 0;
#X connect 151 25 20 0;
#X connect 151 26 152 0;
#X connect 151 27 153 0;
#X connect 152 0 157 0;
#X connect 153 0 155 0;
#X connect 155 0 149 1;
#X connect 157 0 148 1;
#X connect 158 0 160 0;
#X connect 159 0 161 0;
#X connect 160 0 162 0;
#X connect 161 0 163 0;
#X connect 162 0 171 0;
#X connect 162 1 172 0;
#X connect 163 0 165 0;
#X connect 163 1 166 0;
#X connect 164 1 150 0;
#X connect 164 2 158 0;
#X connect 164 3 159 0;
#X connect 167 0 173 0;
#X connect 167 0 174 0;
#X connect 168 0 167 1;
#X connect 169 0 168 0;
#X connect 170 0 168 0;
#X connect 171 0 167 0;
#X connect 171 1 169 0;
#X connect 172 0 26 0;
#X connect 172 1 150 0;
#X connect 172 2 170 0;
#X connect 174 0 26 0;
#X connect 174 1 150 0;
#X connect 174 2 151 0;
#X connect 175 0 88 0;
#X coords 0 -1 1 1 700 450 1 100 100;
#X restore 24 33 pd \$0-initsetup;
#X obj 14 2 inlet;
#X msg 31 613 list File \\\; Edit \\\; Sequencer \\\; Mixer \\\; Looper \\\; SongBuilder \\\; Help \\\; About \;, f 72;
#X msg 30 700 list drpmenu \\\; drpmenu \\\; wrkarea \\\; wrkarea \\\; wrkarea \\\; wrkarea \\\; drpmenu \\\; wrkarea \;, f 72;
#X obj 30 588 r \$0-bngmenulist;
#X obj 29 678 r \$0-bngmenutypelist;
#X obj 30 738 s \$0-to-addmenuitemtype;
#X obj 30 652 s \$0-to-addmenuitem;
#X obj 26 492 r \$0-bngnewheadertext;
#X obj 29 540 s \$0-to-newheadertext;
#X msg 27 517 symbol CE_Window;
#X text 27 563 Menu item list's;
#X connect 0 0 7 1;
#X connect 1 0 7 2;
#X connect 2 0 7 3;
#X connect 3 0 7 4;
#X connect 4 0 7 5;
#X connect 5 0 7 6;
#X connect 6 0 7 7;
#X connect 8 0 7 0;
#X connect 9 0 14 0;
#X connect 10 0 13 0;
#X connect 11 0 9 0;
#X connect 12 0 10 0;
#X connect 15 0 17 0;
#X connect 17 0 16 0;
#X restore 427 188 pd \$0-initdefaultsettings;
#X obj 321 160 bng 15 250 50 0 empty empty buil_window 17 7 0 10 #fcfcfc #000000 #000000;
#X obj 49 235 ce_window 0;
#X obj 323 140 tgl 15 0 empty empty show\ menu 17 7 0 10 #fcfcfc #000000 #000000 0 1;
#X obj 324 120 tgl 15 0 empty empty hide\ status 17 7 0 10 #fcfcfc #000000 #000000 0 1;
#X obj 324 99 tgl 15 0 empty empty hide\ quit 17 7 0 10 #fcfcfc #000000 #000000 0 1;
#X obj 325 78 tgl 15 0 empty empty hide\ workarea 17 7 0 10 #fcfcfc #000000 #000000 0 1;
#X obj 478 132 tgl 15 0 empty empty menu\ nav\ buttons\ 0\ ==\ left\ 1\ ==\ right 17 7 0 10 #fcfcfc #000000 #000000 0 1;
#X obj 50 210 r \$0-topatchwindow;
#X obj 542 152 tgl 15 0 empty empty limit\ shown\ items 17 7 0 10 #fcfcfc #000000 #000000 0 1;
#X obj 320 184 bng 15 250 50 0 empty empty bng\ settings 17 7 0 10 #fcfcfc #000000 #000000;
#X text 189 558 wrkarea build list- template;
#X text 594 246 Inside the wrkarea subpatch these send and recieve object will be created to help manage and control external objects similar to the example below., f 43;
#X text 602 385 Dynamic patching is recommended if sub-patches are needed., f 35;
#X text 47 98 See \$0-patch-events to sort and manage menu commands and wrkarea scene changes. Right click on ce_window and open to modify \$0-patch-events subpatch, f 36;
#X obj 608 338 ce_susbng;
#X obj 608 311 r sendto-susbng;
#X obj 608 362 s from-susbng;
#X msg 54 510 pd-left-subpatch -colspan size 50 -rowspan stretch 50 row 0 col 0 sendto-leftpatchdata from-leftpatchdata \; ce_susbng -colspan stretch 100 -rowspan stretch 150 row 0 col 1 sendto-susbng from-susbng \; pd-right-subpatch -colspan size 50 -rowspan stretch 50 row 0 col 2 sendto-rightpatchdata from-rightpatchdata \;, f 116;
#X text 53 487 objname|sub-patch -colflag size|stretch float -rowflag size|stretch float row float col float send recieve, f 115;
#X obj 51 62 declare -path clearessentials;
#X connect 1 0 0 1;
#X connect 3 0 0 2;
#X connect 4 0 0 3;
#X connect 5 0 0 4;
#X connect 6 0 0 5;
#X connect 7 0 0 6;
#X connect 8 0 2 0;
#X connect 9 0 0 7;
#X connect 10 0 0 0;
#X connect 15 0 17 0;
#X connect 16 0 15 0;
