#N canvas 2020 359 673 457 12;
#X declare -lib clearessentials;
#X obj 105 24 inlet;
#X obj 93 127 until;
#X obj 106 155 f;
#X obj 144 148 + 1;
#X obj 212 149 sel 0;
#X msg 335 247 0;
#X obj 166 346 f;
#X obj 196 352 + 70;
#X floatatom 166 373 5 0 0 0 - - - 0;
#X obj 151 404 f;
#X obj 132 455 sel 0;
#X obj 178 503 f;
#X obj 132 507 f;
#X obj 150 430 t f f f;
#X obj 134 480 t b;
#X obj 138 872 pack f f;
#X obj 178 478 t b b b;
#X obj -6 554 f;
#X obj 24 557 + 100;
#X obj 31 687 f;
#X obj 561 204 s \$0-maxitems;
#X obj 626 252 s \$0-itemsperline;
#X msg 1085 172 8;
#X obj 181 101 r \$0-maxitems;
#X obj 191 204 r \$0-itemsperline;
#X obj 93 103 f;
#X obj 720 351 s \$0-itemheight;
#X obj 793 254 s \$0-itemwidth;
#X msg 1088 218 100;
#X msg 1086 194 70;
#X obj 33 526 r \$0-itemwidth;
#X obj 357 309 r \$0-itemheight;
#X obj 117 927 outlet;
#X obj 917 270 s \$0-xyouttype;
#X obj 123 771 spigot 0;
#X obj 188 746 tgl 19 0 empty empty empty 0 -10 0 12 #fcfcfc #000000 #000000 0 1;
#X obj 140 898 spigot 0;
#X obj 205 873 tgl 19 0 empty empty empty 0 -10 0 12 #fcfcfc #000000 #000000 0 1;
#X obj 196 812 change;
#X obj 196 840 == 0;
#X obj 199 780 == 1;
#X obj 187 720 r \$0-xyouttype;
#X obj 121 700 pack f f f;
#X obj 156 604 f;
#X obj 910 247 hradio 19 1 0 2 empty empty out\ msg\ type 0 -10 0 12 #fcfcfc #000000 #000000 0;
#X obj 556 82 inlet;
#X obj 556 146 t b f;
#X obj 557 177 f;
#X obj 642 139 t b f;
#X obj 640 183 f;
#X obj 715 155 t b f;
#X obj 716 186 f;
#X obj 795 156 t b f;
#X obj 796 187 f;
#X obj 897 161 t b f;
#X obj 898 192 f;
#X obj 1014 72 loadbang;
#X obj 105 51 route bang;
#X obj 205 10 t b;
#X obj 203 36 print Error: Unknown message for ce_xypos (First inlet will accept only bangs). Use second inlet to set details.;
#X obj 105 76 t b b b b b;
#X msg 1087 124 1;
#X obj 173 256 sel 0;
#X obj 283 322 f;
#X obj 305 534 sel 0;
#X obj 305 597 t b;
#X obj 303 621 f;
#X obj 44 718 sel 0;
#X obj 81 740 t b;
#X obj 105 198 t f b f f;
#X obj 44 742 t b;
#X msg 81 765 1;
#X msg 44 767 0;
#X obj 56 793 tgl 19 0 empty empty empty 0 -10 0 12 #fcfcfc #000000 #000000 0 1;
#X obj 35 826 spigot 0;
#X floatatom 183 126 5 0 0 0 - - - 0;
#X msg 445 526 1;
#X msg 481 524 0;
#X obj 209 283 t b b b b;
#X obj 468 562 tgl 19 0 empty empty empty 0 -10 0 12 #fcfcfc #000000 #000000 0 1;
#X obj 372 604 spigot 0;
#X obj 384 721 spigot 0;
#X obj 449 696 tgl 19 0 empty empty empty 0 -10 0 12 #fcfcfc #000000 #000000 0 1;
#X obj 440 635 change;
#X obj 440 663 == 0;
#X obj 443 603 == 1;
#X obj 499 891 - 70;
#X obj 519 699 tgl 19 0 empty empty empty 0 -10 0 12 #fcfcfc #000000 #000000 0 1;
#X obj 484 736 spigot 0;
#X obj 496 853 spigot 0;
#X obj 561 828 tgl 19 0 empty empty empty 0 -10 0 12 #fcfcfc #000000 #000000 0 1;
#X obj 552 767 change;
#X obj 552 795 == 0;
#X obj 555 735 == 1;
#X obj 150 536 t b b f f f f;
#X msg 1088 148 32;
#X obj 160 670 f;
#X obj -18 600 t f f f;
#X obj 157 629 t f f b;
#X obj 145 173 mod 32;
#X obj 210 174 t b b b;
#X floatatom 91 643 5 0 0 0 - - - 0;
#X msg 34 506 100;
#X obj 360 538 t b;
#X msg 74 468 0;
#X obj 172 228 % 8;
#X obj 50 857 - 100;
#X obj 948 299 s \$0-borderpadding;
#X obj 1015 98 t b b b b b b;
#X obj 556 106 route set_maxitems set_perline set_itemheight set_itemwidth set_msgtype set_padding;
#X obj 950 160 t b f;
#X obj 951 191 f;
#X obj 288 858 +;
#X obj 312 830 r \$0-borderpadding;
#X obj 108 838 +;
#X obj 132 810 r \$0-borderpadding;
#X obj 42 613 +;
#X obj 66 585 r \$0-borderpadding;
#X obj 429 372 r \$0-borderpadding;
#X obj 98 291 t b b b b b;
#X obj 405 400 +;
#X msg 1086 241 11;
#X obj 745 288 r \$0-borderpadding;
#X obj 721 316 +;
#X obj 653 58 declare -lib clearessentials;
#X obj 661 26 namecanvas \$0-xy_pos;
#X connect 0 0 57 0;
#X connect 1 0 2 0;
#X connect 2 0 3 0;
#X connect 2 0 69 0;
#X connect 3 0 99 0;
#X connect 4 0 100 0;
#X connect 5 0 6 1;
#X connect 6 0 7 0;
#X connect 6 0 8 0;
#X connect 6 0 63 1;
#X connect 7 0 6 1;
#X connect 8 0 9 1;
#X connect 9 0 13 0;
#X connect 10 0 14 0;
#X connect 10 1 16 0;
#X connect 11 0 94 0;
#X connect 12 0 94 0;
#X connect 13 0 10 0;
#X connect 13 1 11 1;
#X connect 13 2 12 1;
#X connect 14 0 12 0;
#X connect 15 0 36 0;
#X connect 16 0 11 0;
#X connect 17 0 18 0;
#X connect 17 0 97 0;
#X connect 18 0 17 1;
#X connect 19 0 74 0;
#X connect 22 0 21 0;
#X connect 23 0 75 0;
#X connect 23 0 25 1;
#X connect 24 0 105 1;
#X connect 25 0 1 0;
#X connect 28 0 27 0;
#X connect 29 0 123 0;
#X connect 30 0 116 0;
#X connect 31 0 7 1;
#X connect 34 0 32 0;
#X connect 35 0 34 1;
#X connect 35 0 40 0;
#X connect 36 0 32 0;
#X connect 37 0 36 1;
#X connect 38 0 39 0;
#X connect 39 0 37 0;
#X connect 40 0 38 0;
#X connect 41 0 35 0;
#X connect 42 0 34 0;
#X connect 43 0 98 0;
#X connect 43 0 101 0;
#X connect 44 0 33 0;
#X connect 45 0 109 0;
#X connect 46 0 47 0;
#X connect 46 1 47 1;
#X connect 47 0 20 0;
#X connect 48 0 49 0;
#X connect 48 1 49 1;
#X connect 49 0 21 0;
#X connect 50 0 51 0;
#X connect 50 1 51 1;
#X connect 51 0 123 0;
#X connect 52 0 53 0;
#X connect 52 1 53 1;
#X connect 53 0 27 0;
#X connect 54 0 55 0;
#X connect 54 1 55 1;
#X connect 55 0 44 0;
#X connect 56 0 108 0;
#X connect 57 0 60 0;
#X connect 57 1 58 0;
#X connect 58 0 59 0;
#X connect 60 0 25 0;
#X connect 60 1 102 0;
#X connect 60 2 5 0;
#X connect 61 0 44 0;
#X connect 62 0 119 0;
#X connect 62 1 78 0;
#X connect 63 0 9 1;
#X connect 64 0 103 0;
#X connect 64 0 65 0;
#X connect 64 1 65 0;
#X connect 65 0 66 0;
#X connect 66 0 42 0;
#X connect 67 0 70 0;
#X connect 67 1 68 0;
#X connect 68 0 71 0;
#X connect 69 0 105 0;
#X connect 69 1 17 0;
#X connect 69 2 43 1;
#X connect 69 3 67 0;
#X connect 70 0 72 0;
#X connect 71 0 73 0;
#X connect 72 0 73 0;
#X connect 73 0 74 1;
#X connect 74 0 106 0;
#X connect 75 0 99 1;
#X connect 76 0 79 0;
#X connect 77 0 79 0;
#X connect 78 0 9 0;
#X connect 78 1 96 0;
#X connect 78 2 63 0;
#X connect 78 3 76 0;
#X connect 79 0 80 1;
#X connect 79 0 85 0;
#X connect 79 0 87 0;
#X connect 80 0 42 2;
#X connect 81 0 42 2;
#X connect 82 0 81 1;
#X connect 83 0 84 0;
#X connect 84 0 82 0;
#X connect 85 0 83 0;
#X connect 87 0 88 1;
#X connect 87 0 93 0;
#X connect 88 0 112 0;
#X connect 89 0 86 0;
#X connect 90 0 89 1;
#X connect 91 0 92 0;
#X connect 92 0 90 0;
#X connect 93 0 91 0;
#X connect 94 0 43 0;
#X connect 94 1 19 0;
#X connect 94 2 88 0;
#X connect 94 3 89 0;
#X connect 94 4 81 0;
#X connect 94 5 80 0;
#X connect 95 0 20 0;
#X connect 96 0 42 1;
#X connect 97 0 19 1;
#X connect 97 1 42 1;
#X connect 97 2 96 1;
#X connect 97 2 120 0;
#X connect 98 0 64 0;
#X connect 98 1 66 1;
#X connect 98 2 96 0;
#X connect 99 0 2 1;
#X connect 99 0 4 0;
#X connect 100 0 1 1;
#X connect 102 0 17 1;
#X connect 104 0 42 1;
#X connect 104 0 96 1;
#X connect 105 0 62 0;
#X connect 106 0 114 0;
#X connect 108 0 28 0;
#X connect 108 1 29 0;
#X connect 108 2 22 0;
#X connect 108 3 95 0;
#X connect 108 4 61 0;
#X connect 108 5 121 0;
#X connect 109 0 46 0;
#X connect 109 1 48 0;
#X connect 109 2 50 0;
#X connect 109 3 52 0;
#X connect 109 4 54 0;
#X connect 109 5 110 0;
#X connect 110 0 111 0;
#X connect 110 1 111 1;
#X connect 111 0 107 0;
#X connect 112 0 15 1;
#X connect 113 0 112 1;
#X connect 114 0 15 0;
#X connect 115 0 114 1;
#X connect 116 0 18 1;
#X connect 117 0 116 1;
#X connect 118 0 120 1;
#X connect 119 0 9 0;
#X connect 119 1 6 0;
#X connect 119 2 102 0;
#X connect 119 2 104 0;
#X connect 119 3 77 0;
#X connect 120 0 96 1;
#X connect 121 0 107 0;
#X connect 122 0 123 1;
#X connect 123 0 26 0;
