#N canvas 971 152 911 467 12;
#X declare -path clearessentials;
#X text 36 56 Written By: Reg Finley;
#X text 35 77 Aka Scr1ptAl1as;
#X obj 36 158 reportissue;
#X obj 37 142 aboutexternal;
#X text 10 430 Outlet(s);
#X obj 27 5 declare -path clearessentials;
#X obj 38 177 watchtutorial;
#X text 37 116 Pd 0.54.0;
#X text 10 210 Inlet(s);
#X obj 430 242 ce_xypos;
#X text 94 209 0 -;
#X text 94 237 1 -;
#X msg 129 363 set_padding 5;
#X msg 129 337 set_msgtype 1;
#X msg 129 311 set_itemwidth 100;
#X msg 129 241 set_maxitems 32;
#X msg 128 262 set_perline 8;
#X msg 128 285 set_itemheight 70;
#X msg 135 207 bang;
#X text 173 207 or;
#X obj 199 207 bng 19 250 50 0 empty empty empty 0 -10 0 12 #fcfcfc #000000 #000000;
#X text 221 206 or;
#X obj 244 206 t b;
#X text 251 65 If you need a index or item number to identify a particular object the [set_msgtype 1< message can be assigned. This will append its current index or "item number" to the front of the outlet message.;
#X text 35 37 ce_xypos v1.0;
#X text 35 93 2022/07/27 1:55 PM;
#X text 94 429 0 -;
#X text 129 429 list;
#X msg 172 430 f f;
#X text 205 429 or;
#X msg 240 429 f f f;
#X msg 430 191 bang;
#X obj 430 272 print xy-pos;
#N canvas 1336 451 340 300 \$0-applysettings 0;
#X obj 64 43 inlet;
#X msg 171 220 set_padding 5;
#X msg 166 195 set_msgtype 1;
#X msg 171 168 set_itemwidth 100;
#X msg 171 98 set_maxitems 32;
#X msg 170 119 set_perline 8;
#X msg 170 142 set_itemheight 70;
#X obj 67 74 t b b b b b b b;
#X obj 120 264 outlet;
#X connect 0 0 7 0;
#X connect 1 0 8 0;
#X connect 2 0 8 0;
#X connect 3 0 8 0;
#X connect 4 0 8 0;
#X connect 5 0 8 0;
#X connect 6 0 8 0;
#X connect 7 1 1 0;
#X connect 7 2 2 0;
#X connect 7 3 3 0;
#X connect 7 4 6 0;
#X connect 7 5 5 0;
#X connect 7 6 4 0;
#X restore 477 212 pd \$0-applysettings;
#X obj 430 215 t b b;
#X text 251 5 [ce_xypos] is a effective tool to use when it comes to dynamic patching. When used will provide x and y coordinates for objects that must be created in a grid format or in sequence.;
#X msg 502 243 get_position 2;
#X msg 129 388 get_position 2;
#X connect 9 0 32 0;
#X connect 31 0 34 0;
#X connect 33 0 9 1;
#X connect 34 0 9 0;
#X connect 34 1 33 0;
#X connect 36 0 9 1;
