#N struct 2410-wavegrapharray float x float x-space float color array
graph 2410-waveoscgraph;
#N struct 2410-waveoscgraph float y;
#N struct 2461-adsrenvarray float x float x-space float color array
graph 2461-adsrgraph;
#N struct 2461-adsrgraph float y;
#N struct 2484-grapharray float x float x-space float color array graph
2484-oscgraph;
#N struct 2484-oscgraph float y;
#N canvas 512 27 1099 881 12;
#N canvas 534 36 1168 856 \$0-clearsynth 0;
#X obj 100 100 cnv 15 500 768 empty empty empty 20 12 0 14 #404040
#404040 0;
#X obj 100 201 ce_customarray;
#X obj 100 516 ce_adsr;
#X obj 309 600 ce_filters;
#X obj 492 905 dac~ 1 2;
#N canvas 197 348 1084 485 \$0-setdefaults 0;
#X obj 112 534 outlet;
#X obj 75 46 loadbang;
#X obj 107 506 t a;
#X msg 288 253 setpan 50;
#X msg 289 279 sethipass 9;
#X msg 48 234 setmidistate 1;
#X obj 49 331 outlet;
#X msg 296 325 setmidistate 0;
#X msg 80 298 setoutlevel 0.8;
#X msg 295 347 setmix 0.8;
#X msg 105 331 setosctype 0;
#X msg 296 371 setband 9000;
#X msg 295 396 setdrive 1;
#X msg 296 421 setdrive 0.8;
#X msg 297 445 setcutoff 9000;
#X msg 294 470 setres 2;
#X obj 305 543 outlet;
#X obj 47 262 t a b b b;
#X obj 632 347 outlet;
#X obj 76 100 t b b b b b b b b b b b b b b b;
#X msg 661 204 setattack 10;
#X msg 667 227 setrelease 100;
#X msg 664 255 setsustain 0.3;
#X msg 671 277 setdecay 150;
#X obj 427 263 del 170;
#X obj 451 238 del;
#X obj 467 212 del;
#X obj 479 186 del;
#X msg 290 304 setwidth 1;
#X msg 307 519 setmidistate 0;
#X obj 355 496 del;
#X obj 430 485 t b;
#X connect 1 0 19 0;
#X connect 2 0 0 0;
#X connect 3 0 2 0;
#X connect 4 0 2 0;
#X connect 5 0 17 0;
#X connect 7 0 2 0;
#X connect 8 0 6 0;
#X connect 9 0 2 0;
#X connect 10 0 6 0;
#X connect 11 0 2 0;
#X connect 12 0 2 0;
#X connect 13 0 2 0;
#X connect 14 0 2 0;
#X connect 15 0 2 0;
#X connect 17 0 6 0;
#X connect 17 1 8 0;
#X connect 17 2 10 0;
#X connect 17 3 30 0;
#X connect 19 0 5 0;
#X connect 19 1 3 0;
#X connect 19 2 4 0;
#X connect 19 3 28 0;
#X connect 19 4 7 0;
#X connect 19 5 9 0;
#X connect 19 6 11 0;
#X connect 19 7 12 0;
#X connect 19 8 13 0;
#X connect 19 9 14 0;
#X connect 19 10 15 0;
#X connect 19 11 24 0;
#X connect 19 12 25 0;
#X connect 19 13 26 0;
#X connect 19 14 27 0;
#X connect 20 0 18 0;
#X connect 21 0 18 0;
#X connect 22 0 18 0;
#X connect 23 0 18 0;
#X connect 24 0 20 0;
#X connect 25 0 23 0;
#X connect 26 0 22 0;
#X connect 27 0 21 0;
#X connect 28 0 2 0;
#X connect 29 0 16 0;
#X connect 30 0 31 0;
#X connect 31 0 29 0;
#X restore 262 55 pd \$0-setdefaults;
#X obj 151 488 t a;
#X obj 54 628 t a;
#X obj 101 360 ce_lfopartials;
#X obj 100 341 ce_gbuffer;
#X obj 101 603 ce_oscdisplay;
#X obj 100 322 ce_voicedmidi;
#X msg 534 935 inputmidi \$1 \$2;
#X obj 314 514 ce_delay;
#X obj 422 514 ce_noise;
#X obj 530 514 ce_reverb;
#X msg 420 34 inputmidi \$1 \$2;
#X msg 420 60 set_release \$1;
#X obj 101 100 ce_patchmanager;
#X obj 341 930 l2s;
#X msg 342 957 set_datafields \$1;
#X obj 599 100 ce_erhythms;
#X obj 49 39 t a a a a a a a a a a;
#X obj 411 -50 inlet;
#X obj 407 -25 route inputmidi;
#X obj 602 4 pack f f;
#X obj 601 27 poly 10 9;
#X obj 601 -20 unpack f f;
#X connect 1 0 9 0;
#X connect 1 3 6 0;
#X connect 1 5 19 0;
#X connect 2 0 10 1;
#X connect 2 4 17 0;
#X connect 2 5 7 0;
#X connect 2 6 19 0;
#X connect 3 0 13 0;
#X connect 3 0 15 0;
#X connect 3 1 13 0;
#X connect 3 2 19 0;
#X connect 5 0 1 0;
#X connect 5 1 3 0;
#X connect 5 2 2 0;
#X connect 5 2 10 0;
#X connect 5 2 1 0;
#X connect 5 3 2 0;
#X connect 6 0 2 0;
#X connect 7 0 10 0;
#X connect 8 0 19 0;
#X connect 8 1 1 0;
#X connect 9 0 2 1;
#X connect 9 1 19 0;
#X connect 10 0 3 1;
#X connect 11 4 19 0;
#X connect 12 0 1 0;
#X connect 12 0 8 0;
#X connect 12 0 3 0;
#X connect 12 0 14 0;
#X connect 12 0 10 0;
#X connect 13 1 19 0;
#X connect 14 0 2 1;
#X connect 14 1 19 0;
#X connect 15 0 4 0;
#X connect 15 1 4 1;
#X connect 15 2 4 0;
#X connect 15 3 4 1;
#X connect 15 4 19 0;
#X connect 16 0 21 0;
#X connect 17 0 21 0;
#X connect 18 0 22 0;
#X connect 19 0 20 0;
#X connect 20 0 18 0;
#X connect 21 0 12 0;
#X connect 21 2 19 0;
#X connect 22 0 21 0;
#X connect 22 1 8 0;
#X connect 22 2 15 2;
#X connect 22 3 14 0;
#X connect 22 4 13 1;
#X connect 22 5 3 0;
#X connect 22 6 9 1;
#X connect 22 7 11 0;
#X connect 22 8 2 0;
#X connect 22 9 1 0;
#X connect 23 0 24 0;
#X connect 24 0 27 0;
#X connect 25 0 26 0;
#X connect 26 0 16 0;
#X connect 27 0 25 0;
#X connect 27 1 25 1;
#X coords 0 -1 1 1 1024 768 2 100 100;
#X restore 0 0 pd \$0-clearsynth;
#X obj 4 -55 inlet;
#X msg -1 -26 inputmidi \$1 \$2;
#X text 335 -25 window name assigned below here;
#X connect 1 0 2 0;
#X connect 2 0 0 0;
#X coords 0 -1 1 1 1024 768 2 0 0;
