#N struct 2629-wavegrapharray float x float x-space float color array
graph 2629-waveoscgraph;
#N struct 2629-waveoscgraph float y;
#N struct 2677-adsrenvarray float x float x-space float color array
graph 2677-adsrgraph;
#N struct 2677-adsrgraph float y;
#N struct 2681-grapharray float x float x-space float color array graph
2681-oscgraph;
#N struct 2681-oscgraph float y;
#N canvas 755 172 1449 1076 12;
#N canvas 140 134 1264 1029 \$0-clearsynth 0;
#X obj 103 119 ce_customarray;
#X msg 1150 190 get_lastmidi;
#X msg 1151 269 get_lastfreq;
#X text 1281 138 on;
#X text 1275 159 off;
#X msg 1149 220 setfreq 120 127;
#X text 1274 220 on;
#X msg 1150 242 setfreq 120 0;
#X text 1264 242 off;
#X obj 103 415 ce_adsr;
#X obj 313 415 ce_filters;
#X obj 22 572 dac~ 1 2;
#N canvas 156 158 1084 485 \$0-setdefaults 0;
#X obj 112 534 outlet;
#X obj 75 46 loadbang;
#X obj 107 506 t a;
#X msg 288 253 setpan 50;
#X msg 289 279 sethipass 9;
#X msg 48 234 setmidistate 1;
#X obj 49 331 outlet;
#X msg 296 325 setmidistate 0;
#X msg 80 298 setoutlevel 0.8;
#X msg 295 347 setmix 0.8;
#X msg 105 331 setosctype 0;
#X msg 296 371 setband 9000;
#X msg 295 396 setdrive 1;
#X msg 296 421 setdrive 0.8;
#X msg 297 445 setcutoff 9000;
#X msg 294 470 setres 2;
#X obj 305 543 outlet;
#X obj 47 262 t a b b b;
#X msg 307 519 setmidistate 0;
#X obj 632 347 outlet;
#X obj 76 100 t b b b b b b b b b b b b b b b;
#X msg 661 204 setattack 10;
#X msg 667 227 setrelease 100;
#X msg 664 255 setsustain 0.3;
#X msg 671 277 setdecay 150;
#X obj 427 263 del 170;
#X obj 451 238 del;
#X obj 467 212 del;
#X obj 479 186 del;
#X msg 290 304 setwidth 1;
#X connect 1 0 20 0;
#X connect 2 0 0 0;
#X connect 3 0 2 0;
#X connect 4 0 2 0;
#X connect 5 0 17 0;
#X connect 7 0 2 0;
#X connect 8 0 6 0;
#X connect 9 0 2 0;
#X connect 10 0 6 0;
#X connect 11 0 2 0;
#X connect 12 0 2 0;
#X connect 13 0 2 0;
#X connect 14 0 2 0;
#X connect 15 0 2 0;
#X connect 17 0 6 0;
#X connect 17 1 8 0;
#X connect 17 2 10 0;
#X connect 17 3 18 0;
#X connect 18 0 16 0;
#X connect 20 0 5 0;
#X connect 20 1 3 0;
#X connect 20 2 4 0;
#X connect 20 3 29 0;
#X connect 20 4 7 0;
#X connect 20 5 9 0;
#X connect 20 6 11 0;
#X connect 20 7 12 0;
#X connect 20 8 13 0;
#X connect 20 9 14 0;
#X connect 20 10 15 0;
#X connect 20 11 25 0;
#X connect 20 12 26 0;
#X connect 20 13 27 0;
#X connect 20 14 28 0;
#X connect 21 0 19 0;
#X connect 22 0 19 0;
#X connect 23 0 19 0;
#X connect 24 0 19 0;
#X connect 25 0 21 0;
#X connect 26 0 24 0;
#X connect 27 0 23 0;
#X connect 28 0 22 0;
#X connect 29 0 2 0;
#X restore 1148 325 pd \$0-setdefaults;
#X obj 1150 106 t a;
#X obj 1156 356 t a;
#X msg 1150 137 inputmidi 60 127;
#X msg 1149 163 inputmidi 60 0;
#X msg 1149 296 inputmidi \$1 \$2;
#X obj 103 259 ce_lfopartials;
#X obj 103 240 ce_gbuffer;
#X obj 102 499 ce_oscdisplay;
#X obj 103 100 ce_voicedmidi;
#X connect 0 0 19 0;
#X connect 0 3 13 0;
#X connect 1 0 0 0;
#X connect 2 0 0 0;
#X connect 9 0 20 1;
#X connect 9 4 14 0;
#X connect 10 0 11 0;
#X connect 10 1 11 1;
#X connect 12 0 0 0;
#X connect 12 1 10 0;
#X connect 12 2 9 0;
#X connect 12 2 20 0;
#X connect 12 3 9 0;
#X connect 13 0 9 0;
#X connect 14 0 20 0;
#X connect 17 0 0 0;
#X connect 18 0 0 0;
#X connect 19 0 9 1;
#X connect 20 0 10 1;
#X connect 21 1 17 0;
#X coords 0 -1 1 1 1024 720 2 100 100;
#X restore 71 86 pd \$0-clearsynth;
