#N struct 1933-wavegrapharray float x float x-space float color array
graph 1933-waveoscgraph;
#N struct 1933-waveoscgraph float y;
#N struct 1984-adsrenvarray float x float x-space float color array
graph 1984-adsrgraph;
#N struct 1984-adsrgraph float y;
#N struct 2007-grapharray float x float x-space float color array graph
2007-oscgraph;
#N struct 2007-oscgraph float y;
#N canvas 328 55 1449 1041 12;
#N canvas 281 0 1349 997 \$0-clearsynth 1;
#X obj 100 119 ce_customarray;
#X msg 1196 188 get_lastmidi;
#X msg 1197 267 get_lastfreq;
#X text 1313 143 on;
#X text 1307 164 off;
#X msg 1195 218 setfreq 120 127;
#X text 1306 225 on;
#X msg 1196 240 setfreq 120 0;
#X text 1310 240 off;
#X obj 100 415 ce_adsr;
#X obj 310 415 ce_filters;
#X obj 492 905 dac~ 1 2;
#N canvas 197 348 1084 485 \$0-setdefaults 0;
#X obj 112 534 outlet;
#X obj 75 46 loadbang;
#X obj 107 506 t a;
#X msg 288 253 setpan 50;
#X msg 289 279 sethipass 9;
#X msg 48 234 setmidistate 1;
#X obj 49 331 outlet;
#X msg 296 325 setmidistate 0;
#X msg 80 298 setoutlevel 0.8;
#X msg 295 347 setmix 0.8;
#X msg 105 331 setosctype 0;
#X msg 296 371 setband 9000;
#X msg 295 396 setdrive 1;
#X msg 296 421 setdrive 0.8;
#X msg 297 445 setcutoff 9000;
#X msg 294 470 setres 2;
#X obj 305 543 outlet;
#X obj 47 262 t a b b b;
#X obj 632 347 outlet;
#X obj 76 100 t b b b b b b b b b b b b b b b;
#X msg 661 204 setattack 10;
#X msg 667 227 setrelease 100;
#X msg 664 255 setsustain 0.3;
#X msg 671 277 setdecay 150;
#X obj 427 263 del 170;
#X obj 451 238 del;
#X obj 467 212 del;
#X obj 479 186 del;
#X msg 290 304 setwidth 1;
#X msg 307 519 setmidistate 0;
#X obj 355 496 del;
#X obj 430 485 t b;
#X connect 1 0 19 0;
#X connect 2 0 0 0;
#X connect 3 0 2 0;
#X connect 4 0 2 0;
#X connect 5 0 17 0;
#X connect 7 0 2 0;
#X connect 8 0 6 0;
#X connect 9 0 2 0;
#X connect 10 0 6 0;
#X connect 11 0 2 0;
#X connect 12 0 2 0;
#X connect 13 0 2 0;
#X connect 14 0 2 0;
#X connect 15 0 2 0;
#X connect 17 0 6 0;
#X connect 17 1 8 0;
#X connect 17 2 10 0;
#X connect 17 3 30 0;
#X connect 19 0 5 0;
#X connect 19 1 3 0;
#X connect 19 2 4 0;
#X connect 19 3 28 0;
#X connect 19 4 7 0;
#X connect 19 5 9 0;
#X connect 19 6 11 0;
#X connect 19 7 12 0;
#X connect 19 8 13 0;
#X connect 19 9 14 0;
#X connect 19 10 15 0;
#X connect 19 11 24 0;
#X connect 19 12 25 0;
#X connect 19 13 26 0;
#X connect 19 14 27 0;
#X connect 20 0 18 0;
#X connect 21 0 18 0;
#X connect 22 0 18 0;
#X connect 23 0 18 0;
#X connect 24 0 20 0;
#X connect 25 0 23 0;
#X connect 26 0 22 0;
#X connect 27 0 21 0;
#X connect 28 0 2 0;
#X connect 29 0 16 0;
#X connect 30 0 31 0;
#X connect 31 0 29 0;
#X restore 1194 328 pd \$0-setdefaults;
#X obj 1196 104 t a;
#X obj 267 578 t a;
#X msg 1196 135 inputmidi 60 127;
#X msg 1195 161 inputmidi 60 0;
#X msg 1121 44 inputmidi \$1 \$2;
#X obj 100 259 ce_lfopartials;
#X obj 100 240 ce_gbuffer;
#X obj 99 499 ce_oscdisplay;
#X obj 100 100 ce_voicedmidi;
#X obj 112 655 keyboard 17 80 4 2 0 0 empty empty;
#X msg -5 582 inputmidi \$1 \$2;
#X obj 331 569 ce_delay;
#X obj 432 569 ce_noise;
#X obj 533 569 ce_reverb;
#X msg 508 13 inputmidi \$1 \$2;
#X msg 504 39 set_release \$1;
#X obj 100 738 ce_recorder;
#X obj 599 100 ce_erhythms;
#X connect 0 0 19 0;
#X connect 0 3 13 0;
#X connect 1 0 0 0;
#X connect 2 0 0 0;
#X connect 9 0 20 1;
#X connect 9 4 14 0;
#X connect 9 5 28 0;
#X connect 10 0 24 0;
#X connect 10 0 26 0;
#X connect 10 1 24 0;
#X connect 12 0 0 0;
#X connect 12 1 10 0;
#X connect 12 2 9 0;
#X connect 12 2 20 0;
#X connect 12 2 0 0;
#X connect 12 3 9 0;
#X connect 13 0 9 0;
#X connect 14 0 20 0;
#X connect 18 0 0 0;
#X connect 19 0 9 1;
#X connect 20 0 10 1;
#X connect 21 1 17 0;
#X connect 22 0 27 0;
#X connect 23 0 0 0;
#X connect 23 0 18 0;
#X connect 23 0 10 0;
#X connect 23 0 25 0;
#X connect 23 0 20 0;
#X connect 25 0 9 1;
#X connect 26 0 11 0;
#X connect 26 1 11 1;
#X connect 26 2 11 0;
#X connect 26 3 11 1;
#X connect 27 0 30 0;
#X connect 28 0 30 0;
#X connect 30 0 23 0;
#X coords 0 -1 1 1 1024 768 2 100 100;
#X restore 65 40 pd \$0-clearsynth;
