#N canvas 99 55 1125 757 12;
#X msg 379 405 stop;
#X msg 379 346 start;
#X floatatom 562 563 5 0 0 0 Live_Tick - - 0;
#X floatatom 627 206 5 0 1 0 - - - 0;
#X obj 627 229 t f;
#X floatatom 754 205 5 0 1 0 - - - 0;
#X obj 754 228 t f;
#X floatatom 356 163 5 0 0 0 - - - 0;
#X obj 356 187 t f;
#X floatatom 881 206 5 0 1 0 - - - 0;
#X obj 881 230 t f;
#X msg 627 254 set_swing \$1;
#X msg 754 254 set_human \$1;
#X msg 881 255 set_mistakes \$1;
#X msg 356 215 set_bpm \$1;
#X floatatom 541 538 5 0 0 0 Live_Step - - 0;
#X floatatom 512 513 5 0 0 0 Live_Bar - - 0;
#X floatatom 583 589 5 0 0 0 Got_Information - - 0;
#X msg 473 182 set_timediv \$1;
#X obj 473 161 hradio 15 1 0 6 empty empty empty 0 -8 0 10 #fcfcfc
#000000 #000000 0;
#X msg 232 208 get_timediv;
#X msg 232 234 get_bpm;
#X msg 239 257 get_swing;
#X msg 245 281 get_human;
#X msg 250 304 get_mistakes;
#X obj 478 491 bng 15 250 50 0 empty empty Live_Banged_Step 17 7 0
10 #fcfcfc #000000 #000000;
#X msg 216 117 get_bar;
#X msg 223 141 get_step;
#X msg 230 165 get_tick;
#X obj 29 183 loadbang;
#X text 28 64 Written By: Reg Finley;
#X text 27 85 Aka Scr1ptAl1as;
#X text 642 120 Swing \, Human and Mistakes is set from 0.01 to 1,
f 48;
#X obj 630 185 hsl 100 15 0.01 1 1 0 empty empty empty -2 -8 0 10 #fcfcfc
#000000 #000000 0 1;
#X obj 767 184 hsl 100 15 0.01 1 1 0 empty empty empty -2 -8 0 10 #fcfcfc
#000000 #000000 0 1;
#X obj 894 186 hsl 100 15 0.01 1 1 0 empty empty empty -2 -8 0 10 #fcfcfc
#000000 #000000 0 1;
#X obj 356 138 r s0-defaultbpm;
#X obj 881 141 r s0-defaultmistakes;
#X obj 754 141 r s0-defaulthuman;
#X obj 627 141 r s0-defaultswing;
#X obj 477 340 humanmetro, f 38;
#X obj 473 136 r s0-defaultdivision;
#N canvas 182 182 450 300 \$0-loadmetrodefaults 0;
#X obj 95 43 inlet;
#X msg 76 227 4;
#X obj 112 227 s s0-defaultbpm;
#X msg 112 201 84;
#X msg 145 172 0.02;
#X msg 180 146 0.01;
#X obj 91 73 t b b b b b;
#X msg 219 127 0.015;
#X obj 145 202 s s0-defaultswing;
#X obj 184 174 s s0-defaulthuman;
#X obj 219 151 s s0-defaultmistakes;
#X obj 79 256 s s0-defaultdivision;
#X connect 0 0 6 0;
#X connect 1 0 11 0;
#X connect 3 0 2 0;
#X connect 4 0 8 0;
#X connect 5 0 9 0;
#X connect 6 0 1 0;
#X connect 6 1 3 0;
#X connect 6 2 4 0;
#X connect 6 3 5 0;
#X connect 6 4 7 0;
#X connect 7 0 10 0;
#X restore 29 210 pd \$0-loadmetrodefaults;
#X text 27 103 2022/05/11 8:54AM;
#X text 27 45 HumanMetro v1.0;
#X text 763 166 Pro;
#X text 824 166 Newbie;
#X text 890 165 Less;
#X text 964 166 More;
#X text 213 8 Human Metro is a robust metronome that utilizes a probibility
threshold for the likleyhood of mistakes to occure while playing the
metronome. These thresholds are used to calculate possible random mistakes
within the swing/groove.;
#X text 626 24 Note* When using get_bar \, get_step and get_tick these
messages will work only when the metronome is playing. Others will
work as soon as the message is sent.;
#X msg 379 376 continue;
#X obj 600 492 print got_timedivision_list;
#X obj 28 152 reportissue;
#X obj 28 132 aboutexternal;
#X connect 0 0 40 0;
#X connect 1 0 40 0;
#X connect 3 0 4 0;
#X connect 4 0 11 0;
#X connect 5 0 6 0;
#X connect 6 0 12 0;
#X connect 7 0 8 0;
#X connect 8 0 14 0;
#X connect 9 0 10 0;
#X connect 10 0 13 0;
#X connect 11 0 40 0;
#X connect 12 0 40 0;
#X connect 13 0 40 0;
#X connect 14 0 40 0;
#X connect 18 0 40 0;
#X connect 19 0 18 0;
#X connect 20 0 40 0;
#X connect 21 0 40 0;
#X connect 22 0 40 0;
#X connect 23 0 40 0;
#X connect 24 0 40 0;
#X connect 26 0 40 0;
#X connect 27 0 40 0;
#X connect 28 0 40 0;
#X connect 29 0 42 0;
#X connect 33 0 3 0;
#X connect 34 0 5 0;
#X connect 35 0 9 0;
#X connect 36 0 7 0;
#X connect 37 0 35 0;
#X connect 38 0 34 0;
#X connect 39 0 33 0;
#X connect 40 0 25 0;
#X connect 40 1 16 0;
#X connect 40 2 15 0;
#X connect 40 3 2 0;
#X connect 40 4 17 0;
#X connect 40 5 52 0;
#X connect 41 0 19 0;
#X connect 51 0 40 0;
