#N canvas 690 110 1535 789 12;
#X declare -path ./;
#X obj 947 429 outlet;
#N canvas 83 178 634 709 \$0-HumanizedMetronome 0;
#X obj 46 41 t f b, f 8;
#X floatatom 101 292 5 0 0 0 - - - 0;
#X floatatom 457 230 5 0 0 0 - - - 0;
#X floatatom 457 272 5 0 0 0 - - - 0;
#X obj 457 321 / 2;
#X floatatom 457 349 5 0 0 0 - - - 0;
#X obj 102 311 t f f;
#X obj 46 267 t f f f f b;
#X obj 457 251 expr 1000/($f1/32);
#X obj 457 376 s \$0-metronomeTime;
#X obj 102 334 s \$0-contStepAt;
#X obj 74 444 r \$0-onmetrooff;
#X msg 74 468 0;
#X obj 44 517 t b f;
#N canvas 236 540 450 478 \$0-metroticker 0;
#X obj 53 345 outlet;
#X obj 109 345 outlet;
#X obj 110 130 f;
#X obj 110 179 + 1;
#X msg 139 83 0;
#X obj 86 83 metro;
#X obj 110 246 count;
#X floatatom 110 273 5 0 0 0 - - - 0;
#X msg 110 218 bang;
#X obj 187 181 r \$0-resettick;
#X msg 186 206 reset;
#X msg 189 231 0;
#X obj 143 130 mod 16;
#X floatatom 110 155 5 0 0 0 - - - 0;
#X obj 118 49 r \$0-metronomeTime;
#X obj 174 84 r \$0-contStepValue;
#X obj 83 25 r \$0-contStepNow;
#X obj 85 50 t b;
#X obj 127 295 r \$0-onmetrooff;
#X msg 128 319 1;
#X obj 156 154 r \$0-onmetrooff;
#X obj 156 178 t b;
#X obj 35 24 inlet;
#X obj 214 21 inlet;
#X obj 315 38 inlet;
#X floatatom 313 113 5 0 0 0 - - - 0;
#X obj 331 78 r \$0-bymetrosteps;
#X connect 2 0 13 0;
#X connect 3 0 12 0;
#X connect 3 0 8 0;
#X connect 3 0 0 0;
#X connect 4 0 2 1;
#X connect 5 0 2 0;
#X connect 6 0 7 0;
#X connect 7 0 1 0;
#X connect 8 0 6 0;
#X connect 9 0 10 0;
#X connect 10 0 6 0;
#X connect 10 0 11 0;
#X connect 11 0 1 0;
#X connect 12 0 2 1;
#X connect 13 0 3 0;
#X connect 14 0 5 1;
#X connect 15 0 2 1;
#X connect 16 0 17 0;
#X connect 17 0 5 0;
#X connect 18 0 19 0;
#X connect 19 0 1 0;
#X connect 20 0 21 0;
#X connect 21 0 10 0;
#X connect 22 0 5 0;
#X connect 23 0 4 0;
#X connect 24 0 25 0;
#X connect 25 0 12 1;
#X connect 26 0 25 0;
#X restore 46 80 pd \$0-metroticker;
#N canvas 237 187 534 422 \$0-calcsequencemsec 0;
#X obj 46 31 inlet;
#N canvas 0 52 460 300 FindLoopMilliSeconds 0;
#X obj 41 57 inlet;
#X obj 107 32 inlet;
#X obj 71 133 sel 1 0;
#X obj 70 114 tgl 15 0 empty empty empty 17 7 0 10 #fcfcfc #000000
#000000 0 1;
#X obj 70 154 timer;
#X floatatom 71 174 10 0 0 0 - - - 0;
#X obj 52 200 f;
#X obj 41 81 t b b;
#X floatatom 56 220 10 0 0 0 - - - 0;
#X msg 105 83 0;
#X obj 105 58 t b;
#X obj 166 283 outlet;
#X obj 160 84 r \$0-onmetrooff;
#X obj 160 110 t b b;
#X connect 0 0 7 0;
#X connect 1 0 10 0;
#X connect 2 0 4 0;
#X connect 2 1 4 1;
#X connect 3 0 2 0;
#X connect 4 0 5 0;
#X connect 5 0 6 1;
#X connect 6 0 8 0;
#X connect 7 0 6 0;
#X connect 7 1 3 0;
#X connect 8 0 11 0;
#X connect 9 0 3 0;
#X connect 10 0 9 0;
#X connect 12 0 13 0;
#X connect 13 1 9 0;
#X restore 107 129 pd FindLoopMilliSeconds;
#X obj 49 94 bng 15 250 50 0 empty empty empty 17 7 0 10 #fcfcfc #000000
#000000;
#X obj 68 96 bng 15 250 50 0 empty empty empty 17 7 0 10 #fcfcfc #000000
#000000;
#X obj 88 96 bng 15 250 50 0 empty empty empty 17 7 0 10 #fcfcfc #000000
#000000;
#X obj 108 96 bng 15 250 50 0 empty empty empty 17 7 0 10 #fcfcfc #000000
#000000;
#X obj 128 96 bng 15 250 50 0 empty empty empty 17 7 0 10 #fcfcfc #000000
#000000;
#X obj 147 97 bng 15 250 50 0 empty empty empty 17 7 0 10 #fcfcfc #000000
#000000;
#X obj 168 97 bng 15 250 50 0 empty empty empty 17 7 0 10 #fcfcfc #000000
#000000;
#X obj 188 97 bng 15 250 50 0 empty empty empty 17 7 0 10 #fcfcfc #000000
#000000;
#X obj 208 97 bng 15 250 50 0 empty empty empty 17 7 0 10 #fcfcfc #000000
#000000;
#X obj 234 98 bng 15 250 50 0 empty empty empty 17 7 0 10 #fcfcfc #000000
#000000;
#X obj 254 99 bng 15 250 50 0 empty empty empty 17 7 0 10 #fcfcfc #000000
#000000;
#X obj 274 99 bng 15 250 50 0 empty empty empty 17 7 0 10 #fcfcfc #000000
#000000;
#X obj 294 99 bng 15 250 50 0 empty empty empty 17 7 0 10 #fcfcfc #000000
#000000;
#X obj 315 99 bng 15 250 50 0 empty empty empty 17 7 0 10 #fcfcfc #000000
#000000;
#X obj 342 99 bng 15 250 50 0 empty empty empty 17 7 0 10 #fcfcfc #000000
#000000;
#X obj 365 100 bng 15 250 50 0 empty empty empty 17 7 0 10 #fcfcfc
#000000 #000000;
#X obj 49 67 sel 0 1 2 3 4 5 6 7 8 9 10 11 12 13 14 15, f 48;
#X obj 48 176 outlet;
#X connect 0 0 18 0;
#X connect 2 0 19 0;
#X connect 18 0 2 0;
#X connect 18 1 3 0;
#X connect 18 2 4 0;
#X connect 18 3 5 0;
#X connect 18 4 6 0;
#X connect 18 5 7 0;
#X connect 18 6 8 0;
#X connect 18 7 9 0;
#X connect 18 8 10 0;
#X connect 18 9 11 0;
#X connect 18 10 12 0;
#X connect 18 11 13 0;
#X connect 18 12 14 0;
#X connect 18 13 15 0;
#X connect 18 14 16 0;
#X connect 18 15 17 0;
#X restore 83 361 pd \$0-calcsequencemsec;
#N canvas 208 208 450 300 \$0-calcsequencebar 0;
#X obj 148 201 count;
#X floatatom 149 228 5 0 0 0 - - - 0;
#X msg 148 174 bang;
#X obj 217 132 r \$0-resetbar;
#X msg 206 158 reset;
#X msg 207 194 0;
#X obj 92 128 r \$0-onmetrooff;
#X obj 206 84 r \$0-onmetrooff;
#X obj 206 108 t b;
#X msg 91 152 1;
#X obj 147 279 outlet;
#X obj 145 59 inlet;
#X connect 0 0 1 0;
#X connect 1 0 10 0;
#X connect 2 0 0 0;
#X connect 3 0 4 0;
#X connect 4 0 0 0;
#X connect 4 0 5 0;
#X connect 5 0 10 0;
#X connect 6 0 9 0;
#X connect 7 0 8 0;
#X connect 8 0 4 0;
#X connect 9 0 10 0;
#X connect 11 0 2 0;
#X restore 83 388 pd \$0-calcsequencebar;
#N canvas 239 167 605 300 \$0-metroinit 0;
#X text 43 5 Start;
#X text 172 5 Stop;
#X obj 170 99 tgl 15 0 empty empty empty 17 7 0 10 #fcfcfc #000000
#000000 0 1;
#X msg 39 56 1;
#X msg 173 69 0;
#X obj 208 69 s \$0-onmetrooff;
#X obj 173 45 t b b;
#X obj 169 126 outlet;
#X msg 359 75 0;
#X text 358 8 ContinueAtStep;
#X obj 426 165 t b f;
#X msg 458 193 \$1;
#X obj 427 142 - 1;
#X obj 359 97 pack f f;
#X obj 359 119 unpack f f;
#X obj 458 220 s \$0-contStepValue;
#X obj 426 244 s \$0-contStepNow;
#X obj 416 71 r \$0-contStepAt;
#X obj 359 49 t b;
#X obj 39 24 r \$0-hmetronomeOn;
#X obj 173 22 r \$0-hmetronomeOff;
#X obj 360 25 r \$0-continue-step;
#X connect 2 0 7 0;
#X connect 3 0 2 0;
#X connect 4 0 2 0;
#X connect 6 0 4 0;
#X connect 6 1 5 0;
#X connect 8 0 13 0;
#X connect 10 0 16 0;
#X connect 10 1 11 0;
#X connect 11 0 15 0;
#X connect 12 0 10 0;
#X connect 13 0 14 0;
#X connect 14 1 12 0;
#X connect 17 0 13 1;
#X connect 18 0 8 0;
#X connect 19 0 3 0;
#X connect 20 0 6 0;
#X connect 21 0 18 0;
#X restore 46 13 pd \$0-metroinit;
#X floatatom 75 181 5 0 1 0 - - - 0;
#X obj 75 204 t f;
#X floatatom 189 181 5 0 1 0 - - - 0;
#X obj 189 204 t f;
#X floatatom 459 180 5 0 0 0 - - - 0;
#X obj 459 204 t f;
#X floatatom 325 180 5 0 1 0 - - - 0;
#X obj 325 204 t f;
#N canvas 434 110 450 337 \$0-bytickdivision 0;
#X obj 69 30 inlet;
#X obj 76 276 outlet;
#N canvas 659 178 1280 877 byNote 0;
#X obj 51 85 inlet;
#X obj 408 25 loadbang;
#X obj 407 49 f \$1;
#X obj 63 484 outlet;
#X obj 60 198 select 0;
#X obj 166 213 select 0;
#X obj 237 226 select 0;
#X obj 304 230 select 0;
#X obj 60 175 mod 16;
#X obj 158 186 mod 8;
#X obj 238 193 mod 4;
#X obj 304 205 mod 2;
#X text 81 437 whole;
#X text 144 440 1/2 note;
#X text 213 441 1/4 note;
#X text 286 444 1/8 note;
#X text 364 447 1/16 note;
#X obj 614 66 inlet;
#X obj 187 352 t b;
#X obj 142 416 spigot 0;
#X obj 117 351 t b;
#X obj 72 418 spigot 0;
#X obj 115 395 tgl 15 0 empty empty empty 17 7 0 10 #fcfcfc #000000
#000000 0 1;
#X msg 117 374 1;
#X obj 186 397 tgl 15 0 empty empty empty 17 7 0 10 #fcfcfc #000000
#000000 0 1;
#X msg 188 376 1;
#X obj 258 355 t b;
#X obj 213 419 spigot 0;
#X obj 257 400 tgl 15 0 empty empty empty 17 7 0 10 #fcfcfc #000000
#000000 0 1;
#X msg 259 379 1;
#X obj 331 358 t b;
#X obj 286 422 spigot 0;
#X obj 330 403 tgl 15 0 empty empty empty 17 7 0 10 #fcfcfc #000000
#000000 0 1;
#X msg 332 382 1;
#X obj 414 362 t b;
#X obj 369 426 spigot 0;
#X obj 413 407 tgl 15 0 empty empty empty 17 7 0 10 #fcfcfc #000000
#000000 0 1;
#X msg 415 386 1;
#X msg 639 122 0;
#X obj 614 99 t f b;
#X obj 62 261 bng 15 250 50 0 empty empty empty 17 7 0 10 #fcfcfc #000000
#000000;
#X obj 194 257 bng 15 250 50 0 empty empty empty 17 7 0 10 #fcfcfc
#000000 #000000;
#X obj 221 254 bng 15 250 50 0 empty empty empty 17 7 0 10 #fcfcfc
#000000 #000000;
#X obj 290 258 bng 15 250 50 0 empty empty empty 17 7 0 10 #fcfcfc
#000000 #000000;
#X obj 377 201 select 0;
#X obj 380 249 bng 15 250 50 0 empty empty empty 17 7 0 10 #fcfcfc
#000000 #000000;
#X obj 377 176 mod 1;
#X floatatom 47 223 5 0 0 0 - - - 0;
#X obj 86 297 f;
#X obj 153 288 f;
#X obj 246 280 f;
#X obj 293 288 f;
#X obj 398 288 f;
#X floatatom 156 251 5 0 0 0 - - - 0;
#X floatatom 246 252 5 0 0 0 - - - 0;
#X floatatom 326 264 5 0 0 0 - - - 0;
#X floatatom 424 237 5 0 0 0 - - - 0;
#X obj 177 303 sel 0 1 2 3 4 5, f 58;
#X obj 501 208 select 0;
#X obj 492 249 bng 15 250 50 0 empty empty empty 17 7 0 10 #fcfcfc
#000000 #000000;
#X obj 496 292 f;
#X floatatom 519 263 5 0 0 0 - - - 0;
#X obj 518 356 t b;
#X obj 473 420 spigot 0;
#X obj 517 401 tgl 15 0 empty empty empty 17 7 0 10 #fcfcfc #000000
#000000 0 1;
#X msg 519 380 1;
#X text 468 441 1/32 note;
#X obj 632 361 bng 15 250 50 0 empty empty empty 17 7 0 10 #fcfcfc
#000000 #000000;
#X obj 501 183 mod 0.5;
#X obj 506 501;
#X connect 0 0 11 0;
#X connect 0 0 10 0;
#X connect 0 0 9 0;
#X connect 0 0 8 0;
#X connect 0 0 46 0;
#X connect 0 0 68 0;
#X connect 1 0 2 0;
#X connect 4 0 40 0;
#X connect 5 0 41 0;
#X connect 6 0 42 0;
#X connect 7 0 43 0;
#X connect 8 0 4 0;
#X connect 8 0 47 0;
#X connect 9 0 5 0;
#X connect 9 0 53 0;
#X connect 10 0 6 0;
#X connect 10 0 54 0;
#X connect 11 0 7 0;
#X connect 11 0 55 0;
#X connect 17 0 39 0;
#X connect 18 0 25 0;
#X connect 19 0 3 0;
#X connect 20 0 23 0;
#X connect 21 0 3 0;
#X connect 22 0 21 1;
#X connect 23 0 22 0;
#X connect 24 0 19 1;
#X connect 25 0 24 0;
#X connect 26 0 29 0;
#X connect 27 0 3 0;
#X connect 28 0 27 1;
#X connect 29 0 28 0;
#X connect 30 0 33 0;
#X connect 31 0 3 0;
#X connect 32 0 31 1;
#X connect 33 0 32 0;
#X connect 34 0 37 0;
#X connect 35 0 3 0;
#X connect 36 0 35 1;
#X connect 37 0 36 0;
#X connect 38 0 28 0;
#X connect 38 0 24 0;
#X connect 38 0 22 0;
#X connect 38 0 36 0;
#X connect 38 0 32 0;
#X connect 38 0 64 0;
#X connect 39 0 57 0;
#X connect 39 1 38 0;
#X connect 40 0 48 0;
#X connect 41 0 49 0;
#X connect 42 0 50 0;
#X connect 43 0 51 0;
#X connect 44 0 45 0;
#X connect 45 0 52 0;
#X connect 46 0 44 0;
#X connect 46 0 52 1;
#X connect 46 0 56 0;
#X connect 47 0 48 1;
#X connect 48 0 21 0;
#X connect 49 0 19 0;
#X connect 50 0 27 0;
#X connect 51 0 31 0;
#X connect 52 0 35 0;
#X connect 53 0 49 1;
#X connect 54 0 50 1;
#X connect 55 0 51 1;
#X connect 57 0 20 0;
#X connect 57 1 18 0;
#X connect 57 2 26 0;
#X connect 57 3 30 0;
#X connect 57 4 34 0;
#X connect 57 5 62 0;
#X connect 57 6 67 0;
#X connect 58 0 59 0;
#X connect 59 0 60 0;
#X connect 60 0 63 0;
#X connect 62 0 65 0;
#X connect 62 0 36 0;
#X connect 63 0 3 0;
#X connect 64 0 63 1;
#X connect 65 0 64 0;
#X connect 68 0 58 0;
#X connect 68 0 60 1;
#X connect 68 0 61 0;
#X restore 76 92 pd byNote;
#X obj 76 65 t f;
#X obj 75 121 bng 15 250 50 0 empty empty empty 17 7 0 10 #fcfcfc #000000
#000000;
#X floatatom 136 63 5 0 0 0 - - - 0;
#X obj 136 39 r \$0-metrobyticks;
#X floatatom 79 223 5 0 0 0 - - - 0;
#X obj 80 191 count 1 16;
#X msg 94 119 1;
#X obj 79 247 - 1;
#X obj 101 141 r \$0-resettick;
#X msg 103 166 reset;
#X floatatom 219 182 5 0 0 0 - - - 0;
#X obj 237 147 r \$0-bymetrosteps;
#X msg 206 217 max \$1;
#X connect 0 0 3 0;
#X connect 2 0 4 0;
#X connect 3 0 2 0;
#X connect 4 0 8 0;
#X connect 5 0 2 1;
#X connect 6 0 5 0;
#X connect 7 0 10 0;
#X connect 8 0 7 0;
#X connect 9 0 8 0;
#X connect 10 0 1 0;
#X connect 11 0 12 0;
#X connect 12 0 8 0;
#X connect 13 0 15 0;
#X connect 14 0 13 0;
#X connect 15 0 8 0;
#X restore 46 131 pd \$0-bytickdivision;
#N canvas 119 154 877 471 \$0-feelandgroove 0;
#X obj 29 192 & 1;
#X obj 29 131 inlet;
#X obj 56 421 outlet;
#X obj 29 232 pack;
#X obj 29 258 route 0 1;
#X text 24 276 even;
#X text 64 276 odd;
#X obj 124 238 *;
#X obj 133 216 t b f;
#X floatatom 241 222 10 0 0 0 - - - 0;
#X obj 71 313 pipe;
#X obj 117 61 inlet;
#X text 27 110 ticks;
#X text 86 41 swing-feel;
#X obj 247 68 inlet;
#X obj 56 396 pipe;
#X floatatom 241 286 10 0 0 0 - - - 0;
#X obj 241 265 *;
#X obj 241 242 t b f;
#X text 248 49 humanize-feel;
#X text 319 311 Humanized by milliseconds;
#X text 319 246 Swing by milliseconds;
#X floatatom 64 206 5 0 0 0 - - - 0;
#X obj 29 164 t f f b;
#X obj 29 313 t b f;
#X floatatom 241 327 10 0 0 0 - - - 0;
#N canvas 455 88 564 634 RandomPipeInitToValueOrZero 0;
#X obj 308 71 inlet;
#X obj 40 51 inlet;
#X obj 40 148 outlet;
#X floatatom 40 123 5 0 0 0 - - - 0;
#N canvas 117 75 450 422 CheckForMistakeEveryTick 0;
#X floatatom 107 73 5 0 0 0 - - - 0;
#X floatatom 107 112 5 0 0 0 - - - 0;
#X obj 107 132 tgl 15 0 empty empty empty 17 7 0 10 #fcfcfc #000000
#000000 0 1;
#X obj 63 259 spigot 0;
#X obj 63 193 change;
#X floatatom 63 238 5 0 0 0 - - - 0;
#X obj 63 171 == 0;
#X obj 63 217 == 0;
#X obj 63 279 t b;
#X floatatom 127 178 5 0 0 0 - - - 0;
#X obj 127 157 == 0;
#X obj 127 197 change;
#X floatatom 127 242 5 0 0 0 - - - 0;
#X obj 127 221 == 1;
#X obj 127 261 spigot 0;
#X obj 127 284 t b;
#X obj 107 28 inlet;
#X obj 63 334 outlet;
#X obj 127 334 outlet;
#X obj 108 91 & 3;
#X obj 107 53 random 3;
#X obj 161 26 inlet;
#X connect 0 0 19 0;
#X connect 1 0 2 0;
#X connect 2 0 3 1;
#X connect 2 0 6 0;
#X connect 2 0 10 0;
#X connect 2 0 14 1;
#X connect 3 0 8 0;
#X connect 4 0 7 0;
#X connect 5 0 3 0;
#X connect 6 0 4 0;
#X connect 7 0 5 0;
#X connect 8 0 17 0;
#X connect 9 0 11 0;
#X connect 10 0 9 0;
#X connect 11 0 13 0;
#X connect 12 0 14 0;
#X connect 13 0 12 0;
#X connect 14 0 15 0;
#X connect 15 0 18 0;
#X connect 16 0 20 0;
#X connect 19 0 1 0;
#X connect 20 0 0 0;
#X connect 21 0 20 1;
#X restore 40 78 pd CheckForMistakeEveryTick;
#X f 28;
#N canvas 771 191 450 391 AdjustForFirstStep 0;
#X obj 77 116 bng 15 250 50 0 empty empty empty 17 7 0 10 #fcfcfc #000000
#000000;
#X obj 156 293 bng 15 250 50 0 empty empty empty 17 7 0 10 #fcfcfc
#000000 #000000;
#X msg 156 312 0;
#X obj 77 164 f;
#X floatatom 77 183 5 0 0 0 - - - 0;
#X obj 122 77 > 0;
#X obj 177 79 == 0;
#X obj 122 49 r currentstep;
#X floatatom 177 165 5 0 0 0 - - - 0;
#X obj 177 142 == 0;
#X obj 177 184 change;
#X floatatom 177 229 5 0 0 0 - - - 0;
#X obj 177 208 == 1;
#X obj 177 271 spigot 0;
#X floatatom 122 99 5 0 0 0 - - - 0;
#X floatatom 177 101 5 0 0 0 - - - 0;
#X obj 122 120 tgl 15 0 empty empty empty 17 7 0 10 #fcfcfc #000000
#000000 0 1;
#X obj 77 140 spigot 0;
#X obj 222 228 tgl 15 0 empty empty empty 17 7 0 10 #fcfcfc #000000
#000000 0 1;
#X obj 177 121 t f f;
#X obj 177 249 t b;
#X obj 196 27 inlet;
#X obj 77 336 outlet;
#X obj 156 337 outlet;
#X obj 156 27 inlet;
#X obj 77 27 inlet;
#X connect 0 0 17 0;
#X connect 1 0 2 0;
#X connect 2 0 23 0;
#X connect 3 0 4 0;
#X connect 4 0 22 0;
#X connect 5 0 14 0;
#X connect 6 0 15 0;
#X connect 7 0 5 0;
#X connect 7 0 6 0;
#X connect 8 0 10 0;
#X connect 9 0 8 0;
#X connect 10 0 12 0;
#X connect 11 0 20 0;
#X connect 12 0 11 0;
#X connect 13 0 1 0;
#X connect 14 0 16 0;
#X connect 15 0 19 0;
#X connect 16 0 17 1;
#X connect 17 0 3 0;
#X connect 18 0 13 1;
#X connect 19 0 9 0;
#X connect 19 1 18 0;
#X connect 20 0 13 0;
#X connect 21 0 3 1;
#X connect 24 0 1 0;
#X connect 25 0 0 0;
#X restore 40 102 pd AdjustForFirstStep;
#X f 55;
#X obj 456 76 inlet;
#X connect 0 0 5 2;
#X connect 1 0 4 0;
#X connect 3 0 2 0;
#X connect 4 0 5 0;
#X connect 4 1 5 1;
#X connect 5 0 3 0;
#X connect 5 1 2 0;
#X connect 6 0 4 1;
#X restore 77 372 pd RandomPipeInitToValueOrZero;
#X floatatom 569 98 6 0 0 0 - - - 0;
#X obj 569 48 * 100;
#X obj 569 74 int;
#X msg 569 121 label Swing:\$1;
#X floatatom 572 254 6 0 0 0 - - - 0;
#X obj 572 204 * 100;
#X obj 572 230 int;
#X msg 572 277 label Human;
#X floatatom 719 255 6 0 0 0 - - - 0;
#X obj 719 231 int;
#X msg 719 278 label Mistakes;
#X obj 241 307 * 4;
#X obj 368 67 inlet;
#X text 361 50 mistakes;
#X floatatom 118 146 5 0 0 0 - - - 0;
#X obj 118 106 / 10;
#X obj 118 126 * 4;
#X floatatom 249 140 5 0 0 0 - - - 0;
#X obj 249 100 / 10;
#X obj 249 120 * 4;
#X obj 118 166 t f;
#X obj 250 159 t f;
#X obj 133 195 r \$0-ticklength16;
#X obj 569 144 s \$0-swing-recv;
#X obj 572 300 s \$0-humanize-recv;
#X obj 719 301 s \$0-mistake-recv;
#X obj 572 179 r \$0-humanize-send;
#X obj 719 180 r \$0-mistake-send;
#X obj 569 23 r \$0-swing-send;
#X connect 0 0 3 0;
#X connect 1 0 23 0;
#X connect 3 0 4 0;
#X connect 4 0 24 0;
#X connect 4 1 10 0;
#X connect 7 0 9 0;
#X connect 7 0 10 1;
#X connect 8 0 7 0;
#X connect 8 1 7 1;
#X connect 9 0 18 0;
#X connect 10 0 15 0;
#X connect 11 0 42 0;
#X connect 14 0 45 0;
#X connect 15 0 2 0;
#X connect 16 0 38 0;
#X connect 17 0 16 0;
#X connect 18 0 17 0;
#X connect 18 1 17 1;
#X connect 23 0 0 0;
#X connect 23 1 3 1;
#X connect 23 1 22 0;
#X connect 24 0 26 0;
#X connect 24 1 15 0;
#X connect 25 0 26 1;
#X connect 26 0 15 1;
#X connect 27 0 30 0;
#X connect 28 0 29 0;
#X connect 29 0 27 0;
#X connect 30 0 50 0;
#X connect 31 0 34 0;
#X connect 32 0 33 0;
#X connect 33 0 31 0;
#X connect 34 0 51 0;
#X connect 35 0 37 0;
#X connect 36 0 35 0;
#X connect 37 0 52 0;
#X connect 38 0 25 0;
#X connect 39 0 26 2;
#X connect 41 0 47 0;
#X connect 42 0 43 0;
#X connect 43 0 41 0;
#X connect 44 0 48 0;
#X connect 45 0 46 0;
#X connect 46 0 44 0;
#X connect 47 0 7 0;
#X connect 48 0 9 0;
#X connect 49 0 8 0;
#X connect 53 0 32 0;
#X connect 54 0 36 0;
#X connect 55 0 28 0;
#X restore 46 240 pd \$0-feelandgroove;
#X f 38;
#X obj 75 156 r \$0-swing-send;
#X obj 189 155 r \$0-humanize-send;
#X obj 325 155 r \$0-mistakes-send;
#X obj 459 154 r \$0-HMbpm;
#X obj 64 493 s \$0-currentstep;
#X obj 83 414 s \$0-currentbar;
#X obj 162 106 s \$0-currenttick;
#X obj 469 296 s \$0-ticklength16;
#X obj 43 546 s \$0-currentstepbang;
#X text 198 14 Metro Human v1.0;
#X text 199 32 Written By: Reg Finely;
#X text 198 50 Aka Scr1ptAl1as;
#X connect 0 0 14 0;
#X connect 0 1 14 1;
#X connect 1 0 6 0;
#X connect 2 0 8 0;
#X connect 3 0 4 0;
#X connect 3 0 35 0;
#X connect 4 0 5 0;
#X connect 5 0 9 0;
#X connect 6 0 10 0;
#X connect 7 0 13 0;
#X connect 7 1 32 0;
#X connect 7 2 15 0;
#X connect 7 3 1 0;
#X connect 8 0 3 0;
#X connect 11 0 12 0;
#X connect 12 0 32 0;
#X connect 13 0 36 0;
#X connect 14 0 26 0;
#X connect 14 1 34 0;
#X connect 15 0 16 0;
#X connect 16 0 33 0;
#X connect 17 0 0 0;
#X connect 18 0 19 0;
#X connect 19 0 27 1;
#X connect 20 0 21 0;
#X connect 21 0 27 2;
#X connect 22 0 23 0;
#X connect 23 0 2 0;
#X connect 24 0 25 0;
#X connect 25 0 27 3;
#X connect 26 0 27 0;
#X connect 27 0 7 0;
#X connect 28 0 18 0;
#X connect 29 0 20 0;
#X connect 30 0 24 0;
#X connect 31 0 22 0;
#X restore 460 126 pd \$0-HumanizedMetronome;
#X floatatom 1102 508 5 0 0 0 - - - 0;
#X floatatom 1051 485 5 0 0 0 - - - 0;
#X floatatom 999 456 5 0 0 0 - - - 0;
#X msg 392 179 1;
#X msg 391 229 0;
#X obj 947 409 bng 15 250 50 0 empty empty empty 17 7 0 10 #fcfcfc
#000000 #000000;
#X obj 547 240 hradio 15 1 0 6 empty empty Time_Division 0 -8 0 10
#fcfcfc #000000 #000000 0;
#X listbox 547 288 20 0 0 0 - - - 0;
#N canvas 358 163 506 379 \$0-displaytimedivision 0;
#X obj 57 26 inlet;
#X obj 58 96 bng 15 250 50 0 empty empty empty 17 7 0 10 #fcfcfc #000000
#000000;
#X obj 89 95 bng 15 250 50 0 empty empty empty 17 7 0 10 #fcfcfc #000000
#000000;
#X obj 124 95 bng 15 250 50 0 empty empty empty 17 7 0 10 #fcfcfc #000000
#000000;
#X obj 158 94 bng 15 250 50 0 empty empty empty 17 7 0 10 #fcfcfc #000000
#000000;
#X obj 187 95 bng 15 250 50 0 empty empty empty 17 7 0 10 #fcfcfc #000000
#000000;
#X msg 57 117 0;
#X msg 91 117 1;
#X msg 123 115 2;
#X msg 156 115 3;
#X msg 187 116 4;
#X obj 224 92 bng 15 250 50 0 empty empty empty 17 7 0 10 #fcfcfc #000000
#000000;
#X msg 224 113 5;
#X obj 257 155 s \$0-metrobyticks;
#X msg 264 179 symbol Whole;
#X msg 307 277 symbol 1/16;
#X msg 308 300 symbol 1/32;
#X msg 299 253 symbol 1/8;
#X msg 290 227 symbol 1/4;
#X msg 279 203 symbol 1/2;
#X obj 291 328 outlet;
#X obj 241 59 s \$0-divindex;
#X obj 58 62 sel 0 1 2 3 4 5, f 21;
#X connect 0 0 21 0;
#X connect 0 0 22 0;
#X connect 1 0 6 0;
#X connect 2 0 7 0;
#X connect 3 0 8 0;
#X connect 4 0 9 0;
#X connect 5 0 10 0;
#X connect 6 0 13 0;
#X connect 6 0 14 0;
#X connect 7 0 13 0;
#X connect 7 0 19 0;
#X connect 8 0 13 0;
#X connect 8 0 18 0;
#X connect 9 0 13 0;
#X connect 9 0 17 0;
#X connect 10 0 13 0;
#X connect 10 0 15 0;
#X connect 11 0 12 0;
#X connect 12 0 13 0;
#X connect 12 0 16 0;
#X connect 14 0 20 0;
#X connect 15 0 20 0;
#X connect 16 0 20 0;
#X connect 17 0 20 0;
#X connect 18 0 20 0;
#X connect 19 0 20 0;
#X connect 22 0 1 0;
#X connect 22 1 2 0;
#X connect 22 2 3 0;
#X connect 22 3 4 0;
#X connect 22 4 5 0;
#X connect 22 5 11 0;
#X restore 547 262 pd \$0-displaytimedivision;
#X obj 409 126 inlet;
#X obj 535 206 t f;
#X obj 744 289 t f;
#X obj 777 263 t f;
#X obj 809 236 t f;
#X obj 847 206 t f;
#X obj 999 482 outlet;
#X obj 1051 513 outlet;
#X obj 1102 536 outlet;
#X obj 1062 234 f;
#X obj 1086 262 f;
#X obj 1108 284 f;
#X obj 1132 309 f;
#X obj 906 316 bng 15 250 50 0 empty empty empty 17 7 0 10 #fcfcfc
#000000 #000000;
#X obj 548 314 s \$0-divsymbol;
#N canvas 443 351 450 300 \$0-buildtimedivisionoutput 0;
#X obj 125 94 t s;
#X obj 72 94 f;
#X obj 72 119 pack f s;
#X msg 72 145 list \$1 \$2;
#X obj 90 46 r \$0-divindex;
#X obj 125 70 r \$0-divsymbol;
#X obj 72 20 inlet;
#X obj 72 178 outlet;
#X connect 0 0 2 1;
#X connect 1 0 2 0;
#X connect 2 0 3 0;
#X connect 3 0 7 0;
#X connect 4 0 1 1;
#X connect 5 0 0 0;
#X connect 6 0 1 0;
#X restore 907 339 pd \$0-buildtimedivisionoutput;
#X obj 777 289 s \$0-swing-send;
#X obj 809 261 s \$0-humanize-send;
#X obj 845 232 s \$0-mistakes-send;
#X obj 1105 231 r \$0-swing-send;
#X obj 1127 254 r \$0-humanize-send;
#X obj 1151 278 r \$0-mistakes-send;
#X obj 1080 205 r \$0-HMbpm;
#X obj 743 316 s \$0-HMbpm;
#X obj 999 429 r \$0-currentbar;
#X obj 1051 454 r \$0-currentstep;
#X obj 1102 479 r \$0-currenttick;
#X obj 389 256 s \$0-hmetronomeOff;
#X obj 392 204 s \$0-hmetronomeOn;
#X obj 388 285 s \$0-continue-step;
#X obj 947 383 r \$0-currentstepbang;
#X floatatom 1025 304 5 0 0 0 - - - 0;
#X floatatom 1404 278 5 0 0 0 - - - 0;
#X floatatom 1353 255 5 0 0 0 - - - 0;
#X floatatom 1308 223 5 0 0 0 - - - 0;
#X obj 1308 196 r \$0-currentbar;
#X obj 1353 224 r \$0-currentstep;
#X obj 1404 249 r \$0-currenttick;
#X obj 1291 254 f;
#X obj 1313 276 f;
#X obj 1337 301 f;
#X obj 392 155 route start stop continue set_timediv set_bpm set_swing
set_human set_mistakes get_timediv get_bpm get_swing get_human get_mistakes
get_bar get_step get_tick, f 159;
#X text 391 508 Metro Human v1.0;
#X text 392 526 Written By: Reg Finely;
#X text 391 544 Aka Scr1ptAl1as;
#X obj 394 577 declare -path ./;
#X obj 530 336 s divsymbol;
#X obj 567 547 loadbang;
#N canvas 182 182 450 300 \$0-loadmetrodefaults 0;
#X obj 95 43 inlet;
#X msg 76 227 4;
#X obj 112 227 s s0-defaultbpm;
#X msg 112 201 84;
#X msg 145 172 0.02;
#X msg 180 146 0.01;
#X obj 91 73 t b b b b b;
#X msg 219 127 0.015;
#X obj 145 202 s s0-defaultswing;
#X obj 184 174 s s0-defaulthuman;
#X obj 219 151 s s0-defaultmistakes;
#X obj 79 256 s s0-defaultdivision;
#X connect 0 0 6 0;
#X connect 1 0 11 0;
#X connect 3 0 2 0;
#X connect 4 0 8 0;
#X connect 5 0 9 0;
#X connect 6 0 1 0;
#X connect 6 1 3 0;
#X connect 6 2 4 0;
#X connect 6 3 5 0;
#X connect 6 4 7 0;
#X connect 7 0 10 0;
#X restore 567 574 pd \$0-loadmetrodefaults;
#N canvas 444 229 800 317 \$0-setmetrodefaults 0;
#X obj 85 62 r s0-defaultbpm;
#X obj 477 56 r s0-defaultmistakes;
#X obj 344 57 r s0-defaulthuman;
#X obj 208 55 r s0-defaultswing;
#X msg 85 91 set_bpm \$1;
#X msg 208 85 set_swing \$1;
#X msg 342 86 set_human \$1;
#X msg 479 84 set_mistakes \$1;
#X obj 165 194 outlet;
#X obj 460 132 r s0-defaultdivision;
#X msg 458 159 se_timediv \$1;
#X connect 0 0 4 0;
#X connect 1 0 7 0;
#X connect 2 0 6 0;
#X connect 3 0 5 0;
#X connect 4 0 8 0;
#X connect 5 0 8 0;
#X connect 6 0 8 0;
#X connect 7 0 8 0;
#X connect 9 0 10 0;
#X connect 10 0 8 0;
#X restore 383 96 pd \$0-setmetrodefaults;
#X obj 100 100 cnv 15 130 165 empty empty HumanizedMetro 10 10 0 14
#e0e0e0 #404040 0;
#X floatatom 107 124 5 0 0 0 - - - 0;
#X obj 107 160 hradio 15 1 0 6 empty empty Time_Division 0 -8 0 10
#fcfcfc #000000 #000000 0;
#X obj 110 179 hsl 100 15 0.01 1 1 0 empty empty Swing 3 7 0 10 #202020
#00faff #ffffff 0 1;
#X obj 110 198 hsl 100 15 0.01 1 1 0 empty empty Humanize: 3 7 0 10
#202020 #00faff #ffffff 0 1;
#X obj 110 218 hsl 100 15 0.01 1 1 0 empty empty Mistakes: 3 7 0 10
#202020 #00faff #ffffff 0 1;
#X obj 149 126 bng 15 250 50 0 empty empty empty 17 7 0 10 #00ff04
#000000 #000000;
#X obj 174 126 bng 15 250 50 0 empty empty empty 17 7 0 10 #ff8300
#000000 #000000;
#X obj 197 126 bng 15 250 50 0 empty empty empty 17 7 0 10 #ff0400
#000000 #000000;
#X obj 200 159 cnv 15 15 15 \$0-divdisplay-send \$0-divdisplay-recv
1/16 3 7 0 10 #dfdfdf #000000 0;
#X msg 275 209 stop;
#X msg 275 150 start;
#X msg 247 286 set_swing \$1;
#X msg 247 312 set_human \$1;
#X msg 247 338 set_mistakes \$1;
#X msg 247 258 set_bpm \$1;
#X msg 247 363 set_timediv \$1;
#X msg 275 180 continue;
#X obj 260 74 r s0-defaultbpm;
#X obj 210 7 r s0-defaultmistakes;
#X obj 236 31 r s0-defaulthuman;
#X obj 245 52 r s0-defaultswing;
#X obj 370 8 r s0-defaultdivision;
#X obj 1316 442 outlet;
#X obj 1259 442 outlet;
#X floatatom 108 239 5 0 0 1 Total_Steps - - 0;
#X obj 18 328 s \$0-bymetrosteps;
#X msg 49 228 16;
#X msg 49 203 8;
#X msg 49 253 32;
#X msg 49 278 64;
#X msg 49 126 3;
#X msg 49 150 4;
#X msg 49 176 5;
#X obj 52 52 loadbang;
#X connect 2 0 19 0;
#X connect 3 0 18 0;
#X connect 4 0 17 0;
#X connect 5 0 39 0;
#X connect 6 0 38 0;
#X connect 7 0 0 0;
#X connect 8 0 10 0;
#X connect 9 0 25 0;
#X connect 9 0 57 0;
#X connect 10 0 9 0;
#X connect 11 0 52 0;
#X connect 12 0 8 0;
#X connect 13 0 34 0;
#X connect 14 0 27 0;
#X connect 15 0 28 0;
#X connect 16 0 29 0;
#X connect 20 0 85 0;
#X connect 21 0 42 0;
#X connect 21 0 85 0;
#X connect 22 0 85 0;
#X connect 23 0 85 0;
#X connect 24 0 26 0;
#X connect 26 0 84 0;
#X connect 30 0 21 1;
#X connect 31 0 22 1;
#X connect 32 0 23 1;
#X connect 33 0 20 1;
#X connect 35 0 4 0;
#X connect 36 0 3 0;
#X connect 37 0 2 0;
#X connect 41 0 7 0;
#X connect 43 0 51 1;
#X connect 44 0 50 1;
#X connect 45 0 49 1;
#X connect 46 0 45 0;
#X connect 47 0 44 0;
#X connect 48 0 43 0;
#X connect 49 0 85 0;
#X connect 50 0 85 0;
#X connect 51 0 85 0;
#X connect 52 0 5 0;
#X connect 52 1 6 0;
#X connect 52 2 40 0;
#X connect 52 3 12 0;
#X connect 52 4 13 0;
#X connect 52 5 14 0;
#X connect 52 6 15 0;
#X connect 52 7 16 0;
#X connect 52 8 24 0;
#X connect 52 9 20 0;
#X connect 52 10 21 0;
#X connect 52 11 22 0;
#X connect 52 12 23 0;
#X connect 52 13 49 0;
#X connect 52 14 50 0;
#X connect 52 15 51 0;
#X connect 58 0 59 0;
#X connect 60 0 52 0;
#X connect 62 0 76 0;
#X connect 63 0 77 0;
#X connect 64 0 73 0;
#X connect 65 0 74 0;
#X connect 66 0 75 0;
#X connect 67 0 72 0;
#X connect 68 0 78 0;
#X connect 69 0 71 0;
#X connect 71 0 52 0;
#X connect 72 0 52 0;
#X connect 73 0 52 0;
#X connect 74 0 52 0;
#X connect 75 0 52 0;
#X connect 76 0 52 0;
#X connect 77 0 52 0;
#X connect 78 0 52 0;
#X connect 79 0 62 0;
#X connect 80 0 66 0;
#X connect 81 0 65 0;
#X connect 82 0 64 0;
#X connect 83 0 63 0;
#X connect 86 0 87 0;
#X connect 88 0 86 0;
#X connect 89 0 86 0;
#X connect 90 0 86 0;
#X connect 91 0 86 0;
#X connect 92 0 86 0;
#X connect 93 0 86 0;
#X connect 94 0 86 0;
#X connect 95 0 88 0;
#X coords 0 -1 1 1 130 165 2 100 100;
