#N canvas 348 103 873 692 12;
#X floatatom 233 473 5 0 0 0 - - - 0;
#X obj 72 295 random 100;
#X obj 151 295 random 100;
#X obj 72 322 / 100;
#X obj 151 321 / 100;
#X obj 72 347 +;
#X obj 72 373 / 2;
#X floatatom 53 465 5 0 0 0 - - - 0;
#X obj 85 154 bng 15 250 50 0 empty empty empty 17 7 0 10 #fcfcfc #000000
#000000;
#X obj 233 344 inlet;
#X obj 151 231 f;
#X obj 54 547 outlet;
#X obj 53 74 inlet;
#X obj 85 175 t b b b;
#X obj 233 371 / 100;
#X obj 53 435 f;
#X obj 53 266 bng 15 250 50 0 empty empty empty 17 7 0 10 #fcfcfc #000000
#000000;
#X obj 167 456 * 100;
#X obj 168 525 outlet;
#X obj 212 152 t b b;
#X obj 53 103 route bang set_comparison generate randomize;
#X obj 233 449 f;
#X obj 53 401 t b b;
#X obj 233 395 t b f;
#X floatatom 264 422 5 0 0 0 - - - 0;
#N canvas 404 153 639 592 \$0-checksomparisons 0;
#X floatatom 448 190 5 0 0 0 - - - 0;
#X floatatom 94 88 5 0 0 0 - - - 0;
#X obj 268 459 outlet;
#N canvas 208 208 450 300 \$0-bytypecheck-less 0;
#X obj 94 62 inlet;
#X obj 139 63 inlet;
#X obj 122 214 outlet;
#X obj 121 130 <;
#X floatatom 139 102 5 0 0 0 - - - 0;
#X obj 121 185 spigot 0;
#X obj 183 166 tgl 15 0 empty empty empty 17 7 0 10 #fcfcfc #000000
#000000 0 1;
#X msg 182 114 1;
#X obj 121 156 == 1;
#X msg 206 145 0;
#X obj 220 123 r \$0-disablecomtype;
#X obj 180 85 r \$0-enablecomtype1;
#X connect 0 0 3 0;
#X connect 1 0 4 0;
#X connect 3 0 8 0;
#X connect 4 0 3 1;
#X connect 5 0 2 0;
#X connect 6 0 5 1;
#X connect 7 0 6 0;
#X connect 8 0 5 0;
#X connect 9 0 6 0;
#X connect 10 0 9 0;
#X connect 11 0 7 0;
#X restore 140 115 pd \$0-bytypecheck-less;
#N canvas 208 208 450 300 \$0-bytypecheck-greater 0;
#X obj 94 62 inlet;
#X obj 139 63 inlet;
#X obj 121 237 outlet;
#X floatatom 139 102 5 0 0 0 - - - 0;
#X obj 121 185 spigot 0;
#X obj 183 166 tgl 15 0 empty empty empty 17 7 0 10 #fcfcfc #000000
#000000 0 1;
#X msg 182 114 1;
#X obj 121 156 == 1;
#X msg 206 145 0;
#X obj 220 123 r \$0-disablecomtype;
#X obj 121 130 >;
#X obj 180 85 r \$0-enablecomtype2;
#X obj 85 219 bng 15 250 50 0 empty empty empty 17 7 0 10 #fcfcfc #000000
#000000;
#X obj 121 211 t f;
#X connect 0 0 10 0;
#X connect 1 0 3 0;
#X connect 3 0 10 1;
#X connect 4 0 12 0;
#X connect 4 0 13 0;
#X connect 5 0 4 1;
#X connect 6 0 5 0;
#X connect 7 0 4 0;
#X connect 8 0 5 0;
#X connect 9 0 8 0;
#X connect 10 0 7 0;
#X connect 11 0 6 0;
#X connect 13 0 2 0;
#X restore 137 137 pd \$0-bytypecheck-greater;
#N canvas 208 208 450 300 \$0-bytypecheck-equal 0;
#X obj 94 62 inlet;
#X obj 139 63 inlet;
#X obj 122 214 outlet;
#X floatatom 139 102 5 0 0 0 - - - 0;
#X obj 121 185 spigot 0;
#X obj 183 166 tgl 15 0 empty empty empty 17 7 0 10 #fcfcfc #000000
#000000 0 1;
#X msg 182 114 1;
#X obj 121 156 == 1;
#X msg 206 145 0;
#X obj 220 123 r \$0-disablecomtype;
#X obj 121 130 ==;
#X obj 180 85 r \$0-enablecomtype3;
#X connect 0 0 10 0;
#X connect 1 0 3 0;
#X connect 3 0 10 1;
#X connect 4 0 2 0;
#X connect 5 0 4 1;
#X connect 6 0 5 0;
#X connect 7 0 4 0;
#X connect 8 0 5 0;
#X connect 9 0 8 0;
#X connect 10 0 7 0;
#X connect 11 0 6 0;
#X restore 159 164 pd \$0-bytypecheck-equal;
#N canvas 208 208 450 300 \$0-bytypecheck-multiple 0;
#X obj 94 62 inlet;
#X obj 139 63 inlet;
#X obj 122 214 outlet;
#X floatatom 139 102 5 0 0 0 - - - 0;
#X obj 121 185 spigot 0;
#X obj 183 166 tgl 15 0 empty empty empty 17 7 0 10 #fcfcfc #000000
#000000 0 1;
#X msg 182 114 1;
#X obj 121 156 == 1;
#X msg 206 145 0;
#X obj 220 123 r \$0-disablecomtype;
#X obj 121 130 %;
#X obj 180 85 r \$0-enablecomtype4;
#X connect 0 0 10 0;
#X connect 1 0 3 0;
#X connect 3 0 10 1;
#X connect 4 0 2 0;
#X connect 5 0 4 1;
#X connect 6 0 5 0;
#X connect 7 0 4 0;
#X connect 8 0 5 0;
#X connect 9 0 8 0;
#X connect 10 0 7 0;
#X connect 11 0 6 0;
#X restore 169 189 pd \$0-bytypecheck-multiple;
#N canvas 208 208 450 300 \$0-bytypecheck-greaterorequal 0;
#X obj 94 62 inlet;
#X obj 139 63 inlet;
#X obj 122 214 outlet;
#X floatatom 139 102 5 0 0 0 - - - 0;
#X obj 121 185 spigot 0;
#X obj 183 166 tgl 15 0 empty empty empty 17 7 0 10 #fcfcfc #000000
#000000 0 1;
#X msg 182 114 1;
#X obj 121 156 == 1;
#X msg 206 145 0;
#X obj 220 123 r \$0-disablecomtype;
#X obj 121 130 >;
#X obj 180 85 r \$0-enablecomtype5;
#X connect 0 0 10 0;
#X connect 1 0 3 0;
#X connect 3 0 10 1;
#X connect 4 0 2 0;
#X connect 5 0 4 1;
#X connect 6 0 5 0;
#X connect 7 0 4 0;
#X connect 8 0 5 0;
#X connect 9 0 8 0;
#X connect 10 0 7 0;
#X connect 11 0 6 0;
#X restore 180 213 pd \$0-bytypecheck-greaterorequal;
#N canvas 208 208 450 300 \$0-bytypecheck-lessequal 0;
#X obj 94 62 inlet;
#X obj 139 63 inlet;
#X obj 122 214 outlet;
#X obj 121 130 <;
#X floatatom 139 102 5 0 0 0 - - - 0;
#X obj 121 185 spigot 0;
#X obj 183 166 tgl 15 0 empty empty empty 17 7 0 10 #fcfcfc #000000
#000000 0 1;
#X msg 182 114 1;
#X obj 121 156 == 1;
#X msg 206 145 0;
#X obj 220 123 r \$0-disablecomtype;
#X obj 180 85 r \$0-enablecomtype6;
#X connect 0 0 3 0;
#X connect 1 0 4 0;
#X connect 3 0 8 0;
#X connect 4 0 3 1;
#X connect 5 0 2 0;
#X connect 6 0 5 1;
#X connect 7 0 6 0;
#X connect 8 0 5 0;
#X connect 9 0 6 0;
#X connect 10 0 9 0;
#X connect 11 0 7 0;
#X restore 190 238 pd \$0-bytypecheck-lessequal;
#N canvas 208 208 450 300 \$0-bytypecheck-notequal 0;
#X obj 94 62 inlet;
#X obj 139 63 inlet;
#X obj 122 214 outlet;
#X floatatom 139 102 5 0 0 0 - - - 0;
#X obj 121 185 spigot 0;
#X obj 183 166 tgl 15 0 empty empty empty 17 7 0 10 #fcfcfc #000000
#000000 0 1;
#X msg 182 114 1;
#X obj 121 156 == 1;
#X msg 206 145 0;
#X obj 220 123 r \$0-disablecomtype;
#X obj 180 85 r \$0-enablecomtype7;
#X obj 121 130 !=;
#X connect 0 0 11 0;
#X connect 1 0 3 0;
#X connect 3 0 11 1;
#X connect 4 0 2 0;
#X connect 5 0 4 1;
#X connect 6 0 5 0;
#X connect 7 0 4 0;
#X connect 8 0 5 0;
#X connect 9 0 8 0;
#X connect 10 0 6 0;
#X connect 11 0 7 0;
#X restore 202 263 pd \$0-bytypecheck-notequal;
#N canvas 208 208 450 300 \$0-bytypecheck-andand 0;
#X obj 94 62 inlet;
#X obj 139 63 inlet;
#X obj 122 214 outlet;
#X floatatom 139 102 5 0 0 0 - - - 0;
#X obj 121 185 spigot 0;
#X obj 183 166 tgl 15 0 empty empty empty 17 7 0 10 #fcfcfc #000000
#000000 0 1;
#X msg 182 114 1;
#X obj 121 156 == 1;
#X msg 206 145 0;
#X obj 220 123 r \$0-disablecomtype;
#X obj 180 85 r \$0-enablecomtype8;
#X obj 121 130 &&;
#X connect 0 0 11 0;
#X connect 1 0 3 0;
#X connect 3 0 11 1;
#X connect 4 0 2 0;
#X connect 5 0 4 1;
#X connect 6 0 5 0;
#X connect 7 0 4 0;
#X connect 8 0 5 0;
#X connect 9 0 8 0;
#X connect 10 0 6 0;
#X connect 11 0 7 0;
#X restore 216 287 pd \$0-bytypecheck-andand;
#N canvas 208 208 450 300 \$0-bytypecheck-oror 0;
#X obj 94 62 inlet;
#X obj 139 63 inlet;
#X obj 122 214 outlet;
#X floatatom 139 102 5 0 0 0 - - - 0;
#X obj 121 185 spigot 0;
#X obj 183 166 tgl 15 0 empty empty empty 17 7 0 10 #fcfcfc #000000
#000000 0 1;
#X msg 182 114 1;
#X obj 121 156 == 1;
#X msg 206 145 0;
#X obj 220 123 r \$0-disablecomtype;
#X obj 181 84 r \$0-enablecomtype9;
#X obj 121 130 ||;
#X connect 0 0 11 0;
#X connect 1 0 3 0;
#X connect 3 0 11 1;
#X connect 4 0 2 0;
#X connect 5 0 4 1;
#X connect 6 0 5 0;
#X connect 7 0 4 0;
#X connect 8 0 5 0;
#X connect 9 0 8 0;
#X connect 10 0 6 0;
#X connect 11 0 7 0;
#X restore 231 312 pd \$0-bytypecheck-oror;
#N canvas 208 208 450 300 \$0-bytypecheck-and 0;
#X obj 94 62 inlet;
#X obj 139 63 inlet;
#X obj 122 214 outlet;
#X floatatom 139 102 5 0 0 0 - - - 0;
#X obj 121 185 spigot 0;
#X obj 183 166 tgl 15 0 empty empty empty 17 7 0 10 #fcfcfc #000000
#000000 0 1;
#X msg 182 114 1;
#X obj 121 156 == 1;
#X msg 206 145 0;
#X obj 220 123 r \$0-disablecomtype;
#X obj 121 130 &;
#X obj 179 86 r \$0-enablecomtype10;
#X connect 0 0 10 0;
#X connect 1 0 3 0;
#X connect 3 0 10 1;
#X connect 4 0 2 0;
#X connect 5 0 4 1;
#X connect 6 0 5 0;
#X connect 7 0 4 0;
#X connect 8 0 5 0;
#X connect 9 0 8 0;
#X connect 10 0 7 0;
#X connect 11 0 6 0;
#X restore 247 338 pd \$0-bytypecheck-and;
#N canvas 208 208 450 300 \$0-bytypecheck-or 0;
#X obj 94 62 inlet;
#X obj 139 63 inlet;
#X obj 122 214 outlet;
#X floatatom 139 102 5 0 0 0 - - - 0;
#X obj 121 185 spigot 0;
#X obj 183 166 tgl 15 0 empty empty empty 17 7 0 10 #fcfcfc #000000
#000000 0 1;
#X msg 182 114 1;
#X obj 121 156 == 1;
#X msg 206 145 0;
#X obj 220 123 r \$0-disablecomtype;
#X obj 181 84 r \$0-enablecomtype11;
#X obj 121 130 |;
#X connect 0 0 11 0;
#X connect 1 0 3 0;
#X connect 3 0 11 1;
#X connect 4 0 2 0;
#X connect 5 0 4 1;
#X connect 6 0 5 0;
#X connect 7 0 4 0;
#X connect 8 0 5 0;
#X connect 9 0 8 0;
#X connect 10 0 6 0;
#X connect 11 0 7 0;
#X restore 263 363 pd \$0-bytypecheck-or;
#N canvas 208 208 450 300 \$0-bytypecheck-leftbitshift 0;
#X obj 94 62 inlet;
#X obj 139 63 inlet;
#X obj 122 214 outlet;
#X floatatom 139 102 5 0 0 0 - - - 0;
#X obj 121 185 spigot 0;
#X obj 183 166 tgl 15 0 empty empty empty 17 7 0 10 #fcfcfc #000000
#000000 0 1;
#X msg 182 114 1;
#X obj 121 156 == 1;
#X msg 206 145 0;
#X obj 220 123 r \$0-disablecomtype;
#X obj 181 84 r \$0-enablecomtype12;
#X obj 121 130 <<;
#X connect 0 0 11 0;
#X connect 1 0 3 0;
#X connect 3 0 11 1;
#X connect 4 0 2 0;
#X connect 5 0 4 1;
#X connect 6 0 5 0;
#X connect 7 0 4 0;
#X connect 8 0 5 0;
#X connect 9 0 8 0;
#X connect 10 0 6 0;
#X connect 11 0 7 0;
#X restore 301 414 pd \$0-bytypecheck-leftbitshift;
#N canvas 208 208 450 300 \$0-bytypecheck-rightbitshift 0;
#X obj 94 62 inlet;
#X obj 139 63 inlet;
#X obj 122 214 outlet;
#X floatatom 139 102 5 0 0 0 - - - 0;
#X obj 121 185 spigot 0;
#X obj 183 166 tgl 15 0 empty empty empty 17 7 0 10 #fcfcfc #000000
#000000 0 1;
#X msg 182 114 1;
#X obj 121 156 == 1;
#X msg 206 145 0;
#X obj 220 123 r \$0-disablecomtype;
#X obj 180 83 r \$0-enablecomtype13;
#X obj 121 130 >>;
#X connect 0 0 11 0;
#X connect 1 0 3 0;
#X connect 3 0 11 1;
#X connect 4 0 2 0;
#X connect 5 0 4 1;
#X connect 6 0 5 0;
#X connect 7 0 4 0;
#X connect 8 0 5 0;
#X connect 9 0 8 0;
#X connect 10 0 6 0;
#X connect 11 0 7 0;
#X restore 289 388 pd \$0-bytypecheck-rightbitshift;
#X obj 94 61 inlet;
#X obj 448 163 inlet;
#X obj 91 262 bng 15 250 50 0 empty empty empty 17 7 0 10 #fcfcfc #000000
#000000;
#X connect 0 0 3 1;
#X connect 0 0 4 1;
#X connect 0 0 5 1;
#X connect 0 0 6 1;
#X connect 0 0 7 1;
#X connect 0 0 8 1;
#X connect 0 0 9 1;
#X connect 0 0 10 1;
#X connect 0 0 11 1;
#X connect 0 0 12 1;
#X connect 0 0 13 1;
#X connect 0 0 15 1;
#X connect 0 0 14 1;
#X connect 1 0 3 0;
#X connect 1 0 5 0;
#X connect 1 0 4 0;
#X connect 1 0 6 0;
#X connect 1 0 8 0;
#X connect 1 0 9 0;
#X connect 1 0 11 0;
#X connect 1 0 12 0;
#X connect 1 0 13 0;
#X connect 1 0 15 0;
#X connect 1 0 14 0;
#X connect 1 0 7 0;
#X connect 3 0 2 0;
#X connect 4 0 2 0;
#X connect 4 0 18 0;
#X connect 5 0 2 0;
#X connect 6 0 2 0;
#X connect 7 0 2 0;
#X connect 8 0 2 0;
#X connect 9 0 2 0;
#X connect 10 0 2 0;
#X connect 11 0 2 0;
#X connect 12 0 2 0;
#X connect 13 0 2 0;
#X connect 14 0 2 0;
#X connect 15 0 2 0;
#X connect 16 0 1 0;
#X connect 17 0 0 0;
#X restore 53 495 pd \$0-checksomparisons;
#N canvas 1116 64 450 474 \$0-comparisonselectiontype 0;
#X obj 61 40 inlet;
#X obj 61 72 sel 0 1 2 3 4 5 6 7 8 9 10 11 12;
#X obj 284 135 s \$0-disablecomtype;
#X obj 35 125 s \$0-enablecomtype1;
#X obj 59 147 s \$0-enablecomtype2;
#X obj 74 172 s \$0-enablecomtype3;
#X obj 98 195 s \$0-enablecomtype4;
#X obj 115 217 s \$0-enablecomtype5;
#X obj 139 240 s \$0-enablecomtype6;
#X obj 154 264 s \$0-enablecomtype7;
#X obj 177 288 s \$0-enablecomtype8;
#X obj 202 315 s \$0-enablecomtype9;
#X obj 227 337 s \$0-enablecomtype10;
#X obj 242 361 s \$0-enablecomtype11;
#X obj 266 384 s \$0-enablecomtype12;
#X connect 0 0 1 0;
#X connect 1 0 2 0;
#X connect 1 0 3 0;
#X connect 1 1 2 0;
#X connect 1 1 4 0;
#X connect 1 2 2 0;
#X connect 1 2 5 0;
#X connect 1 3 2 0;
#X connect 1 3 6 0;
#X connect 1 4 2 0;
#X connect 1 4 7 0;
#X connect 1 5 2 0;
#X connect 1 5 7 0;
#X connect 1 6 2 0;
#X connect 1 6 8 0;
#X connect 1 7 2 0;
#X connect 1 7 9 0;
#X connect 1 8 2 0;
#X connect 1 8 10 0;
#X connect 1 9 2 0;
#X connect 1 9 11 0;
#X connect 1 10 2 0;
#X connect 1 10 12 0;
#X connect 1 11 2 0;
#X connect 1 11 13 0;
#X connect 1 12 2 0;
#X connect 1 12 14 0;
#X restore 151 258 pd \$0-comparisonselectiontype;
#X obj 62 594 t f;
#X obj 55 520 t f;
#X connect 0 0 25 1;
#X connect 1 0 3 0;
#X connect 2 0 4 0;
#X connect 3 0 5 0;
#X connect 4 0 5 1;
#X connect 5 0 6 0;
#X connect 6 0 15 1;
#X connect 6 0 17 0;
#X connect 7 0 17 0;
#X connect 7 0 25 0;
#X connect 8 0 13 0;
#X connect 9 0 14 0;
#X connect 10 0 26 0;
#X connect 12 0 20 0;
#X connect 13 0 1 0;
#X connect 13 1 2 0;
#X connect 13 2 10 0;
#X connect 14 0 23 0;
#X connect 15 0 7 0;
#X connect 16 0 22 0;
#X connect 17 0 18 0;
#X connect 19 0 16 0;
#X connect 19 1 8 0;
#X connect 20 0 16 0;
#X connect 20 1 10 1;
#X connect 20 2 8 0;
#X connect 20 3 19 0;
#X connect 21 0 0 0;
#X connect 22 0 15 0;
#X connect 22 1 21 0;
#X connect 23 0 21 0;
#X connect 23 1 24 0;
#X connect 24 0 21 1;
#X connect 25 0 28 0;
#X connect 28 0 11 0;
