#N canvas 621 182 740 508 12;
#X declare -lib clearessentials;
#X obj 268 59 tgl 15 0 empty empty empty 17 7 0 10 #fcfcfc #000000
#000000 0 1;
#X obj 268 185 spigot 0;
#X obj 268 119 change;
#X floatatom 268 164 5 0 0 0 - - - 0;
#X obj 268 97 == 0;
#X obj 282 142 == 0;
#X floatatom 439 203 5 0 0 0 - - - 0;
#X obj 439 182 == 0;
#X obj 439 222 change;
#X floatatom 439 267 5 0 0 0 - - - 0;
#X obj 439 246 == 1;
#X obj 439 286 spigot 0;
#X obj 146 27 inlet;
#X obj 101 102 bng 11 250 50 0 empty empty empty 17 7 0 10 #fcfcfc
#000000 #000000;
#X obj 125 102 bng 11 250 50 0 empty empty empty 17 7 0 10 #fcfcfc
#000000 #000000;
#X obj 433 31 loadbang;
#X obj 326 324 tgl 10 0 exprtloopern-send exprtloopern-recv B 2 5 0
10 #b8b8b8 #000000 #000000 0 1;
#X msg 436 162 1;
#X obj 436 141 t b;
#X obj 113 102 bng 11 250 50 0 empty empty empty 17 7 0 10 #fcfcfc
#000000 #000000;
#X msg 559 438 8;
#X msg 359 297 1;
#X msg 326 298 1;
#X msg 435 78 \$1;
#X floatatom 816 111 5 0 0 0 - - - 0;
#X obj 776 531 symbol;
#X obj 819 215 t b s;
#X msg 815 238 bang;
#X obj 815 130 t f f;
#X obj 618 678 s;
#X obj 326 340 t b b;
#X obj 875 431 f;
#X obj 924 319 t b f;
#X obj 438 350 t f b b b;
#X obj 215 436 pack f f f;
#X obj 513 459 pack f f f;
#X obj 268 205 t b b b b b;
#X obj 434 53 \$0;
#X obj 901 138 \$1;
#X obj 438 326 f;
#X obj 438 306 bng 15 250 50 0 empty empty empty 17 7 0 10 #fcfcfc
#000000 #000000;
#X obj 433 119 del 10, f 7;
#X obj 435 99 t b f;
#X obj 887 357 del 10;
#X obj 884 381 bng 15 250 50 0 empty empty empty 17 7 0 10 #fcfcfc
#000000 #000000;
#X obj 77 60 del 100;
#X obj 144 49 t b b;
#X msg 216 458 \; \$3-issuepatchswitch-recv label_pos \$1 \$2;
#X msg 513 482 \; \$3-issuepatchswitch-recv label_pos \$1 \$2;
#X obj 137 102 bng 11 250 50 0 empty empty empty 17 7 0 10 #fcfcfc
#000000 #000000;
#X obj 148 102 bng 11 250 50 0 empty empty empty 17 7 0 10 #fcfcfc
#000000 #000000;
#X msg 436 375 \; \$1-issuepatchswitch-recv label Report \;;
#X msg 882 467 \; \$1-issuepatchswitch-recv label Report;
#X msg 243 409 8;
#X obj 158 102 bng 11 250 50 0 empty empty empty 17 7 0 10 #fcfcfc
#000000 #000000;
#X obj 100 100 cnv 12 70 13 \$0-issuepatchswitch-send \$0-issuepatchswitch-recv
Report 4 8 0 9 #b8b8b8 #000000 0;
#X obj 139 100 cnv 12 20 13 \$0-issueswitch-send \$0-issueswitch-recv
Issue 3 8 0 9 #b8b8b8 #000000 0;
#X msg 212 409 4;
#X msg 511 437 4;
#X msg 816 189 symbol \$1-processissuereport;
#X obj 89 713 pdcontrol;
#X obj 90 665 r \$0-processissuereport;
#X msg 89 688 browse https://github.com/RetroMaximus/ClearEssentials/issues
, f 63;
#X obj 533 23 declare -lib clearessentials;
#X connect 0 0 1 1;
#X connect 0 0 4 0;
#X connect 0 0 7 0;
#X connect 0 0 11 1;
#X connect 1 0 36 0;
#X connect 2 0 5 0;
#X connect 3 0 1 0;
#X connect 4 0 2 0;
#X connect 5 0 3 0;
#X connect 6 0 8 0;
#X connect 7 0 6 0;
#X connect 8 0 10 0;
#X connect 9 0 11 0;
#X connect 10 0 9 0;
#X connect 11 0 40 0;
#X connect 12 0 46 0;
#X connect 13 0 0 0;
#X connect 14 0 0 0;
#X connect 15 0 37 0;
#X connect 16 0 30 0;
#X connect 17 0 0 0;
#X connect 18 0 17 0;
#X connect 19 0 0 0;
#X connect 20 0 35 1;
#X connect 21 0 16 0;
#X connect 22 0 16 0;
#X connect 23 0 42 0;
#X connect 24 0 28 0;
#X connect 24 0 38 0;
#X connect 24 0 39 1;
#X connect 25 0 29 1;
#X connect 26 0 27 0;
#X connect 26 1 25 1;
#X connect 27 0 25 0;
#X connect 28 0 59 0;
#X connect 28 1 32 0;
#X connect 30 0 29 0;
#X connect 30 1 27 0;
#X connect 31 0 52 0;
#X connect 31 0 34 2;
#X connect 31 0 35 2;
#X connect 32 0 43 0;
#X connect 32 1 31 1;
#X connect 33 0 51 0;
#X connect 33 1 21 0;
#X connect 33 2 58 0;
#X connect 33 3 20 0;
#X connect 34 0 47 0;
#X connect 35 0 48 0;
#X connect 36 1 22 0;
#X connect 36 2 57 0;
#X connect 36 3 53 0;
#X connect 36 4 31 0;
#X connect 37 0 23 0;
#X connect 39 0 33 0;
#X connect 40 0 39 0;
#X connect 41 0 18 0;
#X connect 42 0 41 0;
#X connect 42 1 24 0;
#X connect 43 0 44 0;
#X connect 44 0 31 0;
#X connect 45 0 13 0;
#X connect 46 0 45 0;
#X connect 46 1 13 0;
#X connect 49 0 0 0;
#X connect 50 0 0 0;
#X connect 53 0 34 1;
#X connect 54 0 0 0;
#X connect 57 0 34 0;
#X connect 58 0 35 0;
#X connect 59 0 26 0;
#X connect 61 0 62 0;
#X connect 62 0 60 0;
#X coords 0 -1 1 1 70 13 2 100 100;
