#N canvas 156 156 450 300 12;
#X obj 1218 85 hsl 100 12 0.01 1 1 0 empty empty NoiseFilter 3 6 0 10 #dfdfdf #00faff #000000 0 1;
#X obj 1163 -12 hsl 100 12 0.01 1 0 0 empty empty Threshold 3 6 0 10 #dfdfdf #00faff #000000 0 1;
#X obj 1142 35 hsl 100 12 0 1 0 0 empty empty Input\ Vol 3 6 0 10 #dfdfdf #00faff #000000 0 1;
#X obj 1273 32 tgl 15 0 empty empty adctomidi\ status 17 7 0 10 #fcfcfc #000000 #000000 0 1;
#X msg 1140 57 setmicinput \$1;
#X msg 1160 7 setthreshold \$1;
#X msg 1215 103 setnoisefilter \$1;
#X obj 1206 140 t a;
#X msg 1274 53 settoggle \$1;
#X obj 1266 194 print get_result;
#X obj 1206 241 print note;
#X obj 1289 137 adc~;
#X obj 1234 219 print note_and_message;
#X obj 1206 167 ce_adctomidi;
#X floatatom 996 217 8 0 0 0 Frequency - - 0;
#X obj 938 90 hradio 15 1 0 9 empty empty Tuning 0 -8 0 10 #fcfcfc #000000 #000000 0;
#X floatatom 1131 243 5 0 118 0 Midi\ note - - 0;
#X msg 996 192 440;
#X text 845 192 Known frequency "A4";
#X text 1029 192 Midi note "A4";
#X obj 983 143 hsl 128 15 0.1 1.5 0 0 empty empty detection\ threshold\ 0.1\ to\ 1.5 -2 -8 0 10 #fcfcfc #000000 #000000 0 1;
#X msg 1132 220 69;
#X floatatom 985 168 5 0 0 0 - - - 0;
#X floatatom 1033 278 5 0 118 0 Tuning\ value - - 0;
#X floatatom 954 110 5 0 0 0 - - - 0;
#X obj 938 251 ce_midifreak;
#X msg 974 322 \$3;
#X obj 938 296 t a a;
#X floatatom 973 345 5 0 0 0 - - - 0;
#X floatatom 940 367 5 0 0 0 - - - 0;
#X msg 940 320 \$1;
#N canvas 243 81 887 752 \$0-lecturesmpler 0;
#X floatatom 99 224 5 0 0 0 - - - 0;
#X obj 99 245 mtof;
#X floatatom 99 268 5 0 0 0 - - - 0;
#X obj 99 290 / 440;
#X obj 98 468 line~;
#X obj 98 494 tabread4~ \$0-s-array;
#X obj 98 556 *~ 0.3;
#X obj 98 583 dac~;
#X obj 99 174 tgl 19 0 empty empty empty 0 -10 0 12 #fcfcfc #000000 #000000 0 1;
#X obj 99 341 * 100000;
#X msg 236 689 resize \$1;
#X obj 236 714 s \$0-s-array;
#X obj 99 314 t f f;
#X obj 97 521 hip~ 1;
#X msg 133 118 1;
#X obj 99 120 t b;
#X msg 99 143 0;
#X obj 98 67 bng 19 250 50 0 empty empty empty 0 -10 0 12 #fcfcfc #000000 #000000;
#X obj 99 92 t b b b;
#X floatatom 165 103 5 0 0 0 - - - 0;
#X floatatom 178 151 5 0 0 0 - - - 0;
#X floatatom 152 314 8 0 0 0 - - - 0;
#X msg 165 11 1;
#X msg 171 33 2;
#X msg 178 56 3;
#X msg 181 78 4;
#X obj 99 442 pack f 2268;
#X obj 99 198 metro 500;
#X msg 265 643 100000;
#X obj 178 128 * 1134;
#X obj 178 174 t f f;
#X floatatom 173 418 5 0 0 0 - - - 0;
#X obj 173 396 * 1134;
#X obj 152 290 * 50000;
#X obj 162 616 f;
#X floatatom 235 619 11 0 0 0 start - - 0;
#X obj 99 396 t f b b;
#X obj 710 377 hsl 100 12 0.01 1 1 0 empty empty NoiseFilter 3 6 0 10 #dfdfdf #00faff #000000 0 1;
#X obj 709 335 hsl 100 12 0.01 1 0 0 empty empty Threshold 3 6 0 10 #dfdfdf #00faff #000000 0 1;
#X obj 709 293 hsl 100 12 0 1 0 0 empty empty Input\ Vol 3 6 0 10 #dfdfdf #00faff #000000 0 1;
#X obj 695 246 tgl 15 0 empty empty adctomidi\ status 17 7 0 10 #fcfcfc #000000 #000000 0 1;
#X msg 706 310 setmicinput \$1;
#X msg 706 353 setthreshold \$1;
#X msg 707 395 setnoisefilter \$1;
#X obj 686 426 t a;
#X msg 695 268 settoggle \$1;
#X obj 746 480 print get_result;
#X obj 686 527 print note;
#X obj 769 423 adc~;
#X obj 714 505 print note_and_message;
#X obj 686 453 ce_adctomidi;
#X floatatom 235 565 5 0 0 0 - - - 0;
#X obj 235 589 * 100;
#X msg 275 539 0;
#X msg 235 539 200;
#X floatatom 474 529 8 0 0 0 Frequency - - 0;
#X obj 416 402 hradio 15 1 0 9 empty empty Tuning 0 -8 0 10 #fcfcfc #000000 #000000 0;
#X floatatom 611 529 5 0 118 0 Midi\ note - - 0;
#X msg 474 504 440;
#X text 323 504 Known frequency "A4";
#X text 507 504 Midi note "A4";
#X obj 461 455 hsl 128 15 0.1 1.5 0 0 empty empty detection\ threshold\ 0.1\ to\ 1.5 -2 -8 0 10 #fcfcfc #000000 #000000 0 1;
#X msg 612 506 69;
#X floatatom 463 480 5 0 0 0 - - - 0;
#X floatatom 511 590 5 0 118 0 Tuning\ value - - 0;
#X floatatom 432 422 5 0 0 0 - - - 0;
#X obj 416 563 ce_midifreak;
#X msg 452 634 \$3;
#X obj 416 608 t a a;
#X floatatom 451 657 5 0 0 0 - - - 0;
#X floatatom 419 679 5 0 0 0 - - - 0;
#X msg 418 632 \$1;
#X msg 30 212 69;
#X obj 234 644 +;
#X msg 153 467 0;
#X floatatom 162 638 5 0 0 0 - - - 0;
#X obj 282 75 table \$0-s-array;
#X connect 0 0 1 0;
#X connect 1 0 2 0;
#X connect 2 0 3 0;
#X connect 3 0 12 0;
#X connect 4 0 5 0;
#X connect 5 0 13 0;
#X connect 6 0 7 1;
#X connect 6 0 7 0;
#X connect 8 0 27 0;
#X connect 9 0 36 0;
#X connect 10 0 11 0;
#X connect 12 0 9 0;
#X connect 13 0 6 0;
#X connect 14 0 8 0;
#X connect 15 0 16 0;
#X connect 16 0 8 0;
#X connect 17 0 18 0;
#X connect 18 0 15 0;
#X connect 18 1 14 0;
#X connect 19 0 29 0;
#X connect 19 0 33 0;
#X connect 19 0 32 0;
#X connect 20 0 30 0;
#X connect 21 0 9 1;
#X connect 22 0 19 0;
#X connect 23 0 19 0;
#X connect 24 0 19 0;
#X connect 25 0 19 0;
#X connect 26 0 4 0;
#X connect 27 0 0 0;
#X connect 28 0 73 1;
#X connect 29 0 20 0;
#X connect 30 0 27 1;
#X connect 31 0 26 1;
#X connect 32 0 31 0;
#X connect 33 0 21 0;
#X connect 34 0 75 0;
#X connect 35 0 73 0;
#X connect 36 0 26 0;
#X connect 36 1 34 0;
#X connect 36 1 74 0;
#X connect 37 0 43 0;
#X connect 38 0 42 0;
#X connect 39 0 41 0;
#X connect 40 0 45 0;
#X connect 41 0 44 0;
#X connect 42 0 44 0;
#X connect 43 0 44 0;
#X connect 44 0 50 0;
#X connect 45 0 44 0;
#X connect 48 0 50 1;
#X connect 48 1 50 1;
#X connect 50 0 66 4;
#X connect 50 1 49 0;
#X connect 50 2 46 0;
#X connect 51 0 52 0;
#X connect 52 0 35 0;
#X connect 52 0 34 1;
#X connect 53 0 51 0;
#X connect 54 0 51 0;
#X connect 55 0 66 3;
#X connect 56 0 66 0;
#X connect 57 0 66 4;
#X connect 58 0 55 0;
#X connect 61 0 63 0;
#X connect 61 0 66 2;
#X connect 62 0 57 0;
#X connect 65 0 66 1;
#X connect 66 0 68 0;
#X connect 66 1 64 0;
#X connect 67 0 69 0;
#X connect 68 0 71 0;
#X connect 68 1 67 0;
#X connect 69 0 3 1;
#X connect 70 0 0 0;
#X connect 71 0 70 0;
#X connect 72 0 0 0;
#X connect 74 0 4 0;
#X restore 322 35 pd \$0-lecturesmpler;
#X obj 1011 535 bng 19 250 50 0 empty empty empty 0 -10 0 12 #fcfcfc #000000 #000000;
#X obj 1011 558 openpanel;
#X obj 1011 670 pack s f;
#X obj 1011 581 t s b;
#N canvas 322 35 953 635 \$0-sortqueuepositions 0;
#X obj 134 40 r \$0-startendqueue-data;
#X msg 135 102 \$1;
#X obj 136 185 list append;
#X msg 228 183 \$2 \$3;
#X obj 134 68 t a a a b;
#X msg 183 98 \$1;
#X obj 135 147 f;
#X obj 133 213 t a a a b;
#X msg 132 238 \$2;
#X msg 166 241 \$2;
#X obj 258 365 list append;
#X msg 333 333 \$3;
#X obj 131 273 sel 0 1 2 3;
#X obj 131 325 f;
#X obj 173 323 f;
#X obj 222 271 t f f f f;
#X obj 213 326 f;
#X obj 255 324 f;
#X obj 134 125 sel 0;
#X obj 183 119 t f;
#X obj 258 389 t a a a b;
#X obj 254 457 sel 0 1 2 3;
#X obj 254 509 f;
#X obj 296 507 f;
#X obj 347 452 t f f f f;
#X obj 336 510 f;
#X obj 378 508 f;
#X msg 259 419 \$1;
#X msg 341 417 \$2;
#X obj 254 562 s \$0-corse-start;
#X obj 296 590 s \$0-fine-start;
#X obj 336 535 s \$0-corse-end;
#X obj 379 558 s \$0-fine-end;
#X obj 553 29 r \$0-corse-start;
#X obj 581 51 r \$0-fine-start;
#X obj 739 37 r \$0-corse-end;
#X obj 771 61 r \$0-fine-end;
#X floatatom 753 136 5 0 0 0 - - - 0;
#X obj 582 99 t b f;
#X obj 776 112 t b f;
#X obj 525 181 sel 1;
#X obj 519 207 t b;
#X obj 558 208 t b;
#X obj 557 232 f;
#X obj 530 126 t f f f;
#X obj 551 100 +;
#X obj 529 152 > 1;
#X msg 519 232 1;
#X obj 774 85 / 4;
#X obj 583 76 / 4;
#X obj 737 107 +;
#X obj 732 211 sel 1;
#X obj 726 237 t b;
#X obj 765 238 t b;
#X obj 764 262 f;
#X obj 737 156 t f f f;
#X obj 730 288 t f;
#X obj 736 182 > 1;
#X msg 726 262 1;
#X obj 793 314 r \$0-smp-size;
#X obj 793 386 vsl 19 50 0 302401 0 0 empty empty empty 0 -9 0 12 #fcfcfc #000000 #000000 0 1;
#X obj 778 288 r \$0-smp-size;
#X obj 762 314 *;
#X msg 793 360 range 0 \$1;
#X obj 793 337 t f f;
#X obj 509 347 r \$0-smp-size;
#X obj 508 426 vsl 19 50 0 302401 0 0 empty empty empty 0 -9 0 12 #fcfcfc #000000 #000000 0 1;
#X msg 511 398 range 0 \$1;
#X obj 510 373 t f f;
#X obj 525 270 t f f;
#X obj 519 547 outlet;
#X obj 764 534 outlet;
#X connect 0 0 4 0;
#X connect 1 0 18 0;
#X connect 2 0 7 0;
#X connect 3 0 2 1;
#X connect 4 0 1 0;
#X connect 4 1 5 0;
#X connect 4 2 3 0;
#X connect 4 3 2 1;
#X connect 5 0 19 0;
#X connect 6 0 2 0;
#X connect 7 0 8 0;
#X connect 7 1 9 0;
#X connect 7 2 11 0;
#X connect 7 3 10 1;
#X connect 8 0 12 0;
#X connect 9 0 15 0;
#X connect 10 0 20 0;
#X connect 11 0 10 1;
#X connect 12 0 13 0;
#X connect 12 1 14 0;
#X connect 12 2 16 0;
#X connect 12 3 17 0;
#X connect 13 0 10 0;
#X connect 14 0 10 0;
#X connect 15 0 13 1;
#X connect 15 1 14 1;
#X connect 15 2 16 1;
#X connect 15 3 17 1;
#X connect 16 0 10 0;
#X connect 17 0 10 0;
#X connect 18 0 6 0;
#X connect 19 0 6 1;
#X connect 20 0 27 0;
#X connect 20 1 28 0;
#X connect 21 0 22 0;
#X connect 21 1 23 0;
#X connect 21 2 25 0;
#X connect 21 3 26 0;
#X connect 22 0 29 0;
#X connect 23 0 30 0;
#X connect 24 0 22 1;
#X connect 24 1 23 1;
#X connect 24 2 25 1;
#X connect 24 3 26 1;
#X connect 25 0 31 0;
#X connect 26 0 32 0;
#X connect 27 0 21 0;
#X connect 28 0 24 0;
#X connect 33 0 45 0;
#X connect 34 0 49 0;
#X connect 35 0 50 0;
#X connect 36 0 48 0;
#X connect 38 0 45 0;
#X connect 38 1 45 1;
#X connect 39 0 50 0;
#X connect 39 1 50 1;
#X connect 40 0 41 0;
#X connect 40 1 42 0;
#X connect 41 0 47 0;
#X connect 42 0 43 0;
#X connect 43 0 69 0;
#X connect 44 0 46 0;
#X connect 44 2 43 1;
#X connect 45 0 44 0;
#X connect 46 0 40 0;
#X connect 47 0 69 0;
#X connect 48 0 39 0;
#X connect 49 0 38 0;
#X connect 50 0 37 0;
#X connect 50 0 55 0;
#X connect 51 0 52 0;
#X connect 51 1 53 0;
#X connect 52 0 58 0;
#X connect 53 0 54 0;
#X connect 54 0 56 0;
#X connect 55 0 57 0;
#X connect 55 2 54 1;
#X connect 56 0 62 0;
#X connect 57 0 51 0;
#X connect 58 0 56 0;
#X connect 59 0 64 0;
#X connect 60 0 71 0;
#X connect 61 0 62 1;
#X connect 62 0 60 0;
#X connect 63 0 60 0;
#X connect 64 0 63 0;
#X connect 65 0 68 0;
#X connect 66 0 70 0;
#X connect 67 0 66 0;
#X connect 68 0 67 0;
#X connect 69 1 66 0;
#X restore 476 603 pd \$0-sortqueuepositions;
#X obj 540 487 tgl 19 0 empty empty empty 0 -10 0 12 #fcfcfc #000000 #000000 0 1;
#X obj 769 492 tgl 19 0 empty empty empty 0 -10 0 12 #fcfcfc #000000 #000000 0 1;
#X obj 43 488 bng 19 250 50 0 empty empty empty 0 -10 0 12 #fcfcfc #000000 #000000;
#X obj 1011 511 r \$0-smp-loadfromdir;
#X obj 62 156 dac~ 1 2;
#N canvas 685 219 707 754 \$0-queue-toDAC 0;
#X obj 77 551 *~ 0.3;
#X obj 76 362 phasor~;
#X obj 114 389 r \$0-smp-size;
#X obj 76 403 *~;
#X obj 77 472 tabread4~ \$0-s-array-L;
#X obj 132 502 tabread4~ \$0-s-array-R;
#X obj 76 524 hip~ 3;
#X obj 133 553 *~ 0.3;
#X obj 132 526 hip~ 3;
#X obj 192 550 vsl 19 100 0 1 0 0 empty empty empty 0 -9 0 12 #fcfcfc #000000 #000000 0 1;
#X floatatom 192 656 5 0 0 0 - - - 0;
#X obj 46 236 hsl 100 19 0 1 0 0 empty empty empty -2 -10 0 12 #fcfcfc #000000 #000000 0 1;
#X obj 95 157 r \$0-raw-pitch;
#X obj 43 182 f;
#X msg 229 387 0;
#X msg 92 300 0;
#X obj 381 151 f;
#X obj 40 136 t b b b;
#X obj 381 174 * 44100;
#X obj 462 564 spigot 0;
#X obj 531 529 tgl 19 0 empty empty loop 0 -10 0 12 #fcfcfc #000000 #000000 0 1;
#X obj 381 219 * 1;
#X obj 92 323 spigot 0;
#X obj 209 197 tgl 19 0 empty empty empty 0 -10 0 12 #fcfcfc #000000 #000000 0 1;
#X obj 168 324 f;
#X obj 221 250 == 0;
#X obj 221 275 change;
#X obj 221 301 == 1;
#X obj 170 350 spigot 0;
#X obj 222 326 tgl 19 0 empty empty empty 0 -10 0 12 #fcfcfc #000000 #000000 0 1;
#X obj 40 109 t b b b;
#X msg 40 85 bang;
#X obj 247 444 tgl 19 0 empty empty empty 0 -10 0 12 #fcfcfc #000000 #000000 0 1;
#X obj 76 449 *~;
#X msg 274 387 1;
#X obj 229 413 t f f;
#X obj 399 127 r \$0-raw-pitch;
#X obj 193 228 r \$0-start-tophasor;
#X obj 192 524 r \$0-smp-monitor;
#X obj 381 197 t f f;
#X obj 40 38 r \$0-play-loadedsmpl;
#X obj 456 415 r \$0-end-tophasor;
#X obj 339 477 tgl 19 0 empty empty empty 0 -10 0 12 #fcfcfc #000000 #000000 0 1;
#X obj 339 529 snapshot~;
#X obj 338 604 r \$0-smp-size;
#X obj 311 629 /;
#X obj 314 676 hsl 162 19 0 1 0 0 empty empty empty -2 -10 0 12 #fcfcfc #000000 #000000 0 1;
#X obj 311 651 t f;
#X floatatom 340 651 5 0 0 0 - - - 0;
#X obj 339 501 metro 10;
#X floatatom 456 463 7 0 0 0 - - - 0;
#X obj 438 487 >=;
#X obj 438 511 sel 1;
#X msg 496 677 0;
#X obj 40 62 t b b;
#X floatatom 352 630 8 0 0 0 - - - 0;
#X obj 338 579 f;
#X obj 339 556 t b f;
#X obj 209 174 r \$0-playfrom-start;
#X obj 548 554 == 1;
#X obj 548 577 change;
#X obj 548 601 == 0;
#X obj 495 652 spigot 0;
#X obj 548 628 tgl 19 0 empty empty empty 0 -10 0 12 #fcfcfc #000000 #000000 0 1;
#X obj 438 534 t b b b;
#X obj 465 591 t b b b;
#X obj 531 489 r \$0-loop-queues;
#X floatatom 381 243 8 0 0 0 - - - 0;
#X obj 456 439 - 1000;
#X obj 250 361 t b;
#X obj 251 339 r \$0-smp-stop;
#X obj 77 577 outlet~;
#X obj 134 579 outlet~;
#X connect 0 0 71 0;
#X connect 1 0 3 0;
#X connect 2 0 3 1;
#X connect 3 0 33 0;
#X connect 3 0 43 0;
#X connect 4 0 6 0;
#X connect 5 0 8 0;
#X connect 6 0 0 0;
#X connect 7 0 72 0;
#X connect 8 0 7 0;
#X connect 9 0 7 1;
#X connect 9 0 0 1;
#X connect 9 0 10 0;
#X connect 11 0 1 0;
#X connect 12 0 13 1;
#X connect 13 0 11 0;
#X connect 14 0 35 0;
#X connect 14 0 42 0;
#X connect 15 0 22 0;
#X connect 16 0 18 0;
#X connect 17 0 13 0;
#X connect 17 1 15 0;
#X connect 17 2 24 0;
#X connect 18 0 39 0;
#X connect 19 0 65 0;
#X connect 20 0 19 1;
#X connect 20 0 59 0;
#X connect 21 0 67 0;
#X connect 22 0 1 1;
#X connect 23 0 22 1;
#X connect 23 0 25 0;
#X connect 24 0 28 0;
#X connect 25 0 26 0;
#X connect 26 0 27 0;
#X connect 27 0 29 0;
#X connect 28 0 1 1;
#X connect 29 0 28 1;
#X connect 30 0 17 0;
#X connect 30 1 16 0;
#X connect 30 2 34 0;
#X connect 31 0 30 0;
#X connect 32 0 33 1;
#X connect 33 0 5 0;
#X connect 33 0 4 0;
#X connect 34 0 32 0;
#X connect 34 0 42 0;
#X connect 35 0 11 0;
#X connect 35 1 32 0;
#X connect 36 0 16 1;
#X connect 37 0 24 1;
#X connect 38 0 9 0;
#X connect 39 0 21 0;
#X connect 40 0 54 0;
#X connect 41 0 68 0;
#X connect 42 0 49 0;
#X connect 43 0 51 0;
#X connect 43 0 57 0;
#X connect 44 0 45 1;
#X connect 44 0 55 0;
#X connect 45 0 47 0;
#X connect 47 0 46 0;
#X connect 47 0 48 0;
#X connect 49 0 43 0;
#X connect 50 0 51 1;
#X connect 51 0 52 0;
#X connect 52 0 64 0;
#X connect 53 0 32 0;
#X connect 53 0 42 0;
#X connect 54 0 31 0;
#X connect 56 0 45 0;
#X connect 57 0 56 0;
#X connect 57 1 56 1;
#X connect 58 0 23 0;
#X connect 59 0 60 0;
#X connect 60 0 61 0;
#X connect 61 0 63 0;
#X connect 62 0 53 0;
#X connect 63 0 62 1;
#X connect 64 0 24 0;
#X connect 64 1 19 0;
#X connect 64 2 62 0;
#X connect 65 1 24 0;
#X connect 65 2 15 0;
#X connect 66 0 20 0;
#X connect 68 0 50 0;
#X connect 69 0 14 0;
#X connect 70 0 69 0;
#X restore 63 132 pd \$0-queue-toDAC;
#X msg 322 134 0;
#X obj 322 111 loadbang;
#X obj 321 72 clone ce_smpengineclone 64;
#X msg 1011 694 set_smploc \$2 \$1;
#X obj 1064 623 f;
#X msg 582 68 symbol \$1-tosmpengine;
#X obj 563 92 s;
#X obj 1064 647 t f f;
#X obj 582 42 r \$0-atengineindex;
#X obj 1096 670 s \$0-atengineindex;
#X obj 563 18 r \$0-cmdtoengine;
#X obj 1011 717 s \$0-cmdtoengine;
#X obj 215 723 s \$0-cmdtoengine;
#X obj 300 676 s \$0-atengineindex;
#X msg 215 699 set_monvol \$2 \$1;
#X obj 268 652 t f f;
#X obj 215 676 pack f f;
#X obj 211 604 r \$0-smp-monitor;
#X obj 214 650 t f;
#X obj 476 721 s \$0-cmdtoengine;
#X obj 561 674 s \$0-atengineindex;
#X obj 529 650 t f f;
#X obj 476 674 pack f f;
#X msg 476 697 set_startqueue \$2 \$1;
#X obj 695 723 s \$0-cmdtoengine;
#X obj 780 676 s \$0-atengineindex;
#X obj 748 652 t f f;
#X obj 695 676 pack f f;
#X msg 695 699 set_endqueue \$2 \$1;
#X obj 249 630 r \$0-tosmp-index;
#X obj 1082 600 r \$0-tosmp-index;
#X obj 748 627 r \$0-tosmp-index;
#X obj 529 627 r \$0-tosmp-index;
#X obj 180 47 s \$0-tosmp-index;
#X floatatom 180 22 5 0 0 0 - - - 0;
#X obj 768 570 s \$0-cmdtoengine;
#X obj 853 523 s \$0-atengineindex;
#X obj 821 499 t f f;
#X obj 768 523 pack f f;
#X obj 821 474 r \$0-tosmp-index;
#X msg 768 546 set_loop \$2 \$1;
#X obj 541 565 s \$0-cmdtoengine;
#X obj 626 518 s \$0-atengineindex;
#X obj 594 494 t f f;
#X obj 541 518 pack f f;
#X obj 594 469 r \$0-tosmp-index;
#X msg 541 541 set_startat \$2 \$1;
#X obj 43 566 s \$0-cmdtoengine;
#X obj 128 519 s \$0-atengineindex;
#X obj 96 495 t f f;
#X obj 43 519 pack f f;
#X obj 96 470 r \$0-tosmp-index;
#X msg 43 542 stop_smp \$2 \$1;
#X obj 322 156 s \$0-defaultvalues;
#X obj 528 440 t f f;
#X obj 528 416 r \$0-defaultvalues;
#X obj 46 299 r \$0-play-loadedsmpl;
#X obj 44 436 s \$0-cmdtoengine;
#X obj 129 389 s \$0-atengineindex;
#X obj 97 365 t f f;
#X obj 44 389 pack f f;
#X obj 97 340 r \$0-tosmp-index;
#X msg 44 412 play_smp \$2 \$1;
#X obj 45 325 t b;
#X connect 0 0 6 0;
#X connect 1 0 5 0;
#X connect 2 0 4 0;
#X connect 3 0 8 0;
#X connect 4 0 7 0;
#X connect 5 0 7 0;
#X connect 6 0 7 0;
#X connect 7 0 13 0;
#X connect 8 0 7 0;
#X connect 11 0 13 1;
#X connect 11 1 13 1;
#X connect 13 0 25 4;
#X connect 13 1 12 0;
#X connect 13 2 9 0;
#X connect 14 0 25 3;
#X connect 15 0 25 0;
#X connect 16 0 25 4;
#X connect 17 0 14 0;
#X connect 20 0 22 0;
#X connect 20 0 25 2;
#X connect 21 0 16 0;
#X connect 24 0 25 1;
#X connect 25 0 27 0;
#X connect 25 1 23 0;
#X connect 26 0 28 0;
#X connect 27 0 30 0;
#X connect 27 1 26 0;
#X connect 30 0 29 0;
#X connect 32 0 33 0;
#X connect 33 0 35 0;
#X connect 34 0 46 0;
#X connect 35 0 34 0;
#X connect 35 1 47 0;
#X connect 36 0 65 0;
#X connect 36 1 70 0;
#X connect 37 0 87 0;
#X connect 38 0 81 0;
#X connect 39 0 93 0;
#X connect 40 0 32 0;
#X connect 42 0 41 0;
#X connect 42 1 41 1;
#X connect 43 0 96 0;
#X connect 44 0 43 0;
#X connect 46 0 54 0;
#X connect 47 0 50 0;
#X connect 48 0 49 1;
#X connect 50 0 34 1;
#X connect 50 1 52 0;
#X connect 51 0 48 0;
#X connect 53 0 49 0;
#X connect 57 0 55 0;
#X connect 58 0 59 1;
#X connect 58 1 56 0;
#X connect 59 0 57 0;
#X connect 60 0 61 0;
#X connect 61 0 59 0;
#X connect 64 0 65 1;
#X connect 64 1 63 0;
#X connect 65 0 66 0;
#X connect 66 0 62 0;
#X connect 69 0 70 1;
#X connect 69 1 68 0;
#X connect 70 0 71 0;
#X connect 71 0 67 0;
#X connect 72 0 58 0;
#X connect 73 0 47 1;
#X connect 74 0 69 0;
#X connect 75 0 64 0;
#X connect 77 0 76 0;
#X connect 80 0 81 1;
#X connect 80 1 79 0;
#X connect 81 0 83 0;
#X connect 82 0 80 0;
#X connect 83 0 78 0;
#X connect 86 0 87 1;
#X connect 86 1 85 0;
#X connect 87 0 89 0;
#X connect 88 0 86 0;
#X connect 89 0 84 0;
#X connect 92 0 93 1;
#X connect 92 1 91 0;
#X connect 93 0 95 0;
#X connect 94 0 92 0;
#X connect 95 0 90 0;
#X connect 97 0 37 0;
#X connect 97 1 38 0;
#X connect 98 0 97 0;
#X connect 99 0 106 0;
#X connect 102 0 103 1;
#X connect 102 1 101 0;
#X connect 103 0 105 0;
#X connect 104 0 102 0;
#X connect 105 0 100 0;
#X connect 106 0 103 0;
