#N canvas 33 42 1057 514 12;
#X obj 496 252 tolowercase;
#X obj 570 277 print;
#X floatatom 430 202 5 0 0 0 - - - 0;
#X obj 496 278 print;
#X msg 507 227 setjoiner symbol;
#X text 27 46 Written By: Reg Finely;
#X text 26 67 Aka Scr1ptAl1as;
#X text 28 106 Pd 0.52.2;
#X text 634 33 Note* Atoms can be passed to recive a number as a symbol.
;
#X text 201 17 [tolowercase] turns symbols that contain capital letters
to all lowercase.;
#X text 26 85 2022/06/13 11:45 PM;
#X text 26 27 tolowercase v1.0;
#X text 200 50 Joiner can be set for a desired result.;
#N canvas 1117 90 809 454 \$0-examplepatch 1;
#X obj 96 136 tolowercase;
#X obj 170 161 print;
#X obj 75 46 bng 15 250 50 0 empty empty empty 17 7 0 10 #fcfcfc #000000
#000000;
#X obj 107 375 tolowercase;
#X obj 107 401 print;
#X obj 86 282 bng 15 250 50 0 empty empty empty 17 7 0 10 #fcfcfc #000000
#000000;
#X msg 118 350 setjoiner symbol;
#X msg 107 112 setjoiner symbol /;
#X msg 75 88 symbol This_Is_A_Symbol_With_Caps;
#X msg 86 325 symbol Notice what happens.;
#X text 83 256 A symbol can not contain spaces;
#X obj 505 216 tolowercase;
#X obj 579 243 print;
#X floatatom 506 192 5 0 0 0 - - - 0;
#X text 388 149 this is a side effect but still very useful. Atoms
can be converted into symbols quicky;
#X obj 75 64 t b b;
#X obj 86 300 t b b;
#X connect 0 1 1 0;
#X connect 2 0 15 0;
#X connect 3 0 4 0;
#X connect 5 0 16 0;
#X connect 6 0 3 0;
#X connect 7 0 0 0;
#X connect 8 0 0 0;
#X connect 9 0 3 0;
#X connect 11 1 12 0;
#X connect 13 0 11 0;
#X connect 15 0 8 0;
#X connect 15 1 7 0;
#X connect 16 0 9 0;
#X connect 16 1 6 0;
#X restore 29 211 pd \$0-examplepatch;
#X msg 475 202 setsymbol HELLO-testing1!2@34-TESTing123;
#X obj 28 152 reportissue;
#X obj 28 132 aboutexternal;
#X connect 0 0 3 0;
#X connect 0 1 1 0;
#X connect 2 0 0 0;
#X connect 4 0 0 0;
#X connect 14 0 0 0;
